<?xml version="1.0" encoding="utf-8"?>
<!-- Generator: Adobe Illustrator 18.0.0, SVG Export Plug-In . SVG Version: 6.00 Build 0)  -->
<!DOCTYPE svg PUBLIC "-//W3C//DTD SVG 1.1//EN" "http://www.w3.org/Graphics/SVG/1.1/DTD/svg11.dtd">
<svg version="1.1" id="Layer_1" xmlns="http://www.w3.org/2000/svg" xmlns:xlink="http://www.w3.org/1999/xlink" x="0px" y="0px"
	 viewBox="0 0 600 300" enable-background="new 0 0 600 300" xml:space="preserve">
<g>
	<path fill="#E7E1D4" d="M259.9,13.1v20.4c0,9-4.7,13.8-13,13.8c-8.2,0-12.9-4.8-12.9-13.8V13.1h3.2v20.4c0,7.2,3.3,10.8,9.7,10.8
		s9.7-3.6,9.7-10.8V13.1H259.9z"/>
	<path fill="#E7E1D4" d="M270.2,11.6v14.4c0.8-2.1,3.6-4,6.8-4c5,0,7.9,3.6,7.9,9.1v15.6h-3V31.4c0-4.2-2-6.4-5.3-6.4
		c-3.7,0-6.3,3.3-6.3,8.3v13.4h-3v-35H270.2z"/>
	<path fill="#E7E1D4" d="M304.7,32.8v2.7h-15.1v-2.7H304.7z"/>
	<path fill="#E7E1D4" d="M319.7,22c3.6,0,6.4,1.2,8.6,3.6s3.3,5.4,3.3,9c0,3.6-1.1,6.7-3.3,9c-2.2,2.4-5.1,3.6-8.6,3.6
		c-3.6,0-6.4-1.2-8.7-3.6c-2.2-2.4-3.3-5.4-3.3-9c0-3.6,1.1-6.7,3.3-9C313.2,23.2,316.1,22,319.7,22z M313.2,27.6
		c-1.6,1.8-2.4,4.1-2.4,7c0,2.8,0.8,5.1,2.4,7c1.7,1.8,3.8,2.7,6.5,2.7c2.6,0,4.8-0.9,6.4-2.7c1.6-1.9,2.4-4.2,2.4-7
		c0-2.8-0.8-5.1-2.4-7c-1.6-1.9-3.7-2.8-6.4-2.8C317,24.9,314.9,25.8,313.2,27.6z"/>
	<path fill="#E7E1D4" d="M340.3,11.6v14.4c0.8-2.1,3.6-4,6.8-4c5,0,7.9,3.6,7.9,9.1v15.6h-3V31.4c0-4.2-2-6.4-5.3-6.4
		c-3.7,0-6.3,3.3-6.3,8.3v13.4h-3v-35H340.3z"/>
	<path fill="#E7E1D4" d="M364,47.2c-1.5,0-2.6-1.1-2.6-2.5s1.1-2.6,2.6-2.6s2.6,1.1,2.6,2.6C366.6,46,365.5,47.2,364,47.2z
		 M365.5,13.1v24.3h-3V13.1H365.5z"/>
	<path fill="#E7E1D4" d="M122.5,70.7v33.6h-3.2V70.7H122.5z"/>
	<path fill="#E7E1D4" d="M148,88.7v15.6h-3V89c0-4.2-2-6.4-5.3-6.4c-3.7,0-6.3,3.3-6.3,8.3v13.4h-3V80.2h2.8l0.1,3.6
		c1-2.3,3.6-4.2,6.9-4.2C145.2,79.6,148,83.3,148,88.7z"/>
	<path fill="#E7E1D4" d="M159.6,74l0,6.1h6.5V83h-6.6l-0.1,14.6c0,2.9,0.8,4.2,3.6,4.2c1,0,2.1-0.1,3.1-0.5v2.7
		c-0.8,0.3-2,0.5-3.4,0.5c-4.2,0-6.3-2-6.2-6.6l0.1-15h-4.8v-2.8h4.8l0-6.1H159.6z"/>
	<path fill="#E7E1D4" d="M191.5,91.7v1.7h-19.2c0.2,5.2,3.7,8.6,8.4,8.6c3.8,0,6.2-1.5,7.4-4.5h3.1c-1.5,4.7-5.2,7.3-10.6,7.3
		c-3.3,0-6-1.2-8.2-3.5c-2.1-2.3-3.2-5.3-3.2-9.1c0-3.7,1-6.7,3.1-9.1c2.1-2.4,4.8-3.6,8.2-3.6C187.2,79.6,191.5,84,191.5,91.7z
		 M172.4,90.6h16.1c0-5-3.1-8.2-7.9-8.2C176,82.5,172.8,85.8,172.4,90.6z"/>
	<path fill="#E7E1D4" d="M208.4,82.9c-2,0-3.6,0.7-4.9,2c-1.5,1.5-2.3,3.6-2.3,6.3v13.1h-3V80.2h2.8l0.1,4.4c1-2.5,3.5-4.6,7.3-4.6
		V82.9z"/>
	<path fill="#E7E1D4" d="M231.1,88.7v15.6h-3V89c0-4.2-2-6.4-5.3-6.4c-3.7,0-6.3,3.3-6.3,8.3v13.4h-3V80.2h2.8l0.1,3.6
		c1-2.3,3.6-4.2,6.9-4.2C228.2,79.6,231.1,83.3,231.1,88.7z"/>
	<path fill="#E7E1D4" d="M258.5,91.7v1.7h-19.2c0.2,5.2,3.7,8.6,8.4,8.6c3.8,0,6.2-1.5,7.4-4.5h3.1c-1.5,4.7-5.2,7.3-10.6,7.3
		c-3.3,0-6-1.2-8.2-3.5c-2.1-2.3-3.2-5.3-3.2-9.1c0-3.7,1-6.7,3.1-9.1c2.1-2.4,4.8-3.6,8.2-3.6C254.1,79.6,258.5,84,258.5,91.7z
		 M239.4,90.6h16.1c0-5-3.1-8.2-7.9-8.2C243,82.5,239.7,85.8,239.4,90.6z"/>
	<path fill="#E7E1D4" d="M269.1,74l0,6.1h6.5V83H269l-0.1,14.6c0,2.9,0.8,4.2,3.6,4.2c1,0,2.1-0.1,3.1-0.5v2.7
		c-0.8,0.3-2,0.5-3.4,0.5c-4.2,0-6.3-2-6.2-6.6l0.1-15h-4.8v-2.8h4.8l0-6.1H269.1z"/>
	<path fill="#E7E1D4" d="M309.1,70.7v3h-14.9v11.8h13.2v3h-13.2v12.9h14.9v3h-18V70.7H309.1z"/>
	<path fill="#E7E1D4" d="M333.4,80.2l-8.1,11.6l8.8,12.5h-3.6l-7.1-10l-7.1,10h-3.6l8.7-12.5l-8.1-11.6h3.6l6.4,9.2l6.5-9.2H333.4z"
		/>
	<path fill="#E7E1D4" d="M359.3,83.2c2.1,2.4,3.1,5.4,3.1,9c0,3.6-1,6.7-3.1,9c-2.1,2.4-4.8,3.6-8.2,3.6c-4.1,0-7.2-2.1-8.4-4.6
		v14.4h-3.1V80.2h2.9l0,4.1c1.4-2.4,4.6-4.7,8.6-4.7C354.6,79.6,357.3,80.8,359.3,83.2z M345,85c-1.6,1.6-2.4,3.8-2.4,6.6v1
		c0,2.8,0.8,5.1,2.4,6.8c1.6,1.7,3.6,2.5,5.8,2.5c2.5,0,4.6-0.9,6.1-2.7c1.6-1.8,2.4-4.1,2.4-7c0-2.8-0.8-5.2-2.3-7
		c-1.5-1.8-3.6-2.7-6.1-2.7C348.6,82.5,346.6,83.3,345,85z"/>
	<path fill="#E7E1D4" d="M371.2,69.2v35h-3v-35H371.2z"/>
	<path fill="#E7E1D4" d="M389,79.6c3.6,0,6.4,1.2,8.6,3.6s3.3,5.4,3.3,9c0,3.6-1.1,6.7-3.3,9c-2.2,2.4-5.1,3.6-8.6,3.6
		c-3.6,0-6.4-1.2-8.7-3.6c-2.2-2.4-3.3-5.4-3.3-9c0-3.6,1.1-6.7,3.3-9C382.5,80.8,385.4,79.6,389,79.6z M382.5,85.2
		c-1.6,1.8-2.4,4.1-2.4,7c0,2.8,0.8,5.1,2.4,7c1.7,1.8,3.8,2.7,6.5,2.7c2.6,0,4.8-0.9,6.4-2.7c1.6-1.9,2.4-4.2,2.4-7
		c0-2.8-0.8-5.1-2.4-7c-1.6-1.9-3.7-2.8-6.4-2.8C386.3,82.5,384.2,83.4,382.5,85.2z"/>
	<path fill="#E7E1D4" d="M417.1,82.9c-2,0-3.6,0.7-4.9,2c-1.5,1.5-2.3,3.6-2.3,6.3v13.1h-3V80.2h2.8l0.1,4.4c1-2.5,3.5-4.6,7.3-4.6
		V82.9z"/>
	<path fill="#E7E1D4" d="M441.8,91.7v1.7h-19.2c0.2,5.2,3.7,8.6,8.4,8.6c3.8,0,6.2-1.5,7.4-4.5h3.1c-1.5,4.7-5.2,7.3-10.6,7.3
		c-3.3,0-6-1.2-8.2-3.5c-2.1-2.3-3.2-5.3-3.2-9.1c0-3.7,1-6.7,3.1-9.1s4.8-3.6,8.2-3.6C437.4,79.6,441.8,84,441.8,91.7z M422.6,90.6
		h16.1c0-5-3.1-8.2-7.9-8.2C426.2,82.5,423,85.8,422.6,90.6z"/>
	<path fill="#E7E1D4" d="M458.6,82.9c-2,0-3.6,0.7-4.9,2c-1.5,1.5-2.3,3.6-2.3,6.3v13.1h-3V80.2h2.8l0.1,4.4c1-2.5,3.5-4.6,7.3-4.6
		V82.9z"/>
	<path fill="#E7E1D4" d="M461.7,104.8c-2.3,0-3.5-2.8-1.9-4.4c1.5-1.7,4.6-0.4,4.4,1.8C464.2,103.6,463.1,104.8,461.7,104.8z"/>
	<path fill="#E7E1D4" d="M470.9,104.8c-2.3,0-3.5-2.8-1.9-4.4c1.5-1.7,4.6-0.4,4.4,1.8C473.4,103.6,472.2,104.8,470.9,104.8z"/>
	<path fill="#E7E1D4" d="M480,104.8c-2.3,0-3.5-2.8-1.9-4.4c1.5-1.7,4.6-0.4,4.4,1.8C482.6,103.6,481.4,104.8,480,104.8z"/>
</g>
<g>
	<path fill="#E7E1D4" d="M124.8,126.3v17.5h-1.8l-0.1-1.8c-0.9,1.4-2.3,2-4.2,2c-1.7,0-3-0.6-4.1-1.8c-1-1.2-1.6-2.7-1.6-4.5
		c0-1.8,0.5-3.3,1.6-4.5c1.1-1.2,2.4-1.8,4.1-1.8c1.8,0,3.2,0.6,4,1.9v-7.1H124.8z M116.2,134.6c-0.7,0.8-1.1,1.8-1.1,3.1
		c0,2.6,1.5,4.4,3.8,4.4c1,0,1.9-0.4,2.6-1.2c0.7-0.8,1.1-1.8,1.1-3.1v-0.1c0-1.3-0.4-2.4-1.1-3.1c-0.7-0.8-1.6-1.2-2.6-1.2
		C117.8,133.4,116.9,133.8,116.2,134.6z"/>
	<path fill="#E7E1D4" d="M138,133.2c1.2,1.2,1.7,2.7,1.7,4.5s-0.6,3.4-1.7,4.5c-1.1,1.2-2.6,1.8-4.4,1.8c-1.8,0-3.3-0.6-4.4-1.8
		c-1.1-1.2-1.7-2.7-1.7-4.5s0.6-3.4,1.7-4.5c1.2-1.2,2.6-1.8,4.4-1.8C135.4,131.4,136.8,132,138,133.2z M130.7,134.6
		c-0.7,0.8-1.1,1.9-1.1,3.1c0,1.3,0.4,2.3,1.1,3.1c0.7,0.8,1.7,1.2,2.9,1.2c1.2,0,2.1-0.4,2.9-1.2c0.7-0.8,1.1-1.9,1.1-3.1
		c0-1.3-0.4-2.3-1.1-3.1c-0.7-0.8-1.7-1.2-2.9-1.2C132.4,133.3,131.4,133.8,130.7,134.6z"/>
	<path fill="#E7E1D4" d="M153,137.6v1h-9.2c0.2,2.2,1.7,3.6,3.7,3.6c1.7,0,2.8-0.6,3.3-2h2.1c-0.7,2.4-2.6,3.9-5.4,3.9
		c-1.7,0-3.1-0.6-4.2-1.7c-1.1-1.2-1.6-2.7-1.6-4.6c0-1.8,0.5-3.4,1.6-4.5c1.1-1.2,2.5-1.8,4.2-1.8C150.8,131.4,153,133.6,153,137.6
		z M143.8,136.7h7.1c0-2-1.4-3.4-3.4-3.4C145.5,133.3,144.1,134.7,143.8,136.7z"/>
	<path fill="#E7E1D4" d="M162.2,132.5c0.7,0.7,1.1,1.6,1.2,2.8h-2.1c0-1.3-0.6-1.9-1.9-1.9c-1.2,0-1.8,0.7-1.8,1.6
		c0,0.9,0.5,1.3,2.3,1.8c2.9,0.7,4,1.7,4,3.6c0,2.3-1.8,3.7-4.2,3.7c-2.8,0-4.3-1.5-4.4-3.9h2.1c0,1.3,0.8,2,2.4,2
		c1.3,0,2.1-0.7,2.1-1.6c0-1-0.6-1.5-2.5-1.9c-2.6-0.6-3.7-1.5-3.7-3.5c0-1,0.4-1.9,1.1-2.6c0.7-0.7,1.7-1.1,3-1.1
		C160.5,131.4,161.5,131.8,162.2,132.5z"/>
	<path fill="#E7E1D4" d="M175.8,136v7.8h-2.1v-7.5c0-1.8-0.9-2.9-2.4-2.9c-1.6,0-2.8,1.5-2.8,3.9v6.5h-2.1v-12.1h1.8l0.1,1.7
		c0.7-1.3,1.8-1.9,3.4-1.9C174.4,131.4,175.8,133.2,175.8,136z"/>
	<path fill="#E7E1D4" d="M180.4,126.4l-0.5,5h-1.4l-0.2-5H180.4z"/>
	<path fill="#E7E1D4" d="M185.8,128.7l0,3h3.1v1.9h-3.1l0,6.5c0,1.4,0.4,2,1.7,2c0.5,0,1-0.1,1.4-0.2v1.8c-0.4,0.2-1,0.3-1.8,0.3
		c-2.3,0-3.5-1.1-3.4-3.5l0-6.9h-2.3v-1.9h2.3l0-3H185.8z"/>
	<path fill="#E7E1D4" d="M212.6,131.7l-3.8,12.1h-2.1l-2.9-8.6l-3,8.6h-2l-3.8-12.1h2.2l2.5,8.4l0.2,1.1l0.3-1.1l2.7-8.4h1.8
		l2.7,8.4l0.3,1.1l0.2-1.1l2.5-8.4H212.6z"/>
	<path fill="#E7E1D4" d="M224.1,133.2c1.2,1.2,1.7,2.7,1.7,4.5s-0.6,3.4-1.7,4.5c-1.1,1.2-2.6,1.8-4.4,1.8c-1.8,0-3.3-0.6-4.4-1.8
		c-1.1-1.2-1.7-2.7-1.7-4.5s0.6-3.4,1.7-4.5c1.2-1.2,2.6-1.8,4.4-1.8C221.5,131.4,223,132,224.1,133.2z M216.8,134.6
		c-0.7,0.8-1.1,1.9-1.1,3.1c0,1.3,0.4,2.3,1.1,3.1c0.7,0.8,1.7,1.2,2.9,1.2c1.2,0,2.1-0.4,2.9-1.2c0.7-0.8,1.1-1.9,1.1-3.1
		c0-1.3-0.4-2.3-1.1-3.1c-0.7-0.8-1.7-1.2-2.9-1.2C218.5,133.3,217.6,133.8,216.8,134.6z"/>
	<path fill="#E7E1D4" d="M234.3,133.6c-1,0-1.8,0.3-2.4,0.9c-0.7,0.6-1.1,1.6-1.1,2.9v6.4h-2.1v-12.1h1.8l0.1,2.1
		c0.5-1.2,1.7-2.2,3.6-2.2V133.6z"/>
	<path fill="#E7E1D4" d="M238.9,126.3v11.1l4.5-5.7h2.5l-3.9,5l4.5,7.1h-2.4l-3.6-5.5l-1.7,2.1v3.4h-2.1v-17.5H238.9z"/>
	<path fill="#E7E1D4" d="M269.9,131.7l-3.8,12.1h-2.1l-2.9-8.6l-3,8.6h-2l-3.8-12.1h2.2l2.5,8.4l0.2,1.1l0.3-1.1l2.7-8.4h1.8
		l2.7,8.4l0.3,1.1l0.2-1.1l2.5-8.4H269.9z"/>
	<path fill="#E7E1D4" d="M273.2,129.4c-0.8,0-1.4-0.6-1.4-1.4c0-0.8,0.6-1.4,1.4-1.4s1.4,0.6,1.4,1.4
		C274.6,128.7,274,129.4,273.2,129.4z M274.2,131.7v12.1h-2.1v-12.1H274.2z"/>
	<path fill="#E7E1D4" d="M280.7,128.7l0,3h3.1v1.9h-3.1l0,6.5c0,1.4,0.4,2,1.7,2c0.5,0,1-0.1,1.4-0.2v1.8c-0.4,0.2-1,0.3-1.8,0.3
		c-2.3,0-3.5-1.1-3.4-3.5l0-6.9h-2.3v-1.9h2.3l0-3H280.7z"/>
	<path fill="#E7E1D4" d="M288.4,126.3v6.9c0.5-1,1.7-1.8,3.3-1.8c2.5,0,3.9,1.8,3.9,4.5v7.8h-2.1v-7.5c0-1.8-0.9-2.9-2.4-2.9
		c-1.6,0-2.8,1.5-2.8,3.9v6.5h-2.1v-17.5H288.4z"/>
	<path fill="#E7E1D4" d="M306.1,126.3v6.9c0.5-1,1.7-1.8,3.3-1.8c2.5,0,3.9,1.8,3.9,4.5v7.8h-2.1v-7.5c0-1.8-0.9-2.9-2.4-2.9
		c-1.6,0-2.8,1.5-2.8,3.9v6.5H304v-17.5H306.1z"/>
	<path fill="#E7E1D4" d="M327.1,137.6v1H318c0.2,2.2,1.7,3.6,3.7,3.6c1.7,0,2.8-0.6,3.3-2h2.1c-0.7,2.4-2.6,3.9-5.4,3.9
		c-1.7,0-3.1-0.6-4.2-1.7c-1.1-1.2-1.6-2.7-1.6-4.6c0-1.8,0.5-3.4,1.6-4.5c1.1-1.2,2.5-1.8,4.2-1.8
		C324.9,131.4,327.1,133.6,327.1,137.6z M318,136.7h7.1c0-2-1.4-3.4-3.4-3.4C319.6,133.3,318.2,134.7,318,136.7z"/>
	<path fill="#E7E1D4" d="M341,126.3v17.5h-1.8l-0.1-1.8c-0.9,1.4-2.3,2-4.2,2c-1.7,0-3-0.6-4.1-1.8c-1-1.2-1.6-2.7-1.6-4.5
		c0-1.8,0.5-3.3,1.6-4.5c1.1-1.2,2.4-1.8,4.1-1.8c1.8,0,3.2,0.6,4,1.9v-7.1H341z M332.5,134.6c-0.7,0.8-1.1,1.8-1.1,3.1
		c0,2.6,1.5,4.4,3.8,4.4c1,0,1.9-0.4,2.6-1.2c0.7-0.8,1.1-1.8,1.1-3.1v-0.1c0-1.3-0.4-2.4-1.1-3.1s-1.6-1.2-2.6-1.2
		C334.1,133.4,333.2,133.8,332.5,134.6z"/>
	<path fill="#E7E1D4" d="M353.1,135.8v8h-1.9l-0.1-1.7c-0.6,1.2-2,1.9-3.7,1.9c-2.1,0-3.5-1.3-3.5-3.4c0-1.9,1.1-3.1,3.4-3.5
		l3.7-0.7v-0.6c0-1.7-0.7-2.5-2.2-2.5c-1.4,0-2.5,0.8-2.5,2.2h-2c0-1.2,0.5-2.2,1.3-3s1.9-1.2,3.2-1.2
		C351.5,131.4,353.1,133,353.1,135.8z M351,138.2l-3.3,0.7c-1.1,0.3-1.7,0.7-1.7,1.7c0,1,0.7,1.5,1.8,1.5c1.1,0,1.9-0.4,2.4-1.2
		c0.5-0.6,0.7-1.4,0.7-2.2V138.2z"/>
	<path fill="#E7E1D4" d="M372.8,131.7l-3.8,12.1h-2.1l-2.9-8.6l-3,8.6h-2l-3.8-12.1h2.2l2.5,8.4l0.2,1.1l0.3-1.1l2.7-8.4h1.8
		l2.7,8.4l0.3,1.1l0.2-1.1l2.5-8.4H372.8z"/>
	<path fill="#E7E1D4" d="M385.1,137.6v1h-9.2c0.2,2.2,1.7,3.6,3.7,3.6c1.7,0,2.8-0.6,3.3-2h2.1c-0.7,2.4-2.6,3.9-5.4,3.9
		c-1.7,0-3.1-0.6-4.2-1.7c-1.1-1.2-1.6-2.7-1.6-4.6c0-1.8,0.5-3.4,1.6-4.5c1.1-1.2,2.5-1.8,4.2-1.8
		C382.9,131.4,385.1,133.6,385.1,137.6z M375.9,136.7h7.1c0-2-1.4-3.4-3.4-3.4C377.5,133.3,376.2,134.7,375.9,136.7z"/>
	<path fill="#E7E1D4" d="M397.3,136v7.8h-2.1v-7.5c0-1.8-0.9-2.9-2.4-2.9c-1.6,0-2.8,1.5-2.8,3.9v6.5H388v-12.1h1.8l0.1,1.7
		c0.7-1.3,1.8-1.9,3.4-1.9C395.9,131.4,397.3,133.2,397.3,136z"/>
	<path fill="#E7E1D4" d="M411.1,131.7v1.8H409c0.4,0.7,0.6,1.4,0.6,2.3c0,1.2-0.4,2.3-1.3,3.1c-0.8,0.8-2,1.2-3.3,1.2
		c-1,0-1.8-0.2-2.6-0.6c-0.3,0.3-0.5,0.7-0.5,1.2c0,0.8,0.6,1.2,1.5,1.2h3.2c2.5,0,3.8,1.2,3.8,3.3c0,2.6-1.9,4.1-5,4.1
		c-3.4,0-5.3-1.4-5.3-3.8c0-1,0.4-1.7,1.3-2.2c-0.9-0.5-1.6-1.4-1.6-2.5c0-1,0.4-1.9,1.2-2.5c-0.5-0.7-0.8-1.5-0.8-2.5
		c0-1.3,0.4-2.3,1.3-3.1c0.9-0.8,2-1.2,3.4-1.2c0.6,0,1.2,0.1,1.7,0.3H411.1z M403.9,143.7c-1,0.1-1.8,0.6-1.8,1.7
		c0,1.3,1.2,2,3.2,2c1.9,0,3-0.7,3-2.2c0-1-0.7-1.6-2.2-1.6H403.9z M405,138.2c1.6,0,2.6-1,2.6-2.5c0-1.5-1-2.5-2.6-2.5
		c-1.6,0-2.6,1.1-2.6,2.5C402.4,137.2,403.4,138.2,405,138.2z"/>
	<path fill="#E7E1D4" d="M413.4,144c-0.9,0-1.5-0.6-1.5-1.5c0-0.9,0.6-1.5,1.5-1.5c0.9,0,1.5,0.6,1.5,1.5
		C414.9,143.4,414.2,144,413.4,144z"/>
	<path fill="#E7E1D4" d="M427.9,135.5h-2.1c-0.5-1.3-1.7-2.1-3.3-2.1c-1.1,0-2,0.4-2.7,1.2c-0.7,0.8-1.1,1.9-1.1,3.2
		c0,1.2,0.4,2.3,1.1,3.1c0.7,0.8,1.6,1.2,2.7,1.2c1.5,0,2.8-0.8,3.2-2.1h2.1c-0.6,2.6-2.7,4-5.4,4c-1.7,0-3.1-0.6-4.2-1.8
		c-1.1-1.2-1.7-2.7-1.7-4.5s0.6-3.3,1.7-4.5c1.1-1.2,2.5-1.8,4.2-1.8C425.3,131.4,427.3,132.9,427.9,135.5z"/>
	<path fill="#E7E1D4" d="M440.3,133.2c1.2,1.2,1.7,2.7,1.7,4.5s-0.6,3.4-1.7,4.5c-1.1,1.2-2.6,1.8-4.4,1.8c-1.8,0-3.3-0.6-4.4-1.8
		c-1.1-1.2-1.7-2.7-1.7-4.5s0.6-3.4,1.7-4.5c1.2-1.2,2.6-1.8,4.4-1.8C437.7,131.4,439.1,132,440.3,133.2z M433,134.6
		c-0.7,0.8-1.1,1.9-1.1,3.1c0,1.3,0.4,2.3,1.1,3.1c0.7,0.8,1.7,1.2,2.9,1.2c1.2,0,2.1-0.4,2.9-1.2c0.7-0.8,1.1-1.9,1.1-3.1
		c0-1.3-0.4-2.3-1.1-3.1c-0.7-0.8-1.7-1.2-2.9-1.2C434.7,133.3,433.7,133.8,433,134.6z"/>
	<path fill="#E7E1D4" d="M461.1,136v7.8H459v-7.5c0-1.8-0.9-2.9-2.3-2.9c-1.6,0-2.8,1.4-2.8,3.7v6.6h-2.1v-7.5
		c0-1.8-0.9-2.9-2.3-2.9c-1.6,0-2.8,1.5-2.8,3.9v6.5h-2.1v-12.1h1.8l0.1,1.7c0.6-1.1,1.8-1.9,3.4-1.9c1.7,0,2.9,0.8,3.5,2.3
		c0.8-1.5,2-2.3,3.6-2.3C459.7,131.4,461.1,133.2,461.1,136z"/>
	<path fill="#E7E1D4" d="M471.6,132.9c0,0.8-0.7,1.5-1.5,1.5c-0.9,0-1.5-0.6-1.5-1.5c0-0.9,0.6-1.5,1.5-1.5
		C470.9,131.4,471.6,132.1,471.6,132.9z M470.1,144c-0.9,0-1.5-0.6-1.5-1.5c0-0.9,0.6-1.5,1.5-1.5c0.9,0,1.5,0.6,1.5,1.5
		C471.6,143.4,470.9,144,470.1,144z"/>
	<path fill="#E7E1D4" d="M480.7,136.6v1.8h-7.6v-1.8H480.7z"/>
	<path fill="#E7E1D4" d="M487.6,127.2c-1.1,1.4-1.9,2.8-2.4,4.2s-0.7,3-0.7,4.8s0.2,3.4,0.7,4.8s1.3,2.8,2.4,4.2l-1.5,1
		c-2.4-3-3.7-6-3.7-10s1.2-7,3.7-10L487.6,127.2z"/>
</g>
<g>
	<path fill="#E7E1D4" d="M12.8,202.6v11.2h-1.5v-11.2H12.8z"/>
	<path fill="#E7E1D4" d="M21.5,208.6v5.2h-1.4v-5c0-1.2-0.6-1.9-1.6-1.9c-1.1,0-1.9,1-1.9,2.6v4.3h-1.4v-8.1h1.2l0.1,1.1
		c0.4-0.8,1.2-1.3,2.3-1.3C20.6,205.5,21.5,206.7,21.5,208.6z"/>
	<path fill="#E7E1D4" d="M25.7,203.7l0,2h2.1v1.3h-2.1l0,4.3c0,0.9,0.3,1.3,1.2,1.3c0.4,0,0.7,0,1-0.1v1.2c-0.3,0.1-0.7,0.2-1.2,0.2
		c-1.6,0-2.3-0.7-2.3-2.3l0-4.6h-1.5v-1.3h1.5l0-2H25.7z"/>
	<path fill="#E7E1D4" d="M36.3,209.6v0.7h-6.1c0.1,1.5,1.1,2.4,2.5,2.4c1.1,0,1.8-0.4,2.2-1.3h1.4c-0.5,1.6-1.7,2.6-3.6,2.6
		c-1.1,0-2.1-0.4-2.8-1.2c-0.7-0.8-1.1-1.8-1.1-3c0-1.2,0.4-2.2,1.1-3c0.7-0.8,1.6-1.2,2.8-1.2C34.8,205.5,36.3,207,36.3,209.6z
		 M30.2,209.1h4.7c0-1.4-0.9-2.2-2.3-2.2C31.3,206.8,30.4,207.7,30.2,209.1z"/>
	<path fill="#E7E1D4" d="M42.1,207c-0.7,0-1.2,0.2-1.6,0.6c-0.5,0.4-0.7,1.1-0.7,1.9v4.3h-1.4v-8.1h1.2l0.1,1.4
		c0.3-0.8,1.1-1.5,2.4-1.5V207z"/>
	<path fill="#E7E1D4" d="M49.9,208.6v5.2h-1.4v-5c0-1.2-0.6-1.9-1.6-1.9c-1.1,0-1.9,1-1.9,2.6v4.3h-1.4v-8.1h1.2l0.1,1.1
		c0.4-0.8,1.2-1.3,2.3-1.3C49,205.5,49.9,206.7,49.9,208.6z"/>
	<path fill="#E7E1D4" d="M59.1,209.6v0.7H53c0.1,1.5,1.1,2.4,2.5,2.4c1.1,0,1.8-0.4,2.2-1.3H59c-0.5,1.6-1.7,2.6-3.6,2.6
		c-1.1,0-2.1-0.4-2.8-1.2c-0.7-0.8-1.1-1.8-1.1-3c0-1.2,0.4-2.2,1.1-3c0.7-0.8,1.6-1.2,2.8-1.2C57.6,205.5,59.1,207,59.1,209.6z
		 M53,209.1h4.7c0-1.4-0.9-2.2-2.3-2.2C54.1,206.8,53.2,207.7,53,209.1z"/>
	<path fill="#E7E1D4" d="M62.9,203.7l0,2H65v1.3h-2.1l0,4.3c0,0.9,0.3,1.3,1.2,1.3c0.4,0,0.7,0,1-0.1v1.2c-0.3,0.1-0.7,0.2-1.2,0.2
		c-1.6,0-2.3-0.7-2.3-2.3l0-4.6H60v-1.3h1.5l0-2H62.9z"/>
	<path fill="#E7E1D4" d="M77.3,202.6v1.4h-4.7v3.4h4.1v1.4h-4.1v3.7h4.7v1.4h-6.2v-11.2H77.3z"/>
	<path fill="#E7E1D4" d="M85.7,205.7l-2.6,3.9l2.8,4.2h-1.6l-2.1-3.1l-2.1,3.1h-1.6l2.8-4.2l-2.6-3.9h1.6l1.9,2.8l1.9-2.8H85.7z"/>
	<path fill="#E7E1D4" d="M94.3,206.7c0.7,0.8,1,1.8,1,3c0,1.2-0.4,2.2-1.1,3c-0.7,0.8-1.6,1.2-2.7,1.2c-1.3,0-2.2-0.5-2.7-1.3v4.5
		h-1.4v-11.5h1.2l0.1,1.2c0.6-0.9,1.6-1.4,2.8-1.4C92.7,205.5,93.7,205.9,94.3,206.7z M89.6,207.6c-0.5,0.5-0.7,1.2-0.7,2v0.1
		c0,0.9,0.2,1.6,0.7,2.1s1.1,0.8,1.8,0.8c0.8,0,1.4-0.3,1.8-0.8c0.5-0.5,0.7-1.2,0.7-2.1c0-1.7-1-2.9-2.5-2.9
		C90.7,206.8,90.1,207.1,89.6,207.6z"/>
	<path fill="#E7E1D4" d="M98.6,202.1v11.7h-1.4v-11.7H98.6z"/>
	<path fill="#E7E1D4" d="M107.4,206.7c0.8,0.8,1.2,1.8,1.2,3s-0.4,2.2-1.2,3c-0.8,0.8-1.7,1.2-2.9,1.2c-1.2,0-2.2-0.4-3-1.2
		c-0.8-0.8-1.1-1.8-1.1-3s0.4-2.2,1.1-3c0.8-0.8,1.8-1.2,3-1.2C105.7,205.5,106.7,205.9,107.4,206.7z M102.6,207.6
		c-0.5,0.5-0.7,1.2-0.7,2.1s0.2,1.5,0.7,2.1c0.5,0.6,1.2,0.8,2,0.8c0.8,0,1.4-0.3,1.9-0.8c0.5-0.6,0.7-1.2,0.7-2.1s-0.2-1.6-0.7-2.1
		c-0.5-0.6-1.1-0.8-1.9-0.8C103.7,206.8,103.1,207.1,102.6,207.6z"/>
	<path fill="#E7E1D4" d="M114.2,207c-0.7,0-1.2,0.2-1.6,0.6c-0.5,0.4-0.7,1.1-0.7,1.9v4.3h-1.4v-8.1h1.2l0.1,1.4
		c0.3-0.8,1.1-1.5,2.4-1.5V207z"/>
	<path fill="#E7E1D4" d="M122.6,209.6v0.7h-6.1c0.1,1.5,1.1,2.4,2.5,2.4c1.1,0,1.8-0.4,2.2-1.3h1.4c-0.5,1.6-1.7,2.6-3.6,2.6
		c-1.1,0-2.1-0.4-2.8-1.2c-0.7-0.8-1.1-1.8-1.1-3c0-1.2,0.4-2.2,1.1-3c0.7-0.8,1.6-1.2,2.8-1.2C121.1,205.5,122.6,207,122.6,209.6z
		 M116.5,209.1h4.7c0-1.4-0.9-2.2-2.3-2.2C117.5,206.8,116.6,207.7,116.5,209.1z"/>
	<path fill="#E7E1D4" d="M128.4,207c-0.7,0-1.2,0.2-1.6,0.6c-0.5,0.4-0.7,1.1-0.7,1.9v4.3h-1.4v-8.1h1.2l0.1,1.4
		c0.3-0.8,1.1-1.5,2.4-1.5V207z"/>
	<path fill="#E7E1D4" d="M135.8,202.1v11.7h-1.4v-11.7H135.8z"/>
	<path fill="#E7E1D4" d="M143.9,208.4v5.3h-1.2l-0.1-1.1c-0.4,0.8-1.3,1.3-2.4,1.3c-1.4,0-2.4-0.9-2.4-2.3c0-1.3,0.8-2,2.3-2.3
		l2.5-0.5v-0.4c0-1.1-0.5-1.7-1.5-1.7c-0.9,0-1.6,0.5-1.6,1.5H138c0-0.8,0.3-1.4,0.9-2s1.3-0.8,2.1-0.8
		C142.9,205.5,143.9,206.6,143.9,208.4z M142.5,210.1l-2.2,0.5c-0.7,0.2-1.1,0.4-1.1,1.1c0,0.6,0.4,1,1.2,1c0.7,0,1.2-0.3,1.6-0.8
		c0.3-0.4,0.5-0.9,0.5-1.5V210.1z"/>
	<path fill="#E7E1D4" d="M153,208.2h-1.4c-0.3-0.9-1.2-1.4-2.2-1.4c-0.7,0-1.3,0.3-1.8,0.8c-0.5,0.6-0.7,1.3-0.7,2.1
		c0,0.8,0.2,1.5,0.7,2.1c0.5,0.6,1.1,0.8,1.8,0.8c1,0,1.9-0.6,2.2-1.4h1.4c-0.4,1.7-1.8,2.7-3.6,2.7c-1.1,0-2.1-0.4-2.8-1.2
		c-0.7-0.8-1.1-1.8-1.1-3c0-1.2,0.4-2.2,1.1-3c0.8-0.8,1.7-1.2,2.8-1.2C151.3,205.5,152.7,206.5,153,208.2z"/>
	<path fill="#E7E1D4" d="M156.4,202.1v7.4l3-3.8h1.7l-2.6,3.3l3,4.7h-1.6l-2.4-3.7l-1.1,1.4v2.3H155v-11.7H156.4z"/>
	<path fill="#E7E1D4" d="M167.1,206.2c0.5,0.5,0.8,1.1,0.8,1.8h-1.4c0-0.8-0.4-1.3-1.3-1.3c-0.8,0-1.2,0.4-1.2,1.1
		c0,0.6,0.3,0.9,1.5,1.2c1.9,0.4,2.6,1.1,2.6,2.4c0,1.5-1.2,2.5-2.8,2.5c-1.8,0-2.9-1-2.9-2.6h1.4c0,0.9,0.5,1.3,1.6,1.3
		c0.9,0,1.4-0.4,1.4-1.1c0-0.7-0.4-1-1.7-1.3c-1.7-0.4-2.5-1-2.5-2.3c0-0.7,0.2-1.3,0.7-1.7c0.5-0.5,1.1-0.7,2-0.7
		C166,205.5,166.6,205.8,167.1,206.2z"/>
	<path fill="#E7E1D4" d="M180.8,206.7c0.8,0.8,1.2,1.8,1.2,3s-0.4,2.2-1.2,3c-0.8,0.8-1.7,1.2-2.9,1.2c-1.2,0-2.2-0.4-3-1.2
		c-0.8-0.8-1.1-1.8-1.1-3s0.4-2.2,1.1-3c0.8-0.8,1.8-1.2,3-1.2C179,205.5,180,205.9,180.8,206.7z M175.9,207.6
		c-0.5,0.5-0.7,1.2-0.7,2.1s0.2,1.5,0.7,2.1c0.5,0.6,1.2,0.8,2,0.8c0.8,0,1.4-0.3,1.9-0.8c0.5-0.6,0.7-1.2,0.7-2.1s-0.2-1.6-0.7-2.1
		c-0.5-0.6-1.1-0.8-1.9-0.8C177,206.8,176.4,207.1,175.9,207.6z"/>
	<path fill="#E7E1D4" d="M187.7,202.1v1.2c-0.3-0.1-0.6-0.2-1-0.2c-0.8,0-1.1,0.4-1.1,1.3v1.2h2v1.3h-2v6.8h-1.4V207h-1.5v-1.3h1.5
		v-1.2c0-1.6,0.9-2.5,2.4-2.5C187,201.9,187.4,202,187.7,202.1z"/>
	<path fill="#E7E1D4" d="M204.4,208.6v5.2H203v-5c0-1.2-0.6-1.9-1.6-1.9c-1.1,0-1.8,0.9-1.9,2.5v4.4h-1.4v-5c0-1.2-0.6-1.9-1.6-1.9
		c-1.1,0-1.9,1-1.9,2.6v4.3h-1.4v-8.1h1.2l0.1,1.1c0.4-0.8,1.2-1.3,2.2-1.3c1.2,0,1.9,0.5,2.4,1.5c0.5-1,1.3-1.5,2.4-1.5
		C203.5,205.5,204.4,206.7,204.4,208.6z"/>
	<path fill="#E7E1D4" d="M212.3,208.4v5.3h-1.2l-0.1-1.1c-0.4,0.8-1.3,1.3-2.4,1.3c-1.4,0-2.4-0.9-2.4-2.3c0-1.3,0.8-2,2.3-2.3
		l2.5-0.5v-0.4c0-1.1-0.5-1.7-1.5-1.7c-0.9,0-1.6,0.5-1.6,1.5h-1.4c0-0.8,0.3-1.4,0.9-2s1.3-0.8,2.1-0.8
		C211.2,205.5,212.3,206.6,212.3,208.4z M210.9,210.1l-2.2,0.5c-0.7,0.2-1.1,0.4-1.1,1.1c0,0.6,0.4,1,1.2,1c0.7,0,1.2-0.3,1.6-0.8
		c0.3-0.4,0.5-0.9,0.5-1.5V210.1z"/>
	<path fill="#E7E1D4" d="M220.8,208.6v5.2h-1.4v-5c0-1.2-0.6-1.9-1.6-1.9c-1.1,0-1.9,1-1.9,2.6v4.3h-1.4v-8.1h1.2l0.1,1.1
		c0.4-0.8,1.2-1.3,2.3-1.3C219.9,205.5,220.8,206.7,220.8,208.6z"/>
	<path fill="#E7E1D4" d="M229.7,205.7l-4.4,11.5h-1.5l1.3-3.6l-3-8h1.5l2.1,5.8l0.2,0.6l0.2-0.6l2.1-5.8H229.7z"/>
	<path fill="#E7E1D4" d="M246.5,208.6v5.2h-1.4v-5c0-1.2-0.6-1.9-1.6-1.9c-1.1,0-1.8,0.9-1.9,2.5v4.4h-1.4v-5c0-1.2-0.6-1.9-1.6-1.9
		c-1.1,0-1.9,1-1.9,2.6v4.3h-1.4v-8.1h1.2l0.1,1.1c0.4-0.8,1.2-1.3,2.2-1.3c1.2,0,1.9,0.5,2.4,1.5c0.5-1,1.3-1.5,2.4-1.5
		C245.6,205.5,246.5,206.7,246.5,208.6z"/>
	<path fill="#E7E1D4" d="M255.2,206.7c0.8,0.8,1.2,1.8,1.2,3s-0.4,2.2-1.2,3c-0.8,0.8-1.7,1.2-2.9,1.2c-1.2,0-2.2-0.4-3-1.2
		c-0.8-0.8-1.1-1.8-1.1-3s0.4-2.2,1.1-3c0.8-0.8,1.8-1.2,3-1.2C253.5,205.5,254.5,205.9,255.2,206.7z M250.3,207.6
		c-0.5,0.5-0.7,1.2-0.7,2.1s0.2,1.5,0.7,2.1c0.5,0.6,1.2,0.8,2,0.8c0.8,0,1.4-0.3,1.9-0.8c0.5-0.6,0.7-1.2,0.7-2.1s-0.2-1.6-0.7-2.1
		c-0.5-0.6-1.1-0.8-1.9-0.8C251.5,206.8,250.8,207.1,250.3,207.6z"/>
	<path fill="#E7E1D4" d="M265.5,202.1v11.7h-1.2l-0.1-1.2c-0.6,0.9-1.6,1.4-2.8,1.4c-1.1,0-2-0.4-2.7-1.2c-0.7-0.8-1-1.8-1-3
		c0-1.2,0.4-2.2,1-3c0.7-0.8,1.6-1.2,2.7-1.2c1.2,0,2.1,0.4,2.7,1.3v-4.7H265.5z M259.8,207.7c-0.5,0.5-0.7,1.2-0.7,2.1
		c0,1.7,1,2.9,2.5,2.9c0.7,0,1.3-0.3,1.8-0.8c0.5-0.5,0.8-1.2,0.8-2v-0.1c0-0.9-0.3-1.6-0.8-2.1s-1.1-0.8-1.7-0.8
		C260.9,206.8,260.3,207.1,259.8,207.7z"/>
	<path fill="#E7E1D4" d="M274.9,209.6v0.7h-6.1c0.1,1.5,1.1,2.4,2.5,2.4c1.1,0,1.8-0.4,2.2-1.3h1.4c-0.5,1.6-1.7,2.6-3.6,2.6
		c-1.1,0-2.1-0.4-2.8-1.2c-0.7-0.8-1.1-1.8-1.1-3c0-1.2,0.4-2.2,1.1-3c0.7-0.8,1.6-1.2,2.8-1.2C273.4,205.5,274.9,207,274.9,209.6z
		 M268.7,209.1h4.7c0-1.4-0.9-2.2-2.3-2.2C269.8,206.8,268.9,207.7,268.7,209.1z"/>
	<path fill="#E7E1D4" d="M280.6,207c-0.7,0-1.2,0.2-1.6,0.6c-0.5,0.4-0.7,1.1-0.7,1.9v4.3h-1.4v-8.1h1.2l0.1,1.4
		c0.3-0.8,1.1-1.5,2.4-1.5V207z"/>
	<path fill="#E7E1D4" d="M288.5,208.6v5.2h-1.4v-5c0-1.2-0.6-1.9-1.6-1.9c-1.1,0-1.9,1-1.9,2.6v4.3h-1.4v-8.1h1.2l0.1,1.1
		c0.4-0.8,1.2-1.3,2.3-1.3C287.5,205.5,288.5,206.7,288.5,208.6z"/>
	<path fill="#E7E1D4" d="M299.2,202.1v1.2c-0.3-0.1-0.6-0.2-1-0.2c-0.8,0-1.1,0.4-1.1,1.3v1.2h2v1.3h-2v6.8h-1.4V207h-1.5v-1.3h1.5
		v-1.2c0-1.6,0.9-2.5,2.4-2.5C298.5,201.9,298.8,202,299.2,202.1z"/>
	<path fill="#E7E1D4" d="M307.4,209.6v0.7h-6.1c0.1,1.5,1.1,2.4,2.5,2.4c1.1,0,1.8-0.4,2.2-1.3h1.4c-0.5,1.6-1.7,2.6-3.6,2.6
		c-1.1,0-2.1-0.4-2.8-1.2s-1.1-1.8-1.1-3c0-1.2,0.4-2.2,1.1-3c0.7-0.8,1.6-1.2,2.8-1.2C305.9,205.5,307.4,207,307.4,209.6z
		 M301.3,209.1h4.7c0-1.4-0.9-2.2-2.3-2.2C302.4,206.8,301.5,207.7,301.3,209.1z"/>
	<path fill="#E7E1D4" d="M315,208.4v5.3h-1.2l-0.1-1.1c-0.4,0.8-1.3,1.3-2.4,1.3c-1.4,0-2.4-0.9-2.4-2.3c0-1.3,0.8-2,2.3-2.3
		l2.5-0.5v-0.4c0-1.1-0.5-1.7-1.5-1.7c-0.9,0-1.6,0.5-1.6,1.5h-1.4c0-0.8,0.3-1.4,0.9-2c0.6-0.5,1.3-0.8,2.1-0.8
		C313.9,205.5,315,206.6,315,208.4z M313.6,210.1l-2.2,0.5c-0.7,0.2-1.1,0.4-1.1,1.1c0,0.6,0.4,1,1.2,1c0.7,0,1.2-0.3,1.6-0.8
		c0.3-0.4,0.5-0.9,0.5-1.5V210.1z"/>
	<path fill="#E7E1D4" d="M319.1,203.7l0,2h2.1v1.3h-2.1l0,4.3c0,0.9,0.3,1.3,1.2,1.3c0.4,0,0.7,0,1-0.1v1.2
		c-0.3,0.1-0.7,0.2-1.2,0.2c-1.6,0-2.3-0.7-2.3-2.3l0-4.6h-1.5v-1.3h1.5l0-2H319.1z"/>
	<path fill="#E7E1D4" d="M328.9,205.7v8.1h-1.2l-0.1-1.1c-0.4,0.8-1.2,1.3-2.2,1.3c-1.7,0-2.6-1.2-2.6-3v-5.2h1.4v5
		c0,1.3,0.6,1.9,1.5,1.9c1.1,0,1.8-0.9,1.8-2.4v-4.5H328.9z"/>
	<path fill="#E7E1D4" d="M335.1,207c-0.7,0-1.2,0.2-1.6,0.6c-0.5,0.4-0.7,1.1-0.7,1.9v4.3h-1.4v-8.1h1.2l0.1,1.4
		c0.3-0.8,1.1-1.5,2.4-1.5V207z"/>
	<path fill="#E7E1D4" d="M343.5,209.6v0.7h-6.1c0.1,1.5,1.1,2.4,2.5,2.4c1.1,0,1.8-0.4,2.2-1.3h1.4c-0.5,1.6-1.7,2.6-3.6,2.6
		c-1.1,0-2.1-0.4-2.8-1.2c-0.7-0.8-1.1-1.8-1.1-3c0-1.2,0.4-2.2,1.1-3c0.7-0.8,1.6-1.2,2.8-1.2C342,205.5,343.5,207,343.5,209.6z
		 M337.4,209.1h4.7c0-1.4-0.9-2.2-2.3-2.2C338.4,206.8,337.5,207.7,337.4,209.1z"/>
	<path fill="#E7E1D4" d="M349.6,206.2c0.5,0.5,0.8,1.1,0.8,1.8H349c0-0.8-0.4-1.3-1.3-1.3c-0.8,0-1.2,0.4-1.2,1.1
		c0,0.6,0.3,0.9,1.5,1.2c1.9,0.4,2.6,1.1,2.6,2.4c0,1.5-1.2,2.5-2.8,2.5c-1.8,0-2.9-1-2.9-2.6h1.4c0,0.9,0.5,1.3,1.6,1.3
		c0.9,0,1.4-0.4,1.4-1.1c0-0.7-0.4-1-1.7-1.3c-1.7-0.4-2.5-1-2.5-2.3c0-0.7,0.2-1.3,0.7-1.7c0.5-0.5,1.1-0.7,2-0.7
		C348.5,205.5,349.1,205.8,349.6,206.2z"/>
	<path fill="#E7E1D4" d="M353.7,213.1c0,1-0.5,2-1.2,2.8l-0.4-0.2c0.3-0.5,0.5-1.1,0.6-1.8c-0.5,0-0.9-0.4-0.9-0.9
		c0-0.5,0.4-0.9,1-0.9C353.3,212,353.7,212.4,353.7,213.1z"/>
	<path fill="#E7E1D4" d="M370.8,205.7l-2.6,8.1h-1.4l-2-5.8l-2,5.8h-1.3l-2.6-8.1h1.5l1.7,5.6l0.2,0.7l0.2-0.7l1.8-5.6h1.2l1.8,5.6
		l0.2,0.7l0.2-0.7l1.7-5.6H370.8z"/>
	<path fill="#E7E1D4" d="M373.6,202.1v4.6c0.3-0.7,1.1-1.2,2.2-1.2c1.7,0,2.6,1.2,2.6,3v5.2h-1.4v-5c0-1.2-0.6-1.9-1.6-1.9
		c-1.1,0-1.9,1-1.9,2.6v4.3h-1.4v-11.7H373.6z"/>
	<path fill="#E7E1D4" d="M381.5,204.2c-0.5,0-0.9-0.4-0.9-0.9c0-0.5,0.4-0.9,0.9-0.9s1,0.4,1,0.9C382.5,203.7,382,204.2,381.5,204.2
		z M382.2,205.7v8.1h-1.4v-8.1H382.2z"/>
	<path fill="#E7E1D4" d="M391.5,208.2h-1.4c-0.3-0.9-1.2-1.4-2.2-1.4c-0.7,0-1.3,0.3-1.8,0.8c-0.5,0.6-0.7,1.3-0.7,2.1
		c0,0.8,0.2,1.5,0.7,2.1c0.5,0.6,1.1,0.8,1.8,0.8c1,0,1.9-0.6,2.2-1.4h1.4c-0.4,1.7-1.8,2.7-3.6,2.7c-1.1,0-2.1-0.4-2.8-1.2
		c-0.7-0.8-1.1-1.8-1.1-3c0-1.2,0.4-2.2,1.1-3c0.8-0.8,1.7-1.2,2.8-1.2C389.8,205.5,391.1,206.5,391.5,208.2z"/>
	<path fill="#E7E1D4" d="M394.8,202.1v4.6c0.3-0.7,1.1-1.2,2.2-1.2c1.7,0,2.6,1.2,2.6,3v5.2h-1.4v-5c0-1.2-0.6-1.9-1.6-1.9
		c-1.1,0-1.9,1-1.9,2.6v4.3h-1.4v-11.7H394.8z"/>
	<path fill="#E7E1D4" d="M412,208.4v5.3h-1.2l-0.1-1.1c-0.4,0.8-1.3,1.3-2.4,1.3c-1.4,0-2.4-0.9-2.4-2.3c0-1.3,0.8-2,2.3-2.3
		l2.5-0.5v-0.4c0-1.1-0.5-1.7-1.5-1.7c-0.9,0-1.6,0.5-1.6,1.5h-1.4c0-0.8,0.3-1.4,0.9-2c0.6-0.5,1.3-0.8,2.1-0.8
		C410.9,205.5,412,206.6,412,208.4z M410.6,210.1l-2.2,0.5c-0.7,0.2-1.1,0.4-1.1,1.1c0,0.6,0.4,1,1.2,1c0.7,0,1.2-0.3,1.6-0.8
		c0.3-0.4,0.5-0.9,0.5-1.5V210.1z"/>
	<path fill="#E7E1D4" d="M418.1,207c-0.7,0-1.2,0.2-1.6,0.6c-0.5,0.4-0.7,1.1-0.7,1.9v4.3h-1.4v-8.1h1.2l0.1,1.4
		c0.3-0.8,1.1-1.5,2.4-1.5V207z"/>
	<path fill="#E7E1D4" d="M426.4,209.6v0.7h-6.1c0.1,1.5,1.1,2.4,2.5,2.4c1.1,0,1.8-0.4,2.2-1.3h1.4c-0.5,1.6-1.7,2.6-3.6,2.6
		c-1.1,0-2.1-0.4-2.8-1.2c-0.7-0.8-1.1-1.8-1.1-3c0-1.2,0.4-2.2,1.1-3c0.7-0.8,1.6-1.2,2.8-1.2C424.9,205.5,426.4,207,426.4,209.6z
		 M420.3,209.1h4.7c0-1.4-0.9-2.2-2.3-2.2C421.4,206.8,420.5,207.7,420.3,209.1z"/>
	<path fill="#E7E1D4" d="M439.4,205.7l-3.1,8.1h-1.4l-3.1-8.1h1.5l2.1,5.8l0.2,0.6l0.2-0.6l2.1-5.8H439.4z"/>
	<path fill="#E7E1D4" d="M447.6,209.6v0.7h-6.1c0.1,1.5,1.1,2.4,2.5,2.4c1.1,0,1.8-0.4,2.2-1.3h1.4c-0.5,1.6-1.7,2.6-3.6,2.6
		c-1.1,0-2.1-0.4-2.8-1.2c-0.7-0.8-1.1-1.8-1.1-3c0-1.2,0.4-2.2,1.1-3c0.7-0.8,1.6-1.2,2.8-1.2C446.1,205.5,447.6,207,447.6,209.6z
		 M441.4,209.1h4.7c0-1.4-0.9-2.2-2.3-2.2C442.5,206.8,441.6,207.7,441.4,209.1z"/>
	<path fill="#E7E1D4" d="M453.3,207c-0.7,0-1.2,0.2-1.6,0.6c-0.5,0.4-0.7,1.1-0.7,1.9v4.3h-1.4v-8.1h1.2l0.1,1.4
		c0.3-0.8,1.1-1.5,2.4-1.5V207z"/>
	<path fill="#E7E1D4" d="M461.6,205.7l-4.4,11.5h-1.5l1.3-3.6l-3-8h1.5l2.1,5.8l0.2,0.6l0.2-0.6l2.1-5.8H461.6z"/>
	<path fill="#E7E1D4" d="M468.3,204.2c-0.5,0-0.9-0.4-0.9-0.9c0-0.5,0.4-0.9,0.9-0.9s1,0.4,1,0.9
		C469.2,203.7,468.8,204.2,468.3,204.2z M469,205.7v8.1h-1.4v-8.1H469z"/>
	<path fill="#E7E1D4" d="M482.4,208.6v5.2H481v-5c0-1.2-0.6-1.9-1.6-1.9c-1.1,0-1.8,0.9-1.9,2.5v4.4h-1.4v-5c0-1.2-0.6-1.9-1.6-1.9
		c-1.1,0-1.9,1-1.9,2.6v4.3h-1.4v-8.1h1.2l0.1,1.1c0.4-0.8,1.2-1.3,2.2-1.3c1.2,0,1.9,0.5,2.4,1.5c0.5-1,1.3-1.5,2.4-1.5
		C481.5,205.5,482.4,206.7,482.4,208.6z"/>
	<path fill="#E7E1D4" d="M491.6,206.7c0.7,0.8,1,1.8,1,3c0,1.2-0.4,2.2-1.1,3c-0.7,0.8-1.6,1.2-2.7,1.2c-1.3,0-2.2-0.5-2.7-1.3v4.5
		h-1.4v-11.5h1.2l0.1,1.2c0.6-0.9,1.6-1.4,2.8-1.4C490,205.5,490.9,205.9,491.6,206.7z M486.9,207.6c-0.5,0.5-0.7,1.2-0.7,2v0.1
		c0,0.9,0.2,1.6,0.7,2.1c0.5,0.5,1.1,0.8,1.8,0.8c0.8,0,1.4-0.3,1.8-0.8c0.5-0.5,0.7-1.2,0.7-2.1c0-1.7-1-2.9-2.5-2.9
		C488,206.8,487.4,207.1,486.9,207.6z"/>
	<path fill="#E7E1D4" d="M501,206.7c0.8,0.8,1.2,1.8,1.2,3s-0.4,2.2-1.2,3c-0.8,0.8-1.7,1.2-2.9,1.2c-1.2,0-2.2-0.4-3-1.2
		c-0.8-0.8-1.1-1.8-1.1-3s0.4-2.2,1.1-3c0.8-0.8,1.8-1.2,3-1.2C499.3,205.5,500.2,205.9,501,206.7z M496.1,207.6
		c-0.5,0.5-0.7,1.2-0.7,2.1s0.2,1.5,0.7,2.1c0.5,0.6,1.2,0.8,2,0.8c0.8,0,1.4-0.3,1.9-0.8c0.5-0.6,0.7-1.2,0.7-2.1s-0.2-1.6-0.7-2.1
		c-0.5-0.6-1.1-0.8-1.9-0.8C497.3,206.8,496.6,207.1,496.1,207.6z"/>
	<path fill="#E7E1D4" d="M507.8,207c-0.7,0-1.2,0.2-1.6,0.6c-0.5,0.4-0.7,1.1-0.7,1.9v4.3H504v-8.1h1.2l0.1,1.4
		c0.3-0.8,1.1-1.5,2.4-1.5V207z"/>
	<path fill="#E7E1D4" d="M511.3,203.7l0,2h2.1v1.3h-2.1l0,4.3c0,0.9,0.3,1.3,1.2,1.3c0.4,0,0.7,0,1-0.1v1.2
		c-0.3,0.1-0.7,0.2-1.2,0.2c-1.6,0-2.3-0.7-2.3-2.3l0-4.6h-1.5v-1.3h1.5l0-2H511.3z"/>
	<path fill="#E7E1D4" d="M520.7,208.4v5.3h-1.2l-0.1-1.1c-0.4,0.8-1.3,1.3-2.4,1.3c-1.4,0-2.4-0.9-2.4-2.3c0-1.3,0.8-2,2.3-2.3
		l2.5-0.5v-0.4c0-1.1-0.5-1.7-1.5-1.7c-0.9,0-1.6,0.5-1.6,1.5h-1.4c0-0.8,0.3-1.4,0.9-2c0.6-0.5,1.3-0.8,2.1-0.8
		C519.6,205.5,520.7,206.6,520.7,208.4z M519.3,210.1l-2.2,0.5c-0.7,0.2-1.1,0.4-1.1,1.1c0,0.6,0.4,1,1.2,1c0.7,0,1.2-0.3,1.6-0.8
		c0.3-0.4,0.5-0.9,0.5-1.5V210.1z"/>
	<path fill="#E7E1D4" d="M529.2,208.6v5.2h-1.4v-5c0-1.2-0.6-1.9-1.6-1.9c-1.1,0-1.9,1-1.9,2.6v4.3H523v-8.1h1.2l0.1,1.1
		c0.4-0.8,1.2-1.3,2.3-1.3C528.2,205.5,529.2,206.7,529.2,208.6z"/>
	<path fill="#E7E1D4" d="M533.3,203.7l0,2h2.1v1.3h-2.1l0,4.3c0,0.9,0.3,1.3,1.2,1.3c0.4,0,0.7,0,1-0.1v1.2
		c-0.3,0.1-0.7,0.2-1.2,0.2c-1.6,0-2.3-0.7-2.3-2.3l0-4.6h-1.5v-1.3h1.5l0-2H533.3z"/>
	<path fill="#E7E1D4" d="M545.5,202.1v1.2c-0.3-0.1-0.6-0.2-1-0.2c-0.8,0-1.1,0.4-1.1,1.3v1.2h2v1.3h-2v6.8H542V207h-1.5v-1.3h1.5
		v-1.2c0-1.6,0.9-2.5,2.4-2.5C544.8,201.9,545.2,202,545.5,202.1z"/>
	<path fill="#E7E1D4" d="M553.2,206.7c0.8,0.8,1.2,1.8,1.2,3s-0.4,2.2-1.2,3c-0.8,0.8-1.7,1.2-2.9,1.2c-1.2,0-2.2-0.4-3-1.2
		c-0.8-0.8-1.1-1.8-1.1-3s0.4-2.2,1.1-3c0.8-0.8,1.8-1.2,3-1.2C551.5,205.5,552.4,205.9,553.2,206.7z M548.3,207.6
		c-0.5,0.5-0.7,1.2-0.7,2.1s0.2,1.5,0.7,2.1c0.5,0.6,1.2,0.8,2,0.8c0.8,0,1.4-0.3,1.9-0.8c0.5-0.6,0.7-1.2,0.7-2.1s-0.2-1.6-0.7-2.1
		c-0.5-0.6-1.1-0.8-1.9-0.8C549.5,206.8,548.8,207.1,548.3,207.6z"/>
	<path fill="#E7E1D4" d="M560,207c-0.7,0-1.2,0.2-1.6,0.6c-0.5,0.4-0.7,1.1-0.7,1.9v4.3h-1.4v-8.1h1.2l0.1,1.4
		c0.3-0.8,1.1-1.5,2.4-1.5V207z"/>
	<path fill="#E7E1D4" d="M567.8,203.7l0,2h2.1v1.3h-2.1l0,4.3c0,0.9,0.3,1.3,1.2,1.3c0.4,0,0.7,0,1-0.1v1.2
		c-0.3,0.1-0.7,0.2-1.2,0.2c-1.6,0-2.3-0.7-2.3-2.3l0-4.6h-1.5v-1.3h1.5l0-2H567.8z"/>
	<path fill="#E7E1D4" d="M573,202.1v4.6c0.3-0.7,1.1-1.2,2.2-1.2c1.7,0,2.6,1.2,2.6,3v5.2h-1.4v-5c0-1.2-0.6-1.9-1.6-1.9
		c-1.1,0-1.9,1-1.9,2.6v4.3h-1.4v-11.7H573z"/>
	<path fill="#E7E1D4" d="M580.9,204.2c-0.5,0-0.9-0.4-0.9-0.9c0-0.5,0.4-0.9,0.9-0.9s1,0.4,1,0.9
		C581.8,203.7,581.4,204.2,580.9,204.2z M581.5,205.7v8.1h-1.4v-8.1H581.5z"/>
	<path fill="#E7E1D4" d="M588.2,206.2c0.5,0.5,0.8,1.1,0.8,1.8h-1.4c0-0.8-0.4-1.3-1.3-1.3c-0.8,0-1.2,0.4-1.2,1.1
		c0,0.6,0.3,0.9,1.5,1.2c1.9,0.4,2.6,1.1,2.6,2.4c0,1.5-1.2,2.5-2.8,2.5c-1.8,0-2.9-1-2.9-2.6h1.4c0,0.9,0.5,1.3,1.6,1.3
		c0.9,0,1.4-0.4,1.4-1.1c0-0.7-0.4-1-1.7-1.3c-1.7-0.4-2.5-1-2.5-2.3c0-0.7,0.2-1.3,0.7-1.7c0.5-0.5,1.1-0.7,2-0.7
		C587.1,205.5,587.7,205.8,588.2,206.2z"/>
	<path fill="#E7E1D4" d="M22.2,224.9l-2.6,8.1h-1.4l-2-5.8l-2,5.8H13l-2.6-8.1h1.5l1.7,5.6l0.2,0.7l0.2-0.7l1.8-5.6h1.2l1.8,5.6
		l0.2,0.7l0.2-0.7l1.7-5.6H22.2z"/>
	<path fill="#E7E1D4" d="M30.4,228.8v0.7h-6.1c0.1,1.5,1.1,2.4,2.5,2.4c1.1,0,1.8-0.4,2.2-1.3h1.4c-0.5,1.6-1.7,2.6-3.6,2.6
		c-1.1,0-2.1-0.4-2.8-1.2c-0.7-0.8-1.1-1.8-1.1-3c0-1.2,0.4-2.2,1.1-3c0.7-0.8,1.6-1.2,2.8-1.2C28.9,224.7,30.4,226.2,30.4,228.8z
		 M24.3,228.3H29c0-1.4-0.9-2.2-2.3-2.2C25.4,226,24.4,226.9,24.3,228.3z"/>
	<path fill="#E7E1D4" d="M33.7,221.3v4.7c0.6-0.8,1.5-1.3,2.7-1.3c1.1,0,2,0.4,2.7,1.2c0.7,0.8,1.1,1.8,1.1,3c0,1.2-0.4,2.2-1,3
		c-0.7,0.8-1.6,1.2-2.7,1.2c-1.2,0-2.1-0.4-2.8-1.4l-0.1,1.2h-1.2v-11.7H33.7z M34.4,226.8c-0.5,0.5-0.7,1.2-0.7,2.1v0.1
		c0,0.8,0.2,1.5,0.7,2c0.5,0.5,1.1,0.8,1.8,0.8c1.5,0,2.5-1.2,2.5-2.9c0-0.8-0.2-1.6-0.7-2.1c-0.5-0.5-1.1-0.8-1.8-0.8
		C35.5,226,34.9,226.3,34.4,226.8z"/>
	<path fill="#E7E1D4" d="M46.1,225.4c0.5,0.5,0.8,1.1,0.8,1.8h-1.4c0-0.8-0.4-1.3-1.3-1.3c-0.8,0-1.2,0.4-1.2,1.1
		c0,0.6,0.3,0.9,1.5,1.2c1.9,0.4,2.6,1.1,2.6,2.4c0,1.5-1.2,2.5-2.8,2.5c-1.8,0-2.9-1-2.9-2.6h1.4c0,0.9,0.5,1.3,1.6,1.3
		c0.9,0,1.4-0.4,1.4-1.1c0-0.7-0.4-1-1.7-1.3c-1.7-0.4-2.5-1-2.5-2.3c0-0.7,0.2-1.3,0.7-1.7c0.5-0.5,1.1-0.7,2-0.7
		C45,224.7,45.6,225,46.1,225.4z"/>
	<path fill="#E7E1D4" d="M49.7,223.4c-0.5,0-0.9-0.4-0.9-0.9c0-0.5,0.4-0.9,0.9-0.9c0.5,0,1,0.4,1,0.9
		C50.7,222.9,50.3,223.4,49.7,223.4z M50.4,224.9v8.1h-1.4v-8.1H50.4z"/>
	<path fill="#E7E1D4" d="M54.7,222.9l0,2h2.1v1.3h-2.1l0,4.3c0,0.9,0.3,1.3,1.2,1.3c0.4,0,0.7,0,1-0.1v1.2c-0.3,0.1-0.7,0.2-1.2,0.2
		c-1.6,0-2.3-0.7-2.3-2.3l0-4.6h-1.5v-1.3h1.5l0-2H54.7z"/>
	<path fill="#E7E1D4" d="M65.4,228.8v0.7h-6.1c0.1,1.5,1.1,2.4,2.5,2.4c1.1,0,1.8-0.4,2.2-1.3h1.4c-0.5,1.6-1.7,2.6-3.6,2.6
		c-1.1,0-2.1-0.4-2.8-1.2c-0.7-0.8-1.1-1.8-1.1-3c0-1.2,0.4-2.2,1.1-3c0.7-0.8,1.6-1.2,2.8-1.2C63.9,224.7,65.4,226.2,65.4,228.8z
		 M59.3,228.3H64c0-1.4-0.9-2.2-2.3-2.2C60.4,226,59.5,226.9,59.3,228.3z"/>
	<path fill="#E7E1D4" d="M72.7,222.9l0,2h2.1v1.3h-2.1l0,4.3c0,0.9,0.3,1.3,1.2,1.3c0.4,0,0.7,0,1-0.1v1.2c-0.3,0.1-0.7,0.2-1.2,0.2
		c-1.6,0-2.3-0.7-2.3-2.3l0-4.6h-1.5v-1.3h1.5l0-2H72.7z"/>
	<path fill="#E7E1D4" d="M82.9,225.9c0.8,0.8,1.2,1.8,1.2,3c0,1.2-0.4,2.2-1.2,3c-0.8,0.8-1.7,1.2-2.9,1.2c-1.2,0-2.2-0.4-3-1.2
		c-0.8-0.8-1.1-1.8-1.1-3c0-1.2,0.4-2.2,1.1-3c0.8-0.8,1.8-1.2,3-1.2C81.1,224.7,82.1,225.1,82.9,225.9z M78,226.8
		c-0.5,0.5-0.7,1.2-0.7,2.1c0,0.8,0.2,1.5,0.7,2.1c0.5,0.6,1.2,0.8,2,0.8c0.8,0,1.4-0.3,1.9-0.8c0.5-0.6,0.7-1.2,0.7-2.1
		c0-0.8-0.2-1.6-0.7-2.1c-0.5-0.6-1.1-0.8-1.9-0.8C79.2,226,78.5,226.3,78,226.8z"/>
	<path fill="#E7E1D4" d="M100.2,224.9l-2.6,8.1h-1.4l-2-5.8l-2,5.8H91l-2.6-8.1h1.5l1.7,5.6l0.2,0.7l0.2-0.7l1.8-5.6h1.2l1.8,5.6
		l0.2,0.7l0.2-0.7l1.7-5.6H100.2z"/>
	<path fill="#E7E1D4" d="M107.9,225.9c0.8,0.8,1.2,1.8,1.2,3c0,1.2-0.4,2.2-1.2,3c-0.8,0.8-1.7,1.2-2.9,1.2c-1.2,0-2.2-0.4-3-1.2
		c-0.8-0.8-1.1-1.8-1.1-3c0-1.2,0.4-2.2,1.1-3c0.8-0.8,1.8-1.2,3-1.2C106.1,224.7,107.1,225.1,107.9,225.9z M103,226.8
		c-0.5,0.5-0.7,1.2-0.7,2.1c0,0.8,0.2,1.5,0.7,2.1c0.5,0.6,1.2,0.8,2,0.8c0.8,0,1.4-0.3,1.9-0.8c0.5-0.6,0.7-1.2,0.7-2.1
		c0-0.8-0.2-1.6-0.7-2.1c-0.5-0.6-1.1-0.8-1.9-0.8C104.1,226,103.5,226.3,103,226.8z"/>
	<path fill="#E7E1D4" d="M114.6,226.2c-0.7,0-1.2,0.2-1.6,0.6c-0.5,0.4-0.7,1.1-0.7,1.9v4.3h-1.4v-8.1h1.2l0.1,1.4
		c0.3-0.8,1.1-1.5,2.4-1.5V226.2z"/>
	<path fill="#E7E1D4" d="M117.7,221.3v7.4l3-3.8h1.7l-2.6,3.3l3,4.7h-1.6l-2.4-3.7l-1.1,1.4v2.3h-1.4v-11.7H117.7z"/>
	<path fill="#E7E1D4" d="M134.6,227.4h-1.4c-0.3-0.9-1.2-1.4-2.2-1.4c-0.7,0-1.3,0.3-1.8,0.8c-0.5,0.6-0.7,1.3-0.7,2.1
		c0,0.8,0.2,1.5,0.7,2.1c0.5,0.6,1.1,0.8,1.8,0.8c1,0,1.9-0.6,2.2-1.4h1.4c-0.4,1.7-1.8,2.7-3.6,2.7c-1.1,0-2.1-0.4-2.8-1.2
		c-0.7-0.8-1.1-1.8-1.1-3s0.4-2.2,1.1-3c0.8-0.8,1.7-1.2,2.8-1.2C132.9,224.7,134.3,225.7,134.6,227.4z"/>
	<path fill="#E7E1D4" d="M142.9,225.9c0.8,0.8,1.2,1.8,1.2,3c0,1.2-0.4,2.2-1.2,3c-0.8,0.8-1.7,1.2-2.9,1.2c-1.2,0-2.2-0.4-3-1.2
		c-0.8-0.8-1.1-1.8-1.1-3c0-1.2,0.4-2.2,1.1-3c0.8-0.8,1.8-1.2,3-1.2C141.1,224.7,142.1,225.1,142.9,225.9z M138,226.8
		c-0.5,0.5-0.7,1.2-0.7,2.1c0,0.8,0.2,1.5,0.7,2.1c0.5,0.6,1.2,0.8,2,0.8c0.8,0,1.4-0.3,1.9-0.8c0.5-0.6,0.7-1.2,0.7-2.1
		c0-0.8-0.2-1.6-0.7-2.1c-0.5-0.6-1.1-0.8-1.9-0.8C139.2,226,138.5,226.3,138,226.8z"/>
	<path fill="#E7E1D4" d="M149.6,226.2c-0.7,0-1.2,0.2-1.6,0.6c-0.5,0.4-0.7,1.1-0.7,1.9v4.3h-1.4v-8.1h1.2l0.1,1.4
		c0.3-0.8,1.1-1.5,2.4-1.5V226.2z"/>
	<path fill="#E7E1D4" d="M155.1,226.2c-0.7,0-1.2,0.2-1.6,0.6c-0.5,0.4-0.7,1.1-0.7,1.9v4.3h-1.4v-8.1h1.2l0.1,1.4
		c0.3-0.8,1.1-1.5,2.4-1.5V226.2z"/>
	<path fill="#E7E1D4" d="M163.4,228.8v0.7h-6.1c0.1,1.5,1.1,2.4,2.5,2.4c1.1,0,1.8-0.4,2.2-1.3h1.4c-0.5,1.6-1.7,2.6-3.6,2.6
		c-1.1,0-2.1-0.4-2.8-1.2c-0.7-0.8-1.1-1.8-1.1-3c0-1.2,0.4-2.2,1.1-3c0.7-0.8,1.6-1.2,2.8-1.2C162,224.7,163.4,226.2,163.4,228.8z
		 M157.3,228.3h4.7c0-1.4-0.9-2.2-2.3-2.2C158.4,226,157.5,226.9,157.3,228.3z"/>
	<path fill="#E7E1D4" d="M172.4,227.4H171c-0.3-0.9-1.2-1.4-2.2-1.4c-0.7,0-1.3,0.3-1.8,0.8c-0.5,0.6-0.7,1.3-0.7,2.1
		c0,0.8,0.2,1.5,0.7,2.1c0.5,0.6,1.1,0.8,1.8,0.8c1,0,1.9-0.6,2.2-1.4h1.4c-0.4,1.7-1.8,2.7-3.6,2.7c-1.1,0-2.1-0.4-2.8-1.2
		c-0.7-0.8-1.1-1.8-1.1-3s0.4-2.2,1.1-3c0.8-0.8,1.7-1.2,2.8-1.2C170.6,224.7,172,225.7,172.4,227.4z"/>
	<path fill="#E7E1D4" d="M176,222.9l0,2h2.1v1.3H176l0,4.3c0,0.9,0.3,1.3,1.2,1.3c0.4,0,0.7,0,1-0.1v1.2c-0.3,0.1-0.7,0.2-1.2,0.2
		c-1.6,0-2.3-0.7-2.3-2.3l0-4.6h-1.5v-1.3h1.5l0-2H176z"/>
	<path fill="#E7E1D4" d="M181.2,221.3V233h-1.4v-11.7H181.2z"/>
	<path fill="#E7E1D4" d="M190.3,224.9l-4.4,11.5h-1.5l1.3-3.6l-3-8h1.5l2.1,5.8l0.2,0.6l0.2-0.6l2.1-5.8H190.3z"/>
	<path fill="#E7E1D4" d="M191.2,233.2c-0.6,0-1-0.4-1-1c0-0.6,0.4-1,1-1s1,0.4,1,1C192.2,232.7,191.8,233.2,191.2,233.2z"/>
	<path fill="#E7E1D4" d="M202.7,221.8l4.5,11.2h-1.6l-1.2-3h-4.9l-1.2,3h-1.6l4.5-11.2H202.7z M201.9,223.6l-0.2,0.6l-1.8,4.4h4
		l-1.8-4.4L201.9,223.6z"/>
	<path fill="#E7E1D4" d="M212.8,225.4c0.5,0.5,0.8,1.1,0.8,1.8h-1.4c0-0.8-0.4-1.3-1.3-1.3c-0.8,0-1.2,0.4-1.2,1.1
		c0,0.6,0.3,0.9,1.5,1.2c1.9,0.4,2.6,1.1,2.6,2.4c0,1.5-1.2,2.5-2.8,2.5c-1.8,0-2.9-1-2.9-2.6h1.4c0,0.9,0.5,1.3,1.6,1.3
		c0.9,0,1.4-0.4,1.4-1.1c0-0.7-0.4-1-1.7-1.3c-1.7-0.4-2.5-1-2.5-2.3c0-0.7,0.2-1.3,0.7-1.7c0.5-0.5,1.1-0.7,2-0.7
		C211.7,224.7,212.4,225,212.8,225.4z"/>
	<path fill="#E7E1D4" d="M224.9,227.6v5.3h-1.2l-0.1-1.1c-0.4,0.8-1.3,1.3-2.4,1.3c-1.4,0-2.4-0.9-2.4-2.3c0-1.3,0.8-2,2.3-2.3
		l2.5-0.5v-0.4c0-1.1-0.5-1.7-1.5-1.7c-0.9,0-1.6,0.5-1.6,1.5H219c0-0.8,0.3-1.4,0.9-2s1.3-0.8,2.1-0.8
		C223.8,224.7,224.9,225.8,224.9,227.6z M223.5,229.3l-2.2,0.5c-0.7,0.2-1.1,0.4-1.1,1.1c0,0.6,0.4,1,1.2,1c0.7,0,1.2-0.3,1.6-0.8
		c0.3-0.4,0.5-0.9,0.5-1.5V229.3z"/>
	<path fill="#E7E1D4" d="M237.9,221.3V233h-1.2l-0.1-1.2c-0.6,0.9-1.6,1.4-2.8,1.4c-1.1,0-2-0.4-2.7-1.2c-0.7-0.8-1-1.8-1-3
		c0-1.2,0.4-2.2,1-3c0.7-0.8,1.6-1.2,2.7-1.2c1.2,0,2.1,0.4,2.7,1.3v-4.7H237.9z M232.2,226.9c-0.5,0.5-0.7,1.2-0.7,2.1
		c0,1.7,1,2.9,2.5,2.9c0.7,0,1.3-0.3,1.8-0.8c0.5-0.5,0.8-1.2,0.8-2v-0.1c0-0.9-0.3-1.6-0.8-2.1c-0.5-0.5-1.1-0.8-1.7-0.8
		C233.3,226,232.7,226.3,232.2,226.9z"/>
	<path fill="#E7E1D4" d="M247.2,228.8v0.7h-6.1c0.1,1.5,1.1,2.4,2.5,2.4c1.1,0,1.8-0.4,2.2-1.3h1.4c-0.5,1.6-1.7,2.6-3.6,2.6
		c-1.1,0-2.1-0.4-2.8-1.2c-0.7-0.8-1.1-1.8-1.1-3c0-1.2,0.4-2.2,1.1-3c0.7-0.8,1.6-1.2,2.8-1.2C245.8,224.7,247.2,226.2,247.2,228.8
		z M241.1,228.3h4.7c0-1.4-0.9-2.2-2.3-2.2C242.2,226,241.3,226.9,241.1,228.3z"/>
	<path fill="#E7E1D4" d="M253.4,225.4c0.5,0.5,0.8,1.1,0.8,1.8h-1.4c0-0.8-0.4-1.3-1.3-1.3c-0.8,0-1.2,0.4-1.2,1.1
		c0,0.6,0.3,0.9,1.5,1.2c1.9,0.4,2.6,1.1,2.6,2.4c0,1.5-1.2,2.5-2.8,2.5c-1.8,0-2.9-1-2.9-2.6h1.4c0,0.9,0.5,1.3,1.6,1.3
		c0.9,0,1.4-0.4,1.4-1.1c0-0.7-0.4-1-1.7-1.3c-1.7-0.4-2.5-1-2.5-2.3c0-0.7,0.2-1.3,0.7-1.7c0.5-0.5,1.1-0.7,2-0.7
		C252.3,224.7,252.9,225,253.4,225.4z"/>
	<path fill="#E7E1D4" d="M257,223.4c-0.5,0-0.9-0.4-0.9-0.9c0-0.5,0.4-0.9,0.9-0.9c0.5,0,1,0.4,1,0.9
		C257.9,222.9,257.5,223.4,257,223.4z M257.7,224.9v8.1h-1.4v-8.1H257.7z"/>
	<path fill="#E7E1D4" d="M267,224.9v1.2h-1.4c0.3,0.4,0.4,0.9,0.4,1.5c0,0.8-0.3,1.5-0.8,2c-0.6,0.5-1.3,0.8-2.2,0.8
		c-0.7,0-1.2-0.1-1.7-0.4c-0.2,0.2-0.3,0.5-0.3,0.8c0,0.5,0.4,0.8,1,0.8h2.1c1.7,0,2.5,0.8,2.5,2.2c0,1.7-1.3,2.7-3.4,2.7
		c-2.3,0-3.5-0.9-3.5-2.5c0-0.7,0.3-1.1,0.9-1.5c-0.6-0.3-1.1-0.9-1.1-1.7c0-0.7,0.3-1.2,0.8-1.6c-0.3-0.5-0.5-1-0.5-1.7
		c0-0.8,0.3-1.5,0.8-2.1c0.6-0.5,1.3-0.8,2.3-0.8c0.4,0,0.8,0.1,1.2,0.2H267z M262.2,232.9c-0.7,0-1.2,0.4-1.2,1.1
		c0,0.9,0.8,1.3,2.2,1.3c1.3,0,2-0.5,2-1.4c0-0.7-0.5-1-1.5-1H262.2z M262.9,229.3c1,0,1.7-0.7,1.7-1.6c0-1-0.7-1.7-1.7-1.7
		c-1,0-1.7,0.7-1.7,1.7C261.2,228.6,261.9,229.3,262.9,229.3z"/>
	<path fill="#E7E1D4" d="M274.4,227.8v5.2H273v-5c0-1.2-0.6-1.9-1.6-1.9c-1.1,0-1.9,1-1.9,2.6v4.3h-1.4v-8.1h1.2l0.1,1.1
		c0.4-0.8,1.2-1.3,2.3-1.3C273.4,224.7,274.4,225.9,274.4,227.8z"/>
	<path fill="#E7E1D4" d="M283.6,228.8v0.7h-6.1c0.1,1.5,1.1,2.4,2.5,2.4c1.1,0,1.8-0.4,2.2-1.3h1.4c-0.5,1.6-1.7,2.6-3.6,2.6
		c-1.1,0-2.1-0.4-2.8-1.2c-0.7-0.8-1.1-1.8-1.1-3c0-1.2,0.4-2.2,1.1-3c0.7-0.8,1.6-1.2,2.8-1.2C282.1,224.7,283.6,226.2,283.6,228.8
		z M277.5,228.3h4.7c0-1.4-0.9-2.2-2.3-2.2C278.5,226,277.6,226.9,277.5,228.3z"/>
	<path fill="#E7E1D4" d="M289.4,226.2c-0.7,0-1.2,0.2-1.6,0.6c-0.5,0.4-0.7,1.1-0.7,1.9v4.3h-1.4v-8.1h1.2l0.1,1.4
		c0.3-0.8,1.1-1.5,2.4-1.5V226.2z"/>
	<path fill="#E7E1D4" d="M291.3,232.3c0,1-0.5,2-1.2,2.8l-0.4-0.2c0.3-0.5,0.5-1.1,0.6-1.8c-0.5,0-0.9-0.4-0.9-0.9
		c0-0.5,0.4-0.9,1-0.9C290.9,231.2,291.3,231.6,291.3,232.3z"/>
	<path fill="#E7E1D4" d="M298.2,221.8V233h-1.5v-11.2H298.2z"/>
	<path fill="#E7E1D4" d="M311.1,225.9c0.7,0.8,1,1.8,1,3c0,1.2-0.4,2.2-1.1,3c-0.7,0.8-1.6,1.2-2.7,1.2c-1.3,0-2.2-0.5-2.7-1.3v4.5
		h-1.4v-11.5h1.2l0.1,1.2c0.6-0.9,1.6-1.4,2.8-1.4C309.5,224.7,310.4,225.1,311.1,225.9z M306.4,226.8c-0.5,0.5-0.7,1.2-0.7,2v0.1
		c0,0.9,0.2,1.6,0.7,2.1c0.5,0.5,1.1,0.8,1.8,0.8c0.8,0,1.4-0.3,1.8-0.8c0.5-0.5,0.7-1.2,0.7-2.1c0-1.7-1-2.9-2.5-2.9
		C307.5,226,306.9,226.3,306.4,226.8z"/>
	<path fill="#E7E1D4" d="M317.8,226.2c-0.7,0-1.2,0.2-1.6,0.6c-0.5,0.4-0.7,1.1-0.7,1.9v4.3H314v-8.1h1.2l0.1,1.4
		c0.3-0.8,1.1-1.5,2.4-1.5V226.2z"/>
	<path fill="#E7E1D4" d="M326.1,228.8v0.7H320c0.1,1.5,1.1,2.4,2.5,2.4c1.1,0,1.8-0.4,2.2-1.3h1.4c-0.5,1.6-1.7,2.6-3.6,2.6
		c-1.1,0-2.1-0.4-2.8-1.2c-0.7-0.8-1.1-1.8-1.1-3c0-1.2,0.4-2.2,1.1-3c0.7-0.8,1.6-1.2,2.8-1.2C324.7,224.7,326.1,226.2,326.1,228.8
		z M320,228.3h4.7c0-1.4-0.9-2.2-2.3-2.2C321.1,226,320.2,226.9,320,228.3z"/>
	<path fill="#E7E1D4" d="M332,221.3v1.2c-0.3-0.1-0.6-0.2-1-0.2c-0.8,0-1.1,0.4-1.1,1.3v1.2h2v1.3h-2v6.8h-1.4v-6.8h-1.5v-1.3h1.5
		v-1.2c0-1.6,0.9-2.5,2.4-2.5C331.4,221.1,331.7,221.2,332,221.3z"/>
	<path fill="#E7E1D4" d="M340.3,228.8v0.7h-6.1c0.1,1.5,1.1,2.4,2.5,2.4c1.1,0,1.8-0.4,2.2-1.3h1.4c-0.5,1.6-1.7,2.6-3.6,2.6
		c-1.1,0-2.1-0.4-2.8-1.2c-0.7-0.8-1.1-1.8-1.1-3c0-1.2,0.4-2.2,1.1-3c0.7-0.8,1.6-1.2,2.8-1.2C338.8,224.7,340.3,226.2,340.3,228.8
		z M334.2,228.3h4.7c0-1.4-0.9-2.2-2.3-2.2C335.3,226,334.3,226.9,334.2,228.3z"/>
	<path fill="#E7E1D4" d="M346.1,226.2c-0.7,0-1.2,0.2-1.6,0.6c-0.5,0.4-0.7,1.1-0.7,1.9v4.3h-1.4v-8.1h1.2l0.1,1.4
		c0.3-0.8,1.1-1.5,2.4-1.5V226.2z"/>
	<path fill="#E7E1D4" d="M353.1,222.9l0,2h2.1v1.3H353l0,4.3c0,0.9,0.3,1.3,1.2,1.3c0.4,0,0.7,0,1-0.1v1.2c-0.3,0.1-0.7,0.2-1.2,0.2
		c-1.6,0-2.3-0.7-2.3-2.3l0-4.6h-1.5v-1.3h1.5l0-2H353.1z"/>
	<path fill="#E7E1D4" d="M363.2,225.9c0.8,0.8,1.2,1.8,1.2,3c0,1.2-0.4,2.2-1.2,3c-0.8,0.8-1.7,1.2-2.9,1.2c-1.2,0-2.2-0.4-3-1.2
		c-0.8-0.8-1.1-1.8-1.1-3c0-1.2,0.4-2.2,1.1-3c0.8-0.8,1.8-1.2,3-1.2C361.5,224.7,362.4,225.1,363.2,225.9z M358.3,226.8
		c-0.5,0.5-0.7,1.2-0.7,2.1c0,0.8,0.2,1.5,0.7,2.1c0.5,0.6,1.2,0.8,2,0.8c0.8,0,1.4-0.3,1.9-0.8c0.5-0.6,0.7-1.2,0.7-2.1
		c0-0.8-0.2-1.6-0.7-2.1c-0.5-0.6-1.1-0.8-1.9-0.8C359.5,226,358.8,226.3,358.3,226.8z"/>
	<path fill="#E7E1D4" d="M376.6,225.9c0.7,0.8,1,1.8,1,3c0,1.2-0.4,2.2-1.1,3c-0.7,0.8-1.6,1.2-2.7,1.2c-1.3,0-2.2-0.5-2.7-1.3v4.5
		h-1.4v-11.5h1.2l0.1,1.2c0.6-0.9,1.6-1.4,2.8-1.4C375,224.7,375.9,225.1,376.6,225.9z M371.9,226.8c-0.5,0.5-0.7,1.2-0.7,2v0.1
		c0,0.9,0.2,1.6,0.7,2.1c0.5,0.5,1.1,0.8,1.8,0.8c0.8,0,1.4-0.3,1.8-0.8c0.5-0.5,0.7-1.2,0.7-2.1c0-1.7-1-2.9-2.5-2.9
		C373,226,372.4,226.3,371.9,226.8z"/>
	<path fill="#E7E1D4" d="M383.3,226.2c-0.7,0-1.2,0.2-1.6,0.6c-0.5,0.4-0.7,1.1-0.7,1.9v4.3h-1.4v-8.1h1.2l0.1,1.4
		c0.3-0.8,1.1-1.5,2.4-1.5V226.2z"/>
	<path fill="#E7E1D4" d="M391.1,225.9c0.8,0.8,1.2,1.8,1.2,3c0,1.2-0.4,2.2-1.2,3c-0.8,0.8-1.7,1.2-2.9,1.2c-1.2,0-2.2-0.4-3-1.2
		c-0.8-0.8-1.1-1.8-1.1-3c0-1.2,0.4-2.2,1.1-3c0.8-0.8,1.8-1.2,3-1.2C389.3,224.7,390.3,225.1,391.1,225.9z M386.2,226.8
		c-0.5,0.5-0.7,1.2-0.7,2.1c0,0.8,0.2,1.5,0.7,2.1c0.5,0.6,1.2,0.8,2,0.8c0.8,0,1.4-0.3,1.9-0.8c0.5-0.6,0.7-1.2,0.7-2.1
		c0-0.8-0.2-1.6-0.7-2.1c-0.5-0.6-1.1-0.8-1.9-0.8C387.4,226,386.7,226.3,386.2,226.8z"/>
	<path fill="#E7E1D4" d="M400.4,224.9l-3.1,8.1H396l-3.1-8.1h1.5l2.1,5.8l0.2,0.6l0.2-0.6l2.1-5.8H400.4z"/>
	<path fill="#E7E1D4" d="M402.6,223.4c-0.5,0-0.9-0.4-0.9-0.9c0-0.5,0.4-0.9,0.9-0.9s1,0.4,1,0.9
		C403.6,222.9,403.2,223.4,402.6,223.4z M403.3,224.9v8.1h-1.4v-8.1H403.3z"/>
	<path fill="#E7E1D4" d="M413,221.3V233h-1.2l-0.1-1.2c-0.6,0.9-1.6,1.4-2.8,1.4c-1.1,0-2-0.4-2.7-1.2c-0.7-0.8-1-1.8-1-3
		c0-1.2,0.4-2.2,1-3c0.7-0.8,1.6-1.2,2.7-1.2c1.2,0,2.1,0.4,2.7,1.3v-4.7H413z M407.3,226.9c-0.5,0.5-0.7,1.2-0.7,2.1
		c0,1.7,1,2.9,2.5,2.9c0.7,0,1.3-0.3,1.8-0.8c0.5-0.5,0.8-1.2,0.8-2v-0.1c0-0.9-0.3-1.6-0.8-2.1c-0.5-0.5-1.1-0.8-1.7-0.8
		C408.4,226,407.8,226.3,407.3,226.9z"/>
	<path fill="#E7E1D4" d="M422.3,228.8v0.7h-6.1c0.1,1.5,1.1,2.4,2.5,2.4c1.1,0,1.8-0.4,2.2-1.3h1.4c-0.5,1.6-1.7,2.6-3.6,2.6
		c-1.1,0-2.1-0.4-2.8-1.2c-0.7-0.8-1.1-1.8-1.1-3c0-1.2,0.4-2.2,1.1-3c0.7-0.8,1.6-1.2,2.8-1.2C420.8,224.7,422.3,226.2,422.3,228.8
		z M416.2,228.3h4.7c0-1.4-0.9-2.2-2.3-2.2C417.3,226,416.4,226.9,416.2,228.3z"/>
	<path fill="#E7E1D4" d="M433.4,227.6v5.3h-1.2l-0.1-1.1c-0.4,0.8-1.3,1.3-2.4,1.3c-1.4,0-2.4-0.9-2.4-2.3c0-1.3,0.8-2,2.3-2.3
		l2.5-0.5v-0.4c0-1.1-0.5-1.7-1.5-1.7c-0.9,0-1.6,0.5-1.6,1.5h-1.4c0-0.8,0.3-1.4,0.9-2c0.6-0.5,1.3-0.8,2.1-0.8
		C432.4,224.7,433.4,225.8,433.4,227.6z M432,229.3l-2.2,0.5c-0.7,0.2-1.1,0.4-1.1,1.1c0,0.6,0.4,1,1.2,1c0.7,0,1.2-0.3,1.6-0.8
		c0.3-0.4,0.5-0.9,0.5-1.5V229.3z"/>
	<path fill="#E7E1D4" d="M446.1,227.4h-1.4c-0.3-0.9-1.2-1.4-2.2-1.4c-0.7,0-1.3,0.3-1.8,0.8c-0.5,0.6-0.7,1.3-0.7,2.1
		c0,0.8,0.2,1.5,0.7,2.1c0.5,0.6,1.1,0.8,1.8,0.8c1,0,1.9-0.6,2.2-1.4h1.4c-0.4,1.7-1.8,2.7-3.6,2.7c-1.1,0-2.1-0.4-2.8-1.2
		c-0.7-0.8-1.1-1.8-1.1-3s0.4-2.2,1.1-3c0.8-0.8,1.7-1.2,2.8-1.2C444.3,224.7,445.7,225.7,446.1,227.4z"/>
	<path fill="#E7E1D4" d="M454.3,225.9c0.8,0.8,1.2,1.8,1.2,3c0,1.2-0.4,2.2-1.2,3c-0.8,0.8-1.7,1.2-2.9,1.2c-1.2,0-2.2-0.4-3-1.2
		c-0.8-0.8-1.1-1.8-1.1-3c0-1.2,0.4-2.2,1.1-3c0.8-0.8,1.8-1.2,3-1.2C452.6,224.7,453.6,225.1,454.3,225.9z M449.5,226.8
		c-0.5,0.5-0.7,1.2-0.7,2.1c0,0.8,0.2,1.5,0.7,2.1c0.5,0.6,1.2,0.8,2,0.8c0.8,0,1.4-0.3,1.9-0.8c0.5-0.6,0.7-1.2,0.7-2.1
		c0-0.8-0.2-1.6-0.7-2.1c-0.5-0.6-1.1-0.8-1.9-0.8C450.6,226,450,226.3,449.5,226.8z"/>
	<path fill="#E7E1D4" d="M468.2,227.8v5.2h-1.4v-5c0-1.2-0.6-1.9-1.6-1.9c-1.1,0-1.8,0.9-1.9,2.5v4.4h-1.4v-5c0-1.2-0.6-1.9-1.6-1.9
		c-1.1,0-1.9,1-1.9,2.6v4.3h-1.4v-8.1h1.2l0.1,1.1c0.4-0.8,1.2-1.3,2.2-1.3c1.2,0,1.9,0.5,2.4,1.5c0.5-1,1.3-1.5,2.4-1.5
		C467.3,224.7,468.2,225.9,468.2,227.8z"/>
	<path fill="#E7E1D4" d="M477.4,225.9c0.7,0.8,1,1.8,1,3c0,1.2-0.4,2.2-1.1,3c-0.7,0.8-1.6,1.2-2.7,1.2c-1.3,0-2.2-0.5-2.7-1.3v4.5
		h-1.4v-11.5h1.2l0.1,1.2c0.6-0.9,1.6-1.4,2.8-1.4C475.8,224.7,476.7,225.1,477.4,225.9z M472.7,226.8c-0.5,0.5-0.7,1.2-0.7,2v0.1
		c0,0.9,0.2,1.6,0.7,2.1c0.5,0.5,1.1,0.8,1.8,0.8c0.8,0,1.4-0.3,1.8-0.8c0.5-0.5,0.7-1.2,0.7-2.1c0-1.7-1-2.9-2.5-2.9
		C473.8,226,473.2,226.3,472.7,226.8z"/>
	<path fill="#E7E1D4" d="M481.7,221.3V233h-1.4v-11.7H481.7z"/>
	<path fill="#E7E1D4" d="M491.1,228.8v0.7h-6.1c0.1,1.5,1.1,2.4,2.5,2.4c1.1,0,1.8-0.4,2.2-1.3h1.4c-0.5,1.6-1.7,2.6-3.6,2.6
		c-1.1,0-2.1-0.4-2.8-1.2c-0.7-0.8-1.1-1.8-1.1-3c0-1.2,0.4-2.2,1.1-3c0.7-0.8,1.6-1.2,2.8-1.2C489.6,224.7,491.1,226.2,491.1,228.8
		z M485,228.3h4.7c0-1.4-0.9-2.2-2.3-2.2C486,226,485.1,226.9,485,228.3z"/>
	<path fill="#E7E1D4" d="M494.9,222.9l0,2h2.1v1.3h-2.1l0,4.3c0,0.9,0.3,1.3,1.2,1.3c0.4,0,0.7,0,1-0.1v1.2
		c-0.3,0.1-0.7,0.2-1.2,0.2c-1.6,0-2.3-0.7-2.3-2.3l0-4.6h-1.5v-1.3h1.5l0-2H494.9z"/>
	<path fill="#E7E1D4" d="M505.5,228.8v0.7h-6.1c0.1,1.5,1.1,2.4,2.5,2.4c1.1,0,1.8-0.4,2.2-1.3h1.4c-0.5,1.6-1.7,2.6-3.6,2.6
		c-1.1,0-2.1-0.4-2.8-1.2c-0.7-0.8-1.1-1.8-1.1-3c0-1.2,0.4-2.2,1.1-3c0.7-0.8,1.6-1.2,2.8-1.2C504,224.7,505.5,226.2,505.5,228.8z
		 M499.4,228.3h4.7c0-1.4-0.9-2.2-2.3-2.2C500.5,226,499.6,226.9,499.4,228.3z"/>
	<path fill="#E7E1D4" d="M517.9,228.8v0.7h-6.1c0.1,1.5,1.1,2.4,2.5,2.4c1.1,0,1.8-0.4,2.2-1.3h1.4c-0.5,1.6-1.7,2.6-3.6,2.6
		c-1.1,0-2.1-0.4-2.8-1.2c-0.7-0.8-1.1-1.8-1.1-3c0-1.2,0.4-2.2,1.1-3c0.7-0.8,1.6-1.2,2.8-1.2C516.4,224.7,517.9,226.2,517.9,228.8
		z M511.8,228.3h4.7c0-1.4-0.9-2.2-2.3-2.2C512.9,226,512,226.9,511.8,228.3z"/>
	<path fill="#E7E1D4" d="M526.3,224.9l-2.6,3.9l2.8,4.2h-1.6l-2.1-3.1l-2.1,3.1H519l2.8-4.2l-2.6-3.9h1.6l1.9,2.8l1.9-2.8H526.3z"/>
	<path fill="#E7E1D4" d="M534.9,225.9c0.7,0.8,1,1.8,1,3c0,1.2-0.4,2.2-1.1,3c-0.7,0.8-1.6,1.2-2.7,1.2c-1.3,0-2.2-0.5-2.7-1.3v4.5
		h-1.4v-11.5h1.2l0.1,1.2c0.6-0.9,1.6-1.4,2.8-1.4C533.3,224.7,534.3,225.1,534.9,225.9z M530.2,226.8c-0.5,0.5-0.7,1.2-0.7,2v0.1
		c0,0.9,0.2,1.6,0.7,2.1c0.5,0.5,1.1,0.8,1.8,0.8c0.8,0,1.4-0.3,1.8-0.8c0.5-0.5,0.7-1.2,0.7-2.1c0-1.7-1-2.9-2.5-2.9
		C531.3,226,530.7,226.3,530.2,226.8z"/>
	<path fill="#E7E1D4" d="M544.9,228.8v0.7h-6.1c0.1,1.5,1.1,2.4,2.5,2.4c1.1,0,1.8-0.4,2.2-1.3h1.4c-0.5,1.6-1.7,2.6-3.6,2.6
		c-1.1,0-2.1-0.4-2.8-1.2c-0.7-0.8-1.1-1.8-1.1-3c0-1.2,0.4-2.2,1.1-3c0.7-0.8,1.6-1.2,2.8-1.2C543.4,224.7,544.9,226.2,544.9,228.8
		z M538.8,228.3h4.7c0-1.4-0.9-2.2-2.3-2.2C539.8,226,538.9,226.9,538.8,228.3z"/>
	<path fill="#E7E1D4" d="M550.7,226.2c-0.7,0-1.2,0.2-1.6,0.6c-0.5,0.4-0.7,1.1-0.7,1.9v4.3h-1.4v-8.1h1.2l0.1,1.4
		c0.3-0.8,1.1-1.5,2.4-1.5V226.2z"/>
	<path fill="#E7E1D4" d="M553,223.4c-0.5,0-0.9-0.4-0.9-0.9c0-0.5,0.4-0.9,0.9-0.9s1,0.4,1,0.9C554,222.9,553.5,223.4,553,223.4z
		 M553.7,224.9v8.1h-1.4v-8.1H553.7z"/>
	<path fill="#E7E1D4" d="M563.1,228.8v0.7h-6.1c0.1,1.5,1.1,2.4,2.5,2.4c1.1,0,1.8-0.4,2.2-1.3h1.4c-0.5,1.6-1.7,2.6-3.6,2.6
		c-1.1,0-2.1-0.4-2.8-1.2c-0.7-0.8-1.1-1.8-1.1-3c0-1.2,0.4-2.2,1.1-3c0.7-0.8,1.6-1.2,2.8-1.2C561.6,224.7,563.1,226.2,563.1,228.8
		z M556.9,228.3h4.7c0-1.4-0.9-2.2-2.3-2.2C558,226,557.1,226.9,556.9,228.3z"/>
	<path fill="#E7E1D4" d="M571.2,227.8v5.2h-1.4v-5c0-1.2-0.6-1.9-1.6-1.9c-1.1,0-1.9,1-1.9,2.6v4.3H565v-8.1h1.2l0.1,1.1
		c0.4-0.8,1.2-1.3,2.3-1.3C570.3,224.7,571.2,225.9,571.2,227.8z"/>
	<path fill="#E7E1D4" d="M580.4,227.4H579c-0.3-0.9-1.2-1.4-2.2-1.4c-0.7,0-1.3,0.3-1.8,0.8c-0.5,0.6-0.7,1.3-0.7,2.1
		c0,0.8,0.2,1.5,0.7,2.1c0.5,0.6,1.1,0.8,1.8,0.8c1,0,1.9-0.6,2.2-1.4h1.4c-0.4,1.7-1.8,2.7-3.6,2.7c-1.1,0-2.1-0.4-2.8-1.2
		c-0.7-0.8-1.1-1.8-1.1-3s0.4-2.2,1.1-3c0.8-0.8,1.7-1.2,2.8-1.2C578.6,224.7,580,225.7,580.4,227.4z"/>
	<path fill="#E7E1D4" d="M589.1,228.8v0.7H583c0.1,1.5,1.1,2.4,2.5,2.4c1.1,0,1.8-0.4,2.2-1.3h1.4c-0.5,1.6-1.7,2.6-3.6,2.6
		c-1.1,0-2.1-0.4-2.8-1.2c-0.7-0.8-1.1-1.8-1.1-3c0-1.2,0.4-2.2,1.1-3c0.7-0.8,1.6-1.2,2.8-1.2C587.7,224.7,589.1,226.2,589.1,228.8
		z M583,228.3h4.7c0-1.4-0.9-2.2-2.3-2.2C584.1,226,583.2,226.9,583,228.3z"/>
	<path fill="#E7E1D4" d="M22.2,244.1l-2.6,8.1h-1.4l-2-5.8l-2,5.8H13l-2.6-8.1h1.5l1.7,5.6l0.2,0.7l0.2-0.7l1.8-5.6h1.2l1.8,5.6
		l0.2,0.7l0.2-0.7l1.7-5.6H22.2z"/>
	<path fill="#E7E1D4" d="M25,240.5v4.6c0.3-0.7,1.1-1.2,2.2-1.2c1.7,0,2.6,1.2,2.6,3v5.2h-1.4v-5c0-1.2-0.6-1.9-1.6-1.9
		c-1.1,0-1.9,1-1.9,2.6v4.3h-1.4v-11.7H25z"/>
	<path fill="#E7E1D4" d="M39.1,248v0.7h-6.1c0.1,1.5,1.1,2.4,2.5,2.4c1.1,0,1.8-0.4,2.2-1.3H39c-0.5,1.6-1.7,2.6-3.6,2.6
		c-1.1,0-2.1-0.4-2.8-1.2c-0.7-0.8-1.1-1.8-1.1-3c0-1.2,0.4-2.2,1.1-3c0.7-0.8,1.6-1.2,2.8-1.2C37.6,243.9,39.1,245.4,39.1,248z
		 M32.9,247.5h4.7c0-1.4-0.9-2.2-2.3-2.2C34,245.2,33.1,246.1,32.9,247.5z"/>
	<path fill="#E7E1D4" d="M47.2,247v5.2h-1.4v-5c0-1.2-0.6-1.9-1.6-1.9c-1.1,0-1.9,1-1.9,2.6v4.3H41v-8.1h1.2l0.1,1.1
		c0.4-0.8,1.2-1.3,2.3-1.3C46.3,243.9,47.2,245.1,47.2,247z"/>
	<path fill="#E7E1D4" d="M60.1,244.1l-4.4,11.5h-1.5l1.3-3.6l-3-8H54l2.1,5.8l0.2,0.6l0.2-0.6l2.1-5.8H60.1z"/>
	<path fill="#E7E1D4" d="M67.7,245.1c0.8,0.8,1.2,1.8,1.2,3c0,1.2-0.4,2.2-1.2,3c-0.8,0.8-1.7,1.2-2.9,1.2c-1.2,0-2.2-0.4-3-1.2
		c-0.8-0.8-1.1-1.8-1.1-3c0-1.2,0.4-2.2,1.1-3c0.8-0.8,1.8-1.2,3-1.2C66,243.9,67,244.3,67.7,245.1z M62.9,246
		c-0.5,0.5-0.7,1.2-0.7,2.1c0,0.8,0.2,1.5,0.7,2.1c0.5,0.6,1.2,0.8,2,0.8c0.8,0,1.4-0.3,1.9-0.8c0.5-0.6,0.7-1.2,0.7-2.1
		c0-0.8-0.2-1.6-0.7-2.1c-0.5-0.6-1.1-0.8-1.9-0.8C64,245.2,63.4,245.5,62.9,246z"/>
	<path fill="#E7E1D4" d="M76.7,244.1v8.1h-1.2l-0.1-1.1c-0.4,0.8-1.2,1.3-2.2,1.3c-1.7,0-2.6-1.2-2.6-3v-5.2H72v5
		c0,1.3,0.6,1.9,1.5,1.9c1.1,0,1.8-0.9,1.8-2.4v-4.5H76.7z"/>
	<path fill="#E7E1D4" d="M89.3,247v5.2h-1.4v-5c0-1.2-0.6-1.9-1.6-1.9c-1.1,0-1.9,1-1.9,2.6v4.3h-1.4v-8.1h1.2l0.1,1.1
		c0.4-0.8,1.2-1.3,2.3-1.3C88.4,243.9,89.3,245.1,89.3,247z"/>
	<path fill="#E7E1D4" d="M97.2,246.8v5.3H96l-0.1-1.1c-0.4,0.8-1.3,1.3-2.4,1.3c-1.4,0-2.4-0.9-2.4-2.3c0-1.3,0.8-2,2.3-2.3l2.5-0.5
		v-0.4c0-1.1-0.5-1.7-1.5-1.7c-0.9,0-1.6,0.5-1.6,1.5h-1.4c0-0.8,0.3-1.4,0.9-2s1.3-0.8,2.1-0.8C96.2,243.9,97.2,245,97.2,246.8z
		 M95.8,248.5l-2.2,0.5c-0.7,0.2-1.1,0.4-1.1,1.1c0,0.6,0.4,1,1.2,1c0.7,0,1.2-0.3,1.6-0.8c0.3-0.4,0.5-0.9,0.5-1.5V248.5z"/>
	<path fill="#E7E1D4" d="M106.1,244.1l-3.1,8.1h-1.4l-3.1-8.1h1.5l2.1,5.8l0.2,0.6l0.2-0.6l2.1-5.8H106.1z"/>
	<path fill="#E7E1D4" d="M108.3,242.6c-0.5,0-0.9-0.4-0.9-0.9c0-0.5,0.4-0.9,0.9-0.9c0.5,0,1,0.4,1,0.9
		C109.2,242.1,108.8,242.6,108.3,242.6z M109,244.1v8.1h-1.4v-8.1H109z"/>
	<path fill="#E7E1D4" d="M118.3,244.1v1.2h-1.4c0.3,0.4,0.4,0.9,0.4,1.5c0,0.8-0.3,1.5-0.8,2c-0.6,0.5-1.3,0.8-2.2,0.8
		c-0.7,0-1.2-0.1-1.7-0.4c-0.2,0.2-0.3,0.5-0.3,0.8c0,0.5,0.4,0.8,1,0.8h2.1c1.7,0,2.5,0.8,2.5,2.2c0,1.7-1.3,2.7-3.4,2.7
		c-2.3,0-3.5-0.9-3.5-2.5c0-0.7,0.3-1.1,0.9-1.5c-0.6-0.3-1.1-0.9-1.1-1.7c0-0.7,0.3-1.2,0.8-1.6c-0.3-0.5-0.5-1-0.5-1.7
		c0-0.8,0.3-1.5,0.8-2.1c0.6-0.5,1.3-0.8,2.3-0.8c0.4,0,0.8,0.1,1.2,0.2H118.3z M113.5,252.1c-0.7,0-1.2,0.4-1.2,1.1
		c0,0.9,0.8,1.3,2.2,1.3c1.3,0,2-0.5,2-1.4c0-0.7-0.5-1-1.5-1H113.5z M114.2,248.5c1,0,1.7-0.7,1.7-1.6c0-1-0.7-1.7-1.7-1.7
		c-1,0-1.7,0.7-1.7,1.7C112.5,247.8,113.2,248.5,114.2,248.5z"/>
	<path fill="#E7E1D4" d="M125.1,246.8v5.3h-1.2l-0.1-1.1c-0.4,0.8-1.3,1.3-2.4,1.3c-1.4,0-2.4-0.9-2.4-2.3c0-1.3,0.8-2,2.3-2.3
		l2.5-0.5v-0.4c0-1.1-0.5-1.7-1.5-1.7c-0.9,0-1.6,0.5-1.6,1.5h-1.4c0-0.8,0.3-1.4,0.9-2s1.3-0.8,2.1-0.8
		C124,243.9,125.1,245,125.1,246.8z M123.7,248.5l-2.2,0.5c-0.7,0.2-1.1,0.4-1.1,1.1c0,0.6,0.4,1,1.2,1c0.7,0,1.2-0.3,1.6-0.8
		c0.3-0.4,0.5-0.9,0.5-1.5V248.5z"/>
	<path fill="#E7E1D4" d="M129.2,242.1l0,2h2.1v1.3h-2.1l0,4.3c0,0.9,0.3,1.3,1.2,1.3c0.4,0,0.7,0,1-0.1v1.2
		c-0.3,0.1-0.7,0.2-1.2,0.2c-1.6,0-2.3-0.7-2.3-2.3l0-4.6h-1.5v-1.3h1.5l0-2H129.2z"/>
	<path fill="#E7E1D4" d="M139.9,248v0.7h-6.1c0.1,1.5,1.1,2.4,2.5,2.4c1.1,0,1.8-0.4,2.2-1.3h1.4c-0.5,1.6-1.7,2.6-3.6,2.6
		c-1.1,0-2.1-0.4-2.8-1.2c-0.7-0.8-1.1-1.8-1.1-3c0-1.2,0.4-2.2,1.1-3c0.7-0.8,1.6-1.2,2.8-1.2C138.4,243.9,139.9,245.4,139.9,248z
		 M133.7,247.5h4.7c0-1.4-0.9-2.2-2.3-2.2C134.8,245.2,133.9,246.1,133.7,247.5z"/>
	<path fill="#E7E1D4" d="M147.1,240.5v4.6c0.3-0.7,1.1-1.2,2.2-1.2c1.7,0,2.6,1.2,2.6,3v5.2h-1.4v-5c0-1.2-0.6-1.9-1.6-1.9
		c-1.1,0-1.9,1-1.9,2.6v4.3h-1.4v-11.7H147.1z"/>
	<path fill="#E7E1D4" d="M161.2,248v0.7h-6.1c0.1,1.5,1.1,2.4,2.5,2.4c1.1,0,1.8-0.4,2.2-1.3h1.4c-0.5,1.6-1.7,2.6-3.6,2.6
		c-1.1,0-2.1-0.4-2.8-1.2c-0.7-0.8-1.1-1.8-1.1-3c0-1.2,0.4-2.2,1.1-3c0.7-0.8,1.6-1.2,2.8-1.2C159.7,243.9,161.2,245.4,161.2,248z
		 M155.1,247.5h4.7c0-1.4-0.9-2.2-2.3-2.2C156.2,245.2,155.2,246.1,155.1,247.5z"/>
	<path fill="#E7E1D4" d="M170.4,240.5v11.7h-1.2l-0.1-1.2c-0.6,0.9-1.6,1.4-2.8,1.4c-1.1,0-2-0.4-2.7-1.2c-0.7-0.8-1-1.8-1-3
		c0-1.2,0.4-2.2,1-3c0.7-0.8,1.6-1.2,2.7-1.2c1.2,0,2.1,0.4,2.7,1.3v-4.7H170.4z M164.7,246.1c-0.5,0.5-0.7,1.2-0.7,2.1
		c0,1.7,1,2.9,2.5,2.9c0.7,0,1.3-0.3,1.8-0.8c0.5-0.5,0.8-1.2,0.8-2v-0.1c0-0.9-0.3-1.6-0.8-2.1s-1.1-0.8-1.7-0.8
		C165.8,245.2,165.2,245.5,164.7,246.1z"/>
	<path fill="#E7E1D4" d="M178.5,246.8v5.3h-1.2l-0.1-1.1c-0.4,0.8-1.3,1.3-2.4,1.3c-1.4,0-2.4-0.9-2.4-2.3c0-1.3,0.8-2,2.3-2.3
		l2.5-0.5v-0.4c0-1.1-0.5-1.7-1.5-1.7c-0.9,0-1.6,0.5-1.6,1.5h-1.4c0-0.8,0.3-1.4,0.9-2s1.3-0.8,2.1-0.8
		C177.4,243.9,178.5,245,178.5,246.8z M177.1,248.5l-2.2,0.5c-0.7,0.2-1.1,0.4-1.1,1.1c0,0.6,0.4,1,1.2,1c0.7,0,1.2-0.3,1.6-0.8
		c0.3-0.4,0.5-0.9,0.5-1.5V248.5z"/>
	<path fill="#E7E1D4" d="M191.6,244.1l-2.6,8.1h-1.4l-2-5.8l-2,5.8h-1.3l-2.6-8.1h1.5l1.7,5.6l0.2,0.7l0.2-0.7l1.8-5.6h1.2l1.8,5.6
		l0.2,0.7l0.2-0.7l1.7-5.6H191.6z"/>
	<path fill="#E7E1D4" d="M199.8,248v0.7h-6.1c0.1,1.5,1.1,2.4,2.5,2.4c1.1,0,1.8-0.4,2.2-1.3h1.4c-0.5,1.6-1.7,2.6-3.6,2.6
		c-1.1,0-2.1-0.4-2.8-1.2c-0.7-0.8-1.1-1.8-1.1-3c0-1.2,0.4-2.2,1.1-3c0.7-0.8,1.6-1.2,2.8-1.2C198.3,243.9,199.8,245.4,199.8,248z
		 M193.7,247.5h4.7c0-1.4-0.9-2.2-2.3-2.2C194.8,245.2,193.9,246.1,193.7,247.5z"/>
	<path fill="#E7E1D4" d="M208,247v5.2h-1.4v-5c0-1.2-0.6-1.9-1.6-1.9c-1.1,0-1.9,1-1.9,2.6v4.3h-1.4v-8.1h1.2l0.1,1.1
		c0.4-0.8,1.2-1.3,2.3-1.3C207,243.9,208,245.1,208,247z"/>
	<path fill="#E7E1D4" d="M217.1,244.1v1.2h-1.4c0.3,0.4,0.4,0.9,0.4,1.5c0,0.8-0.3,1.5-0.8,2c-0.6,0.5-1.3,0.8-2.2,0.8
		c-0.7,0-1.2-0.1-1.7-0.4c-0.2,0.2-0.3,0.5-0.3,0.8c0,0.5,0.4,0.8,1,0.8h2.1c1.7,0,2.5,0.8,2.5,2.2c0,1.7-1.3,2.7-3.4,2.7
		c-2.3,0-3.5-0.9-3.5-2.5c0-0.7,0.3-1.1,0.9-1.5c-0.6-0.3-1.1-0.9-1.1-1.7c0-0.7,0.3-1.2,0.8-1.6c-0.3-0.5-0.5-1-0.5-1.7
		c0-0.8,0.3-1.5,0.8-2.1c0.6-0.5,1.3-0.8,2.3-0.8c0.4,0,0.8,0.1,1.2,0.2H217.1z M212.4,252.1c-0.7,0-1.2,0.4-1.2,1.1
		c0,0.9,0.8,1.3,2.2,1.3c1.3,0,2-0.5,2-1.4c0-0.7-0.5-1-1.5-1H212.4z M213.1,248.5c1,0,1.7-0.7,1.7-1.6c0-1-0.7-1.7-1.7-1.7
		c-1,0-1.7,0.7-1.7,1.7C211.3,247.8,212,248.5,213.1,248.5z"/>
	<path fill="#E7E1D4" d="M218.7,252.4c-0.6,0-1-0.4-1-1c0-0.6,0.4-1,1-1s1,0.4,1,1C219.7,251.9,219.2,252.4,218.7,252.4z"/>
	<path fill="#E7E1D4" d="M228.4,246.6H227c-0.3-0.9-1.2-1.4-2.2-1.4c-0.7,0-1.3,0.3-1.8,0.8c-0.5,0.6-0.7,1.3-0.7,2.1
		c0,0.8,0.2,1.5,0.7,2.1c0.5,0.6,1.1,0.8,1.8,0.8c1,0,1.9-0.6,2.2-1.4h1.4c-0.4,1.7-1.8,2.7-3.6,2.7c-1.1,0-2.1-0.4-2.8-1.2
		c-0.7-0.8-1.1-1.8-1.1-3s0.4-2.2,1.1-3c0.8-0.8,1.7-1.2,2.8-1.2C226.6,243.9,228,244.9,228.4,246.6z"/>
	<path fill="#E7E1D4" d="M236.6,245.1c0.8,0.8,1.2,1.8,1.2,3c0,1.2-0.4,2.2-1.2,3c-0.8,0.8-1.7,1.2-2.9,1.2c-1.2,0-2.2-0.4-3-1.2
		c-0.8-0.8-1.1-1.8-1.1-3c0-1.2,0.4-2.2,1.1-3c0.8-0.8,1.8-1.2,3-1.2C234.9,243.9,235.8,244.3,236.6,245.1z M231.7,246
		c-0.5,0.5-0.7,1.2-0.7,2.1c0,0.8,0.2,1.5,0.7,2.1c0.5,0.6,1.2,0.8,2,0.8c0.8,0,1.4-0.3,1.9-0.8c0.5-0.6,0.7-1.2,0.7-2.1
		c0-0.8-0.2-1.6-0.7-2.1c-0.5-0.6-1.1-0.8-1.9-0.8C232.9,245.2,232.2,245.5,231.7,246z"/>
	<path fill="#E7E1D4" d="M250.5,247v5.2h-1.4v-5c0-1.2-0.6-1.9-1.6-1.9c-1.1,0-1.8,0.9-1.9,2.5v4.4h-1.4v-5c0-1.2-0.6-1.9-1.6-1.9
		c-1.1,0-1.9,1-1.9,2.6v4.3h-1.4v-8.1h1.2l0.1,1.1c0.4-0.8,1.2-1.3,2.2-1.3c1.2,0,1.9,0.5,2.4,1.5c0.5-1,1.3-1.5,2.4-1.5
		C249.5,243.9,250.5,245.1,250.5,247z"/>
	<path fill="#E7E1D4" d="M253.2,252.4c-0.6,0-1-0.4-1-1c0-0.6,0.4-1,1-1s1,0.4,1,1C254.2,251.9,253.7,252.4,253.2,252.4z"/>
	<path fill="#E7E1D4" d="M263.3,241c1.1,0,2,0.3,2.7,1c0.7,0.6,1,1.5,1,2.5c0,1-0.3,1.8-1,2.5c-0.7,0.6-1.6,0.9-2.7,0.9h-1.9v4.4
		H260V241H263.3z M261.5,242.3v4.1h1.9c1.3,0,2.2-0.8,2.2-2c0-1.3-0.9-2.1-2.2-2.1H261.5z"/>
	<path fill="#E7E1D4" d="M270,240.5v11.7h-1.4v-11.7H270z"/>
	<path fill="#E7E1D4" d="M279.4,248v0.7h-6.1c0.1,1.5,1.1,2.4,2.5,2.4c1.1,0,1.8-0.4,2.2-1.3h1.4c-0.5,1.6-1.7,2.6-3.6,2.6
		c-1.1,0-2.1-0.4-2.8-1.2c-0.7-0.8-1.1-1.8-1.1-3c0-1.2,0.4-2.2,1.1-3c0.7-0.8,1.6-1.2,2.8-1.2C277.9,243.9,279.4,245.4,279.4,248z
		 M273.3,247.5h4.7c0-1.4-0.9-2.2-2.3-2.2C274.4,245.2,273.4,246.1,273.3,247.5z"/>
	<path fill="#E7E1D4" d="M287,246.8v5.3h-1.2l-0.1-1.1c-0.4,0.8-1.3,1.3-2.4,1.3c-1.4,0-2.4-0.9-2.4-2.3c0-1.3,0.8-2,2.3-2.3
		l2.5-0.5v-0.4c0-1.1-0.5-1.7-1.5-1.7c-0.9,0-1.6,0.5-1.6,1.5h-1.4c0-0.8,0.3-1.4,0.9-2s1.3-0.8,2.1-0.8
		C285.9,243.9,287,245,287,246.8z M285.6,248.5l-2.2,0.5c-0.7,0.2-1.1,0.4-1.1,1.1c0,0.6,0.4,1,1.2,1c0.7,0,1.2-0.3,1.6-0.8
		c0.3-0.4,0.5-0.9,0.5-1.5V248.5z"/>
	<path fill="#E7E1D4" d="M293.4,244.6c0.5,0.5,0.8,1.1,0.8,1.8h-1.4c0-0.8-0.4-1.3-1.3-1.3c-0.8,0-1.2,0.4-1.2,1.1
		c0,0.6,0.3,0.9,1.5,1.2c1.9,0.4,2.6,1.1,2.6,2.4c0,1.5-1.2,2.5-2.8,2.5c-1.8,0-2.9-1-2.9-2.6h1.4c0,0.9,0.5,1.3,1.6,1.3
		c0.9,0,1.4-0.4,1.4-1.1c0-0.7-0.4-1-1.7-1.3c-1.7-0.4-2.5-1-2.5-2.3c0-0.7,0.2-1.3,0.7-1.7c0.5-0.5,1.1-0.7,2-0.7
		C292.3,243.9,292.9,244.2,293.4,244.6z"/>
	<path fill="#E7E1D4" d="M303.2,248v0.7h-6.1c0.1,1.5,1.1,2.4,2.5,2.4c1.1,0,1.8-0.4,2.2-1.3h1.4c-0.5,1.6-1.7,2.6-3.6,2.6
		c-1.1,0-2.1-0.4-2.8-1.2c-0.7-0.8-1.1-1.8-1.1-3c0-1.2,0.4-2.2,1.1-3c0.7-0.8,1.6-1.2,2.8-1.2C301.7,243.9,303.2,245.4,303.2,248z
		 M297.1,247.5h4.7c0-1.4-0.9-2.2-2.3-2.2C298.2,245.2,297.2,246.1,297.1,247.5z"/>
	<path fill="#E7E1D4" d="M315.1,244.1v8.1h-1.2l-0.1-1.1c-0.4,0.8-1.2,1.3-2.2,1.3c-1.7,0-2.6-1.2-2.6-3v-5.2h1.4v5
		c0,1.3,0.6,1.9,1.5,1.9c1.1,0,1.8-0.9,1.8-2.4v-4.5H315.1z"/>
	<path fill="#E7E1D4" d="M321.7,244.6c0.5,0.5,0.8,1.1,0.8,1.8h-1.4c0-0.8-0.4-1.3-1.3-1.3c-0.8,0-1.2,0.4-1.2,1.1
		c0,0.6,0.3,0.9,1.5,1.2c1.9,0.4,2.6,1.1,2.6,2.4c0,1.5-1.2,2.5-2.8,2.5c-1.8,0-2.9-1-2.9-2.6h1.4c0,0.9,0.5,1.3,1.6,1.3
		c0.9,0,1.4-0.4,1.4-1.1c0-0.7-0.4-1-1.7-1.3c-1.7-0.4-2.5-1-2.5-2.3c0-0.7,0.2-1.3,0.7-1.7c0.5-0.5,1.1-0.7,2-0.7
		C320.6,243.9,321.2,244.2,321.7,244.6z"/>
	<path fill="#E7E1D4" d="M331.5,248v0.7h-6.1c0.1,1.5,1.1,2.4,2.5,2.4c1.1,0,1.8-0.4,2.2-1.3h1.4c-0.5,1.6-1.7,2.6-3.6,2.6
		c-1.1,0-2.1-0.4-2.8-1.2c-0.7-0.8-1.1-1.8-1.1-3c0-1.2,0.4-2.2,1.1-3c0.7-0.8,1.6-1.2,2.8-1.2C330,243.9,331.5,245.4,331.5,248z
		 M325.4,247.5h4.7c0-1.4-0.9-2.2-2.3-2.2C326.5,245.2,325.6,246.1,325.4,247.5z"/>
	<path fill="#E7E1D4" d="M343.8,245.1c0.8,0.8,1.2,1.8,1.2,3c0,1.2-0.4,2.2-1.2,3c-0.8,0.8-1.7,1.2-2.9,1.2c-1.2,0-2.2-0.4-3-1.2
		c-0.8-0.8-1.1-1.8-1.1-3c0-1.2,0.4-2.2,1.1-3c0.8-0.8,1.8-1.2,3-1.2C342,243.9,343,244.3,343.8,245.1z M338.9,246
		c-0.5,0.5-0.7,1.2-0.7,2.1c0,0.8,0.2,1.5,0.7,2.1c0.5,0.6,1.2,0.8,2,0.8c0.8,0,1.4-0.3,1.9-0.8c0.5-0.6,0.7-1.2,0.7-2.1
		c0-0.8-0.2-1.6-0.7-2.1c-0.5-0.6-1.1-0.8-1.9-0.8C340.1,245.2,339.4,245.5,338.9,246z"/>
	<path fill="#E7E1D4" d="M352.9,247v5.2h-1.4v-5c0-1.2-0.6-1.9-1.6-1.9c-1.1,0-1.9,1-1.9,2.6v4.3h-1.4v-8.1h1.2l0.1,1.1
		c0.4-0.8,1.2-1.3,2.3-1.3C352,243.9,352.9,245.1,352.9,247z"/>
	<path fill="#E7E1D4" d="M362.1,248v0.7H356c0.1,1.5,1.1,2.4,2.5,2.4c1.1,0,1.8-0.4,2.2-1.3h1.4c-0.5,1.6-1.7,2.6-3.6,2.6
		c-1.1,0-2.1-0.4-2.8-1.2c-0.7-0.8-1.1-1.8-1.1-3c0-1.2,0.4-2.2,1.1-3c0.7-0.8,1.6-1.2,2.8-1.2C360.6,243.9,362.1,245.4,362.1,248z
		 M356,247.5h4.7c0-1.4-0.9-2.2-2.3-2.2C357.1,245.2,356.2,246.1,356,247.5z"/>
	<path fill="#E7E1D4" d="M374.4,245.1c0.8,0.8,1.2,1.8,1.2,3c0,1.2-0.4,2.2-1.2,3c-0.8,0.8-1.7,1.2-2.9,1.2c-1.2,0-2.2-0.4-3-1.2
		c-0.8-0.8-1.1-1.8-1.1-3c0-1.2,0.4-2.2,1.1-3c0.8-0.8,1.8-1.2,3-1.2C372.7,243.9,373.6,244.3,374.4,245.1z M369.5,246
		c-0.5,0.5-0.7,1.2-0.7,2.1c0,0.8,0.2,1.5,0.7,2.1c0.5,0.6,1.2,0.8,2,0.8c0.8,0,1.4-0.3,1.9-0.8c0.5-0.6,0.7-1.2,0.7-2.1
		c0-0.8-0.2-1.6-0.7-2.1c-0.5-0.6-1.1-0.8-1.9-0.8C370.7,245.2,370,245.5,369.5,246z"/>
	<path fill="#E7E1D4" d="M381.3,240.5v1.2c-0.3-0.1-0.6-0.2-1-0.2c-0.8,0-1.1,0.4-1.1,1.3v1.2h2v1.3h-2v6.8h-1.4v-6.8h-1.5v-1.3h1.5
		v-1.2c0-1.6,0.9-2.5,2.4-2.5C380.7,240.3,381,240.4,381.3,240.5z"/>
	<path fill="#E7E1D4" d="M388.5,242.1l0,2h2.1v1.3h-2.1l0,4.3c0,0.9,0.3,1.3,1.2,1.3c0.4,0,0.7,0,1-0.1v1.2
		c-0.3,0.1-0.7,0.2-1.2,0.2c-1.6,0-2.3-0.7-2.3-2.3l0-4.6h-1.5v-1.3h1.5l0-2H388.5z"/>
	<path fill="#E7E1D4" d="M393.6,240.5v4.6c0.3-0.7,1.1-1.2,2.2-1.2c1.7,0,2.6,1.2,2.6,3v5.2H397v-5c0-1.2-0.6-1.9-1.6-1.9
		c-1.1,0-1.9,1-1.9,2.6v4.3h-1.4v-11.7H393.6z"/>
	<path fill="#E7E1D4" d="M407.6,248v0.7h-6.1c0.1,1.5,1.1,2.4,2.5,2.4c1.1,0,1.8-0.4,2.2-1.3h1.4c-0.5,1.6-1.7,2.6-3.6,2.6
		c-1.1,0-2.1-0.4-2.8-1.2c-0.7-0.8-1.1-1.8-1.1-3c0-1.2,0.4-2.2,1.1-3c0.7-0.8,1.6-1.2,2.8-1.2C406.1,243.9,407.6,245.4,407.6,248z
		 M401.5,247.5h4.7c0-1.4-0.9-2.2-2.3-2.2C402.6,245.2,401.7,246.1,401.5,247.5z"/>
	<path fill="#E7E1D4" d="M413.7,244.6c0.5,0.5,0.8,1.1,0.8,1.8h-1.4c0-0.8-0.4-1.3-1.3-1.3c-0.8,0-1.2,0.4-1.2,1.1
		c0,0.6,0.3,0.9,1.5,1.2c1.9,0.4,2.6,1.1,2.6,2.4c0,1.5-1.2,2.5-2.8,2.5c-1.8,0-2.9-1-2.9-2.6h1.4c0,0.9,0.5,1.3,1.6,1.3
		c0.9,0,1.4-0.4,1.4-1.1c0-0.7-0.4-1-1.7-1.3c-1.7-0.4-2.5-1-2.5-2.3c0-0.7,0.2-1.3,0.7-1.7c0.5-0.5,1.1-0.7,2-0.7
		C412.6,243.9,413.3,244.2,413.7,244.6z"/>
	<path fill="#E7E1D4" d="M423.5,248v0.7h-6.1c0.1,1.5,1.1,2.4,2.5,2.4c1.1,0,1.8-0.4,2.2-1.3h1.4c-0.5,1.6-1.7,2.6-3.6,2.6
		c-1.1,0-2.1-0.4-2.8-1.2c-0.7-0.8-1.1-1.8-1.1-3c0-1.2,0.4-2.2,1.1-3c0.7-0.8,1.6-1.2,2.8-1.2C422.1,243.9,423.5,245.4,423.5,248z
		 M417.4,247.5h4.7c0-1.4-0.9-2.2-2.3-2.2C418.5,245.2,417.6,246.1,417.4,247.5z"/>
	<path fill="#E7E1D4" d="M440.4,247v5.2H439v-5c0-1.2-0.6-1.9-1.6-1.9c-1.1,0-1.8,0.9-1.9,2.5v4.4h-1.4v-5c0-1.2-0.6-1.9-1.6-1.9
		c-1.1,0-1.9,1-1.9,2.6v4.3h-1.4v-8.1h1.2l0.1,1.1c0.4-0.8,1.2-1.3,2.2-1.3c1.2,0,1.9,0.5,2.4,1.5c0.5-1,1.3-1.5,2.4-1.5
		C439.4,243.9,440.4,245.1,440.4,247z"/>
	<path fill="#E7E1D4" d="M449,245.1c0.8,0.8,1.2,1.8,1.2,3c0,1.2-0.4,2.2-1.2,3c-0.8,0.8-1.7,1.2-2.9,1.2c-1.2,0-2.2-0.4-3-1.2
		c-0.8-0.8-1.1-1.8-1.1-3c0-1.2,0.4-2.2,1.1-3c0.8-0.8,1.8-1.2,3-1.2C447.3,243.9,448.3,244.3,449,245.1z M444.2,246
		c-0.5,0.5-0.7,1.2-0.7,2.1c0,0.8,0.2,1.5,0.7,2.1c0.5,0.6,1.2,0.8,2,0.8c0.8,0,1.4-0.3,1.9-0.8c0.5-0.6,0.7-1.2,0.7-2.1
		c0-0.8-0.2-1.6-0.7-2.1c-0.5-0.6-1.1-0.8-1.9-0.8C445.3,245.2,444.7,245.5,444.2,246z"/>
	<path fill="#E7E1D4" d="M459.4,240.5v11.7h-1.2l-0.1-1.2c-0.6,0.9-1.6,1.4-2.8,1.4c-1.1,0-2-0.4-2.7-1.2c-0.7-0.8-1-1.8-1-3
		c0-1.2,0.4-2.2,1-3c0.7-0.8,1.6-1.2,2.7-1.2c1.2,0,2.1,0.4,2.7,1.3v-4.7H459.4z M453.7,246.1c-0.5,0.5-0.7,1.2-0.7,2.1
		c0,1.7,1,2.9,2.5,2.9c0.7,0,1.3-0.3,1.8-0.8c0.5-0.5,0.8-1.2,0.8-2v-0.1c0-0.9-0.3-1.6-0.8-2.1c-0.5-0.5-1.1-0.8-1.7-0.8
		C454.8,245.2,454.2,245.5,453.7,246.1z"/>
	<path fill="#E7E1D4" d="M468.7,248v0.7h-6.1c0.1,1.5,1.1,2.4,2.5,2.4c1.1,0,1.8-0.4,2.2-1.3h1.4c-0.5,1.6-1.7,2.6-3.6,2.6
		c-1.1,0-2.1-0.4-2.8-1.2c-0.7-0.8-1.1-1.8-1.1-3c0-1.2,0.4-2.2,1.1-3c0.7-0.8,1.6-1.2,2.8-1.2C467.2,243.9,468.7,245.4,468.7,248z
		 M462.6,247.5h4.7c0-1.4-0.9-2.2-2.3-2.2C463.7,245.2,462.8,246.1,462.6,247.5z"/>
	<path fill="#E7E1D4" d="M474.5,245.4c-0.7,0-1.2,0.2-1.6,0.6c-0.5,0.4-0.7,1.1-0.7,1.9v4.3h-1.4v-8.1h1.2l0.1,1.4
		c0.3-0.8,1.1-1.5,2.4-1.5V245.4z"/>
	<path fill="#E7E1D4" d="M482.3,247v5.2h-1.4v-5c0-1.2-0.6-1.9-1.6-1.9c-1.1,0-1.9,1-1.9,2.6v4.3h-1.4v-8.1h1.2l0.1,1.1
		c0.4-0.8,1.2-1.3,2.3-1.3C481.4,243.9,482.3,245.1,482.3,247z"/>
	<path fill="#E7E1D4" d="M499.4,244.1l-2.6,8.1h-1.4l-2-5.8l-2,5.8h-1.3l-2.6-8.1h1.5l1.7,5.6l0.2,0.7l0.2-0.7l1.8-5.6h1.2l1.8,5.6
		l0.2,0.7l0.2-0.7l1.7-5.6H499.4z"/>
	<path fill="#E7E1D4" d="M507.6,248v0.7h-6.1c0.1,1.5,1.1,2.4,2.5,2.4c1.1,0,1.8-0.4,2.2-1.3h1.4c-0.5,1.6-1.7,2.6-3.6,2.6
		c-1.1,0-2.1-0.4-2.8-1.2c-0.7-0.8-1.1-1.8-1.1-3c0-1.2,0.4-2.2,1.1-3c0.7-0.8,1.6-1.2,2.8-1.2C506.1,243.9,507.6,245.4,507.6,248z
		 M501.5,247.5h4.7c0-1.4-0.9-2.2-2.3-2.2C502.6,245.2,501.6,246.1,501.5,247.5z"/>
	<path fill="#E7E1D4" d="M510.9,240.5v4.7c0.6-0.8,1.5-1.3,2.7-1.3c1.1,0,2,0.4,2.7,1.2c0.7,0.8,1.1,1.8,1.1,3c0,1.2-0.4,2.2-1,3
		c-0.7,0.8-1.6,1.2-2.7,1.2c-1.2,0-2.1-0.4-2.8-1.4l-0.1,1.2h-1.2v-11.7H510.9z M511.6,246c-0.5,0.5-0.7,1.2-0.7,2.1v0.1
		c0,0.8,0.2,1.5,0.7,2c0.5,0.5,1.1,0.8,1.8,0.8c1.5,0,2.5-1.2,2.5-2.9c0-0.8-0.2-1.6-0.7-2.1c-0.5-0.5-1.1-0.8-1.8-0.8
		C512.7,245.2,512.1,245.5,511.6,246z"/>
	<path fill="#E7E1D4" d="M524.5,240.5v4.7c0.6-0.8,1.5-1.3,2.7-1.3c1.1,0,2,0.4,2.7,1.2c0.7,0.8,1.1,1.8,1.1,3c0,1.2-0.4,2.2-1,3
		c-0.7,0.8-1.6,1.2-2.7,1.2c-1.2,0-2.1-0.4-2.8-1.4l-0.1,1.2h-1.2v-11.7H524.5z M525.2,246c-0.5,0.5-0.7,1.2-0.7,2.1v0.1
		c0,0.8,0.2,1.5,0.7,2c0.5,0.5,1.1,0.8,1.8,0.8c1.5,0,2.5-1.2,2.5-2.9c0-0.8-0.2-1.6-0.7-2.1c-0.5-0.5-1.1-0.8-1.8-0.8
		C526.3,245.2,525.7,245.5,525.2,246z"/>
	<path fill="#E7E1D4" d="M536.6,245.4c-0.7,0-1.2,0.2-1.6,0.6c-0.5,0.4-0.7,1.1-0.7,1.9v4.3h-1.4v-8.1h1.2l0.1,1.4
		c0.3-0.8,1.1-1.5,2.4-1.5V245.4z"/>
	<path fill="#E7E1D4" d="M544.4,245.1c0.8,0.8,1.2,1.8,1.2,3c0,1.2-0.4,2.2-1.2,3c-0.8,0.8-1.7,1.2-2.9,1.2c-1.2,0-2.2-0.4-3-1.2
		c-0.8-0.8-1.1-1.8-1.1-3c0-1.2,0.4-2.2,1.1-3c0.8-0.8,1.8-1.2,3-1.2C542.6,243.9,543.6,244.3,544.4,245.1z M539.5,246
		c-0.5,0.5-0.7,1.2-0.7,2.1c0,0.8,0.2,1.5,0.7,2.1c0.5,0.6,1.2,0.8,2,0.8c0.8,0,1.4-0.3,1.9-0.8c0.5-0.6,0.7-1.2,0.7-2.1
		c0-0.8-0.2-1.6-0.7-2.1c-0.5-0.6-1.1-0.8-1.9-0.8C540.7,245.2,540,245.5,539.5,246z"/>
	<path fill="#E7E1D4" d="M558,244.1l-2.6,8.1H554l-2-5.8l-2,5.8h-1.3l-2.6-8.1h1.5l1.7,5.6l0.2,0.7l0.2-0.7l1.8-5.6h1.2l1.8,5.6
		l0.2,0.7l0.2-0.7l1.7-5.6H558z"/>
	<path fill="#E7E1D4" d="M563.6,244.6c0.5,0.5,0.8,1.1,0.8,1.8H563c0-0.8-0.4-1.3-1.3-1.3c-0.8,0-1.2,0.4-1.2,1.1
		c0,0.6,0.3,0.9,1.5,1.2c1.9,0.4,2.6,1.1,2.6,2.4c0,1.5-1.2,2.5-2.8,2.5c-1.8,0-2.9-1-2.9-2.6h1.4c0,0.9,0.5,1.3,1.6,1.3
		c0.9,0,1.4-0.4,1.4-1.1c0-0.7-0.4-1-1.7-1.3c-1.7-0.4-2.5-1-2.5-2.3c0-0.7,0.2-1.3,0.7-1.7c0.5-0.5,1.1-0.7,2-0.7
		C562.5,243.9,563.1,244.2,563.6,244.6z"/>
	<path fill="#E7E1D4" d="M573.4,248v0.7h-6.1c0.1,1.5,1.1,2.4,2.5,2.4c1.1,0,1.8-0.4,2.2-1.3h1.4c-0.5,1.6-1.7,2.6-3.6,2.6
		c-1.1,0-2.1-0.4-2.8-1.2c-0.7-0.8-1.1-1.8-1.1-3c0-1.2,0.4-2.2,1.1-3c0.7-0.8,1.6-1.2,2.8-1.2C571.9,243.9,573.4,245.4,573.4,248z
		 M567.3,247.5h4.7c0-1.4-0.9-2.2-2.3-2.2C568.4,245.2,567.5,246.1,567.3,247.5z"/>
	<path fill="#E7E1D4" d="M579.2,245.4c-0.7,0-1.2,0.2-1.6,0.6c-0.5,0.4-0.7,1.1-0.7,1.9v4.3h-1.4v-8.1h1.2l0.1,1.4
		c0.3-0.8,1.1-1.5,2.4-1.5V245.4z"/>
	<path fill="#E7E1D4" d="M585,244.6c0.5,0.5,0.8,1.1,0.8,1.8h-1.4c0-0.8-0.4-1.3-1.3-1.3c-0.8,0-1.2,0.4-1.2,1.1
		c0,0.6,0.3,0.9,1.5,1.2c1.9,0.4,2.6,1.1,2.6,2.4c0,1.5-1.2,2.5-2.8,2.5c-1.8,0-2.9-1-2.9-2.6h1.4c0,0.9,0.5,1.3,1.6,1.3
		c0.9,0,1.4-0.4,1.4-1.1c0-0.7-0.4-1-1.7-1.3c-1.7-0.4-2.5-1-2.5-2.3c0-0.7,0.2-1.3,0.7-1.7c0.5-0.5,1.1-0.7,2-0.7
		C583.9,243.9,584.5,244.2,585,244.6z"/>
	<path fill="#E7E1D4" d="M589.2,244.9c0,0.6-0.4,1-1,1c-0.6,0-1-0.4-1-1c0-0.6,0.4-1,1-1C588.8,243.9,589.2,244.4,589.2,244.9z
		 M588.2,252.4c-0.6,0-1-0.4-1-1c0-0.6,0.4-1,1-1c0.6,0,1,0.4,1,1C589.2,251.9,588.8,252.4,588.2,252.4z"/>
	<path fill="#E7E1D4" d="M21.3,263.5h-1.6c-0.5-1.5-1.6-2.2-3.4-2.2c-1.2,0-2.1,0.4-2.9,1.3c-0.8,0.8-1.1,1.9-1.1,3.2
		c0,1.3,0.4,2.3,1.1,3.2s1.7,1.3,2.9,1.3c2.1,0,3.5-1.1,3.6-3.2h-3.4v-1.4h4.9v0.8c0,1.6-0.4,2.9-1.4,3.8c-0.9,0.9-2.1,1.4-3.7,1.4
		c-1.6,0-3-0.5-4-1.6s-1.6-2.5-1.6-4.2s0.5-3.1,1.6-4.2s2.4-1.6,4-1.6C18.9,260,20.7,261.3,21.3,263.5z"/>
	<path fill="#E7E1D4" d="M29.8,264.3c0.8,0.8,1.2,1.8,1.2,3c0,1.2-0.4,2.2-1.2,3c-0.8,0.8-1.7,1.2-2.9,1.2c-1.2,0-2.2-0.4-3-1.2
		c-0.8-0.8-1.1-1.8-1.1-3c0-1.2,0.4-2.2,1.1-3c0.8-0.8,1.8-1.2,3-1.2C28,263.1,29,263.5,29.8,264.3z M24.9,265.2
		c-0.5,0.5-0.7,1.2-0.7,2.1c0,0.8,0.2,1.5,0.7,2.1c0.5,0.6,1.2,0.8,2,0.8c0.8,0,1.4-0.3,1.9-0.8c0.5-0.6,0.7-1.2,0.7-2.1
		c0-0.8-0.2-1.6-0.7-2.1c-0.5-0.6-1.1-0.8-1.9-0.8C26.1,264.4,25.4,264.7,24.9,265.2z"/>
	<path fill="#E7E1D4" d="M39.3,264.3c0.8,0.8,1.2,1.8,1.2,3c0,1.2-0.4,2.2-1.2,3c-0.8,0.8-1.7,1.2-2.9,1.2c-1.2,0-2.2-0.4-3-1.2
		c-0.8-0.8-1.1-1.8-1.1-3c0-1.2,0.4-2.2,1.1-3c0.8-0.8,1.8-1.2,3-1.2C37.5,263.1,38.5,263.5,39.3,264.3z M34.4,265.2
		c-0.5,0.5-0.7,1.2-0.7,2.1c0,0.8,0.2,1.5,0.7,2.1c0.5,0.6,1.2,0.8,2,0.8c0.8,0,1.4-0.3,1.9-0.8c0.5-0.6,0.7-1.2,0.7-2.1
		c0-0.8-0.2-1.6-0.7-2.1c-0.5-0.6-1.1-0.8-1.9-0.8C35.6,264.4,34.9,264.7,34.4,265.2z"/>
	<path fill="#E7E1D4" d="M49.1,263.3v1.2h-1.4c0.3,0.4,0.4,0.9,0.4,1.5c0,0.8-0.3,1.5-0.8,2c-0.6,0.5-1.3,0.8-2.2,0.8
		c-0.7,0-1.2-0.1-1.7-0.4c-0.2,0.2-0.3,0.5-0.3,0.8c0,0.5,0.4,0.8,1,0.8h2.1c1.7,0,2.5,0.8,2.5,2.2c0,1.7-1.3,2.7-3.4,2.7
		c-2.3,0-3.5-0.9-3.5-2.5c0-0.7,0.3-1.1,0.9-1.5c-0.6-0.3-1.1-0.9-1.1-1.7c0-0.7,0.3-1.2,0.8-1.6c-0.3-0.5-0.5-1-0.5-1.7
		c0-0.8,0.3-1.5,0.8-2.1c0.6-0.5,1.3-0.8,2.3-0.8c0.4,0,0.8,0.1,1.2,0.2H49.1z M44.3,271.3c-0.7,0-1.2,0.4-1.2,1.1
		c0,0.9,0.8,1.3,2.2,1.3c1.3,0,2-0.5,2-1.4c0-0.7-0.5-1-1.5-1H44.3z M45,267.7c1,0,1.7-0.7,1.7-1.6c0-1-0.7-1.7-1.7-1.7
		c-1,0-1.7,0.7-1.7,1.7C43.3,267,44,267.7,45,267.7z"/>
	<path fill="#E7E1D4" d="M51.7,259.7v11.7h-1.4v-11.7H51.7z"/>
	<path fill="#E7E1D4" d="M61,267.2v0.7h-6.1c0.1,1.5,1.1,2.4,2.5,2.4c1.1,0,1.8-0.4,2.2-1.3H61c-0.5,1.6-1.7,2.6-3.6,2.6
		c-1.1,0-2.1-0.4-2.8-1.2c-0.7-0.8-1.1-1.8-1.1-3c0-1.2,0.4-2.2,1.1-3c0.7-0.8,1.6-1.2,2.8-1.2C59.6,263.1,61,264.6,61,267.2z
		 M54.9,266.7h4.7c0-1.4-0.9-2.2-2.3-2.2C56,264.4,55.1,265.3,54.9,266.7z"/>
	<path fill="#E7E1D4" d="M76.2,263.5h-1.6c-0.5-1.5-1.6-2.2-3.4-2.2c-1.2,0-2.1,0.4-2.9,1.3c-0.8,0.8-1.1,1.9-1.1,3.2
		c0,1.3,0.4,2.3,1.1,3.2s1.7,1.3,2.9,1.3c1.8,0,2.9-0.9,3.4-2.2h1.6c-0.6,2.3-2.4,3.6-5,3.6c-1.6,0-3-0.5-4-1.6s-1.6-2.5-1.6-4.2
		s0.5-3.1,1.6-4.2s2.4-1.6,4-1.6C73.8,260,75.6,261.3,76.2,263.5z"/>
	<path fill="#E7E1D4" d="M79.3,259.7v4.6c0.3-0.7,1.1-1.2,2.2-1.2c1.7,0,2.6,1.2,2.6,3v5.2h-1.4v-5c0-1.2-0.6-1.9-1.6-1.9
		c-1.1,0-1.9,1-1.9,2.6v4.3h-1.4v-11.7H79.3z"/>
	<path fill="#E7E1D4" d="M90.3,264.6c-0.7,0-1.2,0.2-1.6,0.6c-0.5,0.4-0.7,1.1-0.7,1.9v4.3h-1.4v-8.1h1.2l0.1,1.4
		c0.3-0.8,1.1-1.5,2.4-1.5V264.6z"/>
	<path fill="#E7E1D4" d="M98.1,264.3c0.8,0.8,1.2,1.8,1.2,3c0,1.2-0.4,2.2-1.2,3c-0.8,0.8-1.7,1.2-2.9,1.2c-1.2,0-2.2-0.4-3-1.2
		c-0.8-0.8-1.1-1.8-1.1-3c0-1.2,0.4-2.2,1.1-3c0.8-0.8,1.8-1.2,3-1.2C96.4,263.1,97.3,263.5,98.1,264.3z M93.2,265.2
		c-0.5,0.5-0.7,1.2-0.7,2.1c0,0.8,0.2,1.5,0.7,2.1c0.5,0.6,1.2,0.8,2,0.8c0.8,0,1.4-0.3,1.9-0.8c0.5-0.6,0.7-1.2,0.7-2.1
		c0-0.8-0.2-1.6-0.7-2.1c-0.5-0.6-1.1-0.8-1.9-0.8C94.4,264.4,93.7,264.7,93.2,265.2z"/>
	<path fill="#E7E1D4" d="M112,266.2v5.2h-1.4v-5c0-1.2-0.6-1.9-1.6-1.9c-1.1,0-1.8,0.9-1.9,2.5v4.4h-1.4v-5c0-1.2-0.6-1.9-1.6-1.9
		c-1.1,0-1.9,1-1.9,2.6v4.3H101v-8.1h1.2l0.1,1.1c0.4-0.8,1.2-1.3,2.2-1.3c1.2,0,1.9,0.5,2.4,1.5c0.5-1,1.3-1.5,2.4-1.5
		C111.1,263.1,112,264.3,112,266.2z"/>
	<path fill="#E7E1D4" d="M121.2,267.2v0.7h-6.1c0.1,1.5,1.1,2.4,2.5,2.4c1.1,0,1.8-0.4,2.2-1.3h1.4c-0.5,1.6-1.7,2.6-3.6,2.6
		c-1.1,0-2.1-0.4-2.8-1.2c-0.7-0.8-1.1-1.8-1.1-3c0-1.2,0.4-2.2,1.1-3c0.7-0.8,1.6-1.2,2.8-1.2C119.7,263.1,121.2,264.6,121.2,267.2
		z M115.1,266.7h4.7c0-1.4-0.9-2.2-2.3-2.2C116.2,264.4,115.2,265.3,115.1,266.7z"/>
	<path fill="#E7E1D4" d="M124.2,270.7c0,1-0.5,2-1.2,2.8l-0.4-0.2c0.3-0.5,0.5-1.1,0.6-1.8c-0.5,0-0.9-0.4-0.9-0.9
		c0-0.5,0.4-0.9,1-0.9C123.8,269.6,124.2,270,124.2,270.7z"/>
	<path fill="#E7E1D4" d="M140.8,260.2v11.2h-1.5V263l-0.3,0.8l-3.4,7.5h-1.2l-3.4-7.5l-0.3-0.8v8.3h-1.5v-11.2h1.6l3.8,8.2l0.3,0.7
		l0.3-0.7l3.9-8.2H140.8z"/>
	<path fill="#E7E1D4" d="M149.7,264.3c0.8,0.8,1.2,1.8,1.2,3c0,1.2-0.4,2.2-1.2,3c-0.8,0.8-1.7,1.2-2.9,1.2c-1.2,0-2.2-0.4-3-1.2
		c-0.8-0.8-1.1-1.8-1.1-3c0-1.2,0.4-2.2,1.1-3c0.8-0.8,1.8-1.2,3-1.2C147.9,263.1,148.9,263.5,149.7,264.3z M144.8,265.2
		c-0.5,0.5-0.7,1.2-0.7,2.1c0,0.8,0.2,1.5,0.7,2.1c0.5,0.6,1.2,0.8,2,0.8c0.8,0,1.4-0.3,1.9-0.8c0.5-0.6,0.7-1.2,0.7-2.1
		c0-0.8-0.2-1.6-0.7-2.1c-0.5-0.6-1.1-0.8-1.9-0.8C145.9,264.4,145.3,264.7,144.8,265.2z"/>
	<path fill="#E7E1D4" d="M158.1,263.3v1.1l-4.3,5.8h4.5v1.2h-6.4v-1.1l4.3-5.8H152v-1.2H158.1z"/>
	<path fill="#E7E1D4" d="M160.7,261.8c-0.5,0-0.9-0.4-0.9-0.9c0-0.5,0.4-0.9,0.9-0.9c0.5,0,1,0.4,1,0.9
		C161.6,261.3,161.2,261.8,160.7,261.8z M161.4,263.3v8.1H160v-8.1H161.4z"/>
	<path fill="#E7E1D4" d="M165.3,259.7v11.7h-1.4v-11.7H165.3z"/>
	<path fill="#E7E1D4" d="M169.2,259.7v11.7h-1.4v-11.7H169.2z"/>
	<path fill="#E7E1D4" d="M177.3,266v5.3H176l-0.1-1.1c-0.4,0.8-1.3,1.3-2.4,1.3c-1.4,0-2.4-0.9-2.4-2.3c0-1.3,0.8-2,2.3-2.3l2.5-0.5
		v-0.4c0-1.1-0.5-1.7-1.5-1.7c-0.9,0-1.6,0.5-1.6,1.5h-1.4c0-0.8,0.3-1.4,0.9-2s1.3-0.8,2.1-0.8C176.2,263.1,177.3,264.2,177.3,266z
		 M175.9,267.7l-2.2,0.5c-0.7,0.2-1.1,0.4-1.1,1.1c0,0.6,0.4,1,1.2,1c0.7,0,1.2-0.3,1.6-0.8c0.3-0.4,0.5-0.9,0.5-1.5V267.7z"/>
	<path fill="#E7E1D4" d="M188.9,260.2v1.4h-4.6v3.5h3.9v1.4h-3.9v4.9h-1.5v-11.2H188.9z"/>
	<path fill="#E7E1D4" d="M191.2,261.8c-0.5,0-0.9-0.4-0.9-0.9c0-0.5,0.4-0.9,0.9-0.9c0.5,0,1,0.4,1,0.9
		C192.2,261.3,191.7,261.8,191.2,261.8z M191.9,263.3v8.1h-1.4v-8.1H191.9z"/>
	<path fill="#E7E1D4" d="M198.2,264.6c-0.7,0-1.2,0.2-1.6,0.6c-0.5,0.4-0.7,1.1-0.7,1.9v4.3h-1.4v-8.1h1.2l0.1,1.4
		c0.3-0.8,1.1-1.5,2.4-1.5V264.6z"/>
	<path fill="#E7E1D4" d="M206.5,267.2v0.7h-6.1c0.1,1.5,1.1,2.4,2.5,2.4c1.1,0,1.8-0.4,2.2-1.3h1.4c-0.5,1.6-1.7,2.6-3.6,2.6
		c-1.1,0-2.1-0.4-2.8-1.2c-0.7-0.8-1.1-1.8-1.1-3c0-1.2,0.4-2.2,1.1-3c0.7-0.8,1.6-1.2,2.8-1.2C205.1,263.1,206.5,264.6,206.5,267.2
		z M200.4,266.7h4.7c0-1.4-0.9-2.2-2.3-2.2C201.5,264.4,200.6,265.3,200.4,266.7z"/>
	<path fill="#E7E1D4" d="M212.5,259.7v1.2c-0.3-0.1-0.6-0.2-1-0.2c-0.8,0-1.1,0.4-1.1,1.3v1.2h2v1.3h-2v6.8H209v-6.8h-1.5v-1.3h1.5
		v-1.2c0-1.6,0.9-2.5,2.4-2.5C211.8,259.5,212.2,259.6,212.5,259.7z"/>
	<path fill="#E7E1D4" d="M220.2,264.3c0.8,0.8,1.2,1.8,1.2,3c0,1.2-0.4,2.2-1.2,3c-0.8,0.8-1.7,1.2-2.9,1.2c-1.2,0-2.2-0.4-3-1.2
		c-0.8-0.8-1.1-1.8-1.1-3c0-1.2,0.4-2.2,1.1-3c0.8-0.8,1.8-1.2,3-1.2C218.4,263.1,219.4,263.5,220.2,264.3z M215.3,265.2
		c-0.5,0.5-0.7,1.2-0.7,2.1c0,0.8,0.2,1.5,0.7,2.1c0.5,0.6,1.2,0.8,2,0.8c0.8,0,1.4-0.3,1.9-0.8c0.5-0.6,0.7-1.2,0.7-2.1
		c0-0.8-0.2-1.6-0.7-2.1c-0.5-0.6-1.1-0.8-1.9-0.8C216.5,264.4,215.8,264.7,215.3,265.2z"/>
	<path fill="#E7E1D4" d="M229.2,263.3l-2.6,3.9l2.8,4.2h-1.6l-2.1-3.1l-2.1,3.1h-1.6l2.8-4.2l-2.6-3.9h1.6l1.9,2.8l1.9-2.8H229.2z"
		/>
	<path fill="#E7E1D4" d="M240.6,264.3c0.8,0.8,1.2,1.8,1.2,3c0,1.2-0.4,2.2-1.2,3c-0.8,0.8-1.7,1.2-2.9,1.2c-1.2,0-2.2-0.4-3-1.2
		c-0.8-0.8-1.1-1.8-1.1-3c0-1.2,0.4-2.2,1.1-3c0.8-0.8,1.8-1.2,3-1.2C238.9,263.1,239.9,263.5,240.6,264.3z M235.8,265.2
		c-0.5,0.5-0.7,1.2-0.7,2.1c0,0.8,0.2,1.5,0.7,2.1c0.5,0.6,1.2,0.8,2,0.8c0.8,0,1.4-0.3,1.9-0.8c0.5-0.6,0.7-1.2,0.7-2.1
		c0-0.8-0.2-1.6-0.7-2.1c-0.5-0.6-1.1-0.8-1.9-0.8C236.9,264.4,236.3,264.7,235.8,265.2z"/>
	<path fill="#E7E1D4" d="M247.4,264.6c-0.7,0-1.2,0.2-1.6,0.6c-0.5,0.4-0.7,1.1-0.7,1.9v4.3h-1.4v-8.1h1.2l0.1,1.4
		c0.3-0.8,1.1-1.5,2.4-1.5V264.6z"/>
	<path fill="#E7E1D4" d="M257.4,260.2l4.5,11.2h-1.6l-1.2-3h-4.9l-1.2,3h-1.6l4.5-11.2H257.4z M256.6,262l-0.2,0.6l-1.8,4.4h4
		l-1.8-4.4L256.6,262z"/>
	<path fill="#E7E1D4" d="M270.3,264.3c0.7,0.8,1,1.8,1,3c0,1.2-0.4,2.2-1.1,3c-0.7,0.8-1.6,1.2-2.7,1.2c-1.3,0-2.2-0.5-2.7-1.3v4.5
		h-1.4v-11.5h1.2l0.1,1.2c0.6-0.9,1.6-1.4,2.8-1.4C268.7,263.1,269.6,263.5,270.3,264.3z M265.6,265.2c-0.5,0.5-0.7,1.2-0.7,2v0.1
		c0,0.9,0.2,1.6,0.7,2.1s1.1,0.8,1.8,0.8c0.8,0,1.4-0.3,1.8-0.8c0.5-0.5,0.7-1.2,0.7-2.1c0-1.7-1-2.9-2.5-2.9
		C266.7,264.4,266.1,264.7,265.6,265.2z"/>
	<path fill="#E7E1D4" d="M280,264.3c0.7,0.8,1,1.8,1,3c0,1.2-0.4,2.2-1.1,3c-0.7,0.8-1.6,1.2-2.7,1.2c-1.3,0-2.2-0.5-2.7-1.3v4.5
		h-1.4v-11.5h1.2l0.1,1.2c0.6-0.9,1.6-1.4,2.8-1.4C278.4,263.1,279.4,263.5,280,264.3z M275.3,265.2c-0.5,0.5-0.7,1.2-0.7,2v0.1
		c0,0.9,0.2,1.6,0.7,2.1s1.1,0.8,1.8,0.8c0.8,0,1.4-0.3,1.8-0.8c0.5-0.5,0.7-1.2,0.7-2.1c0-1.7-1-2.9-2.5-2.9
		C276.4,264.4,275.8,264.7,275.3,265.2z"/>
	<path fill="#E7E1D4" d="M284.3,259.7v11.7h-1.4v-11.7H284.3z"/>
	<path fill="#E7E1D4" d="M293.7,267.2v0.7h-6.1c0.1,1.5,1.1,2.4,2.5,2.4c1.1,0,1.8-0.4,2.2-1.3h1.4c-0.5,1.6-1.7,2.6-3.6,2.6
		c-1.1,0-2.1-0.4-2.8-1.2c-0.7-0.8-1.1-1.8-1.1-3c0-1.2,0.4-2.2,1.1-3c0.7-0.8,1.6-1.2,2.8-1.2C292.2,263.1,293.7,264.6,293.7,267.2
		z M287.6,266.7h4.7c0-1.4-0.9-2.2-2.3-2.2C288.6,264.4,287.7,265.3,287.6,266.7z"/>
	<path fill="#E7E1D4" d="M305.2,263.1h-1.5c0-1.2-0.8-1.9-1.8-1.9c-1.1,0-1.7,0.6-1.7,1.7c0,0.5,0.2,0.9,0.5,1.2
		c0.3,0.3,0.9,0.6,1.8,0.9c1.2,0.4,2,0.9,2.4,1.4c0.5,0.5,0.7,1.1,0.7,1.9c0,2-1.4,3.2-3.5,3.2c-2.3,0-3.7-1.4-3.7-3.5h1.5
		c0,1.4,0.8,2.2,2.3,2.2c1.3,0,2-0.8,2-1.9c0-0.9-0.6-1.5-2.4-2.1c-1-0.4-1.8-0.8-2.3-1.3c-0.5-0.5-0.7-1.2-0.7-2
		c0-0.9,0.3-1.6,0.8-2.2c0.6-0.6,1.4-0.9,2.4-0.9C303.9,260,305.1,261.1,305.2,263.1z"/>
	<path fill="#E7E1D4" d="M313,266v5.3h-1.2l-0.1-1.1c-0.4,0.8-1.3,1.3-2.4,1.3c-1.4,0-2.4-0.9-2.4-2.3c0-1.3,0.8-2,2.3-2.3l2.5-0.5
		v-0.4c0-1.1-0.5-1.7-1.5-1.7c-0.9,0-1.6,0.5-1.6,1.5h-1.4c0-0.8,0.3-1.4,0.9-2c0.6-0.5,1.3-0.8,2.1-0.8
		C311.9,263.1,313,264.2,313,266z M311.6,267.7l-2.2,0.5c-0.7,0.2-1.1,0.4-1.1,1.1c0,0.6,0.4,1,1.2,1c0.7,0,1.2-0.3,1.6-0.8
		c0.3-0.4,0.5-0.9,0.5-1.5V267.7z"/>
	<path fill="#E7E1D4" d="M319.2,259.7v1.2c-0.3-0.1-0.6-0.2-1-0.2c-0.8,0-1.1,0.4-1.1,1.3v1.2h2v1.3h-2v6.8h-1.4v-6.8h-1.5v-1.3h1.5
		v-1.2c0-1.6,0.9-2.5,2.4-2.5C318.6,259.5,318.9,259.6,319.2,259.7z"/>
	<path fill="#E7E1D4" d="M326.2,266v5.3H325l-0.1-1.1c-0.4,0.8-1.3,1.3-2.4,1.3c-1.4,0-2.4-0.9-2.4-2.3c0-1.3,0.8-2,2.3-2.3l2.5-0.5
		v-0.4c0-1.1-0.5-1.7-1.5-1.7c-0.9,0-1.6,0.5-1.6,1.5h-1.4c0-0.8,0.3-1.4,0.9-2c0.6-0.5,1.3-0.8,2.1-0.8
		C325.1,263.1,326.2,264.2,326.2,266z M324.8,267.7l-2.2,0.5c-0.7,0.2-1.1,0.4-1.1,1.1c0,0.6,0.4,1,1.2,1c0.7,0,1.2-0.3,1.6-0.8
		c0.3-0.4,0.5-0.9,0.5-1.5V267.7z"/>
	<path fill="#E7E1D4" d="M332.3,264.6c-0.7,0-1.2,0.2-1.6,0.6c-0.5,0.4-0.7,1.1-0.7,1.9v4.3h-1.4v-8.1h1.2l0.1,1.4
		c0.3-0.8,1.1-1.5,2.4-1.5V264.6z"/>
	<path fill="#E7E1D4" d="M334.7,261.8c-0.5,0-0.9-0.4-0.9-0.9c0-0.5,0.4-0.9,0.9-0.9s1,0.4,1,0.9
		C335.6,261.3,335.2,261.8,334.7,261.8z M335.3,263.3v8.1H334v-8.1H335.3z"/>
	<path fill="#E7E1D4" d="M338.2,271.6c-0.6,0-1-0.4-1-1c0-0.6,0.4-1,1-1c0.6,0,1,0.4,1,1C339.2,271.1,338.8,271.6,338.2,271.6z"/>
	<path fill="#E7E1D4" d="M350.6,263.1h-1.5c0-1.2-0.8-1.9-1.8-1.9c-1.1,0-1.7,0.6-1.7,1.7c0,0.5,0.2,0.9,0.5,1.2
		c0.3,0.3,0.9,0.6,1.8,0.9c1.2,0.4,2,0.9,2.4,1.4c0.5,0.5,0.7,1.1,0.7,1.9c0,2-1.4,3.2-3.5,3.2c-2.3,0-3.7-1.4-3.7-3.5h1.5
		c0,1.4,0.8,2.2,2.3,2.2c1.3,0,2-0.8,2-1.9c0-0.9-0.6-1.5-2.4-2.1c-1-0.4-1.8-0.8-2.3-1.3c-0.5-0.5-0.7-1.2-0.7-2
		c0-0.9,0.3-1.6,0.8-2.2c0.6-0.6,1.4-0.9,2.4-0.9C349.3,260,350.6,261.1,350.6,263.1z"/>
	<path fill="#E7E1D4" d="M359.2,264.3c0.8,0.8,1.2,1.8,1.2,3c0,1.2-0.4,2.2-1.2,3c-0.8,0.8-1.7,1.2-2.9,1.2c-1.2,0-2.2-0.4-3-1.2
		c-0.8-0.8-1.1-1.8-1.1-3c0-1.2,0.4-2.2,1.1-3c0.8-0.8,1.8-1.2,3-1.2C357.4,263.1,358.4,263.5,359.2,264.3z M354.3,265.2
		c-0.5,0.5-0.7,1.2-0.7,2.1c0,0.8,0.2,1.5,0.7,2.1c0.5,0.6,1.2,0.8,2,0.8c0.8,0,1.4-0.3,1.9-0.8c0.5-0.6,0.7-1.2,0.7-2.1
		c0-0.8-0.2-1.6-0.7-2.1c-0.5-0.6-1.1-0.8-1.9-0.8C355.5,264.4,354.8,264.7,354.3,265.2z"/>
	<path fill="#E7E1D4" d="M366,264.6c-0.7,0-1.2,0.2-1.6,0.6c-0.5,0.4-0.7,1.1-0.7,1.9v4.3h-1.4v-8.1h1.2l0.1,1.4
		c0.3-0.8,1.1-1.5,2.4-1.5V264.6z"/>
	<path fill="#E7E1D4" d="M371.4,264.6c-0.7,0-1.2,0.2-1.6,0.6c-0.5,0.4-0.7,1.1-0.7,1.9v4.3h-1.4v-8.1h1.2l0.1,1.4
		c0.3-0.8,1.1-1.5,2.4-1.5V264.6z"/>
	<path fill="#E7E1D4" d="M379.7,263.3l-4.4,11.5h-1.5l1.3-3.6l-3-8h1.5l2.1,5.8l0.2,0.6l0.2-0.6l2.1-5.8H379.7z"/>
	<path fill="#E7E1D4" d="M388.4,259.7v1.2c-0.3-0.1-0.6-0.2-1-0.2c-0.8,0-1.1,0.4-1.1,1.3v1.2h2v1.3h-2v6.8h-1.4v-6.8h-1.5v-1.3h1.5
		v-1.2c0-1.6,0.9-2.5,2.4-2.5C387.8,259.5,388.1,259.6,388.4,259.7z"/>
	<path fill="#E7E1D4" d="M396.1,264.3c0.8,0.8,1.2,1.8,1.2,3c0,1.2-0.4,2.2-1.2,3c-0.8,0.8-1.7,1.2-2.9,1.2c-1.2,0-2.2-0.4-3-1.2
		c-0.8-0.8-1.1-1.8-1.1-3c0-1.2,0.4-2.2,1.1-3c0.8-0.8,1.8-1.2,3-1.2C394.4,263.1,395.4,263.5,396.1,264.3z M391.3,265.2
		c-0.5,0.5-0.7,1.2-0.7,2.1c0,0.8,0.2,1.5,0.7,2.1c0.5,0.6,1.2,0.8,2,0.8c0.8,0,1.4-0.3,1.9-0.8c0.5-0.6,0.7-1.2,0.7-2.1
		c0-0.8-0.2-1.6-0.7-2.1c-0.5-0.6-1.1-0.8-1.9-0.8C392.4,264.4,391.8,264.7,391.3,265.2z"/>
	<path fill="#E7E1D4" d="M402.9,264.6c-0.7,0-1.2,0.2-1.6,0.6c-0.5,0.4-0.7,1.1-0.7,1.9v4.3h-1.4v-8.1h1.2l0.1,1.4
		c0.3-0.8,1.1-1.5,2.4-1.5V264.6z"/>
	<path fill="#E7E1D4" d="M409.7,261.3l0,2h2.1v1.3h-2.1l0,4.3c0,0.9,0.3,1.3,1.2,1.3c0.4,0,0.7,0,1-0.1v1.2
		c-0.3,0.1-0.7,0.2-1.2,0.2c-1.6,0-2.3-0.7-2.3-2.3l0-4.6h-1.5v-1.3h1.5l0-2H409.7z"/>
	<path fill="#E7E1D4" d="M414.8,259.7v4.6c0.3-0.7,1.1-1.2,2.2-1.2c1.7,0,2.6,1.2,2.6,3v5.2h-1.4v-5c0-1.2-0.6-1.9-1.6-1.9
		c-1.1,0-1.9,1-1.9,2.6v4.3h-1.4v-11.7H414.8z"/>
	<path fill="#E7E1D4" d="M428.8,267.2v0.7h-6.1c0.1,1.5,1.1,2.4,2.5,2.4c1.1,0,1.8-0.4,2.2-1.3h1.4c-0.5,1.6-1.7,2.6-3.6,2.6
		c-1.1,0-2.1-0.4-2.8-1.2c-0.7-0.8-1.1-1.8-1.1-3c0-1.2,0.4-2.2,1.1-3c0.7-0.8,1.6-1.2,2.8-1.2C427.4,263.1,428.8,264.6,428.8,267.2
		z M422.7,266.7h4.7c0-1.4-0.9-2.2-2.3-2.2C423.8,264.4,422.9,265.3,422.7,266.7z"/>
	<path fill="#E7E1D4" d="M434.8,261.8c-0.5,0-0.9-0.4-0.9-0.9c0-0.5,0.4-0.9,0.9-0.9s1,0.4,1,0.9
		C435.8,261.3,435.3,261.8,434.8,261.8z M435.5,263.3v8.1h-1.4v-8.1H435.5z"/>
	<path fill="#E7E1D4" d="M444.2,266.2v5.2h-1.4v-5c0-1.2-0.6-1.9-1.6-1.9c-1.1,0-1.9,1-1.9,2.6v4.3H438v-8.1h1.2l0.1,1.1
		c0.4-0.8,1.2-1.3,2.3-1.3C443.2,263.1,444.2,264.3,444.2,266.2z"/>
	<path fill="#E7E1D4" d="M453.3,265.8H452c-0.3-0.9-1.2-1.4-2.2-1.4c-0.7,0-1.3,0.3-1.8,0.8c-0.5,0.6-0.7,1.3-0.7,2.1
		c0,0.8,0.2,1.5,0.7,2.1c0.5,0.6,1.1,0.8,1.8,0.8c1,0,1.9-0.6,2.2-1.4h1.4c-0.4,1.7-1.8,2.7-3.6,2.7c-1.1,0-2.1-0.4-2.8-1.2
		c-0.7-0.8-1.1-1.8-1.1-3s0.4-2.2,1.1-3c0.8-0.8,1.7-1.2,2.8-1.2C451.6,263.1,453,264.1,453.3,265.8z"/>
	<path fill="#E7E1D4" d="M461.6,264.3c0.8,0.8,1.2,1.8,1.2,3c0,1.2-0.4,2.2-1.2,3c-0.8,0.8-1.7,1.2-2.9,1.2c-1.2,0-2.2-0.4-3-1.2
		c-0.8-0.8-1.1-1.8-1.1-3c0-1.2,0.4-2.2,1.1-3c0.8-0.8,1.8-1.2,3-1.2C459.8,263.1,460.8,263.5,461.6,264.3z M456.7,265.2
		c-0.5,0.5-0.7,1.2-0.7,2.1c0,0.8,0.2,1.5,0.7,2.1c0.5,0.6,1.2,0.8,2,0.8c0.8,0,1.4-0.3,1.9-0.8c0.5-0.6,0.7-1.2,0.7-2.1
		c0-0.8-0.2-1.6-0.7-2.1c-0.5-0.6-1.1-0.8-1.9-0.8C457.8,264.4,457.2,264.7,456.7,265.2z"/>
	<path fill="#E7E1D4" d="M470.7,266.2v5.2h-1.4v-5c0-1.2-0.6-1.9-1.6-1.9c-1.1,0-1.9,1-1.9,2.6v4.3h-1.4v-8.1h1.2l0.1,1.1
		c0.4-0.8,1.2-1.3,2.3-1.3C469.8,263.1,470.7,264.3,470.7,266.2z"/>
	<path fill="#E7E1D4" d="M479.6,263.3l-3.1,8.1h-1.4l-3.1-8.1h1.5l2.1,5.8l0.2,0.6l0.2-0.6l2.1-5.8H479.6z"/>
	<path fill="#E7E1D4" d="M487.8,267.2v0.7h-6.1c0.1,1.5,1.1,2.4,2.5,2.4c1.1,0,1.8-0.4,2.2-1.3h1.4c-0.5,1.6-1.7,2.6-3.6,2.6
		c-1.1,0-2.1-0.4-2.8-1.2c-0.7-0.8-1.1-1.8-1.1-3c0-1.2,0.4-2.2,1.1-3c0.7-0.8,1.6-1.2,2.8-1.2C486.3,263.1,487.8,264.6,487.8,267.2
		z M481.7,266.7h4.7c0-1.4-0.9-2.2-2.3-2.2C482.8,264.4,481.8,265.3,481.7,266.7z"/>
	<path fill="#E7E1D4" d="M495.9,266.2v5.2h-1.4v-5c0-1.2-0.6-1.9-1.6-1.9c-1.1,0-1.9,1-1.9,2.6v4.3h-1.4v-8.1h1.2l0.1,1.1
		c0.4-0.8,1.2-1.3,2.3-1.3C495,263.1,495.9,264.3,495.9,266.2z"/>
	<path fill="#E7E1D4" d="M499,261.8c-0.5,0-0.9-0.4-0.9-0.9c0-0.5,0.4-0.9,0.9-0.9s1,0.4,1,0.9C499.9,261.3,499.5,261.8,499,261.8z
		 M499.7,263.3v8.1h-1.4v-8.1H499.7z"/>
	<path fill="#E7E1D4" d="M509,267.2v0.7h-6.1c0.1,1.5,1.1,2.4,2.5,2.4c1.1,0,1.8-0.4,2.2-1.3h1.4c-0.5,1.6-1.7,2.6-3.6,2.6
		c-1.1,0-2.1-0.4-2.8-1.2c-0.7-0.8-1.1-1.8-1.1-3c0-1.2,0.4-2.2,1.1-3c0.7-0.8,1.6-1.2,2.8-1.2C507.6,263.1,509,264.6,509,267.2z
		 M502.9,266.7h4.7c0-1.4-0.9-2.2-2.3-2.2C504,264.4,503.1,265.3,502.9,266.7z"/>
	<path fill="#E7E1D4" d="M517.2,266.2v5.2h-1.4v-5c0-1.2-0.6-1.9-1.6-1.9c-1.1,0-1.9,1-1.9,2.6v4.3H511v-8.1h1.2l0.1,1.1
		c0.4-0.8,1.2-1.3,2.3-1.3C516.3,263.1,517.2,264.3,517.2,266.2z"/>
	<path fill="#E7E1D4" d="M526.4,265.8H525c-0.3-0.9-1.2-1.4-2.2-1.4c-0.7,0-1.3,0.3-1.8,0.8c-0.5,0.6-0.7,1.3-0.7,2.1
		c0,0.8,0.2,1.5,0.7,2.1c0.5,0.6,1.1,0.8,1.8,0.8c1,0,1.9-0.6,2.2-1.4h1.4c-0.4,1.7-1.8,2.7-3.6,2.7c-1.1,0-2.1-0.4-2.8-1.2
		c-0.7-0.8-1.1-1.8-1.1-3s0.4-2.2,1.1-3c0.8-0.8,1.7-1.2,2.8-1.2C524.6,263.1,526,264.1,526.4,265.8z"/>
	<path fill="#E7E1D4" d="M535.1,267.2v0.7H529c0.1,1.5,1.1,2.4,2.5,2.4c1.1,0,1.8-0.4,2.2-1.3h1.4c-0.5,1.6-1.7,2.6-3.6,2.6
		c-1.1,0-2.1-0.4-2.8-1.2c-0.7-0.8-1.1-1.8-1.1-3c0-1.2,0.4-2.2,1.1-3c0.7-0.8,1.6-1.2,2.8-1.2C533.6,263.1,535.1,264.6,535.1,267.2
		z M529,266.7h4.7c0-1.4-0.9-2.2-2.3-2.2C530.1,264.4,529.2,265.3,529,266.7z"/>
	<path fill="#E7E1D4" d="M537.2,271.6c-0.6,0-1-0.4-1-1c0-0.6,0.4-1,1-1c0.6,0,1,0.4,1,1C538.2,271.1,537.7,271.6,537.2,271.6z"/>
</g>
</svg>
