<svg version="1.1" id="Layer_2" xmlns="http://www.w3.org/2000/svg" xmlns:xlink="http://www.w3.org/1999/xlink" x="0px" y="0px"
	 viewBox="0 0 800 800" enable-background="new 0 0 800 800" xml:space="preserve">
<g>
	<path fill="#E7E1D4" d="M359.9,257.1v20.4c0,9-4.7,13.8-13,13.8c-8.2,0-12.9-4.8-12.9-13.8v-20.4h3.2v20.4c0,7.2,3.3,10.8,9.7,10.8
		s9.7-3.6,9.7-10.8v-20.4H359.9z"/>
	<path fill="#E7E1D4" d="M370.2,255.6v14.4c0.8-2.1,3.6-4,6.8-4c5,0,7.9,3.6,7.9,9.1v15.6h-3v-15.3c0-4.2-2-6.4-5.3-6.4
		c-3.7,0-6.3,3.3-6.3,8.3v13.4h-3v-35H370.2z"/>
	<path fill="#E7E1D4" d="M404.7,276.8v2.7h-15.1v-2.7H404.7z"/>
	<path fill="#E7E1D4" d="M419.7,266c3.6,0,6.4,1.2,8.6,3.6s3.3,5.4,3.3,9c0,3.6-1.1,6.7-3.3,9c-2.2,2.4-5.1,3.6-8.6,3.6
		c-3.6,0-6.4-1.2-8.7-3.6c-2.2-2.4-3.3-5.4-3.3-9c0-3.6,1.1-6.7,3.3-9C413.2,267.2,416.1,266,419.7,266z M413.2,271.6
		c-1.6,1.8-2.4,4.1-2.4,7c0,2.8,0.8,5.1,2.4,7c1.7,1.8,3.8,2.7,6.5,2.7c2.6,0,4.8-0.9,6.4-2.7c1.6-1.9,2.4-4.2,2.4-7
		c0-2.8-0.8-5.1-2.4-7c-1.6-1.9-3.7-2.8-6.4-2.8C417,268.9,414.9,269.8,413.2,271.6z"/>
	<path fill="#E7E1D4" d="M440.3,255.6v14.4c0.8-2.1,3.6-4,6.8-4c5,0,7.9,3.6,7.9,9.1v15.6h-3v-15.3c0-4.2-2-6.4-5.3-6.4
		c-3.7,0-6.3,3.3-6.3,8.3v13.4h-3v-35H440.3z"/>
	<path fill="#E7E1D4" d="M464,291.2c-1.5,0-2.6-1.1-2.6-2.5s1.1-2.6,2.6-2.6s2.6,1.1,2.6,2.6C466.6,290,465.5,291.2,464,291.2z
		 M465.5,257.1v24.3h-3v-24.3H465.5z"/>
	<path fill="#E7E1D4" d="M222.5,314.7v33.6h-3.2v-33.6H222.5z"/>
	<path fill="#E7E1D4" d="M248,332.7v15.6h-3V333c0-4.2-2-6.4-5.3-6.4c-3.7,0-6.3,3.3-6.3,8.3v13.4h-3v-24.1h2.8l0.1,3.6
		c1-2.3,3.6-4.2,6.9-4.2C245.2,323.6,248,327.3,248,332.7z"/>
	<path fill="#E7E1D4" d="M259.6,318l0,6.1h6.5v2.8h-6.6l-0.1,14.6c0,2.9,0.8,4.2,3.6,4.2c1,0,2.1-0.1,3.1-0.5v2.7
		c-0.8,0.3-2,0.5-3.4,0.5c-4.2,0-6.3-2-6.2-6.6l0.1-15h-4.8v-2.8h4.8l0-6.1H259.6z"/>
	<path fill="#E7E1D4" d="M291.5,335.7v1.7h-19.2c0.2,5.2,3.7,8.6,8.4,8.6c3.8,0,6.2-1.5,7.4-4.5h3.1c-1.5,4.7-5.2,7.3-10.6,7.3
		c-3.3,0-6-1.2-8.2-3.5c-2.1-2.3-3.2-5.3-3.2-9.1c0-3.7,1-6.7,3.1-9.1c2.1-2.4,4.8-3.6,8.2-3.6C287.2,323.6,291.5,328,291.5,335.7z
		 M272.4,334.6h16.1c0-5-3.1-8.2-7.9-8.2C276,326.5,272.8,329.8,272.4,334.6z"/>
	<path fill="#E7E1D4" d="M308.4,326.9c-2,0-3.6,0.7-4.9,2c-1.5,1.5-2.3,3.6-2.3,6.3v13.1h-3v-24.1h2.8l0.1,4.4
		c1-2.5,3.5-4.6,7.3-4.6V326.9z"/>
	<path fill="#E7E1D4" d="M331.1,332.7v15.6h-3V333c0-4.2-2-6.4-5.3-6.4c-3.7,0-6.3,3.3-6.3,8.3v13.4h-3v-24.1h2.8l0.1,3.6
		c1-2.3,3.6-4.2,6.9-4.2C328.2,323.6,331.1,327.3,331.1,332.7z"/>
	<path fill="#E7E1D4" d="M358.5,335.7v1.7h-19.2c0.2,5.2,3.7,8.6,8.4,8.6c3.8,0,6.2-1.5,7.4-4.5h3.1c-1.5,4.7-5.2,7.3-10.6,7.3
		c-3.3,0-6-1.2-8.2-3.5c-2.1-2.3-3.2-5.3-3.2-9.1c0-3.7,1-6.7,3.1-9.1c2.1-2.4,4.8-3.6,8.2-3.6C354.1,323.6,358.5,328,358.5,335.7z
		 M339.4,334.6h16.1c0-5-3.1-8.2-7.9-8.2C343,326.5,339.7,329.8,339.4,334.6z"/>
	<path fill="#E7E1D4" d="M369.1,318l0,6.1h6.5v2.8H369l-0.1,14.6c0,2.9,0.8,4.2,3.6,4.2c1,0,2.1-0.1,3.1-0.5v2.7
		c-0.8,0.3-2,0.5-3.4,0.5c-4.2,0-6.3-2-6.2-6.6l0.1-15h-4.8v-2.8h4.8l0-6.1H369.1z"/>
	<path fill="#E7E1D4" d="M409.1,314.7v3h-14.9v11.8h13.2v3h-13.2v12.9h14.9v3h-18v-33.6H409.1z"/>
	<path fill="#E7E1D4" d="M433.4,324.2l-8.1,11.6l8.8,12.5h-3.6l-7.1-10l-7.1,10h-3.6l8.7-12.5l-8.1-11.6h3.6l6.4,9.2l6.5-9.2H433.4z
		"/>
	<path fill="#E7E1D4" d="M459.3,327.2c2.1,2.4,3.1,5.4,3.1,9c0,3.6-1,6.7-3.1,9c-2.1,2.4-4.8,3.6-8.2,3.6c-4.1,0-7.2-2.1-8.4-4.6
		v14.4h-3.1v-34.4h2.9l0,4.1c1.4-2.4,4.6-4.7,8.6-4.7C454.6,323.6,457.3,324.8,459.3,327.2z M445,329c-1.6,1.6-2.4,3.8-2.4,6.6v1
		c0,2.8,0.8,5.1,2.4,6.8c1.6,1.7,3.6,2.5,5.8,2.5c2.5,0,4.6-0.9,6.1-2.7c1.6-1.8,2.4-4.1,2.4-7c0-2.8-0.8-5.2-2.3-7
		c-1.5-1.8-3.6-2.7-6.1-2.7C448.6,326.5,446.6,327.3,445,329z"/>
	<path fill="#E7E1D4" d="M471.2,313.2v35h-3v-35H471.2z"/>
	<path fill="#E7E1D4" d="M489,323.6c3.6,0,6.4,1.2,8.6,3.6s3.3,5.4,3.3,9c0,3.6-1.1,6.7-3.3,9c-2.2,2.4-5.1,3.6-8.6,3.6
		c-3.6,0-6.4-1.2-8.7-3.6c-2.2-2.4-3.3-5.4-3.3-9c0-3.6,1.1-6.7,3.3-9C482.5,324.8,485.4,323.6,489,323.6z M482.5,329.2
		c-1.6,1.8-2.4,4.1-2.4,7c0,2.8,0.8,5.1,2.4,7c1.7,1.8,3.8,2.7,6.5,2.7c2.6,0,4.8-0.9,6.4-2.7c1.6-1.9,2.4-4.2,2.4-7
		c0-2.8-0.8-5.1-2.4-7c-1.6-1.9-3.7-2.8-6.4-2.8C486.3,326.5,484.2,327.4,482.5,329.2z"/>
	<path fill="#E7E1D4" d="M517.1,326.9c-2,0-3.6,0.7-4.9,2c-1.5,1.5-2.3,3.6-2.3,6.3v13.1h-3v-24.1h2.8l0.1,4.4
		c1-2.5,3.5-4.6,7.3-4.6V326.9z"/>
	<path fill="#E7E1D4" d="M541.8,335.7v1.7h-19.2c0.2,5.2,3.7,8.6,8.4,8.6c3.8,0,6.2-1.5,7.4-4.5h3.1c-1.5,4.7-5.2,7.3-10.6,7.3
		c-3.3,0-6-1.2-8.2-3.5c-2.1-2.3-3.2-5.3-3.2-9.1c0-3.7,1-6.7,3.1-9.1s4.8-3.6,8.2-3.6C537.4,323.6,541.8,328,541.8,335.7z
		 M522.6,334.6h16.1c0-5-3.1-8.2-7.9-8.2C526.2,326.5,523,329.8,522.6,334.6z"/>
	<path fill="#E7E1D4" d="M558.6,326.9c-2,0-3.6,0.7-4.9,2c-1.5,1.5-2.3,3.6-2.3,6.3v13.1h-3v-24.1h2.8l0.1,4.4
		c1-2.5,3.5-4.6,7.3-4.6V326.9z"/>
	<path fill="#E7E1D4" d="M561.7,348.8c-2.3,0-3.5-2.8-1.9-4.4c1.5-1.7,4.6-0.4,4.4,1.8C564.2,347.6,563.1,348.8,561.7,348.8z"/>
	<path fill="#E7E1D4" d="M570.9,348.8c-2.3,0-3.5-2.8-1.9-4.4c1.5-1.7,4.6-0.4,4.4,1.8C573.4,347.6,572.2,348.8,570.9,348.8z"/>
	<path fill="#E7E1D4" d="M580,348.8c-2.3,0-3.5-2.8-1.9-4.4c1.5-1.7,4.6-0.4,4.4,1.8C582.6,347.6,581.4,348.8,580,348.8z"/>
</g>
<g>
	<path fill="#E7E1D4" d="M210.7,388c-1.1,0-1.7-1.4-0.9-2.2c0.8-0.8,2.3-0.2,2.2,0.9C212,387.5,211.4,388,210.7,388z"/>
	<path fill="#E7E1D4" d="M215.3,388c-1.1,0-1.7-1.4-0.9-2.2c0.8-0.8,2.3-0.2,2.2,0.9C216.6,387.5,216,388,215.3,388z"/>
	<path fill="#E7E1D4" d="M219.9,388c-1.1,0-1.7-1.4-0.9-2.2c0.8-0.8,2.3-0.2,2.2,0.9C221.2,387.5,220.6,388,219.9,388z"/>
	<path fill="#E7E1D4" d="M234.5,370.3v17.5h-1.4l0-2c-0.7,1.2-2.3,2.3-4.3,2.3c-1.7,0-3.1-0.6-4.1-1.8c-1-1.2-1.5-2.7-1.5-4.5
		s0.5-3.3,1.5-4.5c1-1.2,2.4-1.8,4.1-1.8c2,0,3.6,1,4.2,2.3v-7.5H234.5z M225.8,378.3c-0.8,0.9-1.2,2.1-1.2,3.5s0.4,2.6,1.2,3.5
		s1.8,1.4,3.1,1.4c1.1,0,2.1-0.4,2.9-1.2c0.8-0.8,1.2-1.9,1.2-3.3v-0.5c0-1.4-0.4-2.6-1.2-3.4c-0.8-0.8-1.8-1.3-2.9-1.3
		C227.6,376.9,226.6,377.4,225.8,378.3z"/>
	<path fill="#E7E1D4" d="M243.3,375.5c1.8,0,3.2,0.6,4.3,1.8c1.1,1.2,1.7,2.7,1.7,4.5s-0.6,3.3-1.7,4.5s-2.5,1.8-4.3,1.8
		c-1.8,0-3.2-0.6-4.3-1.8c-1.1-1.2-1.7-2.7-1.7-4.5s0.6-3.3,1.7-4.5C240,376.1,241.5,375.5,243.3,375.5z M240,378.3
		c-0.8,0.9-1.2,2.1-1.2,3.5s0.4,2.6,1.2,3.5c0.8,0.9,1.9,1.4,3.3,1.4c1.3,0,2.4-0.5,3.2-1.4c0.8-0.9,1.2-2.1,1.2-3.5
		s-0.4-2.6-1.2-3.5c-0.8-0.9-1.9-1.4-3.2-1.4C241.9,376.9,240.9,377.3,240,378.3z"/>
	<path fill="#E7E1D4" d="M262.5,381.5v0.8h-9.6c0.1,2.6,1.8,4.3,4.2,4.3c1.9,0,3.1-0.7,3.7-2.3h1.6c-0.7,2.3-2.6,3.7-5.3,3.7
		c-1.7,0-3-0.6-4.1-1.7c-1.1-1.2-1.6-2.7-1.6-4.5c0-1.8,0.5-3.4,1.5-4.5c1-1.2,2.4-1.8,4.1-1.8C260.3,375.5,262.5,377.7,262.5,381.5
		z M252.9,381h8c0-2.5-1.5-4.1-3.9-4.1C254.7,376.9,253.1,378.6,252.9,381z"/>
	<path fill="#E7E1D4" d="M272.7,379.1h-1.6c0-1.5-0.8-2.2-2.3-2.2c-1.4,0-2.2,0.7-2.2,1.9c0,0.6,0.2,1,0.5,1.3
		c0.4,0.3,1,0.6,2.1,0.8c2.8,0.8,3.9,1.7,3.9,3.6c0,2.2-1.7,3.6-4.1,3.6c-2.7,0-4.3-1.5-4.3-3.8h1.6c0,1.5,1,2.4,2.8,2.4
		c1.6,0,2.5-0.8,2.5-2.1c0-1.2-0.7-1.8-2.9-2.3c-2.5-0.6-3.6-1.5-3.6-3.4c0-1.9,1.4-3.4,3.8-3.4
		C271.1,375.5,272.6,376.9,272.7,379.1z"/>
	<path fill="#E7E1D4" d="M284.9,380v7.8h-1.5v-7.6c0-2.1-1-3.2-2.7-3.2c-1.8,0-3.2,1.6-3.2,4.2v6.7h-1.5v-12h1.4l0.1,1.8
		c0.5-1.1,1.8-2.1,3.5-2.1C283.5,375.5,284.9,377.3,284.9,380z"/>
	<path fill="#E7E1D4" d="M289.3,370.6l-0.4,4.8h-1l-0.1-4.8H289.3z"/>
	<path fill="#E7E1D4" d="M294.3,372.7l0,3.1h3.3v1.4h-3.3l0,7.3c0,1.5,0.4,2.1,1.8,2.1c0.5,0,1-0.1,1.5-0.2v1.4
		c-0.4,0.2-1,0.3-1.7,0.3c-2.1,0-3.1-1-3.1-3.3l0-7.5h-2.4v-1.4h2.4l0-3.1H294.3z"/>
	<path fill="#E7E1D4" d="M321.1,375.7l-3.9,12h-1.5l-3.3-9.4l-3.3,9.4h-1.5l-3.9-12h1.6l2.9,9l0.3,1l0.3-1l3-9h1.3l3,9l0.3,1l0.3-1
		l2.9-9H321.1z"/>
	<path fill="#E7E1D4" d="M328.2,375.5c1.8,0,3.2,0.6,4.3,1.8c1.1,1.2,1.7,2.7,1.7,4.5s-0.6,3.3-1.7,4.5s-2.5,1.8-4.3,1.8
		c-1.8,0-3.2-0.6-4.3-1.8c-1.1-1.2-1.7-2.7-1.7-4.5s0.6-3.3,1.7-4.5C325,376.1,326.4,375.5,328.2,375.5z M325,378.3
		c-0.8,0.9-1.2,2.1-1.2,3.5s0.4,2.6,1.2,3.5c0.8,0.9,1.9,1.4,3.3,1.4c1.3,0,2.4-0.5,3.2-1.4c0.8-0.9,1.2-2.1,1.2-3.5
		s-0.4-2.6-1.2-3.5c-0.8-0.9-1.9-1.4-3.2-1.4C326.9,376.9,325.8,377.3,325,378.3z"/>
	<path fill="#E7E1D4" d="M342.3,377.1c-1,0-1.8,0.3-2.4,1c-0.8,0.7-1.2,1.8-1.2,3.2v6.5h-1.5v-12h1.4l0,2.2c0.5-1.3,1.7-2.3,3.6-2.3
		V377.1z"/>
	<path fill="#E7E1D4" d="M346.5,370.3v11.5l5-6h1.9l-4.1,4.9l4.7,7.1h-1.8l-4-5.9l-1.8,2.1v3.8H345v-17.5H346.5z"/>
	<path fill="#E7E1D4" d="M377.2,375.7l-3.9,12h-1.5l-3.3-9.4l-3.3,9.4h-1.5l-3.9-12h1.6l2.9,9l0.3,1l0.3-1l3-9h1.3l3,9l0.3,1l0.3-1
		l2.9-9H377.2z"/>
	<path fill="#E7E1D4" d="M381.6,371.9c0,0.6-0.5,1.2-1.2,1.2c-0.7,0-1.2-0.5-1.2-1.2c0-0.6,0.5-1.2,1.2-1.2
		C381.1,370.7,381.6,371.3,381.6,371.9z M381.2,375.7v12h-1.5v-12H381.2z"/>
	<path fill="#E7E1D4" d="M387.3,372.7l0,3.1h3.3v1.4h-3.3l0,7.3c0,1.5,0.4,2.1,1.8,2.1c0.5,0,1-0.1,1.5-0.2v1.4
		c-0.4,0.2-1,0.3-1.7,0.3c-2.1,0-3.1-1-3.1-3.3l0-7.5h-2.4v-1.4h2.4l0-3.1H387.3z"/>
	<path fill="#E7E1D4" d="M394.6,370.3v7.2c0.4-1.1,1.8-2,3.4-2c2.5,0,3.9,1.8,3.9,4.5v7.8h-1.5v-7.6c0-2.1-1-3.2-2.7-3.2
		c-1.8,0-3.2,1.6-3.2,4.2v6.7h-1.5v-17.5H394.6z"/>
	<path fill="#E7E1D4" d="M412.2,370.3v7.2c0.4-1.1,1.8-2,3.4-2c2.5,0,3.9,1.8,3.9,4.5v7.8H418v-7.6c0-2.1-1-3.2-2.7-3.2
		c-1.8,0-3.2,1.6-3.2,4.2v6.7h-1.5v-17.5H412.2z"/>
	<path fill="#E7E1D4" d="M433.3,381.5v0.8h-9.6c0.1,2.6,1.8,4.3,4.2,4.3c1.9,0,3.1-0.7,3.7-2.3h1.6c-0.7,2.3-2.6,3.7-5.3,3.7
		c-1.7,0-3-0.6-4.1-1.7c-1.1-1.2-1.6-2.7-1.6-4.5c0-1.8,0.5-3.4,1.5-4.5c1-1.2,2.4-1.8,4.1-1.8C431.1,375.5,433.3,377.7,433.3,381.5
		z M423.7,381h8c0-2.5-1.5-4.1-3.9-4.1C425.5,376.9,423.9,378.6,423.7,381z"/>
	<path fill="#E7E1D4" d="M447,370.3v17.5h-1.4l0-2c-0.7,1.2-2.3,2.3-4.3,2.3c-1.7,0-3.1-0.6-4.1-1.8c-1-1.2-1.5-2.7-1.5-4.5
		s0.5-3.3,1.5-4.5c1-1.2,2.4-1.8,4.1-1.8c2,0,3.6,1,4.2,2.3v-7.5H447z M438.3,378.3c-0.8,0.9-1.2,2.1-1.2,3.5s0.4,2.6,1.2,3.5
		c0.8,0.9,1.8,1.4,3.1,1.4c1.1,0,2.1-0.4,2.9-1.2c0.8-0.8,1.2-1.9,1.2-3.3v-0.5c0-1.4-0.4-2.6-1.2-3.4c-0.8-0.8-1.8-1.3-2.9-1.3
		C440.1,376.9,439.1,377.4,438.3,378.3z"/>
	<path fill="#E7E1D4" d="M458.8,379.7v8h-1.4l0-1.8c-0.6,1.2-2.1,2-3.8,2c-2.1,0-3.4-1.3-3.4-3.2c0-1.8,1.1-3,3.3-3.4l3.9-0.8v-0.8
		c0-1.9-0.9-2.9-2.6-2.9c-1.6,0-2.7,0.9-2.7,2.6h-1.5c0-1.2,0.4-2.1,1.2-2.9c0.8-0.8,1.8-1.2,3.1-1.2
		C457.3,375.5,458.8,377,458.8,379.7z M457.2,382l-3.6,0.8c-1.3,0.3-2,0.8-2,2.1c0,1.2,0.7,1.8,2.1,1.8c1.2,0,2.1-0.4,2.8-1.3
		c0.5-0.7,0.8-1.5,0.8-2.4V382z"/>
	<path fill="#E7E1D4" d="M478.3,375.7l-3.9,12h-1.5l-3.3-9.4l-3.3,9.4h-1.5l-3.9-12h1.6l2.9,9l0.3,1l0.3-1l3-9h1.3l3,9l0.3,1l0.3-1
		l2.9-9H478.3z"/>
	<path fill="#E7E1D4" d="M490.5,381.5v0.8h-9.6c0.1,2.6,1.8,4.3,4.2,4.3c1.9,0,3.1-0.7,3.7-2.3h1.6c-0.7,2.3-2.6,3.7-5.3,3.7
		c-1.7,0-3-0.6-4.1-1.7c-1.1-1.2-1.6-2.7-1.6-4.5c0-1.8,0.5-3.4,1.5-4.5c1-1.2,2.4-1.8,4.1-1.8C488.3,375.5,490.5,377.7,490.5,381.5
		z M480.9,381h8c0-2.5-1.5-4.1-3.9-4.1C482.7,376.9,481.1,378.6,480.9,381z"/>
	<path fill="#E7E1D4" d="M502.5,380v7.8h-1.5v-7.6c0-2.1-1-3.2-2.7-3.2c-1.8,0-3.2,1.6-3.2,4.2v6.7h-1.5v-12h1.4l0.1,1.8
		c0.5-1.1,1.8-2.1,3.5-2.1C501,375.5,502.5,377.3,502.5,380z"/>
	<path fill="#E7E1D4" d="M516.1,375.7v1.4h-2.3c0.6,0.7,0.8,1.6,0.8,2.7c0,1.2-0.4,2.2-1.2,3c-0.8,0.8-1.9,1.2-3.3,1.2
		c-1.1,0-2-0.3-2.8-0.8c-0.5,0.4-0.7,0.9-0.7,1.4c0,0.9,0.7,1.4,1.8,1.4h3.3c2.5,0,3.7,1.2,3.7,3.2c0,2.4-1.8,3.9-4.8,3.9
		c-3.3,0-5.2-1.3-5.2-3.7c0-1.1,0.5-1.9,1.4-2.4c-1-0.4-1.7-1.3-1.7-2.4c0-1,0.4-1.8,1.3-2.4c-0.5-0.7-0.8-1.6-0.8-2.5
		c0-2.5,1.8-4.3,4.5-4.3c0.6,0,1.2,0.1,1.7,0.3H516.1z M509,387.4c-1.1,0-2,0.8-2,2c0,1.6,1.2,2.4,3.6,2.4c2.2,0,3.3-0.8,3.3-2.5
		c0-1.2-0.9-1.9-2.4-1.9H509z M510.1,382.7c1.8,0,3-1.2,3-2.9c0-1.8-1.2-2.9-3-2.9c-1.8,0-3,1.2-3,2.9
		C507.1,381.5,508.3,382.7,510.1,382.7z"/>
	<path fill="#E7E1D4" d="M518.2,388c-1.1,0-1.7-1.4-0.9-2.2c0.8-0.8,2.3-0.2,2.2,0.9C519.5,387.5,518.9,388,518.2,388z"/>
	<path fill="#E7E1D4" d="M532.4,379.2h-1.6c-0.5-1.5-1.9-2.3-3.7-2.3c-1.2,0-2.2,0.5-3,1.4s-1.2,2.1-1.2,3.5c0,1.4,0.4,2.5,1.2,3.5
		c0.8,0.9,1.8,1.4,3,1.4c1.7,0,3.1-0.9,3.6-2.3h1.6c-0.7,2.4-2.7,3.7-5.3,3.7c-1.7,0-3-0.6-4.1-1.8c-1.1-1.2-1.6-2.7-1.6-4.5
		c0-1.8,0.5-3.3,1.6-4.5c1.1-1.2,2.5-1.8,4.1-1.8C529.7,375.5,531.7,376.8,532.4,379.2z"/>
	<path fill="#E7E1D4" d="M540.3,375.5c1.8,0,3.2,0.6,4.3,1.8c1.1,1.2,1.7,2.7,1.7,4.5s-0.6,3.3-1.7,4.5s-2.5,1.8-4.3,1.8
		s-3.2-0.6-4.3-1.8c-1.1-1.2-1.7-2.7-1.7-4.5s0.6-3.3,1.7-4.5C537.1,376.1,538.5,375.5,540.3,375.5z M537,378.3
		c-0.8,0.9-1.2,2.1-1.2,3.5s0.4,2.6,1.2,3.5c0.8,0.9,1.9,1.4,3.3,1.4c1.3,0,2.4-0.5,3.2-1.4c0.8-0.9,1.2-2.1,1.2-3.5
		s-0.4-2.6-1.2-3.5c-0.8-0.9-1.9-1.4-3.2-1.4C539,376.9,537.9,377.3,537,378.3z"/>
	<path fill="#E7E1D4" d="M565.1,380v7.8h-1.5v-7.6c0-2.1-1-3.2-2.6-3.2c-1.8,0-3.1,1.5-3.1,4v6.9h-1.5v-7.6c0-2.1-1-3.2-2.7-3.2
		c-1.8,0-3.1,1.6-3.1,4.2v6.7h-1.5v-12h1.4l0.1,1.8c0.5-1.1,1.8-2.1,3.4-2.1c1.8,0,3,0.8,3.6,2.4c0.6-1.3,2-2.4,3.7-2.4
		C563.8,375.5,565.1,377.2,565.1,380z"/>
	<path fill="#E7E1D4" d="M574.2,388c-1.1,0-1.7-1.4-0.9-2.2c0.8-0.8,2.3-0.2,2.2,0.9C575.5,387.5,574.9,388,574.2,388z M572.9,376.8
		c0-0.7,0.6-1.3,1.3-1.3c0.7,0,1.3,0.6,1.3,1.3s-0.6,1.3-1.3,1.3C573.5,378,572.9,377.5,572.9,376.8z"/>
	<path fill="#E7E1D4" d="M584.7,380.9v1.4h-7.6v-1.4H584.7z"/>
	<path fill="#E7E1D4" d="M591.3,371c-1.1,1.4-2,2.8-2.5,4.2c-0.5,1.4-0.8,3-0.8,4.8s0.3,3.5,0.8,4.8c0.5,1.4,1.3,2.8,2.5,4.2
		l-1.1,0.8c-2.4-3-3.6-6-3.6-9.9s1.2-6.8,3.6-9.9L591.3,371z"/>
</g>
<g>
	<path fill="#E7E1D4" d="M112.5,446.6v11.2h-1.1v-11.2H112.5z"/>
	<path fill="#E7E1D4" d="M121,452.6v5.2h-1v-5.1c0-1.4-0.7-2.1-1.8-2.1c-1.2,0-2.1,1.1-2.1,2.8v4.5h-1v-8h0.9l0,1.2
		c0.3-0.8,1.2-1.4,2.3-1.4C120.1,449.6,121,450.8,121,452.6z"/>
	<path fill="#E7E1D4" d="M124.9,447.7l0,2h2.2v0.9h-2.2l0,4.9c0,1,0.3,1.4,1.2,1.4c0.3,0,0.7,0,1-0.2v0.9c-0.3,0.1-0.7,0.2-1.1,0.2
		c-1.4,0-2.1-0.7-2.1-2.2l0-5h-1.6v-0.9h1.6l0-2H124.9z"/>
	<path fill="#E7E1D4" d="M135.5,453.6v0.6h-6.4c0.1,1.7,1.2,2.9,2.8,2.9c1.3,0,2.1-0.5,2.5-1.5h1c-0.5,1.6-1.7,2.4-3.5,2.4
		c-1.1,0-2-0.4-2.7-1.2c-0.7-0.8-1.1-1.8-1.1-3c0-1.2,0.3-2.2,1-3s1.6-1.2,2.7-1.2C134.1,449.6,135.5,451,135.5,453.6z M129.1,453.2
		h5.4c0-1.7-1-2.7-2.6-2.7C130.3,450.5,129.3,451.6,129.1,453.2z"/>
	<path fill="#E7E1D4" d="M141.1,450.7c-0.7,0-1.2,0.2-1.6,0.7c-0.5,0.5-0.8,1.2-0.8,2.1v4.4h-1v-8h0.9l0,1.5
		c0.3-0.8,1.2-1.5,2.4-1.5V450.7z"/>
	<path fill="#E7E1D4" d="M148.7,452.6v5.2h-1v-5.1c0-1.4-0.7-2.1-1.8-2.1c-1.2,0-2.1,1.1-2.1,2.8v4.5h-1v-8h0.9l0,1.2
		c0.3-0.8,1.2-1.4,2.3-1.4C147.7,449.6,148.7,450.8,148.7,452.6z"/>
	<path fill="#E7E1D4" d="M157.8,453.6v0.6h-6.4c0.1,1.7,1.2,2.9,2.8,2.9c1.3,0,2.1-0.5,2.5-1.5h1c-0.5,1.6-1.7,2.4-3.5,2.4
		c-1.1,0-2-0.4-2.7-1.2c-0.7-0.8-1.1-1.8-1.1-3c0-1.2,0.3-2.2,1-3c0.7-0.8,1.6-1.2,2.7-1.2C156.4,449.6,157.8,451,157.8,453.6z
		 M151.5,453.2h5.4c0-1.7-1-2.7-2.6-2.7C152.7,450.5,151.6,451.6,151.5,453.2z"/>
	<path fill="#E7E1D4" d="M161.4,447.7l0,2h2.2v0.9h-2.2l0,4.9c0,1,0.3,1.4,1.2,1.4c0.3,0,0.7,0,1-0.2v0.9c-0.3,0.1-0.7,0.2-1.1,0.2
		c-1.4,0-2.1-0.7-2.1-2.2l0-5h-1.6v-0.9h1.6l0-2H161.4z"/>
	<path fill="#E7E1D4" d="M176.7,446.6v1h-5v3.9h4.4v1h-4.4v4.3h5v1h-6v-11.2H176.7z"/>
	<path fill="#E7E1D4" d="M184.8,449.7l-2.7,3.9l2.9,4.2h-1.2l-2.4-3.3l-2.4,3.3h-1.2l2.9-4.2l-2.7-3.9h1.2l2.1,3.1l2.2-3.1H184.8z"
		/>
	<path fill="#E7E1D4" d="M193.5,450.8c0.7,0.8,1,1.8,1,3c0,1.2-0.3,2.2-1,3c-0.7,0.8-1.6,1.2-2.7,1.2c-1.4,0-2.4-0.7-2.8-1.5v4.8h-1
		v-11.5h1l0,1.4c0.5-0.8,1.5-1.6,2.9-1.6C191.9,449.6,192.8,450,193.5,450.8z M188.7,451.3c-0.5,0.5-0.8,1.3-0.8,2.2v0.3
		c0,0.9,0.3,1.7,0.8,2.3c0.5,0.6,1.2,0.8,1.9,0.8c0.8,0,1.5-0.3,2-0.9c0.5-0.6,0.8-1.4,0.8-2.3s-0.3-1.7-0.8-2.3
		c-0.5-0.6-1.2-0.9-2-0.9C189.9,450.5,189.2,450.8,188.7,451.3z"/>
	<path fill="#E7E1D4" d="M197.4,446.1v11.7h-1v-11.7H197.4z"/>
	<path fill="#E7E1D4" d="M203.4,449.6c1.2,0,2.1,0.4,2.9,1.2s1.1,1.8,1.1,3c0,1.2-0.4,2.2-1.1,3c-0.7,0.8-1.7,1.2-2.9,1.2
		s-2.1-0.4-2.9-1.2c-0.7-0.8-1.1-1.8-1.1-3c0-1.2,0.4-2.2,1.1-3C201.2,450,202.2,449.6,203.4,449.6z M201.2,451.4
		c-0.5,0.6-0.8,1.4-0.8,2.3s0.3,1.7,0.8,2.3c0.6,0.6,1.3,0.9,2.2,0.9c0.9,0,1.6-0.3,2.1-0.9c0.5-0.6,0.8-1.4,0.8-2.3
		s-0.3-1.7-0.8-2.3c-0.5-0.6-1.2-0.9-2.1-0.9C202.5,450.5,201.8,450.8,201.2,451.4z"/>
	<path fill="#E7E1D4" d="M212.7,450.7c-0.7,0-1.2,0.2-1.6,0.7c-0.5,0.5-0.8,1.2-0.8,2.1v4.4h-1v-8h0.9l0,1.5
		c0.3-0.8,1.2-1.5,2.4-1.5V450.7z"/>
	<path fill="#E7E1D4" d="M221,453.6v0.6h-6.4c0.1,1.7,1.2,2.9,2.8,2.9c1.3,0,2.1-0.5,2.5-1.5h1c-0.5,1.6-1.7,2.4-3.5,2.4
		c-1.1,0-2-0.4-2.7-1.2c-0.7-0.8-1.1-1.8-1.1-3c0-1.2,0.3-2.2,1-3s1.6-1.2,2.7-1.2C219.5,449.6,221,451,221,453.6z M214.6,453.2h5.4
		c0-1.7-1-2.7-2.6-2.7C215.8,450.5,214.7,451.6,214.6,453.2z"/>
	<path fill="#E7E1D4" d="M226.6,450.7c-0.7,0-1.2,0.2-1.6,0.7c-0.5,0.5-0.8,1.2-0.8,2.1v4.4h-1v-8h0.9l0,1.5
		c0.3-0.8,1.2-1.5,2.4-1.5V450.7z"/>
	<path fill="#E7E1D4" d="M234.7,446.1v11.7h-1v-11.7H234.7z"/>
	<path fill="#E7E1D4" d="M242.6,452.4v5.4h-1l0-1.2c-0.4,0.8-1.4,1.3-2.5,1.3c-1.4,0-2.3-0.9-2.3-2.1c0-1.2,0.7-2,2.2-2.3l2.6-0.5
		v-0.5c0-1.3-0.6-1.9-1.7-1.9c-1.1,0-1.8,0.6-1.8,1.7h-1c0-0.8,0.3-1.4,0.8-1.9c0.5-0.5,1.2-0.8,2-0.8
		C241.6,449.6,242.6,450.6,242.6,452.4z M241.6,453.9l-2.4,0.5c-0.9,0.2-1.3,0.6-1.3,1.4c0,0.8,0.5,1.2,1.4,1.2
		c0.8,0,1.4-0.3,1.9-0.9c0.4-0.5,0.5-1,0.5-1.6V453.9z"/>
	<path fill="#E7E1D4" d="M251.7,452.1h-1c-0.3-1-1.3-1.6-2.4-1.6c-0.8,0-1.5,0.3-2,0.9c-0.5,0.6-0.8,1.4-0.8,2.3
		c0,0.9,0.3,1.7,0.8,2.3c0.5,0.6,1.2,0.9,2,0.9c1.2,0,2.1-0.6,2.4-1.6h1c-0.4,1.6-1.8,2.5-3.5,2.5c-1.1,0-2-0.4-2.8-1.2
		c-0.7-0.8-1.1-1.8-1.1-3c0-1.2,0.4-2.2,1.1-3c0.7-0.8,1.6-1.2,2.8-1.2C249.9,449.6,251.2,450.5,251.7,452.1z"/>
	<path fill="#E7E1D4" d="M254.7,446.1v7.7l3.4-4h1.3l-2.7,3.3l3.2,4.7h-1.2l-2.7-4l-1.2,1.4v2.5h-1v-11.7H254.7z"/>
	<path fill="#E7E1D4" d="M266,452h-1c0-1-0.5-1.5-1.5-1.5c-1,0-1.5,0.5-1.5,1.3c0,0.4,0.1,0.7,0.4,0.9c0.2,0.2,0.7,0.4,1.4,0.5
		c1.9,0.5,2.6,1.2,2.6,2.4c0,1.5-1.1,2.4-2.7,2.4c-1.8,0-2.8-1-2.9-2.5h1c0,1,0.7,1.6,1.9,1.6c1.1,0,1.7-0.6,1.7-1.4
		c0-0.8-0.5-1.2-1.9-1.5c-1.7-0.4-2.4-1-2.4-2.3c0-1.3,1-2.3,2.5-2.3C265,449.6,266,450.5,266,452z"/>
	<path fill="#E7E1D4" d="M277,449.6c1.2,0,2.1,0.4,2.9,1.2s1.1,1.8,1.1,3c0,1.2-0.4,2.2-1.1,3c-0.7,0.8-1.7,1.2-2.9,1.2
		s-2.1-0.4-2.9-1.2c-0.7-0.8-1.1-1.8-1.1-3c0-1.2,0.4-2.2,1.1-3C274.8,450,275.8,449.6,277,449.6z M274.8,451.4
		c-0.5,0.6-0.8,1.4-0.8,2.3s0.3,1.7,0.8,2.3c0.6,0.6,1.3,0.9,2.2,0.9c0.9,0,1.6-0.3,2.1-0.9c0.5-0.6,0.8-1.4,0.8-2.3
		s-0.3-1.7-0.8-2.3c-0.5-0.6-1.2-0.9-2.1-0.9C276.1,450.5,275.4,450.8,274.8,451.4z"/>
	<path fill="#E7E1D4" d="M286.6,446.2v0.9c-0.3-0.1-0.7-0.2-1-0.2c-0.8,0-1.2,0.5-1.2,1.4v1.4h2.1v0.9h-2.1v7.1h-1v-7.1h-1.6v-0.9
		h1.6v-1.4c0-1.5,0.8-2.3,2.1-2.3C285.9,446,286.3,446,286.6,446.2z"/>
	<path fill="#E7E1D4" d="M304.1,452.6v5.2h-1v-5.1c0-1.4-0.7-2.1-1.8-2.1c-1.2,0-2.1,1-2.1,2.6v4.6h-1v-5.1c0-1.4-0.7-2.1-1.8-2.1
		c-1.2,0-2.1,1.1-2.1,2.8v4.5h-1v-8h0.9l0,1.2c0.3-0.8,1.2-1.4,2.3-1.4c1.2,0,2,0.5,2.4,1.6c0.4-0.9,1.3-1.6,2.5-1.6
		C303.1,449.6,304.1,450.8,304.1,452.6z"/>
	<path fill="#E7E1D4" d="M311.8,452.4v5.4h-1l0-1.2c-0.4,0.8-1.4,1.3-2.5,1.3c-1.4,0-2.3-0.9-2.3-2.1c0-1.2,0.7-2,2.2-2.3l2.6-0.5
		v-0.5c0-1.3-0.6-1.9-1.7-1.9c-1.1,0-1.8,0.6-1.8,1.7h-1c0-0.8,0.3-1.4,0.8-1.9c0.5-0.5,1.2-0.8,2-0.8
		C310.8,449.6,311.8,450.6,311.8,452.4z M310.8,453.9l-2.4,0.5c-0.9,0.2-1.3,0.6-1.3,1.4c0,0.8,0.5,1.2,1.4,1.2
		c0.8,0,1.4-0.3,1.9-0.9c0.4-0.5,0.5-1,0.5-1.6V453.9z"/>
	<path fill="#E7E1D4" d="M320.1,452.6v5.2h-1v-5.1c0-1.4-0.7-2.1-1.8-2.1c-1.2,0-2.1,1.1-2.1,2.8v4.5h-1v-8h0.9l0,1.2
		c0.3-0.8,1.2-1.4,2.3-1.4C319.2,449.6,320.1,450.8,320.1,452.6z"/>
	<path fill="#E7E1D4" d="M328.9,449.7l-4.5,11.5h-1.1l1.4-3.6l-3.1-7.9h1.1l2.4,6.2l0.2,0.6l0.2-0.6l2.4-6.2H328.9z"/>
	<path fill="#E7E1D4" d="M346.6,452.6v5.2h-1v-5.1c0-1.4-0.7-2.1-1.8-2.1c-1.2,0-2.1,1-2.1,2.6v4.6h-1v-5.1c0-1.4-0.7-2.1-1.8-2.1
		c-1.2,0-2.1,1.1-2.1,2.8v4.5h-1v-8h0.9l0,1.2c0.3-0.8,1.2-1.4,2.3-1.4c1.2,0,2,0.5,2.4,1.6c0.4-0.9,1.3-1.6,2.5-1.6
		C345.7,449.6,346.6,450.8,346.6,452.6z"/>
	<path fill="#E7E1D4" d="M352.3,449.6c1.2,0,2.1,0.4,2.9,1.2s1.1,1.8,1.1,3c0,1.2-0.4,2.2-1.1,3c-0.7,0.8-1.7,1.2-2.9,1.2
		s-2.1-0.4-2.9-1.2c-0.7-0.8-1.1-1.8-1.1-3c0-1.2,0.4-2.2,1.1-3C350.2,450,351.2,449.6,352.3,449.6z M350.2,451.4
		c-0.5,0.6-0.8,1.4-0.8,2.3s0.3,1.7,0.8,2.3c0.6,0.6,1.3,0.9,2.2,0.9c0.9,0,1.6-0.3,2.1-0.9c0.5-0.6,0.8-1.4,0.8-2.3
		s-0.3-1.7-0.8-2.3c-0.5-0.6-1.2-0.9-2.1-0.9C351.5,450.5,350.7,450.8,350.2,451.4z"/>
	<path fill="#E7E1D4" d="M365.3,446.1v11.7h-0.9l0-1.4c-0.5,0.8-1.5,1.5-2.9,1.5c-1.1,0-2-0.4-2.7-1.2c-0.7-0.8-1-1.8-1-3
		c0-1.2,0.3-2.2,1-3s1.6-1.2,2.7-1.2c1.3,0,2.4,0.7,2.8,1.5v-5H365.3z M359.5,451.4c-0.5,0.6-0.8,1.4-0.8,2.3s0.3,1.7,0.8,2.3
		s1.2,0.9,2,0.9c0.8,0,1.4-0.3,1.9-0.8c0.5-0.6,0.8-1.3,0.8-2.2v-0.3c0-0.9-0.3-1.7-0.8-2.3c-0.5-0.6-1.2-0.8-1.9-0.8
		C360.7,450.5,360.1,450.8,359.5,451.4z"/>
	<path fill="#E7E1D4" d="M374.6,453.6v0.6h-6.4c0.1,1.7,1.2,2.9,2.8,2.9c1.3,0,2.1-0.5,2.5-1.5h1c-0.5,1.6-1.7,2.4-3.5,2.4
		c-1.1,0-2-0.4-2.7-1.2c-0.7-0.8-1.1-1.8-1.1-3c0-1.2,0.3-2.2,1-3c0.7-0.8,1.6-1.2,2.7-1.2C373.1,449.6,374.6,451,374.6,453.6z
		 M368.2,453.2h5.4c0-1.7-1-2.7-2.6-2.7C369.4,450.5,368.3,451.6,368.2,453.2z"/>
	<path fill="#E7E1D4" d="M380.2,450.7c-0.7,0-1.2,0.2-1.6,0.7c-0.5,0.5-0.8,1.2-0.8,2.1v4.4h-1v-8h0.9l0,1.5
		c0.3-0.8,1.2-1.5,2.4-1.5V450.7z"/>
	<path fill="#E7E1D4" d="M387.8,452.6v5.2h-1v-5.1c0-1.4-0.7-2.1-1.8-2.1c-1.2,0-2.1,1.1-2.1,2.8v4.5h-1v-8h0.9l0,1.2
		c0.3-0.8,1.2-1.4,2.3-1.4C386.8,449.6,387.8,450.8,387.8,452.6z"/>
	<path fill="#E7E1D4" d="M399.3,446.2v0.9c-0.3-0.1-0.7-0.2-1-0.2c-0.8,0-1.2,0.5-1.2,1.4v1.4h2.1v0.9h-2.1v7.1h-1v-7.1h-1.6v-0.9
		h1.6v-1.4c0-1.5,0.8-2.3,2.1-2.3C398.7,446,399,446,399.3,446.2z"/>
	<path fill="#E7E1D4" d="M407.4,453.6v0.6H401c0.1,1.7,1.2,2.9,2.8,2.9c1.3,0,2.1-0.5,2.5-1.5h1c-0.5,1.6-1.7,2.4-3.5,2.4
		c-1.1,0-2-0.4-2.7-1.2c-0.7-0.8-1.1-1.8-1.1-3c0-1.2,0.3-2.2,1-3s1.6-1.2,2.7-1.2C406,449.6,407.4,451,407.4,453.6z M401,453.2h5.4
		c0-1.7-1-2.7-2.6-2.7C402.2,450.5,401.2,451.6,401,453.2z"/>
	<path fill="#E7E1D4" d="M414.8,452.4v5.4h-1l0-1.2c-0.4,0.8-1.4,1.3-2.5,1.3c-1.4,0-2.3-0.9-2.3-2.1c0-1.2,0.7-2,2.2-2.3l2.6-0.5
		v-0.5c0-1.3-0.6-1.9-1.7-1.9c-1.1,0-1.8,0.6-1.8,1.7h-1c0-0.8,0.3-1.4,0.8-1.9c0.5-0.5,1.2-0.8,2-0.8
		C413.8,449.6,414.8,450.6,414.8,452.4z M413.8,453.9l-2.4,0.5c-0.9,0.2-1.3,0.6-1.3,1.4c0,0.8,0.5,1.2,1.4,1.2
		c0.8,0,1.4-0.3,1.9-0.9c0.4-0.5,0.5-1,0.5-1.6V453.9z"/>
	<path fill="#E7E1D4" d="M418.6,447.7l0,2h2.2v0.9h-2.2l0,4.9c0,1,0.3,1.4,1.2,1.4c0.3,0,0.7,0,1-0.2v0.9c-0.3,0.1-0.7,0.2-1.1,0.2
		c-1.4,0-2.1-0.7-2.1-2.2l0-5H416v-0.9h1.6l0-2H418.6z"/>
	<path fill="#E7E1D4" d="M428.3,449.7v8h-0.9l0-1.2c-0.3,0.8-1.2,1.4-2.3,1.4c-1.7,0-2.6-1.2-2.6-3v-5.2h1v5.1
		c0,1.4,0.7,2.2,1.8,2.2c1.2,0,2.1-1.1,2.1-2.7v-4.5H428.3z"/>
	<path fill="#E7E1D4" d="M434.4,450.7c-0.7,0-1.2,0.2-1.6,0.7c-0.5,0.5-0.8,1.2-0.8,2.1v4.4h-1v-8h0.9l0,1.5
		c0.3-0.8,1.2-1.5,2.4-1.5V450.7z"/>
	<path fill="#E7E1D4" d="M442.6,453.6v0.6h-6.4c0.1,1.7,1.2,2.9,2.8,2.9c1.3,0,2.1-0.5,2.5-1.5h1c-0.5,1.6-1.7,2.4-3.5,2.4
		c-1.1,0-2-0.4-2.7-1.2c-0.7-0.8-1.1-1.8-1.1-3c0-1.2,0.3-2.2,1-3c0.7-0.8,1.6-1.2,2.7-1.2C441.1,449.6,442.6,451,442.6,453.6z
		 M436.2,453.2h5.4c0-1.7-1-2.7-2.6-2.7C437.4,450.5,436.3,451.6,436.2,453.2z"/>
	<path fill="#E7E1D4" d="M449.4,452h-1c0-1-0.5-1.5-1.5-1.5c-1,0-1.5,0.5-1.5,1.3c0,0.4,0.1,0.7,0.4,0.9c0.2,0.2,0.7,0.4,1.4,0.5
		c1.9,0.5,2.6,1.2,2.6,2.4c0,1.5-1.1,2.4-2.7,2.4c-1.8,0-2.8-1-2.9-2.5h1c0,1,0.7,1.6,1.9,1.6c1.1,0,1.7-0.6,1.7-1.4
		c0-0.8-0.5-1.2-1.9-1.5c-1.7-0.4-2.4-1-2.4-2.3c0-1.3,1-2.3,2.5-2.3C448.4,449.6,449.4,450.5,449.4,452z"/>
	<path fill="#E7E1D4" d="M451.5,459.9l-0.4-0.1c0.3-0.5,0.5-1.1,0.6-1.8c-0.7,0-1-0.9-0.5-1.4c0.5-0.5,1.5-0.1,1.4,0.6
		C452.6,458.1,452.1,459.2,451.5,459.9z"/>
	<path fill="#E7E1D4" d="M470.5,449.7l-2.6,8h-1l-2.2-6.3l-2.2,6.3h-1l-2.6-8h1.1l1.9,6l0.2,0.7l0.2-0.7l2-6h0.8l2,6l0.2,0.7
		l0.2-0.7l1.9-6H470.5z"/>
	<path fill="#E7E1D4" d="M473.1,446.1v4.8c0.3-0.7,1.2-1.3,2.3-1.3c1.7,0,2.6,1.2,2.6,3v5.2h-1v-5.1c0-1.4-0.7-2.1-1.8-2.1
		c-1.2,0-2.1,1.1-2.1,2.8v4.5h-1v-11.7H473.1z"/>
	<path fill="#E7E1D4" d="M481.8,447.2c0,0.4-0.4,0.8-0.8,0.8c-0.4,0-0.8-0.3-0.8-0.8s0.3-0.8,0.8-0.8
		C481.4,446.4,481.8,446.8,481.8,447.2z M481.5,449.7v8h-1v-8H481.5z"/>
	<path fill="#E7E1D4" d="M490.8,452.1h-1c-0.3-1-1.3-1.6-2.4-1.6c-0.8,0-1.5,0.3-2,0.9c-0.5,0.6-0.8,1.4-0.8,2.3
		c0,0.9,0.3,1.7,0.8,2.3c0.5,0.6,1.2,0.9,2,0.9c1.2,0,2.1-0.6,2.4-1.6h1c-0.4,1.6-1.8,2.5-3.5,2.5c-1.1,0-2-0.4-2.8-1.2
		c-0.7-0.8-1.1-1.8-1.1-3c0-1.2,0.4-2.2,1.1-3c0.7-0.8,1.6-1.2,2.8-1.2C489,449.6,490.3,450.5,490.8,452.1z"/>
	<path fill="#E7E1D4" d="M493.7,446.1v4.8c0.3-0.7,1.2-1.3,2.3-1.3c1.7,0,2.6,1.2,2.6,3v5.2h-1v-5.1c0-1.4-0.7-2.1-1.8-2.1
		c-1.2,0-2.1,1.1-2.1,2.8v4.5h-1v-11.7H493.7z"/>
	<path fill="#E7E1D4" d="M511.7,452.4v5.4h-1l0-1.2c-0.4,0.8-1.4,1.3-2.5,1.3c-1.4,0-2.3-0.9-2.3-2.1c0-1.2,0.7-2,2.2-2.3l2.6-0.5
		v-0.5c0-1.3-0.6-1.9-1.7-1.9c-1.1,0-1.8,0.6-1.8,1.7h-1c0-0.8,0.3-1.4,0.8-1.9c0.5-0.5,1.2-0.8,2-0.8
		C510.8,449.6,511.7,450.6,511.7,452.4z M510.7,453.9l-2.4,0.5c-0.9,0.2-1.3,0.6-1.3,1.4c0,0.8,0.5,1.2,1.4,1.2
		c0.8,0,1.4-0.3,1.9-0.9c0.4-0.5,0.5-1,0.5-1.6V453.9z"/>
	<path fill="#E7E1D4" d="M517.7,450.7c-0.7,0-1.2,0.2-1.6,0.7c-0.5,0.5-0.8,1.2-0.8,2.1v4.4h-1v-8h0.9l0,1.5
		c0.3-0.8,1.2-1.5,2.4-1.5V450.7z"/>
	<path fill="#E7E1D4" d="M525.9,453.6v0.6h-6.4c0.1,1.7,1.2,2.9,2.8,2.9c1.3,0,2.1-0.5,2.5-1.5h1c-0.5,1.6-1.7,2.4-3.5,2.4
		c-1.1,0-2-0.4-2.7-1.2c-0.7-0.8-1.1-1.8-1.1-3c0-1.2,0.3-2.2,1-3c0.7-0.8,1.6-1.2,2.7-1.2C524.4,449.6,525.9,451,525.9,453.6z
		 M519.5,453.2h5.4c0-1.7-1-2.7-2.6-2.7C520.7,450.5,519.6,451.6,519.5,453.2z"/>
	<path fill="#E7E1D4" d="M539.7,449.7l-3.2,8h-1l-3.2-8h1.1l2.4,6.2l0.2,0.6l0.2-0.6l2.4-6.2H539.7z"/>
	<path fill="#E7E1D4" d="M547.9,453.6v0.6h-6.4c0.1,1.7,1.2,2.9,2.8,2.9c1.3,0,2.1-0.5,2.5-1.5h1c-0.5,1.6-1.7,2.4-3.5,2.4
		c-1.1,0-2-0.4-2.7-1.2c-0.7-0.8-1.1-1.8-1.1-3c0-1.2,0.3-2.2,1-3c0.7-0.8,1.6-1.2,2.7-1.2C546.4,449.6,547.9,451,547.9,453.6z
		 M541.5,453.2h5.4c0-1.7-1-2.7-2.6-2.7C542.7,450.5,541.6,451.6,541.5,453.2z"/>
	<path fill="#E7E1D4" d="M553.5,450.7c-0.7,0-1.2,0.2-1.6,0.7c-0.5,0.5-0.8,1.2-0.8,2.1v4.4h-1v-8h0.9l0,1.5
		c0.3-0.8,1.2-1.5,2.4-1.5V450.7z"/>
	<path fill="#E7E1D4" d="M561.6,449.7l-4.5,11.5H556l1.4-3.6l-3.1-7.9h1.1l2.4,6.2l0.2,0.6l0.2-0.6l2.4-6.2H561.6z"/>
	<path fill="#E7E1D4" d="M569.9,447.2c0,0.4-0.4,0.8-0.8,0.8c-0.4,0-0.8-0.3-0.8-0.8s0.3-0.8,0.8-0.8
		C569.6,446.4,569.9,446.8,569.9,447.2z M569.6,449.7v8h-1v-8H569.6z"/>
	<path fill="#E7E1D4" d="M583,452.6v5.2h-1v-5.1c0-1.4-0.7-2.1-1.8-2.1c-1.2,0-2.1,1-2.1,2.6v4.6h-1v-5.1c0-1.4-0.7-2.1-1.8-2.1
		c-1.2,0-2.1,1.1-2.1,2.8v4.5h-1v-8h0.9l0,1.2c0.3-0.8,1.2-1.4,2.3-1.4c1.2,0,2,0.5,2.4,1.6c0.4-0.9,1.3-1.6,2.5-1.6
		C582.1,449.6,583,450.8,583,452.6z"/>
	<path fill="#E7E1D4" d="M592.1,450.8c0.7,0.8,1,1.8,1,3c0,1.2-0.3,2.2-1,3c-0.7,0.8-1.6,1.2-2.7,1.2c-1.4,0-2.4-0.7-2.8-1.5v4.8h-1
		v-11.5h1l0,1.4c0.5-0.8,1.5-1.6,2.9-1.6C590.5,449.6,591.5,450,592.1,450.8z M587.4,451.3c-0.5,0.5-0.8,1.3-0.8,2.2v0.3
		c0,0.9,0.3,1.7,0.8,2.3c0.5,0.6,1.2,0.8,1.9,0.8c0.8,0,1.5-0.3,2-0.9c0.5-0.6,0.8-1.4,0.8-2.3s-0.3-1.7-0.8-2.3
		c-0.5-0.6-1.2-0.9-2-0.9C588.5,450.5,587.9,450.8,587.4,451.3z"/>
	<path fill="#E7E1D4" d="M598.6,449.6c1.2,0,2.1,0.4,2.9,1.2s1.1,1.8,1.1,3c0,1.2-0.4,2.2-1.1,3c-0.7,0.8-1.7,1.2-2.9,1.2
		s-2.1-0.4-2.9-1.2c-0.7-0.8-1.1-1.8-1.1-3c0-1.2,0.4-2.2,1.1-3C596.4,450,597.4,449.6,598.6,449.6z M596.4,451.4
		c-0.5,0.6-0.8,1.4-0.8,2.3s0.3,1.7,0.8,2.3c0.6,0.6,1.3,0.9,2.2,0.9c0.9,0,1.6-0.3,2.1-0.9c0.5-0.6,0.8-1.4,0.8-2.3
		s-0.3-1.7-0.8-2.3c-0.5-0.6-1.2-0.9-2.1-0.9C597.7,450.5,597,450.8,596.4,451.4z"/>
	<path fill="#E7E1D4" d="M608,450.7c-0.7,0-1.2,0.2-1.6,0.7c-0.5,0.5-0.8,1.2-0.8,2.1v4.4h-1v-8h0.9l0,1.5c0.3-0.8,1.2-1.5,2.4-1.5
		V450.7z"/>
	<path fill="#E7E1D4" d="M611.2,447.7l0,2h2.2v0.9h-2.2l0,4.9c0,1,0.3,1.4,1.2,1.4c0.3,0,0.7,0,1-0.2v0.9c-0.3,0.1-0.7,0.2-1.1,0.2
		c-1.4,0-2.1-0.7-2.1-2.2l0-5h-1.6v-0.9h1.6l0-2H611.2z"/>
	<path fill="#E7E1D4" d="M620.4,452.4v5.4h-1l0-1.2c-0.4,0.8-1.4,1.3-2.5,1.3c-1.4,0-2.3-0.9-2.3-2.1c0-1.2,0.7-2,2.2-2.3l2.6-0.5
		v-0.5c0-1.3-0.6-1.9-1.7-1.9c-1.1,0-1.8,0.6-1.8,1.7h-1c0-0.8,0.3-1.4,0.8-1.9c0.5-0.5,1.2-0.8,2-0.8
		C619.4,449.6,620.4,450.6,620.4,452.4z M619.4,453.9l-2.4,0.5c-0.9,0.2-1.3,0.6-1.3,1.4c0,0.8,0.5,1.2,1.4,1.2
		c0.8,0,1.4-0.3,1.9-0.9c0.4-0.5,0.5-1,0.5-1.6V453.9z"/>
	<path fill="#E7E1D4" d="M628.7,452.6v5.2h-1v-5.1c0-1.4-0.7-2.1-1.8-2.1c-1.2,0-2.1,1.1-2.1,2.8v4.5h-1v-8h0.9l0,1.2
		c0.3-0.8,1.2-1.4,2.3-1.4C627.8,449.6,628.7,450.8,628.7,452.6z"/>
	<path fill="#E7E1D4" d="M632.6,447.7l0,2h2.2v0.9h-2.2l0,4.9c0,1,0.3,1.4,1.2,1.4c0.3,0,0.7,0,1-0.2v0.9c-0.3,0.1-0.7,0.2-1.1,0.2
		c-1.4,0-2.1-0.7-2.1-2.2l0-5H630v-0.9h1.6l0-2H632.6z"/>
	<path fill="#E7E1D4" d="M645.6,446.2v0.9c-0.3-0.1-0.7-0.2-1-0.2c-0.8,0-1.2,0.5-1.2,1.4v1.4h2.1v0.9h-2.1v7.1h-1v-7.1h-1.6v-0.9
		h1.6v-1.4c0-1.5,0.8-2.3,2.1-2.3C645,446,645.3,446,645.6,446.2z"/>
	<path fill="#E7E1D4" d="M650.3,449.6c1.2,0,2.1,0.4,2.9,1.2s1.1,1.8,1.1,3c0,1.2-0.4,2.2-1.1,3c-0.7,0.8-1.7,1.2-2.9,1.2
		s-2.1-0.4-2.9-1.2c-0.7-0.8-1.1-1.8-1.1-3c0-1.2,0.4-2.2,1.1-3C648.2,450,649.1,449.6,650.3,449.6z M648.1,451.4
		c-0.5,0.6-0.8,1.4-0.8,2.3s0.3,1.7,0.8,2.3c0.6,0.6,1.3,0.9,2.2,0.9c0.9,0,1.6-0.3,2.1-0.9c0.5-0.6,0.8-1.4,0.8-2.3
		s-0.3-1.7-0.8-2.3c-0.5-0.6-1.2-0.9-2.1-0.9C649.4,450.5,648.7,450.8,648.1,451.4z"/>
	<path fill="#E7E1D4" d="M659.7,450.7c-0.7,0-1.2,0.2-1.6,0.7c-0.5,0.5-0.8,1.2-0.8,2.1v4.4h-1v-8h0.9l0,1.5
		c0.3-0.8,1.2-1.5,2.4-1.5V450.7z"/>
	<path fill="#E7E1D4" d="M668.2,447.7l0,2h2.2v0.9h-2.2l0,4.9c0,1,0.3,1.4,1.2,1.4c0.3,0,0.7,0,1-0.2v0.9c-0.3,0.1-0.7,0.2-1.1,0.2
		c-1.4,0-2.1-0.7-2.1-2.2l0-5h-1.6v-0.9h1.6l0-2H668.2z"/>
	<path fill="#E7E1D4" d="M673.1,446.1v4.8c0.3-0.7,1.2-1.3,2.3-1.3c1.7,0,2.6,1.2,2.6,3v5.2h-1v-5.1c0-1.4-0.7-2.1-1.8-2.1
		c-1.2,0-2.1,1.1-2.1,2.8v4.5h-1v-11.7H673.1z"/>
	<path fill="#E7E1D4" d="M681.8,447.2c0,0.4-0.4,0.8-0.8,0.8c-0.4,0-0.8-0.3-0.8-0.8s0.3-0.8,0.8-0.8
		C681.5,446.4,681.8,446.8,681.8,447.2z M681.5,449.7v8h-1v-8H681.5z"/>
	<path fill="#E7E1D4" d="M688.9,452h-1c0-1-0.5-1.5-1.5-1.5c-1,0-1.5,0.5-1.5,1.3c0,0.4,0.1,0.7,0.4,0.9c0.2,0.2,0.7,0.4,1.4,0.5
		c1.9,0.5,2.6,1.2,2.6,2.4c0,1.5-1.1,2.4-2.7,2.4c-1.8,0-2.8-1-2.9-2.5h1c0,1,0.7,1.6,1.9,1.6c1.1,0,1.7-0.6,1.7-1.4
		c0-0.8-0.5-1.2-1.9-1.5c-1.7-0.4-2.4-1-2.4-2.3c0-1.3,1-2.3,2.5-2.3C687.8,449.6,688.8,450.5,688.9,452z"/>
	<path fill="#E7E1D4" d="M122,468.9l-2.6,8h-1l-2.2-6.3L114,477h-1l-2.6-8h1.1l1.9,6l0.2,0.7l0.2-0.7l2-6h0.8l2,6l0.2,0.7l0.2-0.7
		l1.9-6H122z"/>
	<path fill="#E7E1D4" d="M130.2,472.8v0.6h-6.4c0.1,1.7,1.2,2.9,2.8,2.9c1.3,0,2.1-0.5,2.5-1.5h1c-0.5,1.6-1.7,2.4-3.5,2.4
		c-1.1,0-2-0.4-2.7-1.2c-0.7-0.8-1.1-1.8-1.1-3c0-1.2,0.3-2.2,1-3c0.7-0.8,1.6-1.2,2.7-1.2C128.7,468.8,130.2,470.2,130.2,472.8z
		 M123.8,472.4h5.4c0-1.7-1-2.7-2.6-2.7C125,469.7,123.9,470.8,123.8,472.4z"/>
	<path fill="#E7E1D4" d="M133.2,465.3v5c0.4-0.8,1.5-1.5,2.8-1.5c1.1,0,2,0.4,2.7,1.2c0.7,0.8,1,1.8,1,3s-0.3,2.2-1,3
		c-0.7,0.8-1.6,1.2-2.7,1.2c-1.4,0-2.4-0.7-2.9-1.5l0,1.4h-0.9v-11.7H133.2z M134,470.6c-0.5,0.6-0.8,1.3-0.8,2.3v0.3
		c0,0.9,0.3,1.6,0.8,2.2c0.5,0.5,1.2,0.8,2,0.8c0.8,0,1.5-0.3,2-0.9c0.5-0.6,0.8-1.4,0.8-2.3s-0.3-1.7-0.8-2.3
		c-0.5-0.6-1.2-0.9-2-0.9C135.2,469.7,134.6,470,134,470.6z"/>
	<path fill="#E7E1D4" d="M146.4,471.2h-1c0-1-0.5-1.5-1.5-1.5c-1,0-1.5,0.5-1.5,1.3c0,0.4,0.1,0.7,0.4,0.9c0.2,0.2,0.7,0.4,1.4,0.5
		c1.9,0.5,2.6,1.2,2.6,2.4c0,1.5-1.1,2.4-2.7,2.4c-1.8,0-2.8-1-2.9-2.5h1c0,1,0.7,1.6,1.9,1.6c1.1,0,1.7-0.6,1.7-1.4
		c0-0.8-0.5-1.2-1.9-1.5c-1.7-0.4-2.4-1-2.4-2.3c0-1.3,1-2.3,2.5-2.3C145.4,468.8,146.4,469.7,146.4,471.2z"/>
	<path fill="#E7E1D4" d="M150.1,466.4c0,0.4-0.4,0.8-0.8,0.8c-0.4,0-0.8-0.3-0.8-0.8c0-0.4,0.3-0.8,0.8-0.8
		C149.7,465.6,150.1,466,150.1,466.4z M149.8,468.9v8h-1v-8H149.8z"/>
	<path fill="#E7E1D4" d="M153.8,466.9l0,2h2.2v0.9h-2.2l0,4.9c0,1,0.3,1.4,1.2,1.4c0.3,0,0.7,0,1-0.2v0.9c-0.3,0.1-0.7,0.2-1.1,0.2
		c-1.4,0-2.1-0.7-2.1-2.2l0-5h-1.6v-0.9h1.6l0-2H153.8z"/>
	<path fill="#E7E1D4" d="M164.5,472.8v0.6h-6.4c0.1,1.7,1.2,2.9,2.8,2.9c1.3,0,2.1-0.5,2.5-1.5h1c-0.5,1.6-1.7,2.4-3.5,2.4
		c-1.1,0-2-0.4-2.7-1.2c-0.7-0.8-1.1-1.8-1.1-3c0-1.2,0.3-2.2,1-3c0.7-0.8,1.6-1.2,2.7-1.2C163,468.8,164.5,470.2,164.5,472.8z
		 M158.1,472.4h5.4c0-1.7-1-2.7-2.6-2.7C159.3,469.7,158.2,470.8,158.1,472.4z"/>
	<path fill="#E7E1D4" d="M172.4,466.9l0,2h2.2v0.9h-2.2l0,4.9c0,1,0.3,1.4,1.2,1.4c0.3,0,0.7,0,1-0.2v0.9c-0.3,0.1-0.7,0.2-1.1,0.2
		c-1.4,0-2.1-0.7-2.1-2.2l0-5h-1.6v-0.9h1.6l0-2H172.4z"/>
	<path fill="#E7E1D4" d="M179.6,468.8c1.2,0,2.1,0.4,2.9,1.2c0.7,0.8,1.1,1.8,1.1,3s-0.4,2.2-1.1,3c-0.7,0.8-1.7,1.2-2.9,1.2
		s-2.1-0.4-2.9-1.2c-0.7-0.8-1.1-1.8-1.1-3s0.4-2.2,1.1-3C177.4,469.2,178.4,468.8,179.6,468.8z M177.4,470.6
		c-0.5,0.6-0.8,1.4-0.8,2.3s0.3,1.7,0.8,2.3c0.6,0.6,1.3,0.9,2.2,0.9c0.9,0,1.6-0.3,2.1-0.9c0.5-0.6,0.8-1.4,0.8-2.3
		s-0.3-1.7-0.8-2.3c-0.5-0.6-1.2-0.9-2.1-0.9C178.7,469.7,178,470,177.4,470.6z"/>
	<path fill="#E7E1D4" d="M200.4,468.9l-2.6,8h-1l-2.2-6.3l-2.2,6.3h-1l-2.6-8h1.1l1.9,6l0.2,0.7l0.2-0.7l2-6h0.8l2,6l0.2,0.7
		l0.2-0.7l1.9-6H200.4z"/>
	<path fill="#E7E1D4" d="M205.1,468.8c1.2,0,2.1,0.4,2.9,1.2c0.7,0.8,1.1,1.8,1.1,3s-0.4,2.2-1.1,3c-0.7,0.8-1.7,1.2-2.9,1.2
		s-2.1-0.4-2.9-1.2c-0.7-0.8-1.1-1.8-1.1-3s0.4-2.2,1.1-3C203,469.2,204,468.8,205.1,468.8z M203,470.6c-0.5,0.6-0.8,1.4-0.8,2.3
		s0.3,1.7,0.8,2.3c0.6,0.6,1.3,0.9,2.2,0.9c0.9,0,1.6-0.3,2.1-0.9c0.5-0.6,0.8-1.4,0.8-2.3s-0.3-1.7-0.8-2.3
		c-0.5-0.6-1.2-0.9-2.1-0.9C204.3,469.7,203.5,470,203,470.6z"/>
	<path fill="#E7E1D4" d="M214.5,469.9c-0.7,0-1.2,0.2-1.6,0.7c-0.5,0.5-0.8,1.2-0.8,2.1v4.4h-1v-8h0.9l0,1.5
		c0.3-0.8,1.2-1.5,2.4-1.5V469.9z"/>
	<path fill="#E7E1D4" d="M217.3,465.3v7.7l3.4-4h1.3l-2.7,3.3l3.2,4.7h-1.2l-2.7-4l-1.2,1.4v2.5h-1v-11.7H217.3z"/>
	<path fill="#E7E1D4" d="M234.9,471.3h-1c-0.3-1-1.3-1.6-2.4-1.6c-0.8,0-1.5,0.3-2,0.9c-0.5,0.6-0.8,1.4-0.8,2.3
		c0,0.9,0.3,1.7,0.8,2.3c0.5,0.6,1.2,0.9,2,0.9c1.2,0,2.1-0.6,2.4-1.6h1c-0.4,1.6-1.8,2.5-3.5,2.5c-1.1,0-2-0.4-2.8-1.2
		c-0.7-0.8-1.1-1.8-1.1-3c0-1.2,0.4-2.2,1.1-3c0.7-0.8,1.6-1.2,2.8-1.2C233.1,468.8,234.4,469.7,234.9,471.3z"/>
	<path fill="#E7E1D4" d="M240.1,468.8c1.2,0,2.1,0.4,2.9,1.2c0.7,0.8,1.1,1.8,1.1,3s-0.4,2.2-1.1,3c-0.7,0.8-1.7,1.2-2.9,1.2
		s-2.1-0.4-2.9-1.2c-0.7-0.8-1.1-1.8-1.1-3s0.4-2.2,1.1-3C238,469.2,238.9,468.8,240.1,468.8z M238,470.6c-0.5,0.6-0.8,1.4-0.8,2.3
		s0.3,1.7,0.8,2.3c0.6,0.6,1.3,0.9,2.2,0.9c0.9,0,1.6-0.3,2.1-0.9c0.5-0.6,0.8-1.4,0.8-2.3s-0.3-1.7-0.8-2.3
		c-0.5-0.6-1.2-0.9-2.1-0.9C239.2,469.7,238.5,470,238,470.6z"/>
	<path fill="#E7E1D4" d="M249.5,469.9c-0.7,0-1.2,0.2-1.6,0.7c-0.5,0.5-0.8,1.2-0.8,2.1v4.4h-1v-8h0.9l0,1.5
		c0.3-0.8,1.2-1.5,2.4-1.5V469.9z"/>
	<path fill="#E7E1D4" d="M254.7,469.9c-0.7,0-1.2,0.2-1.6,0.7c-0.5,0.5-0.8,1.2-0.8,2.1v4.4h-1v-8h0.9l0,1.5
		c0.3-0.8,1.2-1.5,2.4-1.5V469.9z"/>
	<path fill="#E7E1D4" d="M262.9,472.8v0.6h-6.4c0.1,1.7,1.2,2.9,2.8,2.9c1.3,0,2.1-0.5,2.5-1.5h1c-0.5,1.6-1.7,2.4-3.5,2.4
		c-1.1,0-2-0.4-2.7-1.2c-0.7-0.8-1.1-1.8-1.1-3c0-1.2,0.3-2.2,1-3c0.7-0.8,1.6-1.2,2.7-1.2C261.4,468.8,262.9,470.2,262.9,472.8z
		 M256.5,472.4h5.4c0-1.7-1-2.7-2.6-2.7C257.7,469.7,256.6,470.8,256.5,472.4z"/>
	<path fill="#E7E1D4" d="M271.8,471.3h-1c-0.3-1-1.3-1.6-2.4-1.6c-0.8,0-1.5,0.3-2,0.9c-0.5,0.6-0.8,1.4-0.8,2.3
		c0,0.9,0.3,1.7,0.8,2.3c0.5,0.6,1.2,0.9,2,0.9c1.2,0,2.1-0.6,2.4-1.6h1c-0.4,1.6-1.8,2.5-3.5,2.5c-1.1,0-2-0.4-2.8-1.2
		c-0.7-0.8-1.1-1.8-1.1-3c0-1.2,0.4-2.2,1.1-3c0.7-0.8,1.6-1.2,2.8-1.2C270,468.8,271.3,469.7,271.8,471.3z"/>
	<path fill="#E7E1D4" d="M275.2,466.9l0,2h2.2v0.9h-2.2l0,4.9c0,1,0.3,1.4,1.2,1.4c0.3,0,0.7,0,1-0.2v0.9c-0.3,0.1-0.7,0.2-1.1,0.2
		c-1.4,0-2.1-0.7-2.1-2.2l0-5h-1.6v-0.9h1.6l0-2H275.2z"/>
	<path fill="#E7E1D4" d="M280.1,465.3V477h-1v-11.7H280.1z"/>
	<path fill="#E7E1D4" d="M289.1,468.9l-4.5,11.5h-1.1l1.4-3.6l-3.1-7.9h1.1l2.4,6.2l0.2,0.6l0.2-0.6l2.4-6.2H289.1z"/>
	<path fill="#E7E1D4" d="M290,477.2c-0.8,0-1.2-0.9-0.6-1.5c0.5-0.6,1.5-0.1,1.5,0.6C290.8,476.8,290.4,477.2,290,477.2z"/>
	<path fill="#E7E1D4" d="M301.8,465.8l4.6,11.2h-1.2l-1.3-3.2h-5.2l-1.3,3.2h-1.2l4.6-11.2H301.8z M301.3,467.2l-0.2,0.6l-2,4.9h4.4
		l-2-4.9L301.3,467.2z"/>
	<path fill="#E7E1D4" d="M312.7,471.2h-1c0-1-0.5-1.5-1.5-1.5c-1,0-1.5,0.5-1.5,1.3c0,0.4,0.1,0.7,0.4,0.9c0.2,0.2,0.7,0.4,1.4,0.5
		c1.9,0.5,2.6,1.2,2.6,2.4c0,1.5-1.1,2.4-2.7,2.4c-1.8,0-2.8-1-2.9-2.5h1c0,1,0.7,1.6,1.9,1.6c1.1,0,1.7-0.6,1.7-1.4
		c0-0.8-0.5-1.2-1.9-1.5c-1.7-0.4-2.4-1-2.4-2.3c0-1.3,1-2.3,2.5-2.3C311.6,468.8,312.7,469.7,312.7,471.2z"/>
	<path fill="#E7E1D4" d="M324.6,471.6v5.4h-1l0-1.2c-0.4,0.8-1.4,1.3-2.5,1.3c-1.4,0-2.3-0.9-2.3-2.1c0-1.2,0.7-2,2.2-2.3l2.6-0.5
		v-0.5c0-1.3-0.6-1.9-1.7-1.9c-1.1,0-1.8,0.6-1.8,1.7h-1c0-0.8,0.3-1.4,0.8-1.9c0.5-0.5,1.2-0.8,2-0.8
		C323.7,468.8,324.6,469.8,324.6,471.6z M323.6,473.1l-2.4,0.5c-0.9,0.2-1.3,0.6-1.3,1.4c0,0.8,0.5,1.2,1.4,1.2
		c0.8,0,1.4-0.3,1.9-0.9c0.4-0.5,0.5-1,0.5-1.6V473.1z"/>
	<path fill="#E7E1D4" d="M338.3,465.3V477h-0.9l0-1.4c-0.5,0.8-1.5,1.5-2.9,1.5c-1.1,0-2-0.4-2.7-1.2c-0.7-0.8-1-1.8-1-3
		s0.3-2.2,1-3c0.7-0.8,1.6-1.2,2.7-1.2c1.3,0,2.4,0.7,2.8,1.5v-5H338.3z M332.5,470.6c-0.5,0.6-0.8,1.4-0.8,2.3s0.3,1.7,0.8,2.3
		s1.2,0.9,2,0.9c0.8,0,1.4-0.3,1.9-0.8c0.5-0.6,0.8-1.3,0.8-2.2v-0.3c0-0.9-0.3-1.7-0.8-2.3c-0.5-0.6-1.2-0.8-1.9-0.8
		C333.7,469.7,333.1,470,332.5,470.6z"/>
	<path fill="#E7E1D4" d="M347.6,472.8v0.6h-6.4c0.1,1.7,1.2,2.9,2.8,2.9c1.3,0,2.1-0.5,2.5-1.5h1c-0.5,1.6-1.7,2.4-3.5,2.4
		c-1.1,0-2-0.4-2.7-1.2c-0.7-0.8-1.1-1.8-1.1-3c0-1.2,0.3-2.2,1-3c0.7-0.8,1.6-1.2,2.7-1.2C346.1,468.8,347.6,470.2,347.6,472.8z
		 M341.2,472.4h5.4c0-1.7-1-2.7-2.6-2.7C342.4,469.7,341.3,470.8,341.2,472.4z"/>
	<path fill="#E7E1D4" d="M354.4,471.2h-1c0-1-0.5-1.5-1.5-1.5c-1,0-1.5,0.5-1.5,1.3c0,0.4,0.1,0.7,0.4,0.9c0.2,0.2,0.7,0.4,1.4,0.5
		c1.9,0.5,2.6,1.2,2.6,2.4c0,1.5-1.1,2.4-2.7,2.4c-1.8,0-2.8-1-2.9-2.5h1c0,1,0.7,1.6,1.9,1.6c1.1,0,1.7-0.6,1.7-1.4
		c0-0.8-0.5-1.2-1.9-1.5c-1.7-0.4-2.4-1-2.4-2.3c0-1.3,1-2.3,2.5-2.3C353.4,468.8,354.4,469.7,354.4,471.2z"/>
	<path fill="#E7E1D4" d="M358,466.4c0,0.4-0.4,0.8-0.8,0.8c-0.4,0-0.8-0.3-0.8-0.8c0-0.4,0.3-0.8,0.8-0.8
		C357.7,465.6,358,466,358,466.4z M357.8,468.9v8h-1v-8H357.8z"/>
	<path fill="#E7E1D4" d="M367,468.9v0.9h-1.6c0.4,0.5,0.6,1.1,0.6,1.8c0,0.8-0.3,1.5-0.8,2s-1.3,0.8-2.2,0.8c-0.7,0-1.4-0.2-1.9-0.5
		c-0.3,0.3-0.5,0.6-0.5,1c0,0.6,0.5,0.9,1.2,0.9h2.2c1.7,0,2.5,0.8,2.5,2.2c0,1.6-1.2,2.6-3.2,2.6c-2.2,0-3.4-0.9-3.4-2.4
		c0-0.8,0.3-1.3,0.9-1.6c-0.6-0.3-1.1-0.8-1.1-1.6c0-0.7,0.3-1.2,0.8-1.6c-0.4-0.5-0.5-1-0.5-1.7c0-1.7,1.2-2.9,3-2.9
		c0.4,0,0.8,0.1,1.1,0.2H367z M362.3,476.8c-0.8,0-1.3,0.5-1.3,1.4c0,1,0.8,1.6,2.4,1.6c1.5,0,2.2-0.6,2.2-1.7
		c0-0.8-0.6-1.3-1.6-1.3H362.3z M363,473.6c1.2,0,2-0.8,2-1.9c0-1.2-0.8-2-2-2s-2,0.8-2,2C361,472.8,361.8,473.6,363,473.6z"/>
	<path fill="#E7E1D4" d="M374.1,471.8v5.2h-1v-5.1c0-1.4-0.7-2.1-1.8-2.1c-1.2,0-2.1,1.1-2.1,2.8v4.5h-1v-8h0.9l0,1.2
		c0.3-0.8,1.2-1.4,2.3-1.4C373.1,468.8,374.1,470,374.1,471.8z"/>
	<path fill="#E7E1D4" d="M383.2,472.8v0.6h-6.4c0.1,1.7,1.2,2.9,2.8,2.9c1.3,0,2.1-0.5,2.5-1.5h1c-0.5,1.6-1.7,2.4-3.5,2.4
		c-1.1,0-2-0.4-2.7-1.2c-0.7-0.8-1.1-1.8-1.1-3c0-1.2,0.3-2.2,1-3c0.7-0.8,1.6-1.2,2.7-1.2C381.8,468.8,383.2,470.2,383.2,472.8z
		 M376.9,472.4h5.4c0-1.7-1-2.7-2.6-2.7C378.1,469.7,377,470.8,376.9,472.4z"/>
	<path fill="#E7E1D4" d="M388.9,469.9c-0.7,0-1.2,0.2-1.6,0.7c-0.5,0.5-0.8,1.2-0.8,2.1v4.4h-1v-8h0.9l0,1.5
		c0.3-0.8,1.2-1.5,2.4-1.5V469.9z"/>
	<path fill="#E7E1D4" d="M389.6,479.1l-0.4-0.1c0.3-0.5,0.5-1.1,0.6-1.8c-0.7,0-1-0.9-0.5-1.4c0.5-0.5,1.5-0.1,1.4,0.6
		C390.7,477.3,390.2,478.4,389.6,479.1z"/>
	<path fill="#E7E1D4" d="M398.1,465.8V477H397v-11.2H398.1z"/>
	<path fill="#E7E1D4" d="M411.8,470c0.7,0.8,1,1.8,1,3s-0.3,2.2-1,3c-0.7,0.8-1.6,1.2-2.7,1.2c-1.4,0-2.4-0.7-2.8-1.5v4.8h-1v-11.5
		h1l0,1.4c0.5-0.8,1.5-1.6,2.9-1.6C410.2,468.8,411.1,469.2,411.8,470z M407,470.5c-0.5,0.5-0.8,1.3-0.8,2.2v0.3
		c0,0.9,0.3,1.7,0.8,2.3c0.5,0.6,1.2,0.8,1.9,0.8c0.8,0,1.5-0.3,2-0.9c0.5-0.6,0.8-1.4,0.8-2.3s-0.3-1.7-0.8-2.3
		c-0.5-0.6-1.2-0.9-2-0.9C408.2,469.7,407.5,470,407,470.5z"/>
	<path fill="#E7E1D4" d="M418.2,469.9c-0.7,0-1.2,0.2-1.6,0.7c-0.5,0.5-0.8,1.2-0.8,2.1v4.4h-1v-8h0.9l0,1.5
		c0.3-0.8,1.2-1.5,2.4-1.5V469.9z"/>
	<path fill="#E7E1D4" d="M426.4,472.8v0.6H420c0.1,1.7,1.2,2.9,2.8,2.9c1.3,0,2.1-0.5,2.5-1.5h1c-0.5,1.6-1.7,2.4-3.5,2.4
		c-1.1,0-2-0.4-2.7-1.2c-0.7-0.8-1.1-1.8-1.1-3c0-1.2,0.3-2.2,1-3c0.7-0.8,1.6-1.2,2.7-1.2C424.9,468.8,426.4,470.2,426.4,472.8z
		 M420,472.4h5.4c0-1.7-1-2.7-2.6-2.7C421.2,469.7,420.1,470.8,420,472.4z"/>
	<path fill="#E7E1D4" d="M432.2,465.4v0.9c-0.3-0.1-0.7-0.2-1-0.2c-0.8,0-1.2,0.5-1.2,1.4v1.4h2.1v0.9H430v7.1h-1v-7.1h-1.6v-0.9
		h1.6v-1.4c0-1.5,0.8-2.3,2.1-2.3C431.5,465.2,431.9,465.2,432.2,465.4z"/>
	<path fill="#E7E1D4" d="M440.3,472.8v0.6h-6.4c0.1,1.7,1.2,2.9,2.8,2.9c1.3,0,2.1-0.5,2.5-1.5h1c-0.5,1.6-1.7,2.4-3.5,2.4
		c-1.1,0-2-0.4-2.7-1.2c-0.7-0.8-1.1-1.8-1.1-3c0-1.2,0.3-2.2,1-3c0.7-0.8,1.6-1.2,2.7-1.2C438.8,468.8,440.3,470.2,440.3,472.8z
		 M433.9,472.4h5.4c0-1.7-1-2.7-2.6-2.7C435.1,469.7,434,470.8,433.9,472.4z"/>
	<path fill="#E7E1D4" d="M445.9,469.9c-0.7,0-1.2,0.2-1.6,0.7c-0.5,0.5-0.8,1.2-0.8,2.1v4.4h-1v-8h0.9l0,1.5
		c0.3-0.8,1.2-1.5,2.4-1.5V469.9z"/>
	<path fill="#E7E1D4" d="M453.4,466.9l0,2h2.2v0.9h-2.2l0,4.9c0,1,0.3,1.4,1.2,1.4c0.3,0,0.7,0,1-0.2v0.9c-0.3,0.1-0.7,0.2-1.1,0.2
		c-1.4,0-2.1-0.7-2.1-2.2l0-5h-1.6v-0.9h1.6l0-2H453.4z"/>
	<path fill="#E7E1D4" d="M460.6,468.8c1.2,0,2.1,0.4,2.9,1.2c0.7,0.8,1.1,1.8,1.1,3s-0.4,2.2-1.1,3c-0.7,0.8-1.7,1.2-2.9,1.2
		s-2.1-0.4-2.9-1.2c-0.7-0.8-1.1-1.8-1.1-3s0.4-2.2,1.1-3C458.5,469.2,459.4,468.8,460.6,468.8z M458.4,470.6
		c-0.5,0.6-0.8,1.4-0.8,2.3s0.3,1.7,0.8,2.3c0.6,0.6,1.3,0.9,2.2,0.9c0.9,0,1.6-0.3,2.1-0.9c0.5-0.6,0.8-1.4,0.8-2.3
		s-0.3-1.7-0.8-2.3c-0.5-0.6-1.2-0.9-2.1-0.9C459.7,469.7,459,470,458.4,470.6z"/>
	<path fill="#E7E1D4" d="M477.6,470c0.7,0.8,1,1.8,1,3s-0.3,2.2-1,3c-0.7,0.8-1.6,1.2-2.7,1.2c-1.4,0-2.4-0.7-2.8-1.5v4.8h-1v-11.5
		h1l0,1.4c0.5-0.8,1.5-1.6,2.9-1.6C476,468.8,476.9,469.2,477.6,470z M472.8,470.5c-0.5,0.5-0.8,1.3-0.8,2.2v0.3
		c0,0.9,0.3,1.7,0.8,2.3c0.5,0.6,1.2,0.8,1.9,0.8c0.8,0,1.5-0.3,2-0.9c0.5-0.6,0.8-1.4,0.8-2.3s-0.3-1.7-0.8-2.3
		c-0.5-0.6-1.2-0.9-2-0.9C474,469.7,473.3,470,472.8,470.5z"/>
	<path fill="#E7E1D4" d="M484,469.9c-0.7,0-1.2,0.2-1.6,0.7c-0.5,0.5-0.8,1.2-0.8,2.1v4.4h-1v-8h0.9l0,1.5c0.3-0.8,1.2-1.5,2.4-1.5
		V469.9z"/>
	<path fill="#E7E1D4" d="M488.8,468.8c1.2,0,2.1,0.4,2.9,1.2c0.7,0.8,1.1,1.8,1.1,3s-0.4,2.2-1.1,3c-0.7,0.8-1.7,1.2-2.9,1.2
		s-2.1-0.4-2.9-1.2c-0.7-0.8-1.1-1.8-1.1-3s0.4-2.2,1.1-3C486.6,469.2,487.6,468.8,488.8,468.8z M486.6,470.6
		c-0.5,0.6-0.8,1.4-0.8,2.3s0.3,1.7,0.8,2.3c0.6,0.6,1.3,0.9,2.2,0.9c0.9,0,1.6-0.3,2.1-0.9c0.5-0.6,0.8-1.4,0.8-2.3
		s-0.3-1.7-0.8-2.3c-0.5-0.6-1.2-0.9-2.1-0.9C487.9,469.7,487.2,470,486.6,470.6z"/>
	<path fill="#E7E1D4" d="M500.8,468.9l-3.2,8h-1l-3.2-8h1.1l2.4,6.2l0.2,0.6l0.2-0.6l2.4-6.2H500.8z"/>
	<path fill="#E7E1D4" d="M503.7,466.4c0,0.4-0.4,0.8-0.8,0.8c-0.4,0-0.8-0.3-0.8-0.8c0-0.4,0.3-0.8,0.8-0.8
		C503.4,465.6,503.7,466,503.7,466.4z M503.5,468.9v8h-1v-8H503.5z"/>
	<path fill="#E7E1D4" d="M513,465.3V477H512l0-1.4c-0.5,0.8-1.5,1.5-2.9,1.5c-1.1,0-2-0.4-2.7-1.2c-0.7-0.8-1-1.8-1-3s0.3-2.2,1-3
		c0.7-0.8,1.6-1.2,2.7-1.2c1.3,0,2.4,0.7,2.8,1.5v-5H513z M507.2,470.6c-0.5,0.6-0.8,1.4-0.8,2.3s0.3,1.7,0.8,2.3
		c0.5,0.6,1.2,0.9,2,0.9c0.8,0,1.4-0.3,1.9-0.8c0.5-0.6,0.8-1.3,0.8-2.2v-0.3c0-0.9-0.3-1.7-0.8-2.3c-0.5-0.6-1.2-0.8-1.9-0.8
		C508.4,469.7,507.7,470,507.2,470.6z"/>
	<path fill="#E7E1D4" d="M522.2,472.8v0.6h-6.4c0.1,1.7,1.2,2.9,2.8,2.9c1.3,0,2.1-0.5,2.5-1.5h1c-0.5,1.6-1.7,2.4-3.5,2.4
		c-1.1,0-2-0.4-2.7-1.2c-0.7-0.8-1.1-1.8-1.1-3c0-1.2,0.3-2.2,1-3c0.7-0.8,1.6-1.2,2.7-1.2C520.8,468.8,522.2,470.2,522.2,472.8z
		 M515.9,472.4h5.4c0-1.7-1-2.7-2.6-2.7C517.1,469.7,516,470.8,515.9,472.4z"/>
	<path fill="#E7E1D4" d="M534,471.6v5.4h-1l0-1.2c-0.4,0.8-1.4,1.3-2.5,1.3c-1.4,0-2.3-0.9-2.3-2.1c0-1.2,0.7-2,2.2-2.3l2.6-0.5
		v-0.5c0-1.3-0.6-1.9-1.7-1.9c-1.1,0-1.8,0.6-1.8,1.7h-1c0-0.8,0.3-1.4,0.8-1.9c0.5-0.5,1.2-0.8,2-0.8
		C533,468.8,534,469.8,534,471.6z M533,473.1l-2.4,0.5c-0.9,0.2-1.3,0.6-1.3,1.4c0,0.8,0.5,1.2,1.4,1.2c0.8,0,1.4-0.3,1.9-0.9
		c0.4-0.5,0.5-1,0.5-1.6V473.1z"/>
	<path fill="#E7E1D4" d="M547.4,471.3h-1c-0.3-1-1.3-1.6-2.4-1.6c-0.8,0-1.5,0.3-2,0.9c-0.5,0.6-0.8,1.4-0.8,2.3
		c0,0.9,0.3,1.7,0.8,2.3c0.5,0.6,1.2,0.9,2,0.9c1.2,0,2.1-0.6,2.4-1.6h1c-0.4,1.6-1.8,2.5-3.5,2.5c-1.1,0-2-0.4-2.8-1.2
		c-0.7-0.8-1.1-1.8-1.1-3c0-1.2,0.4-2.2,1.1-3c0.7-0.8,1.6-1.2,2.8-1.2C545.7,468.8,547,469.7,547.4,471.3z"/>
	<path fill="#E7E1D4" d="M552.7,468.8c1.2,0,2.1,0.4,2.9,1.2c0.7,0.8,1.1,1.8,1.1,3s-0.4,2.2-1.1,3c-0.7,0.8-1.7,1.2-2.9,1.2
		s-2.1-0.4-2.9-1.2c-0.7-0.8-1.1-1.8-1.1-3s0.4-2.2,1.1-3C550.5,469.2,551.5,468.8,552.7,468.8z M550.5,470.6
		c-0.5,0.6-0.8,1.4-0.8,2.3s0.3,1.7,0.8,2.3c0.6,0.6,1.3,0.9,2.2,0.9c0.9,0,1.6-0.3,2.1-0.9c0.5-0.6,0.8-1.4,0.8-2.3
		s-0.3-1.7-0.8-2.3c-0.5-0.6-1.2-0.9-2.1-0.9C551.8,469.7,551.1,470,550.5,470.6z"/>
	<path fill="#E7E1D4" d="M569.3,471.8v5.2h-1v-5.1c0-1.4-0.7-2.1-1.8-2.1c-1.2,0-2.1,1-2.1,2.6v4.6h-1v-5.1c0-1.4-0.7-2.1-1.8-2.1
		c-1.2,0-2.1,1.1-2.1,2.8v4.5h-1v-8h0.9l0,1.2c0.3-0.8,1.2-1.4,2.3-1.4c1.2,0,2,0.5,2.4,1.6c0.4-0.9,1.3-1.6,2.5-1.6
		C568.3,468.8,569.3,470,569.3,471.8z"/>
	<path fill="#E7E1D4" d="M578.4,470c0.7,0.8,1,1.8,1,3s-0.3,2.2-1,3c-0.7,0.8-1.6,1.2-2.7,1.2c-1.4,0-2.4-0.7-2.8-1.5v4.8h-1v-11.5
		h1l0,1.4c0.5-0.8,1.5-1.6,2.9-1.6C576.8,468.8,577.7,469.2,578.4,470z M573.6,470.5c-0.5,0.5-0.8,1.3-0.8,2.2v0.3
		c0,0.9,0.3,1.7,0.8,2.3c0.5,0.6,1.2,0.8,1.9,0.8c0.8,0,1.5-0.3,2-0.9c0.5-0.6,0.8-1.4,0.8-2.3s-0.3-1.7-0.8-2.3
		c-0.5-0.6-1.2-0.9-2-0.9C574.8,469.7,574.2,470,573.6,470.5z"/>
	<path fill="#E7E1D4" d="M582.4,465.3V477h-1v-11.7H582.4z"/>
	<path fill="#E7E1D4" d="M591.7,472.8v0.6h-6.4c0.1,1.7,1.2,2.9,2.8,2.9c1.3,0,2.1-0.5,2.5-1.5h1c-0.5,1.6-1.7,2.4-3.5,2.4
		c-1.1,0-2-0.4-2.7-1.2c-0.7-0.8-1.1-1.8-1.1-3c0-1.2,0.3-2.2,1-3c0.7-0.8,1.6-1.2,2.7-1.2C590.3,468.8,591.7,470.2,591.7,472.8z
		 M585.3,472.4h5.4c0-1.7-1-2.7-2.6-2.7C586.5,469.7,585.5,470.8,585.3,472.4z"/>
	<path fill="#E7E1D4" d="M595.2,466.9l0,2h2.2v0.9h-2.2l0,4.9c0,1,0.3,1.4,1.2,1.4c0.3,0,0.7,0,1-0.2v0.9c-0.3,0.1-0.7,0.2-1.1,0.2
		c-1.4,0-2.1-0.7-2.1-2.2l0-5h-1.6v-0.9h1.6l0-2H595.2z"/>
	<path fill="#E7E1D4" d="M605.9,472.8v0.6h-6.4c0.1,1.7,1.2,2.9,2.8,2.9c1.3,0,2.1-0.5,2.5-1.5h1c-0.5,1.6-1.7,2.4-3.5,2.4
		c-1.1,0-2-0.4-2.7-1.2c-0.7-0.8-1.1-1.8-1.1-3c0-1.2,0.3-2.2,1-3c0.7-0.8,1.6-1.2,2.7-1.2C604.4,468.8,605.9,470.2,605.9,472.8z
		 M599.5,472.4h5.4c0-1.7-1-2.7-2.6-2.7C600.7,469.7,599.6,470.8,599.5,472.4z"/>
	<path fill="#E7E1D4" d="M619,472.8v0.6h-6.4c0.1,1.7,1.2,2.9,2.8,2.9c1.3,0,2.1-0.5,2.5-1.5h1c-0.5,1.6-1.7,2.4-3.5,2.4
		c-1.1,0-2-0.4-2.7-1.2c-0.7-0.8-1.1-1.8-1.1-3c0-1.2,0.3-2.2,1-3c0.7-0.8,1.6-1.2,2.7-1.2C617.6,468.8,619,470.2,619,472.8z
		 M612.7,472.4h5.4c0-1.7-1-2.7-2.6-2.7C613.9,469.7,612.8,470.8,612.7,472.4z"/>
	<path fill="#E7E1D4" d="M627.2,468.9l-2.7,3.9l2.9,4.2h-1.2l-2.4-3.3l-2.4,3.3h-1.2l2.9-4.2l-2.7-3.9h1.2l2.1,3.1l2.2-3.1H627.2z"
		/>
	<path fill="#E7E1D4" d="M635.8,470c0.7,0.8,1,1.8,1,3s-0.3,2.2-1,3c-0.7,0.8-1.6,1.2-2.7,1.2c-1.4,0-2.4-0.7-2.8-1.5v4.8h-1v-11.5
		h1l0,1.4c0.5-0.8,1.5-1.6,2.9-1.6C634.2,468.8,635.2,469.2,635.8,470z M631.1,470.5c-0.5,0.5-0.8,1.3-0.8,2.2v0.3
		c0,0.9,0.3,1.7,0.8,2.3c0.5,0.6,1.2,0.8,1.9,0.8c0.8,0,1.5-0.3,2-0.9c0.5-0.6,0.8-1.4,0.8-2.3s-0.3-1.7-0.8-2.3
		c-0.5-0.6-1.2-0.9-2-0.9C632.2,469.7,631.6,470,631.1,470.5z"/>
	<path fill="#E7E1D4" d="M645.7,472.8v0.6h-6.4c0.1,1.7,1.2,2.9,2.8,2.9c1.3,0,2.1-0.5,2.5-1.5h1c-0.5,1.6-1.7,2.4-3.5,2.4
		c-1.1,0-2-0.4-2.7-1.2c-0.7-0.8-1.1-1.8-1.1-3c0-1.2,0.3-2.2,1-3c0.7-0.8,1.6-1.2,2.7-1.2C644.2,468.8,645.7,470.2,645.7,472.8z
		 M639.3,472.4h5.4c0-1.7-1-2.7-2.6-2.7C640.5,469.7,639.4,470.8,639.3,472.4z"/>
	<path fill="#E7E1D4" d="M651.3,469.9c-0.7,0-1.2,0.2-1.6,0.7c-0.5,0.5-0.8,1.2-0.8,2.1v4.4h-1v-8h0.9l0,1.5
		c0.3-0.8,1.2-1.5,2.4-1.5V469.9z"/>
	<path fill="#E7E1D4" d="M654.3,466.4c0,0.4-0.4,0.8-0.8,0.8c-0.4,0-0.8-0.3-0.8-0.8c0-0.4,0.3-0.8,0.8-0.8
		C653.9,465.6,654.3,466,654.3,466.4z M654,468.9v8h-1v-8H654z"/>
	<path fill="#E7E1D4" d="M663.3,472.8v0.6h-6.4c0.1,1.7,1.2,2.9,2.8,2.9c1.3,0,2.1-0.5,2.5-1.5h1c-0.5,1.6-1.7,2.4-3.5,2.4
		c-1.1,0-2-0.4-2.7-1.2c-0.7-0.8-1.1-1.8-1.1-3c0-1.2,0.3-2.2,1-3c0.7-0.8,1.6-1.2,2.7-1.2C661.9,468.8,663.3,470.2,663.3,472.8z
		 M656.9,472.4h5.4c0-1.7-1-2.7-2.6-2.7C658.1,469.7,657.1,470.8,656.9,472.4z"/>
	<path fill="#E7E1D4" d="M671.3,471.8v5.2h-1v-5.1c0-1.4-0.7-2.1-1.8-2.1c-1.2,0-2.1,1.1-2.1,2.8v4.5h-1v-8h0.9l0,1.2
		c0.3-0.8,1.2-1.4,2.3-1.4C670.4,468.8,671.3,470,671.3,471.8z"/>
	<path fill="#E7E1D4" d="M680.4,471.3h-1c-0.3-1-1.3-1.6-2.4-1.6c-0.8,0-1.5,0.3-2,0.9c-0.5,0.6-0.8,1.4-0.8,2.3
		c0,0.9,0.3,1.7,0.8,2.3c0.5,0.6,1.2,0.9,2,0.9c1.2,0,2.1-0.6,2.4-1.6h1c-0.4,1.6-1.8,2.5-3.5,2.5c-1.1,0-2-0.4-2.8-1.2
		c-0.7-0.8-1.1-1.8-1.1-3c0-1.2,0.4-2.2,1.1-3c0.7-0.8,1.6-1.2,2.8-1.2C678.6,468.8,680,469.7,680.4,471.3z"/>
	<path fill="#E7E1D4" d="M689.1,472.8v0.6h-6.4c0.1,1.7,1.2,2.9,2.8,2.9c1.3,0,2.1-0.5,2.5-1.5h1c-0.5,1.6-1.7,2.4-3.5,2.4
		c-1.1,0-2-0.4-2.7-1.2c-0.7-0.8-1.1-1.8-1.1-3c0-1.2,0.3-2.2,1-3c0.7-0.8,1.6-1.2,2.7-1.2C687.6,468.8,689.1,470.2,689.1,472.8z
		 M682.7,472.4h5.4c0-1.7-1-2.7-2.6-2.7C683.9,469.7,682.8,470.8,682.7,472.4z"/>
	<path fill="#E7E1D4" d="M122,488.1l-2.6,8h-1l-2.2-6.3l-2.2,6.3h-1l-2.6-8h1.1l1.9,6l0.2,0.7l0.2-0.7l2-6h0.8l2,6l0.2,0.7l0.2-0.7
		l1.9-6H122z"/>
	<path fill="#E7E1D4" d="M124.6,484.5v4.8c0.3-0.7,1.2-1.3,2.3-1.3c1.7,0,2.6,1.2,2.6,3v5.2h-1v-5.1c0-1.4-0.7-2.1-1.8-2.1
		c-1.2,0-2.1,1.1-2.1,2.8v4.5h-1v-11.7H124.6z"/>
	<path fill="#E7E1D4" d="M138.7,492v0.6h-6.4c0.1,1.7,1.2,2.9,2.8,2.9c1.3,0,2.1-0.5,2.5-1.5h1c-0.5,1.6-1.7,2.4-3.5,2.4
		c-1.1,0-2-0.4-2.7-1.2c-0.7-0.8-1.1-1.8-1.1-3c0-1.2,0.3-2.2,1-3c0.7-0.8,1.6-1.2,2.7-1.2C137.2,488,138.7,489.4,138.7,492z
		 M132.3,491.6h5.4c0-1.7-1-2.7-2.6-2.7C133.5,488.9,132.4,490,132.3,491.6z"/>
	<path fill="#E7E1D4" d="M146.6,491v5.2h-1v-5.1c0-1.4-0.7-2.1-1.8-2.1c-1.2,0-2.1,1.1-2.1,2.8v4.5h-1v-8h0.9l0,1.2
		c0.3-0.8,1.2-1.4,2.3-1.4C145.7,488,146.6,489.2,146.6,491z"/>
	<path fill="#E7E1D4" d="M160.2,488.1l-4.5,11.5h-1.1l1.4-3.6l-3.1-7.9h1.1l2.4,6.2l0.2,0.6l0.2-0.6l2.4-6.2H160.2z"/>
	<path fill="#E7E1D4" d="M164.9,488c1.2,0,2.1,0.4,2.9,1.2c0.7,0.8,1.1,1.8,1.1,3s-0.4,2.2-1.1,3c-0.7,0.8-1.7,1.2-2.9,1.2
		s-2.1-0.4-2.9-1.2c-0.7-0.8-1.1-1.8-1.1-3s0.4-2.2,1.1-3C162.8,488.4,163.7,488,164.9,488z M162.8,489.8c-0.5,0.6-0.8,1.4-0.8,2.3
		s0.3,1.7,0.8,2.3c0.6,0.6,1.3,0.9,2.2,0.9c0.9,0,1.6-0.3,2.1-0.9c0.5-0.6,0.8-1.4,0.8-2.3s-0.3-1.7-0.8-2.3
		c-0.5-0.6-1.2-0.9-2.1-0.9C164,488.9,163.3,489.2,162.8,489.8z"/>
	<path fill="#E7E1D4" d="M176.5,488.1v8h-0.9l0-1.2c-0.3,0.8-1.2,1.4-2.3,1.4c-1.7,0-2.6-1.2-2.6-3v-5.2h1v5.1
		c0,1.4,0.7,2.2,1.8,2.2c1.2,0,2.1-1.1,2.1-2.7v-4.5H176.5z"/>
	<path fill="#E7E1D4" d="M189.7,491v5.2h-1v-5.1c0-1.4-0.7-2.1-1.8-2.1c-1.2,0-2.1,1.1-2.1,2.8v4.5h-1v-8h0.9l0,1.2
		c0.3-0.8,1.2-1.4,2.3-1.4C188.8,488,189.7,489.2,189.7,491z"/>
	<path fill="#E7E1D4" d="M197.4,490.8v5.4h-1l0-1.2c-0.4,0.8-1.4,1.3-2.5,1.3c-1.4,0-2.3-0.9-2.3-2.1c0-1.2,0.7-2,2.2-2.3l2.6-0.5
		v-0.5c0-1.3-0.6-1.9-1.7-1.9c-1.1,0-1.8,0.6-1.8,1.7h-1c0-0.8,0.3-1.4,0.8-1.9c0.5-0.5,1.2-0.8,2-0.8
		C196.5,488,197.4,489,197.4,490.8z M196.4,492.3l-2.4,0.5c-0.9,0.2-1.3,0.6-1.3,1.4c0,0.8,0.5,1.2,1.4,1.2c0.8,0,1.4-0.3,1.9-0.9
		c0.4-0.5,0.5-1,0.5-1.6V492.3z"/>
	<path fill="#E7E1D4" d="M206.2,488.1l-3.2,8h-1l-3.2-8h1.1l2.4,6.2l0.2,0.6l0.2-0.6l2.4-6.2H206.2z"/>
	<path fill="#E7E1D4" d="M209.1,485.6c0,0.4-0.4,0.8-0.8,0.8c-0.4,0-0.8-0.3-0.8-0.8c0-0.4,0.3-0.8,0.8-0.8
		C208.8,484.8,209.1,485.2,209.1,485.6z M208.8,488.1v8h-1v-8H208.8z"/>
	<path fill="#E7E1D4" d="M218.1,488.1v0.9h-1.6c0.4,0.5,0.6,1.1,0.6,1.8c0,0.8-0.3,1.5-0.8,2s-1.3,0.8-2.2,0.8
		c-0.7,0-1.4-0.2-1.9-0.5c-0.3,0.3-0.5,0.6-0.5,1c0,0.6,0.5,0.9,1.2,0.9h2.2c1.7,0,2.5,0.8,2.5,2.2c0,1.6-1.2,2.6-3.2,2.6
		c-2.2,0-3.4-0.9-3.4-2.4c0-0.8,0.3-1.3,0.9-1.6c-0.6-0.3-1.1-0.8-1.1-1.6c0-0.7,0.3-1.2,0.8-1.6c-0.4-0.5-0.5-1-0.5-1.7
		c0-1.7,1.2-2.9,3-2.9c0.4,0,0.8,0.1,1.1,0.2H218.1z M213.3,496c-0.8,0-1.3,0.5-1.3,1.4c0,1,0.8,1.6,2.4,1.6c1.5,0,2.2-0.6,2.2-1.7
		c0-0.8-0.6-1.3-1.6-1.3H213.3z M214.1,492.8c1.2,0,2-0.8,2-1.9c0-1.2-0.8-2-2-2s-2,0.8-2,2C212.1,492,212.9,492.8,214.1,492.8z"/>
	<path fill="#E7E1D4" d="M224.6,490.8v5.4h-1l0-1.2c-0.4,0.8-1.4,1.3-2.5,1.3c-1.4,0-2.3-0.9-2.3-2.1c0-1.2,0.7-2,2.2-2.3l2.6-0.5
		v-0.5c0-1.3-0.6-1.9-1.7-1.9c-1.1,0-1.8,0.6-1.8,1.7h-1c0-0.8,0.3-1.4,0.8-1.9c0.5-0.5,1.2-0.8,2-0.8
		C223.6,488,224.6,489,224.6,490.8z M223.5,492.3l-2.4,0.5c-0.9,0.2-1.3,0.6-1.3,1.4c0,0.8,0.5,1.2,1.4,1.2c0.8,0,1.4-0.3,1.9-0.9
		c0.4-0.5,0.5-1,0.5-1.6V492.3z"/>
	<path fill="#E7E1D4" d="M228.4,486.1l0,2h2.2v0.9h-2.2l0,4.9c0,1,0.3,1.4,1.2,1.4c0.3,0,0.7,0,1-0.2v0.9c-0.3,0.1-0.7,0.2-1.1,0.2
		c-1.4,0-2.1-0.7-2.1-2.2l0-5h-1.6v-0.9h1.6l0-2H228.4z"/>
	<path fill="#E7E1D4" d="M239.1,492v0.6h-6.4c0.1,1.7,1.2,2.9,2.8,2.9c1.3,0,2.1-0.5,2.5-1.5h1c-0.5,1.6-1.7,2.4-3.5,2.4
		c-1.1,0-2-0.4-2.7-1.2c-0.7-0.8-1.1-1.8-1.1-3c0-1.2,0.3-2.2,1-3c0.7-0.8,1.6-1.2,2.7-1.2C237.6,488,239.1,489.4,239.1,492z
		 M232.7,491.6h5.4c0-1.7-1-2.7-2.6-2.7C233.9,488.9,232.8,490,232.7,491.6z"/>
	<path fill="#E7E1D4" d="M246.9,484.5v4.8c0.3-0.7,1.2-1.3,2.3-1.3c1.7,0,2.6,1.2,2.6,3v5.2h-1v-5.1c0-1.4-0.7-2.1-1.8-2.1
		c-1.2,0-2.1,1.1-2.1,2.8v4.5h-1v-11.7H246.9z"/>
	<path fill="#E7E1D4" d="M261,492v0.6h-6.4c0.1,1.7,1.2,2.9,2.8,2.9c1.3,0,2.1-0.5,2.5-1.5h1c-0.5,1.6-1.7,2.4-3.5,2.4
		c-1.1,0-2-0.4-2.7-1.2c-0.7-0.8-1.1-1.8-1.1-3c0-1.2,0.3-2.2,1-3c0.7-0.8,1.6-1.2,2.7-1.2C259.5,488,261,489.4,261,492z
		 M254.6,491.6h5.4c0-1.7-1-2.7-2.6-2.7C255.8,488.9,254.7,490,254.6,491.6z"/>
	<path fill="#E7E1D4" d="M270.1,484.5v11.7h-0.9l0-1.4c-0.5,0.8-1.5,1.5-2.9,1.5c-1.1,0-2-0.4-2.7-1.2c-0.7-0.8-1-1.8-1-3
		s0.3-2.2,1-3c0.7-0.8,1.6-1.2,2.7-1.2c1.3,0,2.4,0.7,2.8,1.5v-5H270.1z M264.3,489.8c-0.5,0.6-0.8,1.4-0.8,2.3s0.3,1.7,0.8,2.3
		s1.2,0.9,2,0.9c0.8,0,1.4-0.3,1.9-0.8c0.5-0.6,0.8-1.3,0.8-2.2V492c0-0.9-0.3-1.7-0.8-2.3c-0.5-0.6-1.2-0.8-1.9-0.8
		C265.5,488.9,264.8,489.2,264.3,489.8z"/>
	<path fill="#E7E1D4" d="M277.9,490.8v5.4h-1l0-1.2c-0.4,0.8-1.4,1.3-2.5,1.3c-1.4,0-2.3-0.9-2.3-2.1c0-1.2,0.7-2,2.2-2.3l2.6-0.5
		v-0.5c0-1.3-0.6-1.9-1.7-1.9c-1.1,0-1.8,0.6-1.8,1.7h-1c0-0.8,0.3-1.4,0.8-1.9c0.5-0.5,1.2-0.8,2-0.8
		C277,488,277.9,489,277.9,490.8z M276.9,492.3l-2.4,0.5c-0.9,0.2-1.3,0.6-1.3,1.4c0,0.8,0.5,1.2,1.4,1.2c0.8,0,1.4-0.3,1.9-0.9
		c0.4-0.5,0.5-1,0.5-1.6V492.3z"/>
	<path fill="#E7E1D4" d="M291,488.1l-2.6,8h-1l-2.2-6.3l-2.2,6.3h-1l-2.6-8h1.1l1.9,6l0.2,0.7l0.2-0.7l2-6h0.8l2,6l0.2,0.7l0.2-0.7
		l1.9-6H291z"/>
	<path fill="#E7E1D4" d="M299.1,492v0.6h-6.4c0.1,1.7,1.2,2.9,2.8,2.9c1.3,0,2.1-0.5,2.5-1.5h1c-0.5,1.6-1.7,2.4-3.5,2.4
		c-1.1,0-2-0.4-2.7-1.2c-0.7-0.8-1.1-1.8-1.1-3c0-1.2,0.3-2.2,1-3c0.7-0.8,1.6-1.2,2.7-1.2C297.6,488,299.1,489.4,299.1,492z
		 M292.7,491.6h5.4c0-1.7-1-2.7-2.6-2.7C293.9,488.9,292.8,490,292.7,491.6z"/>
	<path fill="#E7E1D4" d="M307.1,491v5.2h-1v-5.1c0-1.4-0.7-2.1-1.8-2.1c-1.2,0-2.1,1.1-2.1,2.8v4.5h-1v-8h0.9l0,1.2
		c0.3-0.8,1.2-1.4,2.3-1.4C306.1,488,307.1,489.2,307.1,491z"/>
	<path fill="#E7E1D4" d="M316.2,488.1v0.9h-1.6c0.4,0.5,0.6,1.1,0.6,1.8c0,0.8-0.3,1.5-0.8,2s-1.3,0.8-2.2,0.8
		c-0.7,0-1.4-0.2-1.9-0.5c-0.3,0.3-0.5,0.6-0.5,1c0,0.6,0.5,0.9,1.2,0.9h2.2c1.7,0,2.5,0.8,2.5,2.2c0,1.6-1.2,2.6-3.2,2.6
		c-2.2,0-3.4-0.9-3.4-2.4c0-0.8,0.3-1.3,0.9-1.6c-0.6-0.3-1.1-0.8-1.1-1.6c0-0.7,0.3-1.2,0.8-1.6c-0.4-0.5-0.5-1-0.5-1.7
		c0-1.7,1.2-2.9,3-2.9c0.4,0,0.8,0.1,1.1,0.2H316.2z M311.4,496c-0.8,0-1.3,0.5-1.3,1.4c0,1,0.8,1.6,2.4,1.6c1.5,0,2.2-0.6,2.2-1.7
		c0-0.8-0.6-1.3-1.6-1.3H311.4z M312.2,492.8c1.2,0,2-0.8,2-1.9c0-1.2-0.8-2-2-2s-2,0.8-2,2C310.2,492,311,492.8,312.2,492.8z"/>
	<path fill="#E7E1D4" d="M317.6,496.4c-0.8,0-1.2-0.9-0.6-1.5c0.5-0.6,1.5-0.1,1.5,0.6C318.4,496,318.1,496.4,317.6,496.4z"/>
	<path fill="#E7E1D4" d="M327,490.5h-1c-0.3-1-1.3-1.6-2.4-1.6c-0.8,0-1.5,0.3-2,0.9c-0.5,0.6-0.8,1.4-0.8,2.3
		c0,0.9,0.3,1.7,0.8,2.3c0.5,0.6,1.2,0.9,2,0.9c1.2,0,2.1-0.6,2.4-1.6h1c-0.4,1.6-1.8,2.5-3.5,2.5c-1.1,0-2-0.4-2.8-1.2
		c-0.7-0.8-1.1-1.8-1.1-3c0-1.2,0.4-2.2,1.1-3c0.7-0.8,1.6-1.2,2.8-1.2C325.3,488,326.6,488.9,327,490.5z"/>
	<path fill="#E7E1D4" d="M332.3,488c1.2,0,2.1,0.4,2.9,1.2c0.7,0.8,1.1,1.8,1.1,3s-0.4,2.2-1.1,3c-0.7,0.8-1.7,1.2-2.9,1.2
		s-2.1-0.4-2.9-1.2c-0.7-0.8-1.1-1.8-1.1-3s0.4-2.2,1.1-3C330.1,488.4,331.1,488,332.3,488z M330.1,489.8c-0.5,0.6-0.8,1.4-0.8,2.3
		s0.3,1.7,0.8,2.3c0.6,0.6,1.3,0.9,2.2,0.9c0.9,0,1.6-0.3,2.1-0.9c0.5-0.6,0.8-1.4,0.8-2.3s-0.3-1.7-0.8-2.3
		c-0.5-0.6-1.2-0.9-2.1-0.9C331.4,488.9,330.7,489.2,330.1,489.8z"/>
	<path fill="#E7E1D4" d="M348.9,491v5.2h-1v-5.1c0-1.4-0.7-2.1-1.8-2.1c-1.2,0-2.1,1-2.1,2.6v4.6h-1v-5.1c0-1.4-0.7-2.1-1.8-2.1
		c-1.2,0-2.1,1.1-2.1,2.8v4.5h-1v-8h0.9l0,1.2c0.3-0.8,1.2-1.4,2.3-1.4c1.2,0,2,0.5,2.4,1.6c0.4-0.9,1.3-1.6,2.5-1.6
		C347.9,488,348.9,489.2,348.9,491z"/>
	<path fill="#E7E1D4" d="M351.6,496.4c-0.8,0-1.2-0.9-0.6-1.5c0.5-0.6,1.5-0.1,1.5,0.6C352.4,496,352,496.4,351.6,496.4z"/>
	<path fill="#E7E1D4" d="M362.3,485c1.1,0,1.9,0.3,2.6,0.9c0.6,0.6,1,1.4,1,2.4c0,1-0.3,1.8-1,2.4c-0.6,0.6-1.5,0.9-2.6,0.9h-2.1
		v4.6h-1.1V485H362.3z M360.2,486v4.6h2.1c1.5,0,2.5-0.9,2.5-2.3c0-1.4-1-2.4-2.5-2.4H360.2z"/>
	<path fill="#E7E1D4" d="M368.6,484.5v11.7h-1v-11.7H368.6z"/>
	<path fill="#E7E1D4" d="M377.9,492v0.6h-6.4c0.1,1.7,1.2,2.9,2.8,2.9c1.3,0,2.1-0.5,2.5-1.5h1c-0.5,1.6-1.7,2.4-3.5,2.4
		c-1.1,0-2-0.4-2.7-1.2c-0.7-0.8-1.1-1.8-1.1-3c0-1.2,0.3-2.2,1-3c0.7-0.8,1.6-1.2,2.7-1.2C376.4,488,377.9,489.4,377.9,492z
		 M371.5,491.6h5.4c0-1.7-1-2.7-2.6-2.7C372.7,488.9,371.6,490,371.5,491.6z"/>
	<path fill="#E7E1D4" d="M385.3,490.8v5.4h-1l0-1.2c-0.4,0.8-1.4,1.3-2.5,1.3c-1.4,0-2.3-0.9-2.3-2.1c0-1.2,0.7-2,2.2-2.3l2.6-0.5
		v-0.5c0-1.3-0.6-1.9-1.7-1.9c-1.1,0-1.8,0.6-1.8,1.7h-1c0-0.8,0.3-1.4,0.8-1.9c0.5-0.5,1.2-0.8,2-0.8
		C384.3,488,385.3,489,385.3,490.8z M384.2,492.3l-2.4,0.5c-0.9,0.2-1.3,0.6-1.3,1.4c0,0.8,0.5,1.2,1.4,1.2c0.8,0,1.4-0.3,1.9-0.9
		c0.4-0.5,0.5-1,0.5-1.6V492.3z"/>
	<path fill="#E7E1D4" d="M392.4,490.4h-1c0-1-0.5-1.5-1.5-1.5c-1,0-1.5,0.5-1.5,1.3c0,0.4,0.1,0.7,0.4,0.9c0.2,0.2,0.7,0.4,1.4,0.5
		c1.9,0.5,2.6,1.2,2.6,2.4c0,1.5-1.1,2.4-2.7,2.4c-1.8,0-2.8-1-2.9-2.5h1c0,1,0.7,1.6,1.9,1.6c1.1,0,1.7-0.6,1.7-1.4
		c0-0.8-0.5-1.2-1.9-1.5c-1.7-0.4-2.4-1-2.4-2.3c0-1.3,1-2.3,2.5-2.3C391.4,488,392.4,488.9,392.4,490.4z"/>
	<path fill="#E7E1D4" d="M401.4,492v0.6H395c0.1,1.7,1.2,2.9,2.8,2.9c1.3,0,2.1-0.5,2.5-1.5h1c-0.5,1.6-1.7,2.4-3.5,2.4
		c-1.1,0-2-0.4-2.7-1.2c-0.7-0.8-1.1-1.8-1.1-3c0-1.2,0.3-2.2,1-3c0.7-0.8,1.6-1.2,2.7-1.2C400,488,401.4,489.4,401.4,492z
		 M395,491.6h5.4c0-1.7-1-2.7-2.6-2.7C396.2,488.9,395.2,490,395,491.6z"/>
	<path fill="#E7E1D4" d="M414,488.1v8H413l0-1.2c-0.3,0.8-1.2,1.4-2.3,1.4c-1.7,0-2.6-1.2-2.6-3v-5.2h1v5.1c0,1.4,0.7,2.2,1.8,2.2
		c1.2,0,2.1-1.1,2.1-2.7v-4.5H414z"/>
	<path fill="#E7E1D4" d="M421.3,490.4h-1c0-1-0.5-1.5-1.5-1.5c-1,0-1.5,0.5-1.5,1.3c0,0.4,0.1,0.7,0.4,0.9c0.2,0.2,0.7,0.4,1.4,0.5
		c1.9,0.5,2.6,1.2,2.6,2.4c0,1.5-1.1,2.4-2.7,2.4c-1.8,0-2.8-1-2.9-2.5h1c0,1,0.7,1.6,1.9,1.6c1.1,0,1.7-0.6,1.7-1.4
		c0-0.8-0.5-1.2-1.9-1.5c-1.7-0.4-2.4-1-2.4-2.3c0-1.3,1-2.3,2.5-2.3C420.2,488,421.2,488.9,421.3,490.4z"/>
	<path fill="#E7E1D4" d="M430.3,492v0.6h-6.4c0.1,1.7,1.2,2.9,2.8,2.9c1.3,0,2.1-0.5,2.5-1.5h1c-0.5,1.6-1.7,2.4-3.5,2.4
		c-1.1,0-2-0.4-2.7-1.2c-0.7-0.8-1.1-1.8-1.1-3c0-1.2,0.3-2.2,1-3c0.7-0.8,1.6-1.2,2.7-1.2C428.8,488,430.3,489.4,430.3,492z
		 M423.9,491.6h5.4c0-1.7-1-2.7-2.6-2.7C425.1,488.9,424,490,423.9,491.6z"/>
	<path fill="#E7E1D4" d="M440.4,488c1.2,0,2.1,0.4,2.9,1.2c0.7,0.8,1.1,1.8,1.1,3s-0.4,2.2-1.1,3c-0.7,0.8-1.7,1.2-2.9,1.2
		s-2.1-0.4-2.9-1.2c-0.7-0.8-1.1-1.8-1.1-3s0.4-2.2,1.1-3C438.3,488.4,439.2,488,440.4,488z M438.3,489.8c-0.5,0.6-0.8,1.4-0.8,2.3
		s0.3,1.7,0.8,2.3c0.6,0.6,1.3,0.9,2.2,0.9c0.9,0,1.6-0.3,2.1-0.9c0.5-0.6,0.8-1.4,0.8-2.3s-0.3-1.7-0.8-2.3
		c-0.5-0.6-1.2-0.9-2.1-0.9C439.5,488.9,438.8,489.2,438.3,489.8z"/>
	<path fill="#E7E1D4" d="M452.2,491v5.2h-1v-5.1c0-1.4-0.7-2.1-1.8-2.1c-1.2,0-2.1,1.1-2.1,2.8v4.5h-1v-8h0.9l0,1.2
		c0.3-0.8,1.2-1.4,2.3-1.4C451.2,488,452.2,489.2,452.2,491z"/>
	<path fill="#E7E1D4" d="M461.3,492v0.6H455c0.1,1.7,1.2,2.9,2.8,2.9c1.3,0,2.1-0.5,2.5-1.5h1c-0.5,1.6-1.7,2.4-3.5,2.4
		c-1.1,0-2-0.4-2.7-1.2c-0.7-0.8-1.1-1.8-1.1-3c0-1.2,0.3-2.2,1-3c0.7-0.8,1.6-1.2,2.7-1.2C459.9,488,461.3,489.4,461.3,492z
		 M455,491.6h5.4c0-1.7-1-2.7-2.6-2.7C456.2,488.9,455.1,490,455,491.6z"/>
	<path fill="#E7E1D4" d="M471.5,488c1.2,0,2.1,0.4,2.9,1.2c0.7,0.8,1.1,1.8,1.1,3s-0.4,2.2-1.1,3c-0.7,0.8-1.7,1.2-2.9,1.2
		s-2.1-0.4-2.9-1.2c-0.7-0.8-1.1-1.8-1.1-3s0.4-2.2,1.1-3C469.4,488.4,470.3,488,471.5,488z M469.3,489.8c-0.5,0.6-0.8,1.4-0.8,2.3
		s0.3,1.7,0.8,2.3c0.6,0.6,1.3,0.9,2.2,0.9c0.9,0,1.6-0.3,2.1-0.9c0.5-0.6,0.8-1.4,0.8-2.3s-0.3-1.7-0.8-2.3
		c-0.5-0.6-1.2-0.9-2.1-0.9C470.6,488.9,469.9,489.2,469.3,489.8z"/>
	<path fill="#E7E1D4" d="M481.1,484.6v0.9c-0.3-0.1-0.7-0.2-1-0.2c-0.8,0-1.2,0.5-1.2,1.4v1.4h2.1v0.9h-2.1v7.1h-1v-7.1h-1.6v-0.9
		h1.6v-1.4c0-1.5,0.8-2.3,2.1-2.3C480.4,484.4,480.8,484.4,481.1,484.6z"/>
	<path fill="#E7E1D4" d="M488.7,486.1l0,2h2.2v0.9h-2.2l0,4.9c0,1,0.3,1.4,1.2,1.4c0.3,0,0.7,0,1-0.2v0.9c-0.3,0.1-0.7,0.2-1.1,0.2
		c-1.4,0-2.1-0.7-2.1-2.2l0-5H486v-0.9h1.6l0-2H488.7z"/>
	<path fill="#E7E1D4" d="M493.6,484.5v4.8c0.3-0.7,1.2-1.3,2.3-1.3c1.7,0,2.6,1.2,2.6,3v5.2h-1v-5.1c0-1.4-0.7-2.1-1.8-2.1
		c-1.2,0-2.1,1.1-2.1,2.8v4.5h-1v-11.7H493.6z"/>
	<path fill="#E7E1D4" d="M507.6,492v0.6h-6.4c0.1,1.7,1.2,2.9,2.8,2.9c1.3,0,2.1-0.5,2.5-1.5h1c-0.5,1.6-1.7,2.4-3.5,2.4
		c-1.1,0-2-0.4-2.7-1.2c-0.7-0.8-1.1-1.8-1.1-3c0-1.2,0.3-2.2,1-3c0.7-0.8,1.6-1.2,2.7-1.2C506.2,488,507.6,489.4,507.6,492z
		 M501.2,491.6h5.4c0-1.7-1-2.7-2.6-2.7C502.4,488.9,501.4,490,501.2,491.6z"/>
	<path fill="#E7E1D4" d="M514.4,490.4h-1c0-1-0.5-1.5-1.5-1.5c-1,0-1.5,0.5-1.5,1.3c0,0.4,0.1,0.7,0.4,0.9c0.2,0.2,0.7,0.4,1.4,0.5
		c1.9,0.5,2.6,1.2,2.6,2.4c0,1.5-1.1,2.4-2.7,2.4c-1.8,0-2.8-1-2.9-2.5h1c0,1,0.7,1.6,1.9,1.6c1.1,0,1.7-0.6,1.7-1.4
		c0-0.8-0.5-1.2-1.9-1.5c-1.7-0.4-2.4-1-2.4-2.3c0-1.3,1-2.3,2.5-2.3C513.4,488,514.4,488.9,514.4,490.4z"/>
	<path fill="#E7E1D4" d="M523.4,492v0.6h-6.4c0.1,1.7,1.2,2.9,2.8,2.9c1.3,0,2.1-0.5,2.5-1.5h1c-0.5,1.6-1.7,2.4-3.5,2.4
		c-1.1,0-2-0.4-2.7-1.2c-0.7-0.8-1.1-1.8-1.1-3c0-1.2,0.3-2.2,1-3c0.7-0.8,1.6-1.2,2.7-1.2C522,488,523.4,489.4,523.4,492z
		 M517.1,491.6h5.4c0-1.7-1-2.7-2.6-2.7C518.3,488.9,517.2,490,517.1,491.6z"/>
	<path fill="#E7E1D4" d="M541,491v5.2h-1v-5.1c0-1.4-0.7-2.1-1.8-2.1c-1.2,0-2.1,1-2.1,2.6v4.6h-1v-5.1c0-1.4-0.7-2.1-1.8-2.1
		c-1.2,0-2.1,1.1-2.1,2.8v4.5h-1v-8h0.9l0,1.2c0.3-0.8,1.2-1.4,2.3-1.4c1.2,0,2,0.5,2.4,1.6c0.4-0.9,1.3-1.6,2.5-1.6
		C540.1,488,541,489.2,541,491z"/>
	<path fill="#E7E1D4" d="M546.8,488c1.2,0,2.1,0.4,2.9,1.2c0.7,0.8,1.1,1.8,1.1,3s-0.4,2.2-1.1,3c-0.7,0.8-1.7,1.2-2.9,1.2
		s-2.1-0.4-2.9-1.2c-0.7-0.8-1.1-1.8-1.1-3s0.4-2.2,1.1-3C544.6,488.4,545.6,488,546.8,488z M544.6,489.8c-0.5,0.6-0.8,1.4-0.8,2.3
		s0.3,1.7,0.8,2.3c0.6,0.6,1.3,0.9,2.2,0.9c0.9,0,1.6-0.3,2.1-0.9c0.5-0.6,0.8-1.4,0.8-2.3s-0.3-1.7-0.8-2.3
		c-0.5-0.6-1.2-0.9-2.1-0.9C545.9,488.9,545.2,489.2,544.6,489.8z"/>
	<path fill="#E7E1D4" d="M559.7,484.5v11.7h-0.9l0-1.4c-0.5,0.8-1.5,1.5-2.9,1.5c-1.1,0-2-0.4-2.7-1.2c-0.7-0.8-1-1.8-1-3
		s0.3-2.2,1-3c0.7-0.8,1.6-1.2,2.7-1.2c1.3,0,2.4,0.7,2.8,1.5v-5H559.7z M554,489.8c-0.5,0.6-0.8,1.4-0.8,2.3s0.3,1.7,0.8,2.3
		c0.5,0.6,1.2,0.9,2,0.9c0.8,0,1.4-0.3,1.9-0.8c0.5-0.6,0.8-1.3,0.8-2.2V492c0-0.9-0.3-1.7-0.8-2.3c-0.5-0.6-1.2-0.8-1.9-0.8
		C555.2,488.9,554.5,489.2,554,489.8z"/>
	<path fill="#E7E1D4" d="M569,492v0.6h-6.4c0.1,1.7,1.2,2.9,2.8,2.9c1.3,0,2.1-0.5,2.5-1.5h1c-0.5,1.6-1.7,2.4-3.5,2.4
		c-1.1,0-2-0.4-2.7-1.2c-0.7-0.8-1.1-1.8-1.1-3c0-1.2,0.3-2.2,1-3c0.7-0.8,1.6-1.2,2.7-1.2C567.6,488,569,489.4,569,492z
		 M562.6,491.6h5.4c0-1.7-1-2.7-2.6-2.7C563.8,488.9,562.8,490,562.6,491.6z"/>
	<path fill="#E7E1D4" d="M574.6,489.1c-0.7,0-1.2,0.2-1.6,0.7c-0.5,0.5-0.8,1.2-0.8,2.1v4.4h-1v-8h0.9l0,1.5
		c0.3-0.8,1.2-1.5,2.4-1.5V489.1z"/>
	<path fill="#E7E1D4" d="M582.2,491v5.2h-1v-5.1c0-1.4-0.7-2.1-1.8-2.1c-1.2,0-2.1,1.1-2.1,2.8v4.5h-1v-8h0.9l0,1.2
		c0.3-0.8,1.2-1.4,2.3-1.4C581.2,488,582.2,489.2,582.2,491z"/>
	<path fill="#E7E1D4" d="M600,488.1l-2.6,8h-1l-2.2-6.3l-2.2,6.3h-1l-2.6-8h1.1l1.9,6l0.2,0.7l0.2-0.7l2-6h0.8l2,6l0.2,0.7l0.2-0.7
		l1.9-6H600z"/>
	<path fill="#E7E1D4" d="M608.1,492v0.6h-6.4c0.1,1.7,1.2,2.9,2.8,2.9c1.3,0,2.1-0.5,2.5-1.5h1c-0.5,1.6-1.7,2.4-3.5,2.4
		c-1.1,0-2-0.4-2.7-1.2c-0.7-0.8-1.1-1.8-1.1-3c0-1.2,0.3-2.2,1-3c0.7-0.8,1.6-1.2,2.7-1.2C606.7,488,608.1,489.4,608.1,492z
		 M601.7,491.6h5.4c0-1.7-1-2.7-2.6-2.7C602.9,488.9,601.9,490,601.7,491.6z"/>
	<path fill="#E7E1D4" d="M611.2,484.5v5c0.4-0.8,1.5-1.5,2.8-1.5c1.1,0,2,0.4,2.7,1.2c0.7,0.8,1,1.8,1,3s-0.3,2.2-1,3
		c-0.7,0.8-1.6,1.2-2.7,1.2c-1.4,0-2.4-0.7-2.9-1.5l0,1.4h-0.9v-11.7H611.2z M612,489.8c-0.5,0.6-0.8,1.3-0.8,2.3v0.3
		c0,0.9,0.3,1.6,0.8,2.2c0.5,0.5,1.2,0.8,2,0.8c0.8,0,1.5-0.3,2-0.9c0.5-0.6,0.8-1.4,0.8-2.3s-0.3-1.7-0.8-2.3
		c-0.5-0.6-1.2-0.9-2-0.9C613.2,488.9,612.5,489.2,612,489.8z"/>
	<path fill="#E7E1D4" d="M625.4,484.5v5c0.4-0.8,1.5-1.5,2.8-1.5c1.1,0,2,0.4,2.7,1.2c0.7,0.8,1,1.8,1,3s-0.3,2.2-1,3
		c-0.7,0.8-1.6,1.2-2.7,1.2c-1.4,0-2.4-0.7-2.9-1.5l0,1.4h-0.9v-11.7H625.4z M626.2,489.8c-0.5,0.6-0.8,1.3-0.8,2.3v0.3
		c0,0.9,0.3,1.6,0.8,2.2c0.5,0.5,1.2,0.8,2,0.8c0.8,0,1.5-0.3,2-0.9c0.5-0.6,0.8-1.4,0.8-2.3s-0.3-1.7-0.8-2.3
		c-0.5-0.6-1.2-0.9-2-0.9C627.4,488.9,626.8,489.2,626.2,489.8z"/>
	<path fill="#E7E1D4" d="M637.4,489.1c-0.7,0-1.2,0.2-1.6,0.7c-0.5,0.5-0.8,1.2-0.8,2.1v4.4h-1v-8h0.9l0,1.5
		c0.3-0.8,1.2-1.5,2.4-1.5V489.1z"/>
	<path fill="#E7E1D4" d="M642.2,488c1.2,0,2.1,0.4,2.9,1.2c0.7,0.8,1.1,1.8,1.1,3s-0.4,2.2-1.1,3c-0.7,0.8-1.7,1.2-2.9,1.2
		s-2.1-0.4-2.9-1.2c-0.7-0.8-1.1-1.8-1.1-3s0.4-2.2,1.1-3C640.1,488.4,641,488,642.2,488z M640.1,489.8c-0.5,0.6-0.8,1.4-0.8,2.3
		s0.3,1.7,0.8,2.3c0.6,0.6,1.3,0.9,2.2,0.9c0.9,0,1.6-0.3,2.1-0.9c0.5-0.6,0.8-1.4,0.8-2.3s-0.3-1.7-0.8-2.3
		c-0.5-0.6-1.2-0.9-2.1-0.9C641.3,488.9,640.6,489.2,640.1,489.8z"/>
	<path fill="#E7E1D4" d="M658.5,488.1l-2.6,8h-1l-2.2-6.3l-2.2,6.3h-1l-2.6-8h1.1l1.9,6l0.2,0.7l0.2-0.7l2-6h0.8l2,6l0.2,0.7
		l0.2-0.7l1.9-6H658.5z"/>
	<path fill="#E7E1D4" d="M664.8,490.4h-1c0-1-0.5-1.5-1.5-1.5c-1,0-1.5,0.5-1.5,1.3c0,0.4,0.1,0.7,0.4,0.9c0.2,0.2,0.7,0.4,1.4,0.5
		c1.9,0.5,2.6,1.2,2.6,2.4c0,1.5-1.1,2.4-2.7,2.4c-1.8,0-2.8-1-2.9-2.5h1c0,1,0.7,1.6,1.9,1.6c1.1,0,1.7-0.6,1.7-1.4
		c0-0.8-0.5-1.2-1.9-1.5c-1.7-0.4-2.4-1-2.4-2.3c0-1.3,1-2.3,2.5-2.3C663.8,488,664.8,488.9,664.8,490.4z"/>
	<path fill="#E7E1D4" d="M673.8,492v0.6h-6.4c0.1,1.7,1.2,2.9,2.8,2.9c1.3,0,2.1-0.5,2.5-1.5h1c-0.5,1.6-1.7,2.4-3.5,2.4
		c-1.1,0-2-0.4-2.7-1.2c-0.7-0.8-1.1-1.8-1.1-3c0-1.2,0.3-2.2,1-3c0.7-0.8,1.6-1.2,2.7-1.2C672.4,488,673.8,489.4,673.8,492z
		 M667.4,491.6h5.4c0-1.7-1-2.7-2.6-2.7C668.6,488.9,667.6,490,667.4,491.6z"/>
	<path fill="#E7E1D4" d="M679.4,489.1c-0.7,0-1.2,0.2-1.6,0.7c-0.5,0.5-0.8,1.2-0.8,2.1v4.4h-1v-8h0.9l0,1.5
		c0.3-0.8,1.2-1.5,2.4-1.5V489.1z"/>
	<path fill="#E7E1D4" d="M685.8,490.4h-1c0-1-0.5-1.5-1.5-1.5c-1,0-1.5,0.5-1.5,1.3c0,0.4,0.1,0.7,0.4,0.9c0.2,0.2,0.7,0.4,1.4,0.5
		c1.9,0.5,2.6,1.2,2.6,2.4c0,1.5-1.1,2.4-2.7,2.4c-1.8,0-2.8-1-2.9-2.5h1c0,1,0.7,1.6,1.9,1.6c1.1,0,1.7-0.6,1.7-1.4
		c0-0.8-0.5-1.2-1.9-1.5c-1.7-0.4-2.4-1-2.4-2.3c0-1.3,1-2.3,2.5-2.3C684.8,488,685.8,488.9,685.8,490.4z"/>
	<path fill="#E7E1D4" d="M688.3,496.4c-0.8,0-1.2-0.9-0.6-1.5c0.5-0.6,1.5-0.1,1.5,0.6C689.2,496,688.8,496.4,688.3,496.4z
		 M687.5,488.8c0-0.5,0.4-0.9,0.9-0.9c0.5,0,0.8,0.4,0.8,0.9s-0.4,0.8-0.8,0.8C687.8,489.7,687.5,489.3,687.5,488.8z"/>
	<path fill="#E7E1D4" d="M121.2,507.3H120c-0.5-1.5-1.8-2.4-3.7-2.4c-1.3,0-2.3,0.5-3.2,1.4c-0.8,0.9-1.2,2-1.2,3.4s0.4,2.5,1.2,3.5
		c0.8,0.9,1.9,1.4,3.2,1.4c2.4,0,3.9-1.2,3.9-3.8h-3.7v-1h4.8v0.6c0,1.6-0.4,2.9-1.3,3.8c-0.9,0.9-2.1,1.4-3.7,1.4
		c-1.6,0-2.9-0.5-4-1.6c-1-1.1-1.6-2.5-1.6-4.2c0-1.7,0.5-3,1.6-4.1c1-1.1,2.4-1.7,4-1.7C118.8,504,120.6,505.2,121.2,507.3z"/>
	<path fill="#E7E1D4" d="M126.7,507.2c1.2,0,2.1,0.4,2.9,1.2c0.7,0.8,1.1,1.8,1.1,3s-0.4,2.2-1.1,3c-0.7,0.8-1.7,1.2-2.9,1.2
		s-2.1-0.4-2.9-1.2c-0.7-0.8-1.1-1.8-1.1-3s0.4-2.2,1.1-3C124.6,507.6,125.5,507.2,126.7,507.2z M124.5,509
		c-0.5,0.6-0.8,1.4-0.8,2.3s0.3,1.7,0.8,2.3c0.6,0.6,1.3,0.9,2.2,0.9c0.9,0,1.6-0.3,2.1-0.9c0.5-0.6,0.8-1.4,0.8-2.3
		s-0.3-1.7-0.8-2.3c-0.5-0.6-1.2-0.9-2.1-0.9C125.8,508.1,125.1,508.4,124.5,509z"/>
	<path fill="#E7E1D4" d="M136.1,507.2c1.2,0,2.1,0.4,2.9,1.2c0.7,0.8,1.1,1.8,1.1,3s-0.4,2.2-1.1,3c-0.7,0.8-1.7,1.2-2.9,1.2
		s-2.1-0.4-2.9-1.2c-0.7-0.8-1.1-1.8-1.1-3s0.4-2.2,1.1-3C133.9,507.6,134.9,507.2,136.1,507.2z M133.9,509
		c-0.5,0.6-0.8,1.4-0.8,2.3s0.3,1.7,0.8,2.3c0.6,0.6,1.3,0.9,2.2,0.9c0.9,0,1.6-0.3,2.1-0.9c0.5-0.6,0.8-1.4,0.8-2.3
		s-0.3-1.7-0.8-2.3c-0.5-0.6-1.2-0.9-2.1-0.9C135.2,508.1,134.5,508.4,133.9,509z"/>
	<path fill="#E7E1D4" d="M148.6,507.3v0.9h-1.6c0.4,0.5,0.6,1.1,0.6,1.8c0,0.8-0.3,1.5-0.8,2s-1.3,0.8-2.2,0.8
		c-0.7,0-1.4-0.2-1.9-0.5c-0.3,0.3-0.5,0.6-0.5,1c0,0.6,0.5,0.9,1.2,0.9h2.2c1.7,0,2.5,0.8,2.5,2.2c0,1.6-1.2,2.6-3.2,2.6
		c-2.2,0-3.4-0.9-3.4-2.4c0-0.8,0.3-1.3,0.9-1.6c-0.6-0.3-1.1-0.8-1.1-1.6c0-0.7,0.3-1.2,0.8-1.6c-0.4-0.5-0.5-1-0.5-1.7
		c0-1.7,1.2-2.9,3-2.9c0.4,0,0.8,0.1,1.1,0.2H148.6z M143.9,515.2c-0.8,0-1.3,0.5-1.3,1.4c0,1,0.8,1.6,2.4,1.6
		c1.5,0,2.2-0.6,2.2-1.7c0-0.8-0.6-1.3-1.6-1.3H143.9z M144.6,512c1.2,0,2-0.8,2-1.9c0-1.2-0.8-2-2-2s-2,0.8-2,2
		C142.6,511.2,143.4,512,144.6,512z"/>
	<path fill="#E7E1D4" d="M150.8,503.7v11.7h-1v-11.7H150.8z"/>
	<path fill="#E7E1D4" d="M160.2,511.2v0.6h-6.4c0.1,1.7,1.2,2.9,2.8,2.9c1.3,0,2.1-0.5,2.5-1.5h1c-0.5,1.6-1.7,2.4-3.5,2.4
		c-1.1,0-2-0.4-2.7-1.2c-0.7-0.8-1.1-1.8-1.1-3c0-1.2,0.3-2.2,1-3c0.7-0.8,1.6-1.2,2.7-1.2C158.7,507.2,160.2,508.6,160.2,511.2z
		 M153.8,510.8h5.4c0-1.7-1-2.7-2.6-2.7C155,508.1,153.9,509.2,153.8,510.8z"/>
	<path fill="#E7E1D4" d="M175.4,507.3h-1.2c-0.5-1.5-1.8-2.4-3.7-2.4c-1.3,0-2.3,0.5-3.2,1.4c-0.8,0.9-1.2,2-1.2,3.4
		s0.4,2.5,1.2,3.5c0.8,0.9,1.9,1.4,3.2,1.4c1.9,0,3.2-0.9,3.7-2.4h1.2c-0.7,2.2-2.4,3.4-4.9,3.4c-1.6,0-2.9-0.5-4-1.6
		c-1-1.1-1.6-2.5-1.6-4.2c0-1.7,0.5-3,1.6-4.1c1-1.1,2.4-1.7,4-1.7C173,504,174.8,505.2,175.4,507.3z"/>
	<path fill="#E7E1D4" d="M178.2,503.7v4.8c0.3-0.7,1.2-1.3,2.3-1.3c1.7,0,2.6,1.2,2.6,3v5.2h-1v-5.1c0-1.4-0.7-2.1-1.8-2.1
		c-1.2,0-2.1,1.1-2.1,2.8v4.5h-1v-11.7H178.2z"/>
	<path fill="#E7E1D4" d="M189.1,508.3c-0.7,0-1.2,0.2-1.6,0.7c-0.5,0.5-0.8,1.2-0.8,2.1v4.4h-1v-8h0.9l0,1.5
		c0.3-0.8,1.2-1.5,2.4-1.5V508.3z"/>
	<path fill="#E7E1D4" d="M193.9,507.2c1.2,0,2.1,0.4,2.9,1.2c0.7,0.8,1.1,1.8,1.1,3s-0.4,2.2-1.1,3c-0.7,0.8-1.7,1.2-2.9,1.2
		s-2.1-0.4-2.9-1.2c-0.7-0.8-1.1-1.8-1.1-3s0.4-2.2,1.1-3C191.7,507.6,192.7,507.2,193.9,507.2z M191.7,509
		c-0.5,0.6-0.8,1.4-0.8,2.3s0.3,1.7,0.8,2.3c0.6,0.6,1.3,0.9,2.2,0.9c0.9,0,1.6-0.3,2.1-0.9c0.5-0.6,0.8-1.4,0.8-2.3
		s-0.3-1.7-0.8-2.3c-0.5-0.6-1.2-0.9-2.1-0.9C193,508.1,192.3,508.4,191.7,509z"/>
	<path fill="#E7E1D4" d="M210.4,510.2v5.2h-1v-5.1c0-1.4-0.7-2.1-1.8-2.1c-1.2,0-2.1,1-2.1,2.6v4.6h-1v-5.1c0-1.4-0.7-2.1-1.8-2.1
		c-1.2,0-2.1,1.1-2.1,2.8v4.5h-1v-8h0.9l0,1.2c0.3-0.8,1.2-1.4,2.3-1.4c1.2,0,2,0.5,2.4,1.6c0.4-0.9,1.3-1.6,2.5-1.6
		C209.5,507.2,210.4,508.4,210.4,510.2z"/>
	<path fill="#E7E1D4" d="M219.6,511.2v0.6h-6.4c0.1,1.7,1.2,2.9,2.8,2.9c1.3,0,2.1-0.5,2.5-1.5h1c-0.5,1.6-1.7,2.4-3.5,2.4
		c-1.1,0-2-0.4-2.7-1.2c-0.7-0.8-1.1-1.8-1.1-3c0-1.2,0.3-2.2,1-3c0.7-0.8,1.6-1.2,2.7-1.2C218.1,507.2,219.6,508.6,219.6,511.2z
		 M213.2,510.8h5.4c0-1.7-1-2.7-2.6-2.7C214.4,508.1,213.3,509.2,213.2,510.8z"/>
	<path fill="#E7E1D4" d="M221.2,517.5l-0.4-0.1c0.3-0.5,0.5-1.1,0.6-1.8c-0.7,0-1-0.9-0.5-1.4c0.5-0.5,1.5-0.1,1.4,0.6
		C222.3,515.7,221.9,516.8,221.2,517.5z"/>
	<path fill="#E7E1D4" d="M238.9,504.2v11.2h-1.1v-9l-0.3,0.8l-3.9,8.2h-0.8l-3.9-8.2l-0.3-0.8v9h-1.1v-11.2h1.1l4.2,8.8l0.3,0.8
		l0.4-0.8l4.2-8.8H238.9z"/>
	<path fill="#E7E1D4" d="M244.8,507.2c1.2,0,2.1,0.4,2.9,1.2c0.7,0.8,1.1,1.8,1.1,3s-0.4,2.2-1.1,3c-0.7,0.8-1.7,1.2-2.9,1.2
		s-2.1-0.4-2.9-1.2c-0.7-0.8-1.1-1.8-1.1-3s0.4-2.2,1.1-3C242.7,507.6,243.6,507.2,244.8,507.2z M242.7,509
		c-0.5,0.6-0.8,1.4-0.8,2.3s0.3,1.7,0.8,2.3c0.6,0.6,1.3,0.9,2.2,0.9c0.9,0,1.6-0.3,2.1-0.9c0.5-0.6,0.8-1.4,0.8-2.3
		s-0.3-1.7-0.8-2.3c-0.5-0.6-1.2-0.9-2.1-0.9C243.9,508.1,243.2,508.4,242.7,509z"/>
	<path fill="#E7E1D4" d="M255.9,507.3v0.8l-4.6,6.3h4.9v0.9h-6.3v-0.8l4.6-6.3H250v-0.9H255.9z"/>
	<path fill="#E7E1D4" d="M259.2,504.8c0,0.4-0.4,0.8-0.8,0.8c-0.4,0-0.8-0.3-0.8-0.8c0-0.4,0.3-0.8,0.8-0.8
		C258.9,504,259.2,504.4,259.2,504.8z M258.9,507.3v8h-1v-8H258.9z"/>
	<path fill="#E7E1D4" d="M262.6,503.7v11.7h-1v-11.7H262.6z"/>
	<path fill="#E7E1D4" d="M266.3,503.7v11.7h-1v-11.7H266.3z"/>
	<path fill="#E7E1D4" d="M274.2,510v5.4h-1l0-1.2c-0.4,0.8-1.4,1.3-2.5,1.3c-1.4,0-2.3-0.9-2.3-2.1c0-1.2,0.7-2,2.2-2.3l2.6-0.5V510
		c0-1.3-0.6-1.9-1.7-1.9c-1.1,0-1.8,0.6-1.8,1.7h-1c0-0.8,0.3-1.4,0.8-1.9c0.5-0.5,1.2-0.8,2-0.8C273.2,507.2,274.2,508.2,274.2,510
		z M273.2,511.5l-2.4,0.5c-0.9,0.2-1.3,0.6-1.3,1.4c0,0.8,0.5,1.2,1.4,1.2c0.8,0,1.4-0.3,1.9-0.9c0.4-0.5,0.5-1,0.5-1.6V511.5z"/>
	<path fill="#E7E1D4" d="M285.9,504.2v1h-4.8v4.1h4.1v1h-4.1v5.1H280v-11.2H285.9z"/>
	<path fill="#E7E1D4" d="M288.8,504.8c0,0.4-0.4,0.8-0.8,0.8c-0.4,0-0.8-0.3-0.8-0.8c0-0.4,0.3-0.8,0.8-0.8
		C288.5,504,288.8,504.4,288.8,504.8z M288.5,507.3v8h-1v-8H288.5z"/>
	<path fill="#E7E1D4" d="M294.7,508.3c-0.7,0-1.2,0.2-1.6,0.7c-0.5,0.5-0.8,1.2-0.8,2.1v4.4h-1v-8h0.9l0,1.5
		c0.3-0.8,1.2-1.5,2.4-1.5V508.3z"/>
	<path fill="#E7E1D4" d="M302.9,511.2v0.6h-6.4c0.1,1.7,1.2,2.9,2.8,2.9c1.3,0,2.1-0.5,2.5-1.5h1c-0.5,1.6-1.7,2.4-3.5,2.4
		c-1.1,0-2-0.4-2.7-1.2c-0.7-0.8-1.1-1.8-1.1-3c0-1.2,0.3-2.2,1-3c0.7-0.8,1.6-1.2,2.7-1.2C301.4,507.2,302.9,508.6,302.9,511.2z
		 M296.5,510.8h5.4c0-1.7-1-2.7-2.6-2.7C297.7,508.1,296.6,509.2,296.5,510.8z"/>
	<path fill="#E7E1D4" d="M308.7,503.8v0.9c-0.3-0.1-0.7-0.2-1-0.2c-0.8,0-1.2,0.5-1.2,1.4v1.4h2.1v0.9h-2.1v7.1h-1v-7.1h-1.6v-0.9
		h1.6v-1.4c0-1.5,0.8-2.3,2.1-2.3C308,503.6,308.4,503.6,308.7,503.8z"/>
	<path fill="#E7E1D4" d="M313.4,507.2c1.2,0,2.1,0.4,2.9,1.2c0.7,0.8,1.1,1.8,1.1,3s-0.4,2.2-1.1,3c-0.7,0.8-1.7,1.2-2.9,1.2
		s-2.1-0.4-2.9-1.2c-0.7-0.8-1.1-1.8-1.1-3s0.4-2.2,1.1-3C311.2,507.6,312.2,507.2,313.4,507.2z M311.2,509
		c-0.5,0.6-0.8,1.4-0.8,2.3s0.3,1.7,0.8,2.3c0.6,0.6,1.3,0.9,2.2,0.9c0.9,0,1.6-0.3,2.1-0.9c0.5-0.6,0.8-1.4,0.8-2.3
		s-0.3-1.7-0.8-2.3c-0.5-0.6-1.2-0.9-2.1-0.9C312.5,508.1,311.8,508.4,311.2,509z"/>
	<path fill="#E7E1D4" d="M325,507.3l-2.7,3.9l2.9,4.2H324l-2.4-3.3l-2.4,3.3H318l2.9-4.2l-2.7-3.9h1.2l2.1,3.1l2.2-3.1H325z"/>
	<path fill="#E7E1D4" d="M333.6,507.2c1.2,0,2.1,0.4,2.9,1.2c0.7,0.8,1.1,1.8,1.1,3s-0.4,2.2-1.1,3c-0.7,0.8-1.7,1.2-2.9,1.2
		s-2.1-0.4-2.9-1.2c-0.7-0.8-1.1-1.8-1.1-3s0.4-2.2,1.1-3C331.4,507.6,332.4,507.2,333.6,507.2z M331.4,509
		c-0.5,0.6-0.8,1.4-0.8,2.3s0.3,1.7,0.8,2.3c0.6,0.6,1.3,0.9,2.2,0.9c0.9,0,1.6-0.3,2.1-0.9c0.5-0.6,0.8-1.4,0.8-2.3
		s-0.3-1.7-0.8-2.3c-0.5-0.6-1.2-0.9-2.1-0.9C332.7,508.1,332,508.4,331.4,509z"/>
	<path fill="#E7E1D4" d="M343,508.3c-0.7,0-1.2,0.2-1.6,0.7c-0.5,0.5-0.8,1.2-0.8,2.1v4.4h-1v-8h0.9l0,1.5c0.3-0.8,1.2-1.5,2.4-1.5
		V508.3z"/>
	<path fill="#E7E1D4" d="M352.6,504.2l4.6,11.2H356l-1.3-3.2h-5.2l-1.3,3.2H347l4.6-11.2H352.6z M352.1,505.6l-0.2,0.6l-2,4.9h4.4
		l-2-4.9L352.1,505.6z"/>
	<path fill="#E7E1D4" d="M365.5,508.4c0.7,0.8,1,1.8,1,3s-0.3,2.2-1,3c-0.7,0.8-1.6,1.2-2.7,1.2c-1.4,0-2.4-0.7-2.8-1.5v4.8h-1
		v-11.5h1l0,1.4c0.5-0.8,1.5-1.6,2.9-1.6C363.9,507.2,364.8,507.6,365.5,508.4z M360.7,508.9c-0.5,0.5-0.8,1.3-0.8,2.2v0.3
		c0,0.9,0.3,1.7,0.8,2.3c0.5,0.6,1.2,0.8,1.9,0.8c0.8,0,1.5-0.3,2-0.9c0.5-0.6,0.8-1.4,0.8-2.3s-0.3-1.7-0.8-2.3
		c-0.5-0.6-1.2-0.9-2-0.9C361.9,508.1,361.3,508.4,360.7,508.9z"/>
	<path fill="#E7E1D4" d="M375.1,508.4c0.7,0.8,1,1.8,1,3s-0.3,2.2-1,3c-0.7,0.8-1.6,1.2-2.7,1.2c-1.4,0-2.4-0.7-2.8-1.5v4.8h-1
		v-11.5h1l0,1.4c0.5-0.8,1.5-1.6,2.9-1.6C373.5,507.2,374.4,507.6,375.1,508.4z M370.3,508.9c-0.5,0.5-0.8,1.3-0.8,2.2v0.3
		c0,0.9,0.3,1.7,0.8,2.3c0.5,0.6,1.2,0.8,1.9,0.8c0.8,0,1.5-0.3,2-0.9c0.5-0.6,0.8-1.4,0.8-2.3s-0.3-1.7-0.8-2.3
		c-0.5-0.6-1.2-0.9-2-0.9C371.5,508.1,370.9,508.4,370.3,508.9z"/>
	<path fill="#E7E1D4" d="M379.1,503.7v11.7h-1v-11.7H379.1z"/>
	<path fill="#E7E1D4" d="M388.4,511.2v0.6H382c0.1,1.7,1.2,2.9,2.8,2.9c1.3,0,2.1-0.5,2.5-1.5h1c-0.5,1.6-1.7,2.4-3.5,2.4
		c-1.1,0-2-0.4-2.7-1.2c-0.7-0.8-1.1-1.8-1.1-3c0-1.2,0.3-2.2,1-3c0.7-0.8,1.6-1.2,2.7-1.2C387,507.2,388.4,508.6,388.4,511.2z
		 M382,510.8h5.4c0-1.7-1-2.7-2.6-2.7C383.2,508.1,382.2,509.2,382,510.8z"/>
	<path fill="#E7E1D4" d="M399.8,507h-1.1c0-1.3-0.8-2.1-2.1-2.1c-1.2,0-2,0.8-2,2c0,0.6,0.2,1,0.5,1.3c0.3,0.3,1,0.6,1.9,1
		c1.2,0.4,2,0.9,2.4,1.4c0.5,0.4,0.7,1.1,0.7,1.9c0,1-0.3,1.8-0.9,2.3c-0.6,0.6-1.4,0.8-2.4,0.8c-2.2,0-3.6-1.3-3.6-3.4h1.1
		c0,1.6,0.9,2.5,2.5,2.5c1.5,0,2.3-0.9,2.3-2.2c0-1-0.7-1.6-2.6-2.3c-1-0.4-1.8-0.8-2.3-1.3s-0.7-1.1-0.7-1.9c0-0.8,0.3-1.6,0.8-2.1
		c0.5-0.6,1.3-0.9,2.3-0.9C398.6,504,399.8,505.1,399.8,507z"/>
	<path fill="#E7E1D4" d="M407.4,510v5.4h-1l0-1.2c-0.4,0.8-1.4,1.3-2.5,1.3c-1.4,0-2.3-0.9-2.3-2.1c0-1.2,0.7-2,2.2-2.3l2.6-0.5V510
		c0-1.3-0.6-1.9-1.7-1.9c-1.1,0-1.8,0.6-1.8,1.7h-1c0-0.8,0.3-1.4,0.8-1.9c0.5-0.5,1.2-0.8,2-0.8C406.5,507.2,407.4,508.2,407.4,510
		z M406.4,511.5L404,512c-0.9,0.2-1.3,0.6-1.3,1.4c0,0.8,0.5,1.2,1.4,1.2c0.8,0,1.4-0.3,1.9-0.9c0.4-0.5,0.5-1,0.5-1.6V511.5z"/>
	<path fill="#E7E1D4" d="M413.6,503.8v0.9c-0.3-0.1-0.7-0.2-1-0.2c-0.8,0-1.2,0.5-1.2,1.4v1.4h2.1v0.9h-2.1v7.1h-1v-7.1h-1.6v-0.9
		h1.6v-1.4c0-1.5,0.8-2.3,2.1-2.3C412.9,503.6,413.3,503.6,413.6,503.8z"/>
	<path fill="#E7E1D4" d="M420.2,510v5.4h-1l0-1.2c-0.4,0.8-1.4,1.3-2.5,1.3c-1.4,0-2.3-0.9-2.3-2.1c0-1.2,0.7-2,2.2-2.3l2.6-0.5V510
		c0-1.3-0.6-1.9-1.7-1.9c-1.1,0-1.8,0.6-1.8,1.7h-1c0-0.8,0.3-1.4,0.8-1.9c0.5-0.5,1.2-0.8,2-0.8C419.3,507.2,420.2,508.2,420.2,510
		z M419.2,511.5l-2.4,0.5c-0.9,0.2-1.3,0.6-1.3,1.4c0,0.8,0.5,1.2,1.4,1.2c0.8,0,1.4-0.3,1.9-0.9c0.4-0.5,0.5-1,0.5-1.6V511.5z"/>
	<path fill="#E7E1D4" d="M426.2,508.3c-0.7,0-1.2,0.2-1.6,0.7c-0.5,0.5-0.8,1.2-0.8,2.1v4.4h-1v-8h0.9l0,1.5
		c0.3-0.8,1.2-1.5,2.4-1.5V508.3z"/>
	<path fill="#E7E1D4" d="M429.2,504.8c0,0.4-0.4,0.8-0.8,0.8c-0.4,0-0.8-0.3-0.8-0.8c0-0.4,0.3-0.8,0.8-0.8
		C428.8,504,429.2,504.4,429.2,504.8z M428.9,507.3v8h-1v-8H428.9z"/>
	<path fill="#E7E1D4" d="M431.8,515.6c-0.8,0-1.2-0.9-0.6-1.5c0.5-0.6,1.5-0.1,1.5,0.6C432.6,515.2,432.2,515.6,431.8,515.6z"/>
	<path fill="#E7E1D4" d="M443.9,507h-1.1c0-1.3-0.8-2.1-2.1-2.1c-1.2,0-2,0.8-2,2c0,0.6,0.2,1,0.5,1.3s1,0.6,1.9,1
		c1.2,0.4,2,0.9,2.4,1.4c0.5,0.4,0.7,1.1,0.7,1.9c0,1-0.3,1.8-0.9,2.3c-0.6,0.6-1.4,0.8-2.4,0.8c-2.2,0-3.6-1.3-3.6-3.4h1.1
		c0,1.6,0.9,2.5,2.5,2.5c1.5,0,2.3-0.9,2.3-2.2c0-1-0.7-1.6-2.6-2.3c-1-0.4-1.8-0.8-2.3-1.3c-0.5-0.4-0.7-1.1-0.7-1.9
		c0-0.8,0.3-1.6,0.8-2.1c0.5-0.6,1.3-0.9,2.3-0.9C442.7,504,443.9,505.1,443.9,507z"/>
	<path fill="#E7E1D4" d="M449.5,507.2c1.2,0,2.1,0.4,2.9,1.2c0.7,0.8,1.1,1.8,1.1,3s-0.4,2.2-1.1,3c-0.7,0.8-1.7,1.2-2.9,1.2
		s-2.1-0.4-2.9-1.2c-0.7-0.8-1.1-1.8-1.1-3s0.4-2.2,1.1-3C447.4,507.6,448.3,507.2,449.5,507.2z M447.4,509
		c-0.5,0.6-0.8,1.4-0.8,2.3s0.3,1.7,0.8,2.3c0.6,0.6,1.3,0.9,2.2,0.9c0.9,0,1.6-0.3,2.1-0.9c0.5-0.6,0.8-1.4,0.8-2.3
		s-0.3-1.7-0.8-2.3c-0.5-0.6-1.2-0.9-2.1-0.9C448.6,508.1,447.9,508.4,447.4,509z"/>
	<path fill="#E7E1D4" d="M458.9,508.3c-0.7,0-1.2,0.2-1.6,0.7c-0.5,0.5-0.8,1.2-0.8,2.1v4.4h-1v-8h0.9l0,1.5
		c0.3-0.8,1.2-1.5,2.4-1.5V508.3z"/>
	<path fill="#E7E1D4" d="M464.1,508.3c-0.7,0-1.2,0.2-1.6,0.7c-0.5,0.5-0.8,1.2-0.8,2.1v4.4h-1v-8h0.9l0,1.5
		c0.3-0.8,1.2-1.5,2.4-1.5V508.3z"/>
	<path fill="#E7E1D4" d="M472.2,507.3l-4.5,11.5h-1.1l1.4-3.6l-3.1-7.9h1.1l2.4,6.2l0.2,0.6l0.2-0.6l2.4-6.2H472.2z"/>
	<path fill="#E7E1D4" d="M480.9,503.8v0.9c-0.3-0.1-0.7-0.2-1-0.2c-0.8,0-1.2,0.5-1.2,1.4v1.4h2.1v0.9h-2.1v7.1h-1v-7.1h-1.6v-0.9
		h1.6v-1.4c0-1.5,0.8-2.3,2.1-2.3C480.2,503.6,480.6,503.6,480.9,503.8z"/>
	<path fill="#E7E1D4" d="M485.6,507.2c1.2,0,2.1,0.4,2.9,1.2c0.7,0.8,1.1,1.8,1.1,3s-0.4,2.2-1.1,3c-0.7,0.8-1.7,1.2-2.9,1.2
		s-2.1-0.4-2.9-1.2c-0.7-0.8-1.1-1.8-1.1-3s0.4-2.2,1.1-3C483.4,507.6,484.4,507.2,485.6,507.2z M483.4,509
		c-0.5,0.6-0.8,1.4-0.8,2.3s0.3,1.7,0.8,2.3c0.6,0.6,1.3,0.9,2.2,0.9c0.9,0,1.6-0.3,2.1-0.9c0.5-0.6,0.8-1.4,0.8-2.3
		s-0.3-1.7-0.8-2.3c-0.5-0.6-1.2-0.9-2.1-0.9C484.7,508.1,484,508.4,483.4,509z"/>
	<path fill="#E7E1D4" d="M495,508.3c-0.7,0-1.2,0.2-1.6,0.7c-0.5,0.5-0.8,1.2-0.8,2.1v4.4h-1v-8h0.9l0,1.5c0.3-0.8,1.2-1.5,2.4-1.5
		V508.3z"/>
	<path fill="#E7E1D4" d="M501.4,505.3l0,2h2.2v0.9h-2.2l0,4.9c0,1,0.3,1.4,1.2,1.4c0.3,0,0.7,0,1-0.2v0.9c-0.3,0.1-0.7,0.2-1.1,0.2
		c-1.4,0-2.1-0.7-2.1-2.2l0-5h-1.6v-0.9h1.6l0-2H501.4z"/>
	<path fill="#E7E1D4" d="M506.4,503.7v4.8c0.3-0.7,1.2-1.3,2.3-1.3c1.7,0,2.6,1.2,2.6,3v5.2h-1v-5.1c0-1.4-0.7-2.1-1.8-2.1
		c-1.2,0-2.1,1.1-2.1,2.8v4.5h-1v-11.7H506.4z"/>
	<path fill="#E7E1D4" d="M520.4,511.2v0.6H514c0.1,1.7,1.2,2.9,2.8,2.9c1.3,0,2.1-0.5,2.5-1.5h1c-0.5,1.6-1.7,2.4-3.5,2.4
		c-1.1,0-2-0.4-2.7-1.2c-0.7-0.8-1.1-1.8-1.1-3c0-1.2,0.3-2.2,1-3c0.7-0.8,1.6-1.2,2.7-1.2C519,507.2,520.4,508.6,520.4,511.2z
		 M514,510.8h5.4c0-1.7-1-2.7-2.6-2.7C515.2,508.1,514.1,509.2,514,510.8z"/>
	<path fill="#E7E1D4" d="M527.2,504.8c0,0.4-0.4,0.8-0.8,0.8c-0.4,0-0.8-0.3-0.8-0.8c0-0.4,0.3-0.8,0.8-0.8
		C526.9,504,527.2,504.4,527.2,504.8z M526.9,507.3v8h-1v-8H526.9z"/>
	<path fill="#E7E1D4" d="M535.4,510.2v5.2h-1v-5.1c0-1.4-0.7-2.1-1.8-2.1c-1.2,0-2.1,1.1-2.1,2.8v4.5h-1v-8h0.9l0,1.2
		c0.3-0.8,1.2-1.4,2.3-1.4C534.5,507.2,535.4,508.4,535.4,510.2z"/>
	<path fill="#E7E1D4" d="M544.5,509.7h-1c-0.3-1-1.3-1.6-2.4-1.6c-0.8,0-1.5,0.3-2,0.9c-0.5,0.6-0.8,1.4-0.8,2.3
		c0,0.9,0.3,1.7,0.8,2.3c0.5,0.6,1.2,0.9,2,0.9c1.2,0,2.1-0.6,2.4-1.6h1c-0.4,1.6-1.8,2.5-3.5,2.5c-1.1,0-2-0.4-2.8-1.2
		c-0.7-0.8-1.1-1.8-1.1-3c0-1.2,0.4-2.2,1.1-3c0.7-0.8,1.6-1.2,2.8-1.2C542.8,507.2,544.1,508.1,544.5,509.7z"/>
	<path fill="#E7E1D4" d="M549.8,507.2c1.2,0,2.1,0.4,2.9,1.2c0.7,0.8,1.1,1.8,1.1,3s-0.4,2.2-1.1,3c-0.7,0.8-1.7,1.2-2.9,1.2
		s-2.1-0.4-2.9-1.2c-0.7-0.8-1.1-1.8-1.1-3s0.4-2.2,1.1-3C547.6,507.6,548.6,507.2,549.8,507.2z M547.6,509
		c-0.5,0.6-0.8,1.4-0.8,2.3s0.3,1.7,0.8,2.3c0.6,0.6,1.3,0.9,2.2,0.9c0.9,0,1.6-0.3,2.1-0.9c0.5-0.6,0.8-1.4,0.8-2.3
		s-0.3-1.7-0.8-2.3c-0.5-0.6-1.2-0.9-2.1-0.9C548.9,508.1,548.2,508.4,547.6,509z"/>
	<path fill="#E7E1D4" d="M561.5,510.2v5.2h-1v-5.1c0-1.4-0.7-2.1-1.8-2.1c-1.2,0-2.1,1.1-2.1,2.8v4.5h-1v-8h0.9l0,1.2
		c0.3-0.8,1.2-1.4,2.3-1.4C560.6,507.2,561.5,508.4,561.5,510.2z"/>
	<path fill="#E7E1D4" d="M570.3,507.3l-3.2,8h-1l-3.2-8h1.1l2.4,6.2l0.2,0.6l0.2-0.6l2.4-6.2H570.3z"/>
	<path fill="#E7E1D4" d="M578.4,511.2v0.6h-6.4c0.1,1.7,1.2,2.9,2.8,2.9c1.3,0,2.1-0.5,2.5-1.5h1c-0.5,1.6-1.7,2.4-3.5,2.4
		c-1.1,0-2-0.4-2.7-1.2c-0.7-0.8-1.1-1.8-1.1-3c0-1.2,0.3-2.2,1-3c0.7-0.8,1.6-1.2,2.7-1.2C577,507.2,578.4,508.6,578.4,511.2z
		 M572.1,510.8h5.4c0-1.7-1-2.7-2.6-2.7C573.3,508.1,572.2,509.2,572.1,510.8z"/>
	<path fill="#E7E1D4" d="M586.4,510.2v5.2h-1v-5.1c0-1.4-0.7-2.1-1.8-2.1c-1.2,0-2.1,1.1-2.1,2.8v4.5h-1v-8h0.9l0,1.2
		c0.3-0.8,1.2-1.4,2.3-1.4C585.5,507.2,586.4,508.4,586.4,510.2z"/>
	<path fill="#E7E1D4" d="M590.2,504.8c0,0.4-0.4,0.8-0.8,0.8c-0.4,0-0.8-0.3-0.8-0.8c0-0.4,0.3-0.8,0.8-0.8
		C589.9,504,590.2,504.4,590.2,504.8z M589.9,507.3v8h-1v-8H589.9z"/>
	<path fill="#E7E1D4" d="M599.3,511.2v0.6h-6.4c0.1,1.7,1.2,2.9,2.8,2.9c1.3,0,2.1-0.5,2.5-1.5h1c-0.5,1.6-1.7,2.4-3.5,2.4
		c-1.1,0-2-0.4-2.7-1.2c-0.7-0.8-1.1-1.8-1.1-3c0-1.2,0.3-2.2,1-3c0.7-0.8,1.6-1.2,2.7-1.2C597.8,507.2,599.3,508.6,599.3,511.2z
		 M592.9,510.8h5.4c0-1.7-1-2.7-2.6-2.7C594.1,508.1,593,509.2,592.9,510.8z"/>
	<path fill="#E7E1D4" d="M607.2,510.2v5.2h-1v-5.1c0-1.4-0.7-2.1-1.8-2.1c-1.2,0-2.1,1.1-2.1,2.8v4.5h-1v-8h0.9l0,1.2
		c0.3-0.8,1.2-1.4,2.3-1.4C606.3,507.2,607.2,508.4,607.2,510.2z"/>
	<path fill="#E7E1D4" d="M616.3,509.7h-1c-0.3-1-1.3-1.6-2.4-1.6c-0.8,0-1.5,0.3-2,0.9c-0.5,0.6-0.8,1.4-0.8,2.3
		c0,0.9,0.3,1.7,0.8,2.3c0.5,0.6,1.2,0.9,2,0.9c1.2,0,2.1-0.6,2.4-1.6h1c-0.4,1.6-1.8,2.5-3.5,2.5c-1.1,0-2-0.4-2.8-1.2
		c-0.7-0.8-1.1-1.8-1.1-3c0-1.2,0.4-2.2,1.1-3c0.7-0.8,1.6-1.2,2.8-1.2C614.5,507.2,615.9,508.1,616.3,509.7z"/>
	<path fill="#E7E1D4" d="M625,511.2v0.6h-6.4c0.1,1.7,1.2,2.9,2.8,2.9c1.3,0,2.1-0.5,2.5-1.5h1c-0.5,1.6-1.7,2.4-3.5,2.4
		c-1.1,0-2-0.4-2.7-1.2c-0.7-0.8-1.1-1.8-1.1-3c0-1.2,0.3-2.2,1-3c0.7-0.8,1.6-1.2,2.7-1.2C623.5,507.2,625,508.6,625,511.2z
		 M618.6,510.8h5.4c0-1.7-1-2.7-2.6-2.7C619.8,508.1,618.7,509.2,618.6,510.8z"/>
	<path fill="#E7E1D4" d="M626.9,515.6c-0.8,0-1.2-0.9-0.6-1.5c0.5-0.6,1.5-0.1,1.5,0.6C627.8,515.2,627.4,515.6,626.9,515.6z"/>
</g>
</svg>
