<?xml version="1.0" encoding="utf-8"?>
<!-- Generator: Adobe Illustrator 18.0.0, SVG Export Plug-In . SVG Version: 6.00 Build 0)  -->
<!DOCTYPE svg PUBLIC "-//W3C//DTD SVG 1.1//EN" "http://www.w3.org/Graphics/SVG/1.1/DTD/svg11.dtd">
<svg version="1.1" id="Layer_1" xmlns="http://www.w3.org/2000/svg" xmlns:xlink="http://www.w3.org/1999/xlink" x="0px" y="0px"
	 viewBox="0 0 600 300" enable-background="new 0 0 600 300" xml:space="preserve">
<g>
	<path fill="#E7E1D4" d="M259.9,13.1v20.4c0,9-4.7,13.8-13,13.8c-8.2,0-12.9-4.8-12.9-13.8V13.1h3.2v20.4c0,7.2,3.3,10.8,9.7,10.8
		s9.7-3.6,9.7-10.8V13.1H259.9z"/>
	<path fill="#E7E1D4" d="M270.2,11.6v14.4c0.8-2.1,3.6-4,6.8-4c5,0,7.9,3.6,7.9,9.1v15.6h-3V31.4c0-4.2-2-6.4-5.3-6.4
		c-3.7,0-6.3,3.3-6.3,8.3v13.4h-3v-35H270.2z"/>
	<path fill="#E7E1D4" d="M304.7,32.8v2.7h-15.1v-2.7H304.7z"/>
	<path fill="#E7E1D4" d="M319.7,22c3.6,0,6.4,1.2,8.6,3.6s3.3,5.4,3.3,9c0,3.6-1.1,6.7-3.3,9c-2.2,2.4-5.1,3.6-8.6,3.6
		c-3.6,0-6.4-1.2-8.7-3.6c-2.2-2.4-3.3-5.4-3.3-9c0-3.6,1.1-6.7,3.3-9C313.2,23.2,316.1,22,319.7,22z M313.2,27.6
		c-1.6,1.8-2.4,4.1-2.4,7c0,2.8,0.8,5.1,2.4,7c1.7,1.8,3.8,2.7,6.5,2.7c2.6,0,4.8-0.9,6.4-2.7c1.6-1.9,2.4-4.2,2.4-7
		c0-2.8-0.8-5.1-2.4-7c-1.6-1.9-3.7-2.8-6.4-2.8C317,24.9,314.9,25.8,313.2,27.6z"/>
	<path fill="#E7E1D4" d="M340.3,11.6v14.4c0.8-2.1,3.6-4,6.8-4c5,0,7.9,3.6,7.9,9.1v15.6h-3V31.4c0-4.2-2-6.4-5.3-6.4
		c-3.7,0-6.3,3.3-6.3,8.3v13.4h-3v-35H340.3z"/>
	<path fill="#E7E1D4" d="M364,47.2c-1.5,0-2.6-1.1-2.6-2.5s1.1-2.6,2.6-2.6s2.6,1.1,2.6,2.6C366.6,46,365.5,47.2,364,47.2z
		 M365.5,13.1v24.3h-3V13.1H365.5z"/>
	<path fill="#E7E1D4" d="M122.5,70.7v33.6h-3.2V70.7H122.5z"/>
	<path fill="#E7E1D4" d="M148,88.7v15.6h-3V89c0-4.2-2-6.4-5.3-6.4c-3.7,0-6.3,3.3-6.3,8.3v13.4h-3V80.2h2.8l0.1,3.6
		c1-2.3,3.6-4.2,6.9-4.2C145.2,79.6,148,83.3,148,88.7z"/>
	<path fill="#E7E1D4" d="M159.6,74l0,6.1h6.5V83h-6.6l-0.1,14.6c0,2.9,0.8,4.2,3.6,4.2c1,0,2.1-0.1,3.1-0.5v2.7
		c-0.8,0.3-2,0.5-3.4,0.5c-4.2,0-6.3-2-6.2-6.6l0.1-15h-4.8v-2.8h4.8l0-6.1H159.6z"/>
	<path fill="#E7E1D4" d="M191.5,91.7v1.7h-19.2c0.2,5.2,3.7,8.6,8.4,8.6c3.8,0,6.2-1.5,7.4-4.5h3.1c-1.5,4.7-5.2,7.3-10.6,7.3
		c-3.3,0-6-1.2-8.2-3.5c-2.1-2.3-3.2-5.3-3.2-9.1c0-3.7,1-6.7,3.1-9.1c2.1-2.4,4.8-3.6,8.2-3.6C187.2,79.6,191.5,84,191.5,91.7z
		 M172.4,90.6h16.1c0-5-3.1-8.2-7.9-8.2C176,82.5,172.8,85.8,172.4,90.6z"/>
	<path fill="#E7E1D4" d="M208.4,82.9c-2,0-3.6,0.7-4.9,2c-1.5,1.5-2.3,3.6-2.3,6.3v13.1h-3V80.2h2.8l0.1,4.4c1-2.5,3.5-4.6,7.3-4.6
		V82.9z"/>
	<path fill="#E7E1D4" d="M231.1,88.7v15.6h-3V89c0-4.2-2-6.4-5.3-6.4c-3.7,0-6.3,3.3-6.3,8.3v13.4h-3V80.2h2.8l0.1,3.6
		c1-2.3,3.6-4.2,6.9-4.2C228.2,79.6,231.1,83.3,231.1,88.7z"/>
	<path fill="#E7E1D4" d="M258.5,91.7v1.7h-19.2c0.2,5.2,3.7,8.6,8.4,8.6c3.8,0,6.2-1.5,7.4-4.5h3.1c-1.5,4.7-5.2,7.3-10.6,7.3
		c-3.3,0-6-1.2-8.2-3.5c-2.1-2.3-3.2-5.3-3.2-9.1c0-3.7,1-6.7,3.1-9.1c2.1-2.4,4.8-3.6,8.2-3.6C254.1,79.6,258.5,84,258.5,91.7z
		 M239.4,90.6h16.1c0-5-3.1-8.2-7.9-8.2C243,82.5,239.7,85.8,239.4,90.6z"/>
	<path fill="#E7E1D4" d="M269.1,74l0,6.1h6.5V83H269l-0.1,14.6c0,2.9,0.8,4.2,3.6,4.2c1,0,2.1-0.1,3.1-0.5v2.7
		c-0.8,0.3-2,0.5-3.4,0.5c-4.2,0-6.3-2-6.2-6.6l0.1-15h-4.8v-2.8h4.8l0-6.1H269.1z"/>
	<path fill="#E7E1D4" d="M309.1,70.7v3h-14.9v11.8h13.2v3h-13.2v12.9h14.9v3h-18V70.7H309.1z"/>
	<path fill="#E7E1D4" d="M333.4,80.2l-8.1,11.6l8.8,12.5h-3.6l-7.1-10l-7.1,10h-3.6l8.7-12.5l-8.1-11.6h3.6l6.4,9.2l6.5-9.2H333.4z"
		/>
	<path fill="#E7E1D4" d="M359.3,83.2c2.1,2.4,3.1,5.4,3.1,9c0,3.6-1,6.7-3.1,9c-2.1,2.4-4.8,3.6-8.2,3.6c-4.1,0-7.2-2.1-8.4-4.6
		v14.4h-3.1V80.2h2.9l0,4.1c1.4-2.4,4.6-4.7,8.6-4.7C354.6,79.6,357.3,80.8,359.3,83.2z M345,85c-1.6,1.6-2.4,3.8-2.4,6.6v1
		c0,2.8,0.8,5.1,2.4,6.8c1.6,1.7,3.6,2.5,5.8,2.5c2.5,0,4.6-0.9,6.1-2.7c1.6-1.8,2.4-4.1,2.4-7c0-2.8-0.8-5.2-2.3-7
		c-1.5-1.8-3.6-2.7-6.1-2.7C348.6,82.5,346.6,83.3,345,85z"/>
	<path fill="#E7E1D4" d="M371.2,69.2v35h-3v-35H371.2z"/>
	<path fill="#E7E1D4" d="M389,79.6c3.6,0,6.4,1.2,8.6,3.6s3.3,5.4,3.3,9c0,3.6-1.1,6.7-3.3,9c-2.2,2.4-5.1,3.6-8.6,3.6
		c-3.6,0-6.4-1.2-8.7-3.6c-2.2-2.4-3.3-5.4-3.3-9c0-3.6,1.1-6.7,3.3-9C382.5,80.8,385.4,79.6,389,79.6z M382.5,85.2
		c-1.6,1.8-2.4,4.1-2.4,7c0,2.8,0.8,5.1,2.4,7c1.7,1.8,3.8,2.7,6.5,2.7c2.6,0,4.8-0.9,6.4-2.7c1.6-1.9,2.4-4.2,2.4-7
		c0-2.8-0.8-5.1-2.4-7c-1.6-1.9-3.7-2.8-6.4-2.8C386.3,82.5,384.2,83.4,382.5,85.2z"/>
	<path fill="#E7E1D4" d="M417.1,82.9c-2,0-3.6,0.7-4.9,2c-1.5,1.5-2.3,3.6-2.3,6.3v13.1h-3V80.2h2.8l0.1,4.4c1-2.5,3.5-4.6,7.3-4.6
		V82.9z"/>
	<path fill="#E7E1D4" d="M441.8,91.7v1.7h-19.2c0.2,5.2,3.7,8.6,8.4,8.6c3.8,0,6.2-1.5,7.4-4.5h3.1c-1.5,4.7-5.2,7.3-10.6,7.3
		c-3.3,0-6-1.2-8.2-3.5c-2.1-2.3-3.2-5.3-3.2-9.1c0-3.7,1-6.7,3.1-9.1s4.8-3.6,8.2-3.6C437.4,79.6,441.8,84,441.8,91.7z M422.6,90.6
		h16.1c0-5-3.1-8.2-7.9-8.2C426.2,82.5,423,85.8,422.6,90.6z"/>
	<path fill="#E7E1D4" d="M458.6,82.9c-2,0-3.6,0.7-4.9,2c-1.5,1.5-2.3,3.6-2.3,6.3v13.1h-3V80.2h2.8l0.1,4.4c1-2.5,3.5-4.6,7.3-4.6
		V82.9z"/>
	<path fill="#E7E1D4" d="M461.7,104.8c-2.3,0-3.5-2.8-1.9-4.4c1.5-1.7,4.6-0.4,4.4,1.8C464.2,103.6,463.1,104.8,461.7,104.8z"/>
	<path fill="#E7E1D4" d="M470.9,104.8c-2.3,0-3.5-2.8-1.9-4.4c1.5-1.7,4.6-0.4,4.4,1.8C473.4,103.6,472.2,104.8,470.9,104.8z"/>
	<path fill="#E7E1D4" d="M480,104.8c-2.3,0-3.5-2.8-1.9-4.4c1.5-1.7,4.6-0.4,4.4,1.8C482.6,103.6,481.4,104.8,480,104.8z"/>
</g>
<g>
	<path fill="#E7E1D4" d="M110.7,144c-1.1,0-1.7-1.4-0.9-2.2c0.8-0.8,2.3-0.2,2.2,0.9C112,143.5,111.4,144,110.7,144z"/>
	<path fill="#E7E1D4" d="M115.3,144c-1.1,0-1.7-1.4-0.9-2.2c0.8-0.8,2.3-0.2,2.2,0.9C116.6,143.5,116,144,115.3,144z"/>
	<path fill="#E7E1D4" d="M119.9,144c-1.1,0-1.7-1.4-0.9-2.2c0.8-0.8,2.3-0.2,2.2,0.9C121.2,143.5,120.6,144,119.9,144z"/>
	<path fill="#E7E1D4" d="M134.5,126.3v17.5h-1.4l0-2c-0.7,1.2-2.3,2.3-4.3,2.3c-1.7,0-3.1-0.6-4.1-1.8c-1-1.2-1.5-2.7-1.5-4.5
		s0.5-3.3,1.5-4.5c1-1.2,2.4-1.8,4.1-1.8c2,0,3.6,1,4.2,2.3v-7.5H134.5z M125.8,134.3c-0.8,0.9-1.2,2.1-1.2,3.5s0.4,2.6,1.2,3.5
		s1.8,1.4,3.1,1.4c1.1,0,2.1-0.4,2.9-1.2c0.8-0.8,1.2-1.9,1.2-3.3v-0.5c0-1.4-0.4-2.6-1.2-3.4c-0.8-0.8-1.8-1.3-2.9-1.3
		C127.6,132.9,126.6,133.4,125.8,134.3z"/>
	<path fill="#E7E1D4" d="M143.3,131.5c1.8,0,3.2,0.6,4.3,1.8c1.1,1.2,1.7,2.7,1.7,4.5s-0.6,3.3-1.7,4.5s-2.5,1.8-4.3,1.8
		c-1.8,0-3.2-0.6-4.3-1.8c-1.1-1.2-1.7-2.7-1.7-4.5s0.6-3.3,1.7-4.5C140,132.1,141.5,131.5,143.3,131.5z M140,134.3
		c-0.8,0.9-1.2,2.1-1.2,3.5s0.4,2.6,1.2,3.5c0.8,0.9,1.9,1.4,3.3,1.4c1.3,0,2.4-0.5,3.2-1.4c0.8-0.9,1.2-2.1,1.2-3.5
		s-0.4-2.6-1.2-3.5c-0.8-0.9-1.9-1.4-3.2-1.4C141.9,132.9,140.9,133.3,140,134.3z"/>
	<path fill="#E7E1D4" d="M162.5,137.5v0.8h-9.6c0.1,2.6,1.8,4.3,4.2,4.3c1.9,0,3.1-0.7,3.7-2.3h1.6c-0.7,2.3-2.6,3.7-5.3,3.7
		c-1.7,0-3-0.6-4.1-1.7c-1.1-1.2-1.6-2.7-1.6-4.5c0-1.8,0.5-3.4,1.5-4.5c1-1.2,2.4-1.8,4.1-1.8C160.3,131.5,162.5,133.7,162.5,137.5
		z M152.9,137h8c0-2.5-1.5-4.1-3.9-4.1C154.7,132.9,153.1,134.6,152.9,137z"/>
	<path fill="#E7E1D4" d="M172.7,135.1h-1.6c0-1.5-0.8-2.2-2.3-2.2c-1.4,0-2.2,0.7-2.2,1.9c0,0.6,0.2,1,0.5,1.3
		c0.4,0.3,1,0.6,2.1,0.8c2.8,0.8,3.9,1.7,3.9,3.6c0,2.2-1.7,3.6-4.1,3.6c-2.7,0-4.3-1.5-4.3-3.8h1.6c0,1.5,1,2.4,2.8,2.4
		c1.6,0,2.5-0.8,2.5-2.1c0-1.2-0.7-1.8-2.9-2.3c-2.5-0.6-3.6-1.5-3.6-3.4c0-1.9,1.4-3.4,3.8-3.4
		C171.1,131.5,172.6,132.9,172.7,135.1z"/>
	<path fill="#E7E1D4" d="M184.9,136v7.8h-1.5v-7.6c0-2.1-1-3.2-2.7-3.2c-1.8,0-3.2,1.6-3.2,4.2v6.7h-1.5v-12h1.4l0.1,1.8
		c0.5-1.1,1.8-2.1,3.5-2.1C183.5,131.5,184.9,133.3,184.9,136z"/>
	<path fill="#E7E1D4" d="M189.3,126.6l-0.4,4.8h-1l-0.1-4.8H189.3z"/>
	<path fill="#E7E1D4" d="M194.3,128.7l0,3.1h3.3v1.4h-3.3l0,7.3c0,1.5,0.4,2.1,1.8,2.1c0.5,0,1-0.1,1.5-0.2v1.4
		c-0.4,0.2-1,0.3-1.7,0.3c-2.1,0-3.1-1-3.1-3.3l0-7.5h-2.4v-1.4h2.4l0-3.1H194.3z"/>
	<path fill="#E7E1D4" d="M221.1,131.7l-3.9,12h-1.5l-3.3-9.4l-3.3,9.4h-1.5l-3.9-12h1.6l2.9,9l0.3,1l0.3-1l3-9h1.3l3,9l0.3,1l0.3-1
		l2.9-9H221.1z"/>
	<path fill="#E7E1D4" d="M228.2,131.5c1.8,0,3.2,0.6,4.3,1.8c1.1,1.2,1.7,2.7,1.7,4.5s-0.6,3.3-1.7,4.5s-2.5,1.8-4.3,1.8
		c-1.8,0-3.2-0.6-4.3-1.8c-1.1-1.2-1.7-2.7-1.7-4.5s0.6-3.3,1.7-4.5C225,132.1,226.4,131.5,228.2,131.5z M225,134.3
		c-0.8,0.9-1.2,2.1-1.2,3.5s0.4,2.6,1.2,3.5c0.8,0.9,1.9,1.4,3.3,1.4c1.3,0,2.4-0.5,3.2-1.4c0.8-0.9,1.2-2.1,1.2-3.5
		s-0.4-2.6-1.2-3.5c-0.8-0.9-1.9-1.4-3.2-1.4C226.9,132.9,225.8,133.3,225,134.3z"/>
	<path fill="#E7E1D4" d="M242.3,133.1c-1,0-1.8,0.3-2.4,1c-0.8,0.7-1.2,1.8-1.2,3.2v6.5h-1.5v-12h1.4l0,2.2c0.5-1.3,1.7-2.3,3.6-2.3
		V133.1z"/>
	<path fill="#E7E1D4" d="M246.5,126.3v11.5l5-6h1.9l-4.1,4.9l4.7,7.1h-1.8l-4-5.9l-1.8,2.1v3.8H245v-17.5H246.5z"/>
	<path fill="#E7E1D4" d="M277.2,131.7l-3.9,12h-1.5l-3.3-9.4l-3.3,9.4h-1.5l-3.9-12h1.6l2.9,9l0.3,1l0.3-1l3-9h1.3l3,9l0.3,1l0.3-1
		l2.9-9H277.2z"/>
	<path fill="#E7E1D4" d="M281.6,127.9c0,0.6-0.5,1.2-1.2,1.2c-0.7,0-1.2-0.5-1.2-1.2c0-0.6,0.5-1.2,1.2-1.2
		C281.1,126.7,281.6,127.3,281.6,127.9z M281.2,131.7v12h-1.5v-12H281.2z"/>
	<path fill="#E7E1D4" d="M287.3,128.7l0,3.1h3.3v1.4h-3.3l0,7.3c0,1.5,0.4,2.1,1.8,2.1c0.5,0,1-0.1,1.5-0.2v1.4
		c-0.4,0.2-1,0.3-1.7,0.3c-2.1,0-3.1-1-3.1-3.3l0-7.5h-2.4v-1.4h2.4l0-3.1H287.3z"/>
	<path fill="#E7E1D4" d="M294.6,126.3v7.2c0.4-1.1,1.8-2,3.4-2c2.5,0,3.9,1.8,3.9,4.5v7.8h-1.5v-7.6c0-2.1-1-3.2-2.7-3.2
		c-1.8,0-3.2,1.6-3.2,4.2v6.7h-1.5v-17.5H294.6z"/>
	<path fill="#E7E1D4" d="M312.2,126.3v7.2c0.4-1.1,1.8-2,3.4-2c2.5,0,3.9,1.8,3.9,4.5v7.8H318v-7.6c0-2.1-1-3.2-2.7-3.2
		c-1.8,0-3.2,1.6-3.2,4.2v6.7h-1.5v-17.5H312.2z"/>
	<path fill="#E7E1D4" d="M333.3,137.5v0.8h-9.6c0.1,2.6,1.8,4.3,4.2,4.3c1.9,0,3.1-0.7,3.7-2.3h1.6c-0.7,2.3-2.6,3.7-5.3,3.7
		c-1.7,0-3-0.6-4.1-1.7c-1.1-1.2-1.6-2.7-1.6-4.5c0-1.8,0.5-3.4,1.5-4.5c1-1.2,2.4-1.8,4.1-1.8C331.1,131.5,333.3,133.7,333.3,137.5
		z M323.7,137h8c0-2.5-1.5-4.1-3.9-4.1C325.5,132.9,323.9,134.6,323.7,137z"/>
	<path fill="#E7E1D4" d="M347,126.3v17.5h-1.4l0-2c-0.7,1.2-2.3,2.3-4.3,2.3c-1.7,0-3.1-0.6-4.1-1.8c-1-1.2-1.5-2.7-1.5-4.5
		s0.5-3.3,1.5-4.5c1-1.2,2.4-1.8,4.1-1.8c2,0,3.6,1,4.2,2.3v-7.5H347z M338.3,134.3c-0.8,0.9-1.2,2.1-1.2,3.5s0.4,2.6,1.2,3.5
		c0.8,0.9,1.8,1.4,3.1,1.4c1.1,0,2.1-0.4,2.9-1.2c0.8-0.8,1.2-1.9,1.2-3.3v-0.5c0-1.4-0.4-2.6-1.2-3.4c-0.8-0.8-1.8-1.3-2.9-1.3
		C340.1,132.9,339.1,133.4,338.3,134.3z"/>
	<path fill="#E7E1D4" d="M358.8,135.7v8h-1.4l0-1.8c-0.6,1.2-2.1,2-3.8,2c-2.1,0-3.4-1.3-3.4-3.2c0-1.8,1.1-3,3.3-3.4l3.9-0.8v-0.8
		c0-1.9-0.9-2.9-2.6-2.9c-1.6,0-2.7,0.9-2.7,2.6h-1.5c0-1.2,0.4-2.1,1.2-2.9c0.8-0.8,1.8-1.2,3.1-1.2
		C357.3,131.5,358.8,133,358.8,135.7z M357.2,138l-3.6,0.8c-1.3,0.3-2,0.8-2,2.1c0,1.2,0.7,1.8,2.1,1.8c1.2,0,2.1-0.4,2.8-1.3
		c0.5-0.7,0.8-1.5,0.8-2.4V138z"/>
	<path fill="#E7E1D4" d="M378.3,131.7l-3.9,12h-1.5l-3.3-9.4l-3.3,9.4h-1.5l-3.9-12h1.6l2.9,9l0.3,1l0.3-1l3-9h1.3l3,9l0.3,1l0.3-1
		l2.9-9H378.3z"/>
	<path fill="#E7E1D4" d="M390.5,137.5v0.8h-9.6c0.1,2.6,1.8,4.3,4.2,4.3c1.9,0,3.1-0.7,3.7-2.3h1.6c-0.7,2.3-2.6,3.7-5.3,3.7
		c-1.7,0-3-0.6-4.1-1.7c-1.1-1.2-1.6-2.7-1.6-4.5c0-1.8,0.5-3.4,1.5-4.5c1-1.2,2.4-1.8,4.1-1.8C388.3,131.5,390.5,133.7,390.5,137.5
		z M380.9,137h8c0-2.5-1.5-4.1-3.9-4.1C382.7,132.9,381.1,134.6,380.9,137z"/>
	<path fill="#E7E1D4" d="M402.5,136v7.8h-1.5v-7.6c0-2.1-1-3.2-2.7-3.2c-1.8,0-3.2,1.6-3.2,4.2v6.7h-1.5v-12h1.4l0.1,1.8
		c0.5-1.1,1.8-2.1,3.5-2.1C401,131.5,402.5,133.3,402.5,136z"/>
	<path fill="#E7E1D4" d="M416.1,131.7v1.4h-2.3c0.6,0.7,0.8,1.6,0.8,2.7c0,1.2-0.4,2.2-1.2,3c-0.8,0.8-1.9,1.2-3.3,1.2
		c-1.1,0-2-0.3-2.8-0.8c-0.5,0.4-0.7,0.9-0.7,1.4c0,0.9,0.7,1.4,1.8,1.4h3.3c2.5,0,3.7,1.2,3.7,3.2c0,2.4-1.8,3.9-4.8,3.9
		c-3.3,0-5.2-1.3-5.2-3.7c0-1.1,0.5-1.9,1.4-2.4c-1-0.4-1.7-1.3-1.7-2.4c0-1,0.4-1.8,1.3-2.4c-0.5-0.7-0.8-1.6-0.8-2.5
		c0-2.5,1.8-4.3,4.5-4.3c0.6,0,1.2,0.1,1.7,0.3H416.1z M409,143.4c-1.1,0-2,0.8-2,2c0,1.6,1.2,2.4,3.6,2.4c2.2,0,3.3-0.8,3.3-2.5
		c0-1.2-0.9-1.9-2.4-1.9H409z M410.1,138.7c1.8,0,3-1.2,3-2.9c0-1.8-1.2-2.9-3-2.9c-1.8,0-3,1.2-3,2.9
		C407.1,137.5,408.3,138.7,410.1,138.7z"/>
	<path fill="#E7E1D4" d="M418.2,144c-1.1,0-1.7-1.4-0.9-2.2c0.8-0.8,2.3-0.2,2.2,0.9C419.5,143.5,418.9,144,418.2,144z"/>
	<path fill="#E7E1D4" d="M432.4,135.2h-1.6c-0.5-1.5-1.9-2.3-3.7-2.3c-1.2,0-2.2,0.5-3,1.4s-1.2,2.1-1.2,3.5c0,1.4,0.4,2.5,1.2,3.5
		c0.8,0.9,1.8,1.4,3,1.4c1.7,0,3.1-0.9,3.6-2.3h1.6c-0.7,2.4-2.7,3.7-5.3,3.7c-1.7,0-3-0.6-4.1-1.8c-1.1-1.2-1.6-2.7-1.6-4.5
		c0-1.8,0.5-3.3,1.6-4.5c1.1-1.2,2.5-1.8,4.1-1.8C429.7,131.5,431.7,132.8,432.4,135.2z"/>
	<path fill="#E7E1D4" d="M440.3,131.5c1.8,0,3.2,0.6,4.3,1.8c1.1,1.2,1.7,2.7,1.7,4.5s-0.6,3.3-1.7,4.5s-2.5,1.8-4.3,1.8
		s-3.2-0.6-4.3-1.8c-1.1-1.2-1.7-2.7-1.7-4.5s0.6-3.3,1.7-4.5C437.1,132.1,438.5,131.5,440.3,131.5z M437,134.3
		c-0.8,0.9-1.2,2.1-1.2,3.5s0.4,2.6,1.2,3.5c0.8,0.9,1.9,1.4,3.3,1.4c1.3,0,2.4-0.5,3.2-1.4c0.8-0.9,1.2-2.1,1.2-3.5
		s-0.4-2.6-1.2-3.5c-0.8-0.9-1.9-1.4-3.2-1.4C439,132.9,437.9,133.3,437,134.3z"/>
	<path fill="#E7E1D4" d="M465.1,136v7.8h-1.5v-7.6c0-2.1-1-3.2-2.6-3.2c-1.8,0-3.1,1.5-3.1,4v6.9h-1.5v-7.6c0-2.1-1-3.2-2.7-3.2
		c-1.8,0-3.1,1.6-3.1,4.2v6.7h-1.5v-12h1.4l0.1,1.8c0.5-1.1,1.8-2.1,3.4-2.1c1.8,0,3,0.8,3.6,2.4c0.6-1.3,2-2.4,3.7-2.4
		C463.8,131.5,465.1,133.2,465.1,136z"/>
	<path fill="#E7E1D4" d="M474.2,144c-1.1,0-1.7-1.4-0.9-2.2c0.8-0.8,2.3-0.2,2.2,0.9C475.5,143.5,474.9,144,474.2,144z M472.9,132.8
		c0-0.7,0.6-1.3,1.3-1.3c0.7,0,1.3,0.6,1.3,1.3s-0.6,1.3-1.3,1.3C473.5,134,472.9,133.5,472.9,132.8z"/>
	<path fill="#E7E1D4" d="M484.7,136.9v1.4h-7.6v-1.4H484.7z"/>
	<path fill="#E7E1D4" d="M491.3,127c-1.1,1.4-2,2.8-2.5,4.2c-0.5,1.4-0.8,3-0.8,4.8s0.3,3.5,0.8,4.8c0.5,1.4,1.3,2.8,2.5,4.2
		l-1.1,0.8c-2.4-3-3.6-6-3.6-9.9s1.2-6.8,3.6-9.9L491.3,127z"/>
</g>
<g>
	<path fill="#E7E1D4" d="M12.5,202.6v11.2h-1.1v-11.2H12.5z"/>
	<path fill="#E7E1D4" d="M21,208.6v5.2h-1v-5.1c0-1.4-0.7-2.1-1.8-2.1c-1.2,0-2.1,1.1-2.1,2.8v4.5h-1v-8H16l0,1.2
		c0.3-0.8,1.2-1.4,2.3-1.4C20.1,205.6,21,206.8,21,208.6z"/>
	<path fill="#E7E1D4" d="M24.9,203.7l0,2H27v0.9h-2.2l0,4.9c0,1,0.3,1.4,1.2,1.4c0.3,0,0.7,0,1-0.2v0.9c-0.3,0.1-0.7,0.2-1.1,0.2
		c-1.4,0-2.1-0.7-2.1-2.2l0-5h-1.6v-0.9h1.6l0-2H24.9z"/>
	<path fill="#E7E1D4" d="M35.5,209.6v0.6h-6.4c0.1,1.7,1.2,2.9,2.8,2.9c1.3,0,2.1-0.5,2.5-1.5h1c-0.5,1.6-1.7,2.4-3.5,2.4
		c-1.1,0-2-0.4-2.7-1.2c-0.7-0.8-1.1-1.8-1.1-3c0-1.2,0.3-2.2,1-3s1.6-1.2,2.7-1.2C34.1,205.6,35.5,207,35.5,209.6z M29.1,209.2h5.4
		c0-1.7-1-2.7-2.6-2.7C30.3,206.5,29.3,207.6,29.1,209.2z"/>
	<path fill="#E7E1D4" d="M41.1,206.7c-0.7,0-1.2,0.2-1.6,0.7c-0.5,0.5-0.8,1.2-0.8,2.1v4.4h-1v-8h0.9l0,1.5c0.3-0.8,1.2-1.5,2.4-1.5
		V206.7z"/>
	<path fill="#E7E1D4" d="M48.7,208.6v5.2h-1v-5.1c0-1.4-0.7-2.1-1.8-2.1c-1.2,0-2.1,1.1-2.1,2.8v4.5h-1v-8h0.9l0,1.2
		c0.3-0.8,1.2-1.4,2.3-1.4C47.7,205.6,48.7,206.8,48.7,208.6z"/>
	<path fill="#E7E1D4" d="M57.8,209.6v0.6h-6.4c0.1,1.7,1.2,2.9,2.8,2.9c1.3,0,2.1-0.5,2.5-1.5h1c-0.5,1.6-1.7,2.4-3.5,2.4
		c-1.1,0-2-0.4-2.7-1.2c-0.7-0.8-1.1-1.8-1.1-3c0-1.2,0.3-2.2,1-3c0.7-0.8,1.6-1.2,2.7-1.2C56.4,205.6,57.8,207,57.8,209.6z
		 M51.5,209.2h5.4c0-1.7-1-2.7-2.6-2.7C52.7,206.5,51.6,207.6,51.5,209.2z"/>
	<path fill="#E7E1D4" d="M61.4,203.7l0,2h2.2v0.9h-2.2l0,4.9c0,1,0.3,1.4,1.2,1.4c0.3,0,0.7,0,1-0.2v0.9c-0.3,0.1-0.7,0.2-1.1,0.2
		c-1.4,0-2.1-0.7-2.1-2.2l0-5h-1.6v-0.9h1.6l0-2H61.4z"/>
	<path fill="#E7E1D4" d="M76.7,202.6v1h-5v3.9h4.4v1h-4.4v4.3h5v1h-6v-11.2H76.7z"/>
	<path fill="#E7E1D4" d="M84.8,205.7l-2.7,3.9l2.9,4.2h-1.2l-2.4-3.3l-2.4,3.3h-1.2l2.9-4.2l-2.7-3.9h1.2l2.1,3.1l2.2-3.1H84.8z"/>
	<path fill="#E7E1D4" d="M93.5,206.8c0.7,0.8,1,1.8,1,3c0,1.2-0.3,2.2-1,3c-0.7,0.8-1.6,1.2-2.7,1.2c-1.4,0-2.4-0.7-2.8-1.5v4.8h-1
		v-11.5h1l0,1.4c0.5-0.8,1.5-1.6,2.9-1.6C91.9,205.6,92.8,206,93.5,206.8z M88.7,207.3c-0.5,0.5-0.8,1.3-0.8,2.2v0.3
		c0,0.9,0.3,1.7,0.8,2.3c0.5,0.6,1.2,0.8,1.9,0.8c0.8,0,1.5-0.3,2-0.9c0.5-0.6,0.8-1.4,0.8-2.3s-0.3-1.7-0.8-2.3
		c-0.5-0.6-1.2-0.9-2-0.9C89.9,206.5,89.2,206.8,88.7,207.3z"/>
	<path fill="#E7E1D4" d="M97.4,202.1v11.7h-1v-11.7H97.4z"/>
	<path fill="#E7E1D4" d="M103.4,205.6c1.2,0,2.1,0.4,2.9,1.2s1.1,1.8,1.1,3c0,1.2-0.4,2.2-1.1,3c-0.7,0.8-1.7,1.2-2.9,1.2
		s-2.1-0.4-2.9-1.2c-0.7-0.8-1.1-1.8-1.1-3c0-1.2,0.4-2.2,1.1-3C101.2,206,102.2,205.6,103.4,205.6z M101.2,207.4
		c-0.5,0.6-0.8,1.4-0.8,2.3s0.3,1.7,0.8,2.3c0.6,0.6,1.3,0.9,2.2,0.9c0.9,0,1.6-0.3,2.1-0.9c0.5-0.6,0.8-1.4,0.8-2.3
		s-0.3-1.7-0.8-2.3c-0.5-0.6-1.2-0.9-2.1-0.9C102.5,206.5,101.8,206.8,101.2,207.4z"/>
	<path fill="#E7E1D4" d="M112.7,206.7c-0.7,0-1.2,0.2-1.6,0.7c-0.5,0.5-0.8,1.2-0.8,2.1v4.4h-1v-8h0.9l0,1.5
		c0.3-0.8,1.2-1.5,2.4-1.5V206.7z"/>
	<path fill="#E7E1D4" d="M121,209.6v0.6h-6.4c0.1,1.7,1.2,2.9,2.8,2.9c1.3,0,2.1-0.5,2.5-1.5h1c-0.5,1.6-1.7,2.4-3.5,2.4
		c-1.1,0-2-0.4-2.7-1.2c-0.7-0.8-1.1-1.8-1.1-3c0-1.2,0.3-2.2,1-3s1.6-1.2,2.7-1.2C119.5,205.6,121,207,121,209.6z M114.6,209.2h5.4
		c0-1.7-1-2.7-2.6-2.7C115.8,206.5,114.7,207.6,114.6,209.2z"/>
	<path fill="#E7E1D4" d="M126.6,206.7c-0.7,0-1.2,0.2-1.6,0.7c-0.5,0.5-0.8,1.2-0.8,2.1v4.4h-1v-8h0.9l0,1.5
		c0.3-0.8,1.2-1.5,2.4-1.5V206.7z"/>
	<path fill="#E7E1D4" d="M134.7,202.1v11.7h-1v-11.7H134.7z"/>
	<path fill="#E7E1D4" d="M142.6,208.4v5.4h-1l0-1.2c-0.4,0.8-1.4,1.3-2.5,1.3c-1.4,0-2.3-0.9-2.3-2.1c0-1.2,0.7-2,2.2-2.3l2.6-0.5
		v-0.5c0-1.3-0.6-1.9-1.7-1.9c-1.1,0-1.8,0.6-1.8,1.7h-1c0-0.8,0.3-1.4,0.8-1.9c0.5-0.5,1.2-0.8,2-0.8
		C141.6,205.6,142.6,206.6,142.6,208.4z M141.6,209.9l-2.4,0.5c-0.9,0.2-1.3,0.6-1.3,1.4c0,0.8,0.5,1.2,1.4,1.2
		c0.8,0,1.4-0.3,1.9-0.9c0.4-0.5,0.5-1,0.5-1.6V209.9z"/>
	<path fill="#E7E1D4" d="M151.7,208.1h-1c-0.3-1-1.3-1.6-2.4-1.6c-0.8,0-1.5,0.3-2,0.9c-0.5,0.6-0.8,1.4-0.8,2.3
		c0,0.9,0.3,1.7,0.8,2.3c0.5,0.6,1.2,0.9,2,0.9c1.2,0,2.1-0.6,2.4-1.6h1c-0.4,1.6-1.8,2.5-3.5,2.5c-1.1,0-2-0.4-2.8-1.2
		c-0.7-0.8-1.1-1.8-1.1-3c0-1.2,0.4-2.2,1.1-3c0.7-0.8,1.6-1.2,2.8-1.2C149.9,205.6,151.2,206.5,151.7,208.1z"/>
	<path fill="#E7E1D4" d="M154.7,202.1v7.7l3.4-4h1.3l-2.7,3.3l3.2,4.7h-1.2l-2.7-4l-1.2,1.4v2.5h-1v-11.7H154.7z"/>
	<path fill="#E7E1D4" d="M166,208h-1c0-1-0.5-1.5-1.5-1.5c-1,0-1.5,0.5-1.5,1.3c0,0.4,0.1,0.7,0.4,0.9c0.2,0.2,0.7,0.4,1.4,0.5
		c1.9,0.5,2.6,1.2,2.6,2.4c0,1.5-1.1,2.4-2.7,2.4c-1.8,0-2.8-1-2.9-2.5h1c0,1,0.7,1.6,1.9,1.6c1.1,0,1.7-0.6,1.7-1.4
		c0-0.8-0.5-1.2-1.9-1.5c-1.7-0.4-2.4-1-2.4-2.3c0-1.3,1-2.3,2.5-2.3C165,205.6,166,206.5,166,208z"/>
	<path fill="#E7E1D4" d="M177,205.6c1.2,0,2.1,0.4,2.9,1.2s1.1,1.8,1.1,3c0,1.2-0.4,2.2-1.1,3c-0.7,0.8-1.7,1.2-2.9,1.2
		s-2.1-0.4-2.9-1.2c-0.7-0.8-1.1-1.8-1.1-3c0-1.2,0.4-2.2,1.1-3C174.8,206,175.8,205.6,177,205.6z M174.8,207.4
		c-0.5,0.6-0.8,1.4-0.8,2.3s0.3,1.7,0.8,2.3c0.6,0.6,1.3,0.9,2.2,0.9c0.9,0,1.6-0.3,2.1-0.9c0.5-0.6,0.8-1.4,0.8-2.3
		s-0.3-1.7-0.8-2.3c-0.5-0.6-1.2-0.9-2.1-0.9C176.1,206.5,175.4,206.8,174.8,207.4z"/>
	<path fill="#E7E1D4" d="M186.6,202.2v0.9c-0.3-0.1-0.7-0.2-1-0.2c-0.8,0-1.2,0.5-1.2,1.4v1.4h2.1v0.9h-2.1v7.1h-1v-7.1h-1.6v-0.9
		h1.6v-1.4c0-1.5,0.8-2.3,2.1-2.3C185.9,202,186.3,202,186.6,202.2z"/>
	<path fill="#E7E1D4" d="M204.1,208.6v5.2h-1v-5.1c0-1.4-0.7-2.1-1.8-2.1c-1.2,0-2.1,1-2.1,2.6v4.6h-1v-5.1c0-1.4-0.7-2.1-1.8-2.1
		c-1.2,0-2.1,1.1-2.1,2.8v4.5h-1v-8h0.9l0,1.2c0.3-0.8,1.2-1.4,2.3-1.4c1.2,0,2,0.5,2.4,1.6c0.4-0.9,1.3-1.6,2.5-1.6
		C203.1,205.6,204.1,206.8,204.1,208.6z"/>
	<path fill="#E7E1D4" d="M211.8,208.4v5.4h-1l0-1.2c-0.4,0.8-1.4,1.3-2.5,1.3c-1.4,0-2.3-0.9-2.3-2.1c0-1.2,0.7-2,2.2-2.3l2.6-0.5
		v-0.5c0-1.3-0.6-1.9-1.7-1.9c-1.1,0-1.8,0.6-1.8,1.7h-1c0-0.8,0.3-1.4,0.8-1.9c0.5-0.5,1.2-0.8,2-0.8
		C210.8,205.6,211.8,206.6,211.8,208.4z M210.8,209.9l-2.4,0.5c-0.9,0.2-1.3,0.6-1.3,1.4c0,0.8,0.5,1.2,1.4,1.2
		c0.8,0,1.4-0.3,1.9-0.9c0.4-0.5,0.5-1,0.5-1.6V209.9z"/>
	<path fill="#E7E1D4" d="M220.1,208.6v5.2h-1v-5.1c0-1.4-0.7-2.1-1.8-2.1c-1.2,0-2.1,1.1-2.1,2.8v4.5h-1v-8h0.9l0,1.2
		c0.3-0.8,1.2-1.4,2.3-1.4C219.2,205.6,220.1,206.8,220.1,208.6z"/>
	<path fill="#E7E1D4" d="M228.9,205.7l-4.5,11.5h-1.1l1.4-3.6l-3.1-7.9h1.1l2.4,6.2l0.2,0.6l0.2-0.6l2.4-6.2H228.9z"/>
	<path fill="#E7E1D4" d="M246.6,208.6v5.2h-1v-5.1c0-1.4-0.7-2.1-1.8-2.1c-1.2,0-2.1,1-2.1,2.6v4.6h-1v-5.1c0-1.4-0.7-2.1-1.8-2.1
		c-1.2,0-2.1,1.1-2.1,2.8v4.5h-1v-8h0.9l0,1.2c0.3-0.8,1.2-1.4,2.3-1.4c1.2,0,2,0.5,2.4,1.6c0.4-0.9,1.3-1.6,2.5-1.6
		C245.7,205.6,246.6,206.8,246.6,208.6z"/>
	<path fill="#E7E1D4" d="M252.3,205.6c1.2,0,2.1,0.4,2.9,1.2s1.1,1.8,1.1,3c0,1.2-0.4,2.2-1.1,3c-0.7,0.8-1.7,1.2-2.9,1.2
		s-2.1-0.4-2.9-1.2c-0.7-0.8-1.1-1.8-1.1-3c0-1.2,0.4-2.2,1.1-3C250.2,206,251.2,205.6,252.3,205.6z M250.2,207.4
		c-0.5,0.6-0.8,1.4-0.8,2.3s0.3,1.7,0.8,2.3c0.6,0.6,1.3,0.9,2.2,0.9c0.9,0,1.6-0.3,2.1-0.9c0.5-0.6,0.8-1.4,0.8-2.3
		s-0.3-1.7-0.8-2.3c-0.5-0.6-1.2-0.9-2.1-0.9C251.5,206.5,250.7,206.8,250.2,207.4z"/>
	<path fill="#E7E1D4" d="M265.3,202.1v11.7h-0.9l0-1.4c-0.5,0.8-1.5,1.5-2.9,1.5c-1.1,0-2-0.4-2.7-1.2c-0.7-0.8-1-1.8-1-3
		c0-1.2,0.3-2.2,1-3s1.6-1.2,2.7-1.2c1.3,0,2.4,0.7,2.8,1.5v-5H265.3z M259.5,207.4c-0.5,0.6-0.8,1.4-0.8,2.3s0.3,1.7,0.8,2.3
		s1.2,0.9,2,0.9c0.8,0,1.4-0.3,1.9-0.8c0.5-0.6,0.8-1.3,0.8-2.2v-0.3c0-0.9-0.3-1.7-0.8-2.3c-0.5-0.6-1.2-0.8-1.9-0.8
		C260.7,206.5,260.1,206.8,259.5,207.4z"/>
	<path fill="#E7E1D4" d="M274.6,209.6v0.6h-6.4c0.1,1.7,1.2,2.9,2.8,2.9c1.3,0,2.1-0.5,2.5-1.5h1c-0.5,1.6-1.7,2.4-3.5,2.4
		c-1.1,0-2-0.4-2.7-1.2c-0.7-0.8-1.1-1.8-1.1-3c0-1.2,0.3-2.2,1-3c0.7-0.8,1.6-1.2,2.7-1.2C273.1,205.6,274.6,207,274.6,209.6z
		 M268.2,209.2h5.4c0-1.7-1-2.7-2.6-2.7C269.4,206.5,268.3,207.6,268.2,209.2z"/>
	<path fill="#E7E1D4" d="M280.2,206.7c-0.7,0-1.2,0.2-1.6,0.7c-0.5,0.5-0.8,1.2-0.8,2.1v4.4h-1v-8h0.9l0,1.5
		c0.3-0.8,1.2-1.5,2.4-1.5V206.7z"/>
	<path fill="#E7E1D4" d="M287.8,208.6v5.2h-1v-5.1c0-1.4-0.7-2.1-1.8-2.1c-1.2,0-2.1,1.1-2.1,2.8v4.5h-1v-8h0.9l0,1.2
		c0.3-0.8,1.2-1.4,2.3-1.4C286.8,205.6,287.8,206.8,287.8,208.6z"/>
	<path fill="#E7E1D4" d="M299.3,202.2v0.9c-0.3-0.1-0.7-0.2-1-0.2c-0.8,0-1.2,0.5-1.2,1.4v1.4h2.1v0.9h-2.1v7.1h-1v-7.1h-1.6v-0.9
		h1.6v-1.4c0-1.5,0.8-2.3,2.1-2.3C298.7,202,299,202,299.3,202.2z"/>
	<path fill="#E7E1D4" d="M307.4,209.6v0.6H301c0.1,1.7,1.2,2.9,2.8,2.9c1.3,0,2.1-0.5,2.5-1.5h1c-0.5,1.6-1.7,2.4-3.5,2.4
		c-1.1,0-2-0.4-2.7-1.2c-0.7-0.8-1.1-1.8-1.1-3c0-1.2,0.3-2.2,1-3s1.6-1.2,2.7-1.2C306,205.6,307.4,207,307.4,209.6z M301,209.2h5.4
		c0-1.7-1-2.7-2.6-2.7C302.2,206.5,301.2,207.6,301,209.2z"/>
	<path fill="#E7E1D4" d="M314.8,208.4v5.4h-1l0-1.2c-0.4,0.8-1.4,1.3-2.5,1.3c-1.4,0-2.3-0.9-2.3-2.1c0-1.2,0.7-2,2.2-2.3l2.6-0.5
		v-0.5c0-1.3-0.6-1.9-1.7-1.9c-1.1,0-1.8,0.6-1.8,1.7h-1c0-0.8,0.3-1.4,0.8-1.9c0.5-0.5,1.2-0.8,2-0.8
		C313.8,205.6,314.8,206.6,314.8,208.4z M313.8,209.9l-2.4,0.5c-0.9,0.2-1.3,0.6-1.3,1.4c0,0.8,0.5,1.2,1.4,1.2
		c0.8,0,1.4-0.3,1.9-0.9c0.4-0.5,0.5-1,0.5-1.6V209.9z"/>
	<path fill="#E7E1D4" d="M318.6,203.7l0,2h2.2v0.9h-2.2l0,4.9c0,1,0.3,1.4,1.2,1.4c0.3,0,0.7,0,1-0.2v0.9c-0.3,0.1-0.7,0.2-1.1,0.2
		c-1.4,0-2.1-0.7-2.1-2.2l0-5H316v-0.9h1.6l0-2H318.6z"/>
	<path fill="#E7E1D4" d="M328.3,205.7v8h-0.9l0-1.2c-0.3,0.8-1.2,1.4-2.3,1.4c-1.7,0-2.6-1.2-2.6-3v-5.2h1v5.1
		c0,1.4,0.7,2.2,1.8,2.2c1.2,0,2.1-1.1,2.1-2.7v-4.5H328.3z"/>
	<path fill="#E7E1D4" d="M334.4,206.7c-0.7,0-1.2,0.2-1.6,0.7c-0.5,0.5-0.8,1.2-0.8,2.1v4.4h-1v-8h0.9l0,1.5
		c0.3-0.8,1.2-1.5,2.4-1.5V206.7z"/>
	<path fill="#E7E1D4" d="M342.6,209.6v0.6h-6.4c0.1,1.7,1.2,2.9,2.8,2.9c1.3,0,2.1-0.5,2.5-1.5h1c-0.5,1.6-1.7,2.4-3.5,2.4
		c-1.1,0-2-0.4-2.7-1.2c-0.7-0.8-1.1-1.8-1.1-3c0-1.2,0.3-2.2,1-3c0.7-0.8,1.6-1.2,2.7-1.2C341.1,205.6,342.6,207,342.6,209.6z
		 M336.2,209.2h5.4c0-1.7-1-2.7-2.6-2.7C337.4,206.5,336.3,207.6,336.2,209.2z"/>
	<path fill="#E7E1D4" d="M349.4,208h-1c0-1-0.5-1.5-1.5-1.5c-1,0-1.5,0.5-1.5,1.3c0,0.4,0.1,0.7,0.4,0.9c0.2,0.2,0.7,0.4,1.4,0.5
		c1.9,0.5,2.6,1.2,2.6,2.4c0,1.5-1.1,2.4-2.7,2.4c-1.8,0-2.8-1-2.9-2.5h1c0,1,0.7,1.6,1.9,1.6c1.1,0,1.7-0.6,1.7-1.4
		c0-0.8-0.5-1.2-1.9-1.5c-1.7-0.4-2.4-1-2.4-2.3c0-1.3,1-2.3,2.5-2.3C348.4,205.6,349.4,206.5,349.4,208z"/>
	<path fill="#E7E1D4" d="M351.5,215.9l-0.4-0.1c0.3-0.5,0.5-1.1,0.6-1.8c-0.7,0-1-0.9-0.5-1.4c0.5-0.5,1.5-0.1,1.4,0.6
		C352.6,214.1,352.1,215.2,351.5,215.9z"/>
	<path fill="#E7E1D4" d="M370.5,205.7l-2.6,8h-1l-2.2-6.3l-2.2,6.3h-1l-2.6-8h1.1l1.9,6l0.2,0.7l0.2-0.7l2-6h0.8l2,6l0.2,0.7
		l0.2-0.7l1.9-6H370.5z"/>
	<path fill="#E7E1D4" d="M373.1,202.1v4.8c0.3-0.7,1.2-1.3,2.3-1.3c1.7,0,2.6,1.2,2.6,3v5.2h-1v-5.1c0-1.4-0.7-2.1-1.8-2.1
		c-1.2,0-2.1,1.1-2.1,2.8v4.5h-1v-11.7H373.1z"/>
	<path fill="#E7E1D4" d="M381.8,203.2c0,0.4-0.4,0.8-0.8,0.8c-0.4,0-0.8-0.3-0.8-0.8s0.3-0.8,0.8-0.8
		C381.4,202.4,381.8,202.8,381.8,203.2z M381.5,205.7v8h-1v-8H381.5z"/>
	<path fill="#E7E1D4" d="M390.8,208.1h-1c-0.3-1-1.3-1.6-2.4-1.6c-0.8,0-1.5,0.3-2,0.9c-0.5,0.6-0.8,1.4-0.8,2.3
		c0,0.9,0.3,1.7,0.8,2.3c0.5,0.6,1.2,0.9,2,0.9c1.2,0,2.1-0.6,2.4-1.6h1c-0.4,1.6-1.8,2.5-3.5,2.5c-1.1,0-2-0.4-2.8-1.2
		c-0.7-0.8-1.1-1.8-1.1-3c0-1.2,0.4-2.2,1.1-3c0.7-0.8,1.6-1.2,2.8-1.2C389,205.6,390.3,206.5,390.8,208.1z"/>
	<path fill="#E7E1D4" d="M393.7,202.1v4.8c0.3-0.7,1.2-1.3,2.3-1.3c1.7,0,2.6,1.2,2.6,3v5.2h-1v-5.1c0-1.4-0.7-2.1-1.8-2.1
		c-1.2,0-2.1,1.1-2.1,2.8v4.5h-1v-11.7H393.7z"/>
	<path fill="#E7E1D4" d="M411.7,208.4v5.4h-1l0-1.2c-0.4,0.8-1.4,1.3-2.5,1.3c-1.4,0-2.3-0.9-2.3-2.1c0-1.2,0.7-2,2.2-2.3l2.6-0.5
		v-0.5c0-1.3-0.6-1.9-1.7-1.9c-1.1,0-1.8,0.6-1.8,1.7h-1c0-0.8,0.3-1.4,0.8-1.9c0.5-0.5,1.2-0.8,2-0.8
		C410.8,205.6,411.7,206.6,411.7,208.4z M410.7,209.9l-2.4,0.5c-0.9,0.2-1.3,0.6-1.3,1.4c0,0.8,0.5,1.2,1.4,1.2
		c0.8,0,1.4-0.3,1.9-0.9c0.4-0.5,0.5-1,0.5-1.6V209.9z"/>
	<path fill="#E7E1D4" d="M417.7,206.7c-0.7,0-1.2,0.2-1.6,0.7c-0.5,0.5-0.8,1.2-0.8,2.1v4.4h-1v-8h0.9l0,1.5
		c0.3-0.8,1.2-1.5,2.4-1.5V206.7z"/>
	<path fill="#E7E1D4" d="M425.9,209.6v0.6h-6.4c0.1,1.7,1.2,2.9,2.8,2.9c1.3,0,2.1-0.5,2.5-1.5h1c-0.5,1.6-1.7,2.4-3.5,2.4
		c-1.1,0-2-0.4-2.7-1.2c-0.7-0.8-1.1-1.8-1.1-3c0-1.2,0.3-2.2,1-3c0.7-0.8,1.6-1.2,2.7-1.2C424.4,205.6,425.9,207,425.9,209.6z
		 M419.5,209.2h5.4c0-1.7-1-2.7-2.6-2.7C420.7,206.5,419.6,207.6,419.5,209.2z"/>
	<path fill="#E7E1D4" d="M439.7,205.7l-3.2,8h-1l-3.2-8h1.1l2.4,6.2l0.2,0.6l0.2-0.6l2.4-6.2H439.7z"/>
	<path fill="#E7E1D4" d="M447.9,209.6v0.6h-6.4c0.1,1.7,1.2,2.9,2.8,2.9c1.3,0,2.1-0.5,2.5-1.5h1c-0.5,1.6-1.7,2.4-3.5,2.4
		c-1.1,0-2-0.4-2.7-1.2c-0.7-0.8-1.1-1.8-1.1-3c0-1.2,0.3-2.2,1-3c0.7-0.8,1.6-1.2,2.7-1.2C446.4,205.6,447.9,207,447.9,209.6z
		 M441.5,209.2h5.4c0-1.7-1-2.7-2.6-2.7C442.7,206.5,441.6,207.6,441.5,209.2z"/>
	<path fill="#E7E1D4" d="M453.5,206.7c-0.7,0-1.2,0.2-1.6,0.7c-0.5,0.5-0.8,1.2-0.8,2.1v4.4h-1v-8h0.9l0,1.5
		c0.3-0.8,1.2-1.5,2.4-1.5V206.7z"/>
	<path fill="#E7E1D4" d="M461.6,205.7l-4.5,11.5H456l1.4-3.6l-3.1-7.9h1.1l2.4,6.2l0.2,0.6l0.2-0.6l2.4-6.2H461.6z"/>
	<path fill="#E7E1D4" d="M469.9,203.2c0,0.4-0.4,0.8-0.8,0.8c-0.4,0-0.8-0.3-0.8-0.8s0.3-0.8,0.8-0.8
		C469.6,202.4,469.9,202.8,469.9,203.2z M469.6,205.7v8h-1v-8H469.6z"/>
	<path fill="#E7E1D4" d="M483,208.6v5.2h-1v-5.1c0-1.4-0.7-2.1-1.8-2.1c-1.2,0-2.1,1-2.1,2.6v4.6h-1v-5.1c0-1.4-0.7-2.1-1.8-2.1
		c-1.2,0-2.1,1.1-2.1,2.8v4.5h-1v-8h0.9l0,1.2c0.3-0.8,1.2-1.4,2.3-1.4c1.2,0,2,0.5,2.4,1.6c0.4-0.9,1.3-1.6,2.5-1.6
		C482.1,205.6,483,206.8,483,208.6z"/>
	<path fill="#E7E1D4" d="M492.1,206.8c0.7,0.8,1,1.8,1,3c0,1.2-0.3,2.2-1,3c-0.7,0.8-1.6,1.2-2.7,1.2c-1.4,0-2.4-0.7-2.8-1.5v4.8h-1
		v-11.5h1l0,1.4c0.5-0.8,1.5-1.6,2.9-1.6C490.5,205.6,491.5,206,492.1,206.8z M487.4,207.3c-0.5,0.5-0.8,1.3-0.8,2.2v0.3
		c0,0.9,0.3,1.7,0.8,2.3c0.5,0.6,1.2,0.8,1.9,0.8c0.8,0,1.5-0.3,2-0.9c0.5-0.6,0.8-1.4,0.8-2.3s-0.3-1.7-0.8-2.3
		c-0.5-0.6-1.2-0.9-2-0.9C488.5,206.5,487.9,206.8,487.4,207.3z"/>
	<path fill="#E7E1D4" d="M498.6,205.6c1.2,0,2.1,0.4,2.9,1.2s1.1,1.8,1.1,3c0,1.2-0.4,2.2-1.1,3c-0.7,0.8-1.7,1.2-2.9,1.2
		s-2.1-0.4-2.9-1.2c-0.7-0.8-1.1-1.8-1.1-3c0-1.2,0.4-2.2,1.1-3C496.4,206,497.4,205.6,498.6,205.6z M496.4,207.4
		c-0.5,0.6-0.8,1.4-0.8,2.3s0.3,1.7,0.8,2.3c0.6,0.6,1.3,0.9,2.2,0.9c0.9,0,1.6-0.3,2.1-0.9c0.5-0.6,0.8-1.4,0.8-2.3
		s-0.3-1.7-0.8-2.3c-0.5-0.6-1.2-0.9-2.1-0.9C497.7,206.5,497,206.8,496.4,207.4z"/>
	<path fill="#E7E1D4" d="M508,206.7c-0.7,0-1.2,0.2-1.6,0.7c-0.5,0.5-0.8,1.2-0.8,2.1v4.4h-1v-8h0.9l0,1.5c0.3-0.8,1.2-1.5,2.4-1.5
		V206.7z"/>
	<path fill="#E7E1D4" d="M511.2,203.7l0,2h2.2v0.9h-2.2l0,4.9c0,1,0.3,1.4,1.2,1.4c0.3,0,0.7,0,1-0.2v0.9c-0.3,0.1-0.7,0.2-1.1,0.2
		c-1.4,0-2.1-0.7-2.1-2.2l0-5h-1.6v-0.9h1.6l0-2H511.2z"/>
	<path fill="#E7E1D4" d="M520.4,208.4v5.4h-1l0-1.2c-0.4,0.8-1.4,1.3-2.5,1.3c-1.4,0-2.3-0.9-2.3-2.1c0-1.2,0.7-2,2.2-2.3l2.6-0.5
		v-0.5c0-1.3-0.6-1.9-1.7-1.9c-1.1,0-1.8,0.6-1.8,1.7h-1c0-0.8,0.3-1.4,0.8-1.9c0.5-0.5,1.2-0.8,2-0.8
		C519.4,205.6,520.4,206.6,520.4,208.4z M519.4,209.9l-2.4,0.5c-0.9,0.2-1.3,0.6-1.3,1.4c0,0.8,0.5,1.2,1.4,1.2
		c0.8,0,1.4-0.3,1.9-0.9c0.4-0.5,0.5-1,0.5-1.6V209.9z"/>
	<path fill="#E7E1D4" d="M528.7,208.6v5.2h-1v-5.1c0-1.4-0.7-2.1-1.8-2.1c-1.2,0-2.1,1.1-2.1,2.8v4.5h-1v-8h0.9l0,1.2
		c0.3-0.8,1.2-1.4,2.3-1.4C527.8,205.6,528.7,206.8,528.7,208.6z"/>
	<path fill="#E7E1D4" d="M532.6,203.7l0,2h2.2v0.9h-2.2l0,4.9c0,1,0.3,1.4,1.2,1.4c0.3,0,0.7,0,1-0.2v0.9c-0.3,0.1-0.7,0.2-1.1,0.2
		c-1.4,0-2.1-0.7-2.1-2.2l0-5H530v-0.9h1.6l0-2H532.6z"/>
	<path fill="#E7E1D4" d="M545.6,202.2v0.9c-0.3-0.1-0.7-0.2-1-0.2c-0.8,0-1.2,0.5-1.2,1.4v1.4h2.1v0.9h-2.1v7.1h-1v-7.1h-1.6v-0.9
		h1.6v-1.4c0-1.5,0.8-2.3,2.1-2.3C545,202,545.3,202,545.6,202.2z"/>
	<path fill="#E7E1D4" d="M550.3,205.6c1.2,0,2.1,0.4,2.9,1.2s1.1,1.8,1.1,3c0,1.2-0.4,2.2-1.1,3c-0.7,0.8-1.7,1.2-2.9,1.2
		s-2.1-0.4-2.9-1.2c-0.7-0.8-1.1-1.8-1.1-3c0-1.2,0.4-2.2,1.1-3C548.2,206,549.1,205.6,550.3,205.6z M548.1,207.4
		c-0.5,0.6-0.8,1.4-0.8,2.3s0.3,1.7,0.8,2.3c0.6,0.6,1.3,0.9,2.2,0.9c0.9,0,1.6-0.3,2.1-0.9c0.5-0.6,0.8-1.4,0.8-2.3
		s-0.3-1.7-0.8-2.3c-0.5-0.6-1.2-0.9-2.1-0.9C549.4,206.5,548.7,206.8,548.1,207.4z"/>
	<path fill="#E7E1D4" d="M559.7,206.7c-0.7,0-1.2,0.2-1.6,0.7c-0.5,0.5-0.8,1.2-0.8,2.1v4.4h-1v-8h0.9l0,1.5
		c0.3-0.8,1.2-1.5,2.4-1.5V206.7z"/>
	<path fill="#E7E1D4" d="M568.2,203.7l0,2h2.2v0.9h-2.2l0,4.9c0,1,0.3,1.4,1.2,1.4c0.3,0,0.7,0,1-0.2v0.9c-0.3,0.1-0.7,0.2-1.1,0.2
		c-1.4,0-2.1-0.7-2.1-2.2l0-5h-1.6v-0.9h1.6l0-2H568.2z"/>
	<path fill="#E7E1D4" d="M573.1,202.1v4.8c0.3-0.7,1.2-1.3,2.3-1.3c1.7,0,2.6,1.2,2.6,3v5.2h-1v-5.1c0-1.4-0.7-2.1-1.8-2.1
		c-1.2,0-2.1,1.1-2.1,2.8v4.5h-1v-11.7H573.1z"/>
	<path fill="#E7E1D4" d="M581.8,203.2c0,0.4-0.4,0.8-0.8,0.8c-0.4,0-0.8-0.3-0.8-0.8s0.3-0.8,0.8-0.8
		C581.5,202.4,581.8,202.8,581.8,203.2z M581.5,205.7v8h-1v-8H581.5z"/>
	<path fill="#E7E1D4" d="M588.9,208h-1c0-1-0.5-1.5-1.5-1.5c-1,0-1.5,0.5-1.5,1.3c0,0.4,0.1,0.7,0.4,0.9c0.2,0.2,0.7,0.4,1.4,0.5
		c1.9,0.5,2.6,1.2,2.6,2.4c0,1.5-1.1,2.4-2.7,2.4c-1.8,0-2.8-1-2.9-2.5h1c0,1,0.7,1.6,1.9,1.6c1.1,0,1.7-0.6,1.7-1.4
		c0-0.8-0.5-1.2-1.9-1.5c-1.7-0.4-2.4-1-2.4-2.3c0-1.3,1-2.3,2.5-2.3C587.8,205.6,588.8,206.5,588.9,208z"/>
	<path fill="#E7E1D4" d="M22,224.9l-2.6,8h-1l-2.2-6.3L14,233h-1l-2.6-8h1.1l1.9,6l0.2,0.7l0.2-0.7l2-6h0.8l2,6l0.2,0.7L19,231
		l1.9-6H22z"/>
	<path fill="#E7E1D4" d="M30.2,228.8v0.6h-6.4c0.1,1.7,1.2,2.9,2.8,2.9c1.3,0,2.1-0.5,2.5-1.5h1c-0.5,1.6-1.7,2.4-3.5,2.4
		c-1.1,0-2-0.4-2.7-1.2c-0.7-0.8-1.1-1.8-1.1-3c0-1.2,0.3-2.2,1-3c0.7-0.8,1.6-1.2,2.7-1.2C28.7,224.8,30.2,226.2,30.2,228.8z
		 M23.8,228.4h5.4c0-1.7-1-2.7-2.6-2.7C25,225.7,23.9,226.8,23.8,228.4z"/>
	<path fill="#E7E1D4" d="M33.2,221.3v5c0.4-0.8,1.5-1.5,2.8-1.5c1.1,0,2,0.4,2.7,1.2c0.7,0.8,1,1.8,1,3s-0.3,2.2-1,3
		c-0.7,0.8-1.6,1.2-2.7,1.2c-1.4,0-2.4-0.7-2.9-1.5l0,1.4h-0.9v-11.7H33.2z M34,226.6c-0.5,0.6-0.8,1.3-0.8,2.3v0.3
		c0,0.9,0.3,1.6,0.8,2.2c0.5,0.5,1.2,0.8,2,0.8c0.8,0,1.5-0.3,2-0.9c0.5-0.6,0.8-1.4,0.8-2.3s-0.3-1.7-0.8-2.3
		c-0.5-0.6-1.2-0.9-2-0.9C35.2,225.7,34.6,226,34,226.6z"/>
	<path fill="#E7E1D4" d="M46.4,227.2h-1c0-1-0.5-1.5-1.5-1.5c-1,0-1.5,0.5-1.5,1.3c0,0.4,0.1,0.7,0.4,0.9c0.2,0.2,0.7,0.4,1.4,0.5
		c1.9,0.5,2.6,1.2,2.6,2.4c0,1.5-1.1,2.4-2.7,2.4c-1.8,0-2.8-1-2.9-2.5h1c0,1,0.7,1.6,1.9,1.6c1.1,0,1.7-0.6,1.7-1.4
		c0-0.8-0.5-1.2-1.9-1.5c-1.7-0.4-2.4-1-2.4-2.3c0-1.3,1-2.3,2.5-2.3C45.4,224.8,46.4,225.7,46.4,227.2z"/>
	<path fill="#E7E1D4" d="M50.1,222.4c0,0.4-0.4,0.8-0.8,0.8c-0.4,0-0.8-0.3-0.8-0.8c0-0.4,0.3-0.8,0.8-0.8
		C49.7,221.6,50.1,222,50.1,222.4z M49.8,224.9v8h-1v-8H49.8z"/>
	<path fill="#E7E1D4" d="M53.8,222.9l0,2H56v0.9h-2.2l0,4.9c0,1,0.3,1.4,1.2,1.4c0.3,0,0.7,0,1-0.2v0.9c-0.3,0.1-0.7,0.2-1.1,0.2
		c-1.4,0-2.1-0.7-2.1-2.2l0-5h-1.6v-0.9h1.6l0-2H53.8z"/>
	<path fill="#E7E1D4" d="M64.5,228.8v0.6h-6.4c0.1,1.7,1.2,2.9,2.8,2.9c1.3,0,2.1-0.5,2.5-1.5h1c-0.5,1.6-1.7,2.4-3.5,2.4
		c-1.1,0-2-0.4-2.7-1.2c-0.7-0.8-1.1-1.8-1.1-3c0-1.2,0.3-2.2,1-3c0.7-0.8,1.6-1.2,2.7-1.2C63,224.8,64.5,226.2,64.5,228.8z
		 M58.1,228.4h5.4c0-1.7-1-2.7-2.6-2.7C59.3,225.7,58.2,226.8,58.1,228.4z"/>
	<path fill="#E7E1D4" d="M72.4,222.9l0,2h2.2v0.9h-2.2l0,4.9c0,1,0.3,1.4,1.2,1.4c0.3,0,0.7,0,1-0.2v0.9c-0.3,0.1-0.7,0.2-1.1,0.2
		c-1.4,0-2.1-0.7-2.1-2.2l0-5h-1.6v-0.9h1.6l0-2H72.4z"/>
	<path fill="#E7E1D4" d="M79.6,224.8c1.2,0,2.1,0.4,2.9,1.2c0.7,0.8,1.1,1.8,1.1,3s-0.4,2.2-1.1,3c-0.7,0.8-1.7,1.2-2.9,1.2
		s-2.1-0.4-2.9-1.2c-0.7-0.8-1.1-1.8-1.1-3s0.4-2.2,1.1-3C77.4,225.2,78.4,224.8,79.6,224.8z M77.4,226.6c-0.5,0.6-0.8,1.4-0.8,2.3
		s0.3,1.7,0.8,2.3c0.6,0.6,1.3,0.9,2.2,0.9c0.9,0,1.6-0.3,2.1-0.9c0.5-0.6,0.8-1.4,0.8-2.3s-0.3-1.7-0.8-2.3
		c-0.5-0.6-1.2-0.9-2.1-0.9C78.7,225.7,78,226,77.4,226.6z"/>
	<path fill="#E7E1D4" d="M100.4,224.9l-2.6,8h-1l-2.2-6.3l-2.2,6.3h-1l-2.6-8h1.1l1.9,6l0.2,0.7l0.2-0.7l2-6h0.8l2,6l0.2,0.7
		l0.2-0.7l1.9-6H100.4z"/>
	<path fill="#E7E1D4" d="M105.1,224.8c1.2,0,2.1,0.4,2.9,1.2c0.7,0.8,1.1,1.8,1.1,3s-0.4,2.2-1.1,3c-0.7,0.8-1.7,1.2-2.9,1.2
		s-2.1-0.4-2.9-1.2c-0.7-0.8-1.1-1.8-1.1-3s0.4-2.2,1.1-3C103,225.2,104,224.8,105.1,224.8z M103,226.6c-0.5,0.6-0.8,1.4-0.8,2.3
		s0.3,1.7,0.8,2.3c0.6,0.6,1.3,0.9,2.2,0.9c0.9,0,1.6-0.3,2.1-0.9c0.5-0.6,0.8-1.4,0.8-2.3s-0.3-1.7-0.8-2.3
		c-0.5-0.6-1.2-0.9-2.1-0.9C104.3,225.7,103.5,226,103,226.6z"/>
	<path fill="#E7E1D4" d="M114.5,225.9c-0.7,0-1.2,0.2-1.6,0.7c-0.5,0.5-0.8,1.2-0.8,2.1v4.4h-1v-8h0.9l0,1.5
		c0.3-0.8,1.2-1.5,2.4-1.5V225.9z"/>
	<path fill="#E7E1D4" d="M117.3,221.3v7.7l3.4-4h1.3l-2.7,3.3l3.2,4.7h-1.2l-2.7-4l-1.2,1.4v2.5h-1v-11.7H117.3z"/>
	<path fill="#E7E1D4" d="M134.9,227.3h-1c-0.3-1-1.3-1.6-2.4-1.6c-0.8,0-1.5,0.3-2,0.9c-0.5,0.6-0.8,1.4-0.8,2.3
		c0,0.9,0.3,1.7,0.8,2.3c0.5,0.6,1.2,0.9,2,0.9c1.2,0,2.1-0.6,2.4-1.6h1c-0.4,1.6-1.8,2.5-3.5,2.5c-1.1,0-2-0.4-2.8-1.2
		c-0.7-0.8-1.1-1.8-1.1-3c0-1.2,0.4-2.2,1.1-3c0.7-0.8,1.6-1.2,2.8-1.2C133.1,224.8,134.4,225.7,134.9,227.3z"/>
	<path fill="#E7E1D4" d="M140.1,224.8c1.2,0,2.1,0.4,2.9,1.2c0.7,0.8,1.1,1.8,1.1,3s-0.4,2.2-1.1,3c-0.7,0.8-1.7,1.2-2.9,1.2
		s-2.1-0.4-2.9-1.2c-0.7-0.8-1.1-1.8-1.1-3s0.4-2.2,1.1-3C138,225.2,138.9,224.8,140.1,224.8z M138,226.6c-0.5,0.6-0.8,1.4-0.8,2.3
		s0.3,1.7,0.8,2.3c0.6,0.6,1.3,0.9,2.2,0.9c0.9,0,1.6-0.3,2.1-0.9c0.5-0.6,0.8-1.4,0.8-2.3s-0.3-1.7-0.8-2.3
		c-0.5-0.6-1.2-0.9-2.1-0.9C139.2,225.7,138.5,226,138,226.6z"/>
	<path fill="#E7E1D4" d="M149.5,225.9c-0.7,0-1.2,0.2-1.6,0.7c-0.5,0.5-0.8,1.2-0.8,2.1v4.4h-1v-8h0.9l0,1.5
		c0.3-0.8,1.2-1.5,2.4-1.5V225.9z"/>
	<path fill="#E7E1D4" d="M154.7,225.9c-0.7,0-1.2,0.2-1.6,0.7c-0.5,0.5-0.8,1.2-0.8,2.1v4.4h-1v-8h0.9l0,1.5
		c0.3-0.8,1.2-1.5,2.4-1.5V225.9z"/>
	<path fill="#E7E1D4" d="M162.9,228.8v0.6h-6.4c0.1,1.7,1.2,2.9,2.8,2.9c1.3,0,2.1-0.5,2.5-1.5h1c-0.5,1.6-1.7,2.4-3.5,2.4
		c-1.1,0-2-0.4-2.7-1.2c-0.7-0.8-1.1-1.8-1.1-3c0-1.2,0.3-2.2,1-3c0.7-0.8,1.6-1.2,2.7-1.2C161.4,224.8,162.9,226.2,162.9,228.8z
		 M156.5,228.4h5.4c0-1.7-1-2.7-2.6-2.7C157.7,225.7,156.6,226.8,156.5,228.4z"/>
	<path fill="#E7E1D4" d="M171.8,227.3h-1c-0.3-1-1.3-1.6-2.4-1.6c-0.8,0-1.5,0.3-2,0.9c-0.5,0.6-0.8,1.4-0.8,2.3
		c0,0.9,0.3,1.7,0.8,2.3c0.5,0.6,1.2,0.9,2,0.9c1.2,0,2.1-0.6,2.4-1.6h1c-0.4,1.6-1.8,2.5-3.5,2.5c-1.1,0-2-0.4-2.8-1.2
		c-0.7-0.8-1.1-1.8-1.1-3c0-1.2,0.4-2.2,1.1-3c0.7-0.8,1.6-1.2,2.8-1.2C170,224.8,171.3,225.7,171.8,227.3z"/>
	<path fill="#E7E1D4" d="M175.2,222.9l0,2h2.2v0.9h-2.2l0,4.9c0,1,0.3,1.4,1.2,1.4c0.3,0,0.7,0,1-0.2v0.9c-0.3,0.1-0.7,0.2-1.1,0.2
		c-1.4,0-2.1-0.7-2.1-2.2l0-5h-1.6v-0.9h1.6l0-2H175.2z"/>
	<path fill="#E7E1D4" d="M180.1,221.3V233h-1v-11.7H180.1z"/>
	<path fill="#E7E1D4" d="M189.1,224.9l-4.5,11.5h-1.1l1.4-3.6l-3.1-7.9h1.1l2.4,6.2l0.2,0.6l0.2-0.6l2.4-6.2H189.1z"/>
	<path fill="#E7E1D4" d="M190,233.2c-0.8,0-1.2-0.9-0.6-1.5c0.5-0.6,1.5-0.1,1.5,0.6C190.8,232.8,190.4,233.2,190,233.2z"/>
	<path fill="#E7E1D4" d="M201.8,221.8l4.6,11.2h-1.2l-1.3-3.2h-5.2l-1.3,3.2h-1.2l4.6-11.2H201.8z M201.3,223.2l-0.2,0.6l-2,4.9h4.4
		l-2-4.9L201.3,223.2z"/>
	<path fill="#E7E1D4" d="M212.7,227.2h-1c0-1-0.5-1.5-1.5-1.5c-1,0-1.5,0.5-1.5,1.3c0,0.4,0.1,0.7,0.4,0.9c0.2,0.2,0.7,0.4,1.4,0.5
		c1.9,0.5,2.6,1.2,2.6,2.4c0,1.5-1.1,2.4-2.7,2.4c-1.8,0-2.8-1-2.9-2.5h1c0,1,0.7,1.6,1.9,1.6c1.1,0,1.7-0.6,1.7-1.4
		c0-0.8-0.5-1.2-1.9-1.5c-1.7-0.4-2.4-1-2.4-2.3c0-1.3,1-2.3,2.5-2.3C211.6,224.8,212.7,225.7,212.7,227.2z"/>
	<path fill="#E7E1D4" d="M224.6,227.6v5.4h-1l0-1.2c-0.4,0.8-1.4,1.3-2.5,1.3c-1.4,0-2.3-0.9-2.3-2.1c0-1.2,0.7-2,2.2-2.3l2.6-0.5
		v-0.5c0-1.3-0.6-1.9-1.7-1.9c-1.1,0-1.8,0.6-1.8,1.7h-1c0-0.8,0.3-1.4,0.8-1.9c0.5-0.5,1.2-0.8,2-0.8
		C223.7,224.8,224.6,225.8,224.6,227.6z M223.6,229.1l-2.4,0.5c-0.9,0.2-1.3,0.6-1.3,1.4c0,0.8,0.5,1.2,1.4,1.2
		c0.8,0,1.4-0.3,1.9-0.9c0.4-0.5,0.5-1,0.5-1.6V229.1z"/>
	<path fill="#E7E1D4" d="M238.3,221.3V233h-0.9l0-1.4c-0.5,0.8-1.5,1.5-2.9,1.5c-1.1,0-2-0.4-2.7-1.2c-0.7-0.8-1-1.8-1-3
		s0.3-2.2,1-3c0.7-0.8,1.6-1.2,2.7-1.2c1.3,0,2.4,0.7,2.8,1.5v-5H238.3z M232.5,226.6c-0.5,0.6-0.8,1.4-0.8,2.3s0.3,1.7,0.8,2.3
		s1.2,0.9,2,0.9c0.8,0,1.4-0.3,1.9-0.8c0.5-0.6,0.8-1.3,0.8-2.2v-0.3c0-0.9-0.3-1.7-0.8-2.3c-0.5-0.6-1.2-0.8-1.9-0.8
		C233.7,225.7,233.1,226,232.5,226.6z"/>
	<path fill="#E7E1D4" d="M247.6,228.8v0.6h-6.4c0.1,1.7,1.2,2.9,2.8,2.9c1.3,0,2.1-0.5,2.5-1.5h1c-0.5,1.6-1.7,2.4-3.5,2.4
		c-1.1,0-2-0.4-2.7-1.2c-0.7-0.8-1.1-1.8-1.1-3c0-1.2,0.3-2.2,1-3c0.7-0.8,1.6-1.2,2.7-1.2C246.1,224.8,247.6,226.2,247.6,228.8z
		 M241.2,228.4h5.4c0-1.7-1-2.7-2.6-2.7C242.4,225.7,241.3,226.8,241.2,228.4z"/>
	<path fill="#E7E1D4" d="M254.4,227.2h-1c0-1-0.5-1.5-1.5-1.5c-1,0-1.5,0.5-1.5,1.3c0,0.4,0.1,0.7,0.4,0.9c0.2,0.2,0.7,0.4,1.4,0.5
		c1.9,0.5,2.6,1.2,2.6,2.4c0,1.5-1.1,2.4-2.7,2.4c-1.8,0-2.8-1-2.9-2.5h1c0,1,0.7,1.6,1.9,1.6c1.1,0,1.7-0.6,1.7-1.4
		c0-0.8-0.5-1.2-1.9-1.5c-1.7-0.4-2.4-1-2.4-2.3c0-1.3,1-2.3,2.5-2.3C253.4,224.8,254.4,225.7,254.4,227.2z"/>
	<path fill="#E7E1D4" d="M258,222.4c0,0.4-0.4,0.8-0.8,0.8c-0.4,0-0.8-0.3-0.8-0.8c0-0.4,0.3-0.8,0.8-0.8
		C257.7,221.6,258,222,258,222.4z M257.8,224.9v8h-1v-8H257.8z"/>
	<path fill="#E7E1D4" d="M267,224.9v0.9h-1.6c0.4,0.5,0.6,1.1,0.6,1.8c0,0.8-0.3,1.5-0.8,2s-1.3,0.8-2.2,0.8c-0.7,0-1.4-0.2-1.9-0.5
		c-0.3,0.3-0.5,0.6-0.5,1c0,0.6,0.5,0.9,1.2,0.9h2.2c1.7,0,2.5,0.8,2.5,2.2c0,1.6-1.2,2.6-3.2,2.6c-2.2,0-3.4-0.9-3.4-2.4
		c0-0.8,0.3-1.3,0.9-1.6c-0.6-0.3-1.1-0.8-1.1-1.6c0-0.7,0.3-1.2,0.8-1.6c-0.4-0.5-0.5-1-0.5-1.7c0-1.7,1.2-2.9,3-2.9
		c0.4,0,0.8,0.1,1.1,0.2H267z M262.3,232.8c-0.8,0-1.3,0.5-1.3,1.4c0,1,0.8,1.6,2.4,1.6c1.5,0,2.2-0.6,2.2-1.7
		c0-0.8-0.6-1.3-1.6-1.3H262.3z M263,229.6c1.2,0,2-0.8,2-1.9c0-1.2-0.8-2-2-2s-2,0.8-2,2C261,228.8,261.8,229.6,263,229.6z"/>
	<path fill="#E7E1D4" d="M274.1,227.8v5.2h-1v-5.1c0-1.4-0.7-2.1-1.8-2.1c-1.2,0-2.1,1.1-2.1,2.8v4.5h-1v-8h0.9l0,1.2
		c0.3-0.8,1.2-1.4,2.3-1.4C273.1,224.8,274.1,226,274.1,227.8z"/>
	<path fill="#E7E1D4" d="M283.2,228.8v0.6h-6.4c0.1,1.7,1.2,2.9,2.8,2.9c1.3,0,2.1-0.5,2.5-1.5h1c-0.5,1.6-1.7,2.4-3.5,2.4
		c-1.1,0-2-0.4-2.7-1.2c-0.7-0.8-1.1-1.8-1.1-3c0-1.2,0.3-2.2,1-3c0.7-0.8,1.6-1.2,2.7-1.2C281.8,224.8,283.2,226.2,283.2,228.8z
		 M276.9,228.4h5.4c0-1.7-1-2.7-2.6-2.7C278.1,225.7,277,226.8,276.9,228.4z"/>
	<path fill="#E7E1D4" d="M288.9,225.9c-0.7,0-1.2,0.2-1.6,0.7c-0.5,0.5-0.8,1.2-0.8,2.1v4.4h-1v-8h0.9l0,1.5
		c0.3-0.8,1.2-1.5,2.4-1.5V225.9z"/>
	<path fill="#E7E1D4" d="M289.6,235.1l-0.4-0.1c0.3-0.5,0.5-1.1,0.6-1.8c-0.7,0-1-0.9-0.5-1.4c0.5-0.5,1.5-0.1,1.4,0.6
		C290.7,233.3,290.2,234.4,289.6,235.1z"/>
	<path fill="#E7E1D4" d="M298.1,221.8V233H297v-11.2H298.1z"/>
	<path fill="#E7E1D4" d="M311.8,226c0.7,0.8,1,1.8,1,3s-0.3,2.2-1,3c-0.7,0.8-1.6,1.2-2.7,1.2c-1.4,0-2.4-0.7-2.8-1.5v4.8h-1v-11.5
		h1l0,1.4c0.5-0.8,1.5-1.6,2.9-1.6C310.2,224.8,311.1,225.2,311.8,226z M307,226.5c-0.5,0.5-0.8,1.3-0.8,2.2v0.3
		c0,0.9,0.3,1.7,0.8,2.3c0.5,0.6,1.2,0.8,1.9,0.8c0.8,0,1.5-0.3,2-0.9c0.5-0.6,0.8-1.4,0.8-2.3s-0.3-1.7-0.8-2.3
		c-0.5-0.6-1.2-0.9-2-0.9C308.2,225.7,307.5,226,307,226.5z"/>
	<path fill="#E7E1D4" d="M318.2,225.9c-0.7,0-1.2,0.2-1.6,0.7c-0.5,0.5-0.8,1.2-0.8,2.1v4.4h-1v-8h0.9l0,1.5
		c0.3-0.8,1.2-1.5,2.4-1.5V225.9z"/>
	<path fill="#E7E1D4" d="M326.4,228.8v0.6H320c0.1,1.7,1.2,2.9,2.8,2.9c1.3,0,2.1-0.5,2.5-1.5h1c-0.5,1.6-1.7,2.4-3.5,2.4
		c-1.1,0-2-0.4-2.7-1.2c-0.7-0.8-1.1-1.8-1.1-3c0-1.2,0.3-2.2,1-3c0.7-0.8,1.6-1.2,2.7-1.2C324.9,224.8,326.4,226.2,326.4,228.8z
		 M320,228.4h5.4c0-1.7-1-2.7-2.6-2.7C321.2,225.7,320.1,226.8,320,228.4z"/>
	<path fill="#E7E1D4" d="M332.2,221.4v0.9c-0.3-0.1-0.7-0.2-1-0.2c-0.8,0-1.2,0.5-1.2,1.4v1.4h2.1v0.9H330v7.1h-1v-7.1h-1.6v-0.9
		h1.6v-1.4c0-1.5,0.8-2.3,2.1-2.3C331.5,221.2,331.9,221.2,332.2,221.4z"/>
	<path fill="#E7E1D4" d="M340.3,228.8v0.6h-6.4c0.1,1.7,1.2,2.9,2.8,2.9c1.3,0,2.1-0.5,2.5-1.5h1c-0.5,1.6-1.7,2.4-3.5,2.4
		c-1.1,0-2-0.4-2.7-1.2c-0.7-0.8-1.1-1.8-1.1-3c0-1.2,0.3-2.2,1-3c0.7-0.8,1.6-1.2,2.7-1.2C338.8,224.8,340.3,226.2,340.3,228.8z
		 M333.9,228.4h5.4c0-1.7-1-2.7-2.6-2.7C335.1,225.7,334,226.8,333.9,228.4z"/>
	<path fill="#E7E1D4" d="M345.9,225.9c-0.7,0-1.2,0.2-1.6,0.7c-0.5,0.5-0.8,1.2-0.8,2.1v4.4h-1v-8h0.9l0,1.5
		c0.3-0.8,1.2-1.5,2.4-1.5V225.9z"/>
	<path fill="#E7E1D4" d="M353.4,222.9l0,2h2.2v0.9h-2.2l0,4.9c0,1,0.3,1.4,1.2,1.4c0.3,0,0.7,0,1-0.2v0.9c-0.3,0.1-0.7,0.2-1.1,0.2
		c-1.4,0-2.1-0.7-2.1-2.2l0-5h-1.6v-0.9h1.6l0-2H353.4z"/>
	<path fill="#E7E1D4" d="M360.6,224.8c1.2,0,2.1,0.4,2.9,1.2c0.7,0.8,1.1,1.8,1.1,3s-0.4,2.2-1.1,3c-0.7,0.8-1.7,1.2-2.9,1.2
		s-2.1-0.4-2.9-1.2c-0.7-0.8-1.1-1.8-1.1-3s0.4-2.2,1.1-3C358.5,225.2,359.4,224.8,360.6,224.8z M358.4,226.6
		c-0.5,0.6-0.8,1.4-0.8,2.3s0.3,1.7,0.8,2.3c0.6,0.6,1.3,0.9,2.2,0.9c0.9,0,1.6-0.3,2.1-0.9c0.5-0.6,0.8-1.4,0.8-2.3
		s-0.3-1.7-0.8-2.3c-0.5-0.6-1.2-0.9-2.1-0.9C359.7,225.7,359,226,358.4,226.6z"/>
	<path fill="#E7E1D4" d="M377.6,226c0.7,0.8,1,1.8,1,3s-0.3,2.2-1,3c-0.7,0.8-1.6,1.2-2.7,1.2c-1.4,0-2.4-0.7-2.8-1.5v4.8h-1v-11.5
		h1l0,1.4c0.5-0.8,1.5-1.6,2.9-1.6C376,224.8,376.9,225.2,377.6,226z M372.8,226.5c-0.5,0.5-0.8,1.3-0.8,2.2v0.3
		c0,0.9,0.3,1.7,0.8,2.3c0.5,0.6,1.2,0.8,1.9,0.8c0.8,0,1.5-0.3,2-0.9c0.5-0.6,0.8-1.4,0.8-2.3s-0.3-1.7-0.8-2.3
		c-0.5-0.6-1.2-0.9-2-0.9C374,225.7,373.3,226,372.8,226.5z"/>
	<path fill="#E7E1D4" d="M384,225.9c-0.7,0-1.2,0.2-1.6,0.7c-0.5,0.5-0.8,1.2-0.8,2.1v4.4h-1v-8h0.9l0,1.5c0.3-0.8,1.2-1.5,2.4-1.5
		V225.9z"/>
	<path fill="#E7E1D4" d="M388.8,224.8c1.2,0,2.1,0.4,2.9,1.2c0.7,0.8,1.1,1.8,1.1,3s-0.4,2.2-1.1,3c-0.7,0.8-1.7,1.2-2.9,1.2
		s-2.1-0.4-2.9-1.2c-0.7-0.8-1.1-1.8-1.1-3s0.4-2.2,1.1-3C386.6,225.2,387.6,224.8,388.8,224.8z M386.6,226.6
		c-0.5,0.6-0.8,1.4-0.8,2.3s0.3,1.7,0.8,2.3c0.6,0.6,1.3,0.9,2.2,0.9c0.9,0,1.6-0.3,2.1-0.9c0.5-0.6,0.8-1.4,0.8-2.3
		s-0.3-1.7-0.8-2.3c-0.5-0.6-1.2-0.9-2.1-0.9C387.9,225.7,387.2,226,386.6,226.6z"/>
	<path fill="#E7E1D4" d="M400.8,224.9l-3.2,8h-1l-3.2-8h1.1l2.4,6.2l0.2,0.6l0.2-0.6l2.4-6.2H400.8z"/>
	<path fill="#E7E1D4" d="M403.7,222.4c0,0.4-0.4,0.8-0.8,0.8c-0.4,0-0.8-0.3-0.8-0.8c0-0.4,0.3-0.8,0.8-0.8
		C403.4,221.6,403.7,222,403.7,222.4z M403.5,224.9v8h-1v-8H403.5z"/>
	<path fill="#E7E1D4" d="M413,221.3V233H412l0-1.4c-0.5,0.8-1.5,1.5-2.9,1.5c-1.1,0-2-0.4-2.7-1.2c-0.7-0.8-1-1.8-1-3s0.3-2.2,1-3
		c0.7-0.8,1.6-1.2,2.7-1.2c1.3,0,2.4,0.7,2.8,1.5v-5H413z M407.2,226.6c-0.5,0.6-0.8,1.4-0.8,2.3s0.3,1.7,0.8,2.3
		c0.5,0.6,1.2,0.9,2,0.9c0.8,0,1.4-0.3,1.9-0.8c0.5-0.6,0.8-1.3,0.8-2.2v-0.3c0-0.9-0.3-1.7-0.8-2.3c-0.5-0.6-1.2-0.8-1.9-0.8
		C408.4,225.7,407.7,226,407.2,226.6z"/>
	<path fill="#E7E1D4" d="M422.2,228.8v0.6h-6.4c0.1,1.7,1.2,2.9,2.8,2.9c1.3,0,2.1-0.5,2.5-1.5h1c-0.5,1.6-1.7,2.4-3.5,2.4
		c-1.1,0-2-0.4-2.7-1.2c-0.7-0.8-1.1-1.8-1.1-3c0-1.2,0.3-2.2,1-3c0.7-0.8,1.6-1.2,2.7-1.2C420.8,224.8,422.2,226.2,422.2,228.8z
		 M415.9,228.4h5.4c0-1.7-1-2.7-2.6-2.7C417.1,225.7,416,226.8,415.9,228.4z"/>
	<path fill="#E7E1D4" d="M434,227.6v5.4h-1l0-1.2c-0.4,0.8-1.4,1.3-2.5,1.3c-1.4,0-2.3-0.9-2.3-2.1c0-1.2,0.7-2,2.2-2.3l2.6-0.5
		v-0.5c0-1.3-0.6-1.9-1.7-1.9c-1.1,0-1.8,0.6-1.8,1.7h-1c0-0.8,0.3-1.4,0.8-1.9c0.5-0.5,1.2-0.8,2-0.8
		C433,224.8,434,225.8,434,227.6z M433,229.1l-2.4,0.5c-0.9,0.2-1.3,0.6-1.3,1.4c0,0.8,0.5,1.2,1.4,1.2c0.8,0,1.4-0.3,1.9-0.9
		c0.4-0.5,0.5-1,0.5-1.6V229.1z"/>
	<path fill="#E7E1D4" d="M447.4,227.3h-1c-0.3-1-1.3-1.6-2.4-1.6c-0.8,0-1.5,0.3-2,0.9c-0.5,0.6-0.8,1.4-0.8,2.3
		c0,0.9,0.3,1.7,0.8,2.3c0.5,0.6,1.2,0.9,2,0.9c1.2,0,2.1-0.6,2.4-1.6h1c-0.4,1.6-1.8,2.5-3.5,2.5c-1.1,0-2-0.4-2.8-1.2
		c-0.7-0.8-1.1-1.8-1.1-3c0-1.2,0.4-2.2,1.1-3c0.7-0.8,1.6-1.2,2.8-1.2C445.7,224.8,447,225.7,447.4,227.3z"/>
	<path fill="#E7E1D4" d="M452.7,224.8c1.2,0,2.1,0.4,2.9,1.2c0.7,0.8,1.1,1.8,1.1,3s-0.4,2.2-1.1,3c-0.7,0.8-1.7,1.2-2.9,1.2
		s-2.1-0.4-2.9-1.2c-0.7-0.8-1.1-1.8-1.1-3s0.4-2.2,1.1-3C450.5,225.2,451.5,224.8,452.7,224.8z M450.5,226.6
		c-0.5,0.6-0.8,1.4-0.8,2.3s0.3,1.7,0.8,2.3c0.6,0.6,1.3,0.9,2.2,0.9c0.9,0,1.6-0.3,2.1-0.9c0.5-0.6,0.8-1.4,0.8-2.3
		s-0.3-1.7-0.8-2.3c-0.5-0.6-1.2-0.9-2.1-0.9C451.8,225.7,451.1,226,450.5,226.6z"/>
	<path fill="#E7E1D4" d="M469.3,227.8v5.2h-1v-5.1c0-1.4-0.7-2.1-1.8-2.1c-1.2,0-2.1,1-2.1,2.6v4.6h-1v-5.1c0-1.4-0.7-2.1-1.8-2.1
		c-1.2,0-2.1,1.1-2.1,2.8v4.5h-1v-8h0.9l0,1.2c0.3-0.8,1.2-1.4,2.3-1.4c1.2,0,2,0.5,2.4,1.6c0.4-0.9,1.3-1.6,2.5-1.6
		C468.3,224.8,469.3,226,469.3,227.8z"/>
	<path fill="#E7E1D4" d="M478.4,226c0.7,0.8,1,1.8,1,3s-0.3,2.2-1,3c-0.7,0.8-1.6,1.2-2.7,1.2c-1.4,0-2.4-0.7-2.8-1.5v4.8h-1v-11.5
		h1l0,1.4c0.5-0.8,1.5-1.6,2.9-1.6C476.8,224.8,477.7,225.2,478.4,226z M473.6,226.5c-0.5,0.5-0.8,1.3-0.8,2.2v0.3
		c0,0.9,0.3,1.7,0.8,2.3c0.5,0.6,1.2,0.8,1.9,0.8c0.8,0,1.5-0.3,2-0.9c0.5-0.6,0.8-1.4,0.8-2.3s-0.3-1.7-0.8-2.3
		c-0.5-0.6-1.2-0.9-2-0.9C474.8,225.7,474.2,226,473.6,226.5z"/>
	<path fill="#E7E1D4" d="M482.4,221.3V233h-1v-11.7H482.4z"/>
	<path fill="#E7E1D4" d="M491.7,228.8v0.6h-6.4c0.1,1.7,1.2,2.9,2.8,2.9c1.3,0,2.1-0.5,2.5-1.5h1c-0.5,1.6-1.7,2.4-3.5,2.4
		c-1.1,0-2-0.4-2.7-1.2c-0.7-0.8-1.1-1.8-1.1-3c0-1.2,0.3-2.2,1-3c0.7-0.8,1.6-1.2,2.7-1.2C490.3,224.8,491.7,226.2,491.7,228.8z
		 M485.3,228.4h5.4c0-1.7-1-2.7-2.6-2.7C486.5,225.7,485.5,226.8,485.3,228.4z"/>
	<path fill="#E7E1D4" d="M495.2,222.9l0,2h2.2v0.9h-2.2l0,4.9c0,1,0.3,1.4,1.2,1.4c0.3,0,0.7,0,1-0.2v0.9c-0.3,0.1-0.7,0.2-1.1,0.2
		c-1.4,0-2.1-0.7-2.1-2.2l0-5h-1.6v-0.9h1.6l0-2H495.2z"/>
	<path fill="#E7E1D4" d="M505.9,228.8v0.6h-6.4c0.1,1.7,1.2,2.9,2.8,2.9c1.3,0,2.1-0.5,2.5-1.5h1c-0.5,1.6-1.7,2.4-3.5,2.4
		c-1.1,0-2-0.4-2.7-1.2c-0.7-0.8-1.1-1.8-1.1-3c0-1.2,0.3-2.2,1-3c0.7-0.8,1.6-1.2,2.7-1.2C504.4,224.8,505.9,226.2,505.9,228.8z
		 M499.5,228.4h5.4c0-1.7-1-2.7-2.6-2.7C500.7,225.7,499.6,226.8,499.5,228.4z"/>
	<path fill="#E7E1D4" d="M519,228.8v0.6h-6.4c0.1,1.7,1.2,2.9,2.8,2.9c1.3,0,2.1-0.5,2.5-1.5h1c-0.5,1.6-1.7,2.4-3.5,2.4
		c-1.1,0-2-0.4-2.7-1.2c-0.7-0.8-1.1-1.8-1.1-3c0-1.2,0.3-2.2,1-3c0.7-0.8,1.6-1.2,2.7-1.2C517.6,224.8,519,226.2,519,228.8z
		 M512.7,228.4h5.4c0-1.7-1-2.7-2.6-2.7C513.9,225.7,512.8,226.8,512.7,228.4z"/>
	<path fill="#E7E1D4" d="M527.2,224.9l-2.7,3.9l2.9,4.2h-1.2l-2.4-3.3l-2.4,3.3h-1.2l2.9-4.2l-2.7-3.9h1.2l2.1,3.1l2.2-3.1H527.2z"
		/>
	<path fill="#E7E1D4" d="M535.8,226c0.7,0.8,1,1.8,1,3s-0.3,2.2-1,3c-0.7,0.8-1.6,1.2-2.7,1.2c-1.4,0-2.4-0.7-2.8-1.5v4.8h-1v-11.5
		h1l0,1.4c0.5-0.8,1.5-1.6,2.9-1.6C534.2,224.8,535.2,225.2,535.8,226z M531.1,226.5c-0.5,0.5-0.8,1.3-0.8,2.2v0.3
		c0,0.9,0.3,1.7,0.8,2.3c0.5,0.6,1.2,0.8,1.9,0.8c0.8,0,1.5-0.3,2-0.9c0.5-0.6,0.8-1.4,0.8-2.3s-0.3-1.7-0.8-2.3
		c-0.5-0.6-1.2-0.9-2-0.9C532.2,225.7,531.6,226,531.1,226.5z"/>
	<path fill="#E7E1D4" d="M545.7,228.8v0.6h-6.4c0.1,1.7,1.2,2.9,2.8,2.9c1.3,0,2.1-0.5,2.5-1.5h1c-0.5,1.6-1.7,2.4-3.5,2.4
		c-1.1,0-2-0.4-2.7-1.2c-0.7-0.8-1.1-1.8-1.1-3c0-1.2,0.3-2.2,1-3c0.7-0.8,1.6-1.2,2.7-1.2C544.2,224.8,545.7,226.2,545.7,228.8z
		 M539.3,228.4h5.4c0-1.7-1-2.7-2.6-2.7C540.5,225.7,539.4,226.8,539.3,228.4z"/>
	<path fill="#E7E1D4" d="M551.3,225.9c-0.7,0-1.2,0.2-1.6,0.7c-0.5,0.5-0.8,1.2-0.8,2.1v4.4h-1v-8h0.9l0,1.5
		c0.3-0.8,1.2-1.5,2.4-1.5V225.9z"/>
	<path fill="#E7E1D4" d="M554.3,222.4c0,0.4-0.4,0.8-0.8,0.8c-0.4,0-0.8-0.3-0.8-0.8c0-0.4,0.3-0.8,0.8-0.8
		C553.9,221.6,554.3,222,554.3,222.4z M554,224.9v8h-1v-8H554z"/>
	<path fill="#E7E1D4" d="M563.3,228.8v0.6h-6.4c0.1,1.7,1.2,2.9,2.8,2.9c1.3,0,2.1-0.5,2.5-1.5h1c-0.5,1.6-1.7,2.4-3.5,2.4
		c-1.1,0-2-0.4-2.7-1.2c-0.7-0.8-1.1-1.8-1.1-3c0-1.2,0.3-2.2,1-3c0.7-0.8,1.6-1.2,2.7-1.2C561.9,224.8,563.3,226.2,563.3,228.8z
		 M556.9,228.4h5.4c0-1.7-1-2.7-2.6-2.7C558.1,225.7,557.1,226.8,556.9,228.4z"/>
	<path fill="#E7E1D4" d="M571.3,227.8v5.2h-1v-5.1c0-1.4-0.7-2.1-1.8-2.1c-1.2,0-2.1,1.1-2.1,2.8v4.5h-1v-8h0.9l0,1.2
		c0.3-0.8,1.2-1.4,2.3-1.4C570.4,224.8,571.3,226,571.3,227.8z"/>
	<path fill="#E7E1D4" d="M580.4,227.3h-1c-0.3-1-1.3-1.6-2.4-1.6c-0.8,0-1.5,0.3-2,0.9c-0.5,0.6-0.8,1.4-0.8,2.3
		c0,0.9,0.3,1.7,0.8,2.3c0.5,0.6,1.2,0.9,2,0.9c1.2,0,2.1-0.6,2.4-1.6h1c-0.4,1.6-1.8,2.5-3.5,2.5c-1.1,0-2-0.4-2.8-1.2
		c-0.7-0.8-1.1-1.8-1.1-3c0-1.2,0.4-2.2,1.1-3c0.7-0.8,1.6-1.2,2.8-1.2C578.6,224.8,580,225.7,580.4,227.3z"/>
	<path fill="#E7E1D4" d="M589.1,228.8v0.6h-6.4c0.1,1.7,1.2,2.9,2.8,2.9c1.3,0,2.1-0.5,2.5-1.5h1c-0.5,1.6-1.7,2.4-3.5,2.4
		c-1.1,0-2-0.4-2.7-1.2c-0.7-0.8-1.1-1.8-1.1-3c0-1.2,0.3-2.2,1-3c0.7-0.8,1.6-1.2,2.7-1.2C587.6,224.8,589.1,226.2,589.1,228.8z
		 M582.7,228.4h5.4c0-1.7-1-2.7-2.6-2.7C583.9,225.7,582.8,226.8,582.7,228.4z"/>
	<path fill="#E7E1D4" d="M22,244.1l-2.6,8h-1l-2.2-6.3l-2.2,6.3h-1l-2.6-8h1.1l1.9,6l0.2,0.7l0.2-0.7l2-6h0.8l2,6l0.2,0.7l0.2-0.7
		l1.9-6H22z"/>
	<path fill="#E7E1D4" d="M24.6,240.5v4.8c0.3-0.7,1.2-1.3,2.3-1.3c1.7,0,2.6,1.2,2.6,3v5.2h-1v-5.1c0-1.4-0.7-2.1-1.8-2.1
		c-1.2,0-2.1,1.1-2.1,2.8v4.5h-1v-11.7H24.6z"/>
	<path fill="#E7E1D4" d="M38.7,248v0.6h-6.4c0.1,1.7,1.2,2.9,2.8,2.9c1.3,0,2.1-0.5,2.5-1.5h1c-0.5,1.6-1.7,2.4-3.5,2.4
		c-1.1,0-2-0.4-2.7-1.2c-0.7-0.8-1.1-1.8-1.1-3c0-1.2,0.3-2.2,1-3c0.7-0.8,1.6-1.2,2.7-1.2C37.2,244,38.7,245.4,38.7,248z
		 M32.3,247.6h5.4c0-1.7-1-2.7-2.6-2.7C33.5,244.9,32.4,246,32.3,247.6z"/>
	<path fill="#E7E1D4" d="M46.6,247v5.2h-1v-5.1c0-1.4-0.7-2.1-1.8-2.1c-1.2,0-2.1,1.1-2.1,2.8v4.5h-1v-8h0.9l0,1.2
		c0.3-0.8,1.2-1.4,2.3-1.4C45.7,244,46.6,245.2,46.6,247z"/>
	<path fill="#E7E1D4" d="M60.2,244.1l-4.5,11.5h-1.1L56,252l-3.1-7.9h1.1l2.4,6.2l0.2,0.6l0.2-0.6l2.4-6.2H60.2z"/>
	<path fill="#E7E1D4" d="M64.9,244c1.2,0,2.1,0.4,2.9,1.2c0.7,0.8,1.1,1.8,1.1,3s-0.4,2.2-1.1,3c-0.7,0.8-1.7,1.2-2.9,1.2
		s-2.1-0.4-2.9-1.2c-0.7-0.8-1.1-1.8-1.1-3s0.4-2.2,1.1-3C62.8,244.4,63.7,244,64.9,244z M62.8,245.8c-0.5,0.6-0.8,1.4-0.8,2.3
		s0.3,1.7,0.8,2.3c0.6,0.6,1.3,0.9,2.2,0.9c0.9,0,1.6-0.3,2.1-0.9c0.5-0.6,0.8-1.4,0.8-2.3s-0.3-1.7-0.8-2.3
		c-0.5-0.6-1.2-0.9-2.1-0.9C64,244.9,63.3,245.2,62.8,245.8z"/>
	<path fill="#E7E1D4" d="M76.5,244.1v8h-0.9l0-1.2c-0.3,0.8-1.2,1.4-2.3,1.4c-1.7,0-2.6-1.2-2.6-3v-5.2h1v5.1c0,1.4,0.7,2.2,1.8,2.2
		c1.2,0,2.1-1.1,2.1-2.7v-4.5H76.5z"/>
	<path fill="#E7E1D4" d="M89.7,247v5.2h-1v-5.1c0-1.4-0.7-2.1-1.8-2.1c-1.2,0-2.1,1.1-2.1,2.8v4.5h-1v-8h0.9l0,1.2
		c0.3-0.8,1.2-1.4,2.3-1.4C88.8,244,89.7,245.2,89.7,247z"/>
	<path fill="#E7E1D4" d="M97.4,246.8v5.4h-1l0-1.2c-0.4,0.8-1.4,1.3-2.5,1.3c-1.4,0-2.3-0.9-2.3-2.1c0-1.2,0.7-2,2.2-2.3l2.6-0.5
		v-0.5c0-1.3-0.6-1.9-1.7-1.9c-1.1,0-1.8,0.6-1.8,1.7h-1c0-0.8,0.3-1.4,0.8-1.9c0.5-0.5,1.2-0.8,2-0.8C96.5,244,97.4,245,97.4,246.8
		z M96.4,248.3l-2.4,0.5c-0.9,0.2-1.3,0.6-1.3,1.4c0,0.8,0.5,1.2,1.4,1.2c0.8,0,1.4-0.3,1.9-0.9c0.4-0.5,0.5-1,0.5-1.6V248.3z"/>
	<path fill="#E7E1D4" d="M106.2,244.1l-3.2,8h-1l-3.2-8h1.1l2.4,6.2l0.2,0.6l0.2-0.6l2.4-6.2H106.2z"/>
	<path fill="#E7E1D4" d="M109.1,241.6c0,0.4-0.4,0.8-0.8,0.8c-0.4,0-0.8-0.3-0.8-0.8c0-0.4,0.3-0.8,0.8-0.8
		C108.8,240.8,109.1,241.2,109.1,241.6z M108.8,244.1v8h-1v-8H108.8z"/>
	<path fill="#E7E1D4" d="M118.1,244.1v0.9h-1.6c0.4,0.5,0.6,1.1,0.6,1.8c0,0.8-0.3,1.5-0.8,2s-1.3,0.8-2.2,0.8
		c-0.7,0-1.4-0.2-1.9-0.5c-0.3,0.3-0.5,0.6-0.5,1c0,0.6,0.5,0.9,1.2,0.9h2.2c1.7,0,2.5,0.8,2.5,2.2c0,1.6-1.2,2.6-3.2,2.6
		c-2.2,0-3.4-0.9-3.4-2.4c0-0.8,0.3-1.3,0.9-1.6c-0.6-0.3-1.1-0.8-1.1-1.6c0-0.7,0.3-1.2,0.8-1.6c-0.4-0.5-0.5-1-0.5-1.7
		c0-1.7,1.2-2.9,3-2.9c0.4,0,0.8,0.1,1.1,0.2H118.1z M113.3,252c-0.8,0-1.3,0.5-1.3,1.4c0,1,0.8,1.6,2.4,1.6c1.5,0,2.2-0.6,2.2-1.7
		c0-0.8-0.6-1.3-1.6-1.3H113.3z M114.1,248.8c1.2,0,2-0.8,2-1.9c0-1.2-0.8-2-2-2s-2,0.8-2,2C112.1,248,112.9,248.8,114.1,248.8z"/>
	<path fill="#E7E1D4" d="M124.6,246.8v5.4h-1l0-1.2c-0.4,0.8-1.4,1.3-2.5,1.3c-1.4,0-2.3-0.9-2.3-2.1c0-1.2,0.7-2,2.2-2.3l2.6-0.5
		v-0.5c0-1.3-0.6-1.9-1.7-1.9c-1.1,0-1.8,0.6-1.8,1.7h-1c0-0.8,0.3-1.4,0.8-1.9c0.5-0.5,1.2-0.8,2-0.8
		C123.6,244,124.6,245,124.6,246.8z M123.5,248.3l-2.4,0.5c-0.9,0.2-1.3,0.6-1.3,1.4c0,0.8,0.5,1.2,1.4,1.2c0.8,0,1.4-0.3,1.9-0.9
		c0.4-0.5,0.5-1,0.5-1.6V248.3z"/>
	<path fill="#E7E1D4" d="M128.4,242.1l0,2h2.2v0.9h-2.2l0,4.9c0,1,0.3,1.4,1.2,1.4c0.3,0,0.7,0,1-0.2v0.9c-0.3,0.1-0.7,0.2-1.1,0.2
		c-1.4,0-2.1-0.7-2.1-2.2l0-5h-1.6v-0.9h1.6l0-2H128.4z"/>
	<path fill="#E7E1D4" d="M139.1,248v0.6h-6.4c0.1,1.7,1.2,2.9,2.8,2.9c1.3,0,2.1-0.5,2.5-1.5h1c-0.5,1.6-1.7,2.4-3.5,2.4
		c-1.1,0-2-0.4-2.7-1.2c-0.7-0.8-1.1-1.8-1.1-3c0-1.2,0.3-2.2,1-3c0.7-0.8,1.6-1.2,2.7-1.2C137.6,244,139.1,245.4,139.1,248z
		 M132.7,247.6h5.4c0-1.7-1-2.7-2.6-2.7C133.9,244.9,132.8,246,132.7,247.6z"/>
	<path fill="#E7E1D4" d="M146.9,240.5v4.8c0.3-0.7,1.2-1.3,2.3-1.3c1.7,0,2.6,1.2,2.6,3v5.2h-1v-5.1c0-1.4-0.7-2.1-1.8-2.1
		c-1.2,0-2.1,1.1-2.1,2.8v4.5h-1v-11.7H146.9z"/>
	<path fill="#E7E1D4" d="M161,248v0.6h-6.4c0.1,1.7,1.2,2.9,2.8,2.9c1.3,0,2.1-0.5,2.5-1.5h1c-0.5,1.6-1.7,2.4-3.5,2.4
		c-1.1,0-2-0.4-2.7-1.2c-0.7-0.8-1.1-1.8-1.1-3c0-1.2,0.3-2.2,1-3c0.7-0.8,1.6-1.2,2.7-1.2C159.5,244,161,245.4,161,248z
		 M154.6,247.6h5.4c0-1.7-1-2.7-2.6-2.7C155.8,244.9,154.7,246,154.6,247.6z"/>
	<path fill="#E7E1D4" d="M170.1,240.5v11.7h-0.9l0-1.4c-0.5,0.8-1.5,1.5-2.9,1.5c-1.1,0-2-0.4-2.7-1.2c-0.7-0.8-1-1.8-1-3
		s0.3-2.2,1-3c0.7-0.8,1.6-1.2,2.7-1.2c1.3,0,2.4,0.7,2.8,1.5v-5H170.1z M164.3,245.8c-0.5,0.6-0.8,1.4-0.8,2.3s0.3,1.7,0.8,2.3
		s1.2,0.9,2,0.9c0.8,0,1.4-0.3,1.9-0.8c0.5-0.6,0.8-1.3,0.8-2.2V248c0-0.9-0.3-1.7-0.8-2.3c-0.5-0.6-1.2-0.8-1.9-0.8
		C165.5,244.9,164.8,245.2,164.3,245.8z"/>
	<path fill="#E7E1D4" d="M177.9,246.8v5.4h-1l0-1.2c-0.4,0.8-1.4,1.3-2.5,1.3c-1.4,0-2.3-0.9-2.3-2.1c0-1.2,0.7-2,2.2-2.3l2.6-0.5
		v-0.5c0-1.3-0.6-1.9-1.7-1.9c-1.1,0-1.8,0.6-1.8,1.7h-1c0-0.8,0.3-1.4,0.8-1.9c0.5-0.5,1.2-0.8,2-0.8
		C177,244,177.9,245,177.9,246.8z M176.9,248.3l-2.4,0.5c-0.9,0.2-1.3,0.6-1.3,1.4c0,0.8,0.5,1.2,1.4,1.2c0.8,0,1.4-0.3,1.9-0.9
		c0.4-0.5,0.5-1,0.5-1.6V248.3z"/>
	<path fill="#E7E1D4" d="M191,244.1l-2.6,8h-1l-2.2-6.3l-2.2,6.3h-1l-2.6-8h1.1l1.9,6l0.2,0.7l0.2-0.7l2-6h0.8l2,6l0.2,0.7l0.2-0.7
		l1.9-6H191z"/>
	<path fill="#E7E1D4" d="M199.1,248v0.6h-6.4c0.1,1.7,1.2,2.9,2.8,2.9c1.3,0,2.1-0.5,2.5-1.5h1c-0.5,1.6-1.7,2.4-3.5,2.4
		c-1.1,0-2-0.4-2.7-1.2c-0.7-0.8-1.1-1.8-1.1-3c0-1.2,0.3-2.2,1-3c0.7-0.8,1.6-1.2,2.7-1.2C197.6,244,199.1,245.4,199.1,248z
		 M192.7,247.6h5.4c0-1.7-1-2.7-2.6-2.7C193.9,244.9,192.8,246,192.7,247.6z"/>
	<path fill="#E7E1D4" d="M207.1,247v5.2h-1v-5.1c0-1.4-0.7-2.1-1.8-2.1c-1.2,0-2.1,1.1-2.1,2.8v4.5h-1v-8h0.9l0,1.2
		c0.3-0.8,1.2-1.4,2.3-1.4C206.1,244,207.1,245.2,207.1,247z"/>
	<path fill="#E7E1D4" d="M216.2,244.1v0.9h-1.6c0.4,0.5,0.6,1.1,0.6,1.8c0,0.8-0.3,1.5-0.8,2s-1.3,0.8-2.2,0.8
		c-0.7,0-1.4-0.2-1.9-0.5c-0.3,0.3-0.5,0.6-0.5,1c0,0.6,0.5,0.9,1.2,0.9h2.2c1.7,0,2.5,0.8,2.5,2.2c0,1.6-1.2,2.6-3.2,2.6
		c-2.2,0-3.4-0.9-3.4-2.4c0-0.8,0.3-1.3,0.9-1.6c-0.6-0.3-1.1-0.8-1.1-1.6c0-0.7,0.3-1.2,0.8-1.6c-0.4-0.5-0.5-1-0.5-1.7
		c0-1.7,1.2-2.9,3-2.9c0.4,0,0.8,0.1,1.1,0.2H216.2z M211.4,252c-0.8,0-1.3,0.5-1.3,1.4c0,1,0.8,1.6,2.4,1.6c1.5,0,2.2-0.6,2.2-1.7
		c0-0.8-0.6-1.3-1.6-1.3H211.4z M212.2,248.8c1.2,0,2-0.8,2-1.9c0-1.2-0.8-2-2-2s-2,0.8-2,2C210.2,248,211,248.8,212.2,248.8z"/>
	<path fill="#E7E1D4" d="M217.6,252.4c-0.8,0-1.2-0.9-0.6-1.5c0.5-0.6,1.5-0.1,1.5,0.6C218.4,252,218.1,252.4,217.6,252.4z"/>
	<path fill="#E7E1D4" d="M227,246.5h-1c-0.3-1-1.3-1.6-2.4-1.6c-0.8,0-1.5,0.3-2,0.9c-0.5,0.6-0.8,1.4-0.8,2.3
		c0,0.9,0.3,1.7,0.8,2.3c0.5,0.6,1.2,0.9,2,0.9c1.2,0,2.1-0.6,2.4-1.6h1c-0.4,1.6-1.8,2.5-3.5,2.5c-1.1,0-2-0.4-2.8-1.2
		c-0.7-0.8-1.1-1.8-1.1-3c0-1.2,0.4-2.2,1.1-3c0.7-0.8,1.6-1.2,2.8-1.2C225.3,244,226.6,244.9,227,246.5z"/>
	<path fill="#E7E1D4" d="M232.3,244c1.2,0,2.1,0.4,2.9,1.2c0.7,0.8,1.1,1.8,1.1,3s-0.4,2.2-1.1,3c-0.7,0.8-1.7,1.2-2.9,1.2
		s-2.1-0.4-2.9-1.2c-0.7-0.8-1.1-1.8-1.1-3s0.4-2.2,1.1-3C230.1,244.4,231.1,244,232.3,244z M230.1,245.8c-0.5,0.6-0.8,1.4-0.8,2.3
		s0.3,1.7,0.8,2.3c0.6,0.6,1.3,0.9,2.2,0.9c0.9,0,1.6-0.3,2.1-0.9c0.5-0.6,0.8-1.4,0.8-2.3s-0.3-1.7-0.8-2.3
		c-0.5-0.6-1.2-0.9-2.1-0.9C231.4,244.9,230.7,245.2,230.1,245.8z"/>
	<path fill="#E7E1D4" d="M248.9,247v5.2h-1v-5.1c0-1.4-0.7-2.1-1.8-2.1c-1.2,0-2.1,1-2.1,2.6v4.6h-1v-5.1c0-1.4-0.7-2.1-1.8-2.1
		c-1.2,0-2.1,1.1-2.1,2.8v4.5h-1v-8h0.9l0,1.2c0.3-0.8,1.2-1.4,2.3-1.4c1.2,0,2,0.5,2.4,1.6c0.4-0.9,1.3-1.6,2.5-1.6
		C247.9,244,248.9,245.2,248.9,247z"/>
	<path fill="#E7E1D4" d="M251.6,252.4c-0.8,0-1.2-0.9-0.6-1.5c0.5-0.6,1.5-0.1,1.5,0.6C252.4,252,252,252.4,251.6,252.4z"/>
	<path fill="#E7E1D4" d="M262.3,241c1.1,0,1.9,0.3,2.6,0.9c0.6,0.6,1,1.4,1,2.4c0,1-0.3,1.8-1,2.4c-0.6,0.6-1.5,0.9-2.6,0.9h-2.1
		v4.6h-1.1V241H262.3z M260.2,242v4.6h2.1c1.5,0,2.5-0.9,2.5-2.3c0-1.4-1-2.4-2.5-2.4H260.2z"/>
	<path fill="#E7E1D4" d="M268.6,240.5v11.7h-1v-11.7H268.6z"/>
	<path fill="#E7E1D4" d="M277.9,248v0.6h-6.4c0.1,1.7,1.2,2.9,2.8,2.9c1.3,0,2.1-0.5,2.5-1.5h1c-0.5,1.6-1.7,2.4-3.5,2.4
		c-1.1,0-2-0.4-2.7-1.2c-0.7-0.8-1.1-1.8-1.1-3c0-1.2,0.3-2.2,1-3c0.7-0.8,1.6-1.2,2.7-1.2C276.4,244,277.9,245.4,277.9,248z
		 M271.5,247.6h5.4c0-1.7-1-2.7-2.6-2.7C272.7,244.9,271.6,246,271.5,247.6z"/>
	<path fill="#E7E1D4" d="M285.3,246.8v5.4h-1l0-1.2c-0.4,0.8-1.4,1.3-2.5,1.3c-1.4,0-2.3-0.9-2.3-2.1c0-1.2,0.7-2,2.2-2.3l2.6-0.5
		v-0.5c0-1.3-0.6-1.9-1.7-1.9c-1.1,0-1.8,0.6-1.8,1.7h-1c0-0.8,0.3-1.4,0.8-1.9c0.5-0.5,1.2-0.8,2-0.8
		C284.3,244,285.3,245,285.3,246.8z M284.2,248.3l-2.4,0.5c-0.9,0.2-1.3,0.6-1.3,1.4c0,0.8,0.5,1.2,1.4,1.2c0.8,0,1.4-0.3,1.9-0.9
		c0.4-0.5,0.5-1,0.5-1.6V248.3z"/>
	<path fill="#E7E1D4" d="M292.4,246.4h-1c0-1-0.5-1.5-1.5-1.5c-1,0-1.5,0.5-1.5,1.3c0,0.4,0.1,0.7,0.4,0.9c0.2,0.2,0.7,0.4,1.4,0.5
		c1.9,0.5,2.6,1.2,2.6,2.4c0,1.5-1.1,2.4-2.7,2.4c-1.8,0-2.8-1-2.9-2.5h1c0,1,0.7,1.6,1.9,1.6c1.1,0,1.7-0.6,1.7-1.4
		c0-0.8-0.5-1.2-1.9-1.5c-1.7-0.4-2.4-1-2.4-2.3c0-1.3,1-2.3,2.5-2.3C291.4,244,292.4,244.9,292.4,246.4z"/>
	<path fill="#E7E1D4" d="M301.4,248v0.6H295c0.1,1.7,1.2,2.9,2.8,2.9c1.3,0,2.1-0.5,2.5-1.5h1c-0.5,1.6-1.7,2.4-3.5,2.4
		c-1.1,0-2-0.4-2.7-1.2c-0.7-0.8-1.1-1.8-1.1-3c0-1.2,0.3-2.2,1-3c0.7-0.8,1.6-1.2,2.7-1.2C300,244,301.4,245.4,301.4,248z
		 M295,247.6h5.4c0-1.7-1-2.7-2.6-2.7C296.2,244.9,295.2,246,295,247.6z"/>
	<path fill="#E7E1D4" d="M314,244.1v8H313l0-1.2c-0.3,0.8-1.2,1.4-2.3,1.4c-1.7,0-2.6-1.2-2.6-3v-5.2h1v5.1c0,1.4,0.7,2.2,1.8,2.2
		c1.2,0,2.1-1.1,2.1-2.7v-4.5H314z"/>
	<path fill="#E7E1D4" d="M321.3,246.4h-1c0-1-0.5-1.5-1.5-1.5c-1,0-1.5,0.5-1.5,1.3c0,0.4,0.1,0.7,0.4,0.9c0.2,0.2,0.7,0.4,1.4,0.5
		c1.9,0.5,2.6,1.2,2.6,2.4c0,1.5-1.1,2.4-2.7,2.4c-1.8,0-2.8-1-2.9-2.5h1c0,1,0.7,1.6,1.9,1.6c1.1,0,1.7-0.6,1.7-1.4
		c0-0.8-0.5-1.2-1.9-1.5c-1.7-0.4-2.4-1-2.4-2.3c0-1.3,1-2.3,2.5-2.3C320.2,244,321.2,244.9,321.3,246.4z"/>
	<path fill="#E7E1D4" d="M330.3,248v0.6h-6.4c0.1,1.7,1.2,2.9,2.8,2.9c1.3,0,2.1-0.5,2.5-1.5h1c-0.5,1.6-1.7,2.4-3.5,2.4
		c-1.1,0-2-0.4-2.7-1.2c-0.7-0.8-1.1-1.8-1.1-3c0-1.2,0.3-2.2,1-3c0.7-0.8,1.6-1.2,2.7-1.2C328.8,244,330.3,245.4,330.3,248z
		 M323.9,247.6h5.4c0-1.7-1-2.7-2.6-2.7C325.1,244.9,324,246,323.9,247.6z"/>
	<path fill="#E7E1D4" d="M340.4,244c1.2,0,2.1,0.4,2.9,1.2c0.7,0.8,1.1,1.8,1.1,3s-0.4,2.2-1.1,3c-0.7,0.8-1.7,1.2-2.9,1.2
		s-2.1-0.4-2.9-1.2c-0.7-0.8-1.1-1.8-1.1-3s0.4-2.2,1.1-3C338.3,244.4,339.2,244,340.4,244z M338.3,245.8c-0.5,0.6-0.8,1.4-0.8,2.3
		s0.3,1.7,0.8,2.3c0.6,0.6,1.3,0.9,2.2,0.9c0.9,0,1.6-0.3,2.1-0.9c0.5-0.6,0.8-1.4,0.8-2.3s-0.3-1.7-0.8-2.3
		c-0.5-0.6-1.2-0.9-2.1-0.9C339.5,244.9,338.8,245.2,338.3,245.8z"/>
	<path fill="#E7E1D4" d="M352.2,247v5.2h-1v-5.1c0-1.4-0.7-2.1-1.8-2.1c-1.2,0-2.1,1.1-2.1,2.8v4.5h-1v-8h0.9l0,1.2
		c0.3-0.8,1.2-1.4,2.3-1.4C351.2,244,352.2,245.2,352.2,247z"/>
	<path fill="#E7E1D4" d="M361.3,248v0.6H355c0.1,1.7,1.2,2.9,2.8,2.9c1.3,0,2.1-0.5,2.5-1.5h1c-0.5,1.6-1.7,2.4-3.5,2.4
		c-1.1,0-2-0.4-2.7-1.2c-0.7-0.8-1.1-1.8-1.1-3c0-1.2,0.3-2.2,1-3c0.7-0.8,1.6-1.2,2.7-1.2C359.9,244,361.3,245.4,361.3,248z
		 M355,247.6h5.4c0-1.7-1-2.7-2.6-2.7C356.2,244.9,355.1,246,355,247.6z"/>
	<path fill="#E7E1D4" d="M371.5,244c1.2,0,2.1,0.4,2.9,1.2c0.7,0.8,1.1,1.8,1.1,3s-0.4,2.2-1.1,3c-0.7,0.8-1.7,1.2-2.9,1.2
		s-2.1-0.4-2.9-1.2c-0.7-0.8-1.1-1.8-1.1-3s0.4-2.2,1.1-3C369.4,244.4,370.3,244,371.5,244z M369.3,245.8c-0.5,0.6-0.8,1.4-0.8,2.3
		s0.3,1.7,0.8,2.3c0.6,0.6,1.3,0.9,2.2,0.9c0.9,0,1.6-0.3,2.1-0.9c0.5-0.6,0.8-1.4,0.8-2.3s-0.3-1.7-0.8-2.3
		c-0.5-0.6-1.2-0.9-2.1-0.9C370.6,244.9,369.9,245.2,369.3,245.8z"/>
	<path fill="#E7E1D4" d="M381.1,240.6v0.9c-0.3-0.1-0.7-0.2-1-0.2c-0.8,0-1.2,0.5-1.2,1.4v1.4h2.1v0.9h-2.1v7.1h-1v-7.1h-1.6v-0.9
		h1.6v-1.4c0-1.5,0.8-2.3,2.1-2.3C380.4,240.4,380.8,240.4,381.1,240.6z"/>
	<path fill="#E7E1D4" d="M388.7,242.1l0,2h2.2v0.9h-2.2l0,4.9c0,1,0.3,1.4,1.2,1.4c0.3,0,0.7,0,1-0.2v0.9c-0.3,0.1-0.7,0.2-1.1,0.2
		c-1.4,0-2.1-0.7-2.1-2.2l0-5H386v-0.9h1.6l0-2H388.7z"/>
	<path fill="#E7E1D4" d="M393.6,240.5v4.8c0.3-0.7,1.2-1.3,2.3-1.3c1.7,0,2.6,1.2,2.6,3v5.2h-1v-5.1c0-1.4-0.7-2.1-1.8-2.1
		c-1.2,0-2.1,1.1-2.1,2.8v4.5h-1v-11.7H393.6z"/>
	<path fill="#E7E1D4" d="M407.6,248v0.6h-6.4c0.1,1.7,1.2,2.9,2.8,2.9c1.3,0,2.1-0.5,2.5-1.5h1c-0.5,1.6-1.7,2.4-3.5,2.4
		c-1.1,0-2-0.4-2.7-1.2c-0.7-0.8-1.1-1.8-1.1-3c0-1.2,0.3-2.2,1-3c0.7-0.8,1.6-1.2,2.7-1.2C406.2,244,407.6,245.4,407.6,248z
		 M401.2,247.6h5.4c0-1.7-1-2.7-2.6-2.7C402.4,244.9,401.4,246,401.2,247.6z"/>
	<path fill="#E7E1D4" d="M414.4,246.4h-1c0-1-0.5-1.5-1.5-1.5c-1,0-1.5,0.5-1.5,1.3c0,0.4,0.1,0.7,0.4,0.9c0.2,0.2,0.7,0.4,1.4,0.5
		c1.9,0.5,2.6,1.2,2.6,2.4c0,1.5-1.1,2.4-2.7,2.4c-1.8,0-2.8-1-2.9-2.5h1c0,1,0.7,1.6,1.9,1.6c1.1,0,1.7-0.6,1.7-1.4
		c0-0.8-0.5-1.2-1.9-1.5c-1.7-0.4-2.4-1-2.4-2.3c0-1.3,1-2.3,2.5-2.3C413.4,244,414.4,244.9,414.4,246.4z"/>
	<path fill="#E7E1D4" d="M423.4,248v0.6h-6.4c0.1,1.7,1.2,2.9,2.8,2.9c1.3,0,2.1-0.5,2.5-1.5h1c-0.5,1.6-1.7,2.4-3.5,2.4
		c-1.1,0-2-0.4-2.7-1.2c-0.7-0.8-1.1-1.8-1.1-3c0-1.2,0.3-2.2,1-3c0.7-0.8,1.6-1.2,2.7-1.2C422,244,423.4,245.4,423.4,248z
		 M417.1,247.6h5.4c0-1.7-1-2.7-2.6-2.7C418.3,244.9,417.2,246,417.1,247.6z"/>
	<path fill="#E7E1D4" d="M441,247v5.2h-1v-5.1c0-1.4-0.7-2.1-1.8-2.1c-1.2,0-2.1,1-2.1,2.6v4.6h-1v-5.1c0-1.4-0.7-2.1-1.8-2.1
		c-1.2,0-2.1,1.1-2.1,2.8v4.5h-1v-8h0.9l0,1.2c0.3-0.8,1.2-1.4,2.3-1.4c1.2,0,2,0.5,2.4,1.6c0.4-0.9,1.3-1.6,2.5-1.6
		C440.1,244,441,245.2,441,247z"/>
	<path fill="#E7E1D4" d="M446.8,244c1.2,0,2.1,0.4,2.9,1.2c0.7,0.8,1.1,1.8,1.1,3s-0.4,2.2-1.1,3c-0.7,0.8-1.7,1.2-2.9,1.2
		s-2.1-0.4-2.9-1.2c-0.7-0.8-1.1-1.8-1.1-3s0.4-2.2,1.1-3C444.6,244.4,445.6,244,446.8,244z M444.6,245.8c-0.5,0.6-0.8,1.4-0.8,2.3
		s0.3,1.7,0.8,2.3c0.6,0.6,1.3,0.9,2.2,0.9c0.9,0,1.6-0.3,2.1-0.9c0.5-0.6,0.8-1.4,0.8-2.3s-0.3-1.7-0.8-2.3
		c-0.5-0.6-1.2-0.9-2.1-0.9C445.9,244.9,445.2,245.2,444.6,245.8z"/>
	<path fill="#E7E1D4" d="M459.7,240.5v11.7h-0.9l0-1.4c-0.5,0.8-1.5,1.5-2.9,1.5c-1.1,0-2-0.4-2.7-1.2c-0.7-0.8-1-1.8-1-3
		s0.3-2.2,1-3c0.7-0.8,1.6-1.2,2.7-1.2c1.3,0,2.4,0.7,2.8,1.5v-5H459.7z M454,245.8c-0.5,0.6-0.8,1.4-0.8,2.3s0.3,1.7,0.8,2.3
		c0.5,0.6,1.2,0.9,2,0.9c0.8,0,1.4-0.3,1.9-0.8c0.5-0.6,0.8-1.3,0.8-2.2V248c0-0.9-0.3-1.7-0.8-2.3c-0.5-0.6-1.2-0.8-1.9-0.8
		C455.2,244.9,454.5,245.2,454,245.8z"/>
	<path fill="#E7E1D4" d="M469,248v0.6h-6.4c0.1,1.7,1.2,2.9,2.8,2.9c1.3,0,2.1-0.5,2.5-1.5h1c-0.5,1.6-1.7,2.4-3.5,2.4
		c-1.1,0-2-0.4-2.7-1.2c-0.7-0.8-1.1-1.8-1.1-3c0-1.2,0.3-2.2,1-3c0.7-0.8,1.6-1.2,2.7-1.2C467.6,244,469,245.4,469,248z
		 M462.6,247.6h5.4c0-1.7-1-2.7-2.6-2.7C463.8,244.9,462.8,246,462.6,247.6z"/>
	<path fill="#E7E1D4" d="M474.6,245.1c-0.7,0-1.2,0.2-1.6,0.7c-0.5,0.5-0.8,1.2-0.8,2.1v4.4h-1v-8h0.9l0,1.5
		c0.3-0.8,1.2-1.5,2.4-1.5V245.1z"/>
	<path fill="#E7E1D4" d="M482.2,247v5.2h-1v-5.1c0-1.4-0.7-2.1-1.8-2.1c-1.2,0-2.1,1.1-2.1,2.8v4.5h-1v-8h0.9l0,1.2
		c0.3-0.8,1.2-1.4,2.3-1.4C481.2,244,482.2,245.2,482.2,247z"/>
	<path fill="#E7E1D4" d="M500,244.1l-2.6,8h-1l-2.2-6.3l-2.2,6.3h-1l-2.6-8h1.1l1.9,6l0.2,0.7l0.2-0.7l2-6h0.8l2,6l0.2,0.7l0.2-0.7
		l1.9-6H500z"/>
	<path fill="#E7E1D4" d="M508.1,248v0.6h-6.4c0.1,1.7,1.2,2.9,2.8,2.9c1.3,0,2.1-0.5,2.5-1.5h1c-0.5,1.6-1.7,2.4-3.5,2.4
		c-1.1,0-2-0.4-2.7-1.2c-0.7-0.8-1.1-1.8-1.1-3c0-1.2,0.3-2.2,1-3c0.7-0.8,1.6-1.2,2.7-1.2C506.7,244,508.1,245.4,508.1,248z
		 M501.7,247.6h5.4c0-1.7-1-2.7-2.6-2.7C502.9,244.9,501.9,246,501.7,247.6z"/>
	<path fill="#E7E1D4" d="M511.2,240.5v5c0.4-0.8,1.5-1.5,2.8-1.5c1.1,0,2,0.4,2.7,1.2c0.7,0.8,1,1.8,1,3s-0.3,2.2-1,3
		c-0.7,0.8-1.6,1.2-2.7,1.2c-1.4,0-2.4-0.7-2.9-1.5l0,1.4h-0.9v-11.7H511.2z M512,245.8c-0.5,0.6-0.8,1.3-0.8,2.3v0.3
		c0,0.9,0.3,1.6,0.8,2.2c0.5,0.5,1.2,0.8,2,0.8c0.8,0,1.5-0.3,2-0.9c0.5-0.6,0.8-1.4,0.8-2.3s-0.3-1.7-0.8-2.3
		c-0.5-0.6-1.2-0.9-2-0.9C513.2,244.9,512.5,245.2,512,245.8z"/>
	<path fill="#E7E1D4" d="M525.4,240.5v5c0.4-0.8,1.5-1.5,2.8-1.5c1.1,0,2,0.4,2.7,1.2c0.7,0.8,1,1.8,1,3s-0.3,2.2-1,3
		c-0.7,0.8-1.6,1.2-2.7,1.2c-1.4,0-2.4-0.7-2.9-1.5l0,1.4h-0.9v-11.7H525.4z M526.2,245.8c-0.5,0.6-0.8,1.3-0.8,2.3v0.3
		c0,0.9,0.3,1.6,0.8,2.2c0.5,0.5,1.2,0.8,2,0.8c0.8,0,1.5-0.3,2-0.9c0.5-0.6,0.8-1.4,0.8-2.3s-0.3-1.7-0.8-2.3
		c-0.5-0.6-1.2-0.9-2-0.9C527.4,244.9,526.8,245.2,526.2,245.8z"/>
	<path fill="#E7E1D4" d="M537.4,245.1c-0.7,0-1.2,0.2-1.6,0.7c-0.5,0.5-0.8,1.2-0.8,2.1v4.4h-1v-8h0.9l0,1.5
		c0.3-0.8,1.2-1.5,2.4-1.5V245.1z"/>
	<path fill="#E7E1D4" d="M542.2,244c1.2,0,2.1,0.4,2.9,1.2c0.7,0.8,1.1,1.8,1.1,3s-0.4,2.2-1.1,3c-0.7,0.8-1.7,1.2-2.9,1.2
		s-2.1-0.4-2.9-1.2c-0.7-0.8-1.1-1.8-1.1-3s0.4-2.2,1.1-3C540.1,244.4,541,244,542.2,244z M540.1,245.8c-0.5,0.6-0.8,1.4-0.8,2.3
		s0.3,1.7,0.8,2.3c0.6,0.6,1.3,0.9,2.2,0.9c0.9,0,1.6-0.3,2.1-0.9c0.5-0.6,0.8-1.4,0.8-2.3s-0.3-1.7-0.8-2.3
		c-0.5-0.6-1.2-0.9-2.1-0.9C541.3,244.9,540.6,245.2,540.1,245.8z"/>
	<path fill="#E7E1D4" d="M558.5,244.1l-2.6,8h-1l-2.2-6.3l-2.2,6.3h-1l-2.6-8h1.1l1.9,6l0.2,0.7l0.2-0.7l2-6h0.8l2,6l0.2,0.7
		l0.2-0.7l1.9-6H558.5z"/>
	<path fill="#E7E1D4" d="M564.8,246.4h-1c0-1-0.5-1.5-1.5-1.5c-1,0-1.5,0.5-1.5,1.3c0,0.4,0.1,0.7,0.4,0.9c0.2,0.2,0.7,0.4,1.4,0.5
		c1.9,0.5,2.6,1.2,2.6,2.4c0,1.5-1.1,2.4-2.7,2.4c-1.8,0-2.8-1-2.9-2.5h1c0,1,0.7,1.6,1.9,1.6c1.1,0,1.7-0.6,1.7-1.4
		c0-0.8-0.5-1.2-1.9-1.5c-1.7-0.4-2.4-1-2.4-2.3c0-1.3,1-2.3,2.5-2.3C563.8,244,564.8,244.9,564.8,246.4z"/>
	<path fill="#E7E1D4" d="M573.8,248v0.6h-6.4c0.1,1.7,1.2,2.9,2.8,2.9c1.3,0,2.1-0.5,2.5-1.5h1c-0.5,1.6-1.7,2.4-3.5,2.4
		c-1.1,0-2-0.4-2.7-1.2c-0.7-0.8-1.1-1.8-1.1-3c0-1.2,0.3-2.2,1-3c0.7-0.8,1.6-1.2,2.7-1.2C572.4,244,573.8,245.4,573.8,248z
		 M567.4,247.6h5.4c0-1.7-1-2.7-2.6-2.7C568.6,244.9,567.6,246,567.4,247.6z"/>
	<path fill="#E7E1D4" d="M579.4,245.1c-0.7,0-1.2,0.2-1.6,0.7c-0.5,0.5-0.8,1.2-0.8,2.1v4.4h-1v-8h0.9l0,1.5
		c0.3-0.8,1.2-1.5,2.4-1.5V245.1z"/>
	<path fill="#E7E1D4" d="M585.8,246.4h-1c0-1-0.5-1.5-1.5-1.5c-1,0-1.5,0.5-1.5,1.3c0,0.4,0.1,0.7,0.4,0.9c0.2,0.2,0.7,0.4,1.4,0.5
		c1.9,0.5,2.6,1.2,2.6,2.4c0,1.5-1.1,2.4-2.7,2.4c-1.8,0-2.8-1-2.9-2.5h1c0,1,0.7,1.6,1.9,1.6c1.1,0,1.7-0.6,1.7-1.4
		c0-0.8-0.5-1.2-1.9-1.5c-1.7-0.4-2.4-1-2.4-2.3c0-1.3,1-2.3,2.5-2.3C584.8,244,585.8,244.9,585.8,246.4z"/>
	<path fill="#E7E1D4" d="M588.3,252.4c-0.8,0-1.2-0.9-0.6-1.5c0.5-0.6,1.5-0.1,1.5,0.6C589.2,252,588.8,252.4,588.3,252.4z
		 M587.5,244.8c0-0.5,0.4-0.9,0.9-0.9c0.5,0,0.8,0.4,0.8,0.9s-0.4,0.8-0.8,0.8C587.8,245.7,587.5,245.3,587.5,244.8z"/>
	<path fill="#E7E1D4" d="M21.2,263.3H20c-0.5-1.5-1.8-2.4-3.7-2.4c-1.3,0-2.3,0.5-3.2,1.4c-0.8,0.9-1.2,2-1.2,3.4s0.4,2.5,1.2,3.5
		c0.8,0.9,1.9,1.4,3.2,1.4c2.4,0,3.9-1.2,3.9-3.8h-3.7v-1h4.8v0.6c0,1.6-0.4,2.9-1.3,3.8c-0.9,0.9-2.1,1.4-3.7,1.4
		c-1.6,0-2.9-0.5-4-1.6c-1-1.1-1.6-2.5-1.6-4.2c0-1.7,0.5-3,1.6-4.1c1-1.1,2.4-1.7,4-1.7C18.8,260,20.6,261.2,21.2,263.3z"/>
	<path fill="#E7E1D4" d="M26.7,263.2c1.2,0,2.1,0.4,2.9,1.2c0.7,0.8,1.1,1.8,1.1,3s-0.4,2.2-1.1,3c-0.7,0.8-1.7,1.2-2.9,1.2
		s-2.1-0.4-2.9-1.2c-0.7-0.8-1.1-1.8-1.1-3s0.4-2.2,1.1-3C24.6,263.6,25.5,263.2,26.7,263.2z M24.5,265c-0.5,0.6-0.8,1.4-0.8,2.3
		s0.3,1.7,0.8,2.3c0.6,0.6,1.3,0.9,2.2,0.9c0.9,0,1.6-0.3,2.1-0.9c0.5-0.6,0.8-1.4,0.8-2.3s-0.3-1.7-0.8-2.3
		c-0.5-0.6-1.2-0.9-2.1-0.9C25.8,264.1,25.1,264.4,24.5,265z"/>
	<path fill="#E7E1D4" d="M36.1,263.2c1.2,0,2.1,0.4,2.9,1.2c0.7,0.8,1.1,1.8,1.1,3s-0.4,2.2-1.1,3c-0.7,0.8-1.7,1.2-2.9,1.2
		s-2.1-0.4-2.9-1.2c-0.7-0.8-1.1-1.8-1.1-3s0.4-2.2,1.1-3C33.9,263.6,34.9,263.2,36.1,263.2z M33.9,265c-0.5,0.6-0.8,1.4-0.8,2.3
		s0.3,1.7,0.8,2.3c0.6,0.6,1.3,0.9,2.2,0.9c0.9,0,1.6-0.3,2.1-0.9c0.5-0.6,0.8-1.4,0.8-2.3s-0.3-1.7-0.8-2.3
		c-0.5-0.6-1.2-0.9-2.1-0.9C35.2,264.1,34.5,264.4,33.9,265z"/>
	<path fill="#E7E1D4" d="M48.6,263.3v0.9h-1.6c0.4,0.5,0.6,1.1,0.6,1.8c0,0.8-0.3,1.5-0.8,2s-1.3,0.8-2.2,0.8
		c-0.7,0-1.4-0.2-1.9-0.5c-0.3,0.3-0.5,0.6-0.5,1c0,0.6,0.5,0.9,1.2,0.9h2.2c1.7,0,2.5,0.8,2.5,2.2c0,1.6-1.2,2.6-3.2,2.6
		c-2.2,0-3.4-0.9-3.4-2.4c0-0.8,0.3-1.3,0.9-1.6c-0.6-0.3-1.1-0.8-1.1-1.6c0-0.7,0.3-1.2,0.8-1.6c-0.4-0.5-0.5-1-0.5-1.7
		c0-1.7,1.2-2.9,3-2.9c0.4,0,0.8,0.1,1.1,0.2H48.6z M43.9,271.2c-0.8,0-1.3,0.5-1.3,1.4c0,1,0.8,1.6,2.4,1.6c1.5,0,2.2-0.6,2.2-1.7
		c0-0.8-0.6-1.3-1.6-1.3H43.9z M44.6,268c1.2,0,2-0.8,2-1.9c0-1.2-0.8-2-2-2s-2,0.8-2,2C42.6,267.2,43.4,268,44.6,268z"/>
	<path fill="#E7E1D4" d="M50.8,259.7v11.7h-1v-11.7H50.8z"/>
	<path fill="#E7E1D4" d="M60.2,267.2v0.6h-6.4c0.1,1.7,1.2,2.9,2.8,2.9c1.3,0,2.1-0.5,2.5-1.5h1c-0.5,1.6-1.7,2.4-3.5,2.4
		c-1.1,0-2-0.4-2.7-1.2c-0.7-0.8-1.1-1.8-1.1-3c0-1.2,0.3-2.2,1-3c0.7-0.8,1.6-1.2,2.7-1.2C58.7,263.2,60.2,264.6,60.2,267.2z
		 M53.8,266.8h5.4c0-1.7-1-2.7-2.6-2.7C55,264.1,53.9,265.2,53.8,266.8z"/>
	<path fill="#E7E1D4" d="M75.4,263.3h-1.2c-0.5-1.5-1.8-2.4-3.7-2.4c-1.3,0-2.3,0.5-3.2,1.4c-0.8,0.9-1.2,2-1.2,3.4s0.4,2.5,1.2,3.5
		c0.8,0.9,1.9,1.4,3.2,1.4c1.9,0,3.2-0.9,3.7-2.4h1.2c-0.7,2.2-2.4,3.4-4.9,3.4c-1.6,0-2.9-0.5-4-1.6c-1-1.1-1.6-2.5-1.6-4.2
		c0-1.7,0.5-3,1.6-4.1c1-1.1,2.4-1.7,4-1.7C73,260,74.8,261.2,75.4,263.3z"/>
	<path fill="#E7E1D4" d="M78.2,259.7v4.8c0.3-0.7,1.2-1.3,2.3-1.3c1.7,0,2.6,1.2,2.6,3v5.2h-1v-5.1c0-1.4-0.7-2.1-1.8-2.1
		c-1.2,0-2.1,1.1-2.1,2.8v4.5h-1v-11.7H78.2z"/>
	<path fill="#E7E1D4" d="M89.1,264.3c-0.7,0-1.2,0.2-1.6,0.7c-0.5,0.5-0.8,1.2-0.8,2.1v4.4h-1v-8h0.9l0,1.5c0.3-0.8,1.2-1.5,2.4-1.5
		V264.3z"/>
	<path fill="#E7E1D4" d="M93.9,263.2c1.2,0,2.1,0.4,2.9,1.2c0.7,0.8,1.1,1.8,1.1,3s-0.4,2.2-1.1,3c-0.7,0.8-1.7,1.2-2.9,1.2
		s-2.1-0.4-2.9-1.2c-0.7-0.8-1.1-1.8-1.1-3s0.4-2.2,1.1-3C91.7,263.6,92.7,263.2,93.9,263.2z M91.7,265c-0.5,0.6-0.8,1.4-0.8,2.3
		s0.3,1.7,0.8,2.3c0.6,0.6,1.3,0.9,2.2,0.9c0.9,0,1.6-0.3,2.1-0.9c0.5-0.6,0.8-1.4,0.8-2.3s-0.3-1.7-0.8-2.3
		c-0.5-0.6-1.2-0.9-2.1-0.9C93,264.1,92.3,264.4,91.7,265z"/>
	<path fill="#E7E1D4" d="M110.4,266.2v5.2h-1v-5.1c0-1.4-0.7-2.1-1.8-2.1c-1.2,0-2.1,1-2.1,2.6v4.6h-1v-5.1c0-1.4-0.7-2.1-1.8-2.1
		c-1.2,0-2.1,1.1-2.1,2.8v4.5h-1v-8h0.9l0,1.2c0.3-0.8,1.2-1.4,2.3-1.4c1.2,0,2,0.5,2.4,1.6c0.4-0.9,1.3-1.6,2.5-1.6
		C109.5,263.2,110.4,264.4,110.4,266.2z"/>
	<path fill="#E7E1D4" d="M119.6,267.2v0.6h-6.4c0.1,1.7,1.2,2.9,2.8,2.9c1.3,0,2.1-0.5,2.5-1.5h1c-0.5,1.6-1.7,2.4-3.5,2.4
		c-1.1,0-2-0.4-2.7-1.2c-0.7-0.8-1.1-1.8-1.1-3c0-1.2,0.3-2.2,1-3c0.7-0.8,1.6-1.2,2.7-1.2C118.1,263.2,119.6,264.6,119.6,267.2z
		 M113.2,266.8h5.4c0-1.7-1-2.7-2.6-2.7C114.4,264.1,113.3,265.2,113.2,266.8z"/>
	<path fill="#E7E1D4" d="M121.2,273.5l-0.4-0.1c0.3-0.5,0.5-1.1,0.6-1.8c-0.7,0-1-0.9-0.5-1.4c0.5-0.5,1.5-0.1,1.4,0.6
		C122.3,271.7,121.9,272.8,121.2,273.5z"/>
	<path fill="#E7E1D4" d="M138.9,260.2v11.2h-1.1v-9l-0.3,0.8l-3.9,8.2h-0.8l-3.9-8.2l-0.3-0.8v9h-1.1v-11.2h1.1l4.2,8.8l0.3,0.8
		l0.4-0.8l4.2-8.8H138.9z"/>
	<path fill="#E7E1D4" d="M144.8,263.2c1.2,0,2.1,0.4,2.9,1.2c0.7,0.8,1.1,1.8,1.1,3s-0.4,2.2-1.1,3c-0.7,0.8-1.7,1.2-2.9,1.2
		s-2.1-0.4-2.9-1.2c-0.7-0.8-1.1-1.8-1.1-3s0.4-2.2,1.1-3C142.7,263.6,143.6,263.2,144.8,263.2z M142.7,265
		c-0.5,0.6-0.8,1.4-0.8,2.3s0.3,1.7,0.8,2.3c0.6,0.6,1.3,0.9,2.2,0.9c0.9,0,1.6-0.3,2.1-0.9c0.5-0.6,0.8-1.4,0.8-2.3
		s-0.3-1.7-0.8-2.3c-0.5-0.6-1.2-0.9-2.1-0.9C143.9,264.1,143.2,264.4,142.7,265z"/>
	<path fill="#E7E1D4" d="M155.9,263.3v0.8l-4.6,6.3h4.9v0.9h-6.3v-0.8l4.6-6.3H150v-0.9H155.9z"/>
	<path fill="#E7E1D4" d="M159.2,260.8c0,0.4-0.4,0.8-0.8,0.8c-0.4,0-0.8-0.3-0.8-0.8c0-0.4,0.3-0.8,0.8-0.8
		C158.9,260,159.2,260.4,159.2,260.8z M158.9,263.3v8h-1v-8H158.9z"/>
	<path fill="#E7E1D4" d="M162.6,259.7v11.7h-1v-11.7H162.6z"/>
	<path fill="#E7E1D4" d="M166.3,259.7v11.7h-1v-11.7H166.3z"/>
	<path fill="#E7E1D4" d="M174.2,266v5.4h-1l0-1.2c-0.4,0.8-1.4,1.3-2.5,1.3c-1.4,0-2.3-0.9-2.3-2.1c0-1.2,0.7-2,2.2-2.3l2.6-0.5V266
		c0-1.3-0.6-1.9-1.7-1.9c-1.1,0-1.8,0.6-1.8,1.7h-1c0-0.8,0.3-1.4,0.8-1.9c0.5-0.5,1.2-0.8,2-0.8C173.2,263.2,174.2,264.2,174.2,266
		z M173.2,267.5l-2.4,0.5c-0.9,0.2-1.3,0.6-1.3,1.4c0,0.8,0.5,1.2,1.4,1.2c0.8,0,1.4-0.3,1.9-0.9c0.4-0.5,0.5-1,0.5-1.6V267.5z"/>
	<path fill="#E7E1D4" d="M185.9,260.2v1h-4.8v4.1h4.1v1h-4.1v5.1H180v-11.2H185.9z"/>
	<path fill="#E7E1D4" d="M188.8,260.8c0,0.4-0.4,0.8-0.8,0.8c-0.4,0-0.8-0.3-0.8-0.8c0-0.4,0.3-0.8,0.8-0.8
		C188.5,260,188.8,260.4,188.8,260.8z M188.5,263.3v8h-1v-8H188.5z"/>
	<path fill="#E7E1D4" d="M194.7,264.3c-0.7,0-1.2,0.2-1.6,0.7c-0.5,0.5-0.8,1.2-0.8,2.1v4.4h-1v-8h0.9l0,1.5
		c0.3-0.8,1.2-1.5,2.4-1.5V264.3z"/>
	<path fill="#E7E1D4" d="M202.9,267.2v0.6h-6.4c0.1,1.7,1.2,2.9,2.8,2.9c1.3,0,2.1-0.5,2.5-1.5h1c-0.5,1.6-1.7,2.4-3.5,2.4
		c-1.1,0-2-0.4-2.7-1.2c-0.7-0.8-1.1-1.8-1.1-3c0-1.2,0.3-2.2,1-3c0.7-0.8,1.6-1.2,2.7-1.2C201.4,263.2,202.9,264.6,202.9,267.2z
		 M196.5,266.8h5.4c0-1.7-1-2.7-2.6-2.7C197.7,264.1,196.6,265.2,196.5,266.8z"/>
	<path fill="#E7E1D4" d="M208.7,259.8v0.9c-0.3-0.1-0.7-0.2-1-0.2c-0.8,0-1.2,0.5-1.2,1.4v1.4h2.1v0.9h-2.1v7.1h-1v-7.1h-1.6v-0.9
		h1.6v-1.4c0-1.5,0.8-2.3,2.1-2.3C208,259.6,208.4,259.6,208.7,259.8z"/>
	<path fill="#E7E1D4" d="M213.4,263.2c1.2,0,2.1,0.4,2.9,1.2c0.7,0.8,1.1,1.8,1.1,3s-0.4,2.2-1.1,3c-0.7,0.8-1.7,1.2-2.9,1.2
		s-2.1-0.4-2.9-1.2c-0.7-0.8-1.1-1.8-1.1-3s0.4-2.2,1.1-3C211.2,263.6,212.2,263.2,213.4,263.2z M211.2,265
		c-0.5,0.6-0.8,1.4-0.8,2.3s0.3,1.7,0.8,2.3c0.6,0.6,1.3,0.9,2.2,0.9c0.9,0,1.6-0.3,2.1-0.9c0.5-0.6,0.8-1.4,0.8-2.3
		s-0.3-1.7-0.8-2.3c-0.5-0.6-1.2-0.9-2.1-0.9C212.5,264.1,211.8,264.4,211.2,265z"/>
	<path fill="#E7E1D4" d="M225,263.3l-2.7,3.9l2.9,4.2H224l-2.4-3.3l-2.4,3.3H218l2.9-4.2l-2.7-3.9h1.2l2.1,3.1l2.2-3.1H225z"/>
	<path fill="#E7E1D4" d="M233.6,263.2c1.2,0,2.1,0.4,2.9,1.2c0.7,0.8,1.1,1.8,1.1,3s-0.4,2.2-1.1,3c-0.7,0.8-1.7,1.2-2.9,1.2
		s-2.1-0.4-2.9-1.2c-0.7-0.8-1.1-1.8-1.1-3s0.4-2.2,1.1-3C231.4,263.6,232.4,263.2,233.6,263.2z M231.4,265
		c-0.5,0.6-0.8,1.4-0.8,2.3s0.3,1.7,0.8,2.3c0.6,0.6,1.3,0.9,2.2,0.9c0.9,0,1.6-0.3,2.1-0.9c0.5-0.6,0.8-1.4,0.8-2.3
		s-0.3-1.7-0.8-2.3c-0.5-0.6-1.2-0.9-2.1-0.9C232.7,264.1,232,264.4,231.4,265z"/>
	<path fill="#E7E1D4" d="M243,264.3c-0.7,0-1.2,0.2-1.6,0.7c-0.5,0.5-0.8,1.2-0.8,2.1v4.4h-1v-8h0.9l0,1.5c0.3-0.8,1.2-1.5,2.4-1.5
		V264.3z"/>
	<path fill="#E7E1D4" d="M252.6,260.2l4.6,11.2H256l-1.3-3.2h-5.2l-1.3,3.2H247l4.6-11.2H252.6z M252.1,261.6l-0.2,0.6l-2,4.9h4.4
		l-2-4.9L252.1,261.6z"/>
	<path fill="#E7E1D4" d="M265.5,264.4c0.7,0.8,1,1.8,1,3s-0.3,2.2-1,3c-0.7,0.8-1.6,1.2-2.7,1.2c-1.4,0-2.4-0.7-2.8-1.5v4.8h-1
		v-11.5h1l0,1.4c0.5-0.8,1.5-1.6,2.9-1.6C263.9,263.2,264.8,263.6,265.5,264.4z M260.7,264.9c-0.5,0.5-0.8,1.3-0.8,2.2v0.3
		c0,0.9,0.3,1.7,0.8,2.3c0.5,0.6,1.2,0.8,1.9,0.8c0.8,0,1.5-0.3,2-0.9c0.5-0.6,0.8-1.4,0.8-2.3s-0.3-1.7-0.8-2.3
		c-0.5-0.6-1.2-0.9-2-0.9C261.9,264.1,261.3,264.4,260.7,264.9z"/>
	<path fill="#E7E1D4" d="M275.1,264.4c0.7,0.8,1,1.8,1,3s-0.3,2.2-1,3c-0.7,0.8-1.6,1.2-2.7,1.2c-1.4,0-2.4-0.7-2.8-1.5v4.8h-1
		v-11.5h1l0,1.4c0.5-0.8,1.5-1.6,2.9-1.6C273.5,263.2,274.4,263.6,275.1,264.4z M270.3,264.9c-0.5,0.5-0.8,1.3-0.8,2.2v0.3
		c0,0.9,0.3,1.7,0.8,2.3c0.5,0.6,1.2,0.8,1.9,0.8c0.8,0,1.5-0.3,2-0.9c0.5-0.6,0.8-1.4,0.8-2.3s-0.3-1.7-0.8-2.3
		c-0.5-0.6-1.2-0.9-2-0.9C271.5,264.1,270.9,264.4,270.3,264.9z"/>
	<path fill="#E7E1D4" d="M279.1,259.7v11.7h-1v-11.7H279.1z"/>
	<path fill="#E7E1D4" d="M288.4,267.2v0.6H282c0.1,1.7,1.2,2.9,2.8,2.9c1.3,0,2.1-0.5,2.5-1.5h1c-0.5,1.6-1.7,2.4-3.5,2.4
		c-1.1,0-2-0.4-2.7-1.2c-0.7-0.8-1.1-1.8-1.1-3c0-1.2,0.3-2.2,1-3c0.7-0.8,1.6-1.2,2.7-1.2C287,263.2,288.4,264.6,288.4,267.2z
		 M282,266.8h5.4c0-1.7-1-2.7-2.6-2.7C283.2,264.1,282.2,265.2,282,266.8z"/>
	<path fill="#E7E1D4" d="M299.8,263h-1.1c0-1.3-0.8-2.1-2.1-2.1c-1.2,0-2,0.8-2,2c0,0.6,0.2,1,0.5,1.3c0.3,0.3,1,0.6,1.9,1
		c1.2,0.4,2,0.9,2.4,1.4c0.5,0.4,0.7,1.1,0.7,1.9c0,1-0.3,1.8-0.9,2.3c-0.6,0.6-1.4,0.8-2.4,0.8c-2.2,0-3.6-1.3-3.6-3.4h1.1
		c0,1.6,0.9,2.5,2.5,2.5c1.5,0,2.3-0.9,2.3-2.2c0-1-0.7-1.6-2.6-2.3c-1-0.4-1.8-0.8-2.3-1.3s-0.7-1.1-0.7-1.9c0-0.8,0.3-1.6,0.8-2.1
		c0.5-0.6,1.3-0.9,2.3-0.9C298.6,260,299.8,261.1,299.8,263z"/>
	<path fill="#E7E1D4" d="M307.4,266v5.4h-1l0-1.2c-0.4,0.8-1.4,1.3-2.5,1.3c-1.4,0-2.3-0.9-2.3-2.1c0-1.2,0.7-2,2.2-2.3l2.6-0.5V266
		c0-1.3-0.6-1.9-1.7-1.9c-1.1,0-1.8,0.6-1.8,1.7h-1c0-0.8,0.3-1.4,0.8-1.9c0.5-0.5,1.2-0.8,2-0.8C306.5,263.2,307.4,264.2,307.4,266
		z M306.4,267.5L304,268c-0.9,0.2-1.3,0.6-1.3,1.4c0,0.8,0.5,1.2,1.4,1.2c0.8,0,1.4-0.3,1.9-0.9c0.4-0.5,0.5-1,0.5-1.6V267.5z"/>
	<path fill="#E7E1D4" d="M313.6,259.8v0.9c-0.3-0.1-0.7-0.2-1-0.2c-0.8,0-1.2,0.5-1.2,1.4v1.4h2.1v0.9h-2.1v7.1h-1v-7.1h-1.6v-0.9
		h1.6v-1.4c0-1.5,0.8-2.3,2.1-2.3C312.9,259.6,313.3,259.6,313.6,259.8z"/>
	<path fill="#E7E1D4" d="M320.2,266v5.4h-1l0-1.2c-0.4,0.8-1.4,1.3-2.5,1.3c-1.4,0-2.3-0.9-2.3-2.1c0-1.2,0.7-2,2.2-2.3l2.6-0.5V266
		c0-1.3-0.6-1.9-1.7-1.9c-1.1,0-1.8,0.6-1.8,1.7h-1c0-0.8,0.3-1.4,0.8-1.9c0.5-0.5,1.2-0.8,2-0.8C319.3,263.2,320.2,264.2,320.2,266
		z M319.2,267.5l-2.4,0.5c-0.9,0.2-1.3,0.6-1.3,1.4c0,0.8,0.5,1.2,1.4,1.2c0.8,0,1.4-0.3,1.9-0.9c0.4-0.5,0.5-1,0.5-1.6V267.5z"/>
	<path fill="#E7E1D4" d="M326.2,264.3c-0.7,0-1.2,0.2-1.6,0.7c-0.5,0.5-0.8,1.2-0.8,2.1v4.4h-1v-8h0.9l0,1.5
		c0.3-0.8,1.2-1.5,2.4-1.5V264.3z"/>
	<path fill="#E7E1D4" d="M329.2,260.8c0,0.4-0.4,0.8-0.8,0.8c-0.4,0-0.8-0.3-0.8-0.8c0-0.4,0.3-0.8,0.8-0.8
		C328.8,260,329.2,260.4,329.2,260.8z M328.9,263.3v8h-1v-8H328.9z"/>
	<path fill="#E7E1D4" d="M331.8,271.6c-0.8,0-1.2-0.9-0.6-1.5c0.5-0.6,1.5-0.1,1.5,0.6C332.6,271.2,332.2,271.6,331.8,271.6z"/>
	<path fill="#E7E1D4" d="M343.9,263h-1.1c0-1.3-0.8-2.1-2.1-2.1c-1.2,0-2,0.8-2,2c0,0.6,0.2,1,0.5,1.3s1,0.6,1.9,1
		c1.2,0.4,2,0.9,2.4,1.4c0.5,0.4,0.7,1.1,0.7,1.9c0,1-0.3,1.8-0.9,2.3c-0.6,0.6-1.4,0.8-2.4,0.8c-2.2,0-3.6-1.3-3.6-3.4h1.1
		c0,1.6,0.9,2.5,2.5,2.5c1.5,0,2.3-0.9,2.3-2.2c0-1-0.7-1.6-2.6-2.3c-1-0.4-1.8-0.8-2.3-1.3c-0.5-0.4-0.7-1.1-0.7-1.9
		c0-0.8,0.3-1.6,0.8-2.1c0.5-0.6,1.3-0.9,2.3-0.9C342.7,260,343.9,261.1,343.9,263z"/>
	<path fill="#E7E1D4" d="M349.5,263.2c1.2,0,2.1,0.4,2.9,1.2c0.7,0.8,1.1,1.8,1.1,3s-0.4,2.2-1.1,3c-0.7,0.8-1.7,1.2-2.9,1.2
		s-2.1-0.4-2.9-1.2c-0.7-0.8-1.1-1.8-1.1-3s0.4-2.2,1.1-3C347.4,263.6,348.3,263.2,349.5,263.2z M347.4,265
		c-0.5,0.6-0.8,1.4-0.8,2.3s0.3,1.7,0.8,2.3c0.6,0.6,1.3,0.9,2.2,0.9c0.9,0,1.6-0.3,2.1-0.9c0.5-0.6,0.8-1.4,0.8-2.3
		s-0.3-1.7-0.8-2.3c-0.5-0.6-1.2-0.9-2.1-0.9C348.6,264.1,347.9,264.4,347.4,265z"/>
	<path fill="#E7E1D4" d="M358.9,264.3c-0.7,0-1.2,0.2-1.6,0.7c-0.5,0.5-0.8,1.2-0.8,2.1v4.4h-1v-8h0.9l0,1.5
		c0.3-0.8,1.2-1.5,2.4-1.5V264.3z"/>
	<path fill="#E7E1D4" d="M364.1,264.3c-0.7,0-1.2,0.2-1.6,0.7c-0.5,0.5-0.8,1.2-0.8,2.1v4.4h-1v-8h0.9l0,1.5
		c0.3-0.8,1.2-1.5,2.4-1.5V264.3z"/>
	<path fill="#E7E1D4" d="M372.2,263.3l-4.5,11.5h-1.1l1.4-3.6l-3.1-7.9h1.1l2.4,6.2l0.2,0.6l0.2-0.6l2.4-6.2H372.2z"/>
	<path fill="#E7E1D4" d="M380.9,259.8v0.9c-0.3-0.1-0.7-0.2-1-0.2c-0.8,0-1.2,0.5-1.2,1.4v1.4h2.1v0.9h-2.1v7.1h-1v-7.1h-1.6v-0.9
		h1.6v-1.4c0-1.5,0.8-2.3,2.1-2.3C380.2,259.6,380.6,259.6,380.9,259.8z"/>
	<path fill="#E7E1D4" d="M385.6,263.2c1.2,0,2.1,0.4,2.9,1.2c0.7,0.8,1.1,1.8,1.1,3s-0.4,2.2-1.1,3c-0.7,0.8-1.7,1.2-2.9,1.2
		s-2.1-0.4-2.9-1.2c-0.7-0.8-1.1-1.8-1.1-3s0.4-2.2,1.1-3C383.4,263.6,384.4,263.2,385.6,263.2z M383.4,265
		c-0.5,0.6-0.8,1.4-0.8,2.3s0.3,1.7,0.8,2.3c0.6,0.6,1.3,0.9,2.2,0.9c0.9,0,1.6-0.3,2.1-0.9c0.5-0.6,0.8-1.4,0.8-2.3
		s-0.3-1.7-0.8-2.3c-0.5-0.6-1.2-0.9-2.1-0.9C384.7,264.1,384,264.4,383.4,265z"/>
	<path fill="#E7E1D4" d="M395,264.3c-0.7,0-1.2,0.2-1.6,0.7c-0.5,0.5-0.8,1.2-0.8,2.1v4.4h-1v-8h0.9l0,1.5c0.3-0.8,1.2-1.5,2.4-1.5
		V264.3z"/>
	<path fill="#E7E1D4" d="M401.4,261.3l0,2h2.2v0.9h-2.2l0,4.9c0,1,0.3,1.4,1.2,1.4c0.3,0,0.7,0,1-0.2v0.9c-0.3,0.1-0.7,0.2-1.1,0.2
		c-1.4,0-2.1-0.7-2.1-2.2l0-5h-1.6v-0.9h1.6l0-2H401.4z"/>
	<path fill="#E7E1D4" d="M406.4,259.7v4.8c0.3-0.7,1.2-1.3,2.3-1.3c1.7,0,2.6,1.2,2.6,3v5.2h-1v-5.1c0-1.4-0.7-2.1-1.8-2.1
		c-1.2,0-2.1,1.1-2.1,2.8v4.5h-1v-11.7H406.4z"/>
	<path fill="#E7E1D4" d="M420.4,267.2v0.6H414c0.1,1.7,1.2,2.9,2.8,2.9c1.3,0,2.1-0.5,2.5-1.5h1c-0.5,1.6-1.7,2.4-3.5,2.4
		c-1.1,0-2-0.4-2.7-1.2c-0.7-0.8-1.1-1.8-1.1-3c0-1.2,0.3-2.2,1-3c0.7-0.8,1.6-1.2,2.7-1.2C419,263.2,420.4,264.6,420.4,267.2z
		 M414,266.8h5.4c0-1.7-1-2.7-2.6-2.7C415.2,264.1,414.1,265.2,414,266.8z"/>
	<path fill="#E7E1D4" d="M427.2,260.8c0,0.4-0.4,0.8-0.8,0.8c-0.4,0-0.8-0.3-0.8-0.8c0-0.4,0.3-0.8,0.8-0.8
		C426.9,260,427.2,260.4,427.2,260.8z M426.9,263.3v8h-1v-8H426.9z"/>
	<path fill="#E7E1D4" d="M435.4,266.2v5.2h-1v-5.1c0-1.4-0.7-2.1-1.8-2.1c-1.2,0-2.1,1.1-2.1,2.8v4.5h-1v-8h0.9l0,1.2
		c0.3-0.8,1.2-1.4,2.3-1.4C434.5,263.2,435.4,264.4,435.4,266.2z"/>
	<path fill="#E7E1D4" d="M444.5,265.7h-1c-0.3-1-1.3-1.6-2.4-1.6c-0.8,0-1.5,0.3-2,0.9c-0.5,0.6-0.8,1.4-0.8,2.3
		c0,0.9,0.3,1.7,0.8,2.3c0.5,0.6,1.2,0.9,2,0.9c1.2,0,2.1-0.6,2.4-1.6h1c-0.4,1.6-1.8,2.5-3.5,2.5c-1.1,0-2-0.4-2.8-1.2
		c-0.7-0.8-1.1-1.8-1.1-3c0-1.2,0.4-2.2,1.1-3c0.7-0.8,1.6-1.2,2.8-1.2C442.8,263.2,444.1,264.1,444.5,265.7z"/>
	<path fill="#E7E1D4" d="M449.8,263.2c1.2,0,2.1,0.4,2.9,1.2c0.7,0.8,1.1,1.8,1.1,3s-0.4,2.2-1.1,3c-0.7,0.8-1.7,1.2-2.9,1.2
		s-2.1-0.4-2.9-1.2c-0.7-0.8-1.1-1.8-1.1-3s0.4-2.2,1.1-3C447.6,263.6,448.6,263.2,449.8,263.2z M447.6,265
		c-0.5,0.6-0.8,1.4-0.8,2.3s0.3,1.7,0.8,2.3c0.6,0.6,1.3,0.9,2.2,0.9c0.9,0,1.6-0.3,2.1-0.9c0.5-0.6,0.8-1.4,0.8-2.3
		s-0.3-1.7-0.8-2.3c-0.5-0.6-1.2-0.9-2.1-0.9C448.9,264.1,448.2,264.4,447.6,265z"/>
	<path fill="#E7E1D4" d="M461.5,266.2v5.2h-1v-5.1c0-1.4-0.7-2.1-1.8-2.1c-1.2,0-2.1,1.1-2.1,2.8v4.5h-1v-8h0.9l0,1.2
		c0.3-0.8,1.2-1.4,2.3-1.4C460.6,263.2,461.5,264.4,461.5,266.2z"/>
	<path fill="#E7E1D4" d="M470.3,263.3l-3.2,8h-1l-3.2-8h1.1l2.4,6.2l0.2,0.6l0.2-0.6l2.4-6.2H470.3z"/>
	<path fill="#E7E1D4" d="M478.4,267.2v0.6h-6.4c0.1,1.7,1.2,2.9,2.8,2.9c1.3,0,2.1-0.5,2.5-1.5h1c-0.5,1.6-1.7,2.4-3.5,2.4
		c-1.1,0-2-0.4-2.7-1.2c-0.7-0.8-1.1-1.8-1.1-3c0-1.2,0.3-2.2,1-3c0.7-0.8,1.6-1.2,2.7-1.2C477,263.2,478.4,264.6,478.4,267.2z
		 M472.1,266.8h5.4c0-1.7-1-2.7-2.6-2.7C473.3,264.1,472.2,265.2,472.1,266.8z"/>
	<path fill="#E7E1D4" d="M486.4,266.2v5.2h-1v-5.1c0-1.4-0.7-2.1-1.8-2.1c-1.2,0-2.1,1.1-2.1,2.8v4.5h-1v-8h0.9l0,1.2
		c0.3-0.8,1.2-1.4,2.3-1.4C485.5,263.2,486.4,264.4,486.4,266.2z"/>
	<path fill="#E7E1D4" d="M490.2,260.8c0,0.4-0.4,0.8-0.8,0.8c-0.4,0-0.8-0.3-0.8-0.8c0-0.4,0.3-0.8,0.8-0.8
		C489.9,260,490.2,260.4,490.2,260.8z M489.9,263.3v8h-1v-8H489.9z"/>
	<path fill="#E7E1D4" d="M499.3,267.2v0.6h-6.4c0.1,1.7,1.2,2.9,2.8,2.9c1.3,0,2.1-0.5,2.5-1.5h1c-0.5,1.6-1.7,2.4-3.5,2.4
		c-1.1,0-2-0.4-2.7-1.2c-0.7-0.8-1.1-1.8-1.1-3c0-1.2,0.3-2.2,1-3c0.7-0.8,1.6-1.2,2.7-1.2C497.8,263.2,499.3,264.6,499.3,267.2z
		 M492.9,266.8h5.4c0-1.7-1-2.7-2.6-2.7C494.1,264.1,493,265.2,492.9,266.8z"/>
	<path fill="#E7E1D4" d="M507.2,266.2v5.2h-1v-5.1c0-1.4-0.7-2.1-1.8-2.1c-1.2,0-2.1,1.1-2.1,2.8v4.5h-1v-8h0.9l0,1.2
		c0.3-0.8,1.2-1.4,2.3-1.4C506.3,263.2,507.2,264.4,507.2,266.2z"/>
	<path fill="#E7E1D4" d="M516.3,265.7h-1c-0.3-1-1.3-1.6-2.4-1.6c-0.8,0-1.5,0.3-2,0.9c-0.5,0.6-0.8,1.4-0.8,2.3
		c0,0.9,0.3,1.7,0.8,2.3c0.5,0.6,1.2,0.9,2,0.9c1.2,0,2.1-0.6,2.4-1.6h1c-0.4,1.6-1.8,2.5-3.5,2.5c-1.1,0-2-0.4-2.8-1.2
		c-0.7-0.8-1.1-1.8-1.1-3c0-1.2,0.4-2.2,1.1-3c0.7-0.8,1.6-1.2,2.8-1.2C514.5,263.2,515.9,264.1,516.3,265.7z"/>
	<path fill="#E7E1D4" d="M525,267.2v0.6h-6.4c0.1,1.7,1.2,2.9,2.8,2.9c1.3,0,2.1-0.5,2.5-1.5h1c-0.5,1.6-1.7,2.4-3.5,2.4
		c-1.1,0-2-0.4-2.7-1.2c-0.7-0.8-1.1-1.8-1.1-3c0-1.2,0.3-2.2,1-3c0.7-0.8,1.6-1.2,2.7-1.2C523.5,263.2,525,264.6,525,267.2z
		 M518.6,266.8h5.4c0-1.7-1-2.7-2.6-2.7C519.8,264.1,518.7,265.2,518.6,266.8z"/>
	<path fill="#E7E1D4" d="M526.9,271.6c-0.8,0-1.2-0.9-0.6-1.5c0.5-0.6,1.5-0.1,1.5,0.6C527.8,271.2,527.4,271.6,526.9,271.6z"/>
</g>
</svg>
