<svg version="1.1" id="Layer_2" xmlns="http://www.w3.org/2000/svg" xmlns:xlink="http://www.w3.org/1999/xlink" x="0px" y="0px"
	 viewBox="0 0 800 800" enable-background="new 0 0 800 800" xml:space="preserve">
<g>
	<path fill="#E7E1D4" d="M275.7,287h-2.5v-27.4h8.2v26.6h-2.5v-3.2h-3.2V287z M278.9,262.1h-3.2v18.7h3.2V262.1z M289.4,270.7
		c1,1.1,1.8,2.3,2.4,3.6c0.6,1.3,0.9,2.8,0.9,4.5c0,1.2-0.1,2.2-0.2,3s-0.4,1.5-0.7,1.9c-0.3,0.5-0.8,0.8-1.3,1
		c-0.5,0.2-1.2,0.3-2,0.3h-1.8l-0.8-2.8c0.6,0.1,1,0.1,1.2,0.1c0.3,0,0.6,0,1.1,0c0.7,0,1.2-0.3,1.5-0.9c0.3-0.6,0.5-1.7,0.5-3.2
		c0-1.3-0.3-2.7-1-3.9c-0.6-1.3-1.4-2.4-2.4-3.2l3.2-10.9h-4.3v34.2h-2.4v-36.6h9.8L289.4,270.7z M293.6,261.2v-2.4h16v2.4H307v28.1
		c0,0.9-0.1,1.6-0.2,2.2c-0.1,0.6-0.4,1.1-0.7,1.5c-0.4,0.4-0.9,0.7-1.5,0.8c-0.6,0.2-1.5,0.3-2.5,0.3c-0.5,0-1,0-1.4,0
		c-0.4,0-0.9,0-1.6-0.1l-0.7-2.8c0.7,0.1,1.3,0.1,1.8,0.1c0.5,0,1,0,1.5,0c1.1,0,1.9-0.1,2.2-0.4c0.4-0.3,0.6-0.8,0.6-1.5v-28.2
		H293.6z M296.2,286.2h-2.4v-20.4h8.1v19.6h-2.4V283h-3.2V286.2z M299.4,268.2h-3.2v12.4h3.2V268.2z"/>
	<path fill="#E7E1D4" d="M318,288.3h-2.6v-27.5h9v26.5h-2.6v-3.7H318V288.3z M321.8,263.3H318v18h3.8V263.3z M330.8,261.8
		c-0.8,0.1-1.7,0.2-2.5,0.3c-0.8,0.1-1.7,0.2-2.7,0.2l-0.7-2.4c2.4,0,4.5-0.2,6.4-0.4c1.9-0.3,3.8-0.7,5.7-1.4l1.1,2.2
		c-1.6,0.4-3.2,0.8-4.8,1.1v7.1h6.2c-0.2-3.6-0.2-7.4-0.1-11.5h2.5c0,2.1,0,4.1,0,6c0.1,1.9,0.1,3.7,0.2,5.5h9.4v2.4h-9.3
		c0.1,1.9,0.3,3.7,0.4,5.3c0.1,1.6,0.3,3.2,0.5,4.6c0.9-1.1,1.8-2.3,2.6-3.5c0.8-1.2,1.6-2.6,2.3-4l2.4,1.3
		c-1.1,1.8-2.1,3.4-3.2,4.9c-1.1,1.5-2.2,2.9-3.4,4.3c0.8,2.8,2,4.9,3.5,6.4c0.3,0.3,0.5,0.3,0.7,0.2c0.2-0.1,0.4-0.5,0.6-1.2
		c0.1-0.4,0.2-0.8,0.3-1.3c0.1-0.5,0.2-1.1,0.3-1.9l2.5,1c-0.2,0.8-0.3,1.6-0.4,2.2c-0.1,0.6-0.3,1.2-0.4,1.9
		c-0.5,1.7-1.2,2.7-1.9,2.9c-0.7,0.2-1.5,0-2.5-0.7c-0.9-0.7-1.8-1.7-2.6-3c-0.8-1.2-1.5-2.7-2-4.3c-1,0.9-2,1.9-3.1,2.8
		c-1.1,1-2.3,1.9-3.6,2.9l-1.6-2.1c1.5-1.1,2.9-2.2,4.1-3.2c1.2-1,2.3-2.1,3.4-3.2c-0.2-0.7-0.3-1.5-0.4-2.2
		c-0.1-0.7-0.2-1.6-0.3-2.5c-0.1-0.9-0.2-2-0.3-3.3c-0.1-1.2-0.2-2.7-0.3-4.4h-6.3v6.6c0.9-0.4,1.7-0.7,2.6-1.1
		c0.9-0.4,1.8-0.8,2.9-1.2l0.2,2.6c-1.1,0.4-2.1,0.8-3,1.2s-1.8,0.7-2.7,1v10.3c0,1.3-0.3,2.2-0.9,2.6c-0.6,0.5-1.7,0.7-3.2,0.8
		c-0.3,0-0.7,0-1.3,0c-0.6,0-1.2,0-1.8,0l-0.6-2.5c1.7,0.2,2.9,0.2,3.6,0.1c0.7,0,1.1-0.2,1.4-0.4c0.2-0.2,0.4-0.7,0.4-1.3v-8.5
		c-0.7,0.3-1.4,0.5-2.1,0.8c-0.8,0.3-1.6,0.6-2.5,1l-1.2-2.6c2.3-0.7,4.3-1.3,5.9-1.8v-7.5h-5.8v-2.4h5.8V261.8z M348.5,265.8
		c-0.4-0.6-0.7-1.2-1.1-1.8c-0.3-0.5-0.7-1.1-1.1-1.6c-0.4-0.5-0.8-1.1-1.2-1.6c-0.4-0.5-0.9-1.2-1.4-1.8l2.1-1.4
		c0.6,0.7,1.1,1.3,1.5,1.9c0.4,0.6,0.8,1.1,1.2,1.6c0.4,0.5,0.7,1,1.1,1.5c0.3,0.5,0.7,1.1,1.1,1.7L348.5,265.8z"/>
	<path fill="#E7E1D4" d="M359.4,291.2c-2.3,0-3.5-2.8-1.9-4.4c1.5-1.7,4.6-0.4,4.4,1.8C361.9,290,360.8,291.2,359.4,291.2z"/>
	<path fill="#E7E1D4" d="M368.6,291.2c-2.3,0-3.5-2.8-1.9-4.4c1.5-1.7,4.6-0.4,4.4,1.8C371.1,290,370,291.2,368.6,291.2z"/>
	<path fill="#E7E1D4" d="M377.7,291.2c-2.3,0-3.5-2.8-1.9-4.4c1.5-1.7,4.6-0.4,4.4,1.8C380.3,290,379.1,291.2,377.7,291.2z"/>
	<path fill="#E7E1D4" d="M410.8,274.5h-13.2v-14h2.6V272h10.7v-15.1h2.7V272h10.6v-11.7h2.6v14.2h-13.2V290h11.9v-12.7h2.6v17.1
		h-2.6v-1.9h-29.2v-15h2.7V290h12V274.5z"/>
	<path fill="#E7E1D4" d="M441.4,262.3h7.4v2.4h-8.5c-0.7,1.4-1.5,2.9-2.4,4.4h10.1v2.4H443v5.2h5.7v2.4H443v10.3l5.8-3.3l0.7,2.4
		l-4.8,2.7c-1.5,0.9-2.6,1.8-3.5,2.7L439,292c0.5-0.4,0.9-0.6,1.1-0.9c0.2-0.2,0.3-0.7,0.3-1.3v-10.7h-5.3v-2.4h5.3v-5.2h-2.9v-1.8
		l-1,1.4l-2.1-1.5c2.2-2.9,4.3-7.2,6.2-13.1l2.6,1C442.8,258.9,442.2,260.5,441.4,262.3z M466.6,262h4.8v2.4h-4.8v5.3h6v2.4H449
		v-2.4h6v-5.3h-4.8V262h4.8v-5.1h2.6v5.1h6.4v-5.2h2.6V262z M454.4,291.6v2.7h-2.6v-18.5h17.9v18.1h-2.6v-2.3H454.4z M454.4,282.5
		h12.6v-4.2h-12.6V282.5z M467.1,284.9h-12.6v4.3h12.6V284.9z M464,264.5h-6.4v5.3h6.4V264.5z"/>
	<path fill="#E7E1D4" d="M480.9,287.6h-2.6V262h8.3v24h-2.5v-2.8h-3.2V287.6z M484.1,264.4h-3.2v16.3h3.2V264.4z M487.5,267.1v-2.4
		h3.7v-7.7h2.5v7.7h3.5v2.4h-3.5v9.1c1.1-0.3,2.3-0.7,3.7-1.2l0.4,2.6c-0.9,0.3-1.6,0.5-2.3,0.7c-0.7,0.2-1.3,0.4-1.9,0.6v11.9
		c0,1.2-0.3,2.1-0.8,2.6c-0.5,0.5-1.4,0.8-2.6,0.8c-0.7,0-1.2,0-1.7,0c-0.5,0-1,0-1.5,0l-0.6-2.8c0.7,0.1,1.4,0.2,2,0.2
		c0.6,0,1.1,0,1.5,0c0.5,0,0.9-0.1,1.1-0.4c0.2-0.3,0.3-0.7,0.3-1.2v-10.4c-0.5,0.2-1.1,0.3-1.7,0.5c-0.6,0.2-1.2,0.4-1.9,0.6
		l-0.8-2.6c0.9-0.3,1.7-0.5,2.4-0.7s1.3-0.4,2-0.5v-9.9H487.5z M505.1,291.1c0.4-1.8,0.9-3.7,1.3-5.6c0.4-1.9,0.8-3.9,1.2-5.8
		c0.4-2,0.7-3.9,1-5.8c0.3-1.9,0.6-3.7,0.7-5.4l2.7,0.3c-0.5,3.7-1.2,7.4-1.9,11.2c-0.7,3.8-1.6,7.5-2.4,11.2h6.4v2.4h-17v-2.4
		H505.1z M504.4,263c-0.4-1.1-0.7-2.1-1.1-3s-0.8-1.9-1.1-2.7l2.5-0.8c0.4,1.1,0.9,2.1,1.3,3.2c0.4,1,0.8,2.1,1.2,3.3h6.3v2.4h-15.7
		V263H504.4z M501.9,287.8c-0.3-1.8-0.6-3.5-0.8-5s-0.5-3-0.8-4.4c-0.3-1.4-0.5-2.8-0.8-4.2c-0.3-1.4-0.6-2.8-0.9-4.3l2.5-0.5
		c0.3,1.5,0.6,2.9,0.9,4.3c0.3,1.3,0.6,2.7,0.8,4.1c0.3,1.4,0.5,2.9,0.8,4.4c0.3,1.6,0.5,3.3,0.8,5.2L501.9,287.8z"/>
	<path fill="#E7E1D4" d="M523.3,291.2c-1.5,0-2.6-1.1-2.6-2.5s1.1-2.6,2.6-2.6s2.6,1.1,2.6,2.6C525.9,290,524.8,291.2,523.3,291.2z
		 M524.8,257.1v24.3h-3v-24.3H524.8z"/>
	<path fill="#E7E1D4" d="M222.5,314.7v33.6h-3.2v-33.6H222.5z"/>
	<path fill="#E7E1D4" d="M248,332.7v15.6h-3V333c0-4.2-2-6.4-5.3-6.4c-3.7,0-6.3,3.3-6.3,8.3v13.4h-3v-24.1h2.8l0.1,3.6
		c1-2.3,3.6-4.2,6.9-4.2C245.2,323.6,248,327.3,248,332.7z"/>
	<path fill="#E7E1D4" d="M259.6,318l0,6.1h6.5v2.8h-6.6l-0.1,14.6c0,2.9,0.8,4.2,3.6,4.2c1,0,2.1-0.1,3.1-0.5v2.7
		c-0.8,0.3-2,0.5-3.4,0.5c-4.2,0-6.3-2-6.2-6.6l0.1-15h-4.8v-2.8h4.8l0-6.1H259.6z"/>
	<path fill="#E7E1D4" d="M291.5,335.7v1.7h-19.2c0.2,5.2,3.7,8.6,8.4,8.6c3.8,0,6.2-1.5,7.4-4.5h3.1c-1.5,4.7-5.2,7.3-10.6,7.3
		c-3.3,0-6-1.2-8.2-3.5c-2.1-2.3-3.2-5.3-3.2-9.1c0-3.7,1-6.7,3.1-9.1c2.1-2.4,4.8-3.6,8.2-3.6C287.2,323.6,291.5,328,291.5,335.7z
		 M272.4,334.6h16.1c0-5-3.1-8.2-7.9-8.2C276,326.5,272.8,329.8,272.4,334.6z"/>
	<path fill="#E7E1D4" d="M308.4,326.9c-2,0-3.6,0.7-4.9,2c-1.5,1.5-2.3,3.6-2.3,6.3v13.1h-3v-24.1h2.8l0.1,4.4
		c1-2.5,3.5-4.6,7.3-4.6V326.9z"/>
	<path fill="#E7E1D4" d="M331.1,332.7v15.6h-3V333c0-4.2-2-6.4-5.3-6.4c-3.7,0-6.3,3.3-6.3,8.3v13.4h-3v-24.1h2.8l0.1,3.6
		c1-2.3,3.6-4.2,6.9-4.2C328.2,323.6,331.1,327.3,331.1,332.7z"/>
	<path fill="#E7E1D4" d="M358.5,335.7v1.7h-19.2c0.2,5.2,3.7,8.6,8.4,8.6c3.8,0,6.2-1.5,7.4-4.5h3.1c-1.5,4.7-5.2,7.3-10.6,7.3
		c-3.3,0-6-1.2-8.2-3.5c-2.1-2.3-3.2-5.3-3.2-9.1c0-3.7,1-6.7,3.1-9.1c2.1-2.4,4.8-3.6,8.2-3.6C354.1,323.6,358.5,328,358.5,335.7z
		 M339.4,334.6h16.1c0-5-3.1-8.2-7.9-8.2C343,326.5,339.7,329.8,339.4,334.6z"/>
	<path fill="#E7E1D4" d="M369.1,318l0,6.1h6.5v2.8H369l-0.1,14.6c0,2.9,0.8,4.2,3.6,4.2c1,0,2.1-0.1,3.1-0.5v2.7
		c-0.8,0.3-2,0.5-3.4,0.5c-4.2,0-6.3-2-6.2-6.6l0.1-15h-4.8v-2.8h4.8l0-6.1H369.1z"/>
	<path fill="#E7E1D4" d="M409.1,314.7v3h-14.9v11.8h13.2v3h-13.2v12.9h14.9v3h-18v-33.6H409.1z"/>
	<path fill="#E7E1D4" d="M433.4,324.2l-8.1,11.6l8.8,12.5h-3.6l-7.1-10l-7.1,10h-3.6l8.7-12.5l-8.1-11.6h3.6l6.4,9.2l6.5-9.2H433.4z
		"/>
	<path fill="#E7E1D4" d="M459.3,327.2c2.1,2.4,3.1,5.4,3.1,9c0,3.6-1,6.7-3.1,9c-2.1,2.4-4.8,3.6-8.2,3.6c-4.1,0-7.2-2.1-8.4-4.6
		v14.4h-3.1v-34.4h2.9l0,4.1c1.4-2.4,4.6-4.7,8.6-4.7C454.6,323.6,457.3,324.8,459.3,327.2z M445,329c-1.6,1.6-2.4,3.8-2.4,6.6v1
		c0,2.8,0.8,5.1,2.4,6.8c1.6,1.7,3.6,2.5,5.8,2.5c2.5,0,4.6-0.9,6.1-2.7c1.6-1.8,2.4-4.1,2.4-7c0-2.8-0.8-5.2-2.3-7
		c-1.5-1.8-3.6-2.7-6.1-2.7C448.6,326.5,446.6,327.3,445,329z"/>
	<path fill="#E7E1D4" d="M471.2,313.2v35h-3v-35H471.2z"/>
	<path fill="#E7E1D4" d="M489,323.6c3.6,0,6.4,1.2,8.6,3.6s3.3,5.4,3.3,9c0,3.6-1.1,6.7-3.3,9c-2.2,2.4-5.1,3.6-8.6,3.6
		c-3.6,0-6.4-1.2-8.7-3.6c-2.2-2.4-3.3-5.4-3.3-9c0-3.6,1.1-6.7,3.3-9C482.5,324.8,485.4,323.6,489,323.6z M482.5,329.2
		c-1.6,1.8-2.4,4.1-2.4,7c0,2.8,0.8,5.1,2.4,7c1.7,1.8,3.8,2.7,6.5,2.7c2.6,0,4.8-0.9,6.4-2.7c1.6-1.9,2.4-4.2,2.4-7
		c0-2.8-0.8-5.1-2.4-7c-1.6-1.9-3.7-2.8-6.4-2.8C486.3,326.5,484.2,327.4,482.5,329.2z"/>
	<path fill="#E7E1D4" d="M517.1,326.9c-2,0-3.6,0.7-4.9,2c-1.5,1.5-2.3,3.6-2.3,6.3v13.1h-3v-24.1h2.8l0.1,4.4
		c1-2.5,3.5-4.6,7.3-4.6V326.9z"/>
	<path fill="#E7E1D4" d="M541.8,335.7v1.7h-19.2c0.2,5.2,3.7,8.6,8.4,8.6c3.8,0,6.2-1.5,7.4-4.5h3.1c-1.5,4.7-5.2,7.3-10.6,7.3
		c-3.3,0-6-1.2-8.2-3.5c-2.1-2.3-3.2-5.3-3.2-9.1c0-3.7,1-6.7,3.1-9.1s4.8-3.6,8.2-3.6C537.4,323.6,541.8,328,541.8,335.7z
		 M522.6,334.6h16.1c0-5-3.1-8.2-7.9-8.2C526.2,326.5,523,329.8,522.6,334.6z"/>
	<path fill="#E7E1D4" d="M558.6,326.9c-2,0-3.6,0.7-4.9,2c-1.5,1.5-2.3,3.6-2.3,6.3v13.1h-3v-24.1h2.8l0.1,4.4
		c1-2.5,3.5-4.6,7.3-4.6V326.9z"/>
	<path fill="#E7E1D4" d="M561.7,348.8c-2.3,0-3.5-2.8-1.9-4.4c1.5-1.7,4.6-0.4,4.4,1.8C564.2,347.6,563.1,348.8,561.7,348.8z"/>
	<path fill="#E7E1D4" d="M570.9,348.8c-2.3,0-3.5-2.8-1.9-4.4c1.5-1.7,4.6-0.4,4.4,1.8C573.4,347.6,572.2,348.8,570.9,348.8z"/>
	<path fill="#E7E1D4" d="M580,348.8c-2.3,0-3.5-2.8-1.9-4.4c1.5-1.7,4.6-0.4,4.4,1.8C582.6,347.6,581.4,348.8,580,348.8z"/>
</g>
<g>
	<path fill="#E7E1D4" d="M251.8,373.3h-9.2v-1.2h17.7v1.2h-6.9c-0.8,1.4-1.5,2.5-2.1,3.4h0.6v12.9h-1.3v-11.9
		c-1.9,2.5-4.4,4.9-7.7,7.3l-1.2-0.9C246.4,380.9,249.8,377.3,251.8,373.3z M260.4,384.1l-1.1,0.9c-1.5-1.6-3.6-3.9-6.5-6.7l1.1-0.8
		C256.2,379.7,258.4,381.9,260.4,384.1z"/>
	<path fill="#E7E1D4" d="M271.7,376.7l-6,0.2c-0.8,0-1.5,0.1-2,0.3l-0.4-1.4c0.3,0,0.6-0.1,0.8-0.2c0.2-0.1,0.3-0.2,0.4-0.3
		c0.1-0.1,0.4-0.5,0.8-1s0.8-1.1,1-1.5c0.3-0.5,0.6-1.1,1.1-2l1.3,0.5c-0.8,1.4-1.8,2.9-3,4.4l5.2-0.2c-0.5-0.8-1-1.5-1.5-2.2
		l1.1-0.6c1,1.4,2,2.9,3,4.6l-1.3,0.5C272,377.3,271.9,377,271.7,376.7z M265.9,385.8v3.8h-1.3v-11.3h7.6v9.2c0,0.6,0,1-0.1,1.3
		c-0.1,0.3-0.3,0.5-0.6,0.6c-0.3,0.1-0.8,0.2-1.4,0.2h-1.6l-0.5-1.3c0.9,0.1,1.6,0.1,2,0.1c0.4,0,0.6-0.1,0.7-0.2
		c0.1-0.1,0.2-0.3,0.2-0.6v-1.8H265.9z M265.9,381.4h5v-1.9h-5V381.4z M270.8,382.7h-5v1.9h5V382.7z M275.5,383.8
		c2-0.6,3.8-1.4,5.4-2.4l0.8,1c-1.6,1-3.7,1.9-6.2,2.7v2.1c0,0.3,0.1,0.5,0.2,0.6s0.3,0.2,0.6,0.2h3.6c0.4,0,0.6-0.1,0.7-0.3
		c0.1-0.2,0.3-0.9,0.5-2.1l1.3,0.6c-0.3,1.5-0.6,2.3-0.9,2.6c-0.3,0.3-0.7,0.4-1.3,0.4h-3.9c-0.8,0-1.4-0.1-1.7-0.4
		c-0.3-0.3-0.4-0.8-0.4-1.6v-7h1.3V383.8z M275.5,375c2.3-0.9,4-1.8,5.2-2.6l0.9,1c-1.3,0.8-3.3,1.7-6.1,2.8v1.5
		c0,0.4,0.1,0.7,0.2,0.8c0.1,0.2,0.3,0.2,0.6,0.2h3.5c0.3,0,0.4,0,0.6-0.1c0.1-0.1,0.2-0.3,0.3-0.6c0.1-0.3,0.2-0.8,0.3-1.5l1.3,0.5
		c-0.1,0.9-0.4,1.7-0.7,2.2s-0.9,0.8-1.7,0.8h-3.6c-0.8,0-1.4-0.2-1.7-0.5c-0.3-0.3-0.4-0.9-0.4-1.8v-6.7h1.3V375z"/>
	<path fill="#E7E1D4" d="M295.8,382h-3.5c-0.1,1.9-0.6,3.5-1.5,4.6c-0.9,1.2-2.4,2.2-4.5,3l-1-1.1c1.9-0.7,3.3-1.5,4.2-2.5
		c0.9-1,1.4-2.4,1.5-4h-5.4v-1.2h17.7v1.2h-6.2v5.3c0,0.3,0.1,0.5,0.2,0.6s0.4,0.2,0.7,0.2h2.9c0.4,0,0.7,0,0.9-0.1
		c0.2-0.1,0.3-0.3,0.5-0.6c0.1-0.3,0.3-1,0.4-1.9l1.3,0.6c-0.3,1.6-0.6,2.5-0.9,2.9c-0.3,0.4-0.9,0.5-1.8,0.5h-3.1
		c-0.9,0-1.5-0.1-1.8-0.4s-0.5-0.8-0.5-1.7V382z M293.8,373.2l-1.1-2.2l1.4-0.3c0.5,0.8,0.9,1.6,1.3,2.5h7.5v4.1h-1.3v-2.9h-14.3v3
		H286v-4.2H293.8z M300.1,378.1h-11.3v-1.2h11.3V378.1z"/>
	<path fill="#E7E1D4" d="M313.5,378.1c1.1,0.8,1.9,1.5,2.6,2l-0.9,0.8c-0.7-0.6-1.6-1.3-2.6-2L313.5,378.1h-1v3.5h-1.2v-2.5
		c-0.9,0.8-2.2,1.7-3.8,2.6l-0.9-0.9c1.6-0.7,2.9-1.6,4.2-2.7h-3v-3.8h3.6v-1h-4.6v-1.1h4.6v-1.3h1.2v1.3h4.2v1.1h-4.2v1h3.6v2.2
		c1.3-1.7,2.3-3.7,3-5.7l1.2,0.4c-0.2,0.6-0.5,1.2-0.7,1.8h5.6v1.2H324c-0.5,1.7-1.3,3.2-2.4,4.3c1,0.9,2.3,1.6,3.9,2.1l-0.6,1.2
		c-1.7-0.6-3.1-1.4-4.2-2.5c-1.1,0.9-2.4,1.8-4.2,2.5l-0.7-1.1c1.5-0.6,2.9-1.3,4.1-2.3c-0.7-0.8-1.3-1.8-1.7-2.9
		c-0.2,0.4-0.6,1-1.1,1.7l-1.1-0.6v1.5H313.5z M315.3,383.2h-7.8v-1.2h16.8v1.2h-7.8v1.7h6.2v1.2h-6.2v1.9h8.8v1.2h-18.8V388h3.5
		v-3.8h1.2v3.8h3.9V383.2z M311.2,377v-1.5h-2.4v1.5H311.2z M312.4,375.5v1.5h2.4v-1.5H312.4z M322.7,374.1H319l0,0.1
		c0.4,1.2,1,2.3,1.8,3.3C321.7,376.5,322.4,375.3,322.7,374.1z"/>
	<path fill="#E7E1D4" d="M336.7,375.1H328v-1.2h8.7v-3h1.3v3h8.7v1.2H338v3.1h6.1c-0.8,1.6-1.6,3-2.4,4c-0.8,1.1-1.9,2.1-3.1,3
		c2.2,1.3,4.9,2.3,8.2,2.9l-0.8,1.4c-3.6-0.8-6.4-2-8.5-3.5c-2,1.3-5,2.5-8.9,3.6l-0.7-1.3c3.5-0.8,6.4-1.9,8.5-3.1
		c-1.9-1.5-3.5-3.4-4.8-5.8h-1.8v-1.2h6.9V375.1z M337.4,384.5c2.2-1.6,3.7-3.3,4.6-5h-9C334,381.3,335.5,383,337.4,384.5z"/>
	<path fill="#E7E1D4" d="M352.3,376.1h-2.7v-1.2h2.7v-4h1.3v4h2.5v1.2h-2.5v4.3c1.1-0.4,1.8-0.7,2.1-0.8l0.3,1.2l-2.4,0.9v6
		c0,0.8-0.2,1.4-0.5,1.7c-0.3,0.3-0.8,0.4-1.3,0.4c-0.6,0-1.2,0-2-0.1l-0.4-1.5c1,0.2,1.6,0.3,2,0.3c0.4,0,0.6-0.1,0.7-0.2
		c0.1-0.1,0.1-0.4,0.1-0.7v-5.3c-0.9,0.3-1.7,0.6-2.5,0.9l-0.5-1.2c0.6-0.2,1.6-0.5,3-1V376.1z M361.4,374.8h-4.3v-1.2h4.3v-2.7h1.3
		v2.7h4.3v1.2h-4.3v2.9h5.5v1.2h-12.3v-1.2h5.5V374.8z M365.4,381.4h2.6v1.2h-2.6v5.2c0,0.6-0.1,1.1-0.4,1.4
		c-0.3,0.3-0.8,0.4-1.6,0.4s-1.4,0-2.1,0l-0.6-1.5c1,0.1,1.7,0.2,2.2,0.2s0.8-0.1,1-0.2c0.2-0.1,0.2-0.3,0.2-0.6v-5h-8v-1.2h8v-2.1
		h1.3V381.4z M361.4,386.2l-1,0.9c-0.8-1-1.9-2-3.2-3l0.9-0.9C359.2,384.1,360.3,385.1,361.4,386.2z"/>
	<path fill="#E7E1D4" d="M379,370.3v7.2c0.4-1.1,1.8-2,3.4-2c2.5,0,3.9,1.8,3.9,4.5v7.8h-1.5v-7.6c0-2.1-1-3.2-2.7-3.2
		c-1.8,0-3.2,1.6-3.2,4.2v6.7h-1.5v-17.5H379z"/>
	<path fill="#E7E1D4" d="M400.1,381.5v0.8h-9.6c0.1,2.6,1.8,4.3,4.2,4.3c1.9,0,3.1-0.7,3.7-2.3h1.6c-0.7,2.3-2.6,3.7-5.3,3.7
		c-1.7,0-3-0.6-4.1-1.7c-1.1-1.2-1.6-2.7-1.6-4.5c0-1.8,0.5-3.4,1.5-4.5c1-1.2,2.4-1.8,4.1-1.8C397.9,375.5,400.1,377.7,400.1,381.5
		z M390.5,381h8c0-2.5-1.5-4.1-3.9-4.1C392.3,376.9,390.7,378.6,390.5,381z"/>
	<path fill="#E7E1D4" d="M413.8,370.3v17.5h-1.4l0-2c-0.7,1.2-2.3,2.3-4.3,2.3c-1.7,0-3.1-0.6-4.1-1.8c-1-1.2-1.5-2.7-1.5-4.5
		s0.5-3.3,1.5-4.5c1-1.2,2.4-1.8,4.1-1.8c2,0,3.6,1,4.2,2.3v-7.5H413.8z M405.1,378.3c-0.8,0.9-1.2,2.1-1.2,3.5s0.4,2.6,1.2,3.5
		c0.8,0.9,1.8,1.4,3.1,1.4c1.1,0,2.1-0.4,2.9-1.2c0.8-0.8,1.2-1.9,1.2-3.3v-0.5c0-1.4-0.4-2.6-1.2-3.4c-0.8-0.8-1.8-1.3-2.9-1.3
		C406.9,376.9,405.9,377.4,405.1,378.3z"/>
	<path fill="#E7E1D4" d="M425.5,379.7v8h-1.4l0-1.8c-0.6,1.2-2.1,2-3.8,2c-2.1,0-3.4-1.3-3.4-3.2c0-1.8,1.1-3,3.3-3.4l3.9-0.8v-0.8
		c0-1.9-0.9-2.9-2.6-2.9c-1.6,0-2.7,0.9-2.7,2.6h-1.5c0-1.2,0.4-2.1,1.2-2.9c0.8-0.8,1.8-1.2,3.1-1.2
		C424.1,375.5,425.5,377,425.5,379.7z M424,382l-3.6,0.8c-1.3,0.3-2,0.8-2,2.1c0,1.2,0.7,1.8,2.1,1.8c1.2,0,2.1-0.4,2.8-1.3
		c0.5-0.7,0.8-1.5,0.8-2.4V382z"/>
	<path fill="#E7E1D4" d="M445.1,375.7l-3.9,12h-1.5l-3.3-9.4l-3.3,9.4h-1.5l-3.9-12h1.6l2.9,9l0.3,1l0.3-1l3-9h1.3l3,9l0.3,1l0.3-1
		l2.9-9H445.1z"/>
	<path fill="#E7E1D4" d="M457.3,381.5v0.8h-9.6c0.1,2.6,1.8,4.3,4.2,4.3c1.9,0,3.1-0.7,3.7-2.3h1.6c-0.7,2.3-2.6,3.7-5.3,3.7
		c-1.7,0-3-0.6-4.1-1.7c-1.1-1.2-1.6-2.7-1.6-4.5c0-1.8,0.5-3.4,1.5-4.5c1-1.2,2.4-1.8,4.1-1.8C455.1,375.5,457.3,377.7,457.3,381.5
		z M447.7,381h8c0-2.5-1.5-4.1-3.9-4.1C449.5,376.9,447.9,378.6,447.7,381z"/>
	<path fill="#E7E1D4" d="M469.3,380v7.8h-1.5v-7.6c0-2.1-1-3.2-2.7-3.2c-1.8,0-3.2,1.6-3.2,4.2v6.7h-1.5v-12h1.4l0.1,1.8
		c0.5-1.1,1.8-2.1,3.5-2.1C467.8,375.5,469.3,377.3,469.3,380z"/>
	<path fill="#E7E1D4" d="M482.9,375.7v1.4h-2.3c0.6,0.7,0.8,1.6,0.8,2.7c0,1.2-0.4,2.2-1.2,3c-0.8,0.8-1.9,1.2-3.3,1.2
		c-1.1,0-2-0.3-2.8-0.8c-0.5,0.4-0.7,0.9-0.7,1.4c0,0.9,0.7,1.4,1.8,1.4h3.3c2.5,0,3.7,1.2,3.7,3.2c0,2.4-1.8,3.9-4.8,3.9
		c-3.3,0-5.2-1.3-5.2-3.7c0-1.1,0.5-1.9,1.4-2.4c-1-0.4-1.7-1.3-1.7-2.4c0-1,0.4-1.8,1.3-2.4c-0.5-0.7-0.8-1.6-0.8-2.5
		c0-2.5,1.8-4.3,4.5-4.3c0.6,0,1.2,0.1,1.7,0.3H482.9z M475.8,387.4c-1.1,0-2,0.8-2,2c0,1.6,1.2,2.4,3.6,2.4c2.2,0,3.3-0.8,3.3-2.5
		c0-1.2-0.9-1.9-2.4-1.9H475.8z M476.9,382.7c1.8,0,3-1.2,3-2.9c0-1.8-1.2-2.9-3-2.9c-1.8,0-3,1.2-3,2.9
		C473.9,381.5,475.1,382.7,476.9,382.7z"/>
	<path fill="#E7E1D4" d="M485,388c-1.1,0-1.7-1.4-0.9-2.2c0.8-0.8,2.3-0.2,2.2,0.9C486.3,387.5,485.7,388,485,388z"/>
	<path fill="#E7E1D4" d="M499.2,379.2h-1.6c-0.5-1.5-1.9-2.3-3.7-2.3c-1.2,0-2.2,0.5-3,1.4s-1.2,2.1-1.2,3.5c0,1.4,0.4,2.5,1.2,3.5
		c0.8,0.9,1.8,1.4,3,1.4c1.7,0,3.1-0.9,3.6-2.3h1.6c-0.7,2.4-2.7,3.7-5.3,3.7c-1.7,0-3-0.6-4.1-1.8c-1.1-1.2-1.6-2.7-1.6-4.5
		c0-1.8,0.5-3.3,1.6-4.5c1.1-1.2,2.5-1.8,4.1-1.8C496.5,375.5,498.5,376.8,499.2,379.2z"/>
	<path fill="#E7E1D4" d="M507.1,375.5c1.8,0,3.2,0.6,4.3,1.8c1.1,1.2,1.7,2.7,1.7,4.5s-0.6,3.3-1.7,4.5s-2.5,1.8-4.3,1.8
		s-3.2-0.6-4.3-1.8c-1.1-1.2-1.7-2.7-1.7-4.5s0.6-3.3,1.7-4.5C503.9,376.1,505.3,375.5,507.1,375.5z M503.8,378.3
		c-0.8,0.9-1.2,2.1-1.2,3.5s0.4,2.6,1.2,3.5c0.8,0.9,1.9,1.4,3.3,1.4c1.3,0,2.4-0.5,3.2-1.4c0.8-0.9,1.2-2.1,1.2-3.5
		s-0.4-2.6-1.2-3.5c-0.8-0.9-1.9-1.4-3.2-1.4C505.8,376.9,504.7,377.3,503.8,378.3z"/>
	<path fill="#E7E1D4" d="M531.9,380v7.8h-1.5v-7.6c0-2.1-1-3.2-2.6-3.2c-1.8,0-3.1,1.5-3.1,4v6.9h-1.5v-7.6c0-2.1-1-3.2-2.7-3.2
		c-1.8,0-3.1,1.6-3.1,4.2v6.7h-1.5v-12h1.4l0.1,1.8c0.5-1.1,1.8-2.1,3.4-2.1c1.8,0,3,0.8,3.6,2.4c0.6-1.3,2-2.4,3.7-2.4
		C530.5,375.5,531.9,377.2,531.9,380z"/>
	<path fill="#E7E1D4" d="M541,388c-1.1,0-1.7-1.4-0.9-2.2c0.8-0.8,2.3-0.2,2.2,0.9C542.3,387.5,541.7,388,541,388z M539.7,376.8
		c0-0.7,0.6-1.3,1.3-1.3c0.7,0,1.3,0.6,1.3,1.3s-0.6,1.3-1.3,1.3C540.3,378,539.7,377.5,539.7,376.8z"/>
	<path fill="#E7E1D4" d="M551.5,380.9v1.4h-7.6v-1.4H551.5z"/>
	<path fill="#E7E1D4" d="M558,371c-1.1,1.4-2,2.8-2.5,4.2c-0.5,1.4-0.8,3-0.8,4.8s0.3,3.5,0.8,4.8c0.5,1.4,1.3,2.8,2.5,4.2l-1.1,0.8
		c-2.4-3-3.6-6-3.6-9.9s1.2-6.8,3.6-9.9L558,371z"/>
</g>
<g>
	<path fill="#E7E1D4" d="M112.5,446.6v11.2h-1.1v-11.2H112.5z"/>
	<path fill="#E7E1D4" d="M121,452.6v5.2h-1v-5.1c0-1.4-0.7-2.1-1.8-2.1c-1.2,0-2.1,1.1-2.1,2.8v4.5h-1v-8h0.9l0,1.2
		c0.3-0.8,1.2-1.4,2.3-1.4C120.1,449.6,121,450.8,121,452.6z"/>
	<path fill="#E7E1D4" d="M124.9,447.7l0,2h2.2v0.9h-2.2l0,4.9c0,1,0.3,1.4,1.2,1.4c0.3,0,0.7,0,1-0.2v0.9c-0.3,0.1-0.7,0.2-1.1,0.2
		c-1.4,0-2.1-0.7-2.1-2.2l0-5h-1.6v-0.9h1.6l0-2H124.9z"/>
	<path fill="#E7E1D4" d="M135.5,453.6v0.6h-6.4c0.1,1.7,1.2,2.9,2.8,2.9c1.3,0,2.1-0.5,2.5-1.5h1c-0.5,1.6-1.7,2.4-3.5,2.4
		c-1.1,0-2-0.4-2.7-1.2c-0.7-0.8-1.1-1.8-1.1-3c0-1.2,0.3-2.2,1-3s1.6-1.2,2.7-1.2C134.1,449.6,135.5,451,135.5,453.6z M129.1,453.2
		h5.4c0-1.7-1-2.7-2.6-2.7C130.3,450.5,129.3,451.6,129.1,453.2z"/>
	<path fill="#E7E1D4" d="M141.1,450.7c-0.7,0-1.2,0.2-1.6,0.7c-0.5,0.5-0.8,1.2-0.8,2.1v4.4h-1v-8h0.9l0,1.5
		c0.3-0.8,1.2-1.5,2.4-1.5V450.7z"/>
	<path fill="#E7E1D4" d="M148.7,452.6v5.2h-1v-5.1c0-1.4-0.7-2.1-1.8-2.1c-1.2,0-2.1,1.1-2.1,2.8v4.5h-1v-8h0.9l0,1.2
		c0.3-0.8,1.2-1.4,2.3-1.4C147.7,449.6,148.7,450.8,148.7,452.6z"/>
	<path fill="#E7E1D4" d="M157.8,453.6v0.6h-6.4c0.1,1.7,1.2,2.9,2.8,2.9c1.3,0,2.1-0.5,2.5-1.5h1c-0.5,1.6-1.7,2.4-3.5,2.4
		c-1.1,0-2-0.4-2.7-1.2c-0.7-0.8-1.1-1.8-1.1-3c0-1.2,0.3-2.2,1-3c0.7-0.8,1.6-1.2,2.7-1.2C156.4,449.6,157.8,451,157.8,453.6z
		 M151.5,453.2h5.4c0-1.7-1-2.7-2.6-2.7C152.7,450.5,151.6,451.6,151.5,453.2z"/>
	<path fill="#E7E1D4" d="M161.4,447.7l0,2h2.2v0.9h-2.2l0,4.9c0,1,0.3,1.4,1.2,1.4c0.3,0,0.7,0,1-0.2v0.9c-0.3,0.1-0.7,0.2-1.1,0.2
		c-1.4,0-2.1-0.7-2.1-2.2l0-5h-1.6v-0.9h1.6l0-2H161.4z"/>
	<path fill="#E7E1D4" d="M174.7,446.6v1h-5v3.9h4.4v1h-4.4v4.3h5v1h-6v-11.2H174.7z"/>
	<path fill="#E7E1D4" d="M182.8,449.7l-2.7,3.9l2.9,4.2h-1.2l-2.4-3.3l-2.4,3.3h-1.2l2.9-4.2l-2.7-3.9h1.2l2.1,3.1l2.2-3.1H182.8z"
		/>
	<path fill="#E7E1D4" d="M191.4,450.8c0.7,0.8,1,1.8,1,3c0,1.2-0.3,2.2-1,3c-0.7,0.8-1.6,1.2-2.7,1.2c-1.4,0-2.4-0.7-2.8-1.5v4.8h-1
		v-11.5h1l0,1.4c0.5-0.8,1.5-1.6,2.9-1.6C189.9,449.6,190.8,450,191.4,450.8z M186.7,451.3c-0.5,0.5-0.8,1.3-0.8,2.2v0.3
		c0,0.9,0.3,1.7,0.8,2.3c0.5,0.6,1.2,0.8,1.9,0.8c0.8,0,1.5-0.3,2-0.9c0.5-0.6,0.8-1.4,0.8-2.3s-0.3-1.7-0.8-2.3
		c-0.5-0.6-1.2-0.9-2-0.9C187.9,450.5,187.2,450.8,186.7,451.3z"/>
	<path fill="#E7E1D4" d="M195.4,446.1v11.7h-1v-11.7H195.4z"/>
	<path fill="#E7E1D4" d="M201.3,449.6c1.2,0,2.1,0.4,2.9,1.2s1.1,1.8,1.1,3c0,1.2-0.4,2.2-1.1,3c-0.7,0.8-1.7,1.2-2.9,1.2
		s-2.1-0.4-2.9-1.2c-0.7-0.8-1.1-1.8-1.1-3c0-1.2,0.4-2.2,1.1-3C199.2,450,200.1,449.6,201.3,449.6z M199.2,451.4
		c-0.5,0.6-0.8,1.4-0.8,2.3s0.3,1.7,0.8,2.3c0.6,0.6,1.3,0.9,2.2,0.9c0.9,0,1.6-0.3,2.1-0.9c0.5-0.6,0.8-1.4,0.8-2.3
		s-0.3-1.7-0.8-2.3c-0.5-0.6-1.2-0.9-2.1-0.9C200.4,450.5,199.7,450.8,199.2,451.4z"/>
	<path fill="#E7E1D4" d="M210.7,450.7c-0.7,0-1.2,0.2-1.6,0.7c-0.5,0.5-0.8,1.2-0.8,2.1v4.4h-1v-8h0.9l0,1.5
		c0.3-0.8,1.2-1.5,2.4-1.5V450.7z"/>
	<path fill="#E7E1D4" d="M218.9,453.6v0.6h-6.4c0.1,1.7,1.2,2.9,2.8,2.9c1.3,0,2.1-0.5,2.5-1.5h1c-0.5,1.6-1.7,2.4-3.5,2.4
		c-1.1,0-2-0.4-2.7-1.2c-0.7-0.8-1.1-1.8-1.1-3c0-1.2,0.3-2.2,1-3c0.7-0.8,1.6-1.2,2.7-1.2C217.5,449.6,218.9,451,218.9,453.6z
		 M212.5,453.2h5.4c0-1.7-1-2.7-2.6-2.7C213.7,450.5,212.7,451.6,212.5,453.2z"/>
	<path fill="#E7E1D4" d="M224.5,450.7c-0.7,0-1.2,0.2-1.6,0.7c-0.5,0.5-0.8,1.2-0.8,2.1v4.4h-1v-8h0.9l0,1.5
		c0.3-0.8,1.2-1.5,2.4-1.5V450.7z"/>
	<path fill="#E7E1D4" d="M231.7,448.4h3.3v0.8h-1.9v2.4h2.3v0.8h-2.3v4.3l1.2-0.1v-3.2h0.8v4.5c0.7-0.7,1.3-1.3,1.7-2
		c0.4-0.7,0.7-1.5,0.8-2.4h-2.3v-0.8h2.4c0.1-0.8,0.1-1.9,0.2-3.3h-2.1v-0.8h2.1l0-2.1h0.9c0,0.9,0,1.6,0,2.1h2.3v4.1h1.1v0.8h-3
		c0.6,2.1,1.7,3.7,3.2,4.8l-0.7,0.7c-1.6-1.3-2.7-3-3.3-5c-0.4,1.8-1.4,3.5-3.2,5l-0.7-0.6l0.5-0.4h-0.8v-0.6l-2.7,0.3
		c-0.4,0-0.8,0.1-1.4,0.2v-4.5h0.8v3.5l1.2-0.1v-4.4h-2.6v-0.8h2.6v-2.4h-0.9c-0.3,0.6-0.6,1.3-1,2l-0.8-0.3
		c0.9-1.3,1.5-2.9,1.9-4.5l0.8,0.3C232.1,447.4,231.9,448,231.7,448.4z M240.3,452.7v-3.3h-1.5c0,1.9-0.1,3-0.1,3.3H240.3z"/>
	<path fill="#E7E1D4" d="M254.8,452.8c-0.9,1.7-2.1,3-3.8,4c-1.6,1-3.8,1.7-6.5,2.2l-0.4-1c2.6-0.4,4.6-1,6.2-1.9
		c1.6-0.9,2.8-2.2,3.6-3.8L254.8,452.8z M248.1,448.8c-0.8,2-1.8,3.8-2.9,5.5l-0.8-0.4c1.3-1.7,2.2-3.5,2.9-5.3L248.1,448.8z
		 M250.8,455h-0.9v-8.5h0.9V455z M256.6,453.3l-0.8,0.3c-1.1-2-2.1-3.7-3.1-5l0.7-0.4C254.7,449.9,255.7,451.6,256.6,453.3z"/>
	<path fill="#E7E1D4" d="M261.9,455c-0.6,1.3-1.5,2.6-2.7,3.9l-0.8-0.5c1.3-1.3,2.3-2.8,3-4.4c-0.8-1.5-1.6-2.8-2.5-4l0.7-0.4
		c0.9,1.3,1.6,2.5,2.2,3.5c0.6-1.5,0.9-3,1-4.4h-4.1V448h5.1c-0.2,2.5-0.7,4.5-1.4,6.1c0.7,1.2,1.4,2.4,1.9,3.6l-0.8,0.3
		C263.1,457.3,262.6,456.3,261.9,455z M269.3,449.2h1.7v0.8h-1.7v7.5c0,0.5-0.1,0.8-0.3,1c-0.2,0.2-0.5,0.4-0.9,0.4
		c-0.4,0-1,0.1-1.8,0.1l-0.3-0.9c0.4,0,0.7,0,1.2,0s0.7,0,0.9-0.1c0.2-0.1,0.3-0.3,0.3-0.6V450h-4.3v-0.8h4.3v-2.7h0.9V449.2z
		 M267.1,454.8l-0.8,0.4c-0.5-1-1.2-2.1-1.9-3.3l0.7-0.4C265.6,452.3,266.3,453.5,267.1,454.8z"/>
	<path fill="#E7E1D4" d="M278.6,448.3h-4.8v-0.8h10.4v0.8h-4.8v3.3h5.7v0.8h-5.7v4.7c0,0.6-0.1,1.1-0.4,1.3
		c-0.3,0.2-0.7,0.3-1.4,0.3c-0.3,0-0.8,0-1.5-0.1l-0.4-0.9c0.8,0.1,1.4,0.1,1.8,0.1s0.7-0.1,0.8-0.2c0.1-0.1,0.1-0.3,0.1-0.6v-4.7
		h-5.7v-0.8h5.7V448.3z"/>
	<path fill="#E7E1D4" d="M289.2,452.4c-0.6,0.7-1.1,1.3-1.6,1.8l-0.7-0.6c1.5-1.4,2.6-2.8,3.6-4.3l0.8,0.4c-0.5,0.7-0.9,1.2-1.2,1.7
		v7.6h-0.8V452.4z M291.3,446.8c-0.9,1.1-2,2.3-3.3,3.6l-0.8-0.6c1.3-1,2.4-2.2,3.3-3.5L291.3,446.8z M296.3,455
		c0.8-0.5,1.6-1.1,2.4-1.8l0.7,0.6c-0.8,0.7-1.7,1.3-2.6,1.9c0.8,1,1.7,1.8,2.8,2.5l-0.7,0.7c-2.1-1.3-3.6-3.3-4.7-6.1h-1.3v4.8
		l2.4-1l0.2,0.9l-2.2,0.9c-0.6,0.2-0.9,0.5-1.2,0.7l-0.6-0.8c0.3-0.2,0.5-0.4,0.5-0.7V447h6.6v5.8h-3.5
		C295.4,453.6,295.8,454.3,296.3,455z M292.9,449.5h4.9v-1.7h-4.9V449.5z M297.8,450.3h-4.9v1.7h4.9V450.3z"/>
	<path fill="#E7E1D4" d="M307.8,453.4c-1,1.1-2.5,2.1-4.5,3l-0.7-0.7c2.6-1.1,4.4-2.5,5.6-4.1l0.9,0.3l-0.5,0.6h5
		c-0.9,1.8-2.3,3.2-4.3,4.4c-2,1.1-4.5,1.9-7.6,2.2l-0.5-0.9c2.5-0.2,4.6-0.7,6.5-1.5c-0.4-0.5-0.9-1.1-1.4-1.7l0.7-0.5
		c0.6,0.7,1.1,1.3,1.6,1.8c1.6-0.8,2.7-1.8,3.3-2.9H307.8z M306.4,448.3c-1,0.9-2.2,1.8-3.7,2.6l-0.6-0.6c1.9-1,3.5-2.3,4.8-3.8
		l0.8,0.3l-0.5,0.6h5.5c-2,2.9-5.5,5-10.5,6.5l-0.6-0.8c1.8-0.4,3.5-1.1,5.1-1.8c-0.5-0.5-1.1-0.9-1.8-1.4l0.6-0.6
		c0.9,0.6,1.5,1.2,2,1.6c1.4-0.8,2.6-1.6,3.4-2.5H306.4z"/>
	<path fill="#E7E1D4" d="M317.9,454.6c-0.5,1.1-1,2.1-1.6,3.1l-0.7-0.4c0.6-1,1.1-2,1.5-3L317.9,454.6z M319.4,450.9
		c0.3-0.5,0.6-1.3,1-2.3l0.8,0.3l-0.9,2h2v0.8h-2.8v1.3h2.4v0.8h-2.4v4c0,0.4-0.1,0.7-0.3,0.8s-0.5,0.2-0.9,0.2c-0.4,0-0.7,0-1,0
		l-0.2-0.9c0.3,0.1,0.6,0.1,0.9,0.1c0.3,0,0.5,0,0.5-0.1c0.1-0.1,0.1-0.2,0.1-0.4v-3.7h-2.7V453h2.7v-1.3h-3v-0.8H319.4z
		 M318.7,447.8c-0.1-0.3-0.2-0.7-0.3-1.3l0.8-0.1l0.4,1.4h2.4v0.8H316v-0.8H318.7z M318.5,450.5l-0.8,0.3c-0.2-0.6-0.5-1.1-0.8-1.8
		l0.8-0.3C318.2,449.9,318.4,450.5,318.5,450.5z M322,456.5l-0.7,0.4c-0.5-0.8-0.9-1.5-1.3-2.1l0.7-0.4L322,456.5z M323.5,451.1h4.8
		v0.8h-1.8v7.1h-0.9v-7.1h-2.2v0.3c0,2.1-0.1,3.5-0.4,4.4s-0.7,1.7-1.4,2.5l-0.8-0.4c0.6-0.7,1-1.4,1.3-2.2s0.4-2.2,0.4-4.2v-4.5
		c1.9-0.1,3.6-0.4,5-0.8l0.4,0.9c-1.3,0.3-2.8,0.6-4.5,0.7V451.1z"/>
	<path fill="#E7E1D4" d="M332.8,449.1h1.8v0.8h-1.8v1.1l0.6-0.3c0.5,0.9,0.9,1.7,1.4,2.6l-0.9,0.4c-0.4-0.8-0.7-1.6-1.2-2.3v7.6H332
		v-6.4c-0.4,1.1-0.8,2.1-1.4,3.2l-0.8-0.5c0.9-1.6,1.6-3.4,2.1-5.4h-1.8v-0.8h1.9v-2.6h0.9V449.1z M336.9,453
		c-0.5,1.9-1.3,3.5-2.2,4.9l-0.8-0.4c1-1.5,1.7-3.1,2.1-4.7L336.9,453z M338.1,451.6h-3.3v-0.8h7.7v0.8H339v5.6
		c0,0.7-0.1,1.1-0.3,1.4c-0.2,0.3-0.6,0.4-1.2,0.4c-0.2,0-0.6,0-1.2-0.1l-0.3-1c0.8,0.1,1.3,0.2,1.5,0.2c0.2,0,0.4-0.1,0.5-0.2
		c0.1-0.1,0.2-0.4,0.2-0.7V451.6z M341.8,448.4h-6.1v-0.8h6.1V448.4z M342.6,457.7l-0.9,0.2c-0.5-1.7-1.1-3.3-1.8-4.8l0.8-0.3
		C341.4,454.3,342,455.9,342.6,457.7z"/>
	<path fill="#E7E1D4" d="M347.3,453.2c-0.7,2-1.3,3.7-1.9,5.1l-0.9-0.4c0.9-2,1.6-3.7,2-5.1L347.3,453.2z M347.2,450.1l-0.8,0.5
		c-0.5-0.9-1.1-1.9-1.8-3l0.7-0.4C346,448.1,346.6,449.1,347.2,450.1z M353.3,448.8c-0.4-0.7-0.9-1.4-1.3-2l0.7-0.4
		c0.5,0.7,0.9,1.4,1.4,2l-0.7,0.4h3.3v0.8h-3.3v2h3v0.8h-3v2h3v0.8h-3v2h3.4v0.8h-7.3v0.9h-0.8v-8c-0.3,0.5-0.6,1-0.9,1.5l-0.8-0.4
		c1.3-2,2.3-3.9,2.8-5.7l0.8,0.3c-0.3,0.8-0.6,1.5-0.9,2.2H353.3z M352.5,449.6h-3v2h3V449.6z M352.5,452.4h-3v2h3V452.4z
		 M352.5,457.2v-2h-3v2H352.5z"/>
	<path fill="#E7E1D4" d="M360.7,448.9c0.3-0.9,0.6-1.7,0.8-2.5l0.9,0.2l-0.8,2.2h2.5v9.9h-0.9v-1.1h-3.2v1.2h-0.8v-10H360.7z
		 M360.1,452.7h3.2v-3h-3.2V452.7z M363.3,453.5h-3.2v3.4h3.2V453.5z M366.2,449.4c-0.3,0.8-0.7,1.6-1.2,2.4l-0.8-0.4
		c1-1.7,1.7-3.3,2.2-5l0.8,0.3c-0.2,0.5-0.4,1.2-0.7,2h4l-0.2,8.5c0,0.5-0.1,0.8-0.2,1.1c-0.1,0.3-0.4,0.4-0.7,0.6
		c-0.3,0.1-0.9,0.2-1.6,0.2l-1.3,0l-0.3-1c0.7,0.1,1.3,0.1,1.9,0.1s0.9-0.1,1.1-0.3c0.1-0.2,0.2-0.5,0.2-1l0.1-7.3H366.2z
		 M368.5,454.7l-0.8,0.5c-0.9-1.4-1.6-2.4-2.1-3.2l0.7-0.4L368.5,454.7z"/>
	<path fill="#E7E1D4" d="M380.1,453.9h-2.3c-0.1,1.3-0.4,2.3-1,3.1c-0.6,0.8-1.6,1.4-3,2l-0.7-0.8c1.3-0.4,2.2-1,2.8-1.7
		c0.6-0.7,0.9-1.6,1-2.7h-3.6v-0.8h11.8v0.8H381v3.5c0,0.2,0,0.4,0.1,0.4c0.1,0.1,0.3,0.1,0.5,0.1h1.9c0.3,0,0.4,0,0.6-0.1
		c0.1-0.1,0.2-0.2,0.3-0.4c0.1-0.2,0.2-0.7,0.3-1.3l0.9,0.4c-0.2,1-0.4,1.7-0.6,1.9c-0.2,0.2-0.6,0.4-1.2,0.4h-2.1
		c-0.6,0-1-0.1-1.2-0.3c-0.2-0.2-0.3-0.6-0.3-1.1V453.9z M378.8,448l-0.7-1.4l0.9-0.2c0.3,0.5,0.6,1.1,0.9,1.7h5v2.8H384v-1.9h-9.5
		v2h-0.9V448H378.8z M383,451.3h-7.5v-0.8h7.5V451.3z"/>
	<path fill="#E7E1D4" d="M391.9,451.3c0.7,0.5,1.3,1,1.7,1.3l-0.6,0.6c-0.5-0.4-1.1-0.9-1.7-1.4L391.9,451.3h-0.7v2.3h-0.8V452
		c-0.6,0.6-1.5,1.1-2.5,1.7l-0.6-0.6c1-0.5,2-1.1,2.8-1.8h-2v-2.5h2.4v-0.7h-3.1v-0.8h3.1v-0.9h0.8v0.9h2.8v0.8h-2.8v0.7h2.4v1.5
		c0.9-1.2,1.5-2.4,2-3.8l0.8,0.2c-0.2,0.4-0.3,0.8-0.5,1.2h3.8v0.8H399c-0.4,1.2-0.9,2.1-1.6,2.9c0.7,0.6,1.6,1.1,2.6,1.4l-0.4,0.8
		c-1.1-0.4-2.1-1-2.8-1.6c-0.7,0.6-1.6,1.2-2.8,1.6l-0.5-0.7c1-0.4,1.9-0.9,2.7-1.5c-0.5-0.5-0.8-1.2-1.1-1.9
		c-0.2,0.3-0.4,0.7-0.8,1.1l-0.7-0.4v1H391.9z M393.1,454.7h-5.2V454h11.2v0.8H394v1.1h4.1v0.8H394v1.3h5.9v0.8h-12.5v-0.8h2.3v-2.6
		h0.8v2.6h2.6V454.7z M390.4,450.6v-1h-1.6v1H390.4z M391.2,449.6v1h1.6v-1H391.2z M398.1,448.6h-2.5l0,0.1c0.3,0.8,0.7,1.6,1.2,2.2
		C397.4,450.2,397.9,449.5,398.1,448.6z"/>
	<path fill="#E7E1D4" d="M407.4,449.3h-5.8v-0.8h5.8v-2h0.9v2h5.8v0.8h-5.8v2h4c-0.5,1.1-1.1,2-1.6,2.7c-0.6,0.7-1.2,1.4-2.1,2
		c1.5,0.9,3.3,1.5,5.5,1.9l-0.5,0.9c-2.4-0.5-4.3-1.3-5.7-2.3c-1.3,0.9-3.3,1.7-5.9,2.4l-0.5-0.9c2.4-0.6,4.2-1.3,5.6-2.1
		c-1.2-1-2.3-2.3-3.2-3.9h-1.2v-0.8h4.6V449.3z M407.9,455.6c1.5-1.1,2.5-2.2,3-3.4h-6C405.6,453.5,406.6,454.6,407.9,455.6z"/>
	<path fill="#E7E1D4" d="M417.8,450H416v-0.8h1.8v-2.7h0.9v2.7h1.7v0.8h-1.7v2.8c0.7-0.3,1.2-0.5,1.4-0.6l0.2,0.8l-1.6,0.6v4
		c0,0.6-0.1,0.9-0.3,1.1c-0.2,0.2-0.5,0.3-0.9,0.3c-0.4,0-0.8,0-1.3,0l-0.2-1c0.7,0.1,1.1,0.2,1.3,0.2c0.2,0,0.4,0,0.5-0.1
		c0.1-0.1,0.1-0.3,0.1-0.5V454c-0.6,0.2-1.1,0.4-1.7,0.6l-0.3-0.8c0.4-0.1,1-0.3,2-0.7V450z M423.9,449.1H421v-0.8h2.8v-1.8h0.8v1.8
		h2.8v0.8h-2.8v1.9h3.7v0.8h-8.2v-0.8h3.7V449.1z M426.5,453.5h1.7v0.8h-1.7v3.5c0,0.4-0.1,0.7-0.3,0.9s-0.5,0.3-1,0.3s-1,0-1.4,0
		l-0.4-1c0.6,0.1,1.1,0.1,1.5,0.1s0.6,0,0.7-0.1c0.1-0.1,0.2-0.2,0.2-0.4v-3.3h-5.3v-0.8h5.3v-1.4h0.8V453.5z M423.9,456.7l-0.7,0.6
		c-0.6-0.6-1.3-1.3-2.1-2l0.6-0.6C422.4,455.3,423.1,456,423.9,456.7z"/>
	<path fill="#E7E1D4" d="M431.2,459.9l-0.4-0.1c0.3-0.5,0.5-1.1,0.6-1.8c-0.7,0-1-0.9-0.5-1.4c0.5-0.5,1.5-0.1,1.4,0.6
		C432.3,458.1,431.8,459.2,431.2,459.9z"/>
	<path fill="#E7E1D4" d="M440.7,456.5v-4.4h-1.6v-0.8h2.5v5.2c0.2,0.1,0.6,0.2,1.1,0.5c0.5,0.3,1.2,0.5,2.1,0.6
		c0.9,0.1,1.9,0.2,3,0.2c1.2,0,2.5,0,4-0.1l-0.2,0.9c-1.3,0-2.6,0.1-3.8,0.1c-1.2,0-2.3-0.1-3.2-0.2s-1.6-0.4-2.2-0.7
		c-0.6-0.3-1-0.5-1.2-0.5s-0.4,0.1-0.7,0.3c-0.2,0.2-0.5,0.6-0.7,1.1l-0.7-0.5c0.4-0.7,0.8-1.2,1-1.4
		C440.2,456.7,440.5,456.6,440.7,456.5z M442.2,449.3l-0.8,0.5c-0.5-0.7-1.1-1.5-2-2.5l0.8-0.5C440.9,447.7,441.6,448.6,442.2,449.3
		z M446.6,448.5c-0.3-0.7-0.6-1.4-0.8-1.9l0.8-0.2c0.4,0.9,0.8,1.7,1,2.2h3.8v0.8h-1.7c-0.5,1.7-1.2,3.1-2,4.1c1.2,1.1,2.2,2.1,3,3
		L450,457c-1-1-2-2-2.9-2.8c-0.9,1-2.2,1.9-3.9,2.7l-0.8-0.7c1.7-0.7,3-1.6,4-2.6l-2.8-2.7l0.7-0.5l2.7,2.5c0.7-0.9,1.3-2.1,1.7-3.5
		h-5.9v-0.8H446.6z"/>
	<path fill="#E7E1D4" d="M459.6,447.7c-1.4,1.6-3.4,3.1-5.7,4.4l-0.6-0.7c2.8-1.4,4.9-3.1,6.3-5.1l0.8,0.4l-0.2,0.3
		c1.7,2.1,3.7,3.5,5.8,4.2l-0.5,0.8C463.2,451.2,461.3,449.7,459.6,447.7z M457.5,454.4h-3.7v-0.8h11.6v0.8h-6.8
		c-0.7,1.2-1.4,2.2-2,3l5.8-0.4c-0.3-0.3-0.7-0.8-1.3-1.4l0.7-0.5c1.1,1.2,2.1,2.3,2.9,3.4l-0.7,0.5c-0.5-0.6-0.8-1-1-1.2l-5.8,0.4
		c-1,0.1-1.7,0.2-2.1,0.3l-0.4-1c0.3,0,0.6-0.1,0.7-0.2s0.4-0.4,0.9-1C456.7,455.8,457.1,455.2,457.5,454.4z M463.1,452h-7v-0.8h7
		V452z"/>
	<path fill="#E7E1D4" d="M472.1,448h-4.2v-0.8H480v0.8h-4.2v3.8h4v0.8h-10.1c0,2.7-0.4,4.9-1.2,6.4l-0.9-0.3c0.5-0.9,0.8-1.9,1-2.9
		c0.2-1,0.3-2.4,0.2-4.1h3.3V448z M471.3,451.1l-0.9,0.3c-0.4-0.9-0.9-1.7-1.5-2.5l0.8-0.3C470.1,449.1,470.6,450,471.3,451.1z
		 M474.9,448H473v3.8h1.8V448z M479.1,448.8c-0.7,1.2-1.2,2.1-1.6,2.7l-0.8-0.4c0.7-0.9,1.2-1.7,1.6-2.6L479.1,448.8z"/>
	<path fill="#E7E1D4" d="M487.8,447.8c-1.5,0.1-3,0.1-4.5,0.1l-0.1-0.8c3.2,0,6.5-0.1,9.9-0.4l0.2,0.8c-1.3,0.1-2.9,0.2-4.7,0.3v1h6
		v0.8h-6v0.9h4.6v4.2h-4.6v1h4.8v0.8h-4.8v1.1h6v0.8h-12.7v-0.8h5.9v-1.1H483v-0.8h4.8v-1h-4.6v-4.2h4.6v-0.9h-6v-0.8h6V447.8z
		 M487.8,452.3v-1h-3.8v1H487.8z M487.8,454v-1h-3.8v1H487.8z M488.6,451.3v1h3.8v-1H488.6z M488.6,453v1h3.8v-1H488.6z"/>
	<path fill="#E7E1D4" d="M498.9,456.4c-0.7,0.8-1.4,1.5-2.1,2.1l-0.6-0.5c0.8-0.6,1.5-1.3,2.1-2L498.9,456.4z M499.9,451.6l-0.4-0.8
		l0.6-0.1H497V447h6.5v3.7h-3.1c0.1,0.2,0.2,0.5,0.3,0.9h3.5v0.8h-8v-0.8H499.9z M500.8,455.7v2.2c0,0.5-0.1,0.8-0.3,0.9
		c-0.2,0.2-0.5,0.2-0.9,0.2c-0.4,0-0.8,0-1.1,0l-0.3-0.9c0.4,0,0.8,0,1,0c0.2,0,0.4,0,0.5-0.1c0.1-0.1,0.1-0.2,0.1-0.5v-2h-2.8v-2.6
		h6.1v2.6H500.8z M502.8,448.5v-0.8h-5.1v0.8H502.8z M497.7,449.2v0.8h5.1v-0.8H497.7z M502.6,455v-1.2h-4.7v1.2H502.6z
		 M503.9,457.5l-0.6,0.6c-0.4-0.4-1-0.9-1.8-1.6l0.5-0.6C502.9,456.6,503.5,457.1,503.9,457.5z M508.9,454.2c-0.6,1-1.2,1.8-1.9,2.6
		c-0.7,0.7-1.6,1.5-2.7,2.4l-0.7-0.7c2-1.4,3.5-3,4.4-4.8L508.9,454.2z M508.5,450.8c-1.2,1.6-2.5,2.9-4,3.9l-0.6-0.7
		c1.4-0.9,2.7-2.2,3.9-3.8L508.5,450.8z M508.3,447.1c-0.9,1.5-2.1,2.7-3.6,3.8l-0.6-0.7c1.3-0.9,2.5-2.1,3.4-3.6L508.3,447.1z"/>
	<path fill="#E7E1D4" d="M512,455.5v1.5h-0.9v-9.2h3v8.8h-0.9v-1.1H512z M513.3,454.6v-6H512v6H513.3z M517.7,448
		c0.3-0.6,0.6-1.1,0.7-1.7l0.9,0.2c-0.2,0.5-0.4,1-0.7,1.5h4v9.4c0,0.6-0.1,1-0.3,1.3c-0.2,0.2-0.6,0.4-1.2,0.4s-1,0-1.2,0l-0.2-0.9
		c0.3,0,0.7,0.1,1.1,0.1s0.7-0.1,0.8-0.2c0.1-0.1,0.2-0.3,0.2-0.7v-8.4H516V459h-0.9v-11H517.7z M520.7,456h-3.6v-5.4h3.6V456z
		 M519.8,455.2v-3.7h-1.9v3.7H519.8z"/>
	<path fill="#E7E1D4" d="M527.1,451.5c-0.2-0.4-0.6-1.1-1.1-2.2l0.8-0.4c0.5,0.9,0.9,1.7,1.2,2.3l-0.5,0.2h1.8
		c0.5-0.9,0.8-1.7,1.1-2.6l0.9,0.3c-0.3,0.6-0.6,1.4-1,2.3h2v0.8H525v-0.8H527.1z M528.4,448c-0.2-0.5-0.5-0.9-0.7-1.3l0.8-0.4
		c0.3,0.6,0.6,1.1,0.9,1.7h2.4v0.8h-6.4V448H528.4z M526.8,457.8v1H526v-5.2h5.4v5h-0.9v-0.8H526.8z M530.5,457v-2.5h-3.6v2.5H530.5
		z M535.7,451.6c1.1,0.8,1.7,1.8,1.7,3c0,1-0.2,1.7-0.5,2c-0.3,0.4-0.9,0.6-1.6,0.6c-0.3,0-0.6,0-1,0l-0.3-1
		c0.4,0.1,0.8,0.1,1.1,0.1c0.7,0,1.1-0.1,1.2-0.4c0.1-0.3,0.2-0.7,0.2-1.2c0-0.5-0.1-1-0.4-1.4c-0.3-0.4-0.7-0.9-1.3-1.5l1.4-4h-2.6
		v11.2h-0.8v-12h4.7L535.7,451.6z"/>
	<path fill="#E7E1D4" d="M544.3,446.8c-0.6,1.4-1.2,2.5-1.8,3.3c-0.7,0.8-1.5,1.6-2.5,2.3l-0.7-0.6c1-0.7,1.9-1.4,2.5-2.2
		c0.7-0.8,1.2-1.8,1.7-3.1L544.3,446.8z M543.4,452.4h-2.3v-0.8h8.4l-0.2,5.3c0,0.7-0.2,1.2-0.4,1.5c-0.2,0.3-0.7,0.4-1.4,0.4
		c-0.7,0-1.4,0-2-0.1l-0.3-1c0.8,0.1,1.4,0.2,1.9,0.2c0.5,0,0.9-0.1,1-0.2c0.1-0.1,0.2-0.4,0.2-0.8l0.1-4.4h-4.3
		c-0.1,1.7-0.5,3.1-1.2,4.1s-1.8,1.9-3.2,2.6l-0.6-0.8c1.4-0.6,2.4-1.4,3-2.3C543,455.2,543.3,454,543.4,452.4z M551.9,451.5
		l-0.8,0.8c-1-0.5-1.8-1.2-2.5-2c-0.7-0.8-1.3-2-1.8-3.5l0.8-0.3c0.6,1.5,1.2,2.6,1.8,3.3C550.1,450.5,550.9,451.1,551.9,451.5z"/>
	<path fill="#E7E1D4" d="M565.2,457.5c0,0.6-0.1,1.1-0.4,1.3s-1,0.3-2.3,0.2l-0.3-0.9c0.5,0,0.9,0,1.3,0s0.6-0.1,0.7-0.2
		c0.1-0.1,0.2-0.3,0.2-0.6V448h-9v11h-0.9v-11.8h10.7V457.5z M558.4,452.7l1.4,2.6l-0.8,0.4c-0.4-0.9-0.7-1.6-1-2.1
		c-0.5,1-1.2,2.1-1.9,3.2l-0.7-0.4c0.9-1.2,1.6-2.5,2.2-3.7c-0.7-1.4-1.3-2.6-1.9-3.5l0.7-0.3l1.6,2.9c0.4-1.1,0.8-2.2,1.1-3.2
		l0.8,0.3C559.4,450.3,558.9,451.6,558.4,452.7z M561.7,452c0.4-1,0.8-2.1,1.1-3.3l0.8,0.3c-0.4,1.5-0.9,2.8-1.4,4l1.8,3.4l-0.8,0.4
		c-0.7-1.5-1.2-2.5-1.4-2.8c-0.6,1.2-1.3,2.4-2.1,3.5l-0.7-0.4c0.9-1.3,1.7-2.7,2.3-4c-0.4-0.9-1-1.9-1.5-3l0.7-0.3L561.7,452z"/>
	<path fill="#E7E1D4" d="M574.6,451.5c0.1,2.2-0.3,3.9-1.3,5c-0.9,1.1-2.6,1.9-4.9,2.6l-0.6-0.8c2.1-0.5,3.7-1.2,4.6-2.1
		c0.9-0.9,1.3-2.4,1.2-4.6H574.6z M573.6,448h-5.5v-0.8h12.1v0.8h-5.7l-0.2,1.8h4.5v6h-0.9v-5.2h-7.5v5.3h-0.9v-6.1h3.9L573.6,448z
		 M580.2,458.4l-0.6,0.8c-1.3-0.9-3.1-2-5.3-3.2l0.6-0.7C577.5,456.8,579.3,457.8,580.2,458.4z"/>
	<path fill="#E7E1D4" d="M588.4,452.2c-0.6,1.4-1.8,2.7-3.6,3.7l-0.6-0.7c1.4-0.8,2.3-1.6,2.9-2.6c0.6-0.9,0.9-2.1,0.9-3.4h-4.1v9.8
		H583v-10.6h5.1c0-0.6,0-1.2,0-1.9h0.9c0,0.7,0,1.3,0,1.9h5v8.8c0,0.7-0.1,1.2-0.4,1.5c-0.3,0.2-0.7,0.4-1.5,0.4
		c-0.2,0-0.6,0-1.2-0.1l-0.3-1c0.7,0.1,1.1,0.2,1.5,0.2s0.5-0.1,0.7-0.2c0.1-0.1,0.2-0.4,0.2-0.8v-8h-4.2c0,0.7-0.1,1.4-0.2,2
		c1.6,1.5,2.9,2.8,4,4l-0.8,0.6C591,454.7,589.8,453.5,588.4,452.2z"/>
	<path fill="#E7E1D4" d="M602.9,451.4c-1.4,1.5-3.4,2.8-6,3.8l-0.5-0.8c2.9-1,5-2.5,6.4-4.4l0.8,0.5l-0.2,0.3c0.8,0.8,1.6,1.4,2.4,2
		c0.9,0.6,2,1.1,3.3,1.6l-0.6,0.8c-1.5-0.7-2.6-1.3-3.4-1.8C604.4,452.8,603.6,452.1,602.9,451.4z M602.4,447.8
		c-0.2-0.4-0.4-0.8-0.5-1.1l0.8-0.3l0.7,1.4h5.2v2.6h-0.9v-1.7h-9.8v1.7H597v-2.6H602.4z M601.6,449.6c-1,1-2.3,2-3.9,2.9l-0.6-0.7
		c1.5-0.8,2.7-1.6,3.7-2.7L601.6,449.6z M599.7,458.4v0.6h-0.9v-4.6h8v4.6H606v-0.6H599.7z M606,457.6v-2.4h-6.3v2.4H606z
		 M608.5,451.6l-0.7,0.6c-0.8-0.7-2.1-1.5-3.7-2.4l0.6-0.6C606,450,607.3,450.8,608.5,451.6z"/>
	<path fill="#E7E1D4" d="M612.9,448.9c0.3-0.9,0.6-1.7,0.8-2.5l0.9,0.2l-0.8,2.2h2.5v9.9h-0.9v-1.1h-3.2v1.2h-0.8v-10H612.9z
		 M612.3,452.7h3.2v-3h-3.2V452.7z M615.5,453.5h-3.2v3.4h3.2V453.5z M618.4,449.4c-0.3,0.8-0.7,1.6-1.2,2.4l-0.8-0.4
		c1-1.7,1.7-3.3,2.2-5l0.8,0.3c-0.2,0.5-0.4,1.2-0.7,2h4l-0.2,8.5c0,0.5-0.1,0.8-0.2,1.1c-0.1,0.3-0.4,0.4-0.7,0.6s-0.9,0.2-1.6,0.2
		l-1.3,0l-0.3-1c0.7,0.1,1.3,0.1,1.9,0.1s0.9-0.1,1.1-0.3c0.1-0.2,0.2-0.5,0.2-1l0.1-7.3H618.4z M620.7,454.7l-0.8,0.5
		c-0.9-1.4-1.6-2.4-2.1-3.2l0.7-0.4L620.7,454.7z"/>
	<path fill="#E7E1D4" d="M632.5,457.8v-5h0.9v5h4.3v0.8h-12.5v-0.8h4.2v-5h0.9v5H632.5z M628.8,456.8l-0.9,0.3
		c-0.7-1.4-1.3-2.5-1.9-3.4l0.7-0.4C627.4,454.3,628.1,455.5,628.8,456.8z M636,452.4h-9.2v-5.2h9.2V452.4z M635.1,449.4V448h-7.5
		v1.4H635.1z M627.7,450.2v1.4h7.5v-1.4H627.7z M636.8,453.7c-0.6,1.1-1.4,2.3-2.3,3.5l-0.8-0.4c0.9-1,1.6-2.2,2.3-3.4L636.8,453.7z
		"/>
	<path fill="#E7E1D4" d="M643.3,453.2c-0.9,1.7-1.9,3.3-3.1,4.8l-0.7-0.5c1.2-1.5,2.2-3,3-4.6L643.3,453.2z M645.4,451.7h-5.8v-0.8
		H652v0.8h-5.7v5.8c0,1.1-0.6,1.6-1.7,1.6c-0.5,0-1,0-1.4,0l-0.3-0.9c0.6,0,1.1,0.1,1.5,0.1c0.4,0,0.6-0.1,0.8-0.2
		c0.1-0.1,0.2-0.4,0.2-0.7V451.7z M650.7,448.2h-9.8v-0.8h9.8V448.2z M652.2,457.4l-0.8,0.5c-0.7-1.2-1.7-2.7-3.1-4.4l0.7-0.5
		C650.3,454.6,651.3,456.1,652.2,457.4z"/>
	<path fill="#E7E1D4" d="M655.1,458c-0.8,0-1.2-0.9-0.6-1.5c0.5-0.6,1.5-0.1,1.5,0.6C655.9,457.6,655.5,458,655.1,458z"/>
	<path fill="#E7E1D4" d="M664.7,451.2c-0.4,0.7-0.8,1.5-1.3,2.4l-0.8-0.5c1.5-2.3,2.5-4.5,3-6.6l0.8,0.2c-0.3,1-0.6,1.8-0.8,2.6v9.9
		h-0.9V451.2z M668.8,448.7h6.3v0.8h-4.6v2.3h4.2v0.8h-4.2v2.3h4.2v0.8h-4.2v3.3h-0.9v-9.5h-1.2c-0.4,1-0.9,2-1.6,3.1l-0.8-0.4
		c1.2-1.9,2-3.9,2.5-5.8l0.9,0.2C669.2,447.5,669,448.2,668.8,448.7z"/>
	<path fill="#E7E1D4" d="M682.2,449.7c0.1-1,0.2-2.1,0.2-3.3l0.9,0c0,1.3-0.1,2.4-0.2,3.3h5.9l-0.4,6.6c-0.1,1.2-0.3,1.9-0.7,2.2
		c-0.4,0.3-1,0.4-1.6,0.4c-0.9,0-1.6,0-2.2-0.1l-0.3-1c1,0.1,1.8,0.2,2.4,0.2c0.5,0,0.9-0.1,1.2-0.4c0.3-0.3,0.4-0.7,0.4-1.4
		l0.3-5.7h-5c-0.3,2-0.8,3.6-1.6,4.9c-0.8,1.3-2,2.5-3.6,3.5l-0.8-0.6c1.6-1.1,2.7-2.2,3.5-3.3c0.8-1.2,1.3-2.6,1.5-4.4h-4.8v-0.8
		H682.2z M681.2,448.8l-0.7,0.5c-0.7-0.7-1.4-1.4-2.2-2.2l0.6-0.5C679.7,447.4,680.5,448.1,681.2,448.8z M686.6,454.9l-0.8,0.5
		c-0.7-0.8-1.6-1.7-2.6-2.7l0.7-0.5C684.6,453,685.5,453.9,686.6,454.9z"/>
	<path fill="#E7E1D4" d="M122.9,471.2h-12.4v-0.9h12.4V471.2z"/>
	<path fill="#E7E1D4" d="M129.1,467.7c-0.9,0.9-2.1,1.9-3.6,2.9l-0.7-0.6c2-1.2,3.7-2.7,5-4.4l0.9,0.4c-0.4,0.5-0.7,0.8-0.8,0.9h6.2
		c-0.8,1.3-1.7,2.3-2.7,3.2c-1,0.9-2.2,1.7-3.6,2.4h6.5v5.7h-0.9v-0.9h-7.2v0.9h-0.9v-4.6c-0.8,0.3-1.5,0.6-2.1,0.8l-0.6-0.8
		c2.1-0.6,3.9-1.3,5.5-2.3c-0.5-0.5-1.2-1.1-2.1-1.8l0.7-0.5c0.7,0.6,1.5,1.2,2.2,1.8c1.5-0.9,2.7-2,3.6-3.2H129.1z M135.3,476.5
		v-3.2h-7.2v3.2H135.3z"/>
	<path fill="#E7E1D4" d="M144.1,475.3l-2,1.6c-0.4,0.4-0.8,0.7-1,0.9l-0.7-0.7c0.2-0.1,0.3-0.3,0.3-0.4c0-0.1,0.1-0.2,0.1-0.4v-5.2
		h-1.8v-0.8h2.6v5.8l1.8-1.5L144.1,475.3z M142.7,468.1l-0.8,0.5c-0.5-0.7-1.2-1.5-2-2.4l0.7-0.5
		C141.4,466.7,142.1,467.5,142.7,468.1z M147.3,476.2c-1,0.8-2.4,1.5-4.1,2l-0.6-0.8c1.6-0.5,3-1.1,4-1.8c-1.1-1-1.9-2.1-2.4-3.4
		h-0.7v-0.8h7.1c-0.6,1.8-1.5,3.2-2.6,4.2c1,0.7,2.3,1.3,3.8,1.8l-0.6,0.8C149.7,477.7,148.4,477,147.3,476.2z M151.5,470.7h-1.2
		c-0.5,0-0.9-0.1-1.1-0.2c-0.2-0.2-0.3-0.5-0.3-1.1v-2.3h-3c0,1.1-0.2,1.9-0.4,2.4c-0.3,0.5-0.8,1-1.6,1.6l-0.7-0.6
		c0.7-0.4,1.1-0.8,1.4-1.2c0.3-0.4,0.4-1.1,0.4-2.1c0-0.3,0-0.6,0-0.9h4.9c0,0.9,0,1.5,0,1.9c0,0.9,0,1.4,0.1,1.5
		c0,0.1,0.1,0.1,0.2,0.2c0.1,0,0.2,0.1,0.3,0.1h1.3V470.7z M147.3,475.2c0.9-0.8,1.6-1.8,2-2.9h-4.2
		C145.5,473.3,146.3,474.3,147.3,475.2z"/>
	<path fill="#E7E1D4" d="M158.8,476l-2.2,1.3c-0.3,0.2-0.6,0.5-0.9,0.8l-0.8-0.7c0.2-0.2,0.3-0.3,0.4-0.4c0.1-0.1,0.1-0.2,0.1-0.4
		v-5.4h-2v-0.8h2.9v6l2.3-1.3L158.8,476z M157,468.9l-0.9,0.4c-0.5-1.1-1.1-2.1-1.8-3.2l0.8-0.4C155.8,466.8,156.4,467.8,157,468.9z
		 M162.4,470.1h3.6v0.8h-3.6v7.2h-0.9V471H158v-0.8h3.6v-4.5h0.9V470.1z"/>
	<path fill="#E7E1D4" d="M171.5,471.5c0,1.9-0.2,3.2-0.5,4.1c-0.4,0.8-1,1.7-1.8,2.7l-0.8-0.5c0.8-0.8,1.4-1.6,1.8-2.4
		c0.4-0.8,0.6-2.1,0.6-3.9v-5.8h0.8V471.5z M169.4,474.8h-0.8v-8h0.8V474.8z M175.7,467.1h-3.6v-0.8h8v0.8h-3.6v2.1h3v5.3
		c0,0.6-0.1,0.9-0.4,1.2c-0.2,0.2-0.7,0.3-1.4,0.3c-0.2,0-0.4,0-0.7,0l-0.3-0.9c0.6,0.1,1,0.1,1.2,0.1c0.2,0,0.4-0.1,0.5-0.2
		c0.1-0.1,0.2-0.3,0.2-0.6V470h-2.1v8.2h-0.9V470h-2.1v6h-0.9v-6.8h3V467.1z"/>
	<path fill="#E7E1D4" d="M183,479.1l-0.4-0.1c0.3-0.5,0.5-1.1,0.6-1.8c-0.7,0-1-0.9-0.5-1.4c0.5-0.5,1.5-0.1,1.4,0.6
		C184,477.3,183.6,478.4,183,479.1z"/>
	<path fill="#E7E1D4" d="M194.2,467.4c-0.9,0.1-1.7,0.2-2.7,0.2l-0.2-0.9c2.1,0,3.9-0.3,5.6-0.7l0.4,0.8c-0.8,0.2-1.6,0.3-2.2,0.4
		v2.3h3.1c-0.1-1.2-0.1-2.5-0.2-3.9h0.9c0,1.4,0.1,2.8,0.2,3.9h4.6v0.8h-4.5c0.1,1.4,0.4,2.7,0.8,3.7c0.8-0.8,1.5-1.8,2.1-3l0.8,0.5
		c-0.8,1.4-1.6,2.5-2.6,3.4c0.3,0.6,0.7,1.2,1.1,1.6s0.7,0.7,1,0.7c0.2,0,0.3-0.1,0.4-0.4c0.1-0.3,0.2-0.7,0.3-1.3l0.9,0.5
		c-0.2,0.9-0.3,1.5-0.5,1.8c-0.2,0.3-0.5,0.4-0.9,0.4c-0.4,0-0.8-0.2-1.4-0.6c-0.5-0.4-1-1.1-1.5-2.1c-0.8,0.6-1.8,1.3-3.1,1.9
		l-0.6-0.7c1.4-0.6,2.5-1.3,3.4-2c-0.4-1.2-0.7-2.6-0.9-4.4H195v2.4c1.3-0.3,2.2-0.5,2.5-0.7l-0.1,0.9l-2.4,0.6v3.3
		c0,0.4-0.1,0.7-0.3,0.9c-0.2,0.2-0.6,0.3-1.1,0.3c-0.5,0-0.9,0-1.4,0l-0.2-0.9c0.7,0.1,1.2,0.1,1.4,0.1s0.4,0,0.5-0.1
		c0.1-0.1,0.1-0.2,0.1-0.4v-3l-2.8,0.7l-0.3-0.9l3.1-0.7v-2.6h-3v-0.8h3V467.4z M202.9,468.6l-0.8,0.5c-0.5-0.6-1.3-1.4-2.3-2.4
		l0.7-0.5C201.4,467.1,202.2,467.9,202.9,468.6z"/>
	<path fill="#E7E1D4" d="M209.2,470.9h-3.7v-0.8h4.3c0.3-0.5,0.6-1,0.9-1.4l0.8,0.3c-0.3,0.5-0.6,0.9-0.7,1.1h7.1v0.8h-7.6
		c-0.4,0.6-1,1.3-1.6,1.9h3v-1.5h0.9v1.5h4.1v2.9c0,0.6-0.1,1-0.3,1.3c-0.2,0.3-0.8,0.4-1.7,0.4l-1,0l-0.4-0.9
		c0.6,0,1.1,0.1,1.5,0.1s0.7-0.1,0.8-0.2c0.1-0.1,0.2-0.3,0.2-0.7v-2.1h-3.2v4.6h-0.9v-4.6h-3.2v3.7h-0.9v-3.5
		c-0.4,0.3-0.9,0.8-1.5,1.3l-0.7-0.6C206.9,473.6,208.2,472.3,209.2,470.9z M212.1,467.2c1.2-0.5,2.4-1.1,3.4-1.8l0.6,0.6
		c-0.9,0.5-1.9,1-2.9,1.5l3.9,1.4l-0.5,0.8c-1.4-0.5-2.9-1.1-4.5-1.6c-1.3,0.5-3.1,1.1-5.2,1.8l-0.4-0.8c1.8-0.5,3.3-1,4.5-1.5
		l-3.8-1.2l0.4-0.7C209.1,466.2,210.7,466.7,212.1,467.2z"/>
	<path fill="#E7E1D4" d="M225.6,473.6h-5.2v-0.8h11.4v0.8h-5.3v1.3h4.4v0.8h-4.4v1.5h5.8v0.8h-12.5v-0.8h5.8v-1.5h-4.3v-0.8h4.3
		V473.6z M222.6,467c-0.1-0.4-0.3-0.8-0.5-1.3l0.8-0.3c0.3,0.7,0.5,1.2,0.6,1.5h2.4v0.8H222v2.7l3.4-0.8l0.1,0.8l-3.2,0.8
		c-0.4,0.1-0.7,0.2-1.1,0.4l-0.4-0.8c0.3-0.1,0.4-0.2,0.4-0.4v-2.6h-1.4V467H222.6z M227.1,470.5c-0.2,0.7-0.7,1.3-1.5,2l-0.7-0.6
		c0.7-0.4,1.1-0.8,1.3-1.2c0.2-0.4,0.3-1.1,0.3-2.1v-2.2h5.3v4.4c0,0.5-0.1,0.8-0.2,1c-0.1,0.2-0.4,0.3-0.6,0.4
		c-0.3,0-0.8,0.1-1.6,0.1l-0.4-0.9c0.4,0,0.7,0.1,1.2,0.1s0.7-0.1,0.7-0.2c0.1-0.1,0.1-0.3,0.1-0.6v0H227.1z M230.9,468.8h-3.6
		c0,0.4,0,0.7,0,0.9h3.7V468.8z M227.3,468h3.6v-0.9h-3.6V468z"/>
	<path fill="#E7E1D4" d="M240.3,469.7c-0.3,1.8-0.9,3.3-1.8,4.6c-0.9,1.3-2.2,2.6-3.8,3.9l-0.7-0.7c2-1.4,3.5-3,4.5-4.8
		c0.9-1.8,1.4-4.1,1.4-6.9h0.9c0,0.7-0.1,1.3-0.1,1.7c0.9,4.7,2.9,7.9,6.1,9.8l-0.7,0.9C243,475.9,241.1,473.1,240.3,469.7z"/>
	<path fill="#E7E1D4" d="M250.1,470.8c-0.3,0.6-0.7,1.2-1.2,1.9l-0.8-0.4c1.4-2,2.4-4.2,3.1-6.6l0.8,0.2c-0.4,1.3-0.8,2.3-1.1,3.1
		v9.2h-0.9V470.8z M253.4,478.2h-0.9v-10.4h0.9V478.2z M255.2,467.9l-0.8,0.4c-0.5-0.8-1-1.6-1.6-2.2l0.7-0.4
		C254.4,466.7,254.9,467.4,255.2,467.9z M260.2,476.4c0,0.7-0.1,1.2-0.4,1.5c-0.2,0.3-0.7,0.4-1.4,0.4l-1.3,0l-0.3-1
		c0.7,0.1,1.2,0.2,1.5,0.2c0.6,0,1-0.3,1-1v-9h-3.7v-0.8h4.6V476.4z"/>
	<path fill="#E7E1D4" d="M266.7,468.4h-3.6v-0.8h4.1c0.3-0.6,0.6-1.3,0.8-2l0.9,0.2c-0.3,0.7-0.5,1.3-0.7,1.8h7v0.8h-7.4
		c-0.6,1.2-1.4,2.3-2.2,3.4v6.4h-0.8v-5.4c-0.5,0.6-1,1.1-1.5,1.5l-0.7-0.6C264.3,472.1,265.7,470.3,266.7,468.4z M270.1,472.6h-3.2
		v-0.8h3.2v-2.5h0.9v2.5h3.4v0.8h-3.4v4h4.1v0.8h-8.8v-0.8h3.9V472.6z"/>
	<path fill="#E7E1D4" d="M279.9,472.7c-0.4,1.3-1,3-1.9,5.2l-0.8-0.3c0.9-1.9,1.5-3.7,2-5.3L279.9,472.7z M279.9,471.1l-0.6,0.5
		c-0.7-0.8-1.4-1.4-2-2l0.6-0.5C278.5,469.8,279.2,470.4,279.9,471.1z M279.9,467.8l-0.6,0.5c-0.4-0.4-1.1-1-1.9-1.7l0.6-0.5
		C278.6,466.7,279.2,467.2,279.9,467.8z M283.2,473.2c0.7,1.2,1.3,2.3,1.9,3.5l-0.8,0.4c-0.7-1.3-1.2-2.3-1.6-2.9
		c-0.6,1.3-1.5,2.6-2.7,3.9l-0.8-0.5c1.2-1.3,2.2-2.7,3-4.4c-0.5-0.9-1.2-2-1.9-3.1l0.8-0.4l1.5,2.5c0.4-1,0.7-2.1,0.9-3.4l0.9,0.2
		C284,470.6,283.6,472,283.2,473.2z M282.2,467.6c-0.1-0.5-0.3-1-0.6-1.6l0.9-0.2c0.1,0.4,0.3,1,0.6,1.9h1.9v0.8h-4.9v-0.8H282.2z
		 M288.7,476.5c0,0.4,0,0.7-0.1,0.9c-0.1,0.2-0.2,0.4-0.3,0.5c-0.2,0.1-0.4,0.2-0.6,0.2c-0.2,0-0.6,0-1,0s-0.7,0-1,0l-0.2-1
		c0.6,0.1,1,0.1,1.4,0.1c0.4,0,0.6-0.1,0.7-0.2c0.1-0.1,0.2-0.4,0.2-0.8v-10.7h0.9V476.5z M286.4,475.4h-0.9v-8.1h0.9V475.4z"/>
	<path fill="#E7E1D4" d="M297.9,472.4c-0.1,1.7-0.6,3-1.5,3.8c-0.9,0.8-2.3,1.5-4.4,1.9l-0.4-0.8c1.9-0.4,3.3-0.9,4.1-1.7
		c0.8-0.7,1.2-1.9,1.3-3.4L297.9,472.4z M293.4,470.3h-0.8v-3.9h0.8V470.3z M301.6,475.5h-0.9v-3.4h-6.5v3.7h-0.9v-4.5h8.4V475.5z
		 M296.2,470.8h-0.8v-5h0.8V470.8z M299,467.3h4.7v0.8h-5c-0.3,0.7-0.8,1.4-1.4,2.2l-0.8-0.4c1-1.2,1.7-2.6,2.3-4.3l0.9,0.2
		C299.3,466.5,299.1,467,299,467.3z M303.6,475.6c-0.2,0.8-0.3,1.3-0.4,1.5s-0.3,0.4-0.6,0.6c-0.3,0.1-0.7,0.2-1.2,0.2h-2.5
		c-0.5,0-0.8-0.1-1-0.3c-0.2-0.2-0.3-0.5-0.3-1v-2.2h0.9v2c0,0.4,0.2,0.6,0.6,0.6h2.3c0.4,0,0.7-0.1,0.9-0.2
		c0.1-0.2,0.3-0.6,0.4-1.4L303.6,475.6z M303,470.3l-0.6,0.7c-1.3-0.7-2.5-1.3-3.6-1.8l0.5-0.7C300.5,469.1,301.8,469.7,303,470.3z"
		/>
	<path fill="#E7E1D4" d="M308.7,467.4c-0.9,0.1-1.7,0.2-2.7,0.2l-0.2-0.9c2.1,0,3.9-0.3,5.6-0.7l0.4,0.8c-0.8,0.2-1.6,0.3-2.2,0.4
		v2.3h3.1c-0.1-1.2-0.1-2.5-0.2-3.9h0.9c0,1.4,0.1,2.8,0.2,3.9h4.6v0.8h-4.5c0.1,1.4,0.4,2.7,0.8,3.7c0.8-0.8,1.5-1.8,2.1-3l0.8,0.5
		c-0.8,1.4-1.6,2.5-2.6,3.4c0.3,0.6,0.7,1.2,1.1,1.6s0.7,0.7,1,0.7c0.2,0,0.3-0.1,0.4-0.4c0.1-0.3,0.2-0.7,0.3-1.3l0.9,0.5
		c-0.2,0.9-0.3,1.5-0.5,1.8c-0.2,0.3-0.5,0.4-0.9,0.4c-0.4,0-0.8-0.2-1.4-0.6c-0.5-0.4-1-1.1-1.5-2.1c-0.8,0.6-1.8,1.3-3.1,1.9
		l-0.6-0.7c1.4-0.6,2.5-1.3,3.4-2c-0.4-1.2-0.7-2.6-0.9-4.4h-3.2v2.4c1.3-0.3,2.2-0.5,2.5-0.7l-0.1,0.9l-2.4,0.6v3.3
		c0,0.4-0.1,0.7-0.3,0.9c-0.2,0.2-0.6,0.3-1.1,0.3c-0.5,0-0.9,0-1.4,0l-0.2-0.9c0.7,0.1,1.2,0.1,1.4,0.1s0.4,0,0.5-0.1
		c0.1-0.1,0.1-0.2,0.1-0.4v-3l-2.8,0.7l-0.3-0.9l3.1-0.7v-2.6h-3v-0.8h3V467.4z M317.5,468.6l-0.8,0.5c-0.5-0.6-1.3-1.4-2.3-2.4
		l0.7-0.5C316,467.1,316.8,467.9,317.5,468.6z"/>
	<path fill="#E7E1D4" d="M322,468.1c0.3-0.9,0.6-1.7,0.8-2.5l0.9,0.2l-0.8,2.2h2.5v9.9h-0.9v-1.1h-3.2v1.2h-0.8v-10H322z
		 M321.4,471.9h3.2v-3h-3.2V471.9z M324.6,472.7h-3.2v3.4h3.2V472.7z M327.5,468.6c-0.3,0.8-0.7,1.6-1.2,2.4l-0.8-0.4
		c1-1.7,1.7-3.3,2.2-5l0.8,0.3c-0.2,0.5-0.4,1.2-0.7,2h4l-0.2,8.5c0,0.5-0.1,0.8-0.2,1.1c-0.1,0.3-0.4,0.4-0.7,0.6
		c-0.3,0.1-0.9,0.2-1.6,0.2l-1.3,0l-0.3-1c0.7,0.1,1.3,0.1,1.9,0.1s0.9-0.1,1.1-0.3c0.1-0.2,0.2-0.5,0.2-1l0.1-7.3H327.5z
		 M329.8,473.9l-0.8,0.5c-0.9-1.4-1.6-2.4-2.1-3.2l0.7-0.4L329.8,473.9z"/>
	<path fill="#E7E1D4" d="M345.9,476.7c0,0.6-0.1,1.1-0.4,1.3c-0.3,0.2-1,0.3-2.3,0.2l-0.3-0.9c0.5,0,0.9,0,1.3,0s0.6-0.1,0.7-0.2
		c0.1-0.1,0.2-0.3,0.2-0.6v-9.2h-9v11h-0.9v-11.8h10.7V476.7z M339.2,471.9l1.4,2.6l-0.8,0.4c-0.4-0.9-0.7-1.6-1-2.1
		c-0.5,1-1.2,2.1-1.9,3.2l-0.7-0.4c0.9-1.2,1.6-2.5,2.2-3.7c-0.7-1.4-1.3-2.6-1.9-3.5l0.7-0.3l1.6,2.9c0.4-1.1,0.8-2.2,1.1-3.2
		l0.8,0.3C340.1,469.5,339.7,470.8,339.2,471.9z M342.4,471.2c0.4-1,0.8-2.1,1.1-3.3l0.8,0.3c-0.4,1.5-0.9,2.8-1.4,4l1.8,3.4
		l-0.8,0.4c-0.7-1.5-1.2-2.5-1.4-2.8c-0.6,1.2-1.3,2.4-2.1,3.5l-0.7-0.4c0.9-1.3,1.7-2.7,2.3-4c-0.4-0.9-0.9-1.9-1.5-3l0.7-0.3
		L342.4,471.2z"/>
	<path fill="#E7E1D4" d="M351.4,475.8c0.5-2,1-4.1,1.4-6.1l0.9,0.1l-1.4,5.8c0.7-0.1,1.2-0.2,1.8-0.3l0,0.8c-1.8,0.3-3.6,0.6-5.4,1
		l-0.3-0.9C349.5,476.1,350.5,475.9,351.4,475.8z M354.4,469.1h-5.6v-0.8h5.6V469.1z M351.4,474.6l-0.9,0.2
		c-0.3-1.3-0.6-2.9-1.1-4.8l0.8-0.2C350.7,471.8,351.1,473.4,351.4,474.6z M352.5,468l-0.9,0.3c-0.3-0.8-0.6-1.6-0.9-2.5l0.8-0.3
		C351.8,466.1,352.1,467,352.5,468z M357.7,468.3h3.3v0.8h-3.3v2.6h2.7v6.4h-0.9v-1h-4.3v1.1h-0.9v-6.5h2.4v-6h0.9V468.3z
		 M359.5,476.3v-3.7h-4.3v3.7H359.5z"/>
	<path fill="#E7E1D4" d="M364.4,476.3v1.1h-0.9V467h4v10.3h-0.8v-0.9H364.4z M364.4,471.2h2.3v-3.4h-2.3V471.2z M366.7,472h-2.3v3.4
		h2.3V472z M373.6,468.4h1.8v0.8h-1.8v7.5c0,0.5-0.1,0.8-0.3,1c-0.2,0.2-0.5,0.4-0.9,0.4c-0.4,0-1,0.1-1.8,0.1l-0.3-0.9
		c0.4,0,0.7,0,1.2,0s0.7,0,0.9-0.1c0.2-0.1,0.3-0.3,0.3-0.6v-7.4h-4.8v-0.8h4.8v-2.7h0.9V468.4z M371.3,473.9l-0.8,0.4
		c-0.5-1-1.1-2.1-1.9-3.3l0.7-0.4C369.8,471.5,370.5,472.6,371.3,473.9z"/>
	<path fill="#E7E1D4" d="M382.7,469.6l-4,0.2c-0.5,0-1,0.1-1.3,0.2l-0.3-0.9c0.2,0,0.4-0.1,0.5-0.1c0.1-0.1,0.2-0.1,0.3-0.2
		c0.1-0.1,0.3-0.3,0.5-0.7c0.3-0.4,0.5-0.7,0.7-1c0.2-0.3,0.4-0.7,0.7-1.3l0.9,0.3c-0.6,0.9-1.2,1.9-2,2.9l3.4-0.1
		c-0.3-0.5-0.7-1-1-1.5l0.7-0.4c0.7,0.9,1.3,2,2,3l-0.9,0.3C382.9,470,382.8,469.8,382.7,469.6z M378.8,475.7v2.6h-0.9v-7.6h5v6.1
		c0,0.4,0,0.7-0.1,0.8s-0.2,0.3-0.4,0.4s-0.5,0.1-0.9,0.1h-1l-0.3-0.9c0.6,0.1,1.1,0.1,1.3,0.1c0.3,0,0.4,0,0.5-0.1
		c0.1-0.1,0.1-0.2,0.1-0.4v-1.2H378.8z M378.8,472.8h3.3v-1.3h-3.3V472.8z M382.1,473.6h-3.3v1.3h3.3V473.6z M385.2,474.4
		c1.4-0.4,2.5-0.9,3.6-1.6l0.6,0.6c-1.1,0.7-2.5,1.2-4.1,1.8v1.4c0,0.2,0,0.3,0.1,0.4c0.1,0.1,0.2,0.1,0.4,0.1h2.4
		c0.2,0,0.4-0.1,0.5-0.2c0.1-0.1,0.2-0.6,0.3-1.4l0.8,0.4c-0.2,1-0.4,1.6-0.6,1.8c-0.2,0.2-0.5,0.3-0.9,0.3h-2.6
		c-0.6,0-0.9-0.1-1.1-0.3c-0.2-0.2-0.3-0.5-0.3-1.1v-4.7h0.9V474.4z M385.2,468.4c1.5-0.6,2.7-1.2,3.5-1.8l0.6,0.7
		c-0.9,0.5-2.2,1.2-4.1,1.9v1c0,0.3,0,0.5,0.1,0.6s0.2,0.2,0.4,0.2h2.4c0.2,0,0.3,0,0.4-0.1c0.1-0.1,0.2-0.2,0.2-0.4
		c0.1-0.2,0.1-0.5,0.2-1l0.9,0.3c-0.1,0.6-0.2,1.1-0.5,1.4s-0.6,0.5-1.2,0.5h-2.4c-0.5,0-0.9-0.1-1.1-0.3c-0.2-0.2-0.3-0.6-0.3-1.2
		v-4.5h0.9V468.4z"/>
	<path fill="#E7E1D4" d="M394.1,471.4c-0.7,0.5-1.5,0.9-2.2,1.3l-0.5-0.7c0.9-0.4,1.6-0.8,2.2-1.3c-0.5-0.6-1-1.1-1.6-1.5l0.6-0.6
		c0.6,0.5,1.2,1,1.7,1.6c0.5-0.4,1.1-0.8,1.6-1.3l0.7,0.6c-0.6,0.5-1.2,1-1.8,1.4c0.7,1.1,1.1,2.5,1.1,4.1c0,1.2-0.2,2-0.6,2.5
		c-0.4,0.5-0.9,0.7-1.6,0.7c-0.4,0-0.8,0-1.1,0l-0.3-0.9c0.8,0,1.2,0.1,1.4,0.1c0.4,0,0.7-0.2,1-0.5c0.2-0.3,0.3-0.9,0.3-1.8
		c0-0.5,0-1-0.1-1.6c-0.7,0.8-1.6,1.6-2.8,2.4l-0.7-0.5c1.4-0.9,2.4-1.9,3.2-2.8C394.6,472.2,394.4,471.8,394.1,471.4z M400.5,467.8
		v0.9h-0.8v-0.9H396v1h-0.8v-1h-3.6V467h3.6v-1.3h0.8v1.3h3.7v-1.3h0.8v1.3h3.6v0.8H400.5z M399.1,472h-3.3v-0.8h3.4
		c0-0.6,0.1-1.3,0-2.2h0.9c0,0.9,0,1.7,0,2.2h4v0.8h-4c0,0.1,0,0.2,0,0.3c0.8,2.4,2.2,4.1,4.2,5.1l-0.6,0.8
		c-1.8-1.1-3.1-2.6-3.9-4.4c-0.3,0.9-0.7,1.7-1.2,2.4c-0.5,0.7-1.3,1.4-2.3,2.1l-0.7-0.7c1.2-0.7,2-1.6,2.6-2.4
		C398.6,474.3,399,473.2,399.1,472z M403.1,470.6l-0.7,0.5c-0.6-0.7-1.2-1.3-1.8-1.9l0.7-0.5C402,469.4,402.6,470,403.1,470.6z"/>
	<path fill="#E7E1D4" d="M407.8,471.7c-0.4,0.5-0.9,1-1.4,1.6l-0.7-0.6c1.4-1.4,2.5-2.7,3.3-4l0.7,0.4c-0.3,0.5-0.7,1-1.1,1.6v7.6
		h-0.8V471.7z M409.9,466.1c-1,1.2-2,2.3-3.2,3.4l-0.6-0.6c1.3-1.1,2.3-2.2,3.1-3.3L409.9,466.1z M416,472.2h-6.1v-0.8h8.3v0.8h-1.3
		v1.1h1.6v0.8h-1.6v2.6c0,0.6-0.1,1-0.4,1.2c-0.2,0.2-0.6,0.3-1,0.3c-0.4,0-0.9,0-1.4,0l-0.3-0.9c0.4,0,0.9,0,1.6,0
		c0.3,0,0.5-0.1,0.6-0.2c0.1-0.1,0.1-0.3,0.1-0.6v-2.4h-6.4v-0.8h6.4V472.2z M417.7,470.5h-7.3v-4.4h7.3V470.5z M413.6,476.4
		L413,477c-0.7-0.8-1.3-1.5-2.1-2.2l0.6-0.6C412.1,474.8,412.8,475.5,413.6,476.4z M416.8,467.9v-1h-5.6v1H416.8z M411.2,468.7v1
		h5.6v-1H411.2z"/>
	<path fill="#E7E1D4" d="M426.1,467h-5.7v-0.8h12.3v0.8h-5.8v1.2h4.8v5.4h-4.8c-0.1,1-0.4,1.8-1,2.4c1.9,0.8,4.2,1.2,7,1.2l-0.4,0.9
		c-3-0.1-5.5-0.6-7.4-1.5c-0.9,0.7-2.4,1.2-4.3,1.6l-0.6-0.8c1.8-0.3,3.2-0.7,4-1.3c-0.6-0.3-1.5-0.9-2.7-1.6l0.7-0.6
		c0.9,0.6,1.8,1.1,2.8,1.6c0.5-0.5,0.9-1.2,1-2h-4.7v-5.4h4.8V467z M426.1,470.6v-1.5h-3.9v1.5H426.1z M426.1,471.4h-3.9v1.4h3.9
		C426.1,472.7,426.1,472.2,426.1,471.4z M426.9,471.4c0,0.5,0,1,0,1.4h3.9v-1.4H426.9z M426.9,470.6h3.9v-1.5h-3.9V470.6z"/>
	<path fill="#E7E1D4" d="M436.8,468.3v-2.6h0.9c0,0.9,0,1.8,0,2.6h3l-0.1,7.1c0,0.9-0.2,1.5-0.5,1.9c-0.3,0.4-0.9,0.6-1.8,0.6
		c-0.2,0-0.6,0-1.2,0l-0.3-1c0.5,0.1,1.1,0.2,1.6,0.2s0.9-0.1,1-0.4c0.2-0.3,0.2-0.7,0.2-1.3l0-6.2h-2c0,2-0.3,3.7-0.7,5.1
		c-0.4,1.4-1,2.7-1.8,3.9l-0.8-0.4c1.6-2,2.4-4.9,2.4-8.6h-2.2v-0.8H436.8z M442.7,476.6v1.4h-0.9V467h4.6v10.9h-0.9v-1.3H442.7z
		 M445.6,475.8v-8h-2.9v8H445.6z"/>
	<path fill="#E7E1D4" d="M456,473.1h-2.3c-0.1,1.3-0.4,2.3-1,3.1c-0.6,0.8-1.6,1.4-3,2l-0.7-0.8c1.3-0.4,2.2-1,2.8-1.7
		c0.6-0.7,0.9-1.6,1-2.7h-3.6v-0.8H461v0.8h-4.1v3.5c0,0.2,0,0.4,0.1,0.4s0.3,0.1,0.5,0.1h1.9c0.3,0,0.4,0,0.6-0.1
		c0.1-0.1,0.2-0.2,0.3-0.4c0.1-0.2,0.2-0.7,0.3-1.3l0.9,0.4c-0.2,1-0.4,1.7-0.6,1.9c-0.2,0.2-0.6,0.4-1.2,0.4h-2.1
		c-0.6,0-1-0.1-1.2-0.3s-0.3-0.6-0.3-1.1V473.1z M454.7,467.2l-0.7-1.4l0.9-0.2c0.3,0.5,0.6,1.1,0.9,1.7h5v2.8h-0.9V468h-9.5v2h-0.9
		v-2.8H454.7z M458.9,470.5h-7.5v-0.8h7.5V470.5z"/>
	<path fill="#E7E1D4" d="M467.8,470.5c0.7,0.5,1.3,1,1.7,1.3l-0.6,0.6c-0.5-0.4-1.1-0.9-1.7-1.4L467.8,470.5h-0.7v2.3h-0.8v-1.6
		c-0.6,0.6-1.5,1.1-2.5,1.7l-0.6-0.6c1-0.5,2-1.1,2.8-1.8h-2V468h2.4v-0.7h-3.1v-0.8h3.1v-0.9h0.8v0.9h2.8v0.8h-2.8v0.7h2.4v1.5
		c0.9-1.2,1.5-2.4,2-3.8l0.8,0.2c-0.2,0.4-0.3,0.8-0.5,1.2h3.8v0.8h-0.8c-0.4,1.2-0.9,2.1-1.6,2.9c0.7,0.6,1.6,1.1,2.6,1.4l-0.4,0.8
		c-1.1-0.4-2.1-1-2.8-1.6c-0.7,0.6-1.6,1.2-2.8,1.6l-0.5-0.7c1-0.4,1.9-0.9,2.7-1.5c-0.5-0.5-0.8-1.2-1.1-1.9
		c-0.2,0.3-0.4,0.7-0.8,1.1l-0.7-0.4v1H467.8z M469,473.9h-5.2v-0.8H475v0.8h-5.2v1.1h4.1v0.8h-4.1v1.3h5.9v0.8h-12.5v-0.8h2.3v-2.6
		h0.8v2.6h2.6V473.9z M466.3,469.8v-1h-1.6v1H466.3z M467.1,468.8v1h1.6v-1H467.1z M474,467.8h-2.5l0,0.1c0.3,0.8,0.7,1.6,1.2,2.2
		C473.3,469.4,473.7,468.7,474,467.8z"/>
	<path fill="#E7E1D4" d="M479.6,468.1c0.3-0.9,0.6-1.7,0.8-2.5l0.9,0.2l-0.8,2.2h2.5v9.9h-0.9v-1.1h-3.2v1.2h-0.8v-10H479.6z
		 M478.9,471.9h3.2v-3h-3.2V471.9z M482.1,472.7h-3.2v3.4h3.2V472.7z M485.1,468.6c-0.3,0.8-0.7,1.6-1.2,2.4l-0.8-0.4
		c1-1.7,1.7-3.3,2.2-5l0.8,0.3c-0.2,0.5-0.4,1.2-0.7,2h4l-0.2,8.5c0,0.5-0.1,0.8-0.2,1.1c-0.1,0.3-0.4,0.4-0.7,0.6s-0.9,0.2-1.6,0.2
		l-1.3,0l-0.3-1c0.7,0.1,1.3,0.1,1.9,0.1s0.9-0.1,1.1-0.3c0.1-0.2,0.2-0.5,0.2-1l0.1-7.3H485.1z M487.3,473.9l-0.8,0.5
		c-0.9-1.4-1.6-2.4-2.1-3.2l0.7-0.4L487.3,473.9z"/>
	<path fill="#E7E1D4" d="M493.6,470.4c-0.4,0.6-0.7,1.2-1,1.6l-0.8-0.4c0.6-0.8,1.2-1.7,1.7-2.8c0.5-1.1,0.9-2.2,1.2-3.2l0.8,0.2
		c-0.3,1-0.7,2-1.1,2.9v9.4h-0.8V470.4z M498.3,469.1h-3.1v-0.8h3.9v-2.6h0.9v2.6h4.2v0.8h-3.4c0.4,1.2,0.9,2.4,1.5,3.4
		c0.7,1,1.4,1.8,2.3,2.3l-0.8,0.6c-1.7-1.6-3-3.6-3.8-6.1v5.4h2.8v0.8h-2.8v2.5h-0.9v-2.5h-2.8v-0.8h2.8v-5.4c-0.8,2.2-2,4.2-3.7,6
		l-0.8-0.5C496.3,473.3,497.5,471.4,498.3,469.1z"/>
	<path fill="#E7E1D4" d="M509.6,474.1l0,0.8l-3.3,0.7l-0.2-0.8C507.2,474.6,508.4,474.4,509.6,474.1z M509,471.8l0.5-4.6h-3.4v-0.8
		h4.3l-0.6,5.4h1l-0.4,4.8c0,0.6-0.2,1-0.4,1.2s-0.7,0.3-1.3,0.3c-0.3,0-0.7,0-1.5-0.1l-0.2-0.9c0.9,0.1,1.5,0.2,1.7,0.2
		s0.5-0.1,0.6-0.2c0.1-0.1,0.2-0.4,0.2-0.8l0.3-3.7h-3.5l0.4-4.5l0.8,0l-0.4,3.7H509z M514.4,467.5c-0.9,1.5-2.1,2.7-3.4,3.7
		l-0.8-0.5c1.9-1.3,3.3-3,4.2-5.1l0.9,0.4c-0.1,0.2-0.3,0.5-0.4,0.8c1,1.5,2.2,2.7,3.9,3.5l-0.6,0.7
		C516.6,470.1,515.4,468.9,514.4,467.5z M515.6,476.9c0.7-1.8,1.3-3.5,1.6-5l0.9,0.2c-0.4,1.6-0.9,3.2-1.6,4.8h2.1v0.8h-7.9v-0.8
		H515.6z M513.2,476l-0.8,0.1c-0.2-1.1-0.5-2.4-1-3.9l0.8-0.2C512.6,473.4,512.9,474.7,513.2,476z M517,471.3h-4.9v-0.8h4.9V471.3z
		 M515.4,475.8l-0.9,0.1c-0.2-1.3-0.4-2.5-0.8-3.8l0.8-0.1C514.9,473.1,515.1,474.4,515.4,475.8z"/>
	<path fill="#E7E1D4" d="M521.7,477.2c-0.8,0-1.2-0.9-0.6-1.5c0.5-0.6,1.5-0.1,1.5,0.6C522.5,476.8,522.2,477.2,521.7,477.2z"/>
	<path fill="#E7E1D4" d="M534,475.6l-1.5,1.3c-0.4,0.3-0.7,0.6-0.9,1l-0.7-0.7c0.3-0.2,0.5-0.5,0.5-0.8v-4.9h-1.8v-0.8h2.7v5.5
		l1.3-1.1L534,475.6z M533,468.6l-0.8,0.4c-0.5-0.8-1.1-1.7-1.8-2.7l0.7-0.4C531.8,466.7,532.4,467.7,533,468.6z M537.3,467.6h-3.4
		v-0.8h3.4v-1.2h0.8v1.2h3.4v0.8h-3.4v0.9h2.9v0.8h-2.9v0.9h3.8v0.8h-8.5v-0.8h3.8v-0.9h-2.9v-0.8h2.9V467.6z M535.2,476v2.2h-0.8
		v-6.4h6.9v5c0,0.5-0.1,0.8-0.2,1c-0.1,0.2-0.3,0.3-0.6,0.3s-0.5,0.1-0.9,0.1s-0.6,0-0.9,0l-0.3-0.9c0.8,0.1,1.3,0.1,1.5,0.1
		s0.3,0,0.4-0.1c0.1-0.1,0.1-0.2,0.1-0.5V476H535.2z M535.2,473.5h5.2v-0.9h-5.2V473.5z M540.3,474.3h-5.2v0.9h5.2V474.3z"/>
	<path fill="#E7E1D4" d="M545.8,475.9v-4.6H544v-0.8h2.7v5.6c0.2,0.1,0.5,0.2,0.7,0.3c0.5,0.3,1.2,0.5,1.9,0.6
		c0.8,0.1,1.7,0.2,2.9,0.2s2.6,0,4.4-0.1l-0.2,0.9c-1.8,0.1-3.3,0.1-4.5,0.1c-1.2,0-2.1-0.1-2.9-0.2s-1.4-0.3-1.9-0.6
		c-0.5-0.3-0.9-0.4-1.1-0.4s-0.4,0.1-0.6,0.2s-0.5,0.5-0.9,1l-0.7-0.5C544.6,476.4,545.2,475.9,545.8,475.9z M547,468.7L546,469
		c-0.5-1.2-1-2.2-1.4-2.9l0.9-0.3C545.9,466.4,546.4,467.4,547,468.7z M549.5,468.7c-0.2,0.5-0.5,1.1-0.9,1.8l-0.9-0.2
		c0.8-1.2,1.5-2.7,1.9-4.2l0.8,0.2c-0.2,0.7-0.4,1.3-0.6,1.7h1.7v-2.2h0.9v2.2h3.1v0.8h-3.1v2.2h3.7v0.8h-2.8v3
		c0,0.3,0.1,0.4,0.2,0.5c0.1,0.1,0.3,0.2,0.6,0.2h0.5c0.3,0,0.5,0,0.7-0.1c0.2-0.1,0.3-0.6,0.4-1.6l0.9,0.4l-0.2,0.9
		c0,0.3-0.1,0.5-0.2,0.7c-0.1,0.2-0.2,0.3-0.3,0.4c-0.1,0.1-0.3,0.2-0.5,0.2c-0.2,0-0.4,0.1-0.7,0.1h-0.8c-0.9,0-1.4-0.5-1.4-1.4
		v-3.1h-1.8c0,1-0.2,1.9-0.6,2.5c-0.3,0.7-0.9,1.3-1.8,2l-0.8-0.6c0.8-0.5,1.3-1.1,1.7-1.7c0.4-0.6,0.6-1.4,0.6-2.3h-2.4v-0.8h4.2
		v-2.2H549.5z"/>
	<path fill="#E7E1D4" d="M560.4,473.9c-0.1,0.9-0.2,1.6-0.4,2.2c-0.2,0.6-0.6,1.3-1,2.1l-0.9-0.3c0.6-0.8,1-1.7,1.2-2.6
		c0.2-0.9,0.3-2.3,0.3-4.3v-4.5h10.1v10.3c0,0.5-0.1,0.9-0.4,1.1c-0.3,0.2-0.8,0.4-1.6,0.4c-0.3,0-0.7,0-1.3,0l-0.3-0.9
		c0.5,0,1,0.1,1.5,0.1s0.8,0,0.9-0.1c0.2-0.1,0.2-0.3,0.2-0.5v-2.8H565v4.2h-0.9v-4.2H560.4z M564.1,470.5h-3.6c0,1,0,1.8,0,2.5h3.6
		V470.5z M560.5,469.7h3.6v-2.4h-3.6V469.7z M565,469.7h3.8v-2.4H565V469.7z M568.8,470.5H565v2.5h3.8V470.5z"/>
	<path fill="#E7E1D4" d="M578.4,467h-5.7v-0.8H585v0.8h-5.8v1.2h4.8v5.4h-4.8c-0.1,1-0.4,1.8-1,2.4c1.9,0.8,4.2,1.2,7,1.2l-0.4,0.9
		c-3-0.1-5.5-0.6-7.4-1.5c-0.9,0.7-2.4,1.2-4.3,1.6l-0.6-0.8c1.8-0.3,3.2-0.7,4-1.3c-0.6-0.3-1.5-0.9-2.7-1.6l0.7-0.6
		c0.9,0.6,1.8,1.1,2.8,1.6c0.5-0.5,0.9-1.2,1-2h-4.7v-5.4h4.8V467z M578.4,470.6v-1.5h-3.9v1.5H578.4z M578.4,471.4h-3.9v1.4h3.9
		C578.4,472.7,578.4,472.2,578.4,471.4z M579.2,471.4c0,0.5,0,1,0,1.4h3.9v-1.4H579.2z M579.2,470.6h3.9v-1.5h-3.9V470.6z"/>
	<path fill="#E7E1D4" d="M589.1,468.3v-2.6h0.9c0,0.9,0,1.8,0,2.6h3l-0.1,7.1c0,0.9-0.2,1.5-0.5,1.9c-0.3,0.4-0.9,0.6-1.8,0.6
		c-0.2,0-0.6,0-1.2,0l-0.3-1c0.5,0.1,1.1,0.2,1.6,0.2s0.9-0.1,1-0.4c0.2-0.3,0.2-0.7,0.2-1.3l0-6.2h-2c0,2-0.3,3.7-0.7,5.1
		c-0.4,1.4-1,2.7-1.8,3.9l-0.8-0.4c1.6-2,2.4-4.9,2.4-8.6h-2.2v-0.8H589.1z M595.1,476.6v1.4h-0.9V467h4.6v10.9h-0.9v-1.3H595.1z
		 M597.9,475.8v-8h-2.9v8H597.9z"/>
	<path fill="#E7E1D4" d="M603.1,467.5h-1.9v-0.8h4.6v0.8H604v3.2h1.7v0.8H604v3.5l2-0.4l-0.1,0.8c-1.7,0.4-3.3,0.7-4.7,1.1l-0.1-0.9
		c0.7-0.1,1.4-0.2,2-0.4v-3.6h-1.8v-0.8h1.8V467.5z M609.5,473.3c-0.2,0.9-0.7,1.8-1.3,2.6c-0.6,0.8-1.6,1.6-2.8,2.4l-0.7-0.6
		c1.4-0.9,2.5-1.8,3.1-2.7c0.6-0.9,1-1.9,1.1-3.1c0.1-1.2,0.2-2.5,0.2-3.7h0.8c0,0.6,0,1.3-0.1,2.3c0,0.9-0.1,1.7-0.2,2.3h0.7v3.8
		c0,0.2,0,0.4,0.1,0.5c0.1,0.1,0.2,0.1,0.5,0.1h1.3c0.3,0,0.4,0,0.5-0.1c0.1-0.1,0.1-0.2,0.2-0.4c0-0.2,0.1-0.6,0.1-1.2l0.8,0.4
		c-0.1,0.8-0.2,1.3-0.3,1.5c-0.1,0.2-0.2,0.4-0.4,0.5c-0.2,0.1-0.5,0.2-0.9,0.2h-1.5c-0.4,0-0.8-0.1-0.9-0.3
		c-0.2-0.2-0.3-0.5-0.3-0.9V473.3z M612.8,474h-0.8v-6.9h-4.7v7h-0.9v-7.9h6.4V474z"/>
	<path fill="#E7E1D4" d="M617.7,470.1c-0.5,0.9-1,1.7-1.6,2.4l-0.7-0.6c1.4-1.8,2.5-3.9,3.2-6.3l0.9,0.2c-0.3,0.9-0.6,1.7-0.9,2.4
		v9.9h-0.9V470.1z M622.2,470.8l-3.1,0.4l-0.1-0.9l3.1-0.4c-0.1-1.3-0.2-2.7-0.2-4.2l1,0c0,0.3,0,0.7,0,1c0,1.1,0.1,2.2,0.2,3.2
		l4.9-0.6l0.1,0.8l-4.9,0.6c0.3,1.5,0.6,2.7,1,3.6c0.4,0.9,0.8,1.6,1.3,2.1c0.5,0.5,0.9,0.7,1.2,0.7c0.1,0,0.2,0,0.3-0.1
		c0.1-0.1,0.2-0.3,0.2-0.6s0.1-0.7,0.2-1.2l0.9,0.4c-0.1,1-0.3,1.7-0.5,2.1s-0.6,0.6-1,0.6c-0.5,0-1-0.3-1.7-0.8s-1.2-1.4-1.7-2.4
		C622.9,473.8,622.5,472.4,622.2,470.8z M627.4,468.2l-0.7,0.6c-0.7-0.7-1.5-1.5-2.3-2.2l0.6-0.6
		C625.7,466.6,626.5,467.4,627.4,468.2z"/>
	<path fill="#E7E1D4" d="M631.9,468.1c0.3-0.9,0.6-1.7,0.8-2.5l0.9,0.2l-0.8,2.2h2.5v9.9h-0.9v-1.1h-3.2v1.2h-0.8v-10H631.9z
		 M631.3,471.9h3.2v-3h-3.2V471.9z M634.5,472.7h-3.2v3.4h3.2V472.7z M637.4,468.6c-0.3,0.8-0.7,1.6-1.2,2.4l-0.8-0.4
		c1-1.7,1.7-3.3,2.2-5l0.8,0.3c-0.2,0.5-0.4,1.2-0.7,2h4l-0.2,8.5c0,0.5-0.1,0.8-0.2,1.1c-0.1,0.3-0.4,0.4-0.7,0.6s-0.9,0.2-1.6,0.2
		l-1.3,0l-0.3-1c0.7,0.1,1.3,0.1,1.9,0.1s0.9-0.1,1.1-0.3c0.1-0.2,0.2-0.5,0.2-1l0.1-7.3H637.4z M639.7,473.9l-0.8,0.5
		c-0.9-1.4-1.6-2.4-2.1-3.2l0.7-0.4L639.7,473.9z"/>
	<path fill="#E7E1D4" d="M647,472.7c-0.4,1.3-1,3-1.9,5.2l-0.8-0.3c0.9-1.9,1.5-3.7,2-5.3L647,472.7z M647.1,471.1l-0.6,0.5
		c-0.7-0.8-1.4-1.4-2-2l0.6-0.5C645.7,469.8,646.4,470.4,647.1,471.1z M647,467.8l-0.6,0.5c-0.4-0.4-1.1-1-1.9-1.7l0.6-0.5
		C645.7,466.7,646.4,467.2,647,467.8z M650.3,473.2c0.7,1.2,1.3,2.3,1.9,3.5l-0.8,0.4c-0.7-1.3-1.2-2.3-1.6-2.9
		c-0.6,1.3-1.5,2.6-2.7,3.9l-0.8-0.5c1.2-1.3,2.2-2.7,3-4.4c-0.5-0.9-1.2-2-1.9-3.1l0.8-0.4l1.5,2.5c0.4-1,0.7-2.1,0.9-3.4l0.9,0.2
		C651.2,470.6,650.8,472,650.3,473.2z M649.3,467.6c-0.1-0.5-0.3-1-0.6-1.6l0.9-0.2c0.1,0.4,0.3,1,0.6,1.9h1.9v0.8h-4.9v-0.8H649.3z
		 M655.8,476.5c0,0.4,0,0.7-0.1,0.9c-0.1,0.2-0.2,0.4-0.3,0.5c-0.2,0.1-0.4,0.2-0.6,0.2c-0.2,0-0.6,0-1,0c-0.4,0-0.7,0-1,0l-0.2-1
		c0.6,0.1,1,0.1,1.4,0.1c0.4,0,0.6-0.1,0.7-0.2c0.1-0.1,0.2-0.4,0.2-0.8v-10.7h0.9V476.5z M653.5,475.4h-0.9v-8.1h0.9V475.4z"/>
	<path fill="#E7E1D4" d="M665.1,472.4c-0.1,1.7-0.6,3-1.5,3.8c-0.9,0.8-2.3,1.5-4.4,1.9l-0.4-0.8c1.9-0.4,3.3-0.9,4.1-1.7
		c0.8-0.7,1.2-1.9,1.3-3.4L665.1,472.4z M660.5,470.3h-0.8v-3.9h0.8V470.3z M668.8,475.5h-0.9v-3.4h-6.5v3.7h-0.9v-4.5h8.4V475.5z
		 M663.3,470.8h-0.8v-5h0.8V470.8z M666.1,467.3h4.7v0.8h-5c-0.3,0.7-0.8,1.4-1.4,2.2l-0.8-0.4c1-1.2,1.7-2.6,2.3-4.3l0.9,0.2
		C666.5,466.5,666.3,467,666.1,467.3z M670.7,475.6c-0.2,0.8-0.3,1.3-0.4,1.5c-0.1,0.2-0.3,0.4-0.6,0.6c-0.3,0.1-0.7,0.2-1.2,0.2
		H666c-0.5,0-0.8-0.1-1-0.3c-0.2-0.2-0.3-0.5-0.3-1v-2.2h0.9v2c0,0.4,0.2,0.6,0.6,0.6h2.3c0.4,0,0.7-0.1,0.9-0.2
		c0.1-0.2,0.3-0.6,0.4-1.4L670.7,475.6z M670.1,470.3l-0.6,0.7c-1.3-0.7-2.5-1.3-3.6-1.8l0.5-0.7
		C667.7,469.1,668.9,469.7,670.1,470.3z"/>
	<path fill="#E7E1D4" d="M682.4,470.8c-0.5-0.3-0.9-0.5-1.3-0.7l0.4-0.5h-1.8v-3.2h4.4v3.2h-2.2l1.5,0.8l-0.4,0.4h2.3v0.8h-5.2
		c1.4,0.8,3.1,1.3,5.2,1.5l-0.4,0.8c-2.5-0.3-4.6-1-6.1-2.3h-0.2c-0.9,1.1-2.8,1.9-5.7,2.2l-0.3-0.8c2.2-0.2,3.8-0.7,4.8-1.4h-4.6
		v-0.8h5.4c0.3-0.3,0.4-0.8,0.6-1.3l0.9,0.3c-0.1,0.4-0.3,0.8-0.4,1H682.4z M674.8,477.4v0.7h-0.9V474h4.4v4.1h-0.9v-0.7H674.8z
		 M678.2,469.7H674v-3.3h4.2V469.7z M677.5,476.6v-1.8h-2.7v1.8H677.5z M677.3,468.9v-1.7h-2.5v1.7H677.3z M680.6,477.5v0.7h-0.8
		V474h4.4v4.1h-0.8v-0.7H680.6z M683.2,476.7v-1.8h-2.7v1.8H683.2z M683.3,468.8v-1.6h-2.7v1.6H683.3z"/>
	<path fill="#E7E1D4" d="M688.3,477.2c-0.8,0-1.2-0.9-0.6-1.5c0.5-0.6,1.5-0.1,1.5,0.6C689.2,476.8,688.8,477.2,688.3,477.2z
		 M687.5,469.6c0-0.5,0.4-0.9,0.9-0.9c0.5,0,0.8,0.4,0.8,0.9s-0.4,0.8-0.8,0.8C687.9,470.5,687.5,470.1,687.5,469.6z"/>
	<path fill="#E7E1D4" d="M121.2,488.1H120c-0.5-1.5-1.8-2.4-3.7-2.4c-1.3,0-2.3,0.5-3.2,1.4c-0.8,0.9-1.2,2-1.2,3.4s0.4,2.5,1.2,3.5
		c0.8,0.9,1.9,1.4,3.2,1.4c2.4,0,3.9-1.2,3.9-3.8h-3.7v-1h4.8v0.6c0,1.6-0.4,2.9-1.3,3.8c-0.9,0.9-2.1,1.4-3.7,1.4
		c-1.6,0-2.9-0.5-4-1.6c-1-1.1-1.6-2.5-1.6-4.2c0-1.7,0.5-3,1.6-4.1c1-1.1,2.4-1.7,4-1.7C118.8,484.8,120.6,486,121.2,488.1z"/>
	<path fill="#E7E1D4" d="M126.7,488c1.2,0,2.1,0.4,2.9,1.2c0.7,0.8,1.1,1.8,1.1,3s-0.4,2.2-1.1,3c-0.7,0.8-1.7,1.2-2.9,1.2
		s-2.1-0.4-2.9-1.2c-0.7-0.8-1.1-1.8-1.1-3s0.4-2.2,1.1-3C124.6,488.4,125.5,488,126.7,488z M124.5,489.8c-0.5,0.6-0.8,1.4-0.8,2.3
		s0.3,1.7,0.8,2.3c0.6,0.6,1.3,0.9,2.2,0.9c0.9,0,1.6-0.3,2.1-0.9c0.5-0.6,0.8-1.4,0.8-2.3s-0.3-1.7-0.8-2.3
		c-0.5-0.6-1.2-0.9-2.1-0.9C125.8,488.9,125.1,489.2,124.5,489.8z"/>
	<path fill="#E7E1D4" d="M136.1,488c1.2,0,2.1,0.4,2.9,1.2c0.7,0.8,1.1,1.8,1.1,3s-0.4,2.2-1.1,3c-0.7,0.8-1.7,1.2-2.9,1.2
		s-2.1-0.4-2.9-1.2c-0.7-0.8-1.1-1.8-1.1-3s0.4-2.2,1.1-3C133.9,488.4,134.9,488,136.1,488z M133.9,489.8c-0.5,0.6-0.8,1.4-0.8,2.3
		s0.3,1.7,0.8,2.3c0.6,0.6,1.3,0.9,2.2,0.9c0.9,0,1.6-0.3,2.1-0.9c0.5-0.6,0.8-1.4,0.8-2.3s-0.3-1.7-0.8-2.3
		c-0.5-0.6-1.2-0.9-2.1-0.9C135.2,488.9,134.5,489.2,133.9,489.8z"/>
	<path fill="#E7E1D4" d="M148.6,488.1v0.9h-1.6c0.4,0.5,0.6,1.1,0.6,1.8c0,0.8-0.3,1.5-0.8,2s-1.3,0.8-2.2,0.8
		c-0.7,0-1.4-0.2-1.9-0.5c-0.3,0.3-0.5,0.6-0.5,1c0,0.6,0.5,0.9,1.2,0.9h2.2c1.7,0,2.5,0.8,2.5,2.2c0,1.6-1.2,2.6-3.2,2.6
		c-2.2,0-3.4-0.9-3.4-2.4c0-0.8,0.3-1.3,0.9-1.6c-0.6-0.3-1.1-0.8-1.1-1.6c0-0.7,0.3-1.2,0.8-1.6c-0.4-0.5-0.5-1-0.5-1.7
		c0-1.7,1.2-2.9,3-2.9c0.4,0,0.8,0.1,1.1,0.2H148.6z M143.9,496c-0.8,0-1.3,0.5-1.3,1.4c0,1,0.8,1.6,2.4,1.6c1.5,0,2.2-0.6,2.2-1.7
		c0-0.8-0.6-1.3-1.6-1.3H143.9z M144.6,492.8c1.2,0,2-0.8,2-1.9c0-1.2-0.8-2-2-2s-2,0.8-2,2C142.6,492,143.4,492.8,144.6,492.8z"/>
	<path fill="#E7E1D4" d="M150.8,484.5v11.7h-1v-11.7H150.8z"/>
	<path fill="#E7E1D4" d="M160.2,492v0.6h-6.4c0.1,1.7,1.2,2.9,2.8,2.9c1.3,0,2.1-0.5,2.5-1.5h1c-0.5,1.6-1.7,2.4-3.5,2.4
		c-1.1,0-2-0.4-2.7-1.2c-0.7-0.8-1.1-1.8-1.1-3c0-1.2,0.3-2.2,1-3c0.7-0.8,1.6-1.2,2.7-1.2C158.7,488,160.2,489.4,160.2,492z
		 M153.8,491.6h5.4c0-1.7-1-2.7-2.6-2.7C155,488.9,153.9,490,153.8,491.6z"/>
	<path fill="#E7E1D4" d="M175.4,488.1h-1.2c-0.5-1.5-1.8-2.4-3.7-2.4c-1.3,0-2.3,0.5-3.2,1.4c-0.8,0.9-1.2,2-1.2,3.4
		s0.4,2.5,1.2,3.5c0.8,0.9,1.9,1.4,3.2,1.4c1.9,0,3.2-0.9,3.7-2.4h1.2c-0.7,2.2-2.4,3.4-4.9,3.4c-1.6,0-2.9-0.5-4-1.6
		c-1-1.1-1.6-2.5-1.6-4.2c0-1.7,0.5-3,1.6-4.1c1-1.1,2.4-1.7,4-1.7C173,484.8,174.8,486,175.4,488.1z"/>
	<path fill="#E7E1D4" d="M178.2,484.5v4.8c0.3-0.7,1.2-1.3,2.3-1.3c1.7,0,2.6,1.2,2.6,3v5.2h-1v-5.1c0-1.4-0.7-2.1-1.8-2.1
		c-1.2,0-2.1,1.1-2.1,2.8v4.5h-1v-11.7H178.2z"/>
	<path fill="#E7E1D4" d="M189.1,489.1c-0.7,0-1.2,0.2-1.6,0.7c-0.5,0.5-0.8,1.2-0.8,2.1v4.4h-1v-8h0.9l0,1.5
		c0.3-0.8,1.2-1.5,2.4-1.5V489.1z"/>
	<path fill="#E7E1D4" d="M193.9,488c1.2,0,2.1,0.4,2.9,1.2c0.7,0.8,1.1,1.8,1.1,3s-0.4,2.2-1.1,3c-0.7,0.8-1.7,1.2-2.9,1.2
		s-2.1-0.4-2.9-1.2c-0.7-0.8-1.1-1.8-1.1-3s0.4-2.2,1.1-3C191.7,488.4,192.7,488,193.9,488z M191.7,489.8c-0.5,0.6-0.8,1.4-0.8,2.3
		s0.3,1.7,0.8,2.3c0.6,0.6,1.3,0.9,2.2,0.9c0.9,0,1.6-0.3,2.1-0.9c0.5-0.6,0.8-1.4,0.8-2.3s-0.3-1.7-0.8-2.3
		c-0.5-0.6-1.2-0.9-2.1-0.9C193,488.9,192.3,489.2,191.7,489.8z"/>
	<path fill="#E7E1D4" d="M210.4,491v5.2h-1v-5.1c0-1.4-0.7-2.1-1.8-2.1c-1.2,0-2.1,1-2.1,2.6v4.6h-1v-5.1c0-1.4-0.7-2.1-1.8-2.1
		c-1.2,0-2.1,1.1-2.1,2.8v4.5h-1v-8h0.9l0,1.2c0.3-0.8,1.2-1.4,2.3-1.4c1.2,0,2,0.5,2.4,1.6c0.4-0.9,1.3-1.6,2.5-1.6
		C209.5,488,210.4,489.2,210.4,491z"/>
	<path fill="#E7E1D4" d="M219.6,492v0.6h-6.4c0.1,1.7,1.2,2.9,2.8,2.9c1.3,0,2.1-0.5,2.5-1.5h1c-0.5,1.6-1.7,2.4-3.5,2.4
		c-1.1,0-2-0.4-2.7-1.2c-0.7-0.8-1.1-1.8-1.1-3c0-1.2,0.3-2.2,1-3c0.7-0.8,1.6-1.2,2.7-1.2C218.1,488,219.6,489.4,219.6,492z
		 M213.2,491.6h5.4c0-1.7-1-2.7-2.6-2.7C214.4,488.9,213.3,490,213.2,491.6z"/>
	<path fill="#E7E1D4" d="M221.2,498.3l-0.4-0.1c0.3-0.5,0.5-1.1,0.6-1.8c-0.7,0-1-0.9-0.5-1.4c0.5-0.5,1.5-0.1,1.4,0.6
		C222.3,496.5,221.9,497.6,221.2,498.3z"/>
	<path fill="#E7E1D4" d="M238.9,485v11.2h-1.1v-9l-0.3,0.8l-3.9,8.2h-0.8l-3.9-8.2l-0.3-0.8v9h-1.1V485h1.1l4.2,8.8l0.3,0.8l0.4-0.8
		l4.2-8.8H238.9z"/>
	<path fill="#E7E1D4" d="M244.8,488c1.2,0,2.1,0.4,2.9,1.2c0.7,0.8,1.1,1.8,1.1,3s-0.4,2.2-1.1,3c-0.7,0.8-1.7,1.2-2.9,1.2
		s-2.1-0.4-2.9-1.2c-0.7-0.8-1.1-1.8-1.1-3s0.4-2.2,1.1-3C242.7,488.4,243.6,488,244.8,488z M242.7,489.8c-0.5,0.6-0.8,1.4-0.8,2.3
		s0.3,1.7,0.8,2.3c0.6,0.6,1.3,0.9,2.2,0.9c0.9,0,1.6-0.3,2.1-0.9c0.5-0.6,0.8-1.4,0.8-2.3s-0.3-1.7-0.8-2.3
		c-0.5-0.6-1.2-0.9-2.1-0.9C243.9,488.9,243.2,489.2,242.7,489.8z"/>
	<path fill="#E7E1D4" d="M255.9,488.1v0.8l-4.6,6.3h4.9v0.9h-6.3v-0.8l4.6-6.3H250v-0.9H255.9z"/>
	<path fill="#E7E1D4" d="M259.2,485.6c0,0.4-0.4,0.8-0.8,0.8c-0.4,0-0.8-0.3-0.8-0.8c0-0.4,0.3-0.8,0.8-0.8
		C258.9,484.8,259.2,485.2,259.2,485.6z M258.9,488.1v8h-1v-8H258.9z"/>
	<path fill="#E7E1D4" d="M262.6,484.5v11.7h-1v-11.7H262.6z"/>
	<path fill="#E7E1D4" d="M266.3,484.5v11.7h-1v-11.7H266.3z"/>
	<path fill="#E7E1D4" d="M274.2,490.8v5.4h-1l0-1.2c-0.4,0.8-1.4,1.3-2.5,1.3c-1.4,0-2.3-0.9-2.3-2.1c0-1.2,0.7-2,2.2-2.3l2.6-0.5
		v-0.5c0-1.3-0.6-1.9-1.7-1.9c-1.1,0-1.8,0.6-1.8,1.7h-1c0-0.8,0.3-1.4,0.8-1.9c0.5-0.5,1.2-0.8,2-0.8
		C273.2,488,274.2,489,274.2,490.8z M273.2,492.3l-2.4,0.5c-0.9,0.2-1.3,0.6-1.3,1.4c0,0.8,0.5,1.2,1.4,1.2c0.8,0,1.4-0.3,1.9-0.9
		c0.4-0.5,0.5-1,0.5-1.6V492.3z"/>
	<path fill="#E7E1D4" d="M285.9,485v1h-4.8v4.1h4.1v1h-4.1v5.1H280V485H285.9z"/>
	<path fill="#E7E1D4" d="M288.8,485.6c0,0.4-0.4,0.8-0.8,0.8c-0.4,0-0.8-0.3-0.8-0.8c0-0.4,0.3-0.8,0.8-0.8
		C288.5,484.8,288.8,485.2,288.8,485.6z M288.5,488.1v8h-1v-8H288.5z"/>
	<path fill="#E7E1D4" d="M294.7,489.1c-0.7,0-1.2,0.2-1.6,0.7c-0.5,0.5-0.8,1.2-0.8,2.1v4.4h-1v-8h0.9l0,1.5
		c0.3-0.8,1.2-1.5,2.4-1.5V489.1z"/>
	<path fill="#E7E1D4" d="M302.9,492v0.6h-6.4c0.1,1.7,1.2,2.9,2.8,2.9c1.3,0,2.1-0.5,2.5-1.5h1c-0.5,1.6-1.7,2.4-3.5,2.4
		c-1.1,0-2-0.4-2.7-1.2c-0.7-0.8-1.1-1.8-1.1-3c0-1.2,0.3-2.2,1-3c0.7-0.8,1.6-1.2,2.7-1.2C301.4,488,302.9,489.4,302.9,492z
		 M296.5,491.6h5.4c0-1.7-1-2.7-2.6-2.7C297.7,488.9,296.6,490,296.5,491.6z"/>
	<path fill="#E7E1D4" d="M308.7,484.6v0.9c-0.3-0.1-0.7-0.2-1-0.2c-0.8,0-1.2,0.5-1.2,1.4v1.4h2.1v0.9h-2.1v7.1h-1v-7.1h-1.6v-0.9
		h1.6v-1.4c0-1.5,0.8-2.3,2.1-2.3C308,484.4,308.4,484.4,308.7,484.6z"/>
	<path fill="#E7E1D4" d="M313.4,488c1.2,0,2.1,0.4,2.9,1.2c0.7,0.8,1.1,1.8,1.1,3s-0.4,2.2-1.1,3c-0.7,0.8-1.7,1.2-2.9,1.2
		s-2.1-0.4-2.9-1.2c-0.7-0.8-1.1-1.8-1.1-3s0.4-2.2,1.1-3C311.2,488.4,312.2,488,313.4,488z M311.2,489.8c-0.5,0.6-0.8,1.4-0.8,2.3
		s0.3,1.7,0.8,2.3c0.6,0.6,1.3,0.9,2.2,0.9c0.9,0,1.6-0.3,2.1-0.9c0.5-0.6,0.8-1.4,0.8-2.3s-0.3-1.7-0.8-2.3
		c-0.5-0.6-1.2-0.9-2.1-0.9C312.5,488.9,311.8,489.2,311.2,489.8z"/>
	<path fill="#E7E1D4" d="M325,488.1l-2.7,3.9l2.9,4.2H324l-2.4-3.3l-2.4,3.3H318l2.9-4.2l-2.7-3.9h1.2l2.1,3.1l2.2-3.1H325z"/>
	<path fill="#E7E1D4" d="M337.8,488h-7.3v-0.8h7.2l0-2.4h0.9c0,0.6,0,1.4,0,2.4h4.2v0.8h-4.1c0.1,1.7,0.4,3.3,0.8,4.8
		c0.6-0.9,1.1-2.1,1.6-3.7l0.9,0.3c-0.6,1.9-1.3,3.4-2.1,4.5c0.4,1,0.7,1.6,1,2s0.6,0.5,0.8,0.5c0.1,0,0.2-0.1,0.3-0.4
		c0.1-0.3,0.2-0.8,0.3-1.5l0.9,0.3c-0.2,1.1-0.4,1.8-0.6,2.1c-0.2,0.3-0.5,0.5-0.8,0.5s-0.7-0.2-1.3-0.7c-0.5-0.4-1-1.1-1.4-2
		c-0.7,0.8-1.9,1.8-3.4,2.8l-0.7-0.7c1.5-0.8,2.8-1.8,3.8-3.1C338.3,492.2,337.9,490.3,337.8,488z M337.1,493.9l-0.1,0.9
		c-2.2,0.3-4.4,0.6-6.4,0.9l-0.1-0.9C332.5,494.6,334.7,494.3,337.1,493.9z M336.8,493h-5.2v-3.7h5.2V493z M335.9,492.2v-2h-3.5v2
		H335.9z M342.3,486.5l-0.7,0.6c-0.6-0.5-1.3-1-2.2-1.5l0.6-0.6C340.6,485.3,341.3,485.8,342.3,486.5z"/>
	<path fill="#E7E1D4" d="M355,485l4.6,11.2h-1.2l-1.3-3.2h-5.2l-1.3,3.2h-1.2L354,485H355z M354.5,486.4l-0.2,0.6l-2,4.9h4.4l-2-4.9
		L354.5,486.4z"/>
	<path fill="#E7E1D4" d="M367.9,489.2c0.7,0.8,1,1.8,1,3s-0.3,2.2-1,3c-0.7,0.8-1.6,1.2-2.7,1.2c-1.4,0-2.4-0.7-2.8-1.5v4.8h-1
		v-11.5h1l0,1.4c0.5-0.8,1.5-1.6,2.9-1.6C366.3,488,367.2,488.4,367.9,489.2z M363.1,489.7c-0.5,0.5-0.8,1.3-0.8,2.2v0.3
		c0,0.9,0.3,1.7,0.8,2.3c0.5,0.6,1.2,0.8,1.9,0.8c0.8,0,1.5-0.3,2-0.9c0.5-0.6,0.8-1.4,0.8-2.3s-0.3-1.7-0.8-2.3
		c-0.5-0.6-1.2-0.9-2-0.9C364.3,488.9,363.6,489.2,363.1,489.7z"/>
	<path fill="#E7E1D4" d="M377.5,489.2c0.7,0.8,1,1.8,1,3s-0.3,2.2-1,3c-0.7,0.8-1.6,1.2-2.7,1.2c-1.4,0-2.4-0.7-2.8-1.5v4.8h-1
		v-11.5h1l0,1.4c0.5-0.8,1.5-1.6,2.9-1.6C375.9,488,376.8,488.4,377.5,489.2z M372.7,489.7c-0.5,0.5-0.8,1.3-0.8,2.2v0.3
		c0,0.9,0.3,1.7,0.8,2.3c0.5,0.6,1.2,0.8,1.9,0.8c0.8,0,1.5-0.3,2-0.9c0.5-0.6,0.8-1.4,0.8-2.3s-0.3-1.7-0.8-2.3
		c-0.5-0.6-1.2-0.9-2-0.9C373.9,488.9,373.2,489.2,372.7,489.7z"/>
	<path fill="#E7E1D4" d="M381.4,484.5v11.7h-1v-11.7H381.4z"/>
	<path fill="#E7E1D4" d="M390.8,492v0.6h-6.4c0.1,1.7,1.2,2.9,2.8,2.9c1.3,0,2.1-0.5,2.5-1.5h1c-0.5,1.6-1.7,2.4-3.5,2.4
		c-1.1,0-2-0.4-2.7-1.2c-0.7-0.8-1.1-1.8-1.1-3c0-1.2,0.3-2.2,1-3c0.7-0.8,1.6-1.2,2.7-1.2C389.3,488,390.8,489.4,390.8,492z
		 M384.4,491.6h5.4c0-1.7-1-2.7-2.6-2.7C385.6,488.9,384.5,490,384.4,491.6z"/>
	<path fill="#E7E1D4" d="M402.2,487.8h-1.1c0-1.3-0.8-2.1-2.1-2.1c-1.2,0-2,0.8-2,2c0,0.6,0.2,1,0.5,1.3c0.3,0.3,1,0.6,1.9,1
		c1.2,0.4,2,0.9,2.4,1.4c0.5,0.4,0.7,1.1,0.7,1.9c0,1-0.3,1.8-0.9,2.3c-0.6,0.6-1.4,0.8-2.4,0.8c-2.2,0-3.6-1.3-3.6-3.4h1.1
		c0,1.6,0.9,2.5,2.5,2.5c1.5,0,2.3-0.9,2.3-2.2c0-1-0.7-1.6-2.6-2.3c-1-0.4-1.8-0.8-2.3-1.3s-0.7-1.1-0.7-1.9c0-0.8,0.3-1.6,0.8-2.1
		c0.5-0.6,1.3-0.9,2.3-0.9C401,484.8,402.2,485.9,402.2,487.8z"/>
	<path fill="#E7E1D4" d="M409.8,490.8v5.4h-1l0-1.2c-0.4,0.8-1.4,1.3-2.5,1.3c-1.4,0-2.3-0.9-2.3-2.1c0-1.2,0.7-2,2.2-2.3l2.6-0.5
		v-0.5c0-1.3-0.6-1.9-1.7-1.9c-1.1,0-1.8,0.6-1.8,1.7h-1c0-0.8,0.3-1.4,0.8-1.9c0.5-0.5,1.2-0.8,2-0.8
		C408.8,488,409.8,489,409.8,490.8z M408.8,492.3l-2.4,0.5c-0.9,0.2-1.3,0.6-1.3,1.4c0,0.8,0.5,1.2,1.4,1.2c0.8,0,1.4-0.3,1.9-0.9
		c0.4-0.5,0.5-1,0.5-1.6V492.3z"/>
	<path fill="#E7E1D4" d="M415.9,484.6v0.9c-0.3-0.1-0.7-0.2-1-0.2c-0.8,0-1.2,0.5-1.2,1.4v1.4h2.1v0.9h-2.1v7.1h-1v-7.1h-1.6v-0.9
		h1.6v-1.4c0-1.5,0.8-2.3,2.1-2.3C415.3,484.4,415.7,484.4,415.9,484.6z"/>
	<path fill="#E7E1D4" d="M422.6,490.8v5.4h-1l0-1.2c-0.4,0.8-1.4,1.3-2.5,1.3c-1.4,0-2.3-0.9-2.3-2.1c0-1.2,0.7-2,2.2-2.3l2.6-0.5
		v-0.5c0-1.3-0.6-1.9-1.7-1.9c-1.1,0-1.8,0.6-1.8,1.7h-1c0-0.8,0.3-1.4,0.8-1.9c0.5-0.5,1.2-0.8,2-0.8
		C421.6,488,422.6,489,422.6,490.8z M421.6,492.3l-2.4,0.5c-0.9,0.2-1.3,0.6-1.3,1.4c0,0.8,0.5,1.2,1.4,1.2c0.8,0,1.4-0.3,1.9-0.9
		c0.4-0.5,0.5-1,0.5-1.6V492.3z"/>
	<path fill="#E7E1D4" d="M428.6,489.1c-0.7,0-1.2,0.2-1.6,0.7c-0.5,0.5-0.8,1.2-0.8,2.1v4.4h-1v-8h0.9l0,1.5
		c0.3-0.8,1.2-1.5,2.4-1.5V489.1z"/>
	<path fill="#E7E1D4" d="M431.6,485.6c0,0.4-0.4,0.8-0.8,0.8c-0.4,0-0.8-0.3-0.8-0.8c0-0.4,0.3-0.8,0.8-0.8
		C431.2,484.8,431.6,485.2,431.6,485.6z M431.3,488.1v8h-1v-8H431.3z"/>
	<path fill="#E7E1D4" d="M434.1,496.4c-0.8,0-1.2-0.9-0.6-1.5c0.5-0.6,1.5-0.1,1.5,0.6C435,496,434.6,496.4,434.1,496.4z"/>
	<path fill="#E7E1D4" d="M447.6,487.6v-2.7h0.9v2.7h4.9v9.8h-0.9v-1h-9v1h-0.9v-9.8H447.6z M447.6,491.5v-3.1h-4.1v3.1H447.6z
		 M447.6,495.6v-3.2h-4.1v3.2H447.6z M448.5,488.4v3.1h4v-3.1H448.5z M448.5,492.4v3.2h4v-3.2H448.5z"/>
	<path fill="#E7E1D4" d="M461,488.8h1.8v0.8H461v5.4l2-0.4v0.9c-3.3,0.6-5.5,1.1-6.7,1.3l-0.4-1c0.7-0.1,1.1-0.2,1.5-0.2v-8.1h0.9
		v7.9l1.8-0.3V485h0.9V488.8z M464.3,490.5c1.4-0.9,2.6-2,3.5-3l0.6,0.6c-1.1,1.2-2.5,2.4-4.2,3.4v4c0,0.2,0.1,0.4,0.2,0.5
		s0.4,0.2,0.8,0.2h1c0.4,0,0.7-0.1,0.9-0.3c0.2-0.2,0.3-0.7,0.5-1.6l0.9,0.5c-0.2,0.7-0.3,1.2-0.4,1.4s-0.3,0.5-0.6,0.6
		c-0.3,0.1-0.7,0.2-1.3,0.2h-1c-0.8,0-1.3-0.1-1.5-0.3c-0.3-0.2-0.4-0.6-0.4-1.3v-10.6h0.9V490.5z"/>
	<path fill="#E7E1D4" d="M472.2,495.1v-4.7h-1.9v-0.8h2.7v5.6c0.2,0.1,0.5,0.3,0.8,0.5c0.3,0.2,0.8,0.4,1.4,0.5
		c0.6,0.1,1.6,0.1,3,0.1c1.4,0,3,0,4.8,0l-0.4,0.9c-0.9,0-2,0-3.2,0c-1.2,0-2.2,0-3.1-0.1c-0.9-0.1-1.5-0.1-2-0.2
		c-0.4-0.1-0.8-0.3-1.1-0.5c-0.3-0.2-0.6-0.4-0.7-0.4c-0.2,0-0.4,0.1-0.6,0.2c-0.2,0.1-0.5,0.5-1,1.1l-0.7-0.5
		C471,495.8,471.7,495.3,472.2,495.1z M473.7,487.8l-0.7,0.4c-0.6-0.9-1.2-1.7-1.9-2.7l0.7-0.5C472.3,485.9,473,486.8,473.7,487.8z
		 M475.8,487.6c-0.3,0.6-0.6,1.1-0.9,1.6l-0.8-0.4c0.8-1.3,1.4-2.5,1.8-3.8l0.8,0.3c-0.2,0.6-0.4,1.1-0.6,1.5h2v-1.9h0.9v1.9h2.9
		v0.8h-2.9v1.8h3.7v0.8h-8.9v-0.8h4.3v-1.8H475.8z M481.7,495.2H475v-3.8h6.7V495.2z M480.8,494.3v-2.1h-4.9v2.1H480.8z"/>
	<path fill="#E7E1D4" d="M495.3,487.1c-0.5-0.6-1-1.2-1.5-1.7l0.7-0.5c0.6,0.6,1.2,1.2,1.6,1.8l-0.6,0.3h1.6v0.8h-4.5
		c0.1,1.8,0.3,3.4,0.8,4.8c0.7-1,1.2-2.3,1.6-3.7l0.9,0.2c-0.7,2-1.4,3.6-2.1,4.5c0.3,0.6,0.6,1.2,1,1.8c0.4,0.5,0.7,0.8,0.9,0.8
		c0.1,0,0.2-0.1,0.3-0.3c0.1-0.2,0.2-0.6,0.3-1.4l0.9,0.3c-0.2,1-0.4,1.6-0.5,2c-0.2,0.3-0.4,0.5-0.7,0.5c-0.4,0-0.8-0.3-1.3-0.8
		c-0.5-0.6-1-1.3-1.4-2.1c-0.8,0.9-1.9,1.9-3.4,2.8l-0.7-0.7c1.6-0.9,2.8-2,3.7-3.1c-0.6-1.5-0.9-3.4-1-5.6h-4.7v1.8h3.3l-0.1,4.2
		c0,0.6-0.1,1-0.3,1.2c-0.2,0.2-0.6,0.4-1.1,0.4c-0.5,0-1,0-1.5-0.1l-0.3-1c0.6,0.1,1.1,0.2,1.6,0.2c0.3,0,0.5-0.1,0.6-0.2
		s0.1-0.4,0.2-0.7l0-3.2h-2.5c0,1.7-0.1,3-0.4,4c-0.2,1-0.7,1.9-1.2,2.8l-0.9-0.3c0.6-0.9,1-1.8,1.3-2.8c0.2-0.9,0.4-2.3,0.4-4v-3.2
		h5.6c0-1,0-1.8,0-2.2h0.9c0,0.5,0,1.2,0,2.2H495.3z"/>
	<path fill="#E7E1D4" d="M501.1,487.3c0.3-0.9,0.6-1.7,0.8-2.5l0.9,0.2l-0.8,2.2h2.5v9.9h-0.9v-1.1h-3.2v1.2h-0.8v-10H501.1z
		 M500.4,491.1h3.2v-3h-3.2V491.1z M503.6,491.9h-3.2v3.4h3.2V491.9z M506.6,487.8c-0.3,0.8-0.7,1.6-1.2,2.4l-0.8-0.4
		c1-1.7,1.7-3.3,2.2-5l0.8,0.3c-0.2,0.5-0.4,1.2-0.7,2h4l-0.2,8.5c0,0.5-0.1,0.8-0.2,1.1c-0.1,0.3-0.4,0.4-0.7,0.6s-0.9,0.2-1.6,0.2
		l-1.3,0l-0.3-1c0.7,0.1,1.3,0.1,1.9,0.1s0.9-0.1,1.1-0.3c0.1-0.2,0.2-0.5,0.2-1l0.1-7.3H506.6z M508.8,493.1l-0.8,0.5
		c-0.9-1.4-1.6-2.4-2.1-3.2l0.7-0.4L508.8,493.1z"/>
	<path fill="#E7E1D4" d="M519.8,486.5h-6.1v-0.8h11.8v0.8h-4.6c-0.5,0.9-1,1.7-1.4,2.2h0.4v8.6H519v-7.9c-1.2,1.7-3,3.3-5.1,4.8
		l-0.8-0.6C516.2,491.6,518.4,489.2,519.8,486.5z M525.5,493.7l-0.7,0.6c-1-1.1-2.4-2.6-4.3-4.4l0.7-0.5
		C522.7,490.8,524.2,492.3,525.5,493.7z"/>
	<path fill="#E7E1D4" d="M529.3,490.1c-0.3,0.6-0.7,1.2-1,1.7l-0.9-0.4c1.4-1.9,2.4-4.1,3.1-6.6l0.9,0.3c-0.4,1.3-0.8,2.4-1.2,3.3
		v9.1h-0.9V490.1z M535.4,486.4h-3.7v-0.8h8.5v0.8h-3.9v1.3h3.4v4.9h-3.4c-0.1,1.1-0.3,1.9-0.7,2.5c1.2,0.7,2.7,1.2,4.6,1.3
		l-0.4,0.8c-2-0.2-3.6-0.7-4.8-1.5c-0.6,0.6-1.8,1.1-3.5,1.7l-0.6-0.8c1.6-0.4,2.7-0.9,3.3-1.4c-0.7-0.5-1.4-1.2-2-1.9l0.6-0.5
		c0.7,0.7,1.4,1.3,2,1.7c0.4-0.5,0.5-1.2,0.6-2H532v-4.9h3.4V486.4z M535.4,489.7v-1.2h-2.5v1.2H535.4z M535.4,490.6h-2.5v1.2h2.5
		L535.4,490.6z M536.3,490.6l0,1.2h2.6v-1.2H536.3z M536.3,489.7h2.5v-1.2h-2.5V489.7z"/>
	<path fill="#E7E1D4" d="M542.9,498.3l-0.4-0.1c0.3-0.5,0.5-1.1,0.6-1.8c-0.7,0-1-0.9-0.5-1.4c0.5-0.5,1.5-0.1,1.4,0.6
		C544,496.5,543.5,497.6,542.9,498.3z"/>
	<path fill="#E7E1D4" d="M559.2,487.2h4v0.8h-1c-0.3,2.5-0.8,4.4-1.6,5.8c0.7,1.2,1.7,2.2,2.8,2.8l-0.7,0.7c-1-0.6-1.9-1.5-2.6-2.6
		c-0.7,1-1.7,1.9-2.9,2.7l-0.7-0.6c1.3-0.9,2.4-1.8,3.1-2.9c-0.6-1.2-1-2.5-1.3-4c-0.2,0.4-0.4,0.9-0.7,1.3l-0.7-0.3l-0.1,3
		c-0.1,1-0.1,1.7-0.1,2c0,0.3-0.1,0.6-0.2,0.8s-0.3,0.4-0.5,0.5c-0.2,0.1-0.5,0.2-0.9,0.2c-0.4,0-0.9,0-1.6,0l-0.2-0.9
		c0.7,0.1,1.3,0.1,1.6,0.1c0.3,0,0.5,0,0.7-0.1c0.1-0.1,0.2-0.2,0.2-0.3c0-0.1,0.1-0.6,0.1-1.4l0.2-4.8h-3.6c-0.1,0.1-0.2,0.5-0.5,1
		h3v4.7h-0.8v-0.7h-1.6v0.9h-0.8v-4.4c-0.1,0.2-0.3,0.5-0.5,0.8l-0.8-0.4c0.8-1.1,1.4-2.3,1.8-3.7l0.8,0.2c-0.1,0.3-0.2,0.6-0.3,0.8
		h4.2c0,0.8,0,1.3-0.1,1.7c0.9-1.6,1.5-3.5,1.9-5.8l0.8,0.1C559.6,485.8,559.4,486.5,559.2,487.2z M553.4,486.9v1h-0.9v-1h-1.7v-0.8
		h1.7v-1.2h0.9v1.2h1.7v-1.2h0.9v1.2h1.7v0.8h-1.7v1.2h-0.9v-1.2H553.4z M554.2,493.9v-2.4h-1.6v2.4H554.2z M561.4,488H559
		c0,0,0,0.1,0,0.1c0,0.1,0,0.1,0,0.1c0.3,1.8,0.7,3.3,1.2,4.6C560.7,491.6,561.2,490,561.4,488z"/>
	<path fill="#E7E1D4" d="M569.5,494.8L568,496c-0.4,0.3-0.7,0.6-0.9,1l-0.7-0.7c0.3-0.2,0.5-0.5,0.5-0.8v-4.9H565v-0.8h2.7v5.5
		l1.3-1.1L569.5,494.8z M568.5,487.8l-0.8,0.4c-0.5-0.8-1.1-1.7-1.8-2.7l0.7-0.4C567.2,485.9,567.9,486.9,568.5,487.8z M572.8,486.8
		h-3.4V486h3.4v-1.2h0.8v1.2h3.4v0.8h-3.4v0.9h2.9v0.8h-2.9v0.9h3.8v0.8H569v-0.8h3.8v-0.9h-2.9v-0.8h2.9V486.8z M570.6,495.2v2.2
		h-0.8V491h6.9v5c0,0.5-0.1,0.8-0.2,1c-0.1,0.2-0.3,0.3-0.6,0.3s-0.5,0.1-0.9,0.1s-0.6,0-0.9,0l-0.3-0.9c0.8,0.1,1.3,0.1,1.5,0.1
		s0.3,0,0.4-0.1c0.1-0.1,0.1-0.2,0.1-0.5v-0.9H570.6z M570.6,492.7h5.2v-0.9h-5.2V492.7z M575.8,493.5h-5.2v0.9h5.2V493.5z"/>
	<path fill="#E7E1D4" d="M582.3,495.5c-0.1,0.1-0.2,0.2-0.3,0.3c-0.1,0.1-0.1,0.2-0.2,0.2c-0.1,0.1-0.1,0.1-0.2,0.2
		c-0.1,0.1-0.1,0.2-0.2,0.3l-0.8-0.6c0.1-0.1,0.2-0.2,0.2-0.3s0.1-0.1,0.1-0.2c0-0.1,0.1-0.1,0.1-0.2s0-0.2,0-0.3v-4.9h-1.8v-0.8
		h2.7v5.4l1.4-1.5l0.5,0.8L582.3,495.5z M582.1,488.1c-0.2-0.3-0.4-0.5-0.5-0.7s-0.3-0.4-0.5-0.6c-0.2-0.2-0.3-0.4-0.5-0.6
		c-0.2-0.2-0.4-0.4-0.6-0.6l0.7-0.6c0.5,0.5,0.9,0.9,1.2,1.3c0.3,0.4,0.7,0.8,1,1.2L582.1,488.1z M585.8,493.6
		c-0.2,0.4-0.4,0.7-0.6,1c-0.2,0.3-0.4,0.6-0.5,0.8c-0.2,0.3-0.4,0.5-0.6,0.8c-0.2,0.3-0.4,0.5-0.7,0.8l-0.8-0.5
		c0.5-0.5,0.9-1,1.3-1.5s0.7-1.1,1-1.7L585.8,493.6z M587.2,486.4c-0.1-0.2-0.3-0.5-0.5-0.7c-0.2-0.2-0.3-0.5-0.5-0.7l0.8-0.3
		c0.2,0.4,0.4,0.7,0.6,0.9c0.2,0.2,0.3,0.5,0.6,0.8h3.6v0.8h-8.3v-0.8H587.2z M588,495.9c0,0.3,0,0.5,0,0.7c0,0.2-0.1,0.3-0.2,0.5
		c-0.1,0.1-0.2,0.2-0.4,0.3c-0.2,0.1-0.4,0.1-0.6,0.1c-0.2,0-0.4,0-0.6,0c-0.2,0-0.5,0-0.8-0.1l-0.2-0.9c0.3,0,0.6,0.1,0.8,0.1
		c0.2,0,0.4,0,0.6,0c0.3,0,0.5-0.1,0.6-0.2c0.1-0.1,0.1-0.3,0.1-0.6v-3.2h-3v-4h6.8v4H588V495.9z M590,489.4h-5v2.4h5V489.4z
		 M591,496.9c-0.3-0.6-0.6-1.1-0.9-1.7c-0.3-0.5-0.7-1.1-1-1.7l0.7-0.4c0.2,0.3,0.4,0.6,0.6,0.9c0.2,0.3,0.3,0.5,0.5,0.8
		s0.3,0.5,0.5,0.8c0.2,0.3,0.3,0.6,0.5,0.9L591,496.9z"/>
	<path fill="#E7E1D4" d="M594.6,488.9l-0.2,0.2l-0.8-0.4c1.2-1.3,2-2.6,2.3-3.9l0.9,0.3c-0.2,0.5-0.3,0.8-0.4,0.8h2.9l-1.4,2.3h1.6
		v1.1c0.7-0.4,1.3-0.8,1.6-1.3c0.3-0.4,0.5-0.9,0.6-1.5h-1.7v-0.8h5.8l-0.2,2.5c0,0.6-0.2,1-0.5,1.2c-0.3,0.2-0.7,0.3-1.2,0.3
		s-1,0-1.4-0.1l-0.2-0.9c0.7,0.1,1.2,0.1,1.5,0.1c0.3,0,0.5-0.1,0.7-0.2s0.2-0.3,0.3-0.6l0.1-1.5h-2.3c-0.1,0.8-0.3,1.4-0.7,1.9
		c-0.4,0.5-1,1-1.8,1.5l-0.6-0.5v6.7c0,0.6-0.1,1-0.3,1.1c-0.2,0.1-0.5,0.2-0.9,0.2c-0.1,0-0.3,0-0.6,0l-0.3-0.8c0.3,0,0.5,0,0.7,0
		s0.3,0,0.4-0.1s0.1-0.2,0.1-0.3v-2.4h-1.3v3.4h-0.8v-3.4h-1.3c-0.1,1.4-0.4,2.7-1,3.7l-0.8-0.2c0.4-0.7,0.7-1.3,0.8-2.1
		c0.1-0.7,0.2-1.8,0.2-3.3V488.9z M596,486.7c-0.3,0.5-0.6,1-0.9,1.5h2l0.8-1.5H596z M596.7,491.3h-1.3c0,0.8,0,1.4,0,1.7h1.3V491.3
		z M595.4,490.5h1.3V489h-1.3V490.5z M597.5,490.5h1.3V489h-1.3V490.5z M598.8,491.3h-1.3v1.7h1.3V491.3z M601.7,491.2h1.2v-1.4h0.9
		v1.4h2.3v0.8h-2.3v1.9h2.5v0.8h-2.5v2.7h-0.9v-2.7h-3.1v-0.8h3.1V492h-1.5c-0.3,0.5-0.5,1-0.8,1.5l-0.8-0.2
		c0.7-1.2,1.3-2.3,1.5-3.4l0.8,0.2C601.9,490.5,601.8,491,601.7,491.2z"/>
	<path fill="#E7E1D4" d="M609.2,496.4c-0.8,0-1.2-0.9-0.6-1.5c0.5-0.6,1.5-0.1,1.5,0.6C610.1,496,609.7,496.4,609.2,496.4z"/>
</g>
</svg>
