<?xml version="1.0" encoding="utf-8"?>
<!-- Generator: Adobe Illustrator 18.0.0, SVG Export Plug-In . SVG Version: 6.00 Build 0)  -->
<!DOCTYPE svg PUBLIC "-//W3C//DTD SVG 1.1//EN" "http://www.w3.org/Graphics/SVG/1.1/DTD/svg11.dtd">
<svg version="1.1" id="Layer_1" xmlns="http://www.w3.org/2000/svg" xmlns:xlink="http://www.w3.org/1999/xlink" x="0px" y="0px"
	 viewBox="0 0 600 300" enable-background="new 0 0 600 300" xml:space="preserve">
<g>
	<path fill="#E7E1D4" d="M175,58.4h-2.5V30.8h8.3v26.8h-2.5v-3.2H175V58.4z M178.2,33.3H175v18.8h3.2V33.3z M188.8,42
		c1,1.1,1.8,2.3,2.4,3.6c0.6,1.3,0.9,2.8,0.9,4.5c0,1.2-0.1,2.2-0.2,3c-0.1,0.8-0.4,1.5-0.7,1.9c-0.3,0.5-0.8,0.8-1.3,1
		c-0.5,0.2-1.2,0.3-2,0.3h-1.8l-0.8-2.8c0.6,0.1,1,0.1,1.2,0.1c0.3,0,0.6,0,1.1,0c0.7,0,1.2-0.3,1.5-0.9c0.3-0.6,0.5-1.7,0.5-3.2
		c0-1.3-0.3-2.7-1-3.9c-0.6-1.3-1.4-2.4-2.4-3.2l3.2-11h-4.3v34.4h-2.4V29h9.9L188.8,42z M193,32.4V30h16.1v2.4h-2.6v28.3
		c0,0.9-0.1,1.6-0.2,2.2c-0.1,0.6-0.4,1.1-0.7,1.5c-0.4,0.4-0.9,0.7-1.5,0.8c-0.6,0.2-1.5,0.3-2.5,0.3c-0.5,0-1,0-1.4,0
		s-0.9,0-1.6-0.1l-0.7-2.8c0.7,0.1,1.3,0.1,1.8,0.1s1,0,1.5,0c1.1,0,1.9-0.1,2.2-0.4c0.4-0.3,0.6-0.8,0.6-1.5V32.4H193z M195.7,57.6
		h-2.4V37.1h8.2v19.7H199v-2.4h-3.2v3.2H195.7z M198.9,39.5h-3.2V52h3.2V39.5z"/>
	<path fill="#E7E1D4" d="M217.6,59.7H215V32h9.1v26.7h-2.6V55h-3.8L217.6,59.7L217.6,59.7z M221.4,34.5h-3.8v18.1h3.8V34.5z
		 M230.5,33c-0.8,0.1-1.7,0.2-2.5,0.3s-1.7,0.2-2.7,0.2l-0.7-2.4c2.4,0,4.5-0.2,6.4-0.4c1.9-0.3,3.8-0.7,5.7-1.4l1.1,2.2
		c-1.6,0.4-3.2,0.8-4.8,1.1v7.1h6.2c-0.2-3.6-0.2-7.4-0.1-11.6h2.5c0,2.1,0,4.1,0,6c0.1,1.9,0.1,3.7,0.2,5.5h9.5V42h-9.4
		c0.1,1.9,0.3,3.7,0.4,5.3c0.1,1.6,0.3,3.2,0.5,4.6c0.9-1.1,1.8-2.3,2.6-3.5c0.8-1.2,1.6-2.6,2.3-4l2.4,1.3
		c-1.1,1.8-2.1,3.4-3.2,4.9c-1.1,1.5-2.2,2.9-3.4,4.3c0.8,2.8,2,4.9,3.5,6.4c0.3,0.3,0.5,0.3,0.7,0.2s0.4-0.5,0.6-1.2
		c0.1-0.4,0.2-0.8,0.3-1.3s0.2-1.1,0.3-1.9l2.5,1c-0.2,0.8-0.3,1.6-0.4,2.2c-0.1,0.6-0.3,1.2-0.4,1.9c-0.5,1.7-1.2,2.7-1.9,2.9
		s-1.5,0-2.5-0.7c-0.9-0.7-1.8-1.7-2.6-3c-0.8-1.2-1.5-2.7-2-4.3c-1,0.9-2,1.9-3.1,2.8c-1.1,1-2.3,1.9-3.6,2.9l-1.6-2.1
		c1.5-1.1,2.9-2.2,4.1-3.2s2.3-2.1,3.4-3.2c-0.2-0.7-0.3-1.5-0.4-2.2c-0.1-0.7-0.2-1.6-0.3-2.5s-0.2-2-0.3-3.3
		c-0.1-1.2-0.2-2.7-0.3-4.4h-6.3v6.6c0.9-0.4,1.7-0.7,2.6-1.1c0.9-0.4,1.8-0.8,2.9-1.2l0.2,2.6c-1.1,0.4-2.1,0.8-3,1.2
		s-1.8,0.7-2.7,1v10.4c0,1.3-0.3,2.2-0.9,2.6c-0.6,0.5-1.7,0.7-3.2,0.8c-0.3,0-0.7,0-1.3,0s-1.2,0-1.8,0l-0.6-2.5
		c1.7,0.2,2.9,0.2,3.6,0.1c0.7,0,1.1-0.2,1.4-0.4c0.2-0.2,0.4-0.7,0.4-1.3v-8.6c-0.7,0.3-1.4,0.5-2.1,0.8c-0.8,0.3-1.6,0.6-2.5,1
		l-1.2-2.6c2.3-0.7,4.3-1.3,5.9-1.8V42H225v-2.4h5.8v-6.7h-0.3V33z M248.3,37.1c-0.4-0.6-0.7-1.2-1.1-1.8c-0.3-0.5-0.7-1.1-1.1-1.6
		s-0.8-1.1-1.2-1.6c-0.4-0.5-0.9-1.2-1.4-1.8l2.1-1.4c0.6,0.7,1.1,1.3,1.5,1.9c0.4,0.6,0.8,1.1,1.2,1.6c0.4,0.5,0.7,1,1.1,1.5
		c0.3,0.5,0.7,1.1,1.1,1.7L248.3,37.1z"/>
	<path fill="#E7E1D4" d="M259.2,62.6c-2.3,0-3.5-2.8-1.9-4.4c1.5-1.7,4.6-0.4,4.4,1.8C261.8,61.4,260.7,62.6,259.2,62.6z"/>
	<path fill="#E7E1D4" d="M268.5,62.6c-2.3,0-3.5-2.8-1.9-4.4c1.5-1.7,4.6-0.4,4.4,1.8C271,61.4,269.9,62.6,268.5,62.6z"/>
	<path fill="#E7E1D4" d="M277.7,62.6c-2.3,0-3.5-2.8-1.9-4.4c1.5-1.7,4.6-0.4,4.4,1.8C280.3,61.4,279.1,62.6,277.7,62.6z"/>
	<path fill="#E7E1D4" d="M311,45.8h-13.3V31.7h2.6v11.6h10.8V28.1h2.7v15.2h10.7V31.5h2.6v14.3h-13.3v15.6h12V48.6h2.6v17.2h-2.6
		v-1.9h-29.4V48.8h2.7v12.6h12.1V45.8H311z"/>
	<path fill="#E7E1D4" d="M341.8,33.5h7.4v2.4h-8.6c-0.7,1.4-1.5,2.9-2.4,4.4h10.2v2.4h-5v5.2h5.7v2.4h-5.7v10.4l5.8-3.3l0.7,2.4
		l-4.8,2.7c-1.5,0.9-2.6,1.8-3.5,2.7l-2.2-1.9c0.5-0.4,0.9-0.6,1.1-0.9c0.2-0.2,0.3-0.7,0.3-1.3V50.4h-5.3V48h5.3v-5.2h-2.9V41
		l-1,1.4l-2.1-1.5c2.2-2.9,4.3-7.2,6.2-13.2l2.6,1C343.2,30.1,342.6,31.7,341.8,33.5z M367.1,33.2h4.8v2.4h-4.8v5.3h6v2.4h-23.7
		v-2.4h6v-5.3h-4.8v-2.4h4.8v-5.1h2.6v5.1h6.4V28h2.6v5.2H367.1z M354.8,63v2.7h-2.6V47.1h18v18.2h-2.6V63H354.8L354.8,63z
		 M354.8,53.9h12.7v-4.2h-12.7V53.9z M367.6,56.3h-12.7v4.3h12.7V56.3z M364.5,35.8h-6.4v5.3h6.4V35.8z"/>
	<path fill="#E7E1D4" d="M381.5,59h-2.6V33.2h8.4v24.1h-2.5v-2.8h-3.2L381.5,59L381.5,59z M384.7,35.7h-3.2v16.4h3.2V35.7z
		 M388.1,38.4V36h3.7v-7.7h2.5V36h3.5v2.4h-3.5v9.2c1.1-0.3,2.3-0.7,3.7-1.2l0.4,2.6c-0.9,0.3-1.6,0.5-2.3,0.7
		c-0.7,0.2-1.3,0.4-1.9,0.6v12c0,1.2-0.3,2.1-0.8,2.6s-1.4,0.8-2.6,0.8c-0.7,0-1.2,0-1.7,0s-1,0-1.5,0l-0.6-2.8
		c0.7,0.1,1.4,0.2,2,0.2s1.1,0,1.5,0c0.5,0,0.9-0.1,1.1-0.4s0.3-0.7,0.3-1.2V50.9c-0.5,0.2-1.1,0.3-1.7,0.5
		c-0.6,0.2-1.2,0.4-1.9,0.6l-0.8-2.6c0.9-0.3,1.7-0.5,2.4-0.7c0.7-0.2,1.3-0.4,2-0.5v-9.9L388.1,38.4L388.1,38.4L388.1,38.4z
		 M405.8,62.5c0.4-1.8,0.9-3.7,1.3-5.6s0.8-3.9,1.2-5.8c0.4-2,0.7-3.9,1-5.8s0.6-3.7,0.7-5.4l2.7,0.3c-0.5,3.7-1.2,7.4-1.9,11.3
		c-0.7,3.8-1.6,7.5-2.4,11.3h6.4v2.4h-17.1v-2.4h8L405.8,62.5L405.8,62.5z M405.1,34.2c-0.4-1.1-0.7-2.1-1.1-3
		c-0.4-0.9-0.8-1.9-1.1-2.7l2.5-0.8c0.4,1.1,0.9,2.1,1.3,3.2c0.4,1,0.8,2.1,1.2,3.3h6.3v2.4h-15.8v-2.4H405.1z M402.6,59.2
		c-0.3-1.8-0.6-3.5-0.8-5c-0.2-1.5-0.5-3-0.8-4.4s-0.5-2.8-0.8-4.2s-0.6-2.8-0.9-4.3l2.5-0.5c0.3,1.5,0.6,2.9,0.9,4.3
		c0.3,1.3,0.6,2.7,0.8,4.1c0.3,1.4,0.5,2.9,0.8,4.4c0.3,1.6,0.5,3.3,0.8,5.2L402.6,59.2z"/>
	<path fill="#E7E1D4" d="M424.2,62.6c-1.5,0-2.6-1.1-2.6-2.5s1.1-2.6,2.6-2.6s2.6,1.1,2.6,2.6C426.8,61.4,425.7,62.6,424.2,62.6z
		 M425.7,28.3v24.5h-3V28.3H425.7z"/>
	<path fill="#E7E1D4" d="M121.5,86.3v33.8h-3.2V86.3H121.5z"/>
	<path fill="#E7E1D4" d="M147.2,104.4v15.7h-3v-15.4c0-4.2-2-6.4-5.3-6.4c-3.7,0-6.3,3.3-6.3,8.4v13.5h-3V95.8h2.8l0.1,3.6
		c1-2.3,3.6-4.2,6.9-4.2C144.3,95.2,147.2,98.9,147.2,104.4z"/>
	<path fill="#E7E1D4" d="M158.8,89.6v6.1h6.5v2.8h-6.6l-0.1,14.7c0,2.9,0.8,4.2,3.6,4.2c1,0,2.1-0.1,3.1-0.5v2.7
		c-0.8,0.3-2,0.5-3.4,0.5c-4.2,0-6.3-2-6.2-6.6l0.1-15.1H151v-2.8h4.8v-6.1h3V89.6z"/>
	<path fill="#E7E1D4" d="M190.9,107.4v1.7h-19.3c0.2,5.2,3.7,8.7,8.5,8.7c3.8,0,6.2-1.5,7.4-4.5h3.1c-1.5,4.7-5.2,7.3-10.7,7.3
		c-3.3,0-6-1.2-8.3-3.5c-2.1-2.3-3.2-5.3-3.2-9.2c0-3.7,1-6.7,3.1-9.2c2.1-2.4,4.8-3.6,8.3-3.6C186.6,95.2,190.9,99.6,190.9,107.4z
		 M171.7,106.3h16.2c0-5-3.1-8.3-7.9-8.3C175.3,98.1,172.1,101.5,171.7,106.3z"/>
	<path fill="#E7E1D4" d="M207.9,98.5c-2,0-3.6,0.7-4.9,2c-1.5,1.5-2.3,3.6-2.3,6.3V120h-3V95.8h2.8l0.1,4.4c1-2.5,3.5-4.6,7.3-4.6
		L207.9,98.5L207.9,98.5z"/>
	<path fill="#E7E1D4" d="M230.8,104.4v15.7h-3v-15.4c0-4.2-2-6.4-5.3-6.4c-3.7,0-6.3,3.3-6.3,8.4v13.5h-3V95.8h2.8l0.1,3.6
		c1-2.3,3.6-4.2,6.9-4.2C227.9,95.2,230.8,98.9,230.8,104.4z"/>
	<path fill="#E7E1D4" d="M258.3,107.4v1.7H239c0.2,5.2,3.7,8.7,8.5,8.7c3.8,0,6.2-1.5,7.4-4.5h3.1c-1.5,4.7-5.2,7.3-10.7,7.3
		c-3.3,0-6-1.2-8.3-3.5c-2.1-2.3-3.2-5.3-3.2-9.2c0-3.7,1-6.7,3.1-9.2s4.8-3.6,8.3-3.6C253.9,95.2,258.3,99.6,258.3,107.4z
		 M239.1,106.3h16.2c0-5-3.1-8.3-7.9-8.3C242.7,98.1,239.4,101.5,239.1,106.3z"/>
	<path fill="#E7E1D4" d="M269,89.6v6.1h6.5v2.8h-6.6l-0.1,14.7c0,2.9,0.8,4.2,3.6,4.2c1,0,2.1-0.1,3.1-0.5v2.7
		c-0.8,0.3-2,0.5-3.4,0.5c-4.2,0-6.3-2-6.2-6.6l0.1-15.1h-4.8v-2.8h4.8v-6.1h3V89.6z"/>
	<path fill="#E7E1D4" d="M309.3,86.3v3h-15v11.9h13.3v3h-13.3v13h15v3h-18.1V86.4L309.3,86.3L309.3,86.3z"/>
	<path fill="#E7E1D4" d="M333.7,95.8l-8.2,11.7l8.9,12.6h-3.6l-7.1-10.1l-7.1,10.1H313l8.8-12.6l-8.2-11.7h3.6l6.4,9.3l6.5-9.3
		H333.7z"/>
	<path fill="#E7E1D4" d="M359.8,98.8c2.1,2.4,3.1,5.4,3.1,9.1c0,3.6-1,6.7-3.1,9.1s-4.8,3.6-8.3,3.6c-4.1,0-7.2-2.1-8.5-4.6v14.5
		h-3.1V95.8h2.9v4.1c1.4-2.4,4.6-4.7,8.7-4.7C355,95.2,357.7,96.4,359.8,98.8z M345.4,100.7c-1.6,1.6-2.4,3.8-2.4,6.6v1
		c0,2.8,0.8,5.1,2.4,6.8c1.6,1.7,3.6,2.5,5.8,2.5c2.5,0,4.6-0.9,6.1-2.7c1.6-1.8,2.4-4.1,2.4-7c0-2.8-0.8-5.2-2.3-7
		s-3.6-2.7-6.1-2.7C349,98.1,347,98.9,345.4,100.7z"/>
	<path fill="#E7E1D4" d="M371.7,84.8V120h-3V84.8H371.7z"/>
	<path fill="#E7E1D4" d="M389.6,95.2c3.6,0,6.4,1.2,8.7,3.6c2.2,2.4,3.3,5.4,3.3,9.1c0,3.6-1.1,6.7-3.3,9.1
		c-2.2,2.4-5.1,3.6-8.7,3.6s-6.4-1.2-8.8-3.6c-2.2-2.4-3.3-5.4-3.3-9.1c0-3.6,1.1-6.7,3.3-9.1C383.1,96.4,386,95.2,389.6,95.2z
		 M383.1,100.9c-1.6,1.8-2.4,4.1-2.4,7c0,2.8,0.8,5.1,2.4,7c1.7,1.8,3.8,2.7,6.5,2.7c2.6,0,4.8-0.9,6.4-2.7c1.6-1.9,2.4-4.2,2.4-7
		s-0.8-5.1-2.4-7s-3.7-2.8-6.4-2.8C386.9,98.1,384.8,99,383.1,100.9z"/>
	<path fill="#E7E1D4" d="M417.9,98.5c-2,0-3.6,0.7-4.9,2c-1.5,1.5-2.3,3.6-2.3,6.3V120h-3V95.8h2.8l0.1,4.4c1-2.5,3.5-4.6,7.3-4.6
		V98.5z"/>
	<path fill="#E7E1D4" d="M442.8,107.4v1.7h-19.3c0.2,5.2,3.7,8.7,8.5,8.7c3.8,0,6.2-1.5,7.4-4.5h3.1c-1.5,4.7-5.2,7.3-10.7,7.3
		c-3.3,0-6-1.2-8.3-3.5c-2.1-2.3-3.2-5.3-3.2-9.2c0-3.7,1-6.7,3.1-9.2c2.1-2.4,4.8-3.6,8.3-3.6C438.3,95.2,442.8,99.6,442.8,107.4z
		 M423.5,106.3h16.2c0-5-3.1-8.3-7.9-8.3C427.1,98.1,423.9,101.5,423.5,106.3z"/>
	<path fill="#E7E1D4" d="M459.7,98.5c-2,0-3.6,0.7-4.9,2c-1.5,1.5-2.3,3.6-2.3,6.3V120h-3V95.8h2.8l0.1,4.4c1-2.5,3.5-4.6,7.3-4.6
		V98.5L459.7,98.5z"/>
	<path fill="#E7E1D4" d="M462.8,120.6c-2.3,0-3.5-2.8-1.9-4.4c1.5-1.7,4.6-0.4,4.4,1.8C465.3,119.4,464.2,120.6,462.8,120.6z"/>
	<path fill="#E7E1D4" d="M472.1,120.6c-2.3,0-3.5-2.8-1.9-4.4c1.5-1.7,4.6-0.4,4.4,1.8C474.6,119.4,473.4,120.6,472.1,120.6z"/>
	<path fill="#E7E1D4" d="M481.2,120.6c-2.3,0-3.5-2.8-1.9-4.4c1.5-1.7,4.6-0.4,4.4,1.8C483.8,119.4,482.6,120.6,481.2,120.6z"/>
</g>
<g>
	<path fill="#E7E1D4" d="M151,145.2h-9.3V144h17.8v1.2h-6.9c-0.8,1.4-1.5,2.5-2.1,3.4h0.6v13h-1.3v-12c-1.9,2.5-4.4,4.9-7.7,7.3
		l-1.2-0.9C145.5,152.9,149,149.3,151,145.2z M159.6,156.1l-1.1,0.9c-1.5-1.6-3.6-3.9-6.5-6.7l1.1-0.8
		C155.4,151.7,157.6,153.9,159.6,156.1z"/>
	<path fill="#E7E1D4" d="M171,148.6l-6,0.2c-0.8,0-1.5,0.1-2,0.3l-0.4-1.4c0.3,0,0.6-0.1,0.8-0.2c0.2-0.1,0.3-0.2,0.4-0.3
		c0.1-0.1,0.4-0.5,0.8-1c0.4-0.5,0.8-1.1,1-1.5c0.3-0.5,0.6-1.1,1.1-2l1.3,0.5c-0.8,1.4-1.8,2.9-3,4.4l5.2-0.2
		c-0.5-0.8-1-1.5-1.5-2.2l1.1-0.6c1,1.4,2,2.9,3,4.6l-1.3,0.5C171.3,149.3,171.2,148.9,171,148.6z M165.2,157.8v3.8h-1.3v-11.3h7.6
		v9.3c0,0.6,0,1-0.1,1.3s-0.3,0.5-0.6,0.6s-0.8,0.2-1.4,0.2h-1.6l-0.5-1.3c0.9,0.1,1.6,0.1,2,0.1s0.6-0.1,0.7-0.2
		c0.1-0.1,0.2-0.3,0.2-0.6v-1.8L165.2,157.8L165.2,157.8z M165.2,153.4h5v-1.9h-5V153.4z M170.1,154.7h-5v1.9h5V154.7z M174.8,155.8
		c2-0.6,3.8-1.4,5.4-2.4l0.8,1c-1.6,1-3.7,1.9-6.2,2.7v2.1c0,0.3,0.1,0.5,0.2,0.6c0.1,0.1,0.3,0.2,0.6,0.2h3.6
		c0.4,0,0.6-0.1,0.7-0.3c0.1-0.2,0.3-0.9,0.5-2.1l1.3,0.6c-0.3,1.5-0.6,2.3-0.9,2.6c-0.3,0.3-0.7,0.4-1.3,0.4h-3.9
		c-0.8,0-1.4-0.1-1.7-0.4c-0.3-0.3-0.4-0.8-0.4-1.6v-7h1.3L174.8,155.8L174.8,155.8z M174.8,146.9c2.3-0.9,4-1.8,5.2-2.6l0.9,1
		c-1.3,0.8-3.3,1.7-6.1,2.8v1.5c0,0.4,0.1,0.7,0.2,0.8c0.1,0.2,0.3,0.2,0.6,0.2h3.5c0.3,0,0.4,0,0.6-0.1c0.1-0.1,0.2-0.3,0.3-0.6
		s0.2-0.8,0.3-1.5l1.3,0.5c-0.1,0.9-0.4,1.7-0.7,2.2s-0.9,0.8-1.7,0.8h-3.6c-0.8,0-1.4-0.2-1.7-0.5s-0.4-0.9-0.4-1.8v-6.7h1.3
		L174.8,146.9L174.8,146.9z"/>
	<path fill="#E7E1D4" d="M195.3,154h-3.5c-0.1,1.9-0.6,3.5-1.5,4.6c-0.9,1.2-2.4,2.2-4.5,3l-1-1.1c1.9-0.7,3.3-1.5,4.2-2.5
		s1.4-2.4,1.5-4H185v-1.2h17.8v1.2h-6.2v5.3c0,0.3,0.1,0.5,0.2,0.6c0.1,0.1,0.4,0.2,0.7,0.2h2.9c0.4,0,0.7,0,0.9-0.1
		s0.3-0.3,0.5-0.6c0.1-0.3,0.3-1,0.4-1.9l1.3,0.6c-0.3,1.6-0.6,2.5-0.9,2.9c-0.3,0.4-0.9,0.5-1.8,0.5h-3.1c-0.9,0-1.5-0.1-1.8-0.4
		c-0.3-0.3-0.5-0.8-0.5-1.7L195.3,154L195.3,154L195.3,154z M193.2,145.1l-1.1-2.2l1.4-0.3c0.5,0.8,0.9,1.6,1.3,2.5h7.5v4.1H201
		v-2.9h-14.4v3h-1.3v-4.2H193.2z M199.6,150.1h-11.4v-1.2h11.4V150.1z"/>
	<path fill="#E7E1D4" d="M213.1,150.1c1.1,0.8,1.9,1.5,2.6,2l-0.9,0.8c-0.7-0.6-1.6-1.3-2.6-2L213.1,150.1h-1v3.5h-1.2v-2.5
		c-0.9,0.8-2.2,1.7-3.8,2.6l-0.9-0.9c1.6-0.7,2.9-1.6,4.2-2.7h-3v-3.8h3.6v-1h-4.6v-1.1h4.6v-1.3h1.2v1.3h4.2v1.1h-4.2v1h3.6v2.2
		c1.3-1.7,2.3-3.7,3-5.7l1.2,0.4c-0.2,0.6-0.5,1.2-0.7,1.8h5.6v1.2h-1.3c-0.5,1.7-1.3,3.2-2.4,4.3c1,0.9,2.3,1.6,3.9,2.1l-0.6,1.2
		c-1.7-0.6-3.1-1.4-4.2-2.5c-1.1,0.9-2.4,1.8-4.2,2.5l-0.7-1.1c1.5-0.6,2.9-1.3,4.1-2.3c-0.7-0.8-1.3-1.8-1.7-2.9
		c-0.2,0.4-0.6,1-1.1,1.7l-1.1-0.6v1.5H213.1L213.1,150.1z M214.9,155.2H207V154h16.9v1.2h-7.8v1.7h6.2v1.2h-6.2v1.9h8.9v1.2h-19
		v-1.2h3.5v-3.8h1.2v3.8h3.9v-4.8L214.9,155.2L214.9,155.2z M210.7,148.9v-1.5h-2.4v1.5H210.7z M212,147.4v1.5h2.4v-1.5H212z
		 M222.3,146h-3.7v0.1c0.4,1.2,1,2.3,1.8,3.3C221.3,148.4,222,147.2,222.3,146z"/>
	<path fill="#E7E1D4" d="M236.4,147h-8.8v-1.2h8.8v-3h1.3v3h8.8v1.2h-8.8v3.1h6.1c-0.8,1.6-1.6,3-2.4,4c-0.8,1.1-1.9,2.1-3.1,3
		c2.2,1.3,4.9,2.3,8.3,2.9l-0.8,1.4c-3.6-0.8-6.4-2-8.6-3.5c-2,1.3-5,2.5-9,3.6l-0.7-1.3c3.5-0.8,6.4-1.9,8.6-3.1
		c-1.9-1.5-3.5-3.4-4.8-5.8h-1.8v-1.2h6.9V147L236.4,147z M237.1,156.5c2.2-1.6,3.7-3.3,4.6-5h-9.1
		C233.7,153.3,235.2,155,237.1,156.5z"/>
	<path fill="#E7E1D4" d="M252.1,148h-2.7v-1.2h2.7v-4h1.3v4h2.5v1.2h-2.5v4.3c1.1-0.4,1.8-0.7,2.1-0.8l0.3,1.2l-2.4,0.9v6
		c0,0.8-0.2,1.4-0.5,1.7s-0.8,0.4-1.3,0.4c-0.6,0-1.2,0-2-0.1l-0.4-1.5c1,0.2,1.6,0.3,2,0.3s0.6-0.1,0.7-0.2
		c0.1-0.1,0.1-0.4,0.1-0.7v-5.2c-0.9,0.3-1.7,0.6-2.5,0.9L249,154c0.6-0.2,1.6-0.5,3-1v-4.9h0.1V148z M261.3,146.7H257v-1.2h4.3
		v-2.7h1.3v2.7h4.3v1.2h-4.3v2.9h5.5v1.2h-12.4v-1.2h5.5v-2.9H261.3z M265.3,153.4h2.6v1.2h-2.6v5.2c0,0.6-0.1,1.1-0.4,1.4
		c-0.3,0.3-0.8,0.4-1.6,0.4s-1.4,0-2.1,0l-0.6-1.5c1,0.1,1.7,0.2,2.2,0.2s0.8-0.1,1-0.2c0.2-0.1,0.2-0.3,0.2-0.6v-5h-8v-1.2h8v-2.1
		h1.3V153.4z M261.3,158.2l-1,0.9c-0.8-1-1.9-2-3.2-3l0.9-0.9C259,156.1,260.1,157.1,261.3,158.2z"/>
	<path fill="#E7E1D4" d="M279,142.2v7.2c0.4-1.1,1.8-2,3.4-2c2.5,0,3.9,1.8,3.9,4.5v7.8h-1.5v-7.6c0-2.1-1-3.2-2.7-3.2
		c-1.8,0-3.2,1.6-3.2,4.2v6.7h-1.5v-17.5h1.6L279,142.2L279,142.2z"/>
	<path fill="#E7E1D4" d="M300.2,153.5v0.8h-9.7c0.1,2.6,1.8,4.3,4.2,4.3c1.9,0,3.1-0.7,3.7-2.3h1.6c-0.7,2.3-2.6,3.7-5.3,3.7
		c-1.7,0-3-0.6-4.1-1.7c-1.1-1.2-1.6-2.7-1.6-4.5s0.5-3.4,1.5-4.5c1-1.2,2.4-1.8,4.1-1.8C298,147.4,300.2,149.7,300.2,153.5z
		 M290.5,153h8c0-2.5-1.5-4.1-3.9-4.1C292.3,148.8,290.7,150.6,290.5,153z"/>
	<path fill="#E7E1D4" d="M314,142.2v17.6h-1.4v-2c-0.7,1.2-2.3,2.3-4.3,2.3c-1.7,0-3.1-0.6-4.1-1.8s-1.5-2.7-1.5-4.5
		s0.5-3.3,1.5-4.5s2.4-1.8,4.1-1.8c2,0,3.6,1,4.2,2.3v-7.5h1.5V142.2z M305.2,150.3c-0.8,0.9-1.2,2.1-1.2,3.5s0.4,2.6,1.2,3.5
		c0.8,0.9,1.8,1.4,3.1,1.4c1.1,0,2.1-0.4,2.9-1.2s1.2-1.9,1.2-3.3v-0.5c0-1.4-0.4-2.6-1.2-3.4c-0.8-0.8-1.8-1.3-2.9-1.3
		C307,148.8,306,149.4,305.2,150.3z"/>
	<path fill="#E7E1D4" d="M325.8,151.7v8h-1.4v-1.8c-0.6,1.2-2.1,2-3.8,2c-2.1,0-3.4-1.3-3.4-3.2c0-1.8,1.1-3,3.3-3.4l3.9-0.8v-0.8
		c0-1.9-0.9-2.9-2.6-2.9c-1.6,0-2.7,0.9-2.7,2.6h-1.5c0-1.2,0.4-2.1,1.2-2.9c0.8-0.8,1.8-1.2,3.1-1.2
		C324.3,147.4,325.8,148.9,325.8,151.7z M324.2,154l-3.6,0.8c-1.3,0.3-2,0.8-2,2.1c0,1.2,0.7,1.8,2.1,1.8c1.2,0,2.1-0.4,2.8-1.3
		c0.5-0.7,0.8-1.5,0.8-2.4L324.2,154L324.2,154L324.2,154z"/>
	<path fill="#E7E1D4" d="M345.5,147.6l-3.9,12.1H340l-3.3-9.5l-3.3,9.5h-1.5l-3.9-12.1h1.6l2.9,9.1l0.3,1l0.3-1l3-9.1h1.3l3,9.1
		l0.3,1l0.3-1l2.9-9.1H345.5z"/>
	<path fill="#E7E1D4" d="M357.7,153.5v0.8H348c0.1,2.6,1.8,4.3,4.2,4.3c1.9,0,3.1-0.7,3.7-2.3h1.6c-0.7,2.3-2.6,3.7-5.3,3.7
		c-1.7,0-3-0.6-4.1-1.7c-1.1-1.2-1.6-2.7-1.6-4.5s0.5-3.4,1.5-4.5c1-1.2,2.4-1.8,4.1-1.8C355.5,147.4,357.7,149.7,357.7,153.5z
		 M348.1,153h8c0-2.5-1.5-4.1-3.9-4.1C349.9,148.8,348.3,150.6,348.1,153z"/>
	<path fill="#E7E1D4" d="M369.8,152v7.8h-1.5v-7.6c0-2.1-1-3.2-2.7-3.2c-1.8,0-3.2,1.6-3.2,4.2v6.7h-1.5v-12.1h1.4l0.1,1.8
		c0.5-1.1,1.8-2.1,3.5-2.1C368.3,147.4,369.8,149.3,369.8,152z"/>
	<path fill="#E7E1D4" d="M383.5,147.6v1.4h-2.3c0.6,0.7,0.8,1.6,0.8,2.7c0,1.2-0.4,2.2-1.2,3c-0.8,0.8-1.9,1.2-3.3,1.2
		c-1.1,0-2-0.3-2.8-0.8c-0.5,0.4-0.7,0.9-0.7,1.4c0,0.9,0.7,1.4,1.8,1.4h3.3c2.5,0,3.7,1.2,3.7,3.2c0,2.4-1.8,3.9-4.8,3.9
		c-3.3,0-5.2-1.3-5.2-3.7c0-1.1,0.5-1.9,1.4-2.4c-1-0.4-1.7-1.3-1.7-2.4c0-1,0.4-1.8,1.3-2.4c-0.5-0.7-0.8-1.6-0.8-2.5
		c0-2.5,1.8-4.3,4.5-4.3c0.6,0,1.2,0.1,1.7,0.3L383.5,147.6L383.5,147.6z M376.4,159.4c-1.1,0-2,0.8-2,2c0,1.6,1.2,2.4,3.6,2.4
		c2.2,0,3.3-0.8,3.3-2.5c0-1.2-0.9-1.9-2.4-1.9H376.4z M377.5,154.7c1.8,0,3-1.2,3-2.9c0-1.8-1.2-2.9-3-2.9s-3,1.2-3,2.9
		S375.7,154.7,377.5,154.7z"/>
	<path fill="#E7E1D4" d="M385.6,160c-1.1,0-1.7-1.4-0.9-2.2c0.8-0.8,2.3-0.2,2.2,0.9C386.9,159.5,386.3,160,385.6,160z"/>
	<path fill="#E7E1D4" d="M399.9,151.2h-1.6c-0.5-1.5-1.9-2.3-3.7-2.3c-1.2,0-2.2,0.5-3,1.4s-1.2,2.1-1.2,3.5s0.4,2.5,1.2,3.5
		c0.8,0.9,1.8,1.4,3,1.4c1.7,0,3.1-0.9,3.6-2.3h1.6c-0.7,2.4-2.7,3.7-5.3,3.7c-1.7,0-3-0.6-4.1-1.8s-1.6-2.7-1.6-4.5
		s0.5-3.3,1.6-4.5s2.5-1.8,4.1-1.8C397.2,147.4,399.2,148.7,399.9,151.2z"/>
	<path fill="#E7E1D4" d="M407.9,147.4c1.8,0,3.2,0.6,4.3,1.8c1.1,1.2,1.7,2.7,1.7,4.5s-0.6,3.3-1.7,4.5s-2.5,1.8-4.3,1.8
		s-3.2-0.6-4.3-1.8c-1.1-1.2-1.7-2.7-1.7-4.5s0.6-3.3,1.7-4.5C404.6,148,406,147.4,407.9,147.4z M404.5,150.3
		c-0.8,0.9-1.2,2.1-1.2,3.5s0.4,2.6,1.2,3.5c0.8,0.9,1.9,1.4,3.3,1.4c1.3,0,2.4-0.5,3.2-1.4c0.8-0.9,1.2-2.1,1.2-3.5
		s-0.4-2.6-1.2-3.5c-0.8-0.9-1.9-1.4-3.2-1.4C406.5,148.8,405.4,149.3,404.5,150.3z"/>
	<path fill="#E7E1D4" d="M432.8,152v7.8h-1.5v-7.6c0-2.1-1-3.2-2.6-3.2c-1.8,0-3.1,1.5-3.1,4v6.9h-1.5v-7.6c0-2.1-1-3.2-2.7-3.2
		c-1.8,0-3.1,1.6-3.1,4.2v6.7h-1.5v-12.1h1.4l0.1,1.8c0.5-1.1,1.8-2.1,3.4-2.1c1.8,0,3,0.8,3.6,2.4c0.6-1.3,2-2.4,3.7-2.4
		C431.4,147.4,432.8,149.2,432.8,152z"/>
	<path fill="#E7E1D4" d="M442,160c-1.1,0-1.7-1.4-0.9-2.2c0.8-0.8,2.3-0.2,2.2,0.9C443.3,159.5,442.7,160,442,160z M440.7,148.7
		c0-0.7,0.6-1.3,1.3-1.3s1.3,0.6,1.3,1.3s-0.6,1.3-1.3,1.3C441.3,150,440.7,149.5,440.7,148.7z"/>
	<path fill="#E7E1D4" d="M452.5,152.9v1.4h-7.6v-1.4H452.5z"/>
	<path fill="#E7E1D4" d="M459.1,142.9c-1.1,1.4-2,2.8-2.5,4.2s-0.8,3-0.8,4.8s0.3,3.5,0.8,4.8c0.5,1.4,1.3,2.8,2.5,4.2l-1.1,0.8
		c-2.4-3-3.6-6-3.6-10s1.2-6.8,3.6-10L459.1,142.9z"/>
</g>
<g>
	<path fill="#E7E1D4" d="M10.8,219v11.3H9.7V219H10.8z"/>
	<path fill="#E7E1D4" d="M19.4,225v5.2h-1v-5.1c0-1.4-0.7-2.1-1.8-2.1c-1.2,0-2.1,1.1-2.1,2.8v4.5h-1v-8h0.9v1.2
		c0.3-0.8,1.2-1.4,2.3-1.4C18.5,222,19.4,223.2,19.4,225z"/>
	<path fill="#E7E1D4" d="M23.3,220.1v2h2.2v0.9h-2.2v4.9c0,1,0.3,1.4,1.2,1.4c0.3,0,0.7,0,1-0.2v0.9c-0.3,0.1-0.7,0.2-1.1,0.2
		c-1.4,0-2.1-0.7-2.1-2.2v-5h-1.6v-0.9h1.6v-2L23.3,220.1L23.3,220.1z"/>
	<path fill="#E7E1D4" d="M34,226v0.6h-6.4c0.1,1.7,1.2,2.9,2.8,2.9c1.3,0,2.1-0.5,2.5-1.5h1c-0.5,1.6-1.7,2.4-3.5,2.4
		c-1.1,0-2-0.4-2.7-1.2s-1.1-1.8-1.1-3s0.3-2.2,1-3s1.6-1.2,2.7-1.2C32.6,222,34,223.4,34,226z M27.5,225.6H33c0-1.7-1-2.7-2.6-2.7
		C28.7,222.9,27.7,224,27.5,225.6z"/>
	<path fill="#E7E1D4" d="M39.6,223.1c-0.7,0-1.2,0.2-1.6,0.7c-0.5,0.5-0.8,1.2-0.8,2.1v4.4h-1v-8h0.9v1.5c0.3-0.8,1.2-1.5,2.4-1.5
		L39.6,223.1L39.6,223.1z"/>
	<path fill="#E7E1D4" d="M47.2,225v5.2h-1v-5.1c0-1.4-0.7-2.1-1.8-2.1c-1.2,0-2.1,1.1-2.1,2.8v4.5h-1v-8h0.9v1.2
		c0.3-0.8,1.2-1.4,2.3-1.4C46.2,222,47.2,223.2,47.2,225z"/>
	<path fill="#E7E1D4" d="M56.4,226v0.6H50c0.1,1.7,1.2,2.9,2.8,2.9c1.3,0,2.1-0.5,2.5-1.5h1c-0.5,1.6-1.7,2.4-3.5,2.4
		c-1.1,0-2-0.4-2.7-1.2s-1.1-1.8-1.1-3s0.3-2.2,1-3s1.6-1.2,2.7-1.2C55,222,56.4,223.4,56.4,226z M50.1,225.6h5.4
		c0-1.7-1-2.7-2.6-2.7C51.3,222.9,50.2,224,50.1,225.6z"/>
	<path fill="#E7E1D4" d="M60,220.1v2h2.2v0.9H60v4.9c0,1,0.3,1.4,1.2,1.4c0.3,0,0.7,0,1-0.2v0.9c-0.3,0.1-0.7,0.2-1.1,0.2
		c-1.4,0-2.1-0.7-2.1-2.2v-5h-1.6v-0.9H59v-2L60,220.1L60,220.1z"/>
	<path fill="#E7E1D4" d="M73.4,219v1h-5v3.9h4.4v1h-4.4v4.3h5v1h-6v-11.3L73.4,219L73.4,219z"/>
	<path fill="#E7E1D4" d="M81.6,222.1l-2.7,3.9l2.9,4.2h-1.2l-2.4-3.3l-2.4,3.3h-1.2l2.9-4.2l-2.7-3.9H76l2.1,3.1l2.2-3.1H81.6z"/>
	<path fill="#E7E1D4" d="M90.2,223.2c0.7,0.8,1,1.8,1,3s-0.3,2.2-1,3s-1.6,1.2-2.7,1.2c-1.4,0-2.4-0.7-2.8-1.5v4.8h-1v-11.6h1v1.4
		c0.5-0.8,1.5-1.6,2.9-1.6C88.7,222,89.6,222.4,90.2,223.2z M85.5,223.7c-0.5,0.5-0.8,1.3-0.8,2.2v0.3c0,0.9,0.3,1.7,0.8,2.3
		s1.2,0.8,1.9,0.8c0.8,0,1.5-0.3,2-0.9s0.8-1.4,0.8-2.3c0-0.9-0.3-1.7-0.8-2.3s-1.2-0.9-2-0.9C86.7,222.9,86,223.2,85.5,223.7z"/>
	<path fill="#E7E1D4" d="M94.2,218.5v11.8h-1v-11.8H94.2z"/>
	<path fill="#E7E1D4" d="M100.2,222c1.2,0,2.1,0.4,2.9,1.2s1.1,1.8,1.1,3s-0.4,2.2-1.1,3s-1.7,1.2-2.9,1.2s-2.1-0.4-2.9-1.2
		c-0.7-0.8-1.1-1.8-1.1-3s0.4-2.2,1.1-3C98.1,222.4,99,222,100.2,222z M98.1,223.8c-0.5,0.6-0.8,1.4-0.8,2.3c0,0.9,0.3,1.7,0.8,2.3
		c0.6,0.6,1.3,0.9,2.2,0.9s1.6-0.3,2.1-0.9s0.8-1.4,0.8-2.3c0-0.9-0.3-1.7-0.8-2.3s-1.2-0.9-2.1-0.9
		C99.3,222.9,98.6,223.2,98.1,223.8z"/>
	<path fill="#E7E1D4" d="M109.6,223.1c-0.7,0-1.2,0.2-1.6,0.7c-0.5,0.5-0.8,1.2-0.8,2.1v4.4h-1v-8h0.9v1.5c0.3-0.8,1.2-1.5,2.4-1.5
		L109.6,223.1L109.6,223.1z"/>
	<path fill="#E7E1D4" d="M117.9,226v0.6h-6.4c0.1,1.7,1.2,2.9,2.8,2.9c1.3,0,2.1-0.5,2.5-1.5h1c-0.5,1.6-1.7,2.4-3.5,2.4
		c-1.1,0-2-0.4-2.7-1.2s-1.1-1.8-1.1-3s0.3-2.2,1-3s1.6-1.2,2.7-1.2C116.5,222,117.9,223.4,117.9,226z M111.4,225.6h5.4
		c0-1.7-1-2.7-2.6-2.7C112.6,222.9,111.6,224,111.4,225.6z"/>
	<path fill="#E7E1D4" d="M123.5,223.1c-0.7,0-1.2,0.2-1.6,0.7c-0.5,0.5-0.8,1.2-0.8,2.1v4.4h-1v-8h0.9v1.5c0.3-0.8,1.2-1.5,2.4-1.5
		L123.5,223.1L123.5,223.1z"/>
	<path fill="#E7E1D4" d="M130.8,220.8h3.3v0.8h-1.9v2.4h2.3v0.8h-2.3v4.3l1.2-0.1v-3.2h0.8v4.5c0.7-0.7,1.3-1.3,1.7-2
		s0.7-1.5,0.8-2.4h-2.3v-0.8h2.4c0.1-0.8,0.1-1.9,0.2-3.3h-2.1V221h2.1v-2.1h0.9c0,0.9,0,1.6,0,2.1h2.3v4.1h1.1v0.8h-3
		c0.6,2.1,1.7,3.7,3.2,4.8l-0.7,0.7c-1.6-1.3-2.7-3-3.3-5c-0.4,1.8-1.4,3.5-3.2,5l-0.7-0.6l0.5-0.4h-0.8v-0.6l-2.7,0.3
		c-0.4,0-0.8,0.1-1.4,0.2v-4.5h0.8v3.5l1.2-0.1v-4.4h-2.6V224h2.6v-2.4h-0.9c-0.3,0.6-0.6,1.3-1,2l-0.8-0.3c0.9-1.3,1.5-2.9,1.9-4.5
		l0.8,0.3C131.2,219.8,131,220.4,130.8,220.8z M139.4,225.1v-3.3h-1.5c0,1.9-0.1,3-0.1,3.3H139.4z"/>
	<path fill="#E7E1D4" d="M154,225.2c-0.9,1.7-2.1,3-3.8,4c-1.6,1-3.8,1.7-6.5,2.2l-0.4-1c2.6-0.4,4.6-1,6.2-1.9
		c1.6-0.9,2.8-2.2,3.6-3.8L154,225.2z M147.3,221.2c-0.8,2-1.8,3.8-2.9,5.5l-0.8-0.4c1.3-1.7,2.2-3.5,2.9-5.3L147.3,221.2z
		 M150,227.4h-0.9v-8.6h0.9V227.4z M155.8,225.7L155,226c-1.1-2-2.1-3.7-3.1-5l0.7-0.4C153.9,222.3,154.9,224,155.8,225.7z"/>
	<path fill="#E7E1D4" d="M161.1,227.4c-0.6,1.3-1.5,2.6-2.7,3.9l-0.8-0.5c1.3-1.3,2.3-2.8,3-4.4c-0.8-1.5-1.6-2.8-2.5-4l0.7-0.4
		c0.9,1.3,1.6,2.5,2.2,3.5c0.6-1.5,0.9-3,1-4.4h-4.1v-0.7h5.1c-0.2,2.5-0.7,4.5-1.4,6.1c0.7,1.2,1.4,2.4,1.9,3.6l-0.8,0.3
		C162.3,229.7,161.8,228.7,161.1,227.4z M168.6,221.6h1.7v0.8h-1.7v7.5c0,0.5-0.1,0.8-0.3,1s-0.5,0.4-0.9,0.4s-1,0.1-1.8,0.1
		l-0.3-0.9c0.4,0,0.7,0,1.2,0s0.7,0,0.9-0.1s0.3-0.3,0.3-0.6v-7.4h-4.3v-0.8h4.3v-2.7h0.9L168.6,221.6L168.6,221.6z M166.4,227.2
		l-0.8,0.4c-0.5-1-1.2-2.1-1.9-3.3l0.7-0.4C164.9,224.7,165.6,225.9,166.4,227.2z"/>
	<path fill="#E7E1D4" d="M177.9,220.7h-4.8v-0.8h10.5v0.8h-4.8v3.3h5.7v0.8h-5.7v4.7c0,0.6-0.1,1.1-0.4,1.3
		c-0.3,0.2-0.7,0.3-1.4,0.3c-0.3,0-0.8,0-1.5-0.1l-0.4-0.9c0.8,0.1,1.4,0.1,1.8,0.1s0.7-0.1,0.8-0.2c0.1-0.1,0.1-0.3,0.1-0.6v-4.7
		H172v-0.8h5.7v-3.2L177.9,220.7L177.9,220.7z"/>
	<path fill="#E7E1D4" d="M188.6,224.8c-0.6,0.7-1.1,1.3-1.6,1.8l-0.7-0.6c1.5-1.4,2.6-2.8,3.6-4.3l0.8,0.4c-0.5,0.7-0.9,1.2-1.2,1.7
		v7.6h-0.8v-6.6L188.6,224.8L188.6,224.8z M190.7,219.2c-0.9,1.1-2,2.3-3.3,3.6l-0.8-0.6c1.3-1,2.4-2.2,3.3-3.5L190.7,219.2z
		 M195.8,227.4c0.8-0.5,1.6-1.1,2.4-1.8l0.7,0.6c-0.8,0.7-1.7,1.3-2.6,1.9c0.8,1,1.7,1.8,2.8,2.5l-0.7,0.7c-2.1-1.3-3.6-3.3-4.7-6.1
		h-1.3v4.8l2.4-1l0.2,0.9l-2.2,0.9c-0.6,0.2-0.9,0.5-1.2,0.7l-0.6-0.8c0.3-0.2,0.5-0.4,0.5-0.7v-10.7h6.6v5.8h-3.5
		C194.8,226,195.3,226.7,195.8,227.4z M192.3,221.9h4.9v-1.7h-4.9V221.9z M197.3,222.7h-4.9v1.7h4.9V222.7z"/>
	<path fill="#E7E1D4" d="M207.3,225.8c-1,1.1-2.5,2.1-4.5,3l-0.7-0.7c2.6-1.1,4.4-2.5,5.6-4.1l0.9,0.3l-0.5,0.6h5
		c-0.9,1.8-2.3,3.2-4.3,4.4c-2,1.1-4.5,1.9-7.6,2.2l-0.5-0.9c2.5-0.2,4.6-0.7,6.5-1.5c-0.4-0.5-0.9-1.1-1.4-1.7l0.7-0.5
		c0.6,0.7,1.1,1.3,1.6,1.8c1.6-0.8,2.7-1.8,3.3-2.9L207.3,225.8L207.3,225.8z M205.9,220.7c-1,0.9-2.2,1.8-3.7,2.6l-0.6-0.6
		c1.9-1,3.5-2.3,4.8-3.8l0.8,0.3l-0.5,0.6h5.5c-2,2.9-5.5,5-10.6,6.5l-0.6-0.8c1.8-0.4,3.5-1.1,5.1-1.8c-0.5-0.5-1.1-0.9-1.8-1.4
		l0.6-0.6c0.9,0.6,1.5,1.2,2,1.6c1.4-0.8,2.6-1.6,3.4-2.5h-4.5v-0.1H205.9z"/>
	<path fill="#E7E1D4" d="M217.5,227c-0.5,1.1-1,2.1-1.6,3.1l-0.7-0.4c0.6-1,1.1-2,1.5-3L217.5,227z M219,223.3
		c0.3-0.5,0.6-1.3,1-2.3l0.8,0.3l-0.9,2h2v0.8h-2.8v1.3h2.4v0.8h-2.4v4c0,0.4-0.1,0.7-0.3,0.8s-0.5,0.2-0.9,0.2s-0.7,0-1,0l-0.2-0.9
		c0.3,0.1,0.6,0.1,0.9,0.1c0.3,0,0.5,0,0.5-0.1c0.1-0.1,0.1-0.2,0.1-0.4v-3.7h-2.7v-0.8h2.7v-1.3h-3v-0.8H219L219,223.3z
		 M218.3,220.2c-0.1-0.3-0.2-0.7-0.3-1.3l0.8-0.1l0.4,1.4h2.4v0.8h-6v-0.8L218.3,220.2L218.3,220.2z M218.1,222.9l-0.8,0.3
		c-0.2-0.6-0.5-1.1-0.8-1.8l0.8-0.3C217.8,222.3,218,222.9,218.1,222.9z M221.6,228.9l-0.7,0.4c-0.5-0.8-0.9-1.5-1.3-2.1l0.7-0.4
		L221.6,228.9z M223.1,223.5h4.8v0.8h-1.8v7.1h-0.9v-7.1H223v0.3c0,2.1-0.1,3.5-0.4,4.4c-0.3,0.9-0.7,1.7-1.4,2.5l-0.8-0.4
		c0.6-0.7,1-1.4,1.3-2.2s0.4-2.2,0.4-4.2v-4.5c1.9-0.1,3.6-0.4,5-0.8l0.4,0.9c-1.3,0.3-2.8,0.6-4.5,0.7v2.5H223.1z"/>
	<path fill="#E7E1D4" d="M232.5,221.5h1.8v0.8h-1.8v1.1l0.6-0.3c0.5,0.9,0.9,1.7,1.4,2.6l-0.9,0.4c-0.4-0.8-0.7-1.6-1.2-2.3v7.6
		h-0.7V225c-0.4,1.1-0.8,2.1-1.4,3.2l-0.8-0.5c0.9-1.6,1.6-3.4,2.1-5.4h-1.8v-0.8h1.9v-2.6h0.9v2.6L232.5,221.5L232.5,221.5z
		 M236.6,225.4c-0.5,1.9-1.3,3.5-2.2,4.9l-0.8-0.4c1-1.5,1.7-3.1,2.1-4.7L236.6,225.4z M237.8,224h-3.3v-0.8h7.7v0.8h-3.5v5.6
		c0,0.7-0.1,1.1-0.3,1.4c-0.2,0.3-0.6,0.4-1.2,0.4c-0.2,0-0.6,0-1.2-0.1l-0.3-1c0.8,0.1,1.3,0.2,1.5,0.2s0.4-0.1,0.5-0.2
		c0.1-0.1,0.2-0.4,0.2-0.7L237.8,224L237.8,224L237.8,224z M241.5,220.8h-6.1V220h6.1V220.8z M242.3,230.1l-0.9,0.2
		c-0.5-1.7-1.1-3.3-1.8-4.8l0.8-0.3C241.1,226.7,241.7,228.3,242.3,230.1z"/>
	<path fill="#E7E1D4" d="M247.1,225.6c-0.7,2-1.3,3.7-1.9,5.1l-0.9-0.4c0.9-2,1.6-3.7,2-5.1L247.1,225.6z M247,222.5l-0.8,0.5
		c-0.5-0.9-1.1-1.9-1.8-3l0.7-0.4C245.8,220.5,246.4,221.5,247,222.5z M253.1,221.2c-0.4-0.7-0.9-1.4-1.3-2l0.7-0.4
		c0.5,0.7,0.9,1.4,1.4,2L253.1,221.2h3.4v0.8h-3.3v2h3v0.8h-3v2h3v0.8h-3v2h3.4v0.8h-7.3v0.9h-0.8v-8c-0.3,0.5-0.6,1-0.9,1.5
		l-0.8-0.4c1.3-2,2.3-3.9,2.8-5.7l0.8,0.3c-0.3,0.8-0.6,1.5-0.9,2.2L253.1,221.2L253.1,221.2z M252.3,222h-3v2h3V222z M252.3,224.8
		h-3v2h3V224.8z M252.3,229.6v-2h-3v2H252.3z"/>
	<path fill="#E7E1D4" d="M260.6,221.3c0.3-0.9,0.6-1.7,0.8-2.5l0.9,0.2l-0.8,2.2h2.5v10h-0.9v-1.1h-3.2v1.2H259v-10.1h1.5v0.1H260.6
		z M259.9,225.1h3.2v-3h-3.2V225.1z M263.2,225.9H260v3.4h3.2V225.9z M266.1,221.8c-0.3,0.8-0.7,1.6-1.2,2.4l-0.8-0.4
		c1-1.7,1.7-3.3,2.2-5l0.8,0.3c-0.2,0.5-0.4,1.2-0.7,2h4l-0.2,8.6c0,0.5-0.1,0.8-0.2,1.1s-0.4,0.4-0.7,0.6c-0.3,0.1-0.9,0.2-1.6,0.2
		h-1.3l-0.3-1c0.7,0.1,1.3,0.1,1.9,0.1s0.9-0.1,1.1-0.3c0.1-0.2,0.2-0.5,0.2-1l0.1-7.3h-3.3V221.8z M268.4,227.1l-0.8,0.5
		c-0.9-1.4-1.6-2.4-2.1-3.2l0.7-0.4L268.4,227.1z"/>
	<path fill="#E7E1D4" d="M280.1,226.3h-2.3c-0.1,1.3-0.4,2.3-1,3.1s-1.6,1.4-3,2l-0.7-0.8c1.3-0.4,2.2-1,2.8-1.7
		c0.6-0.7,0.9-1.6,1-2.7h-3.6v-0.8h11.9v0.8H281v3.5c0,0.2,0,0.4,0.1,0.4c0.1,0.1,0.3,0.1,0.5,0.1h1.9c0.3,0,0.4,0,0.6-0.1
		c0.1-0.1,0.2-0.2,0.3-0.4c0.1-0.2,0.2-0.7,0.3-1.3l0.9,0.4c-0.2,1-0.4,1.7-0.6,1.9s-0.6,0.4-1.2,0.4h-2.1c-0.6,0-1-0.1-1.2-0.3
		s-0.3-0.6-0.3-1.1L280.1,226.3L280.1,226.3z M278.8,220.4l-0.7-1.4l0.9-0.2c0.3,0.5,0.6,1.1,0.9,1.7h5v2.8H284v-1.9h-9.6v2h-0.9v-3
		L278.8,220.4L278.8,220.4z M283,223.7h-7.5v-0.8h7.5V223.7z"/>
	<path fill="#E7E1D4" d="M291.9,223.7c0.7,0.5,1.3,1,1.7,1.3l-0.6,0.6c-0.5-0.4-1.1-0.9-1.7-1.4L291.9,223.7h-0.7v2.3h-0.8v-1.6
		c-0.6,0.6-1.5,1.1-2.5,1.7l-0.6-0.6c1-0.5,2-1.1,2.8-1.8h-2v-2.5h2.4v-0.7h-3.1v-0.8h3.1v-0.9h0.8v0.9h2.8v0.8h-2.8v0.7h2.4v1.5
		c0.9-1.2,1.5-2.4,2-3.8l0.8,0.2c-0.2,0.4-0.3,0.8-0.5,1.2h3.8v0.8H299c-0.4,1.2-0.9,2.1-1.6,2.9c0.7,0.6,1.6,1.1,2.6,1.4l-0.4,0.8
		c-1.1-0.4-2.1-1-2.8-1.6c-0.7,0.6-1.6,1.2-2.8,1.6l-0.5-0.7c1-0.4,1.9-0.9,2.7-1.5c-0.5-0.5-0.8-1.2-1.1-1.9
		c-0.2,0.3-0.4,0.7-0.8,1.1l-0.7-0.4v1L291.9,223.7L291.9,223.7L291.9,223.7z M293.2,227.1H288v-0.7h11.3v0.8h-5.1v1.1h4.1v0.8h-4.1
		v1.3h5.9v0.8h-12.6v-0.8h2.3v-2.6h0.8v2.6h2.6L293.2,227.1L293.2,227.1z M290.4,223v-1h-1.6v1H290.4z M291.2,222v1h1.6v-1H291.2z
		 M298.2,221h-2.5v0.1c0.3,0.8,0.7,1.6,1.2,2.2C297.5,222.6,298,221.9,298.2,221z"/>
	<path fill="#E7E1D4" d="M307.5,221.7h-5.8v-0.8h5.8v-2h0.9v2h5.8v0.8h-5.8v2h4c-0.5,1.1-1.1,2-1.6,2.7c-0.6,0.7-1.2,1.4-2.1,2
		c1.5,0.9,3.3,1.5,5.5,1.9l-0.5,0.9c-2.4-0.5-4.3-1.3-5.7-2.3c-1.3,0.9-3.3,1.7-5.9,2.4l-0.5-0.9c2.4-0.6,4.2-1.3,5.6-2.1
		c-1.2-1-2.3-2.3-3.2-3.9h-1.2v-0.8h4.6v-1.9L307.5,221.7L307.5,221.7z M308,228c1.5-1.1,2.5-2.2,3-3.4h-6
		C305.7,225.9,306.7,227,308,228z"/>
	<path fill="#E7E1D4" d="M318,222.4h-1.8v-0.8h1.8v-2.7h0.9v2.7h1.7v0.8h-1.7v2.8c0.7-0.3,1.2-0.5,1.4-0.6l0.2,0.8l-1.6,0.6v4
		c0,0.6-0.1,0.9-0.3,1.1c-0.2,0.2-0.5,0.3-0.9,0.3s-0.8,0-1.3,0l-0.2-1c0.7,0.1,1.1,0.2,1.3,0.2s0.4,0,0.5-0.1s0.1-0.3,0.1-0.5v-3.6
		c-0.6,0.2-1.1,0.4-1.7,0.6l-0.3-0.8c0.4-0.1,1-0.3,2-0.7v-3.1H318z M324.1,221.5h-2.9v-0.8h2.8v-1.8h0.8v1.8h2.8v0.8h-2.8v1.9h3.7
		v0.8h-8.3v-0.8h3.7v-1.9H324.1z M326.8,225.9h1.7v0.8h-1.7v3.5c0,0.4-0.1,0.7-0.3,0.9c-0.2,0.2-0.5,0.3-1,0.3s-1,0-1.4,0l-0.4-1
		c0.6,0.1,1.1,0.1,1.5,0.1s0.6,0,0.7-0.1s0.2-0.2,0.2-0.4v-3.3h-5.3v-0.8h5.3v-1.4h0.8v1.4H326.8z M324.1,229.1l-0.7,0.6
		c-0.6-0.6-1.3-1.3-2.1-2l0.6-0.6C322.6,227.7,323.3,228.4,324.1,229.1z"/>
	<path fill="#E7E1D4" d="M331.5,232.4l-0.4-0.1c0.3-0.5,0.5-1.1,0.6-1.8c-0.7,0-1-0.9-0.5-1.4s1.5-0.1,1.4,0.6
		C332.6,230.6,332.1,231.7,331.5,232.4z"/>
	<path fill="#E7E1D4" d="M341,228.9v-4.4h-1.6v-0.8h2.5v5.2c0.2,0.1,0.6,0.2,1.1,0.5s1.2,0.5,2.1,0.6s1.9,0.2,3,0.2
		c1.2,0,2.5,0,4-0.1l-0.2,0.9c-1.3,0-2.6,0.1-3.8,0.1c-1.2,0-2.3-0.1-3.2-0.2c-0.9-0.1-1.6-0.4-2.2-0.7s-1-0.5-1.2-0.5
		s-0.4,0.1-0.7,0.3c-0.2,0.2-0.5,0.6-0.7,1.1l-0.7-0.5c0.4-0.7,0.8-1.2,1-1.4C340.5,229.1,340.8,229,341,228.9z M342.6,221.7
		l-0.8,0.5c-0.5-0.7-1.1-1.5-2-2.5l0.8-0.5C341.2,220.1,342,221,342.6,221.7z M347,220.9c-0.3-0.7-0.6-1.4-0.8-1.9l0.8-0.2
		c0.4,0.9,0.8,1.7,1,2.2h3.8v0.8h-1.7c-0.5,1.7-1.2,3.1-2,4.1c1.2,1.1,2.2,2.1,3,3l-0.7,0.5c-1-1-2-2-2.9-2.8
		c-0.9,1-2.2,1.9-3.9,2.7l-0.8-0.7c1.7-0.7,3-1.6,4-2.6l-2.8-2.7l0.7-0.5l2.7,2.5c0.7-0.9,1.3-2.1,1.7-3.5h-5.9V221L347,220.9
		L347,220.9L347,220.9z"/>
	<path fill="#E7E1D4" d="M360.1,220.1c-1.4,1.6-3.4,3.1-5.7,4.4l-0.6-0.7c2.8-1.4,4.9-3.1,6.3-5.1l0.8,0.4l-0.2,0.3
		c1.7,2.1,3.7,3.5,5.8,4.2l-0.5,0.8C363.7,223.6,361.8,222.1,360.1,220.1z M357.9,226.8h-3.7V226h11.7v0.8h-6.8
		c-0.7,1.2-1.4,2.2-2,3l5.8-0.4c-0.3-0.3-0.7-0.8-1.3-1.4l0.7-0.5c1.1,1.2,2.1,2.3,2.9,3.4l-0.7,0.5c-0.5-0.6-0.8-1-1-1.2l-5.8,0.4
		c-1,0.1-1.7,0.2-2.1,0.3l-0.4-1c0.3,0,0.6-0.1,0.7-0.2c0.1-0.1,0.4-0.4,0.9-1C357.1,228.2,357.5,227.6,357.9,226.8z M363.6,224.4
		h-7v-0.8h7V224.4z"/>
	<path fill="#E7E1D4" d="M372.6,220.4h-4.2v-0.8h12.2v0.8h-4.2v3.8h4v0.8h-10.2c0,2.7-0.4,4.9-1.2,6.4l-0.9-0.3
		c0.5-0.9,0.8-1.9,1-2.9s0.3-2.4,0.2-4.1h3.3L372.6,220.4L372.6,220.4z M371.8,223.5l-0.9,0.3c-0.4-0.9-0.9-1.7-1.5-2.5l0.8-0.3
		C370.6,221.5,371.1,222.4,371.8,223.5z M375.5,220.4h-1.9v3.8h1.8v-3.8H375.5z M379.7,221.2c-0.7,1.2-1.2,2.1-1.6,2.7l-0.8-0.4
		c0.7-0.9,1.2-1.7,1.6-2.6L379.7,221.2z"/>
	<path fill="#E7E1D4" d="M388.4,220.2c-1.5,0.1-3,0.1-4.5,0.1l-0.1-0.8c3.2,0,6.5-0.1,10-0.4l0.2,0.8c-1.3,0.1-2.9,0.2-4.7,0.3v1h6
		v0.8h-6v0.9h4.6v4.2h-4.6v1h4.8v0.8h-4.8v1.1h6v0.8h-12.8V230h5.9v-1.1h-4.8v-0.8h4.8v-1h-4.6v-4.2h4.6V222h-6v-0.8h6V220.2z
		 M388.4,224.7v-1h-3.8v1H388.4z M388.4,226.4v-1h-3.8v1H388.4z M389.2,223.7v1h3.8v-1H389.2z M389.2,225.4v1h3.8v-1H389.2z"/>
	<path fill="#E7E1D4" d="M399.6,228.8c-0.7,0.8-1.4,1.5-2.1,2.1l-0.6-0.5c0.8-0.6,1.5-1.3,2.1-2L399.6,228.8z M400.6,224l-0.4-0.8
		l0.6-0.1h-3.1v-3.7h6.5v3.7h-3.1c0.1,0.2,0.2,0.5,0.3,0.9h3.5v0.8h-8v-0.8L400.6,224L400.6,224z M401.5,228.1v2.2
		c0,0.5-0.1,0.8-0.3,0.9c-0.2,0.2-0.5,0.2-0.9,0.2s-0.8,0-1.1,0l-0.3-0.9c0.4,0,0.8,0,1,0s0.4,0,0.5-0.1s0.1-0.2,0.1-0.5v-2h-2.8
		v-2.6h6.1v2.6h-2.3L401.5,228.1L401.5,228.1z M403.5,220.9v-0.8h-5.1v0.8H403.5z M398.4,221.6v0.8h5.1v-0.8H398.4z M403.3,227.4
		v-1.2h-4.7v1.2H403.3z M404.6,229.9l-0.6,0.6c-0.4-0.4-1-0.9-1.8-1.6l0.5-0.6C403.6,229,404.2,229.5,404.6,229.9z M409.7,226.6
		c-0.6,1-1.2,1.8-1.9,2.6c-0.7,0.7-1.6,1.5-2.7,2.4l-0.7-0.7c2-1.4,3.5-3,4.4-4.8L409.7,226.6z M409.3,223.2c-1.2,1.6-2.5,2.9-4,3.9
		l-0.6-0.7c1.4-0.9,2.7-2.2,3.9-3.8L409.3,223.2z M409.1,219.5c-0.9,1.5-2.1,2.7-3.6,3.8l-0.6-0.7c1.3-0.9,2.5-2.1,3.4-3.6
		L409.1,219.5z"/>
	<path fill="#E7E1D4" d="M412.8,227.9v1.5h-0.9v-9.3h3v8.9H414v-1.1L412.8,227.9L412.8,227.9z M414.1,227v-6h-1.3v6H414.1z
		 M418.5,220.4c0.3-0.6,0.6-1.1,0.7-1.7l0.9,0.2c-0.2,0.5-0.4,1-0.7,1.5h4v9.5c0,0.6-0.1,1-0.3,1.3c-0.2,0.2-0.6,0.4-1.2,0.4
		s-1,0-1.2,0l-0.2-0.9c0.3,0,0.7,0.1,1.1,0.1s0.7-0.1,0.8-0.2c0.1-0.1,0.2-0.3,0.2-0.7v-8.5h-5.8v10.1h-0.9v-11.1L418.5,220.4
		L418.5,220.4z M421.5,228.4h-3.6V223h3.6V228.4z M420.6,227.6v-3.7h-1.9v3.7H420.6z"/>
	<path fill="#E7E1D4" d="M428,223.9c-0.2-0.4-0.6-1.1-1.1-2.2l0.8-0.4c0.5,0.9,0.9,1.7,1.2,2.3l-0.5,0.2h1.8
		c0.5-0.9,0.8-1.7,1.1-2.6l0.9,0.3c-0.3,0.6-0.6,1.4-1,2.3h2v0.8h-7.3v-0.8L428,223.9L428,223.9z M429.3,220.4
		c-0.2-0.5-0.5-0.9-0.7-1.3l0.8-0.4c0.3,0.6,0.6,1.1,0.9,1.7h2.4v0.8h-6.4v-0.8H429.3z M427.7,230.2v1h-0.8V226h5.4v5h-0.9v-0.8
		H427.7z M431.4,229.4v-2.5h-3.6v2.5H431.4z M436.6,224c1.1,0.8,1.7,1.8,1.7,3c0,1-0.2,1.7-0.5,2c-0.3,0.4-0.9,0.6-1.6,0.6
		c-0.3,0-0.6,0-1,0l-0.3-1c0.4,0.1,0.8,0.1,1.1,0.1c0.7,0,1.1-0.1,1.2-0.4c0.1-0.3,0.2-0.7,0.2-1.2s-0.1-1-0.4-1.4s-0.7-0.9-1.3-1.5
		l1.4-4h-2.6v11.3h-0.8v-12.1h4.7L436.6,224z"/>
	<path fill="#E7E1D4" d="M445.3,219.2c-0.6,1.4-1.2,2.5-1.8,3.3c-0.7,0.8-1.5,1.6-2.5,2.3l-0.7-0.6c1-0.7,1.9-1.4,2.5-2.2
		c0.7-0.8,1.2-1.8,1.7-3.1L445.3,219.2z M444.4,224.8h-2.3V224h8.5l-0.2,5.3c0,0.7-0.2,1.2-0.4,1.5c-0.2,0.3-0.7,0.4-1.4,0.4
		s-1.4,0-2-0.1l-0.3-1c0.8,0.1,1.4,0.2,1.9,0.2s0.9-0.1,1-0.2c0.1-0.1,0.2-0.4,0.2-0.8l0.1-4.4h-4.3c-0.1,1.7-0.5,3.1-1.2,4.1
		s-1.8,1.9-3.2,2.6l-0.6-0.8c1.4-0.6,2.4-1.4,3-2.3C444,227.6,444.3,226.4,444.4,224.8z M452.9,223.9l-0.8,0.8c-1-0.5-1.8-1.2-2.5-2
		s-1.3-2-1.8-3.5l0.8-0.3c0.6,1.5,1.2,2.6,1.8,3.3C451.1,222.9,451.9,223.5,452.9,223.9z"/>
	<path fill="#E7E1D4" d="M466.3,229.9c0,0.6-0.1,1.1-0.4,1.3s-1,0.3-2.3,0.2l-0.3-0.9c0.5,0,0.9,0,1.3,0s0.6-0.1,0.7-0.2
		c0.1-0.1,0.2-0.3,0.2-0.6v-9.4h-9.1v11.1h-0.9v-11.9h10.8L466.3,229.9L466.3,229.9z M459.5,225.1l1.4,2.6l-0.8,0.4
		c-0.4-0.9-0.7-1.6-1-2.1c-0.5,1-1.2,2.1-1.9,3.2l-0.7-0.4c0.9-1.2,1.6-2.5,2.2-3.7c-0.7-1.4-1.3-2.6-1.9-3.5l0.7-0.3l1.6,2.9
		c0.4-1.1,0.8-2.2,1.1-3.2l0.8,0.3C460.5,222.7,460,224,459.5,225.1z M462.8,224.4c0.4-1,0.8-2.1,1.1-3.3l0.8,0.3
		c-0.4,1.5-0.9,2.8-1.4,4l1.8,3.4l-0.8,0.4c-0.7-1.5-1.2-2.5-1.4-2.8c-0.6,1.2-1.3,2.4-2.1,3.5l-0.7-0.4c0.9-1.3,1.7-2.7,2.3-4
		c-0.4-0.9-1-1.9-1.5-3l0.7-0.3L462.8,224.4z"/>
	<path fill="#E7E1D4" d="M475.8,223.9c0.1,2.2-0.3,3.9-1.3,5c-0.9,1.1-2.6,1.9-4.9,2.6l-0.6-0.8c2.1-0.5,3.7-1.2,4.6-2.1
		c0.9-0.9,1.3-2.4,1.2-4.6L475.8,223.9L475.8,223.9L475.8,223.9z M474.8,220.4h-5.5v-0.8h12.2v0.8h-5.7l-0.2,1.8h4.5v6h-0.9V223
		h-7.5v5.3h-0.9v-6.1h3.9L474.8,220.4z M481.4,230.9l-0.6,0.8c-1.3-0.9-3.1-2-5.3-3.2l0.6-0.7C478.7,229.2,480.5,230.2,481.4,230.9z
		"/>
	<path fill="#E7E1D4" d="M489.7,224.6c-0.6,1.4-1.8,2.7-3.6,3.7l-0.6-0.7c1.4-0.8,2.3-1.6,2.9-2.6c0.6-0.9,0.9-2.1,0.9-3.4h-4.1v9.9
		h-0.9v-10.7h5.1c0-0.6,0-1.2,0-1.9h0.9c0,0.7,0,1.3,0,1.9h5v8.9c0,0.7-0.1,1.2-0.4,1.5c-0.3,0.2-0.7,0.4-1.5,0.4
		c-0.2,0-0.6,0-1.2-0.1l-0.3-1c0.7,0.1,1.1,0.2,1.5,0.2s0.5-0.1,0.7-0.2c0.1-0.1,0.2-0.4,0.2-0.8v-8h-4.2c0,0.7-0.1,1.4-0.2,2
		c1.6,1.5,2.9,2.8,4,4l-0.8,0.6C492.3,227.1,491.1,225.9,489.7,224.6z"/>
	<path fill="#E7E1D4" d="M504.2,223.8c-1.4,1.5-3.4,2.8-6,3.8l-0.5-0.8c2.9-1,5-2.5,6.4-4.4l0.8,0.5l-0.2,0.3c0.8,0.8,1.6,1.4,2.4,2
		c0.9,0.6,2,1.1,3.3,1.6l-0.6,0.8c-1.5-0.7-2.6-1.3-3.4-1.8C505.8,225.2,505,224.5,504.2,223.8z M503.7,220.2
		c-0.2-0.4-0.4-0.8-0.5-1.1l0.8-0.3l0.7,1.4h5.2v2.6H509v-1.7h-9.9v1.7h-0.9v-2.6L503.7,220.2L503.7,220.2z M502.9,222
		c-1,1-2.3,2-3.9,2.9l-0.6-0.7c1.5-0.8,2.7-1.6,3.7-2.7L502.9,222z M501,230.9v0.6h-0.9v-4.6h8v4.6h-0.8v-0.6H501z M507.4,230v-2.4
		H501v2.4H507.4z M509.9,224l-0.7,0.6c-0.8-0.7-2.1-1.5-3.7-2.4l0.6-0.6C507.4,222.4,508.7,223.2,509.9,224z"/>
	<path fill="#E7E1D4" d="M514.3,221.3c0.3-0.9,0.6-1.7,0.8-2.5l0.9,0.2l-0.8,2.2h2.5v10h-0.9v-1.1h-3.2v1.2h-0.8v-10.1h1.5V221.3z
		 M513.7,225.1h3.2v-3h-3.2V225.1z M516.9,225.9h-3.2v3.4h3.2V225.9z M519.8,221.8c-0.3,0.8-0.7,1.6-1.2,2.4l-0.8-0.4
		c1-1.7,1.7-3.3,2.2-5l0.8,0.3c-0.2,0.5-0.4,1.2-0.7,2h4l-0.2,8.6c0,0.5-0.1,0.8-0.2,1.1c-0.1,0.3-0.4,0.4-0.7,0.6
		c-0.3,0.2-0.9,0.2-1.6,0.2h-1.3l-0.3-1c0.7,0.1,1.3,0.1,1.9,0.1c0.6,0,0.9-0.1,1.1-0.3c0.1-0.2,0.2-0.5,0.2-1l0.1-7.3h-3.3V221.8z
		 M522.2,227.1l-0.8,0.5c-0.9-1.4-1.6-2.4-2.1-3.2l0.7-0.4L522.2,227.1z"/>
	<path fill="#E7E1D4" d="M534,230.2v-5h0.9v5h4.3v0.8h-12.6v-0.8h4.2v-5h0.9v5H534z M530.3,229.2l-0.9,0.3c-0.7-1.4-1.3-2.5-1.9-3.4
		l0.7-0.4C528.9,226.7,529.6,227.9,530.3,229.2z M537.6,224.8h-9.3v-5.2h9.3V224.8z M536.6,221.8v-1.4h-7.5v1.4H536.6z M529.2,222.6
		v1.4h7.5v-1.4H529.2z M538.4,226.1c-0.6,1.1-1.4,2.3-2.3,3.5l-0.8-0.4c0.9-1,1.6-2.2,2.3-3.4L538.4,226.1z"/>
	<path fill="#E7E1D4" d="M544.9,225.6c-0.9,1.7-1.9,3.3-3.1,4.8l-0.7-0.5c1.2-1.5,2.2-3,3-4.6L544.9,225.6z M547,224.1h-5.8v-0.8
		h12.5v0.8H548v5.8c0,1.1-0.6,1.6-1.7,1.6c-0.5,0-1,0-1.4,0l-0.3-0.9c0.6,0,1.1,0.1,1.5,0.1s0.6-0.1,0.8-0.2
		c0.1-0.1,0.2-0.4,0.2-0.7L547,224.1L547,224.1z M552.3,220.6h-9.9v-0.8h9.9V220.6z M553.9,229.8l-0.9,0.5c-0.7-1.2-1.7-2.7-3.1-4.4
		l0.7-0.5C551.9,227,552.9,228.5,553.9,229.8z"/>
	<path fill="#E7E1D4" d="M556.8,230.4c-0.8,0-1.2-0.9-0.6-1.5c0.5-0.6,1.5-0.1,1.5,0.6C557.6,230,557.2,230.4,556.8,230.4z"/>
	<path fill="#E7E1D4" d="M566.4,223.6c-0.4,0.7-0.8,1.5-1.3,2.4l-0.8-0.5c1.5-2.3,2.5-4.5,3-6.6l0.8,0.2c-0.3,1-0.6,1.8-0.8,2.6v10
		h-0.9V223.6z M570.6,221.1h6.3v0.8h-4.6v2.3h4.2v0.8h-4.2v2.3h4.2v0.8h-4.2v3.3h-0.9v-9.6h-1.2c-0.4,1-0.9,2-1.6,3.1l-0.8-0.4
		c1.2-1.9,2-3.9,2.5-5.8l0.9,0.2C571,219.9,570.8,220.6,570.6,221.1z"/>
	<path fill="#E7E1D4" d="M584,222.1c0.1-1,0.2-2.1,0.2-3.3h0.9c0,1.3-0.1,2.4-0.2,3.3h5.9l-0.4,6.6c-0.1,1.2-0.3,1.9-0.7,2.2
		s-1,0.4-1.6,0.4c-0.9,0-1.6,0-2.2-0.1l-0.3-1c1,0.1,1.8,0.2,2.4,0.2c0.5,0,0.9-0.1,1.2-0.4c0.3-0.3,0.4-0.7,0.4-1.4l0.3-5.7h-5
		c-0.3,2-0.8,3.6-1.6,4.9c-0.8,1.3-2,2.5-3.6,3.5l-0.8-0.6c1.6-1.1,2.7-2.2,3.5-3.3c0.8-1.2,1.3-2.6,1.5-4.4h-4.8v-0.8L584,222.1
		L584,222.1L584,222.1z M583,221.2l-0.7,0.5c-0.7-0.7-1.4-1.4-2.2-2.2l0.6-0.5C581.5,219.8,582.3,220.5,583,221.2z M588.5,227.3
		l-0.8,0.5c-0.7-0.8-1.6-1.7-2.6-2.7l0.7-0.5C586.5,225.4,587.4,226.3,588.5,227.3z"/>
	<path fill="#E7E1D4" d="M21.3,243.7H8.8v-0.9h12.5V243.7z"/>
	<path fill="#E7E1D4" d="M27.5,240.2c-0.9,0.9-2.1,1.9-3.6,2.9l-0.7-0.6c2-1.2,3.7-2.7,5-4.4l0.9,0.4c-0.4,0.5-0.7,0.8-0.8,0.9h6.2
		c-0.8,1.3-1.7,2.3-2.7,3.2s-2.2,1.7-3.6,2.4h6.5v5.7h-0.9v-0.9h-7.2v0.9h-0.9V246c-0.8,0.3-1.5,0.6-2.1,0.8L23,246
		c2.1-0.6,3.9-1.3,5.5-2.3c-0.5-0.5-1.2-1.1-2.1-1.8l0.7-0.5c0.7,0.6,1.5,1.2,2.2,1.8c1.5-0.9,2.7-2,3.6-3.2h-5.4
		C27.5,240,27.5,240.2,27.5,240.2z M33.8,249.1v-3.2h-7.2v3.2H33.8z"/>
	<path fill="#E7E1D4" d="M42.6,247.9l-2,1.6c-0.4,0.4-0.8,0.7-1,0.9l-0.7-0.7c0.2-0.1,0.3-0.3,0.3-0.4c0-0.1,0.1-0.2,0.1-0.4v-5.2
		h-1.8v-0.8h2.6v5.8l1.8-1.5L42.6,247.9z M41.2,240.6l-0.8,0.5c-0.5-0.7-1.2-1.5-2-2.4l0.7-0.5C39.9,239.2,40.6,240,41.2,240.6z
		 M45.8,248.8c-1,0.8-2.4,1.5-4.1,2l-0.6-0.8c1.6-0.5,3-1.1,4-1.8c-1.1-1-1.9-2.1-2.4-3.4H42V244h7.1c-0.6,1.8-1.5,3.2-2.6,4.2
		c1,0.7,2.3,1.3,3.8,1.8l-0.6,0.8C48.2,250.3,46.9,249.6,45.8,248.8z M50.1,243.2h-1.2c-0.5,0-0.9-0.1-1.1-0.2
		c-0.2-0.2-0.3-0.5-0.3-1.1v-2.3h-3c0,1.1-0.2,1.9-0.4,2.4c-0.3,0.5-0.8,1-1.6,1.6l-0.7-0.6c0.7-0.4,1.1-0.8,1.4-1.2
		c0.3-0.4,0.4-1.1,0.4-2.1c0-0.3,0-0.6,0-0.9h4.9c0,0.9,0,1.5,0,1.9c0,0.9,0,1.4,0.1,1.5c0,0.1,0.1,0.1,0.2,0.2
		c0.1,0,0.2,0.1,0.3,0.1h1.3v0.7L50.1,243.2L50.1,243.2z M45.8,247.8c0.9-0.8,1.6-1.8,2-2.9h-4.2C44,245.8,44.8,246.9,45.8,247.8z"
		/>
	<path fill="#E7E1D4" d="M57.4,248.6l-2.2,1.3c-0.3,0.2-0.6,0.5-0.9,0.8l-0.8-0.7c0.2-0.2,0.3-0.3,0.4-0.4c0.1-0.1,0.1-0.2,0.1-0.4
		v-5.4h-2V243h2.9v6l2.3-1.3L57.4,248.6z M55.6,241.4l-0.9,0.4c-0.5-1.1-1.1-2.1-1.8-3.2l0.8-0.4C54.4,239.3,55,240.3,55.6,241.4z
		 M61,242.6h3.6v0.8H61v7.2h-0.9v-7.1h-3.5v-0.8h3.6v-4.5h0.9L61,242.6L61,242.6L61,242.6z"/>
	<path fill="#E7E1D4" d="M70.2,244c0,1.9-0.2,3.2-0.5,4.1c-0.4,0.8-1,1.7-1.8,2.7l-0.8-0.5c0.8-0.8,1.4-1.6,1.8-2.4
		c0.4-0.8,0.6-2.1,0.6-3.9v-5.8h0.8L70.2,244L70.2,244L70.2,244z M68.1,247.4h-0.8v-8h0.8V247.4z M74.4,239.6h-3.6v-0.8h8v0.8h-3.6
		v2.1h3v5.3c0,0.6-0.1,0.9-0.4,1.2c-0.2,0.2-0.7,0.3-1.4,0.3c-0.2,0-0.4,0-0.7,0l-0.3-0.9c0.6,0.1,1,0.1,1.2,0.1s0.4-0.1,0.5-0.2
		c0.1-0.1,0.2-0.3,0.2-0.6v-4.4h-2.1v8.3h-0.9v-8.3h-2.1v6h-0.9v-6.8h3v-2.1L74.4,239.6L74.4,239.6z"/>
	<path fill="#E7E1D4" d="M81.8,251.7l-0.4-0.1c0.3-0.5,0.5-1.1,0.6-1.8c-0.7,0-1-0.9-0.5-1.4s1.5-0.1,1.4,0.6
		C82.8,249.9,82.4,251,81.8,251.7z"/>
	<path fill="#E7E1D4" d="M93,239.9c-0.9,0.1-1.7,0.2-2.7,0.2l-0.2-0.9c2.1,0,3.9-0.3,5.6-0.7l0.4,0.8c-0.8,0.2-1.6,0.3-2.2,0.4v2.3
		H97c-0.1-1.2-0.1-2.5-0.2-3.9h0.9c0,1.4,0.1,2.8,0.2,3.9h4.6v0.8H98c0.1,1.4,0.4,2.7,0.8,3.7c0.8-0.8,1.5-1.8,2.1-3l0.8,0.5
		c-0.8,1.4-1.6,2.5-2.6,3.4c0.3,0.6,0.7,1.2,1.1,1.6s0.7,0.7,1,0.7c0.2,0,0.3-0.1,0.4-0.4c0.1-0.3,0.2-0.7,0.3-1.3l0.9,0.5
		c-0.2,0.9-0.3,1.5-0.5,1.8s-0.5,0.4-0.9,0.4s-0.8-0.2-1.4-0.6c-0.5-0.4-1-1.1-1.5-2.1c-0.8,0.6-1.8,1.3-3.1,1.9l-0.6-0.7
		c1.4-0.6,2.5-1.3,3.4-2c-0.4-1.2-0.7-2.6-0.9-4.4h-3.5v2.4c1.3-0.3,2.2-0.5,2.5-0.7l-0.1,0.9l-2.4,0.6v3.3c0,0.4-0.1,0.7-0.3,0.9
		c-0.2,0.2-0.6,0.3-1.1,0.3s-0.9,0-1.4,0l-0.2-0.9c0.7,0.1,1.2,0.1,1.4,0.1s0.4,0,0.5-0.1s0.1-0.2,0.1-0.4v-3l-2.8,0.7l-0.3-0.9
		l3.1-0.7v-2.6h-3v-0.8h3v-2H93z M101.8,241.1l-0.8,0.5c-0.5-0.6-1.3-1.4-2.3-2.4l0.7-0.5C100.3,239.6,101.1,240.4,101.8,241.1z"/>
	<path fill="#E7E1D4" d="M108.1,243.4h-3.7v-0.8h4.3c0.3-0.5,0.6-1,0.9-1.4l0.8,0.3c-0.3,0.5-0.6,0.9-0.7,1.1h7.1v0.8h-7.6
		c-0.4,0.6-1,1.3-1.6,1.9h3v-1.5h0.9v1.5h4.1v2.9c0,0.6-0.1,1-0.3,1.3c-0.2,0.3-0.8,0.4-1.7,0.4h-1l-0.4-0.9c0.6,0,1.1,0.1,1.5,0.1
		s0.7-0.1,0.8-0.2c0.1-0.1,0.2-0.3,0.2-0.7v-2.1h-3.2v4.6h-0.9v-4.6h-3.2v3.7h-0.9v-3.5c-0.4,0.3-0.9,0.8-1.5,1.3l-0.7-0.6
		C105.8,246.1,107.1,244.8,108.1,243.4z M111,239.7c1.2-0.5,2.4-1.1,3.4-1.8l0.6,0.6c-0.9,0.5-1.9,1-2.9,1.5l3.9,1.4l-0.5,0.8
		c-1.4-0.5-2.9-1.1-4.5-1.6c-1.3,0.5-3.1,1.1-5.2,1.8l-0.4-0.8c1.8-0.5,3.3-1,4.5-1.5l-3.8-1.2l0.4-0.7
		C108,238.7,109.6,239.2,111,239.7z"/>
	<path fill="#E7E1D4" d="M124.6,246.1h-5.2v-0.8h11.5v0.8h-5.3v1.3h4.4v0.8h-4.4v1.5h5.8v0.8h-12.6v-0.8h5.8v-1.4h-4.3v-0.8h4.3
		L124.6,246.1L124.6,246.1z M121.6,239.5c-0.1-0.4-0.3-0.8-0.5-1.3l0.8-0.3c0.3,0.7,0.5,1.2,0.6,1.5h2.4v0.8H121v2.7l3.4-0.8
		l0.1,0.8l-3.2,0.8c-0.4,0.1-0.7,0.2-1.1,0.4l-0.4-0.8c0.3-0.1,0.4-0.2,0.4-0.4v-2.6h-1.4v-0.8H121.6z M126.1,243
		c-0.2,0.7-0.7,1.3-1.5,2l-0.7-0.6c0.7-0.4,1.1-0.8,1.3-1.2c0.2-0.4,0.3-1.1,0.3-2.1v-2.2h5.3v4.4c0,0.5-0.1,0.8-0.2,1
		s-0.4,0.3-0.6,0.4c-0.3,0-0.8,0.1-1.6,0.1l-0.4-0.9c0.4,0,0.7,0.1,1.2,0.1s0.7-0.1,0.7-0.2c0.1-0.1,0.1-0.3,0.1-0.6l0,0h-3.9V243z
		 M129.9,241.3h-3.6c0,0.4,0,0.7,0,0.9h3.7v-0.9H129.9z M126.3,240.5h3.6v-0.9h-3.6C126.3,239.6,126.3,240.5,126.3,240.5z"/>
	<path fill="#E7E1D4" d="M139.4,242.2c-0.3,1.8-0.9,3.3-1.8,4.6c-0.9,1.3-2.2,2.6-3.8,3.9l-0.7-0.7c2-1.4,3.5-3,4.5-4.8
		c0.9-1.8,1.4-4.1,1.4-6.9h0.9c0,0.7-0.1,1.3-0.1,1.7c0.9,4.7,2.9,7.9,6.1,9.9l-0.7,0.9C142.1,248.5,140.2,245.6,139.4,242.2z"/>
	<path fill="#E7E1D4" d="M149.3,243.3c-0.3,0.6-0.7,1.2-1.2,1.9l-0.8-0.4c1.4-2,2.4-4.2,3.1-6.6l0.8,0.2c-0.4,1.3-0.8,2.3-1.1,3.1
		v9.3h-0.9L149.3,243.3L149.3,243.3z M152.6,250.8h-0.9v-10.5h0.9V250.8z M154.4,240.4l-0.8,0.4c-0.5-0.8-1-1.6-1.6-2.2l0.7-0.4
		C153.6,239.2,154.1,239.9,154.4,240.4z M159.4,249c0,0.7-0.1,1.2-0.4,1.5c-0.2,0.3-0.7,0.4-1.4,0.4h-1.3l-0.3-1
		c0.7,0.1,1.2,0.2,1.5,0.2c0.6,0,1-0.3,1-1v-9.1h-3.7v-0.8h4.6L159.4,249L159.4,249z"/>
	<path fill="#E7E1D4" d="M166,240.9h-3.6v-0.8h4.1c0.3-0.6,0.6-1.3,0.8-2l0.9,0.2c-0.3,0.7-0.5,1.3-0.7,1.8h7v0.8h-7.4
		c-0.6,1.2-1.4,2.3-2.2,3.4v6.4h-0.8v-5.4c-0.5,0.6-1,1.1-1.5,1.5l-0.7-0.6C163.6,244.6,165,242.8,166,240.9z M169.4,245.1h-3.2
		v-0.8h3.2v-2.5h0.9v2.5h3.4v0.8h-3.4v4h4.1v0.8h-8.9v-0.8h3.9V245.1L169.4,245.1z"/>
	<path fill="#E7E1D4" d="M179.3,245.2c-0.4,1.3-1,3-1.9,5.2l-0.8-0.3c0.9-1.9,1.5-3.7,2-5.3L179.3,245.2z M179.3,243.6l-0.6,0.5
		c-0.7-0.8-1.4-1.4-2-2l0.6-0.5C177.8,242.3,178.5,242.9,179.3,243.6z M179.3,240.3l-0.6,0.5c-0.4-0.4-1.1-1-1.9-1.7l0.6-0.5
		C177.9,239.2,178.5,239.7,179.3,240.3z M182.6,245.7c0.7,1.2,1.3,2.3,1.9,3.5l-0.8,0.4c-0.7-1.3-1.2-2.3-1.6-2.9
		c-0.6,1.3-1.5,2.6-2.7,3.9l-0.8-0.5c1.2-1.3,2.2-2.7,3-4.4c-0.5-0.9-1.2-2-1.9-3.1l0.8-0.4l1.5,2.5c0.4-1,0.7-2.1,0.9-3.4l0.9,0.2
		C183.4,243.1,183,244.5,182.6,245.7z M181.6,240.1c-0.1-0.5-0.3-1-0.6-1.6l0.9-0.2c0.1,0.4,0.3,1,0.6,1.9h1.9v0.8h-4.9v-0.8
		L181.6,240.1L181.6,240.1z M188.1,249.1c0,0.4,0,0.7-0.1,0.9s-0.2,0.4-0.3,0.5c-0.2,0.1-0.4,0.2-0.6,0.2s-0.6,0-1,0s-0.7,0-1,0
		l-0.2-1c0.6,0.1,1,0.1,1.4,0.1s0.6-0.1,0.7-0.2c0.1-0.1,0.2-0.4,0.2-0.8V238h0.9L188.1,249.1L188.1,249.1z M185.8,248h-0.9v-8.2
		h0.9V248z"/>
	<path fill="#E7E1D4" d="M197.4,244.9c-0.1,1.7-0.6,3-1.5,3.8s-2.3,1.5-4.4,1.9l-0.4-0.8c1.9-0.4,3.3-0.9,4.1-1.7
		c0.8-0.7,1.2-1.9,1.3-3.4L197.4,244.9z M192.8,242.8H192v-3.9h0.8V242.8z M201.1,248.1h-0.9v-3.4h-6.5v3.7h-0.9v-4.5h8.5v4.2H201.1
		z M195.7,243.3h-0.8v-5h0.8V243.3z M198.5,239.8h4.7v0.8h-5c-0.3,0.7-0.8,1.4-1.4,2.2l-0.8-0.4c1-1.2,1.7-2.6,2.3-4.3l0.9,0.2
		C198.8,239,198.6,239.5,198.5,239.8z M203.1,248.2c-0.2,0.8-0.3,1.3-0.4,1.5c-0.1,0.2-0.3,0.4-0.6,0.6c-0.3,0.1-0.7,0.2-1.2,0.2
		h-2.5c-0.5,0-0.8-0.1-1-0.3s-0.3-0.5-0.3-1V247h0.9v2c0,0.4,0.2,0.6,0.6,0.6h2.3c0.4,0,0.7-0.1,0.9-0.2c0.1-0.2,0.3-0.6,0.4-1.4
		L203.1,248.2z M202.5,242.8l-0.6,0.7c-1.3-0.7-2.5-1.3-3.6-1.8l0.5-0.7C200,241.6,201.3,242.2,202.5,242.8z"/>
	<path fill="#E7E1D4" d="M208.2,239.9c-0.9,0.1-1.7,0.2-2.7,0.2l-0.2-0.9c2.1,0,3.9-0.3,5.6-0.7l0.4,0.8c-0.8,0.2-1.6,0.3-2.2,0.4
		v2.3h3.1c-0.1-1.2-0.1-2.5-0.2-3.9h0.9c0,1.4,0.1,2.8,0.2,3.9h4.6v0.8h-4.5c0.1,1.4,0.4,2.7,0.8,3.7c0.8-0.8,1.5-1.8,2.1-3l0.8,0.5
		c-0.8,1.4-1.6,2.5-2.6,3.4c0.3,0.6,0.7,1.2,1.1,1.6s0.7,0.7,1,0.7c0.2,0,0.3-0.1,0.4-0.4c0.1-0.3,0.2-0.7,0.3-1.3l0.9,0.5
		c-0.2,0.9-0.3,1.5-0.5,1.8s-0.5,0.4-0.9,0.4s-0.8-0.2-1.4-0.6c-0.5-0.4-1-1.1-1.5-2.1c-0.8,0.6-1.8,1.3-3.1,1.9l-0.6-0.6
		c1.4-0.6,2.5-1.3,3.4-2c-0.4-1.2-0.7-2.6-0.9-4.4h-3.2v2.4c1.3-0.3,2.2-0.5,2.5-0.7l-0.1,0.9l-2.4,0.6v3.3c0,0.4-0.1,0.7-0.3,0.9
		s-0.6,0.3-1.1,0.3s-0.9,0-1.4,0l-0.2-0.9c0.7,0.1,1.2,0.1,1.4,0.1s0.4,0,0.5-0.1s0.1-0.2,0.1-0.4v-3l-2.8,0.7l-0.3-0.9l3.1-0.7
		v-2.6h-3V242h3v-2h-0.1V239.9z M217.1,241.1l-0.8,0.5c-0.5-0.6-1.3-1.4-2.3-2.4l0.7-0.5C215.6,239.6,216.4,240.4,217.1,241.1z"/>
	<path fill="#E7E1D4" d="M221.6,240.6c0.3-0.9,0.6-1.7,0.8-2.5l0.9,0.2l-0.8,2.2h2.5v10h-0.9v-1.1h-3.2v1.2h-0.8v-10.1h1.5V240.6z
		 M221,244.4h3.2v-3H221V244.4z M224.2,245.2H221v3.4h3.2V245.2z M227.1,241.1c-0.3,0.8-0.7,1.6-1.2,2.4l-0.8-0.4
		c1-1.7,1.7-3.3,2.2-5l0.8,0.3c-0.2,0.5-0.4,1.2-0.7,2h4l-0.2,8.6c0,0.5-0.1,0.8-0.2,1.1c-0.1,0.3-0.4,0.4-0.7,0.6
		c-0.3,0.1-0.9,0.2-1.6,0.2h-1.3l-0.3-1c0.7,0.1,1.3,0.1,1.9,0.1s0.9-0.1,1.1-0.3c0.1-0.2,0.2-0.5,0.2-1l0.1-7.3h-3.3V241.1z
		 M229.5,246.4l-0.8,0.5c-0.9-1.4-1.6-2.4-2.1-3.2l0.7-0.4L229.5,246.4z"/>
	<path fill="#E7E1D4" d="M245.7,249.3c0,0.6-0.1,1.1-0.4,1.3c-0.3,0.2-1,0.3-2.3,0.2l-0.3-0.9c0.5,0,0.9,0,1.3,0s0.6-0.1,0.7-0.2
		c0.1-0.1,0.2-0.3,0.2-0.6v-9.3h-9.1v11.1h-0.9V239h10.8V249.3L245.7,249.3z M238.9,244.4l1.4,2.6l-0.8,0.4c-0.4-0.9-0.7-1.6-1-2.1
		c-0.5,1-1.2,2.1-1.9,3.2l-0.7-0.4c0.9-1.2,1.6-2.5,2.2-3.7c-0.7-1.4-1.3-2.6-1.9-3.5l0.7-0.3l1.6,2.9c0.4-1.1,0.8-2.2,1.1-3.2
		l0.8,0.3C239.8,242,239.4,243.3,238.9,244.4z M242.1,243.7c0.4-1,0.8-2.1,1.1-3.3l0.8,0.3c-0.4,1.5-0.9,2.8-1.4,4l1.8,3.4l-0.8,0.4
		c-0.7-1.5-1.2-2.5-1.4-2.8c-0.6,1.2-1.3,2.4-2.1,3.5l-0.7-0.4c0.9-1.3,1.7-2.7,2.3-4c-0.4-0.9-0.9-1.9-1.5-3l0.7-0.3L242.1,243.7z"
		/>
	<path fill="#E7E1D4" d="M251.2,248.4c0.5-2,1-4.1,1.4-6.1l0.9,0.1l-1.4,5.8c0.7-0.1,1.2-0.2,1.8-0.3v0.8c-1.8,0.3-3.6,0.6-5.4,1
		l-0.3-0.9C249.3,248.7,250.3,248.5,251.2,248.4z M254.2,241.6h-5.6v-0.8h5.6V241.6z M251.2,247.2l-0.9,0.2
		c-0.3-1.3-0.6-2.9-1.1-4.8l0.8-0.2C250.5,244.3,250.9,245.9,251.2,247.2z M252.3,240.5l-0.9,0.3c-0.3-0.8-0.6-1.6-0.9-2.5l0.8-0.3
		C251.6,238.6,251.9,239.5,252.3,240.5z M257.5,240.8h3.3v0.8h-3.3v2.6h2.7v6.4h-0.9v-1H255v1.1h-0.9v-6.5h2.4v-6h0.9v2.6
		L257.5,240.8L257.5,240.8z M259.3,248.9v-3.7H255v3.7H259.3z"/>
	<path fill="#E7E1D4" d="M264.3,248.9v1.1h-0.9v-10.5h4v10.4h-0.8V249h-2.3L264.3,248.9L264.3,248.9z M264.3,243.7h2.3v-3.4h-2.3
		V243.7z M266.6,244.5h-2.3v3.4h2.3V244.5z M273.5,240.9h1.8v0.8h-1.8v7.5c0,0.5-0.1,0.8-0.3,1s-0.5,0.4-0.9,0.4s-1,0.1-1.8,0.1
		l-0.3-0.9c0.4,0,0.7,0,1.2,0s0.7,0,0.9-0.1c0.2-0.1,0.3-0.3,0.3-0.6v-7.4h-4.8v-0.8h4.8v-2.7h0.9L273.5,240.9L273.5,240.9z
		 M271.2,246.4l-0.8,0.4c-0.5-1-1.1-2.1-1.9-3.3l0.7-0.4C269.7,244,270.4,245.1,271.2,246.4z"/>
	<path fill="#E7E1D4" d="M282.7,242.1l-4,0.2c-0.5,0-1,0.1-1.3,0.2l-0.3-0.9c0.2,0,0.4-0.1,0.5-0.1c0.1-0.1,0.2-0.1,0.3-0.2
		c0.1-0.1,0.3-0.3,0.5-0.7c0.3-0.4,0.5-0.7,0.7-1s0.4-0.7,0.7-1.3l0.9,0.3c-0.6,0.9-1.2,1.9-2,2.9l3.4-0.1c-0.3-0.5-0.7-1-1-1.5
		l0.7-0.4c0.7,0.9,1.3,2,2,3l-0.9,0.3C282.9,242.5,282.8,242.3,282.7,242.1z M278.8,248.3v2.6h-0.9v-7.6h5v6.1c0,0.4,0,0.7-0.1,0.8
		s-0.2,0.3-0.4,0.4c-0.2,0.1-0.5,0.1-0.9,0.1h-1l-0.3-0.9c0.6,0.1,1.1,0.1,1.3,0.1c0.3,0,0.4,0,0.5-0.1s0.1-0.2,0.1-0.4v-1.2
		L278.8,248.3L278.8,248.3L278.8,248.3z M278.8,245.3h3.3V244h-3.3V245.3z M282.1,246.1h-3.3v1.3h3.3V246.1z M285.2,247
		c1.4-0.4,2.5-0.9,3.6-1.6l0.6,0.6c-1.1,0.7-2.5,1.2-4.1,1.8v1.4c0,0.2,0,0.3,0.1,0.4c0.1,0.1,0.2,0.1,0.4,0.1h2.4
		c0.2,0,0.4-0.1,0.5-0.2c0.1-0.1,0.2-0.6,0.3-1.4l0.8,0.4c-0.2,1-0.4,1.6-0.6,1.8s-0.5,0.3-0.9,0.3h-2.6c-0.6,0-0.9-0.1-1.1-0.3
		s-0.3-0.5-0.3-1.1v-4.7h0.9L285.2,247L285.2,247z M285.2,240.9c1.5-0.6,2.7-1.2,3.5-1.8l0.6,0.7c-0.9,0.5-2.2,1.2-4.1,1.9v1
		c0,0.3,0,0.5,0.1,0.6s0.2,0.2,0.4,0.2h2.4c0.2,0,0.3,0,0.4-0.1s0.2-0.2,0.2-0.4c0.1-0.2,0.1-0.5,0.2-1l0.9,0.3
		c-0.1,0.6-0.2,1.1-0.5,1.4c-0.3,0.3-0.6,0.5-1.2,0.5h-2.4c-0.5,0-0.9-0.1-1.1-0.3s-0.3-0.6-0.3-1.2v-4.5h0.9V240.9z"/>
	<path fill="#E7E1D4" d="M294.2,243.9c-0.7,0.5-1.5,0.9-2.2,1.3l-0.5-0.7c0.9-0.4,1.6-0.8,2.2-1.3c-0.5-0.6-1-1.1-1.6-1.5l0.6-0.6
		c0.6,0.5,1.2,1,1.7,1.6c0.5-0.4,1.1-0.8,1.6-1.3l0.7,0.6c-0.6,0.5-1.2,1-1.8,1.4c0.7,1.1,1.1,2.5,1.1,4.1c0,1.2-0.2,2-0.6,2.5
		s-0.9,0.7-1.6,0.7c-0.4,0-0.8,0-1.1,0l-0.3-0.9c0.8,0,1.2,0.1,1.4,0.1c0.4,0,0.7-0.2,1-0.5c0.2-0.3,0.3-0.9,0.3-1.8
		c0-0.5,0-1-0.1-1.6c-0.7,0.8-1.6,1.6-2.8,2.4l-0.7-0.5c1.4-0.9,2.4-1.9,3.2-2.8C294.7,244.7,294.5,244.3,294.2,243.9z M300.6,240.3
		v0.9h-0.8v-0.9h-3.7v1h-0.8v-1h-3.6v-0.8h3.6v-1.3h0.8v1.3h3.7v-1.3h0.8v1.3h3.6v0.8H300.6z M299.2,244.5h-3.3v-0.8h3.4
		c0-0.6,0.1-1.3,0-2.2h0.9c0,0.9,0,1.7,0,2.2h4v0.8h-4c0,0.1,0,0.2,0,0.3c0.8,2.4,2.2,4.1,4.2,5.1l-0.6,0.8
		c-1.8-1.1-3.1-2.6-3.9-4.4c-0.3,0.9-0.7,1.7-1.2,2.4s-1.3,1.4-2.3,2.1l-0.7-0.7c1.2-0.7,2-1.6,2.6-2.4
		C298.7,246.9,299.1,245.7,299.2,244.5z M303.2,243.1l-0.7,0.5c-0.6-0.7-1.2-1.3-1.8-1.9l0.7-0.5
		C302.1,241.9,302.7,242.5,303.2,243.1z"/>
	<path fill="#E7E1D4" d="M307.9,244.2c-0.4,0.5-0.9,1-1.4,1.6l-0.7-0.6c1.4-1.4,2.5-2.7,3.3-4l0.7,0.4c-0.3,0.5-0.7,1-1.1,1.6v7.6
		h-0.8V244.2z M310.1,238.6c-1,1.2-2,2.3-3.2,3.4l-0.6-0.6c1.3-1.1,2.3-2.2,3.1-3.3L310.1,238.6z M316.2,244.7h-6.1v-0.8h8.4v0.8
		h-1.3v1.1h1.6v0.8h-1.6v2.6c0,0.6-0.1,1-0.4,1.2c-0.2,0.2-0.6,0.3-1,0.3s-0.9,0-1.4,0l-0.3-0.9c0.4,0,0.9,0,1.6,0
		c0.3,0,0.5-0.1,0.6-0.2c0.1-0.1,0.1-0.3,0.1-0.6v-2.4H310v-0.8h6.4v-1.1L316.2,244.7L316.2,244.7z M317.9,243h-7.3v-4.4h7.3V243z
		 M313.8,249l-0.6,0.6c-0.7-0.8-1.3-1.5-2.1-2.2l0.6-0.6C312.3,247.4,313,248.1,313.8,249z M317,240.4v-1h-5.6v1H317z M311.4,241.2
		v1h5.6v-1H311.4z"/>
	<path fill="#E7E1D4" d="M326.4,239.5h-5.7v-0.8H333v0.8h-5.8v1.2h4.8v5.4h-4.8c-0.1,1-0.4,1.8-1,2.4c1.9,0.8,4.2,1.2,7,1.2
		l-0.4,0.9c-3-0.1-5.5-0.6-7.4-1.5c-0.9,0.7-2.4,1.2-4.3,1.6l-0.6-0.8c1.8-0.3,3.2-0.7,4-1.3c-0.6-0.3-1.5-0.9-2.7-1.6l0.7-0.6
		c0.9,0.6,1.8,1.1,2.8,1.6c0.5-0.5,0.9-1.2,1-2h-4.7v-5.4h4.8V239.5L326.4,239.5z M326.4,243.1v-1.5h-3.9v1.5H326.4z M326.4,243.9
		h-3.9v1.4h3.9C326.4,245.2,326.4,244.7,326.4,243.9z M327.2,243.9c0,0.5,0,1,0,1.4h3.9v-1.4H327.2z M327.2,243.1h3.9v-1.5h-3.9
		V243.1z"/>
	<path fill="#E7E1D4" d="M337.1,240.8v-2.6h0.9c0,0.9,0,1.8,0,2.6h3l-0.1,7.1c0,0.9-0.2,1.5-0.5,1.9s-0.9,0.6-1.8,0.6
		c-0.2,0-0.6,0-1.2,0l-0.3-1c0.5,0.1,1.1,0.2,1.6,0.2s0.9-0.1,1-0.4c0.2-0.3,0.2-0.7,0.2-1.3v-6.2h-2c0,2-0.3,3.7-0.7,5.1
		c-0.4,1.4-1,2.7-1.8,3.9l-0.8-0.4c1.6-2,2.4-4.9,2.4-8.7h-2.2v-0.8L337.1,240.8L337.1,240.8z M343.1,249.2v1.4h-0.9v-11.1h4.6v11
		h-0.9v-1.3L343.1,249.2L343.1,249.2z M346,248.4v-8h-2.9v8H346z"/>
	<path fill="#E7E1D4" d="M356.4,245.6h-2.3c-0.1,1.3-0.4,2.3-1,3.1s-1.6,1.4-3,2l-0.7-0.8c1.3-0.4,2.2-1,2.8-1.7
		c0.6-0.7,0.9-1.6,1-2.7h-3.6v-0.8h11.9v0.8h-4.1v3.5c0,0.2,0,0.4,0.1,0.4s0.3,0.1,0.5,0.1h1.9c0.3,0,0.4,0,0.6-0.1
		c0.1-0.1,0.2-0.2,0.3-0.4c0.1-0.2,0.2-0.7,0.3-1.3l0.9,0.4c-0.2,1-0.4,1.7-0.6,1.9s-0.6,0.4-1.2,0.4h-2.1c-0.6,0-1-0.1-1.2-0.3
		s-0.3-0.6-0.3-1.1v-3.4L356.4,245.6L356.4,245.6z M355.1,239.7l-0.7-1.4l0.9-0.2c0.3,0.5,0.6,1.1,0.9,1.7h5v2.8h-0.9v-2.1h-9.6v2
		h-0.9v-2.8H355.1z M359.4,243h-7.5v-0.8h7.5V243z"/>
	<path fill="#E7E1D4" d="M368.3,243c0.7,0.5,1.3,1,1.7,1.3l-0.6,0.6c-0.5-0.4-1.1-0.9-1.7-1.4L368.3,243h-0.7v2.3h-0.8v-1.6
		c-0.6,0.6-1.5,1.1-2.5,1.7l-0.6-0.6c1-0.5,2-1.1,2.8-1.8h-2v-2.5h2.4v-0.7h-3.1v-0.8h3.1v-0.9h0.8v0.9h2.8v0.8h-2.8v0.7h2.4v1.5
		c0.9-1.2,1.5-2.4,2-3.8l0.8,0.2c-0.2,0.4-0.3,0.8-0.5,1.2h3.8v0.8h-0.8c-0.4,1.2-0.9,2.1-1.6,2.9c0.7,0.6,1.6,1.1,2.6,1.4l-0.4,0.8
		c-1.1-0.4-2.1-1-2.8-1.6c-0.7,0.6-1.6,1.2-2.8,1.6l-0.5-0.7c1-0.4,1.9-0.9,2.7-1.5c-0.5-0.5-0.8-1.2-1.1-1.9
		c-0.2,0.3-0.4,0.7-0.8,1.1l-0.7-0.4v1L368.3,243L368.3,243L368.3,243z M369.5,246.4h-5.2v-0.8h11.3v0.8h-5.2v1.1h4.1v0.8h-4.1v1.3
		h5.9v0.8h-12.6v-0.8h2.3V247h0.8v2.6h2.6v-3.2L369.5,246.4L369.5,246.4z M366.8,242.3v-1h-1.6v1H366.8z M367.6,241.3v1h1.6v-1
		H367.6z M374.6,240.3H372v0.1c0.3,0.8,0.7,1.6,1.2,2.2C373.8,241.9,374.3,241.2,374.6,240.3z"/>
	<path fill="#E7E1D4" d="M380.2,240.6c0.3-0.9,0.6-1.7,0.8-2.5l0.9,0.2l-0.8,2.2h2.5v10h-0.9v-1.1h-3.2v1.2h-0.8v-10.1h1.5V240.6z
		 M379.5,244.4h3.2v-3h-3.2V244.4z M382.7,245.2h-3.2v3.4h3.2V245.2z M385.7,241.1c-0.3,0.8-0.7,1.6-1.2,2.4l-0.8-0.4
		c1-1.7,1.7-3.3,2.2-5l0.8,0.3c-0.2,0.5-0.4,1.2-0.7,2h4l-0.2,8.6c0,0.5-0.1,0.8-0.2,1.1s-0.4,0.4-0.7,0.6s-0.9,0.2-1.6,0.2H386
		l-0.3-1c0.7,0.1,1.3,0.1,1.9,0.1s0.9-0.1,1.1-0.3c0.1-0.2,0.2-0.5,0.2-1l0.1-7.3h-3.3L385.7,241.1L385.7,241.1z M387.9,246.4
		l-0.8,0.5c-0.9-1.4-1.6-2.4-2.1-3.2l0.7-0.4L387.9,246.4z"/>
	<path fill="#E7E1D4" d="M394.3,242.9c-0.4,0.6-0.7,1.2-1,1.6l-0.8-0.4c0.6-0.8,1.2-1.7,1.7-2.8s0.9-2.2,1.2-3.2l0.8,0.2
		c-0.3,1-0.7,2-1.1,2.9v9.5h-0.8L394.3,242.9L394.3,242.9z M399,241.6h-3.1v-0.8h3.9v-2.6h0.9v2.6h4.2v0.8h-3.4
		c0.4,1.2,0.9,2.4,1.5,3.4c0.7,1,1.4,1.8,2.3,2.3l-0.8,0.6c-1.7-1.6-3-3.6-3.8-6.1v5.4h2.8v0.8h-2.8v2.5h-0.9V248H397v-0.7h2.8v-5.4
		c-0.8,2.2-2,4.2-3.7,6l-0.8-0.5C397,245.8,398.2,243.9,399,241.6z"/>
	<path fill="#E7E1D4" d="M410.4,246.6v0.8l-3.3,0.7l-0.2-0.8C408,247.2,409.2,247,410.4,246.6z M409.8,244.3l0.5-4.6h-3.4v-0.8h4.3
		l-0.6,5.4h1l-0.4,4.8c0,0.6-0.2,1-0.4,1.2c-0.2,0.2-0.7,0.3-1.3,0.3c-0.3,0-0.7,0-1.5-0.1l-0.2-0.9c0.9,0.1,1.5,0.2,1.7,0.2
		s0.5-0.1,0.6-0.2c0.1-0.1,0.2-0.4,0.2-0.8l0.3-3.7h-3.5l0.4-4.5h0.8l-0.4,3.7L409.8,244.3L409.8,244.3z M415.2,240
		c-0.9,1.5-2.1,2.7-3.4,3.7l-0.8-0.5c1.9-1.3,3.3-3,4.2-5.1l0.9,0.4c-0.1,0.2-0.3,0.5-0.4,0.8c1,1.5,2.2,2.7,3.9,3.5l-0.6,0.7
		C417.4,242.6,416.2,241.4,415.2,240z M416.4,249.5c0.7-1.8,1.3-3.5,1.6-5l0.9,0.2c-0.4,1.6-0.9,3.2-1.6,4.8h2.1v0.8h-7.9v-0.8
		H416.4z M414,248.6l-0.8,0.1c-0.2-1.1-0.5-2.4-1-3.9l0.8-0.2C413.4,245.9,413.7,247.3,414,248.6z M417.8,243.8h-4.9V243h4.9V243.8z
		 M416.2,248.4l-0.9,0.1c-0.2-1.3-0.4-2.5-0.8-3.8l0.8-0.1C415.7,245.6,415.9,247,416.2,248.4z"/>
	<path fill="#E7E1D4" d="M422.5,249.8c-0.8,0-1.2-0.9-0.6-1.5c0.5-0.6,1.5-0.1,1.5,0.6C423.4,249.4,423,249.8,422.5,249.8z"/>
	<path fill="#E7E1D4" d="M434.9,248.2l-1.5,1.3c-0.4,0.3-0.7,0.6-0.9,1l-0.7-0.7c0.3-0.2,0.5-0.5,0.5-0.8v-4.9h-1.8v-0.8h2.7v5.5
		l1.3-1.1L434.9,248.2z M433.9,241.1l-0.8,0.4c-0.5-0.8-1.1-1.7-1.8-2.7l0.7-0.4C432.7,239.2,433.3,240.2,433.9,241.1z M438.2,240.1
		h-3.4v-0.8h3.4v-1.2h0.8v1.2h3.4v0.8H439v0.9h2.9v0.8H439v0.9h3.8v0.8h-8.6v-0.8h3.8v-0.9h-2.9V241h2.9v-0.9H438.2z M436.1,248.6
		v2.2h-0.8v-6.5h6.9v5c0,0.5-0.1,0.8-0.2,1s-0.3,0.3-0.6,0.3c-0.3,0-0.5,0.1-0.9,0.1s-0.6,0-0.9,0l-0.3-0.9c0.8,0.1,1.3,0.1,1.5,0.1
		s0.3,0,0.4-0.1s0.1-0.2,0.1-0.5v-0.8L436.1,248.6L436.1,248.6z M436.1,246h5.2v-0.9h-5.2V246z M441.3,246.9H436v0.9h5.2
		L441.3,246.9L441.3,246.9z"/>
	<path fill="#E7E1D4" d="M446.8,248.5v-4.6H445v-0.8h2.7v5.6c0.2,0.1,0.5,0.2,0.7,0.3c0.5,0.3,1.2,0.5,1.9,0.6
		c0.8,0.1,1.7,0.2,2.9,0.2s2.6,0,4.4-0.1l-0.2,0.9c-1.8,0.1-3.3,0.1-4.5,0.1s-2.1-0.1-2.9-0.2c-0.8-0.1-1.4-0.3-1.9-0.6
		s-0.9-0.4-1.1-0.4s-0.4,0.1-0.6,0.2c-0.2,0.1-0.5,0.5-0.9,1l-0.7-0.5C445.6,249,446.2,248.5,446.8,248.5z M448,241.2l-1,0.3
		c-0.5-1.2-1-2.2-1.4-2.9l0.9-0.3C446.9,238.9,447.4,239.9,448,241.2z M450.5,241.2c-0.2,0.5-0.5,1.1-0.9,1.8l-0.9-0.2
		c0.8-1.2,1.5-2.7,1.9-4.2l0.8,0.2c-0.2,0.7-0.4,1.3-0.6,1.7h1.7v-2.2h0.9v2.2h3.1v0.8h-3.1v2.2h3.7v0.8h-2.8v3
		c0,0.3,0.1,0.4,0.2,0.5s0.3,0.2,0.6,0.2h0.5c0.3,0,0.5,0,0.7-0.1s0.3-0.6,0.4-1.6l0.9,0.4l-0.2,0.9c0,0.3-0.1,0.5-0.2,0.7
		s-0.2,0.3-0.3,0.4c-0.1,0.1-0.3,0.2-0.5,0.2s-0.4,0.1-0.7,0.1h-0.8c-0.9,0-1.4-0.5-1.4-1.4v-3.1h-1.8c0,1-0.2,1.9-0.6,2.5
		c-0.3,0.7-0.9,1.3-1.8,2l-0.8-0.6c0.8-0.5,1.3-1.1,1.7-1.7s0.6-1.4,0.6-2.3h-2.4v-0.8h4.2v-2.2h-2.1L450.5,241.2L450.5,241.2z"/>
	<path fill="#E7E1D4" d="M461.5,246.4c-0.1,0.9-0.2,1.6-0.4,2.2c-0.2,0.6-0.6,1.3-1,2.1l-0.9-0.3c0.6-0.8,1-1.7,1.2-2.6
		c0.2-0.9,0.3-2.3,0.3-4.3V239h10.2v10.4c0,0.5-0.1,0.9-0.4,1.1c-0.3,0.2-0.8,0.4-1.6,0.4c-0.3,0-0.7,0-1.3,0l-0.3-0.9
		c0.5,0,1,0.1,1.5,0.1s0.8,0,0.9-0.1c0.2-0.1,0.2-0.3,0.2-0.5v-2.8h-3.7v4.2h-0.9v-4.2h-3.7v-0.3H461.5z M465.2,243h-3.6
		c0,1,0,1.8,0,2.5h3.6V243z M461.6,242.2h3.6v-2.4h-3.6V242.2z M466.1,242.2h3.8v-2.4h-3.8V242.2z M469.9,243h-3.8v2.5h3.8V243z"/>
	<path fill="#E7E1D4" d="M479.6,239.5h-5.7v-0.8h12.4v0.8h-5.8v1.2h4.8v5.4h-4.8c-0.1,1-0.4,1.8-1,2.4c1.9,0.8,4.2,1.2,7,1.2
		l-0.4,0.9c-3-0.1-5.5-0.6-7.4-1.5c-0.9,0.7-2.4,1.2-4.3,1.6l-0.6-0.8c1.8-0.3,3.2-0.7,4-1.3c-0.6-0.3-1.5-0.9-2.7-1.6l0.7-0.6
		c0.9,0.6,1.8,1.1,2.8,1.6c0.5-0.5,0.9-1.2,1-2h-4.7v-5.4h4.8L479.6,239.5L479.6,239.5z M479.6,243.1v-1.5h-3.9v1.5H479.6z
		 M479.6,243.9h-3.9v1.4h3.9C479.6,245.2,479.6,244.7,479.6,243.9z M480.4,243.9c0,0.5,0,1,0,1.4h3.9v-1.4H480.4z M480.4,243.1h3.9
		v-1.5h-3.9V243.1z"/>
	<path fill="#E7E1D4" d="M490.4,240.8v-2.6h0.9c0,0.9,0,1.8,0,2.6h3l-0.1,7.1c0,0.9-0.2,1.5-0.5,1.9s-0.9,0.6-1.8,0.6
		c-0.2,0-0.6,0-1.2,0l-0.3-1c0.5,0.1,1.1,0.2,1.6,0.2s0.9-0.1,1-0.4c0.2-0.3,0.2-0.7,0.2-1.3v-6.2h-2c0,2-0.3,3.7-0.7,5.1
		c-0.4,1.4-1,2.7-1.8,3.9l-0.8-0.4c1.6-2,2.4-4.9,2.4-8.7H488v-0.8h2.3v0H490.4z M496.4,249.2v1.4h-0.9v-11.1h4.6v11h-0.9v-1.3
		L496.4,249.2L496.4,249.2z M499.2,248.4v-8h-2.9v8H499.2z"/>
	<path fill="#E7E1D4" d="M504.4,240h-1.9v-0.8h4.6v0.8h-1.8v3.2h1.7v0.8h-1.7v3.5l2-0.4l-0.1,0.8c-1.7,0.4-3.3,0.7-4.7,1.1l-0.1-0.9
		c0.7-0.1,1.4-0.2,2-0.4v-3.6h-1.8v-0.8h1.8V240L504.4,240z M510.9,245.8c-0.2,0.9-0.7,1.8-1.3,2.6c-0.6,0.8-1.6,1.6-2.8,2.4
		l-0.7-0.6c1.4-0.9,2.5-1.8,3.1-2.7s1-1.9,1.1-3.1c0.1-1.2,0.2-2.5,0.2-3.7h0.8c0,0.6,0,1.3-0.1,2.3c0,0.9-0.1,1.7-0.2,2.3h0.7v3.8
		c0,0.2,0,0.4,0.1,0.5s0.2,0.1,0.5,0.1h1.3c0.3,0,0.4,0,0.5-0.1s0.1-0.2,0.2-0.4c0-0.2,0.1-0.6,0.1-1.2l0.8,0.4
		c-0.1,0.8-0.2,1.3-0.3,1.5s-0.2,0.4-0.4,0.5s-0.5,0.2-0.9,0.2h-1.5c-0.4,0-0.8-0.1-0.9-0.3c-0.2-0.2-0.3-0.5-0.3-0.9V245.8
		L510.9,245.8z M514.2,246.5h-0.8v-6.9h-4.7v7h-0.9v-7.9h6.4V246.5z"/>
	<path fill="#E7E1D4" d="M519.1,242.6c-0.5,0.9-1,1.7-1.6,2.4l-0.7-0.6c1.4-1.8,2.5-3.9,3.2-6.3l0.9,0.2c-0.3,0.9-0.6,1.7-0.9,2.4
		v10h-0.9V242.6z M523.7,243.3l-3.1,0.4l-0.1-0.9l3.1-0.4c-0.1-1.3-0.2-2.7-0.2-4.2h1c0,0.3,0,0.7,0,1c0,1.1,0.1,2.2,0.2,3.2
		l4.9-0.6l0.1,0.8l-4.9,0.6c0.3,1.5,0.6,2.7,1,3.6c0.4,0.9,0.8,1.6,1.3,2.1s0.9,0.7,1.2,0.7c0.1,0,0.2,0,0.3-0.1s0.2-0.3,0.2-0.6
		s0.1-0.7,0.2-1.2l0.9,0.4c-0.1,1-0.3,1.7-0.5,2.1s-0.6,0.6-1,0.6c-0.5,0-1-0.3-1.7-0.8s-1.2-1.4-1.7-2.4
		C524.4,246.3,524,244.9,523.7,243.3z M528.9,240.7l-0.7,0.6c-0.7-0.7-1.5-1.5-2.3-2.2l0.6-0.6C527.2,239.1,528,239.9,528.9,240.7z"
		/>
	<path fill="#E7E1D4" d="M533.4,240.6c0.3-0.9,0.6-1.7,0.8-2.5l0.9,0.2l-0.8,2.2h2.5v10h-0.9v-1.1h-3.2v1.2h-0.8v-10.1h1.5V240.6z
		 M532.8,244.4h3.2v-3h-3.2V244.4z M536,245.2h-3.2v3.4h3.2V245.2z M539,241.1c-0.3,0.8-0.7,1.6-1.2,2.4l-0.8-0.4
		c1-1.7,1.7-3.3,2.2-5l0.8,0.3c-0.2,0.5-0.4,1.2-0.7,2h4l-0.2,8.6c0,0.5-0.1,0.8-0.2,1.1c-0.1,0.3-0.4,0.4-0.7,0.6
		c-0.3,0.2-0.9,0.2-1.6,0.2h-1.3l-0.3-1c0.7,0.1,1.3,0.1,1.9,0.1s0.9-0.1,1.1-0.3c0.1-0.2,0.2-0.5,0.2-1l0.1-7.3H539V241.1z
		 M541.3,246.4l-0.8,0.5c-0.9-1.4-1.6-2.4-2.1-3.2l0.7-0.4L541.3,246.4z"/>
	<path fill="#E7E1D4" d="M548.6,245.2c-0.4,1.3-1,3-1.9,5.2l-0.8-0.3c0.9-1.9,1.5-3.7,2-5.3L548.6,245.2z M548.7,243.6l-0.6,0.5
		c-0.7-0.8-1.4-1.4-2-2l0.6-0.5C547.3,242.3,548,242.9,548.7,243.6z M548.6,240.3l-0.6,0.5c-0.4-0.4-1.1-1-1.9-1.7l0.6-0.5
		C547.3,239.2,548,239.7,548.6,240.3z M551.9,245.7c0.7,1.2,1.3,2.3,1.9,3.5l-0.8,0.4c-0.7-1.3-1.2-2.3-1.6-2.9
		c-0.6,1.3-1.5,2.6-2.7,3.9l-0.8-0.5c1.2-1.3,2.2-2.7,3-4.4c-0.5-0.9-1.2-2-1.9-3.1l0.8-0.4l1.5,2.5c0.4-1,0.7-2.1,0.9-3.4l0.9,0.2
		C552.8,243.1,552.4,244.5,551.9,245.7z M550.9,240.1c-0.1-0.5-0.3-1-0.6-1.6l0.9-0.2c0.1,0.4,0.3,1,0.6,1.9h1.9v0.8h-4.9v-0.8
		L550.9,240.1L550.9,240.1z M557.5,249.1c0,0.4,0,0.7-0.1,0.9s-0.2,0.4-0.3,0.5c-0.2,0.1-0.4,0.2-0.6,0.2c-0.2,0-0.6,0-1,0
		s-0.7,0-1,0l-0.2-1c0.6,0.1,1,0.1,1.4,0.1s0.6-0.1,0.7-0.2c0.1-0.1,0.2-0.4,0.2-0.8V238h0.9L557.5,249.1L557.5,249.1z M555.2,248
		h-0.9v-8.2h0.9V248z"/>
	<path fill="#E7E1D4" d="M566.8,244.9c-0.1,1.7-0.6,3-1.5,3.8s-2.3,1.5-4.4,1.9l-0.4-0.8c1.9-0.4,3.3-0.9,4.1-1.7
		c0.8-0.7,1.2-1.9,1.3-3.4L566.8,244.9z M562.2,242.8h-0.8v-3.9h0.8V242.8z M570.6,248.1h-0.9v-3.4h-6.5v3.7h-0.9v-4.5h8.5v4.2
		H570.6z M565,243.3h-0.8v-5h0.8V243.3z M567.8,239.8h4.7v0.8h-5c-0.3,0.7-0.8,1.4-1.4,2.2l-0.8-0.4c1-1.2,1.7-2.6,2.3-4.3l0.9,0.2
		C568.2,239,568,239.5,567.8,239.8z M572.5,248.2c-0.2,0.8-0.3,1.3-0.4,1.5c-0.1,0.2-0.3,0.4-0.6,0.6c-0.3,0.1-0.7,0.2-1.2,0.2h-2.5
		c-0.5,0-0.8-0.1-1-0.3s-0.3-0.5-0.3-1V247h0.9v2c0,0.4,0.2,0.6,0.6,0.6h2.3c0.4,0,0.7-0.1,0.9-0.2c0.1-0.2,0.3-0.6,0.4-1.4
		L572.5,248.2z M571.9,242.8l-0.6,0.7c-1.3-0.7-2.5-1.3-3.6-1.8l0.5-0.7C569.4,241.6,570.7,242.2,571.9,242.8z"/>
	<path fill="#E7E1D4" d="M584.2,243.3c-0.5-0.3-0.9-0.5-1.3-0.7l0.4-0.5h-1.8v-3.2h4.4v3.2h-2.2l1.5,0.8l-0.4,0.4h2.3v0.8h-5.2
		c1.4,0.8,3.1,1.3,5.2,1.5l-0.4,0.8c-2.5-0.3-4.6-1-6.1-2.3h-0.2c-0.9,1.1-2.8,1.9-5.7,2.2l-0.3-0.8c2.2-0.2,3.8-0.7,4.8-1.4h-4.6
		v-0.8h5.4c0.3-0.3,0.4-0.8,0.6-1.3l0.9,0.3c-0.1,0.4-0.3,0.8-0.4,1H584.2z M576.6,250v0.7h-0.9v-4.1h4.4v4.1h-0.9V250H576.6z
		 M580,242.2h-4.2v-3.3h4.2V242.2z M579.3,249.2v-1.8h-2.7v1.8H579.3z M579.1,241.4v-1.7h-2.5v1.7H579.1z M582.4,250.1v0.7h-0.8
		v-4.2h4.4v4.1h-0.8V250L582.4,250.1L582.4,250.1L582.4,250.1z M585,249.3v-1.8h-2.7v1.8H585z M585.1,241.3v-1.6h-2.7v1.6H585.1z"/>
	<path fill="#E7E1D4" d="M590.2,249.8c-0.8,0-1.2-0.9-0.6-1.5c0.5-0.6,1.5-0.1,1.5,0.6C591.1,249.4,590.7,249.8,590.2,249.8z
		 M589.4,242.1c0-0.5,0.4-0.9,0.9-0.9s0.8,0.4,0.8,0.9s-0.4,0.8-0.8,0.8C589.8,243,589.4,242.6,589.4,242.1z"/>
	<path fill="#E7E1D4" d="M19.6,260.6h-1.2c-0.5-1.5-1.8-2.4-3.7-2.4c-1.3,0-2.3,0.5-3.2,1.4c-0.8,0.9-1.2,2-1.2,3.4s0.4,2.5,1.2,3.5
		c0.8,0.9,1.9,1.4,3.2,1.4c2.4,0,3.9-1.2,3.9-3.8h-3.7v-1h4.8v0.6c0,1.6-0.4,2.9-1.3,3.8s-2.1,1.4-3.7,1.4s-2.9-0.5-4-1.6
		c-1-1.1-1.6-2.5-1.6-4.2s0.5-3,1.6-4.1c1-1.1,2.4-1.7,4-1.7C17.2,257.4,19,258.5,19.6,260.6z"/>
	<path fill="#E7E1D4" d="M25.1,260.5c1.2,0,2.1,0.4,2.9,1.2c0.7,0.8,1.1,1.8,1.1,3s-0.4,2.2-1.1,3s-1.7,1.2-2.9,1.2
		c-1.2,0-2.1-0.4-2.9-1.2c-0.7-0.8-1.1-1.8-1.1-3s0.4-2.2,1.1-3C23,261,23.9,260.5,25.1,260.5z M22.9,262.4
		c-0.5,0.6-0.8,1.4-0.8,2.3s0.3,1.7,0.8,2.3c0.6,0.6,1.3,0.9,2.2,0.9c0.9,0,1.6-0.3,2.1-0.9s0.8-1.4,0.8-2.3s-0.3-1.7-0.8-2.3
		c-0.5-0.6-1.2-0.9-2.1-0.9S23.5,261.8,22.9,262.4z"/>
	<path fill="#E7E1D4" d="M34.6,260.5c1.2,0,2.1,0.4,2.9,1.2c0.7,0.8,1.1,1.8,1.1,3s-0.4,2.2-1.1,3c-0.7,0.8-1.7,1.2-2.9,1.2
		s-2.1-0.4-2.9-1.2c-0.7-0.8-1.1-1.8-1.1-3s0.4-2.2,1.1-3C32.4,261,33.4,260.5,34.6,260.5z M32.4,262.4c-0.5,0.6-0.8,1.4-0.8,2.3
		s0.3,1.7,0.8,2.3c0.6,0.6,1.3,0.9,2.2,0.9s1.6-0.3,2.1-0.9s0.8-1.4,0.8-2.3s-0.3-1.7-0.8-2.3s-1.2-0.9-2.1-0.9
		C33.7,261.5,33,261.8,32.4,262.4z"/>
	<path fill="#E7E1D4" d="M47.1,260.6v0.9h-1.6c0.4,0.5,0.6,1.1,0.6,1.8c0,0.8-0.3,1.5-0.8,2s-1.3,0.8-2.2,0.8
		c-0.7,0-1.4-0.2-1.9-0.5c-0.3,0.3-0.5,0.6-0.5,1c0,0.6,0.5,0.9,1.2,0.9h2.2c1.7,0,2.5,0.8,2.5,2.2c0,1.6-1.2,2.6-3.2,2.6
		c-2.2,0-3.4-0.9-3.4-2.4c0-0.8,0.3-1.3,0.9-1.6c-0.6-0.3-1.1-0.8-1.1-1.6c0-0.7,0.3-1.2,0.8-1.6c-0.4-0.5-0.5-1-0.5-1.7
		c0-1.7,1.2-2.9,3-2.9c0.4,0,0.8,0.1,1.1,0.2L47.1,260.6L47.1,260.6z M42.4,268.6c-0.8,0-1.3,0.5-1.3,1.4c0,1,0.8,1.6,2.4,1.6
		c1.5,0,2.2-0.6,2.2-1.7c0-0.8-0.6-1.3-1.6-1.3H42.4z M43.1,265.5c1.2,0,2-0.8,2-1.9c0-1.2-0.8-2-2-2s-2,0.8-2,2
		C41.1,264.6,41.9,265.5,43.1,265.5z"/>
	<path fill="#E7E1D4" d="M49.4,257v11.8h-1V257H49.4z"/>
	<path fill="#E7E1D4" d="M58.8,264.6v0.6h-6.4c0.1,1.7,1.2,2.9,2.8,2.9c1.3,0,2.1-0.5,2.5-1.5h1c-0.5,1.6-1.7,2.4-3.5,2.4
		c-1.1,0-2-0.4-2.7-1.2c-0.7-0.8-1.1-1.8-1.1-3s0.3-2.2,1-3s1.6-1.2,2.7-1.2C57.3,260.5,58.8,262,58.8,264.6z M52.4,264.2h5.4
		c0-1.7-1-2.7-2.6-2.7C53.6,261.5,52.5,262.5,52.4,264.2z"/>
	<path fill="#E7E1D4" d="M74.1,260.6h-1.2c-0.5-1.5-1.8-2.4-3.7-2.4c-1.3,0-2.3,0.5-3.2,1.4c-0.8,0.9-1.2,2-1.2,3.4s0.4,2.5,1.2,3.5
		c0.8,0.9,1.9,1.4,3.2,1.4c1.9,0,3.2-0.9,3.7-2.4h1.2c-0.7,2.2-2.4,3.4-4.9,3.4c-1.6,0-2.9-0.5-4-1.6c-1-1.1-1.6-2.5-1.6-4.2
		s0.5-3,1.6-4.1c1-1.1,2.4-1.7,4-1.7C71.7,257.4,73.5,258.5,74.1,260.6z"/>
	<path fill="#E7E1D4" d="M76.9,257v4.8c0.3-0.7,1.2-1.3,2.3-1.3c1.7,0,2.6,1.2,2.6,3v5.2h-1v-5.1c0-1.4-0.7-2.1-1.8-2.1
		c-1.2,0-2.1,1.1-2.1,2.8v4.5h-1V257H76.9L76.9,257z"/>
	<path fill="#E7E1D4" d="M87.9,261.6c-0.7,0-1.2,0.2-1.6,0.7c-0.5,0.5-0.8,1.2-0.8,2.1v4.4h-1v-8h0.9v1.5c0.3-0.8,1.2-1.5,2.4-1.5
		L87.9,261.6L87.9,261.6z"/>
	<path fill="#E7E1D4" d="M92.7,260.5c1.2,0,2.1,0.4,2.9,1.2c0.7,0.8,1.1,1.8,1.1,3s-0.4,2.2-1.1,3s-1.7,1.2-2.9,1.2
		s-2.1-0.4-2.9-1.2c-0.7-0.8-1.1-1.8-1.1-3s0.4-2.2,1.1-3C90.5,261,91.5,260.5,92.7,260.5z M90.5,262.4c-0.5,0.6-0.8,1.4-0.8,2.3
		s0.3,1.7,0.8,2.3c0.6,0.6,1.3,0.9,2.2,0.9s1.6-0.3,2.1-0.9s0.8-1.4,0.8-2.3s-0.3-1.7-0.8-2.3s-1.2-0.9-2.1-0.9
		C91.8,261.5,91.1,261.8,90.5,262.4z"/>
	<path fill="#E7E1D4" d="M109.3,263.6v5.2h-1v-5.1c0-1.4-0.7-2.1-1.8-2.1c-1.2,0-2.1,1-2.1,2.6v4.6h-1v-5.1c0-1.4-0.7-2.1-1.8-2.1
		c-1.2,0-2.1,1.1-2.1,2.8v4.5h-1v-8h0.9v1.2c0.3-0.8,1.2-1.4,2.3-1.4c1.2,0,2,0.5,2.4,1.6c0.4-0.9,1.3-1.6,2.5-1.6
		C108.4,260.5,109.3,261.8,109.3,263.6z"/>
	<path fill="#E7E1D4" d="M118.6,264.6v0.6h-6.4c0.1,1.7,1.2,2.9,2.8,2.9c1.3,0,2.1-0.5,2.5-1.5h1c-0.5,1.6-1.7,2.4-3.5,2.4
		c-1.1,0-2-0.4-2.7-1.2c-0.7-0.8-1.1-1.8-1.1-3s0.3-2.2,1-3s1.6-1.2,2.7-1.2C117.1,260.5,118.6,262,118.6,264.6z M112.1,264.2h5.4
		c0-1.7-1-2.7-2.6-2.7C113.3,261.5,112.2,262.5,112.1,264.2z"/>
	<path fill="#E7E1D4" d="M120.2,271l-0.4-0.1c0.3-0.5,0.5-1.1,0.6-1.8c-0.7,0-1-0.9-0.5-1.4s1.5-0.1,1.4,0.6
		C121.3,269.1,120.9,270.2,120.2,271z"/>
	<path fill="#E7E1D4" d="M138,257.5v11.3h-1.1v-9.1l-0.3,0.8l-3.9,8.3h-0.8l-3.9-8.3l-0.3-0.8v9.1h-1.1v-11.3h1.1l4.2,8.9l0.3,0.8
		l0.4-0.8l4.2-8.9H138z"/>
	<path fill="#E7E1D4" d="M143.9,260.5c1.2,0,2.1,0.4,2.9,1.2c0.7,0.8,1.1,1.8,1.1,3s-0.4,2.2-1.1,3c-0.7,0.8-1.7,1.2-2.9,1.2
		s-2.1-0.4-2.9-1.2c-0.7-0.8-1.1-1.8-1.1-3s0.4-2.2,1.1-3C141.8,261,142.7,260.5,143.9,260.5z M141.8,262.4
		c-0.5,0.6-0.8,1.4-0.8,2.3s0.3,1.7,0.8,2.3c0.6,0.6,1.3,0.9,2.2,0.9s1.6-0.3,2.1-0.9s0.8-1.4,0.8-2.3s-0.3-1.7-0.8-2.3
		s-1.2-0.9-2.1-0.9C143,261.5,142.3,261.8,141.8,262.4z"/>
	<path fill="#E7E1D4" d="M155.1,260.6v0.8l-4.6,6.3h4.9v0.9h-6.3v-0.8l4.6-6.3h-4.5v-0.9H155.1z"/>
	<path fill="#E7E1D4" d="M158.4,258.1c0,0.4-0.4,0.8-0.8,0.8s-0.8-0.3-0.8-0.8c0-0.4,0.3-0.8,0.8-0.8
		C158.1,257.4,158.4,257.8,158.4,258.1z M158.1,260.6v8h-1v-8H158.1z"/>
	<path fill="#E7E1D4" d="M161.8,257v11.8h-1V257H161.8z"/>
	<path fill="#E7E1D4" d="M165.6,257v11.8h-1V257H165.6z"/>
	<path fill="#E7E1D4" d="M173.5,263.5v5.4h-1v-1.2c-0.4,0.8-1.4,1.3-2.5,1.3c-1.4,0-2.3-0.9-2.3-2.1s0.7-2,2.2-2.3l2.6-0.5v-0.5
		c0-1.3-0.6-1.9-1.7-1.9c-1.1,0-1.8,0.6-1.8,1.7h-1c0-0.8,0.3-1.4,0.8-1.9s1.2-0.8,2-0.8C172.5,260.5,173.5,261.5,173.5,263.5z
		 M172.5,265l-2.4,0.5c-0.9,0.2-1.3,0.6-1.3,1.4s0.5,1.2,1.4,1.2c0.8,0,1.4-0.3,1.9-0.9c0.4-0.5,0.5-1,0.5-1.6L172.5,265L172.5,265z
		"/>
	<path fill="#E7E1D4" d="M185.3,257.5v1h-4.8v4.1h4.1v1h-4.1v5.1h-1.1v-11.3L185.3,257.5L185.3,257.5z"/>
	<path fill="#E7E1D4" d="M188.2,258.1c0,0.4-0.4,0.8-0.8,0.8s-0.8-0.3-0.8-0.8c0-0.4,0.3-0.8,0.8-0.8S188.2,257.8,188.2,258.1z
		 M187.9,260.6v8h-1v-8H187.9z"/>
	<path fill="#E7E1D4" d="M194.1,261.6c-0.7,0-1.2,0.2-1.6,0.7c-0.5,0.5-0.8,1.2-0.8,2.1v4.4h-1v-8h0.9v1.5c0.3-0.8,1.2-1.5,2.4-1.5
		v0.8H194.1z"/>
	<path fill="#E7E1D4" d="M202.4,264.6v0.6H196c0.1,1.7,1.2,2.9,2.8,2.9c1.3,0,2.1-0.5,2.5-1.5h1c-0.5,1.6-1.7,2.4-3.5,2.4
		c-1.1,0-2-0.4-2.7-1.2c-0.7-0.8-1.1-1.8-1.1-3s0.3-2.2,1-3s1.6-1.2,2.7-1.2C200.9,260.5,202.4,262,202.4,264.6z M196,264.2h5.4
		c0-1.7-1-2.7-2.6-2.7C197.2,261.5,196.1,262.5,196,264.2z"/>
	<path fill="#E7E1D4" d="M208.2,257.1v0.9c-0.3-0.1-0.7-0.2-1-0.2c-0.8,0-1.2,0.5-1.2,1.4v1.4h2.1v0.9H206v7.1h-1v-7.1h-1.6v-0.9
		h1.6v-1.4c0-1.5,0.8-2.3,2.1-2.3C207.5,257,207.9,257,208.2,257.1z"/>
	<path fill="#E7E1D4" d="M213,260.5c1.2,0,2.1,0.4,2.9,1.2c0.7,0.8,1.1,1.8,1.1,3s-0.4,2.2-1.1,3c-0.7,0.8-1.7,1.2-2.9,1.2
		s-2.1-0.4-2.9-1.2c-0.7-0.8-1.1-1.8-1.1-3s0.4-2.2,1.1-3C210.7,261,211.8,260.5,213,260.5z M210.7,262.4c-0.5,0.6-0.8,1.4-0.8,2.3
		s0.3,1.7,0.8,2.3c0.6,0.6,1.3,0.9,2.2,0.9s1.6-0.3,2.1-0.9s0.8-1.4,0.8-2.3s-0.3-1.7-0.8-2.3c-0.5-0.6-1.2-0.9-2.1-0.9
		C212.1,261.5,211.3,261.8,210.7,262.4z"/>
	<path fill="#E7E1D4" d="M224.6,260.6l-2.7,3.9l2.9,4.2h-1.2l-2.4-3.3l-2.4,3.3h-1.2l2.9-4.2l-2.7-3.9h1.2l2.1,3.1l2.2-3.1H224.6z"
		/>
	<path fill="#E7E1D4" d="M237.5,260.5h-7.3v-0.8h7.2v-2.4h0.9c0,0.6,0,1.4,0,2.4h4.2v0.8h-4.1c0.1,1.7,0.4,3.3,0.8,4.8
		c0.6-0.9,1.1-2.1,1.6-3.7l0.9,0.3c-0.6,1.9-1.3,3.4-2.1,4.5c0.4,1,0.7,1.6,1,2s0.6,0.5,0.8,0.5c0.1,0,0.2-0.1,0.3-0.4
		s0.2-0.8,0.3-1.5l0.9,0.3c-0.2,1.1-0.4,1.8-0.6,2.1c-0.2,0.3-0.5,0.5-0.8,0.5s-0.7-0.2-1.3-0.7c-0.5-0.4-1-1.1-1.4-2
		c-0.7,0.8-1.9,1.8-3.4,2.8l-0.7-0.7c1.5-0.8,2.8-1.8,3.8-3.1C238,264.9,237.6,262.9,237.5,260.5z M236.8,266.5l-0.1,0.9
		c-2.2,0.3-4.4,0.6-6.4,0.9l-0.1-0.9C232.2,267.2,234.4,267,236.8,266.5z M236.5,265.6h-5.2v-3.7h5.2V265.6z M235.6,264.9v-2h-3.5v2
		H235.6z M242,259l-0.7,0.6c-0.6-0.5-1.3-1-2.2-1.5l0.6-0.6C240.3,257.9,241,258.4,242,259z"/>
	<path fill="#E7E1D4" d="M254.8,257.5l4.6,11.3h-1.2l-1.3-3.2h-5.2l-1.3,3.2h-1.2l4.6-11.3H254.8z M254.3,259l-0.2,0.6l-2,4.9h4.4
		l-2-4.9L254.3,259z"/>
	<path fill="#E7E1D4" d="M267.8,261.8c0.7,0.8,1,1.8,1,3s-0.3,2.2-1,3s-1.6,1.2-2.7,1.2c-1.4,0-2.4-0.7-2.8-1.5v4.8h-1v-11.6h1v1.4
		c0.5-0.8,1.5-1.6,2.9-1.6C266.2,260.5,267.1,261,267.8,261.8z M263,262.2c-0.5,0.5-0.8,1.3-0.8,2.2v0.3c0,0.9,0.3,1.7,0.8,2.3
		c0.5,0.6,1.2,0.8,1.9,0.8c0.8,0,1.5-0.3,2-0.9s0.8-1.4,0.8-2.3s-0.3-1.7-0.8-2.3s-1.2-0.9-2-0.9C264.2,261.5,263.5,261.8,263,262.2
		z"/>
	<path fill="#E7E1D4" d="M277.5,261.8c0.7,0.8,1,1.8,1,3s-0.3,2.2-1,3s-1.6,1.2-2.7,1.2c-1.4,0-2.4-0.7-2.8-1.5v4.8h-1v-11.6h1v1.4
		c0.5-0.8,1.5-1.6,2.9-1.6C275.8,260.5,276.8,261,277.5,261.8z M272.6,262.2c-0.5,0.5-0.8,1.3-0.8,2.2v0.3c0,0.9,0.3,1.7,0.8,2.3
		c0.5,0.6,1.2,0.8,1.9,0.8c0.8,0,1.5-0.3,2-0.9s0.8-1.4,0.8-2.3s-0.3-1.7-0.8-2.3c-0.5-0.6-1.2-0.9-2-0.9
		C273.8,261.5,273.1,261.8,272.6,262.2z"/>
	<path fill="#E7E1D4" d="M281.4,257v11.8h-1V257H281.4z"/>
	<path fill="#E7E1D4" d="M290.8,264.6v0.6h-6.4c0.1,1.7,1.2,2.9,2.8,2.9c1.3,0,2.1-0.5,2.5-1.5h1c-0.5,1.6-1.7,2.4-3.5,2.4
		c-1.1,0-2-0.4-2.7-1.2c-0.7-0.8-1.1-1.8-1.1-3s0.3-2.2,1-3s1.6-1.2,2.7-1.2C289.3,260.5,290.8,262,290.8,264.6z M284.4,264.2h5.4
		c0-1.7-1-2.7-2.6-2.7C285.6,261.5,284.5,262.5,284.4,264.2z"/>
	<path fill="#E7E1D4" d="M302.3,260.4h-1.1c0-1.3-0.8-2.1-2.1-2.1c-1.2,0-2,0.8-2,2c0,0.6,0.2,1,0.5,1.3s1,0.6,1.9,1
		c1.2,0.4,2,0.9,2.4,1.4c0.5,0.4,0.7,1.1,0.7,1.9c0,1-0.3,1.8-0.9,2.3c-0.6,0.6-1.4,0.8-2.4,0.8c-2.2,0-3.6-1.3-3.6-3.4h1.1
		c0,1.6,0.9,2.5,2.5,2.5c1.5,0,2.3-0.9,2.3-2.2c0-1-0.7-1.6-2.6-2.3c-1-0.4-1.8-0.8-2.3-1.3s-0.7-1.1-0.7-1.9s0.3-1.6,0.8-2.1
		c0.5-0.6,1.3-0.9,2.3-0.9C301.1,257.4,302.3,258.5,302.3,260.4z"/>
	<path fill="#E7E1D4" d="M310,263.5v5.4h-1v-1.2c-0.4,0.8-1.4,1.3-2.5,1.3c-1.4,0-2.3-0.9-2.3-2.1s0.7-2,2.2-2.3l2.6-0.5v-0.5
		c0-1.3-0.6-1.9-1.7-1.9s-1.8,0.6-1.8,1.7h-1c0-0.8,0.3-1.4,0.8-1.9s1.2-0.8,2-0.8C308.9,260.5,310,261.5,310,263.5z M308.9,265
		l-2.4,0.5c-0.9,0.2-1.3,0.6-1.3,1.4s0.5,1.2,1.4,1.2c0.8,0,1.4-0.3,1.9-0.9c0.4-0.5,0.5-1,0.5-1.6V265H308.9z"/>
	<path fill="#E7E1D4" d="M316.1,257.1v0.9c-0.3-0.1-0.7-0.2-1-0.2c-0.8,0-1.2,0.5-1.2,1.4v1.4h2.1v0.9h-2.1v7.1h-1v-7.1h-1.6v-0.9
		h1.6v-1.4c0-1.5,0.8-2.3,2.1-2.3C315.5,257,315.9,257,316.1,257.1z"/>
	<path fill="#E7E1D4" d="M322.8,263.5v5.4h-1v-1.2c-0.4,0.8-1.4,1.3-2.5,1.3c-1.4,0-2.3-0.9-2.3-2.1s0.7-2,2.2-2.3l2.6-0.5v-0.5
		c0-1.3-0.6-1.9-1.7-1.9s-1.8,0.6-1.8,1.7h-1c0-0.8,0.3-1.4,0.8-1.9s1.2-0.8,2-0.8C321.8,260.5,322.8,261.5,322.8,263.5z M321.8,265
		l-2.4,0.5c-0.9,0.2-1.3,0.6-1.3,1.4s0.5,1.2,1.4,1.2c0.8,0,1.4-0.3,1.9-0.9c0.4-0.5,0.5-1,0.5-1.6V265H321.8z"/>
	<path fill="#E7E1D4" d="M328.9,261.6c-0.7,0-1.2,0.2-1.6,0.7c-0.5,0.5-0.8,1.2-0.8,2.1v4.4h-1v-8h0.9v1.5c0.3-0.8,1.2-1.5,2.4-1.5
		v0.8H328.9z"/>
	<path fill="#E7E1D4" d="M331.9,258.1c0,0.4-0.4,0.8-0.8,0.8s-0.8-0.3-0.8-0.8c0-0.4,0.3-0.8,0.8-0.8
		C331.5,257.4,331.9,257.8,331.9,258.1z M331.6,260.6v8h-1v-8H331.6z"/>
	<path fill="#E7E1D4" d="M334.4,269c-0.8,0-1.2-0.9-0.6-1.5c0.5-0.6,1.5-0.1,1.5,0.6C335.3,268.6,334.9,269,334.4,269z"/>
	<path fill="#E7E1D4" d="M348,260.1v-2.7h0.9v2.7h4.9v9.9h-0.9v-1h-9.1v1H343v-9.9H348z M348,264.1V261h-4.1v3.1H348z M348,268.2
		V265h-4.1v3.2H348z M348.9,261v3.1h4V261H348.9z M348.9,265v3.2h4V265H348.9z"/>
	<path fill="#E7E1D4" d="M361.5,261.4h1.8v0.8h-1.8v5.4l2-0.4v0.9c-3.3,0.6-5.5,1.1-6.7,1.3l-0.4-1c0.7-0.1,1.1-0.2,1.5-0.2v-8.2
		h0.9v7.9l1.8-0.3v-10.2h0.9L361.5,261.4L361.5,261.4z M364.8,263.1c1.4-0.9,2.6-2,3.5-3l0.6,0.6c-1.1,1.2-2.5,2.4-4.2,3.4v4
		c0,0.2,0.1,0.4,0.2,0.5s0.4,0.2,0.8,0.2h1c0.4,0,0.7-0.1,0.9-0.3s0.3-0.7,0.5-1.6l0.9,0.5c-0.2,0.7-0.3,1.2-0.4,1.4
		c-0.1,0.2-0.3,0.5-0.6,0.6c-0.3,0.1-0.7,0.2-1.3,0.2h-1c-0.8,0-1.3-0.1-1.5-0.3c-0.3-0.2-0.4-0.6-0.4-1.3v-10.7h0.9v5.7
		L364.8,263.1L364.8,263.1z"/>
	<path fill="#E7E1D4" d="M372.7,267.8V263h-1.9v-0.8h2.7v5.6c0.2,0.1,0.5,0.3,0.8,0.5s0.8,0.4,1.4,0.5s1.6,0.1,3,0.1s3,0,4.8,0
		l-0.4,0.9c-0.9,0-2,0-3.2,0s-2.2,0-3.1-0.1s-1.5-0.1-2-0.2c-0.4-0.1-0.8-0.3-1.1-0.5c-0.3-0.2-0.6-0.4-0.7-0.4
		c-0.2,0-0.4,0.1-0.6,0.2s-0.5,0.5-1,1.1l-0.7-0.5C371.5,268.5,372.2,268,372.7,267.8z M374.3,260.4l-0.7,0.4
		c-0.6-0.9-1.2-1.7-1.9-2.7l0.7-0.5C372.8,258.5,373.5,259.4,374.3,260.4z M376.4,260.1c-0.3,0.6-0.6,1.1-0.9,1.6l-0.8-0.4
		c0.8-1.3,1.4-2.5,1.8-3.8l0.8,0.3c-0.2,0.6-0.4,1.1-0.6,1.5h2v-1.9h0.9v1.9h2.9v0.8h-2.9v1.8h3.7v0.8h-9v-0.8h4.3v-1.8H376.4z
		 M382.3,267.9h-6.7v-3.8h6.7V267.9z M381.4,267v-2.1h-4.9v2.1H381.4z"/>
	<path fill="#E7E1D4" d="M396,259.6c-0.5-0.6-1-1.2-1.5-1.7l0.7-0.5c0.6,0.6,1.2,1.2,1.6,1.8l-0.6,0.3h1.6v0.8h-4.5
		c0.1,1.8,0.3,3.4,0.8,4.8c0.7-1,1.2-2.3,1.6-3.7l0.9,0.2c-0.7,2-1.4,3.6-2.1,4.5c0.3,0.6,0.6,1.2,1,1.8c0.4,0.5,0.7,0.8,0.9,0.8
		c0.1,0,0.2-0.1,0.3-0.3c0.1-0.2,0.2-0.6,0.3-1.4l0.9,0.3c-0.2,1-0.4,1.6-0.5,2c-0.2,0.3-0.4,0.5-0.7,0.5c-0.4,0-0.8-0.3-1.3-0.8
		c-0.5-0.6-1-1.3-1.4-2.1c-0.8,0.9-1.9,1.9-3.4,2.8l-0.7-0.7c1.6-0.9,2.8-2,3.7-3.1c-0.6-1.5-0.9-3.4-1-5.6h-4.7v1.8h3.3l-0.1,4.2
		c0,0.6-0.1,1-0.3,1.2c-0.2,0.2-0.6,0.4-1.1,0.4s-1,0-1.5-0.1l-0.3-1c0.6,0.1,1.1,0.2,1.6,0.2c0.3,0,0.5-0.1,0.6-0.2
		s0.1-0.4,0.2-0.7v-3.2h-2.5c0,1.7-0.1,3-0.4,4c-0.2,1-0.7,1.9-1.2,2.8l-0.9-0.3c0.6-0.9,1-1.8,1.3-2.8c0.2-0.9,0.4-2.3,0.4-4v-3.2
		h5.6c0-1,0-1.8,0-2.2h0.9c0,0.5,0,1.2,0,2.2h2.5L396,259.6L396,259.6z"/>
	<path fill="#E7E1D4" d="M401.8,259.9c0.3-0.9,0.6-1.7,0.8-2.5l0.9,0.2l-0.8,2.2h2.5v10h-0.9v-1.1h-3.2v1.2h-0.8v-10.1L401.8,259.9
		L401.8,259.9z M401.1,263.8h3.2v-3h-3.2V263.8z M404.3,264.5h-3.2v3.4h3.2V264.5z M407.4,260.4c-0.3,0.8-0.7,1.6-1.2,2.4l-0.8-0.4
		c1-1.7,1.7-3.3,2.2-5l0.8,0.3c-0.2,0.5-0.4,1.2-0.7,2h4l-0.2,8.6c0,0.5-0.1,0.8-0.2,1.1c-0.1,0.3-0.4,0.4-0.7,0.6
		c-0.3,0.2-0.9,0.2-1.6,0.2h-1.3l-0.3-1c0.7,0.1,1.3,0.1,1.9,0.1s0.9-0.1,1.1-0.3c0.1-0.2,0.2-0.5,0.2-1l0.1-7.3h-3.3V260.4z
		 M409.6,265.8l-0.8,0.5c-0.9-1.4-1.6-2.4-2.1-3.2l0.7-0.4L409.6,265.8z"/>
	<path fill="#E7E1D4" d="M420.6,259h-6.1v-0.8h11.9v0.8h-4.6c-0.5,0.9-1,1.7-1.4,2.2h0.4v8.7h-0.9v-7.9c-1.2,1.7-3,3.3-5.1,4.8
		l-0.8-0.6C417,264.2,419.2,261.8,420.6,259z M426.4,266.4l-0.7,0.6c-1-1.1-2.4-2.6-4.3-4.4l0.7-0.5
		C423.6,263.5,425.1,265,426.4,266.4z"/>
	<path fill="#E7E1D4" d="M430.2,262.6c-0.3,0.6-0.7,1.2-1,1.7l-0.9-0.4c1.4-1.9,2.4-4.1,3.1-6.6l0.9,0.3c-0.4,1.3-0.8,2.4-1.2,3.3
		v9.2h-0.9V262.6L430.2,262.6z M436.3,259h-3.7v-0.8h8.6v0.8h-3.9v1.3h3.4v4.9h-3.4c-0.1,1.1-0.3,1.9-0.7,2.5
		c1.2,0.7,2.7,1.2,4.6,1.3l-0.4,0.8c-2-0.2-3.6-0.7-4.8-1.5c-0.6,0.6-1.8,1.1-3.5,1.7l-0.6-0.8c1.6-0.4,2.7-0.9,3.3-1.4
		c-0.7-0.5-1.4-1.2-2-1.9l0.6-0.5c0.7,0.7,1.4,1.3,2,1.7c0.4-0.5,0.5-1.2,0.6-2H433v-4.9h3.4V259H436.3z M436.3,262.2V261h-2.5v1.2
		H436.3z M436.3,263.2h-2.5v1.2h2.5V263.2z M437.2,263.2v1.2h2.6v-1.2H437.2z M437.2,262.2h2.5V261h-2.5V262.2z"/>
	<path fill="#E7E1D4" d="M443.9,271l-0.4-0.1c0.3-0.5,0.5-1.1,0.6-1.8c-0.7,0-1-0.9-0.5-1.4s1.5-0.1,1.4,0.6
		C445,269.1,444.5,270.2,443.9,271z"/>
	<path fill="#E7E1D4" d="M460.3,259.8h4v0.8h-1c-0.3,2.5-0.8,4.4-1.6,5.8c0.7,1.2,1.7,2.2,2.8,2.8l-0.7,0.7c-1-0.6-1.9-1.5-2.6-2.6
		c-0.7,1-1.7,1.9-2.9,2.7l-0.7-0.6c1.3-0.9,2.4-1.8,3.1-2.9c-0.6-1.2-1-2.5-1.3-4c-0.2,0.4-0.4,0.9-0.7,1.3l-0.7-0.3l-0.1,3
		c-0.1,1-0.1,1.7-0.1,2s-0.1,0.6-0.2,0.8c-0.1,0.2-0.3,0.4-0.5,0.5s-0.5,0.2-0.9,0.2s-0.9,0-1.6,0l-0.2-0.9c0.7,0.1,1.3,0.1,1.6,0.1
		s0.5,0,0.7-0.1c0.1-0.1,0.2-0.2,0.2-0.3c0-0.1,0.1-0.6,0.1-1.4l0.2-4.8h-3.6c-0.1,0.1-0.2,0.5-0.5,1h3v4.7h-0.8v-0.7h-1.6v0.9h-0.8
		v-4.4c-0.1,0.2-0.3,0.5-0.5,0.8l-0.8-0.4c0.8-1.1,1.4-2.3,1.8-3.7l0.8,0.2c-0.1,0.3-0.2,0.6-0.3,0.8h4.2c0,0.8,0,1.3-0.1,1.7
		c0.9-1.6,1.5-3.5,1.9-5.8l0.8,0.1C460.7,258.4,460.5,259,460.3,259.8z M454.4,259.5v1h-0.9v-1h-1.7v-0.8h1.7v-1.2h0.9v1.2h1.7v-1.2
		h0.9v1.2h1.7v0.8H457v1.2h-0.9v-1.2H454.4z M455.2,266.5v-2.4h-1.6v2.4H455.2z M462.5,260.5h-2.4v0.1c0,0.1,0,0.1,0,0.1
		c0.3,1.8,0.7,3.3,1.2,4.6C461.8,264.2,462.3,262.5,462.5,260.5z"/>
	<path fill="#E7E1D4" d="M470.6,267.5l-1.5,1.2c-0.4,0.3-0.7,0.6-0.9,1l-0.7-0.7c0.3-0.2,0.5-0.5,0.5-0.8v-4.9h-1.9v-0.8h2.7v5.5
		l1.3-1.1L470.6,267.5z M469.6,260.4l-0.8,0.4c-0.5-0.8-1.1-1.7-1.8-2.7l0.7-0.4C468.3,258.5,469,259.5,469.6,260.4z M474,259.4
		h-3.4v-0.8h3.4v-1.2h0.8v1.2h3.4v0.8h-3.4v0.9h2.9v0.8h-2.9v0.9h3.8v0.8h-8.5v-0.8h3.8V261H471v-0.8h2.9v-0.9H474z M471.7,267.9
		v2.2h-0.8v-6.4h6.9v5c0,0.5-0.1,0.8-0.2,1s-0.3,0.3-0.6,0.3s-0.5,0.1-0.9,0.1s-0.6,0-0.9,0l-0.3-0.9c0.8,0.1,1.3,0.1,1.5,0.1
		s0.3,0,0.4-0.1s0.1-0.2,0.1-0.5v-0.9L471.7,267.9L471.7,267.9z M471.7,265.4h5.2v-0.9h-5.2V265.4z M477,266.1h-5.2v0.9h5.2V266.1z"
		/>
	<path fill="#E7E1D4" d="M483.5,268.1c-0.1,0.1-0.2,0.2-0.3,0.3c-0.1,0.1-0.1,0.2-0.2,0.2c-0.1,0.1-0.1,0.1-0.2,0.2
		s-0.1,0.2-0.2,0.3l-0.8-0.6c0.1-0.1,0.2-0.2,0.2-0.3c0-0.1,0.1-0.1,0.1-0.2s0.1-0.1,0.1-0.2s0-0.2,0-0.3v-4.9h-1.8v-0.8h2.7v5.4
		l1.4-1.5l0.5,0.8L483.5,268.1z M483.3,260.6c-0.2-0.3-0.4-0.5-0.5-0.7s-0.3-0.4-0.5-0.6s-0.3-0.4-0.5-0.6s-0.4-0.4-0.6-0.6l0.7-0.6
		c0.5,0.5,0.9,0.9,1.2,1.3c0.3,0.4,0.7,0.8,1,1.2L483.3,260.6z M487,266.2c-0.2,0.4-0.4,0.7-0.6,1s-0.4,0.6-0.5,0.8
		c-0.2,0.3-0.4,0.5-0.6,0.8s-0.4,0.5-0.7,0.8l-0.8-0.5c0.5-0.5,0.9-1,1.3-1.5s0.7-1.1,1-1.7L487,266.2z M488.5,259
		c-0.1-0.2-0.3-0.5-0.5-0.7s-0.3-0.5-0.5-0.7l0.8-0.3c0.2,0.4,0.4,0.7,0.6,0.9c0.2,0.2,0.3,0.5,0.6,0.8h3.6v0.8h-8.4v-0.8L488.5,259
		L488.5,259z M489.3,268.5c0,0.3,0,0.5,0,0.7s-0.1,0.3-0.2,0.5c-0.1,0.1-0.2,0.2-0.4,0.3c-0.2,0.1-0.4,0.1-0.6,0.1s-0.4,0-0.6,0
		s-0.5,0-0.8-0.1l-0.2-0.9c0.3,0,0.6,0.1,0.8,0.1c0.2,0,0.4,0,0.6,0c0.3,0,0.5-0.1,0.6-0.2s0.1-0.3,0.1-0.6v-3.2h-3v-4h6.8v4h-3.1
		L489.3,268.5L489.3,268.5z M491.3,262h-5v2.4h5V262z M492.3,269.5c-0.3-0.6-0.6-1.1-0.9-1.7c-0.3-0.5-0.7-1.1-1-1.7l0.7-0.4
		c0.2,0.3,0.4,0.6,0.6,0.9s0.3,0.5,0.5,0.8s0.3,0.5,0.5,0.8s0.3,0.6,0.5,0.9L492.3,269.5z"/>
	<path fill="#E7E1D4" d="M495.9,261.5l-0.2,0.2l-0.8-0.4c1.2-1.3,2-2.6,2.3-3.9l0.9,0.3c-0.2,0.5-0.3,0.8-0.4,0.8h2.9l-1.4,2.3h1.6
		v1.1c0.7-0.4,1.3-0.8,1.6-1.3c0.3-0.4,0.5-0.9,0.6-1.5h-1.7v-0.8h5.8l-0.2,2.5c0,0.6-0.2,1-0.5,1.2s-0.7,0.3-1.2,0.3s-1,0-1.4-0.1
		l-0.2-0.9c0.7,0.1,1.2,0.1,1.5,0.1s0.5-0.1,0.7-0.2s0.2-0.3,0.3-0.6l0.1-1.5h-2.3c-0.1,0.8-0.3,1.4-0.7,1.9s-1,1-1.8,1.5l-0.6-0.5
		v6.7c0,0.6-0.1,1-0.3,1.1c-0.2,0.1-0.5,0.2-0.9,0.2c-0.1,0-0.3,0-0.6,0l-0.3-0.8c0.3,0,0.5,0,0.7,0s0.3,0,0.4-0.1s0.1-0.2,0.1-0.3
		v-2.4h-1.3v3.4h-0.8v-3.4h-1.3c-0.1,1.4-0.4,2.7-1,3.7l-0.8-0.2c0.4-0.7,0.7-1.3,0.8-2.1c0.1-0.7,0.2-1.8,0.2-3.3v-3L495.9,261.5
		L495.9,261.5z M497.3,259.2c-0.3,0.5-0.6,1-0.9,1.5h2l0.8-1.5H497.3z M498,264h-1.3c0,0.8,0,1.4,0,1.7h1.3V264z M496.7,263.1h1.3
		v-1.5h-1.3V263.1z M498.8,263.1h1.3v-1.5h-1.3V263.1z M500.1,264h-1.3v1.7h1.3V264z M503,263.9h1.2v-1.4h0.9v1.4h2.3v0.8h-2.3v1.9
		h2.5v0.8h-2.5v2.7h-0.9v-2.7h-3.1v-0.8h3.1v-1.9h-1.5c-0.3,0.5-0.5,1-0.8,1.5l-0.8-0.2c0.7-1.2,1.3-2.3,1.5-3.4l0.8,0.2
		C503.2,263.1,503.1,263.6,503,263.9z"/>
	<path fill="#E7E1D4" d="M510.6,269c-0.8,0-1.2-0.9-0.6-1.5c0.5-0.6,1.5-0.1,1.5,0.6C511.5,268.6,511.1,269,510.6,269z"/>
</g>
</svg>
